M48
;DRILL file {KiCad (after 2015-may-25 BZR unknown)-product} date 15/07/2015 13:20:55
;FORMAT={-:-/ absolute / metric / decimal}
FMAT,2
METRIC,TZ
T1C0.500
T2C0.813
T3C1.016
T4C1.151
T5C3.500
%
G90
G05
M71
T1
X192.405Y-83.439
X192.913Y-45.72
X193.421Y-78.74
X193.548Y-50.038
X193.802Y-54.356
X193.802Y-55.88
X193.802Y-87.376
X193.802Y-88.9
X194.945Y-78.74
X195.072Y-45.72
X195.441Y-47.129
X196.85Y-57.912
X197.358Y-116.32
X197.612Y-90.932
X198.12Y-58.293
X198.628Y-90.17
X199.263Y-57.277
X199.51Y-122.293
X199.517Y-120.269
X199.644Y-89.154
X201.93Y-123.952
X202.311Y-120.269
X202.565Y-50.038
X202.565Y-54.864
X202.565Y-97.282
X202.946Y-119.634
X202.953Y-122.944
X203.02Y-124.893
X203.073Y-64.262
X203.708Y-132.715
X203.835Y-57.277
X203.962Y-83.058
X204.978Y-83.82
X204.978Y-87.884
X204.978Y-96.52
X205.105Y-62.484
X205.232Y-128.778
X205.232Y-132.715
X206.502Y-58.42
X206.756Y-132.715
X207.899Y-59.944
X208.407Y-63.246
X208.534Y-50.673
X208.534Y-66.421
X208.661Y-52.959
X209.677Y-49.784
X210.947Y-122.555
X210.947Y-123.952
X212.471Y-60.198
X212.471Y-125.603
X213.614Y-88.9
X213.741Y-124.587
X213.868Y-50.927
X214.63Y-90.17
X215.9Y-91.186
X216.154Y-117.475
X216.154Y-119.253
X222.377Y-119.888
X222.758Y-128.524
X223.774Y-117.983
X224.536Y-122.428
X224.79Y-124.079
X226.441Y-119.126
X226.441Y-120.269
T2
X207.645Y-86.995
X207.645Y-93.345
X210.185Y-86.995
X210.185Y-93.345
T3
X189.23Y-52.578
X189.23Y-55.118
X189.23Y-57.658
X189.23Y-60.198
X189.23Y-85.598
X189.23Y-88.138
X189.23Y-90.678
X189.23Y-93.218
X189.23Y-118.618
X189.23Y-121.158
X189.23Y-123.698
X189.23Y-126.238
X191.77Y-43.18
X191.77Y-69.85
X191.77Y-76.2
X191.77Y-102.87
X191.77Y-109.22
X191.77Y-135.89
X192.786Y-133.096
X194.31Y-43.18
X194.31Y-69.85
X194.31Y-76.2
X194.31Y-102.87
X194.31Y-109.22
X194.31Y-135.89
X196.088Y-130.048
X196.088Y-133.096
X196.85Y-43.18
X196.85Y-69.85
X196.85Y-76.2
X196.85Y-102.87
X196.85Y-109.22
X196.85Y-135.89
X199.39Y-43.18
X199.39Y-69.85
X199.39Y-76.2
X199.39Y-102.87
X199.39Y-109.22
X199.39Y-133.096
X199.39Y-135.89
X201.93Y-43.18
X201.93Y-69.85
X201.93Y-76.2
X201.93Y-102.87
X201.93Y-109.22
X201.93Y-135.89
X204.47Y-43.18
X204.47Y-69.85
X204.47Y-76.2
X204.47Y-102.87
X204.47Y-109.22
X204.47Y-135.89
X207.01Y-43.18
X207.01Y-69.85
X207.01Y-76.2
X207.01Y-102.87
X207.01Y-109.22
X207.01Y-135.89
X209.55Y-43.18
X209.55Y-69.85
X209.55Y-76.2
X209.55Y-102.87
X209.55Y-109.22
X209.55Y-135.89
X212.09Y-43.18
X212.09Y-69.85
X212.09Y-76.2
X212.09Y-102.87
X212.09Y-109.22
X212.09Y-135.89
X214.63Y-43.18
X214.63Y-69.85
X214.63Y-76.2
X214.63Y-102.87
X214.63Y-109.22
X214.63Y-135.89
X217.17Y-43.18
X217.17Y-69.85
X217.17Y-76.2
X217.17Y-102.87
X217.17Y-109.22
X217.17Y-135.89
X219.71Y-43.18
X219.71Y-69.85
X219.71Y-76.2
X219.71Y-102.87
X219.71Y-109.22
X219.71Y-135.89
X229.87Y-52.578
X229.87Y-55.118
X229.87Y-57.658
X229.87Y-60.198
X229.87Y-85.598
X229.87Y-88.138
X229.87Y-90.678
X229.87Y-93.218
T4
X220.345Y-86.995
X220.345Y-93.345
X225.425Y-86.995
X225.425Y-93.345
T5
X228.092Y-44.704
X228.092Y-68.072
X228.092Y-77.724
X228.092Y-101.092
X228.092Y-110.744
X228.092Y-134.112
T0
M30
