G04 #@! TF.FileFunction,Copper,L3,Inr,Plane*
%FSLAX45Y45*%
G04 Gerber Fmt 4.5, Leading zero omitted, Abs format (unit mm)*
G04 Created by KiCad (PCBNEW (after 2015-may-25 BZR unknown)-product) date 15/07/2015 13:23:27*
%MOMM*%
G01*
G04 APERTURE LIST*
%ADD10C,0.150000*%
%ADD11R,1.524000X1.524000*%
%ADD12C,1.524000*%
%ADD13C,1.998980*%
%ADD14R,2.235200X2.235200*%
%ADD15C,0.800100*%
%ADD16C,1.000760*%
%ADD17C,0.254000*%
G04 APERTURE END LIST*
D10*
D11*
X22987000Y-5257800D03*
D12*
X22987000Y-5511800D03*
X22987000Y-5765800D03*
X22987000Y-6019800D03*
D11*
X21209000Y-4318000D03*
D12*
X21463000Y-4318000D03*
X21717000Y-4318000D03*
X21971000Y-4318000D03*
D11*
X20193000Y-4318000D03*
D12*
X20447000Y-4318000D03*
X20701000Y-4318000D03*
X20955000Y-4318000D03*
D11*
X19177000Y-4318000D03*
D12*
X19431000Y-4318000D03*
X19685000Y-4318000D03*
X19939000Y-4318000D03*
D11*
X21209000Y-6985000D03*
D12*
X21463000Y-6985000D03*
X21717000Y-6985000D03*
X21971000Y-6985000D03*
D11*
X20193000Y-6985000D03*
D12*
X20447000Y-6985000D03*
X20701000Y-6985000D03*
X20955000Y-6985000D03*
D11*
X19177000Y-6985000D03*
D12*
X19431000Y-6985000D03*
X19685000Y-6985000D03*
X19939000Y-6985000D03*
D11*
X18923000Y-5257800D03*
D12*
X18923000Y-5511800D03*
X18923000Y-5765800D03*
X18923000Y-6019800D03*
D11*
X22987000Y-8559800D03*
D12*
X22987000Y-8813800D03*
X22987000Y-9067800D03*
X22987000Y-9321800D03*
D11*
X21209000Y-7620000D03*
D12*
X21463000Y-7620000D03*
X21717000Y-7620000D03*
X21971000Y-7620000D03*
D11*
X20193000Y-7620000D03*
D12*
X20447000Y-7620000D03*
X20701000Y-7620000D03*
X20955000Y-7620000D03*
D11*
X19177000Y-7620000D03*
D12*
X19431000Y-7620000D03*
X19685000Y-7620000D03*
X19939000Y-7620000D03*
D11*
X21209000Y-10287000D03*
D12*
X21463000Y-10287000D03*
X21717000Y-10287000D03*
X21971000Y-10287000D03*
D11*
X20193000Y-10287000D03*
D12*
X20447000Y-10287000D03*
X20701000Y-10287000D03*
X20955000Y-10287000D03*
D11*
X19177000Y-10287000D03*
D12*
X19431000Y-10287000D03*
X19685000Y-10287000D03*
X19939000Y-10287000D03*
D11*
X18923000Y-8559800D03*
D12*
X18923000Y-8813800D03*
X18923000Y-9067800D03*
X18923000Y-9321800D03*
D13*
X20764500Y-8699500D03*
X21018500Y-8699500D03*
X22034500Y-8699500D03*
X22542500Y-8699500D03*
X20764500Y-9334500D03*
X21018500Y-9334500D03*
X22034500Y-9334500D03*
X22542500Y-9334500D03*
D11*
X21209000Y-10922000D03*
D12*
X21463000Y-10922000D03*
X21717000Y-10922000D03*
X21971000Y-10922000D03*
D11*
X20193000Y-10922000D03*
D12*
X20447000Y-10922000D03*
X20701000Y-10922000D03*
X20955000Y-10922000D03*
D11*
X19177000Y-10922000D03*
D12*
X19431000Y-10922000D03*
X19685000Y-10922000D03*
X19939000Y-10922000D03*
D11*
X21209000Y-13589000D03*
D12*
X21463000Y-13589000D03*
X21717000Y-13589000D03*
X21971000Y-13589000D03*
D11*
X20193000Y-13589000D03*
D12*
X20447000Y-13589000D03*
X20701000Y-13589000D03*
X20955000Y-13589000D03*
D11*
X19177000Y-13589000D03*
D12*
X19431000Y-13589000D03*
X19685000Y-13589000D03*
X19939000Y-13589000D03*
D11*
X18923000Y-11861800D03*
D12*
X18923000Y-12115800D03*
X18923000Y-12369800D03*
X18923000Y-12623800D03*
D14*
X19939000Y-13309600D03*
X19608800Y-13309600D03*
X19278600Y-13309600D03*
X19608800Y-13004800D03*
D15*
X21590000Y-9118600D03*
X19761200Y-9093200D03*
X19685000Y-5791200D03*
X20789900Y-5994400D03*
X19380200Y-8890000D03*
X19380200Y-5588000D03*
X19380200Y-8737600D03*
X19380200Y-5435600D03*
X21386800Y-5092700D03*
X20967700Y-4978400D03*
X20510500Y-6248400D03*
X21247100Y-6019800D03*
X20396200Y-8305800D03*
X20256500Y-5003800D03*
X20497800Y-8788400D03*
X20256500Y-5486400D03*
X19964400Y-8915400D03*
X21361400Y-8890000D03*
X19926300Y-5727700D03*
X20383500Y-5727700D03*
X19862800Y-9017000D03*
X21463000Y-9017000D03*
X20650200Y-5842000D03*
X19812000Y-5829300D03*
X20231100Y-12026900D03*
X20294600Y-11963400D03*
X19950950Y-12229350D03*
X22275800Y-12852400D03*
X21094700Y-12395200D03*
X21094700Y-12255500D03*
X19735800Y-11632000D03*
X20295350Y-12294350D03*
X20302050Y-12489350D03*
X22644100Y-12026900D03*
X22644100Y-11912600D03*
X22237700Y-11988800D03*
X22377400Y-11798300D03*
X19342100Y-7874000D03*
X19494500Y-7874000D03*
X20256500Y-9728200D03*
X19291300Y-4572000D03*
X20866100Y-5295900D03*
X20307300Y-6426200D03*
X20840700Y-6324600D03*
X19507200Y-4572000D03*
X19544100Y-4712900D03*
X20523200Y-12877800D03*
X19240500Y-8343900D03*
X20497800Y-9652000D03*
X20497800Y-8382000D03*
X20853400Y-5067300D03*
X20853400Y-6642100D03*
X19354800Y-5003800D03*
X22479000Y-12407900D03*
X21247100Y-12560300D03*
X22453600Y-12242800D03*
X21374100Y-12458700D03*
X20193000Y-12395200D03*
X19951700Y-12026900D03*
X20523200Y-13271500D03*
X20675600Y-13271500D03*
X20370800Y-13271500D03*
X21615400Y-11747500D03*
X21615400Y-11925300D03*
D16*
X22034500Y-9334500D02*
X22034500Y-9169400D01*
X22834600Y-9321800D02*
X22987000Y-9321800D01*
X22783800Y-9271000D02*
X22834600Y-9321800D01*
X22783800Y-9207500D02*
X22783800Y-9271000D01*
X22644100Y-9067800D02*
X22783800Y-9207500D01*
X22136100Y-9067800D02*
X22644100Y-9067800D01*
X22034500Y-9169400D02*
X22136100Y-9067800D01*
D17*
G36*
X22110700Y-7170674D02*
X22110446Y-7170674D01*
X22110446Y-7012686D01*
X22110446Y-6957314D01*
X22089110Y-6906006D01*
X22049994Y-6866890D01*
X21998686Y-6845554D01*
X21943314Y-6845554D01*
X21892006Y-6866890D01*
X21852890Y-6906006D01*
X21844000Y-6927342D01*
X21835110Y-6906006D01*
X21795994Y-6866890D01*
X21744686Y-6845554D01*
X21689314Y-6845554D01*
X21638006Y-6866890D01*
X21598890Y-6906006D01*
X21590000Y-6927342D01*
X21581110Y-6906006D01*
X21541994Y-6866890D01*
X21490686Y-6845554D01*
X21435314Y-6845554D01*
X21384006Y-6866890D01*
X21348446Y-6902450D01*
X21348446Y-6896354D01*
X21338794Y-6872986D01*
X21321014Y-6855206D01*
X21297900Y-6845554D01*
X21272754Y-6845554D01*
X21120354Y-6845554D01*
X21096986Y-6855206D01*
X21079206Y-6872986D01*
X21069554Y-6896100D01*
X21069554Y-6902450D01*
X21033994Y-6866890D01*
X20982686Y-6845554D01*
X20927314Y-6845554D01*
X20876006Y-6866890D01*
X20836890Y-6906006D01*
X20828000Y-6927342D01*
X20819110Y-6906006D01*
X20779994Y-6866890D01*
X20728686Y-6845554D01*
X20673314Y-6845554D01*
X20622006Y-6866890D01*
X20600924Y-6887972D01*
X20600924Y-6370574D01*
X20600924Y-6329680D01*
X20600924Y-5506974D01*
X20600924Y-5466080D01*
X20600924Y-5100574D01*
X20600924Y-5059680D01*
X20585176Y-5021834D01*
X20556474Y-4992624D01*
X20518374Y-4976876D01*
X20496530Y-4976876D01*
X20483576Y-4945634D01*
X20454874Y-4916424D01*
X20416774Y-4900676D01*
X20375880Y-4900676D01*
X20338034Y-4916424D01*
X20308824Y-4945126D01*
X20293076Y-4983226D01*
X20293076Y-5024120D01*
X20308824Y-5061966D01*
X20337526Y-5091176D01*
X20375626Y-5106924D01*
X20397216Y-5106924D01*
X20410424Y-5138166D01*
X20439126Y-5167376D01*
X20477226Y-5183124D01*
X20518120Y-5183124D01*
X20555966Y-5167376D01*
X20585176Y-5138674D01*
X20600924Y-5100574D01*
X20600924Y-5466080D01*
X20585176Y-5428234D01*
X20556474Y-5399024D01*
X20518374Y-5383276D01*
X20477480Y-5383276D01*
X20439634Y-5399024D01*
X20410424Y-5427726D01*
X20394676Y-5465826D01*
X20394676Y-5506720D01*
X20410424Y-5544566D01*
X20439126Y-5573776D01*
X20477226Y-5589524D01*
X20518120Y-5589524D01*
X20555966Y-5573776D01*
X20585176Y-5545074D01*
X20600924Y-5506974D01*
X20600924Y-6329680D01*
X20585176Y-6291834D01*
X20556474Y-6262624D01*
X20518374Y-6246876D01*
X20477480Y-6246876D01*
X20439634Y-6262624D01*
X20410424Y-6291326D01*
X20394676Y-6329426D01*
X20394676Y-6370320D01*
X20410424Y-6408166D01*
X20439126Y-6437376D01*
X20477226Y-6453124D01*
X20518120Y-6453124D01*
X20555966Y-6437376D01*
X20585176Y-6408674D01*
X20600924Y-6370574D01*
X20600924Y-6887972D01*
X20582890Y-6906006D01*
X20574000Y-6927342D01*
X20565110Y-6906006D01*
X20525994Y-6866890D01*
X20474686Y-6845554D01*
X20419314Y-6845554D01*
X20368006Y-6866890D01*
X20332446Y-6902450D01*
X20332446Y-6896354D01*
X20322794Y-6872986D01*
X20305014Y-6855206D01*
X20281900Y-6845554D01*
X20256754Y-6845554D01*
X20104354Y-6845554D01*
X20080986Y-6855206D01*
X20067524Y-6868668D01*
X20067524Y-5633974D01*
X20067524Y-5593080D01*
X20051776Y-5555234D01*
X20023074Y-5526024D01*
X20017232Y-5523484D01*
X20017232Y-4414012D01*
X19939000Y-4336034D01*
X19920966Y-4353814D01*
X19920966Y-4318000D01*
X19842988Y-4239768D01*
X19819112Y-4246626D01*
X19813016Y-4263136D01*
X19803110Y-4239006D01*
X19763994Y-4199890D01*
X19712686Y-4178554D01*
X19657314Y-4178554D01*
X19606006Y-4199890D01*
X19566890Y-4239006D01*
X19558000Y-4260342D01*
X19549110Y-4239006D01*
X19509994Y-4199890D01*
X19458686Y-4178554D01*
X19403314Y-4178554D01*
X19352006Y-4199890D01*
X19316446Y-4235450D01*
X19316446Y-4229354D01*
X19306794Y-4205986D01*
X19289014Y-4188206D01*
X19265900Y-4178554D01*
X19240754Y-4178554D01*
X19088354Y-4178554D01*
X19064986Y-4188206D01*
X19047206Y-4205986D01*
X19037554Y-4229100D01*
X19037554Y-4254246D01*
X19037554Y-4406646D01*
X19047206Y-4430014D01*
X19064986Y-4447794D01*
X19088100Y-4457446D01*
X19113246Y-4457446D01*
X19265646Y-4457446D01*
X19289014Y-4447794D01*
X19306794Y-4430014D01*
X19316446Y-4406900D01*
X19316446Y-4400550D01*
X19352006Y-4436110D01*
X19403314Y-4457446D01*
X19458686Y-4457446D01*
X19509994Y-4436110D01*
X19549110Y-4396994D01*
X19558000Y-4375404D01*
X19566890Y-4396994D01*
X19606006Y-4436110D01*
X19657314Y-4457446D01*
X19712686Y-4457446D01*
X19763994Y-4436110D01*
X19803110Y-4396994D01*
X19812508Y-4373626D01*
X19819112Y-4389374D01*
X19842988Y-4396232D01*
X19920966Y-4318000D01*
X19920966Y-4353814D01*
X19860768Y-4414012D01*
X19867626Y-4437888D01*
X19918934Y-4455922D01*
X19973036Y-4453128D01*
X20010374Y-4437888D01*
X20017232Y-4414012D01*
X20017232Y-5523484D01*
X19984974Y-5510276D01*
X19944080Y-5510276D01*
X19906234Y-5526024D01*
X19877024Y-5554726D01*
X19861276Y-5592826D01*
X19861276Y-5611876D01*
X19842480Y-5611876D01*
X19804634Y-5627624D01*
X19775424Y-5656326D01*
X19762216Y-5688076D01*
X19740880Y-5688076D01*
X19703034Y-5703824D01*
X19673824Y-5732526D01*
X19658076Y-5770626D01*
X19658076Y-5811520D01*
X19673824Y-5849366D01*
X19702526Y-5878576D01*
X19740626Y-5894324D01*
X19781520Y-5894324D01*
X19819366Y-5878576D01*
X19848576Y-5849874D01*
X19861530Y-5818124D01*
X19883120Y-5818124D01*
X19920966Y-5802376D01*
X19950176Y-5773674D01*
X19965924Y-5735574D01*
X19965924Y-5716524D01*
X19984720Y-5716524D01*
X20022566Y-5700776D01*
X20051776Y-5672074D01*
X20067524Y-5633974D01*
X20067524Y-6868668D01*
X20063206Y-6872986D01*
X20053554Y-6896100D01*
X20053554Y-6911848D01*
X20035012Y-6906768D01*
X20017232Y-6924548D01*
X20017232Y-6888988D01*
X20010374Y-6865112D01*
X19959066Y-6847078D01*
X19904964Y-6849872D01*
X19867626Y-6865112D01*
X19860768Y-6888988D01*
X19939000Y-6966966D01*
X20017232Y-6888988D01*
X20017232Y-6924548D01*
X19957034Y-6985000D01*
X20035012Y-7063232D01*
X20053554Y-7057898D01*
X20053554Y-7073646D01*
X20063206Y-7097014D01*
X20080986Y-7114794D01*
X20104100Y-7124446D01*
X20129246Y-7124446D01*
X20281646Y-7124446D01*
X20305014Y-7114794D01*
X20322794Y-7097014D01*
X20332446Y-7073900D01*
X20332446Y-7067550D01*
X20368006Y-7103110D01*
X20419314Y-7124446D01*
X20474686Y-7124446D01*
X20525994Y-7103110D01*
X20565110Y-7063994D01*
X20574000Y-7042404D01*
X20582890Y-7063994D01*
X20622006Y-7103110D01*
X20673314Y-7124446D01*
X20728686Y-7124446D01*
X20779994Y-7103110D01*
X20819110Y-7063994D01*
X20828000Y-7042404D01*
X20836890Y-7063994D01*
X20876006Y-7103110D01*
X20927314Y-7124446D01*
X20982686Y-7124446D01*
X21033994Y-7103110D01*
X21069554Y-7067550D01*
X21069554Y-7073646D01*
X21079206Y-7097014D01*
X21096986Y-7114794D01*
X21120100Y-7124446D01*
X21145246Y-7124446D01*
X21297646Y-7124446D01*
X21321014Y-7114794D01*
X21338794Y-7097014D01*
X21348446Y-7073900D01*
X21348446Y-7067550D01*
X21384006Y-7103110D01*
X21435314Y-7124446D01*
X21490686Y-7124446D01*
X21541994Y-7103110D01*
X21581110Y-7063994D01*
X21590000Y-7042404D01*
X21598890Y-7063994D01*
X21638006Y-7103110D01*
X21689314Y-7124446D01*
X21744686Y-7124446D01*
X21795994Y-7103110D01*
X21835110Y-7063994D01*
X21844000Y-7042404D01*
X21852890Y-7063994D01*
X21892006Y-7103110D01*
X21943314Y-7124446D01*
X21998686Y-7124446D01*
X22049994Y-7103110D01*
X22089110Y-7063994D01*
X22110446Y-7012686D01*
X22110446Y-7170674D01*
X20017232Y-7170674D01*
X20017232Y-7081012D01*
X19939000Y-7003034D01*
X19920966Y-7020814D01*
X19920966Y-6985000D01*
X19842988Y-6906768D01*
X19819112Y-6913626D01*
X19813016Y-6930136D01*
X19803110Y-6906006D01*
X19763994Y-6866890D01*
X19712686Y-6845554D01*
X19657314Y-6845554D01*
X19606006Y-6866890D01*
X19566890Y-6906006D01*
X19558000Y-6927342D01*
X19549110Y-6906006D01*
X19509994Y-6866890D01*
X19483324Y-6855714D01*
X19483324Y-5608574D01*
X19483324Y-5567680D01*
X19467576Y-5529834D01*
X19449796Y-5511546D01*
X19467576Y-5494274D01*
X19483324Y-5456174D01*
X19483324Y-5415280D01*
X19467576Y-5377434D01*
X19457924Y-5367528D01*
X19457924Y-5024374D01*
X19457924Y-4983480D01*
X19442176Y-4945634D01*
X19413474Y-4916424D01*
X19375374Y-4900676D01*
X19334480Y-4900676D01*
X19296634Y-4916424D01*
X19267424Y-4945126D01*
X19251676Y-4983226D01*
X19251676Y-5024120D01*
X19267424Y-5061966D01*
X19296126Y-5091176D01*
X19334226Y-5106924D01*
X19375120Y-5106924D01*
X19412966Y-5091176D01*
X19442176Y-5062474D01*
X19457924Y-5024374D01*
X19457924Y-5367528D01*
X19438874Y-5348224D01*
X19400774Y-5332476D01*
X19359880Y-5332476D01*
X19322034Y-5348224D01*
X19292824Y-5376926D01*
X19277076Y-5415026D01*
X19277076Y-5455920D01*
X19292824Y-5493766D01*
X19310350Y-5511800D01*
X19292824Y-5529326D01*
X19277076Y-5567426D01*
X19277076Y-5608320D01*
X19292824Y-5646166D01*
X19321526Y-5675376D01*
X19359626Y-5691124D01*
X19400520Y-5691124D01*
X19438366Y-5675376D01*
X19467576Y-5646674D01*
X19483324Y-5608574D01*
X19483324Y-6855714D01*
X19458686Y-6845554D01*
X19403314Y-6845554D01*
X19352006Y-6866890D01*
X19316446Y-6902450D01*
X19316446Y-6896354D01*
X19306794Y-6872986D01*
X19289014Y-6855206D01*
X19265900Y-6845554D01*
X19240754Y-6845554D01*
X19088354Y-6845554D01*
X19064986Y-6855206D01*
X19062446Y-6857746D01*
X19062446Y-5793486D01*
X19062446Y-5738114D01*
X19041110Y-5686806D01*
X19001994Y-5647690D01*
X18980404Y-5638800D01*
X19001994Y-5629910D01*
X19041110Y-5590794D01*
X19062446Y-5539486D01*
X19062446Y-5484114D01*
X19041110Y-5432806D01*
X19005550Y-5397246D01*
X19011646Y-5397246D01*
X19035014Y-5387594D01*
X19052794Y-5369814D01*
X19062446Y-5346700D01*
X19062446Y-5321554D01*
X19062446Y-5169154D01*
X19052794Y-5145786D01*
X19035014Y-5128006D01*
X19011900Y-5118354D01*
X18986754Y-5118354D01*
X18834354Y-5118354D01*
X18810986Y-5128006D01*
X18793206Y-5145786D01*
X18783554Y-5168900D01*
X18783554Y-5194046D01*
X18783554Y-5346446D01*
X18793206Y-5369814D01*
X18810986Y-5387594D01*
X18834100Y-5397246D01*
X18840450Y-5397246D01*
X18804890Y-5432806D01*
X18783554Y-5484114D01*
X18783554Y-5539486D01*
X18804890Y-5590794D01*
X18844006Y-5629910D01*
X18865342Y-5638800D01*
X18844006Y-5647690D01*
X18804890Y-5686806D01*
X18783554Y-5738114D01*
X18783554Y-5793486D01*
X18804890Y-5844794D01*
X18844006Y-5883910D01*
X18867120Y-5893308D01*
X18851626Y-5899912D01*
X18844768Y-5923788D01*
X18923000Y-6001766D01*
X19001232Y-5923788D01*
X18994374Y-5899912D01*
X18977610Y-5893816D01*
X19001994Y-5883910D01*
X19041110Y-5844794D01*
X19062446Y-5793486D01*
X19062446Y-6857746D01*
X19060922Y-6859270D01*
X19060922Y-6039866D01*
X19058128Y-5985764D01*
X19042888Y-5948426D01*
X19019012Y-5941568D01*
X18941034Y-6019800D01*
X19019012Y-6098032D01*
X19042888Y-6091174D01*
X19060922Y-6039866D01*
X19060922Y-6859270D01*
X19047206Y-6872986D01*
X19037554Y-6896100D01*
X19037554Y-6921246D01*
X19037554Y-7073646D01*
X19047206Y-7097014D01*
X19064986Y-7114794D01*
X19088100Y-7124446D01*
X19113246Y-7124446D01*
X19265646Y-7124446D01*
X19289014Y-7114794D01*
X19306794Y-7097014D01*
X19316446Y-7073900D01*
X19316446Y-7067550D01*
X19352006Y-7103110D01*
X19403314Y-7124446D01*
X19458686Y-7124446D01*
X19509994Y-7103110D01*
X19549110Y-7063994D01*
X19558000Y-7042404D01*
X19566890Y-7063994D01*
X19606006Y-7103110D01*
X19657314Y-7124446D01*
X19712686Y-7124446D01*
X19763994Y-7103110D01*
X19803110Y-7063994D01*
X19812508Y-7040626D01*
X19819112Y-7056374D01*
X19842988Y-7063232D01*
X19920966Y-6985000D01*
X19920966Y-7020814D01*
X19860768Y-7081012D01*
X19867626Y-7104888D01*
X19918934Y-7122922D01*
X19973036Y-7120128D01*
X20010374Y-7104888D01*
X20017232Y-7081012D01*
X20017232Y-7170674D01*
X19001232Y-7170674D01*
X19001232Y-6115812D01*
X18923000Y-6037834D01*
X18904966Y-6055614D01*
X18904966Y-6019800D01*
X18826988Y-5941568D01*
X18803112Y-5948426D01*
X18785078Y-5999734D01*
X18787872Y-6053836D01*
X18803112Y-6091174D01*
X18826988Y-6098032D01*
X18904966Y-6019800D01*
X18904966Y-6055614D01*
X18844768Y-6115812D01*
X18851626Y-6139688D01*
X18902934Y-6157722D01*
X18957036Y-6154928D01*
X18994374Y-6139688D01*
X19001232Y-6115812D01*
X19001232Y-7170674D01*
X18737326Y-7170674D01*
X18737326Y-4106926D01*
X19380200Y-4106926D01*
X22110700Y-4106926D01*
X22110700Y-4483100D01*
X22110446Y-4483100D01*
X22110446Y-4345686D01*
X22110446Y-4290314D01*
X22089110Y-4239006D01*
X22049994Y-4199890D01*
X21998686Y-4178554D01*
X21943314Y-4178554D01*
X21892006Y-4199890D01*
X21852890Y-4239006D01*
X21844000Y-4260342D01*
X21835110Y-4239006D01*
X21795994Y-4199890D01*
X21744686Y-4178554D01*
X21689314Y-4178554D01*
X21638006Y-4199890D01*
X21598890Y-4239006D01*
X21590000Y-4260342D01*
X21581110Y-4239006D01*
X21541994Y-4199890D01*
X21490686Y-4178554D01*
X21435314Y-4178554D01*
X21384006Y-4199890D01*
X21348446Y-4235450D01*
X21348446Y-4229354D01*
X21338794Y-4205986D01*
X21321014Y-4188206D01*
X21297900Y-4178554D01*
X21272754Y-4178554D01*
X21120354Y-4178554D01*
X21096986Y-4188206D01*
X21079206Y-4205986D01*
X21069554Y-4229100D01*
X21069554Y-4235450D01*
X21033994Y-4199890D01*
X20982686Y-4178554D01*
X20927314Y-4178554D01*
X20876006Y-4199890D01*
X20836890Y-4239006D01*
X20828000Y-4260342D01*
X20819110Y-4239006D01*
X20779994Y-4199890D01*
X20728686Y-4178554D01*
X20673314Y-4178554D01*
X20622006Y-4199890D01*
X20582890Y-4239006D01*
X20574000Y-4260342D01*
X20565110Y-4239006D01*
X20525994Y-4199890D01*
X20474686Y-4178554D01*
X20419314Y-4178554D01*
X20368006Y-4199890D01*
X20332446Y-4235450D01*
X20332446Y-4229354D01*
X20322794Y-4205986D01*
X20305014Y-4188206D01*
X20281900Y-4178554D01*
X20256754Y-4178554D01*
X20104354Y-4178554D01*
X20080986Y-4188206D01*
X20063206Y-4205986D01*
X20053554Y-4229100D01*
X20053554Y-4244848D01*
X20035012Y-4239768D01*
X20017232Y-4257548D01*
X20017232Y-4221988D01*
X20010374Y-4198112D01*
X19959066Y-4180078D01*
X19904964Y-4182872D01*
X19867626Y-4198112D01*
X19860768Y-4221988D01*
X19939000Y-4299966D01*
X20017232Y-4221988D01*
X20017232Y-4257548D01*
X19957034Y-4318000D01*
X20035012Y-4396232D01*
X20053554Y-4390898D01*
X20053554Y-4406646D01*
X20063206Y-4430014D01*
X20080986Y-4447794D01*
X20104100Y-4457446D01*
X20129246Y-4457446D01*
X20281646Y-4457446D01*
X20305014Y-4447794D01*
X20322794Y-4430014D01*
X20332446Y-4406900D01*
X20332446Y-4400550D01*
X20368006Y-4436110D01*
X20419314Y-4457446D01*
X20474686Y-4457446D01*
X20525994Y-4436110D01*
X20565110Y-4396994D01*
X20574000Y-4375404D01*
X20582890Y-4396994D01*
X20622006Y-4436110D01*
X20673314Y-4457446D01*
X20728686Y-4457446D01*
X20779994Y-4436110D01*
X20819110Y-4396994D01*
X20828000Y-4375404D01*
X20836890Y-4396994D01*
X20876006Y-4436110D01*
X20927314Y-4457446D01*
X20982686Y-4457446D01*
X21033994Y-4436110D01*
X21069554Y-4400550D01*
X21069554Y-4406646D01*
X21079206Y-4430014D01*
X21096986Y-4447794D01*
X21120100Y-4457446D01*
X21145246Y-4457446D01*
X21297646Y-4457446D01*
X21321014Y-4447794D01*
X21338794Y-4430014D01*
X21348446Y-4406900D01*
X21348446Y-4400550D01*
X21384006Y-4436110D01*
X21435314Y-4457446D01*
X21490686Y-4457446D01*
X21541994Y-4436110D01*
X21581110Y-4396994D01*
X21590000Y-4375404D01*
X21598890Y-4396994D01*
X21638006Y-4436110D01*
X21689314Y-4457446D01*
X21744686Y-4457446D01*
X21795994Y-4436110D01*
X21835110Y-4396994D01*
X21844000Y-4375404D01*
X21852890Y-4396994D01*
X21892006Y-4436110D01*
X21943314Y-4457446D01*
X21998686Y-4457446D01*
X22049994Y-4436110D01*
X22089110Y-4396994D01*
X22110446Y-4345686D01*
X22110446Y-4483100D01*
X21145500Y-4483100D01*
X21145500Y-6819900D01*
X22110700Y-6819900D01*
X22110700Y-7170674D01*
X22110700Y-7170674D01*
G37*
X22110700Y-7170674D02*
X22110446Y-7170674D01*
X22110446Y-7012686D01*
X22110446Y-6957314D01*
X22089110Y-6906006D01*
X22049994Y-6866890D01*
X21998686Y-6845554D01*
X21943314Y-6845554D01*
X21892006Y-6866890D01*
X21852890Y-6906006D01*
X21844000Y-6927342D01*
X21835110Y-6906006D01*
X21795994Y-6866890D01*
X21744686Y-6845554D01*
X21689314Y-6845554D01*
X21638006Y-6866890D01*
X21598890Y-6906006D01*
X21590000Y-6927342D01*
X21581110Y-6906006D01*
X21541994Y-6866890D01*
X21490686Y-6845554D01*
X21435314Y-6845554D01*
X21384006Y-6866890D01*
X21348446Y-6902450D01*
X21348446Y-6896354D01*
X21338794Y-6872986D01*
X21321014Y-6855206D01*
X21297900Y-6845554D01*
X21272754Y-6845554D01*
X21120354Y-6845554D01*
X21096986Y-6855206D01*
X21079206Y-6872986D01*
X21069554Y-6896100D01*
X21069554Y-6902450D01*
X21033994Y-6866890D01*
X20982686Y-6845554D01*
X20927314Y-6845554D01*
X20876006Y-6866890D01*
X20836890Y-6906006D01*
X20828000Y-6927342D01*
X20819110Y-6906006D01*
X20779994Y-6866890D01*
X20728686Y-6845554D01*
X20673314Y-6845554D01*
X20622006Y-6866890D01*
X20600924Y-6887972D01*
X20600924Y-6370574D01*
X20600924Y-6329680D01*
X20600924Y-5506974D01*
X20600924Y-5466080D01*
X20600924Y-5100574D01*
X20600924Y-5059680D01*
X20585176Y-5021834D01*
X20556474Y-4992624D01*
X20518374Y-4976876D01*
X20496530Y-4976876D01*
X20483576Y-4945634D01*
X20454874Y-4916424D01*
X20416774Y-4900676D01*
X20375880Y-4900676D01*
X20338034Y-4916424D01*
X20308824Y-4945126D01*
X20293076Y-4983226D01*
X20293076Y-5024120D01*
X20308824Y-5061966D01*
X20337526Y-5091176D01*
X20375626Y-5106924D01*
X20397216Y-5106924D01*
X20410424Y-5138166D01*
X20439126Y-5167376D01*
X20477226Y-5183124D01*
X20518120Y-5183124D01*
X20555966Y-5167376D01*
X20585176Y-5138674D01*
X20600924Y-5100574D01*
X20600924Y-5466080D01*
X20585176Y-5428234D01*
X20556474Y-5399024D01*
X20518374Y-5383276D01*
X20477480Y-5383276D01*
X20439634Y-5399024D01*
X20410424Y-5427726D01*
X20394676Y-5465826D01*
X20394676Y-5506720D01*
X20410424Y-5544566D01*
X20439126Y-5573776D01*
X20477226Y-5589524D01*
X20518120Y-5589524D01*
X20555966Y-5573776D01*
X20585176Y-5545074D01*
X20600924Y-5506974D01*
X20600924Y-6329680D01*
X20585176Y-6291834D01*
X20556474Y-6262624D01*
X20518374Y-6246876D01*
X20477480Y-6246876D01*
X20439634Y-6262624D01*
X20410424Y-6291326D01*
X20394676Y-6329426D01*
X20394676Y-6370320D01*
X20410424Y-6408166D01*
X20439126Y-6437376D01*
X20477226Y-6453124D01*
X20518120Y-6453124D01*
X20555966Y-6437376D01*
X20585176Y-6408674D01*
X20600924Y-6370574D01*
X20600924Y-6887972D01*
X20582890Y-6906006D01*
X20574000Y-6927342D01*
X20565110Y-6906006D01*
X20525994Y-6866890D01*
X20474686Y-6845554D01*
X20419314Y-6845554D01*
X20368006Y-6866890D01*
X20332446Y-6902450D01*
X20332446Y-6896354D01*
X20322794Y-6872986D01*
X20305014Y-6855206D01*
X20281900Y-6845554D01*
X20256754Y-6845554D01*
X20104354Y-6845554D01*
X20080986Y-6855206D01*
X20067524Y-6868668D01*
X20067524Y-5633974D01*
X20067524Y-5593080D01*
X20051776Y-5555234D01*
X20023074Y-5526024D01*
X20017232Y-5523484D01*
X20017232Y-4414012D01*
X19939000Y-4336034D01*
X19920966Y-4353814D01*
X19920966Y-4318000D01*
X19842988Y-4239768D01*
X19819112Y-4246626D01*
X19813016Y-4263136D01*
X19803110Y-4239006D01*
X19763994Y-4199890D01*
X19712686Y-4178554D01*
X19657314Y-4178554D01*
X19606006Y-4199890D01*
X19566890Y-4239006D01*
X19558000Y-4260342D01*
X19549110Y-4239006D01*
X19509994Y-4199890D01*
X19458686Y-4178554D01*
X19403314Y-4178554D01*
X19352006Y-4199890D01*
X19316446Y-4235450D01*
X19316446Y-4229354D01*
X19306794Y-4205986D01*
X19289014Y-4188206D01*
X19265900Y-4178554D01*
X19240754Y-4178554D01*
X19088354Y-4178554D01*
X19064986Y-4188206D01*
X19047206Y-4205986D01*
X19037554Y-4229100D01*
X19037554Y-4254246D01*
X19037554Y-4406646D01*
X19047206Y-4430014D01*
X19064986Y-4447794D01*
X19088100Y-4457446D01*
X19113246Y-4457446D01*
X19265646Y-4457446D01*
X19289014Y-4447794D01*
X19306794Y-4430014D01*
X19316446Y-4406900D01*
X19316446Y-4400550D01*
X19352006Y-4436110D01*
X19403314Y-4457446D01*
X19458686Y-4457446D01*
X19509994Y-4436110D01*
X19549110Y-4396994D01*
X19558000Y-4375404D01*
X19566890Y-4396994D01*
X19606006Y-4436110D01*
X19657314Y-4457446D01*
X19712686Y-4457446D01*
X19763994Y-4436110D01*
X19803110Y-4396994D01*
X19812508Y-4373626D01*
X19819112Y-4389374D01*
X19842988Y-4396232D01*
X19920966Y-4318000D01*
X19920966Y-4353814D01*
X19860768Y-4414012D01*
X19867626Y-4437888D01*
X19918934Y-4455922D01*
X19973036Y-4453128D01*
X20010374Y-4437888D01*
X20017232Y-4414012D01*
X20017232Y-5523484D01*
X19984974Y-5510276D01*
X19944080Y-5510276D01*
X19906234Y-5526024D01*
X19877024Y-5554726D01*
X19861276Y-5592826D01*
X19861276Y-5611876D01*
X19842480Y-5611876D01*
X19804634Y-5627624D01*
X19775424Y-5656326D01*
X19762216Y-5688076D01*
X19740880Y-5688076D01*
X19703034Y-5703824D01*
X19673824Y-5732526D01*
X19658076Y-5770626D01*
X19658076Y-5811520D01*
X19673824Y-5849366D01*
X19702526Y-5878576D01*
X19740626Y-5894324D01*
X19781520Y-5894324D01*
X19819366Y-5878576D01*
X19848576Y-5849874D01*
X19861530Y-5818124D01*
X19883120Y-5818124D01*
X19920966Y-5802376D01*
X19950176Y-5773674D01*
X19965924Y-5735574D01*
X19965924Y-5716524D01*
X19984720Y-5716524D01*
X20022566Y-5700776D01*
X20051776Y-5672074D01*
X20067524Y-5633974D01*
X20067524Y-6868668D01*
X20063206Y-6872986D01*
X20053554Y-6896100D01*
X20053554Y-6911848D01*
X20035012Y-6906768D01*
X20017232Y-6924548D01*
X20017232Y-6888988D01*
X20010374Y-6865112D01*
X19959066Y-6847078D01*
X19904964Y-6849872D01*
X19867626Y-6865112D01*
X19860768Y-6888988D01*
X19939000Y-6966966D01*
X20017232Y-6888988D01*
X20017232Y-6924548D01*
X19957034Y-6985000D01*
X20035012Y-7063232D01*
X20053554Y-7057898D01*
X20053554Y-7073646D01*
X20063206Y-7097014D01*
X20080986Y-7114794D01*
X20104100Y-7124446D01*
X20129246Y-7124446D01*
X20281646Y-7124446D01*
X20305014Y-7114794D01*
X20322794Y-7097014D01*
X20332446Y-7073900D01*
X20332446Y-7067550D01*
X20368006Y-7103110D01*
X20419314Y-7124446D01*
X20474686Y-7124446D01*
X20525994Y-7103110D01*
X20565110Y-7063994D01*
X20574000Y-7042404D01*
X20582890Y-7063994D01*
X20622006Y-7103110D01*
X20673314Y-7124446D01*
X20728686Y-7124446D01*
X20779994Y-7103110D01*
X20819110Y-7063994D01*
X20828000Y-7042404D01*
X20836890Y-7063994D01*
X20876006Y-7103110D01*
X20927314Y-7124446D01*
X20982686Y-7124446D01*
X21033994Y-7103110D01*
X21069554Y-7067550D01*
X21069554Y-7073646D01*
X21079206Y-7097014D01*
X21096986Y-7114794D01*
X21120100Y-7124446D01*
X21145246Y-7124446D01*
X21297646Y-7124446D01*
X21321014Y-7114794D01*
X21338794Y-7097014D01*
X21348446Y-7073900D01*
X21348446Y-7067550D01*
X21384006Y-7103110D01*
X21435314Y-7124446D01*
X21490686Y-7124446D01*
X21541994Y-7103110D01*
X21581110Y-7063994D01*
X21590000Y-7042404D01*
X21598890Y-7063994D01*
X21638006Y-7103110D01*
X21689314Y-7124446D01*
X21744686Y-7124446D01*
X21795994Y-7103110D01*
X21835110Y-7063994D01*
X21844000Y-7042404D01*
X21852890Y-7063994D01*
X21892006Y-7103110D01*
X21943314Y-7124446D01*
X21998686Y-7124446D01*
X22049994Y-7103110D01*
X22089110Y-7063994D01*
X22110446Y-7012686D01*
X22110446Y-7170674D01*
X20017232Y-7170674D01*
X20017232Y-7081012D01*
X19939000Y-7003034D01*
X19920966Y-7020814D01*
X19920966Y-6985000D01*
X19842988Y-6906768D01*
X19819112Y-6913626D01*
X19813016Y-6930136D01*
X19803110Y-6906006D01*
X19763994Y-6866890D01*
X19712686Y-6845554D01*
X19657314Y-6845554D01*
X19606006Y-6866890D01*
X19566890Y-6906006D01*
X19558000Y-6927342D01*
X19549110Y-6906006D01*
X19509994Y-6866890D01*
X19483324Y-6855714D01*
X19483324Y-5608574D01*
X19483324Y-5567680D01*
X19467576Y-5529834D01*
X19449796Y-5511546D01*
X19467576Y-5494274D01*
X19483324Y-5456174D01*
X19483324Y-5415280D01*
X19467576Y-5377434D01*
X19457924Y-5367528D01*
X19457924Y-5024374D01*
X19457924Y-4983480D01*
X19442176Y-4945634D01*
X19413474Y-4916424D01*
X19375374Y-4900676D01*
X19334480Y-4900676D01*
X19296634Y-4916424D01*
X19267424Y-4945126D01*
X19251676Y-4983226D01*
X19251676Y-5024120D01*
X19267424Y-5061966D01*
X19296126Y-5091176D01*
X19334226Y-5106924D01*
X19375120Y-5106924D01*
X19412966Y-5091176D01*
X19442176Y-5062474D01*
X19457924Y-5024374D01*
X19457924Y-5367528D01*
X19438874Y-5348224D01*
X19400774Y-5332476D01*
X19359880Y-5332476D01*
X19322034Y-5348224D01*
X19292824Y-5376926D01*
X19277076Y-5415026D01*
X19277076Y-5455920D01*
X19292824Y-5493766D01*
X19310350Y-5511800D01*
X19292824Y-5529326D01*
X19277076Y-5567426D01*
X19277076Y-5608320D01*
X19292824Y-5646166D01*
X19321526Y-5675376D01*
X19359626Y-5691124D01*
X19400520Y-5691124D01*
X19438366Y-5675376D01*
X19467576Y-5646674D01*
X19483324Y-5608574D01*
X19483324Y-6855714D01*
X19458686Y-6845554D01*
X19403314Y-6845554D01*
X19352006Y-6866890D01*
X19316446Y-6902450D01*
X19316446Y-6896354D01*
X19306794Y-6872986D01*
X19289014Y-6855206D01*
X19265900Y-6845554D01*
X19240754Y-6845554D01*
X19088354Y-6845554D01*
X19064986Y-6855206D01*
X19062446Y-6857746D01*
X19062446Y-5793486D01*
X19062446Y-5738114D01*
X19041110Y-5686806D01*
X19001994Y-5647690D01*
X18980404Y-5638800D01*
X19001994Y-5629910D01*
X19041110Y-5590794D01*
X19062446Y-5539486D01*
X19062446Y-5484114D01*
X19041110Y-5432806D01*
X19005550Y-5397246D01*
X19011646Y-5397246D01*
X19035014Y-5387594D01*
X19052794Y-5369814D01*
X19062446Y-5346700D01*
X19062446Y-5321554D01*
X19062446Y-5169154D01*
X19052794Y-5145786D01*
X19035014Y-5128006D01*
X19011900Y-5118354D01*
X18986754Y-5118354D01*
X18834354Y-5118354D01*
X18810986Y-5128006D01*
X18793206Y-5145786D01*
X18783554Y-5168900D01*
X18783554Y-5194046D01*
X18783554Y-5346446D01*
X18793206Y-5369814D01*
X18810986Y-5387594D01*
X18834100Y-5397246D01*
X18840450Y-5397246D01*
X18804890Y-5432806D01*
X18783554Y-5484114D01*
X18783554Y-5539486D01*
X18804890Y-5590794D01*
X18844006Y-5629910D01*
X18865342Y-5638800D01*
X18844006Y-5647690D01*
X18804890Y-5686806D01*
X18783554Y-5738114D01*
X18783554Y-5793486D01*
X18804890Y-5844794D01*
X18844006Y-5883910D01*
X18867120Y-5893308D01*
X18851626Y-5899912D01*
X18844768Y-5923788D01*
X18923000Y-6001766D01*
X19001232Y-5923788D01*
X18994374Y-5899912D01*
X18977610Y-5893816D01*
X19001994Y-5883910D01*
X19041110Y-5844794D01*
X19062446Y-5793486D01*
X19062446Y-6857746D01*
X19060922Y-6859270D01*
X19060922Y-6039866D01*
X19058128Y-5985764D01*
X19042888Y-5948426D01*
X19019012Y-5941568D01*
X18941034Y-6019800D01*
X19019012Y-6098032D01*
X19042888Y-6091174D01*
X19060922Y-6039866D01*
X19060922Y-6859270D01*
X19047206Y-6872986D01*
X19037554Y-6896100D01*
X19037554Y-6921246D01*
X19037554Y-7073646D01*
X19047206Y-7097014D01*
X19064986Y-7114794D01*
X19088100Y-7124446D01*
X19113246Y-7124446D01*
X19265646Y-7124446D01*
X19289014Y-7114794D01*
X19306794Y-7097014D01*
X19316446Y-7073900D01*
X19316446Y-7067550D01*
X19352006Y-7103110D01*
X19403314Y-7124446D01*
X19458686Y-7124446D01*
X19509994Y-7103110D01*
X19549110Y-7063994D01*
X19558000Y-7042404D01*
X19566890Y-7063994D01*
X19606006Y-7103110D01*
X19657314Y-7124446D01*
X19712686Y-7124446D01*
X19763994Y-7103110D01*
X19803110Y-7063994D01*
X19812508Y-7040626D01*
X19819112Y-7056374D01*
X19842988Y-7063232D01*
X19920966Y-6985000D01*
X19920966Y-7020814D01*
X19860768Y-7081012D01*
X19867626Y-7104888D01*
X19918934Y-7122922D01*
X19973036Y-7120128D01*
X20010374Y-7104888D01*
X20017232Y-7081012D01*
X20017232Y-7170674D01*
X19001232Y-7170674D01*
X19001232Y-6115812D01*
X18923000Y-6037834D01*
X18904966Y-6055614D01*
X18904966Y-6019800D01*
X18826988Y-5941568D01*
X18803112Y-5948426D01*
X18785078Y-5999734D01*
X18787872Y-6053836D01*
X18803112Y-6091174D01*
X18826988Y-6098032D01*
X18904966Y-6019800D01*
X18904966Y-6055614D01*
X18844768Y-6115812D01*
X18851626Y-6139688D01*
X18902934Y-6157722D01*
X18957036Y-6154928D01*
X18994374Y-6139688D01*
X19001232Y-6115812D01*
X19001232Y-7170674D01*
X18737326Y-7170674D01*
X18737326Y-4106926D01*
X19380200Y-4106926D01*
X22110700Y-4106926D01*
X22110700Y-4483100D01*
X22110446Y-4483100D01*
X22110446Y-4345686D01*
X22110446Y-4290314D01*
X22089110Y-4239006D01*
X22049994Y-4199890D01*
X21998686Y-4178554D01*
X21943314Y-4178554D01*
X21892006Y-4199890D01*
X21852890Y-4239006D01*
X21844000Y-4260342D01*
X21835110Y-4239006D01*
X21795994Y-4199890D01*
X21744686Y-4178554D01*
X21689314Y-4178554D01*
X21638006Y-4199890D01*
X21598890Y-4239006D01*
X21590000Y-4260342D01*
X21581110Y-4239006D01*
X21541994Y-4199890D01*
X21490686Y-4178554D01*
X21435314Y-4178554D01*
X21384006Y-4199890D01*
X21348446Y-4235450D01*
X21348446Y-4229354D01*
X21338794Y-4205986D01*
X21321014Y-4188206D01*
X21297900Y-4178554D01*
X21272754Y-4178554D01*
X21120354Y-4178554D01*
X21096986Y-4188206D01*
X21079206Y-4205986D01*
X21069554Y-4229100D01*
X21069554Y-4235450D01*
X21033994Y-4199890D01*
X20982686Y-4178554D01*
X20927314Y-4178554D01*
X20876006Y-4199890D01*
X20836890Y-4239006D01*
X20828000Y-4260342D01*
X20819110Y-4239006D01*
X20779994Y-4199890D01*
X20728686Y-4178554D01*
X20673314Y-4178554D01*
X20622006Y-4199890D01*
X20582890Y-4239006D01*
X20574000Y-4260342D01*
X20565110Y-4239006D01*
X20525994Y-4199890D01*
X20474686Y-4178554D01*
X20419314Y-4178554D01*
X20368006Y-4199890D01*
X20332446Y-4235450D01*
X20332446Y-4229354D01*
X20322794Y-4205986D01*
X20305014Y-4188206D01*
X20281900Y-4178554D01*
X20256754Y-4178554D01*
X20104354Y-4178554D01*
X20080986Y-4188206D01*
X20063206Y-4205986D01*
X20053554Y-4229100D01*
X20053554Y-4244848D01*
X20035012Y-4239768D01*
X20017232Y-4257548D01*
X20017232Y-4221988D01*
X20010374Y-4198112D01*
X19959066Y-4180078D01*
X19904964Y-4182872D01*
X19867626Y-4198112D01*
X19860768Y-4221988D01*
X19939000Y-4299966D01*
X20017232Y-4221988D01*
X20017232Y-4257548D01*
X19957034Y-4318000D01*
X20035012Y-4396232D01*
X20053554Y-4390898D01*
X20053554Y-4406646D01*
X20063206Y-4430014D01*
X20080986Y-4447794D01*
X20104100Y-4457446D01*
X20129246Y-4457446D01*
X20281646Y-4457446D01*
X20305014Y-4447794D01*
X20322794Y-4430014D01*
X20332446Y-4406900D01*
X20332446Y-4400550D01*
X20368006Y-4436110D01*
X20419314Y-4457446D01*
X20474686Y-4457446D01*
X20525994Y-4436110D01*
X20565110Y-4396994D01*
X20574000Y-4375404D01*
X20582890Y-4396994D01*
X20622006Y-4436110D01*
X20673314Y-4457446D01*
X20728686Y-4457446D01*
X20779994Y-4436110D01*
X20819110Y-4396994D01*
X20828000Y-4375404D01*
X20836890Y-4396994D01*
X20876006Y-4436110D01*
X20927314Y-4457446D01*
X20982686Y-4457446D01*
X21033994Y-4436110D01*
X21069554Y-4400550D01*
X21069554Y-4406646D01*
X21079206Y-4430014D01*
X21096986Y-4447794D01*
X21120100Y-4457446D01*
X21145246Y-4457446D01*
X21297646Y-4457446D01*
X21321014Y-4447794D01*
X21338794Y-4430014D01*
X21348446Y-4406900D01*
X21348446Y-4400550D01*
X21384006Y-4436110D01*
X21435314Y-4457446D01*
X21490686Y-4457446D01*
X21541994Y-4436110D01*
X21581110Y-4396994D01*
X21590000Y-4375404D01*
X21598890Y-4396994D01*
X21638006Y-4436110D01*
X21689314Y-4457446D01*
X21744686Y-4457446D01*
X21795994Y-4436110D01*
X21835110Y-4396994D01*
X21844000Y-4375404D01*
X21852890Y-4396994D01*
X21892006Y-4436110D01*
X21943314Y-4457446D01*
X21998686Y-4457446D01*
X22049994Y-4436110D01*
X22089110Y-4396994D01*
X22110446Y-4345686D01*
X22110446Y-4483100D01*
X21145500Y-4483100D01*
X21145500Y-6819900D01*
X22110700Y-6819900D01*
X22110700Y-7170674D01*
G36*
X22110700Y-10472674D02*
X22110446Y-10472674D01*
X22110446Y-10314686D01*
X22110446Y-10259314D01*
X22089110Y-10208006D01*
X22049994Y-10168890D01*
X21998686Y-10147554D01*
X21943314Y-10147554D01*
X21892006Y-10168890D01*
X21852890Y-10208006D01*
X21844000Y-10229342D01*
X21835110Y-10208006D01*
X21795994Y-10168890D01*
X21744686Y-10147554D01*
X21689314Y-10147554D01*
X21638006Y-10168890D01*
X21598890Y-10208006D01*
X21590000Y-10229342D01*
X21581110Y-10208006D01*
X21541994Y-10168890D01*
X21490686Y-10147554D01*
X21435314Y-10147554D01*
X21384006Y-10168890D01*
X21348446Y-10204450D01*
X21348446Y-10198354D01*
X21338794Y-10174986D01*
X21321014Y-10157206D01*
X21297900Y-10147554D01*
X21272754Y-10147554D01*
X21120354Y-10147554D01*
X21113242Y-10150348D01*
X21113242Y-9447276D01*
X21018500Y-9352534D01*
X21000466Y-9370568D01*
X21000466Y-9334500D01*
X20905724Y-9239758D01*
X20901660Y-9241028D01*
X20857210Y-9196324D01*
X20797266Y-9171178D01*
X20732242Y-9171178D01*
X20672298Y-9196070D01*
X20626324Y-9241790D01*
X20601178Y-9301734D01*
X20601178Y-9366758D01*
X20626070Y-9426702D01*
X20671790Y-9472676D01*
X20731734Y-9497822D01*
X20796758Y-9497822D01*
X20856702Y-9472930D01*
X20901914Y-9427718D01*
X20905724Y-9429242D01*
X21000466Y-9334500D01*
X21000466Y-9370568D01*
X20923758Y-9447276D01*
X20933156Y-9473692D01*
X20993100Y-9495790D01*
X21056600Y-9493250D01*
X21103844Y-9473692D01*
X21113242Y-9447276D01*
X21113242Y-10150348D01*
X21096986Y-10157206D01*
X21079206Y-10174986D01*
X21069554Y-10198100D01*
X21069554Y-10204450D01*
X21033994Y-10168890D01*
X20982686Y-10147554D01*
X20927314Y-10147554D01*
X20876006Y-10168890D01*
X20836890Y-10208006D01*
X20828000Y-10229342D01*
X20819110Y-10208006D01*
X20779994Y-10168890D01*
X20728686Y-10147554D01*
X20673314Y-10147554D01*
X20622006Y-10168890D01*
X20600924Y-10189972D01*
X20600924Y-9672574D01*
X20600924Y-9631680D01*
X20600924Y-8808974D01*
X20600924Y-8768080D01*
X20600924Y-8402574D01*
X20600924Y-8361680D01*
X20585176Y-8323834D01*
X20556474Y-8294624D01*
X20518374Y-8278876D01*
X20496530Y-8278876D01*
X20483576Y-8247634D01*
X20454874Y-8218424D01*
X20416774Y-8202676D01*
X20375880Y-8202676D01*
X20338034Y-8218424D01*
X20308824Y-8247126D01*
X20293076Y-8285226D01*
X20293076Y-8326120D01*
X20308824Y-8363966D01*
X20337526Y-8393176D01*
X20375626Y-8408924D01*
X20397216Y-8408924D01*
X20410424Y-8440166D01*
X20439126Y-8469376D01*
X20477226Y-8485124D01*
X20518120Y-8485124D01*
X20555966Y-8469376D01*
X20585176Y-8440674D01*
X20600924Y-8402574D01*
X20600924Y-8768080D01*
X20585176Y-8730234D01*
X20556474Y-8701024D01*
X20518374Y-8685276D01*
X20477480Y-8685276D01*
X20439634Y-8701024D01*
X20410424Y-8729726D01*
X20394676Y-8767826D01*
X20394676Y-8808720D01*
X20410424Y-8846566D01*
X20439126Y-8875776D01*
X20477226Y-8891524D01*
X20518120Y-8891524D01*
X20555966Y-8875776D01*
X20585176Y-8847074D01*
X20600924Y-8808974D01*
X20600924Y-9631680D01*
X20585176Y-9593834D01*
X20556474Y-9564624D01*
X20518374Y-9548876D01*
X20477480Y-9548876D01*
X20439634Y-9564624D01*
X20410424Y-9593326D01*
X20394676Y-9631426D01*
X20394676Y-9672320D01*
X20410424Y-9710166D01*
X20439126Y-9739376D01*
X20477226Y-9755124D01*
X20518120Y-9755124D01*
X20555966Y-9739376D01*
X20585176Y-9710674D01*
X20600924Y-9672574D01*
X20600924Y-10189972D01*
X20582890Y-10208006D01*
X20574000Y-10229342D01*
X20565110Y-10208006D01*
X20525994Y-10168890D01*
X20474686Y-10147554D01*
X20419314Y-10147554D01*
X20368006Y-10168890D01*
X20332446Y-10204450D01*
X20332446Y-10198354D01*
X20322794Y-10174986D01*
X20305014Y-10157206D01*
X20281900Y-10147554D01*
X20256754Y-10147554D01*
X20104354Y-10147554D01*
X20080986Y-10157206D01*
X20067524Y-10170668D01*
X20067524Y-8935974D01*
X20067524Y-8895080D01*
X20051776Y-8857234D01*
X20023074Y-8828024D01*
X20017232Y-8825484D01*
X20017232Y-7716012D01*
X19939000Y-7638034D01*
X19920966Y-7655814D01*
X19920966Y-7620000D01*
X19842988Y-7541768D01*
X19819112Y-7548626D01*
X19813016Y-7565136D01*
X19803110Y-7541006D01*
X19763994Y-7501890D01*
X19712686Y-7480554D01*
X19657314Y-7480554D01*
X19606006Y-7501890D01*
X19566890Y-7541006D01*
X19558000Y-7562342D01*
X19549110Y-7541006D01*
X19509994Y-7501890D01*
X19458686Y-7480554D01*
X19403314Y-7480554D01*
X19352006Y-7501890D01*
X19316446Y-7537450D01*
X19316446Y-7531354D01*
X19306794Y-7507986D01*
X19289014Y-7490206D01*
X19265900Y-7480554D01*
X19240754Y-7480554D01*
X19088354Y-7480554D01*
X19064986Y-7490206D01*
X19047206Y-7507986D01*
X19037554Y-7531100D01*
X19037554Y-7556246D01*
X19037554Y-7708646D01*
X19047206Y-7732014D01*
X19064986Y-7749794D01*
X19088100Y-7759446D01*
X19113246Y-7759446D01*
X19265646Y-7759446D01*
X19289014Y-7749794D01*
X19306794Y-7732014D01*
X19316446Y-7708900D01*
X19316446Y-7702550D01*
X19352006Y-7738110D01*
X19403314Y-7759446D01*
X19458686Y-7759446D01*
X19509994Y-7738110D01*
X19549110Y-7698994D01*
X19558000Y-7677404D01*
X19566890Y-7698994D01*
X19606006Y-7738110D01*
X19657314Y-7759446D01*
X19712686Y-7759446D01*
X19763994Y-7738110D01*
X19803110Y-7698994D01*
X19812508Y-7675626D01*
X19819112Y-7691374D01*
X19842988Y-7698232D01*
X19920966Y-7620000D01*
X19920966Y-7655814D01*
X19860768Y-7716012D01*
X19867626Y-7739888D01*
X19918934Y-7757922D01*
X19973036Y-7755128D01*
X20010374Y-7739888D01*
X20017232Y-7716012D01*
X20017232Y-8825484D01*
X19984974Y-8812276D01*
X19944080Y-8812276D01*
X19906234Y-8828024D01*
X19877024Y-8856726D01*
X19861276Y-8894826D01*
X19861276Y-8913876D01*
X19842480Y-8913876D01*
X19804634Y-8929624D01*
X19775424Y-8958326D01*
X19762216Y-8990076D01*
X19740880Y-8990076D01*
X19703034Y-9005824D01*
X19673824Y-9034526D01*
X19658076Y-9072626D01*
X19658076Y-9113520D01*
X19673824Y-9151366D01*
X19702526Y-9180576D01*
X19740626Y-9196324D01*
X19781520Y-9196324D01*
X19819366Y-9180576D01*
X19848576Y-9151874D01*
X19861530Y-9120124D01*
X19883120Y-9120124D01*
X19920966Y-9104376D01*
X19950176Y-9075674D01*
X19965924Y-9037574D01*
X19965924Y-9018524D01*
X19984720Y-9018524D01*
X20022566Y-9002776D01*
X20051776Y-8974074D01*
X20067524Y-8935974D01*
X20067524Y-10170668D01*
X20063206Y-10174986D01*
X20053554Y-10198100D01*
X20053554Y-10213848D01*
X20035012Y-10208768D01*
X20017232Y-10226548D01*
X20017232Y-10190988D01*
X20010374Y-10167112D01*
X19959066Y-10149078D01*
X19904964Y-10151872D01*
X19867626Y-10167112D01*
X19860768Y-10190988D01*
X19939000Y-10268966D01*
X20017232Y-10190988D01*
X20017232Y-10226548D01*
X19957034Y-10287000D01*
X20035012Y-10365232D01*
X20053554Y-10359898D01*
X20053554Y-10375646D01*
X20063206Y-10399014D01*
X20080986Y-10416794D01*
X20104100Y-10426446D01*
X20129246Y-10426446D01*
X20281646Y-10426446D01*
X20305014Y-10416794D01*
X20322794Y-10399014D01*
X20332446Y-10375900D01*
X20332446Y-10369550D01*
X20368006Y-10405110D01*
X20419314Y-10426446D01*
X20474686Y-10426446D01*
X20525994Y-10405110D01*
X20565110Y-10365994D01*
X20574000Y-10344404D01*
X20582890Y-10365994D01*
X20622006Y-10405110D01*
X20673314Y-10426446D01*
X20728686Y-10426446D01*
X20779994Y-10405110D01*
X20819110Y-10365994D01*
X20828000Y-10344404D01*
X20836890Y-10365994D01*
X20876006Y-10405110D01*
X20927314Y-10426446D01*
X20982686Y-10426446D01*
X21033994Y-10405110D01*
X21069554Y-10369550D01*
X21069554Y-10375646D01*
X21079206Y-10399014D01*
X21096986Y-10416794D01*
X21120100Y-10426446D01*
X21145246Y-10426446D01*
X21297646Y-10426446D01*
X21321014Y-10416794D01*
X21338794Y-10399014D01*
X21348446Y-10375900D01*
X21348446Y-10369550D01*
X21384006Y-10405110D01*
X21435314Y-10426446D01*
X21490686Y-10426446D01*
X21541994Y-10405110D01*
X21581110Y-10365994D01*
X21590000Y-10344404D01*
X21598890Y-10365994D01*
X21638006Y-10405110D01*
X21689314Y-10426446D01*
X21744686Y-10426446D01*
X21795994Y-10405110D01*
X21835110Y-10365994D01*
X21844000Y-10344404D01*
X21852890Y-10365994D01*
X21892006Y-10405110D01*
X21943314Y-10426446D01*
X21998686Y-10426446D01*
X22049994Y-10405110D01*
X22089110Y-10365994D01*
X22110446Y-10314686D01*
X22110446Y-10472674D01*
X20017232Y-10472674D01*
X20017232Y-10383012D01*
X19939000Y-10305034D01*
X19920966Y-10322814D01*
X19920966Y-10287000D01*
X19842988Y-10208768D01*
X19819112Y-10215626D01*
X19813016Y-10232136D01*
X19803110Y-10208006D01*
X19763994Y-10168890D01*
X19712686Y-10147554D01*
X19657314Y-10147554D01*
X19606006Y-10168890D01*
X19566890Y-10208006D01*
X19558000Y-10229342D01*
X19549110Y-10208006D01*
X19509994Y-10168890D01*
X19483324Y-10157714D01*
X19483324Y-8910574D01*
X19483324Y-8869680D01*
X19467576Y-8831834D01*
X19449796Y-8813546D01*
X19467576Y-8796274D01*
X19483324Y-8758174D01*
X19483324Y-8717280D01*
X19467576Y-8679434D01*
X19457924Y-8669528D01*
X19457924Y-8326374D01*
X19457924Y-8285480D01*
X19442176Y-8247634D01*
X19413474Y-8218424D01*
X19375374Y-8202676D01*
X19334480Y-8202676D01*
X19296634Y-8218424D01*
X19267424Y-8247126D01*
X19251676Y-8285226D01*
X19251676Y-8326120D01*
X19267424Y-8363966D01*
X19296126Y-8393176D01*
X19334226Y-8408924D01*
X19375120Y-8408924D01*
X19412966Y-8393176D01*
X19442176Y-8364474D01*
X19457924Y-8326374D01*
X19457924Y-8669528D01*
X19438874Y-8650224D01*
X19400774Y-8634476D01*
X19359880Y-8634476D01*
X19322034Y-8650224D01*
X19292824Y-8678926D01*
X19277076Y-8717026D01*
X19277076Y-8757920D01*
X19292824Y-8795766D01*
X19310350Y-8813800D01*
X19292824Y-8831326D01*
X19277076Y-8869426D01*
X19277076Y-8910320D01*
X19292824Y-8948166D01*
X19321526Y-8977376D01*
X19359626Y-8993124D01*
X19400520Y-8993124D01*
X19438366Y-8977376D01*
X19467576Y-8948674D01*
X19483324Y-8910574D01*
X19483324Y-10157714D01*
X19458686Y-10147554D01*
X19403314Y-10147554D01*
X19352006Y-10168890D01*
X19316446Y-10204450D01*
X19316446Y-10198354D01*
X19306794Y-10174986D01*
X19289014Y-10157206D01*
X19265900Y-10147554D01*
X19240754Y-10147554D01*
X19088354Y-10147554D01*
X19064986Y-10157206D01*
X19062446Y-10159746D01*
X19062446Y-9095486D01*
X19062446Y-9040114D01*
X19041110Y-8988806D01*
X19001994Y-8949690D01*
X18980404Y-8940800D01*
X19001994Y-8931910D01*
X19041110Y-8892794D01*
X19062446Y-8841486D01*
X19062446Y-8786114D01*
X19041110Y-8734806D01*
X19005550Y-8699246D01*
X19011646Y-8699246D01*
X19035014Y-8689594D01*
X19052794Y-8671814D01*
X19062446Y-8648700D01*
X19062446Y-8623554D01*
X19062446Y-8471154D01*
X19052794Y-8447786D01*
X19035014Y-8430006D01*
X19011900Y-8420354D01*
X18986754Y-8420354D01*
X18834354Y-8420354D01*
X18810986Y-8430006D01*
X18793206Y-8447786D01*
X18783554Y-8470900D01*
X18783554Y-8496046D01*
X18783554Y-8648446D01*
X18793206Y-8671814D01*
X18810986Y-8689594D01*
X18834100Y-8699246D01*
X18840450Y-8699246D01*
X18804890Y-8734806D01*
X18783554Y-8786114D01*
X18783554Y-8841486D01*
X18804890Y-8892794D01*
X18844006Y-8931910D01*
X18865342Y-8940800D01*
X18844006Y-8949690D01*
X18804890Y-8988806D01*
X18783554Y-9040114D01*
X18783554Y-9095486D01*
X18804890Y-9146794D01*
X18844006Y-9185910D01*
X18867120Y-9195308D01*
X18851626Y-9201912D01*
X18844768Y-9225788D01*
X18923000Y-9303766D01*
X19001232Y-9225788D01*
X18994374Y-9201912D01*
X18977610Y-9195816D01*
X19001994Y-9185910D01*
X19041110Y-9146794D01*
X19062446Y-9095486D01*
X19062446Y-10159746D01*
X19060922Y-10161270D01*
X19060922Y-9341866D01*
X19058128Y-9287764D01*
X19042888Y-9250426D01*
X19019012Y-9243568D01*
X18941034Y-9321800D01*
X19019012Y-9400032D01*
X19042888Y-9393174D01*
X19060922Y-9341866D01*
X19060922Y-10161270D01*
X19047206Y-10174986D01*
X19037554Y-10198100D01*
X19037554Y-10223246D01*
X19037554Y-10375646D01*
X19047206Y-10399014D01*
X19064986Y-10416794D01*
X19088100Y-10426446D01*
X19113246Y-10426446D01*
X19265646Y-10426446D01*
X19289014Y-10416794D01*
X19306794Y-10399014D01*
X19316446Y-10375900D01*
X19316446Y-10369550D01*
X19352006Y-10405110D01*
X19403314Y-10426446D01*
X19458686Y-10426446D01*
X19509994Y-10405110D01*
X19549110Y-10365994D01*
X19558000Y-10344404D01*
X19566890Y-10365994D01*
X19606006Y-10405110D01*
X19657314Y-10426446D01*
X19712686Y-10426446D01*
X19763994Y-10405110D01*
X19803110Y-10365994D01*
X19812508Y-10342626D01*
X19819112Y-10358374D01*
X19842988Y-10365232D01*
X19920966Y-10287000D01*
X19920966Y-10322814D01*
X19860768Y-10383012D01*
X19867626Y-10406888D01*
X19918934Y-10424922D01*
X19973036Y-10422128D01*
X20010374Y-10406888D01*
X20017232Y-10383012D01*
X20017232Y-10472674D01*
X19001232Y-10472674D01*
X19001232Y-9417812D01*
X18923000Y-9339834D01*
X18904966Y-9357614D01*
X18904966Y-9321800D01*
X18826988Y-9243568D01*
X18803112Y-9250426D01*
X18785078Y-9301734D01*
X18787872Y-9355836D01*
X18803112Y-9393174D01*
X18826988Y-9400032D01*
X18904966Y-9321800D01*
X18904966Y-9357614D01*
X18844768Y-9417812D01*
X18851626Y-9441688D01*
X18902934Y-9459722D01*
X18957036Y-9456928D01*
X18994374Y-9441688D01*
X19001232Y-9417812D01*
X19001232Y-10472674D01*
X18737326Y-10472674D01*
X18737326Y-7408926D01*
X19380200Y-7408926D01*
X22110700Y-7408926D01*
X22110700Y-7785100D01*
X22110446Y-7785100D01*
X22110446Y-7647686D01*
X22110446Y-7592314D01*
X22089110Y-7541006D01*
X22049994Y-7501890D01*
X21998686Y-7480554D01*
X21943314Y-7480554D01*
X21892006Y-7501890D01*
X21852890Y-7541006D01*
X21844000Y-7562342D01*
X21835110Y-7541006D01*
X21795994Y-7501890D01*
X21744686Y-7480554D01*
X21689314Y-7480554D01*
X21638006Y-7501890D01*
X21598890Y-7541006D01*
X21590000Y-7562342D01*
X21581110Y-7541006D01*
X21541994Y-7501890D01*
X21490686Y-7480554D01*
X21435314Y-7480554D01*
X21384006Y-7501890D01*
X21348446Y-7537450D01*
X21348446Y-7531354D01*
X21338794Y-7507986D01*
X21321014Y-7490206D01*
X21297900Y-7480554D01*
X21272754Y-7480554D01*
X21120354Y-7480554D01*
X21096986Y-7490206D01*
X21079206Y-7507986D01*
X21069554Y-7531100D01*
X21069554Y-7537450D01*
X21033994Y-7501890D01*
X20982686Y-7480554D01*
X20927314Y-7480554D01*
X20876006Y-7501890D01*
X20836890Y-7541006D01*
X20828000Y-7562342D01*
X20819110Y-7541006D01*
X20779994Y-7501890D01*
X20728686Y-7480554D01*
X20673314Y-7480554D01*
X20622006Y-7501890D01*
X20582890Y-7541006D01*
X20574000Y-7562342D01*
X20565110Y-7541006D01*
X20525994Y-7501890D01*
X20474686Y-7480554D01*
X20419314Y-7480554D01*
X20368006Y-7501890D01*
X20332446Y-7537450D01*
X20332446Y-7531354D01*
X20322794Y-7507986D01*
X20305014Y-7490206D01*
X20281900Y-7480554D01*
X20256754Y-7480554D01*
X20104354Y-7480554D01*
X20080986Y-7490206D01*
X20063206Y-7507986D01*
X20053554Y-7531100D01*
X20053554Y-7546848D01*
X20035012Y-7541768D01*
X20017232Y-7559548D01*
X20017232Y-7523988D01*
X20010374Y-7500112D01*
X19959066Y-7482078D01*
X19904964Y-7484872D01*
X19867626Y-7500112D01*
X19860768Y-7523988D01*
X19939000Y-7601966D01*
X20017232Y-7523988D01*
X20017232Y-7559548D01*
X19957034Y-7620000D01*
X20035012Y-7698232D01*
X20053554Y-7692898D01*
X20053554Y-7708646D01*
X20063206Y-7732014D01*
X20080986Y-7749794D01*
X20104100Y-7759446D01*
X20129246Y-7759446D01*
X20281646Y-7759446D01*
X20305014Y-7749794D01*
X20322794Y-7732014D01*
X20332446Y-7708900D01*
X20332446Y-7702550D01*
X20368006Y-7738110D01*
X20419314Y-7759446D01*
X20474686Y-7759446D01*
X20525994Y-7738110D01*
X20565110Y-7698994D01*
X20574000Y-7677404D01*
X20582890Y-7698994D01*
X20622006Y-7738110D01*
X20673314Y-7759446D01*
X20728686Y-7759446D01*
X20779994Y-7738110D01*
X20819110Y-7698994D01*
X20828000Y-7677404D01*
X20836890Y-7698994D01*
X20876006Y-7738110D01*
X20927314Y-7759446D01*
X20982686Y-7759446D01*
X21033994Y-7738110D01*
X21069554Y-7702550D01*
X21069554Y-7708646D01*
X21079206Y-7732014D01*
X21096986Y-7749794D01*
X21120100Y-7759446D01*
X21145246Y-7759446D01*
X21297646Y-7759446D01*
X21321014Y-7749794D01*
X21338794Y-7732014D01*
X21348446Y-7708900D01*
X21348446Y-7702550D01*
X21384006Y-7738110D01*
X21435314Y-7759446D01*
X21490686Y-7759446D01*
X21541994Y-7738110D01*
X21581110Y-7698994D01*
X21590000Y-7677404D01*
X21598890Y-7698994D01*
X21638006Y-7738110D01*
X21689314Y-7759446D01*
X21744686Y-7759446D01*
X21795994Y-7738110D01*
X21835110Y-7698994D01*
X21844000Y-7677404D01*
X21852890Y-7698994D01*
X21892006Y-7738110D01*
X21943314Y-7759446D01*
X21998686Y-7759446D01*
X22049994Y-7738110D01*
X22089110Y-7698994D01*
X22110446Y-7647686D01*
X22110446Y-7785100D01*
X21145500Y-7785100D01*
X21145500Y-8609584D01*
X21131276Y-8604758D01*
X21113242Y-8622792D01*
X21113242Y-8586724D01*
X21103844Y-8560308D01*
X21043900Y-8538210D01*
X20980400Y-8540750D01*
X20933156Y-8560308D01*
X20923758Y-8586724D01*
X21018500Y-8681466D01*
X21113242Y-8586724D01*
X21113242Y-8622792D01*
X21036534Y-8699500D01*
X21131276Y-8794242D01*
X21145500Y-8789162D01*
X21145500Y-9244584D01*
X21131276Y-9239758D01*
X21113242Y-9257792D01*
X21113242Y-9221724D01*
X21113242Y-8812276D01*
X21018500Y-8717534D01*
X21000466Y-8735568D01*
X21000466Y-8699500D01*
X20905724Y-8604758D01*
X20901660Y-8606028D01*
X20857210Y-8561324D01*
X20797266Y-8536178D01*
X20732242Y-8536178D01*
X20672298Y-8561070D01*
X20626324Y-8606790D01*
X20601178Y-8666734D01*
X20601178Y-8731758D01*
X20626070Y-8791702D01*
X20671790Y-8837676D01*
X20731734Y-8862822D01*
X20796758Y-8862822D01*
X20856702Y-8837930D01*
X20901914Y-8792718D01*
X20905724Y-8794242D01*
X21000466Y-8699500D01*
X21000466Y-8735568D01*
X20923758Y-8812276D01*
X20933156Y-8838692D01*
X20993100Y-8860790D01*
X21056600Y-8858250D01*
X21103844Y-8838692D01*
X21113242Y-8812276D01*
X21113242Y-9221724D01*
X21103844Y-9195308D01*
X21043900Y-9173210D01*
X20980400Y-9175750D01*
X20933156Y-9195308D01*
X20923758Y-9221724D01*
X21018500Y-9316466D01*
X21113242Y-9221724D01*
X21113242Y-9257792D01*
X21036534Y-9334500D01*
X21131276Y-9429242D01*
X21145500Y-9424162D01*
X21145500Y-10121900D01*
X22110700Y-10121900D01*
X22110700Y-10472674D01*
X22110700Y-10472674D01*
G37*
X22110700Y-10472674D02*
X22110446Y-10472674D01*
X22110446Y-10314686D01*
X22110446Y-10259314D01*
X22089110Y-10208006D01*
X22049994Y-10168890D01*
X21998686Y-10147554D01*
X21943314Y-10147554D01*
X21892006Y-10168890D01*
X21852890Y-10208006D01*
X21844000Y-10229342D01*
X21835110Y-10208006D01*
X21795994Y-10168890D01*
X21744686Y-10147554D01*
X21689314Y-10147554D01*
X21638006Y-10168890D01*
X21598890Y-10208006D01*
X21590000Y-10229342D01*
X21581110Y-10208006D01*
X21541994Y-10168890D01*
X21490686Y-10147554D01*
X21435314Y-10147554D01*
X21384006Y-10168890D01*
X21348446Y-10204450D01*
X21348446Y-10198354D01*
X21338794Y-10174986D01*
X21321014Y-10157206D01*
X21297900Y-10147554D01*
X21272754Y-10147554D01*
X21120354Y-10147554D01*
X21113242Y-10150348D01*
X21113242Y-9447276D01*
X21018500Y-9352534D01*
X21000466Y-9370568D01*
X21000466Y-9334500D01*
X20905724Y-9239758D01*
X20901660Y-9241028D01*
X20857210Y-9196324D01*
X20797266Y-9171178D01*
X20732242Y-9171178D01*
X20672298Y-9196070D01*
X20626324Y-9241790D01*
X20601178Y-9301734D01*
X20601178Y-9366758D01*
X20626070Y-9426702D01*
X20671790Y-9472676D01*
X20731734Y-9497822D01*
X20796758Y-9497822D01*
X20856702Y-9472930D01*
X20901914Y-9427718D01*
X20905724Y-9429242D01*
X21000466Y-9334500D01*
X21000466Y-9370568D01*
X20923758Y-9447276D01*
X20933156Y-9473692D01*
X20993100Y-9495790D01*
X21056600Y-9493250D01*
X21103844Y-9473692D01*
X21113242Y-9447276D01*
X21113242Y-10150348D01*
X21096986Y-10157206D01*
X21079206Y-10174986D01*
X21069554Y-10198100D01*
X21069554Y-10204450D01*
X21033994Y-10168890D01*
X20982686Y-10147554D01*
X20927314Y-10147554D01*
X20876006Y-10168890D01*
X20836890Y-10208006D01*
X20828000Y-10229342D01*
X20819110Y-10208006D01*
X20779994Y-10168890D01*
X20728686Y-10147554D01*
X20673314Y-10147554D01*
X20622006Y-10168890D01*
X20600924Y-10189972D01*
X20600924Y-9672574D01*
X20600924Y-9631680D01*
X20600924Y-8808974D01*
X20600924Y-8768080D01*
X20600924Y-8402574D01*
X20600924Y-8361680D01*
X20585176Y-8323834D01*
X20556474Y-8294624D01*
X20518374Y-8278876D01*
X20496530Y-8278876D01*
X20483576Y-8247634D01*
X20454874Y-8218424D01*
X20416774Y-8202676D01*
X20375880Y-8202676D01*
X20338034Y-8218424D01*
X20308824Y-8247126D01*
X20293076Y-8285226D01*
X20293076Y-8326120D01*
X20308824Y-8363966D01*
X20337526Y-8393176D01*
X20375626Y-8408924D01*
X20397216Y-8408924D01*
X20410424Y-8440166D01*
X20439126Y-8469376D01*
X20477226Y-8485124D01*
X20518120Y-8485124D01*
X20555966Y-8469376D01*
X20585176Y-8440674D01*
X20600924Y-8402574D01*
X20600924Y-8768080D01*
X20585176Y-8730234D01*
X20556474Y-8701024D01*
X20518374Y-8685276D01*
X20477480Y-8685276D01*
X20439634Y-8701024D01*
X20410424Y-8729726D01*
X20394676Y-8767826D01*
X20394676Y-8808720D01*
X20410424Y-8846566D01*
X20439126Y-8875776D01*
X20477226Y-8891524D01*
X20518120Y-8891524D01*
X20555966Y-8875776D01*
X20585176Y-8847074D01*
X20600924Y-8808974D01*
X20600924Y-9631680D01*
X20585176Y-9593834D01*
X20556474Y-9564624D01*
X20518374Y-9548876D01*
X20477480Y-9548876D01*
X20439634Y-9564624D01*
X20410424Y-9593326D01*
X20394676Y-9631426D01*
X20394676Y-9672320D01*
X20410424Y-9710166D01*
X20439126Y-9739376D01*
X20477226Y-9755124D01*
X20518120Y-9755124D01*
X20555966Y-9739376D01*
X20585176Y-9710674D01*
X20600924Y-9672574D01*
X20600924Y-10189972D01*
X20582890Y-10208006D01*
X20574000Y-10229342D01*
X20565110Y-10208006D01*
X20525994Y-10168890D01*
X20474686Y-10147554D01*
X20419314Y-10147554D01*
X20368006Y-10168890D01*
X20332446Y-10204450D01*
X20332446Y-10198354D01*
X20322794Y-10174986D01*
X20305014Y-10157206D01*
X20281900Y-10147554D01*
X20256754Y-10147554D01*
X20104354Y-10147554D01*
X20080986Y-10157206D01*
X20067524Y-10170668D01*
X20067524Y-8935974D01*
X20067524Y-8895080D01*
X20051776Y-8857234D01*
X20023074Y-8828024D01*
X20017232Y-8825484D01*
X20017232Y-7716012D01*
X19939000Y-7638034D01*
X19920966Y-7655814D01*
X19920966Y-7620000D01*
X19842988Y-7541768D01*
X19819112Y-7548626D01*
X19813016Y-7565136D01*
X19803110Y-7541006D01*
X19763994Y-7501890D01*
X19712686Y-7480554D01*
X19657314Y-7480554D01*
X19606006Y-7501890D01*
X19566890Y-7541006D01*
X19558000Y-7562342D01*
X19549110Y-7541006D01*
X19509994Y-7501890D01*
X19458686Y-7480554D01*
X19403314Y-7480554D01*
X19352006Y-7501890D01*
X19316446Y-7537450D01*
X19316446Y-7531354D01*
X19306794Y-7507986D01*
X19289014Y-7490206D01*
X19265900Y-7480554D01*
X19240754Y-7480554D01*
X19088354Y-7480554D01*
X19064986Y-7490206D01*
X19047206Y-7507986D01*
X19037554Y-7531100D01*
X19037554Y-7556246D01*
X19037554Y-7708646D01*
X19047206Y-7732014D01*
X19064986Y-7749794D01*
X19088100Y-7759446D01*
X19113246Y-7759446D01*
X19265646Y-7759446D01*
X19289014Y-7749794D01*
X19306794Y-7732014D01*
X19316446Y-7708900D01*
X19316446Y-7702550D01*
X19352006Y-7738110D01*
X19403314Y-7759446D01*
X19458686Y-7759446D01*
X19509994Y-7738110D01*
X19549110Y-7698994D01*
X19558000Y-7677404D01*
X19566890Y-7698994D01*
X19606006Y-7738110D01*
X19657314Y-7759446D01*
X19712686Y-7759446D01*
X19763994Y-7738110D01*
X19803110Y-7698994D01*
X19812508Y-7675626D01*
X19819112Y-7691374D01*
X19842988Y-7698232D01*
X19920966Y-7620000D01*
X19920966Y-7655814D01*
X19860768Y-7716012D01*
X19867626Y-7739888D01*
X19918934Y-7757922D01*
X19973036Y-7755128D01*
X20010374Y-7739888D01*
X20017232Y-7716012D01*
X20017232Y-8825484D01*
X19984974Y-8812276D01*
X19944080Y-8812276D01*
X19906234Y-8828024D01*
X19877024Y-8856726D01*
X19861276Y-8894826D01*
X19861276Y-8913876D01*
X19842480Y-8913876D01*
X19804634Y-8929624D01*
X19775424Y-8958326D01*
X19762216Y-8990076D01*
X19740880Y-8990076D01*
X19703034Y-9005824D01*
X19673824Y-9034526D01*
X19658076Y-9072626D01*
X19658076Y-9113520D01*
X19673824Y-9151366D01*
X19702526Y-9180576D01*
X19740626Y-9196324D01*
X19781520Y-9196324D01*
X19819366Y-9180576D01*
X19848576Y-9151874D01*
X19861530Y-9120124D01*
X19883120Y-9120124D01*
X19920966Y-9104376D01*
X19950176Y-9075674D01*
X19965924Y-9037574D01*
X19965924Y-9018524D01*
X19984720Y-9018524D01*
X20022566Y-9002776D01*
X20051776Y-8974074D01*
X20067524Y-8935974D01*
X20067524Y-10170668D01*
X20063206Y-10174986D01*
X20053554Y-10198100D01*
X20053554Y-10213848D01*
X20035012Y-10208768D01*
X20017232Y-10226548D01*
X20017232Y-10190988D01*
X20010374Y-10167112D01*
X19959066Y-10149078D01*
X19904964Y-10151872D01*
X19867626Y-10167112D01*
X19860768Y-10190988D01*
X19939000Y-10268966D01*
X20017232Y-10190988D01*
X20017232Y-10226548D01*
X19957034Y-10287000D01*
X20035012Y-10365232D01*
X20053554Y-10359898D01*
X20053554Y-10375646D01*
X20063206Y-10399014D01*
X20080986Y-10416794D01*
X20104100Y-10426446D01*
X20129246Y-10426446D01*
X20281646Y-10426446D01*
X20305014Y-10416794D01*
X20322794Y-10399014D01*
X20332446Y-10375900D01*
X20332446Y-10369550D01*
X20368006Y-10405110D01*
X20419314Y-10426446D01*
X20474686Y-10426446D01*
X20525994Y-10405110D01*
X20565110Y-10365994D01*
X20574000Y-10344404D01*
X20582890Y-10365994D01*
X20622006Y-10405110D01*
X20673314Y-10426446D01*
X20728686Y-10426446D01*
X20779994Y-10405110D01*
X20819110Y-10365994D01*
X20828000Y-10344404D01*
X20836890Y-10365994D01*
X20876006Y-10405110D01*
X20927314Y-10426446D01*
X20982686Y-10426446D01*
X21033994Y-10405110D01*
X21069554Y-10369550D01*
X21069554Y-10375646D01*
X21079206Y-10399014D01*
X21096986Y-10416794D01*
X21120100Y-10426446D01*
X21145246Y-10426446D01*
X21297646Y-10426446D01*
X21321014Y-10416794D01*
X21338794Y-10399014D01*
X21348446Y-10375900D01*
X21348446Y-10369550D01*
X21384006Y-10405110D01*
X21435314Y-10426446D01*
X21490686Y-10426446D01*
X21541994Y-10405110D01*
X21581110Y-10365994D01*
X21590000Y-10344404D01*
X21598890Y-10365994D01*
X21638006Y-10405110D01*
X21689314Y-10426446D01*
X21744686Y-10426446D01*
X21795994Y-10405110D01*
X21835110Y-10365994D01*
X21844000Y-10344404D01*
X21852890Y-10365994D01*
X21892006Y-10405110D01*
X21943314Y-10426446D01*
X21998686Y-10426446D01*
X22049994Y-10405110D01*
X22089110Y-10365994D01*
X22110446Y-10314686D01*
X22110446Y-10472674D01*
X20017232Y-10472674D01*
X20017232Y-10383012D01*
X19939000Y-10305034D01*
X19920966Y-10322814D01*
X19920966Y-10287000D01*
X19842988Y-10208768D01*
X19819112Y-10215626D01*
X19813016Y-10232136D01*
X19803110Y-10208006D01*
X19763994Y-10168890D01*
X19712686Y-10147554D01*
X19657314Y-10147554D01*
X19606006Y-10168890D01*
X19566890Y-10208006D01*
X19558000Y-10229342D01*
X19549110Y-10208006D01*
X19509994Y-10168890D01*
X19483324Y-10157714D01*
X19483324Y-8910574D01*
X19483324Y-8869680D01*
X19467576Y-8831834D01*
X19449796Y-8813546D01*
X19467576Y-8796274D01*
X19483324Y-8758174D01*
X19483324Y-8717280D01*
X19467576Y-8679434D01*
X19457924Y-8669528D01*
X19457924Y-8326374D01*
X19457924Y-8285480D01*
X19442176Y-8247634D01*
X19413474Y-8218424D01*
X19375374Y-8202676D01*
X19334480Y-8202676D01*
X19296634Y-8218424D01*
X19267424Y-8247126D01*
X19251676Y-8285226D01*
X19251676Y-8326120D01*
X19267424Y-8363966D01*
X19296126Y-8393176D01*
X19334226Y-8408924D01*
X19375120Y-8408924D01*
X19412966Y-8393176D01*
X19442176Y-8364474D01*
X19457924Y-8326374D01*
X19457924Y-8669528D01*
X19438874Y-8650224D01*
X19400774Y-8634476D01*
X19359880Y-8634476D01*
X19322034Y-8650224D01*
X19292824Y-8678926D01*
X19277076Y-8717026D01*
X19277076Y-8757920D01*
X19292824Y-8795766D01*
X19310350Y-8813800D01*
X19292824Y-8831326D01*
X19277076Y-8869426D01*
X19277076Y-8910320D01*
X19292824Y-8948166D01*
X19321526Y-8977376D01*
X19359626Y-8993124D01*
X19400520Y-8993124D01*
X19438366Y-8977376D01*
X19467576Y-8948674D01*
X19483324Y-8910574D01*
X19483324Y-10157714D01*
X19458686Y-10147554D01*
X19403314Y-10147554D01*
X19352006Y-10168890D01*
X19316446Y-10204450D01*
X19316446Y-10198354D01*
X19306794Y-10174986D01*
X19289014Y-10157206D01*
X19265900Y-10147554D01*
X19240754Y-10147554D01*
X19088354Y-10147554D01*
X19064986Y-10157206D01*
X19062446Y-10159746D01*
X19062446Y-9095486D01*
X19062446Y-9040114D01*
X19041110Y-8988806D01*
X19001994Y-8949690D01*
X18980404Y-8940800D01*
X19001994Y-8931910D01*
X19041110Y-8892794D01*
X19062446Y-8841486D01*
X19062446Y-8786114D01*
X19041110Y-8734806D01*
X19005550Y-8699246D01*
X19011646Y-8699246D01*
X19035014Y-8689594D01*
X19052794Y-8671814D01*
X19062446Y-8648700D01*
X19062446Y-8623554D01*
X19062446Y-8471154D01*
X19052794Y-8447786D01*
X19035014Y-8430006D01*
X19011900Y-8420354D01*
X18986754Y-8420354D01*
X18834354Y-8420354D01*
X18810986Y-8430006D01*
X18793206Y-8447786D01*
X18783554Y-8470900D01*
X18783554Y-8496046D01*
X18783554Y-8648446D01*
X18793206Y-8671814D01*
X18810986Y-8689594D01*
X18834100Y-8699246D01*
X18840450Y-8699246D01*
X18804890Y-8734806D01*
X18783554Y-8786114D01*
X18783554Y-8841486D01*
X18804890Y-8892794D01*
X18844006Y-8931910D01*
X18865342Y-8940800D01*
X18844006Y-8949690D01*
X18804890Y-8988806D01*
X18783554Y-9040114D01*
X18783554Y-9095486D01*
X18804890Y-9146794D01*
X18844006Y-9185910D01*
X18867120Y-9195308D01*
X18851626Y-9201912D01*
X18844768Y-9225788D01*
X18923000Y-9303766D01*
X19001232Y-9225788D01*
X18994374Y-9201912D01*
X18977610Y-9195816D01*
X19001994Y-9185910D01*
X19041110Y-9146794D01*
X19062446Y-9095486D01*
X19062446Y-10159746D01*
X19060922Y-10161270D01*
X19060922Y-9341866D01*
X19058128Y-9287764D01*
X19042888Y-9250426D01*
X19019012Y-9243568D01*
X18941034Y-9321800D01*
X19019012Y-9400032D01*
X19042888Y-9393174D01*
X19060922Y-9341866D01*
X19060922Y-10161270D01*
X19047206Y-10174986D01*
X19037554Y-10198100D01*
X19037554Y-10223246D01*
X19037554Y-10375646D01*
X19047206Y-10399014D01*
X19064986Y-10416794D01*
X19088100Y-10426446D01*
X19113246Y-10426446D01*
X19265646Y-10426446D01*
X19289014Y-10416794D01*
X19306794Y-10399014D01*
X19316446Y-10375900D01*
X19316446Y-10369550D01*
X19352006Y-10405110D01*
X19403314Y-10426446D01*
X19458686Y-10426446D01*
X19509994Y-10405110D01*
X19549110Y-10365994D01*
X19558000Y-10344404D01*
X19566890Y-10365994D01*
X19606006Y-10405110D01*
X19657314Y-10426446D01*
X19712686Y-10426446D01*
X19763994Y-10405110D01*
X19803110Y-10365994D01*
X19812508Y-10342626D01*
X19819112Y-10358374D01*
X19842988Y-10365232D01*
X19920966Y-10287000D01*
X19920966Y-10322814D01*
X19860768Y-10383012D01*
X19867626Y-10406888D01*
X19918934Y-10424922D01*
X19973036Y-10422128D01*
X20010374Y-10406888D01*
X20017232Y-10383012D01*
X20017232Y-10472674D01*
X19001232Y-10472674D01*
X19001232Y-9417812D01*
X18923000Y-9339834D01*
X18904966Y-9357614D01*
X18904966Y-9321800D01*
X18826988Y-9243568D01*
X18803112Y-9250426D01*
X18785078Y-9301734D01*
X18787872Y-9355836D01*
X18803112Y-9393174D01*
X18826988Y-9400032D01*
X18904966Y-9321800D01*
X18904966Y-9357614D01*
X18844768Y-9417812D01*
X18851626Y-9441688D01*
X18902934Y-9459722D01*
X18957036Y-9456928D01*
X18994374Y-9441688D01*
X19001232Y-9417812D01*
X19001232Y-10472674D01*
X18737326Y-10472674D01*
X18737326Y-7408926D01*
X19380200Y-7408926D01*
X22110700Y-7408926D01*
X22110700Y-7785100D01*
X22110446Y-7785100D01*
X22110446Y-7647686D01*
X22110446Y-7592314D01*
X22089110Y-7541006D01*
X22049994Y-7501890D01*
X21998686Y-7480554D01*
X21943314Y-7480554D01*
X21892006Y-7501890D01*
X21852890Y-7541006D01*
X21844000Y-7562342D01*
X21835110Y-7541006D01*
X21795994Y-7501890D01*
X21744686Y-7480554D01*
X21689314Y-7480554D01*
X21638006Y-7501890D01*
X21598890Y-7541006D01*
X21590000Y-7562342D01*
X21581110Y-7541006D01*
X21541994Y-7501890D01*
X21490686Y-7480554D01*
X21435314Y-7480554D01*
X21384006Y-7501890D01*
X21348446Y-7537450D01*
X21348446Y-7531354D01*
X21338794Y-7507986D01*
X21321014Y-7490206D01*
X21297900Y-7480554D01*
X21272754Y-7480554D01*
X21120354Y-7480554D01*
X21096986Y-7490206D01*
X21079206Y-7507986D01*
X21069554Y-7531100D01*
X21069554Y-7537450D01*
X21033994Y-7501890D01*
X20982686Y-7480554D01*
X20927314Y-7480554D01*
X20876006Y-7501890D01*
X20836890Y-7541006D01*
X20828000Y-7562342D01*
X20819110Y-7541006D01*
X20779994Y-7501890D01*
X20728686Y-7480554D01*
X20673314Y-7480554D01*
X20622006Y-7501890D01*
X20582890Y-7541006D01*
X20574000Y-7562342D01*
X20565110Y-7541006D01*
X20525994Y-7501890D01*
X20474686Y-7480554D01*
X20419314Y-7480554D01*
X20368006Y-7501890D01*
X20332446Y-7537450D01*
X20332446Y-7531354D01*
X20322794Y-7507986D01*
X20305014Y-7490206D01*
X20281900Y-7480554D01*
X20256754Y-7480554D01*
X20104354Y-7480554D01*
X20080986Y-7490206D01*
X20063206Y-7507986D01*
X20053554Y-7531100D01*
X20053554Y-7546848D01*
X20035012Y-7541768D01*
X20017232Y-7559548D01*
X20017232Y-7523988D01*
X20010374Y-7500112D01*
X19959066Y-7482078D01*
X19904964Y-7484872D01*
X19867626Y-7500112D01*
X19860768Y-7523988D01*
X19939000Y-7601966D01*
X20017232Y-7523988D01*
X20017232Y-7559548D01*
X19957034Y-7620000D01*
X20035012Y-7698232D01*
X20053554Y-7692898D01*
X20053554Y-7708646D01*
X20063206Y-7732014D01*
X20080986Y-7749794D01*
X20104100Y-7759446D01*
X20129246Y-7759446D01*
X20281646Y-7759446D01*
X20305014Y-7749794D01*
X20322794Y-7732014D01*
X20332446Y-7708900D01*
X20332446Y-7702550D01*
X20368006Y-7738110D01*
X20419314Y-7759446D01*
X20474686Y-7759446D01*
X20525994Y-7738110D01*
X20565110Y-7698994D01*
X20574000Y-7677404D01*
X20582890Y-7698994D01*
X20622006Y-7738110D01*
X20673314Y-7759446D01*
X20728686Y-7759446D01*
X20779994Y-7738110D01*
X20819110Y-7698994D01*
X20828000Y-7677404D01*
X20836890Y-7698994D01*
X20876006Y-7738110D01*
X20927314Y-7759446D01*
X20982686Y-7759446D01*
X21033994Y-7738110D01*
X21069554Y-7702550D01*
X21069554Y-7708646D01*
X21079206Y-7732014D01*
X21096986Y-7749794D01*
X21120100Y-7759446D01*
X21145246Y-7759446D01*
X21297646Y-7759446D01*
X21321014Y-7749794D01*
X21338794Y-7732014D01*
X21348446Y-7708900D01*
X21348446Y-7702550D01*
X21384006Y-7738110D01*
X21435314Y-7759446D01*
X21490686Y-7759446D01*
X21541994Y-7738110D01*
X21581110Y-7698994D01*
X21590000Y-7677404D01*
X21598890Y-7698994D01*
X21638006Y-7738110D01*
X21689314Y-7759446D01*
X21744686Y-7759446D01*
X21795994Y-7738110D01*
X21835110Y-7698994D01*
X21844000Y-7677404D01*
X21852890Y-7698994D01*
X21892006Y-7738110D01*
X21943314Y-7759446D01*
X21998686Y-7759446D01*
X22049994Y-7738110D01*
X22089110Y-7698994D01*
X22110446Y-7647686D01*
X22110446Y-7785100D01*
X21145500Y-7785100D01*
X21145500Y-8609584D01*
X21131276Y-8604758D01*
X21113242Y-8622792D01*
X21113242Y-8586724D01*
X21103844Y-8560308D01*
X21043900Y-8538210D01*
X20980400Y-8540750D01*
X20933156Y-8560308D01*
X20923758Y-8586724D01*
X21018500Y-8681466D01*
X21113242Y-8586724D01*
X21113242Y-8622792D01*
X21036534Y-8699500D01*
X21131276Y-8794242D01*
X21145500Y-8789162D01*
X21145500Y-9244584D01*
X21131276Y-9239758D01*
X21113242Y-9257792D01*
X21113242Y-9221724D01*
X21113242Y-8812276D01*
X21018500Y-8717534D01*
X21000466Y-8735568D01*
X21000466Y-8699500D01*
X20905724Y-8604758D01*
X20901660Y-8606028D01*
X20857210Y-8561324D01*
X20797266Y-8536178D01*
X20732242Y-8536178D01*
X20672298Y-8561070D01*
X20626324Y-8606790D01*
X20601178Y-8666734D01*
X20601178Y-8731758D01*
X20626070Y-8791702D01*
X20671790Y-8837676D01*
X20731734Y-8862822D01*
X20796758Y-8862822D01*
X20856702Y-8837930D01*
X20901914Y-8792718D01*
X20905724Y-8794242D01*
X21000466Y-8699500D01*
X21000466Y-8735568D01*
X20923758Y-8812276D01*
X20933156Y-8838692D01*
X20993100Y-8860790D01*
X21056600Y-8858250D01*
X21103844Y-8838692D01*
X21113242Y-8812276D01*
X21113242Y-9221724D01*
X21103844Y-9195308D01*
X21043900Y-9173210D01*
X20980400Y-9175750D01*
X20933156Y-9195308D01*
X20923758Y-9221724D01*
X21018500Y-9316466D01*
X21113242Y-9221724D01*
X21113242Y-9257792D01*
X21036534Y-9334500D01*
X21131276Y-9429242D01*
X21145500Y-9424162D01*
X21145500Y-10121900D01*
X22110700Y-10121900D01*
X22110700Y-10472674D01*
G36*
X22758400Y-12631890D02*
X22582523Y-12842253D01*
X22582523Y-12387402D01*
X22566798Y-12349346D01*
X22537707Y-12320204D01*
X22527015Y-12315764D01*
X22541296Y-12301507D01*
X22557087Y-12263479D01*
X22557123Y-12222302D01*
X22541398Y-12184246D01*
X22512307Y-12155104D01*
X22474279Y-12139313D01*
X22433102Y-12139277D01*
X22395046Y-12155002D01*
X22365904Y-12184093D01*
X22350113Y-12222121D01*
X22350077Y-12263298D01*
X22365802Y-12301354D01*
X22394893Y-12330496D01*
X22405585Y-12334936D01*
X22391304Y-12349193D01*
X22375513Y-12387221D01*
X22375477Y-12428398D01*
X22391202Y-12466454D01*
X22420293Y-12495596D01*
X22458321Y-12511387D01*
X22499498Y-12511423D01*
X22537554Y-12495698D01*
X22566696Y-12466607D01*
X22582487Y-12428579D01*
X22582523Y-12387402D01*
X22582523Y-12842253D01*
X22110700Y-13406590D01*
X22110700Y-13561275D01*
X22089501Y-13509970D01*
X22050237Y-13470637D01*
X21998910Y-13449324D01*
X21943334Y-13449276D01*
X21891970Y-13470499D01*
X21852637Y-13509763D01*
X21844005Y-13530551D01*
X21835501Y-13509970D01*
X21796237Y-13470637D01*
X21744910Y-13449324D01*
X21718923Y-13449302D01*
X21718923Y-11904802D01*
X21703198Y-11866746D01*
X21674107Y-11837604D01*
X21671248Y-11836416D01*
X21673954Y-11835298D01*
X21703096Y-11806207D01*
X21718887Y-11768179D01*
X21718923Y-11727002D01*
X21703198Y-11688946D01*
X21674107Y-11659804D01*
X21636079Y-11644013D01*
X21594902Y-11643977D01*
X21556846Y-11659702D01*
X21527704Y-11688793D01*
X21511913Y-11726821D01*
X21511877Y-11767998D01*
X21527602Y-11806054D01*
X21556693Y-11835196D01*
X21559552Y-11836383D01*
X21556846Y-11837502D01*
X21527704Y-11866593D01*
X21511913Y-11904621D01*
X21511877Y-11945798D01*
X21527602Y-11983854D01*
X21556693Y-12012996D01*
X21594721Y-12028787D01*
X21635898Y-12028823D01*
X21673954Y-12013098D01*
X21703096Y-11984007D01*
X21718887Y-11945979D01*
X21718923Y-11904802D01*
X21718923Y-13449302D01*
X21689334Y-13449276D01*
X21637970Y-13470499D01*
X21598637Y-13509763D01*
X21590005Y-13530551D01*
X21581501Y-13509970D01*
X21542237Y-13470637D01*
X21490910Y-13449324D01*
X21477623Y-13449313D01*
X21477623Y-12438202D01*
X21461898Y-12400146D01*
X21432807Y-12371004D01*
X21394779Y-12355213D01*
X21353602Y-12355177D01*
X21315546Y-12370902D01*
X21286404Y-12399993D01*
X21270613Y-12438021D01*
X21270596Y-12457983D01*
X21267779Y-12456813D01*
X21226602Y-12456777D01*
X21188546Y-12472502D01*
X21159404Y-12501593D01*
X21143613Y-12539621D01*
X21143577Y-12580798D01*
X21159302Y-12618854D01*
X21188393Y-12647996D01*
X21226421Y-12663787D01*
X21267598Y-12663823D01*
X21305654Y-12648098D01*
X21334796Y-12619007D01*
X21350587Y-12580979D01*
X21350604Y-12561017D01*
X21353421Y-12562187D01*
X21394598Y-12562223D01*
X21432654Y-12546498D01*
X21461796Y-12517407D01*
X21477587Y-12479379D01*
X21477623Y-12438202D01*
X21477623Y-13449313D01*
X21435334Y-13449276D01*
X21383970Y-13470499D01*
X21348589Y-13505818D01*
X21345246Y-13488588D01*
X21331267Y-13467307D01*
X21310164Y-13453062D01*
X21285200Y-13448056D01*
X21132800Y-13448056D01*
X21108588Y-13452754D01*
X21087307Y-13466733D01*
X21073062Y-13487836D01*
X21069440Y-13505901D01*
X21034237Y-13470637D01*
X20982910Y-13449324D01*
X20927334Y-13449276D01*
X20875970Y-13470499D01*
X20836637Y-13509763D01*
X20828005Y-13530551D01*
X20819501Y-13509970D01*
X20780237Y-13470637D01*
X20779123Y-13470174D01*
X20779123Y-13251002D01*
X20763398Y-13212946D01*
X20734307Y-13183804D01*
X20696279Y-13168013D01*
X20655102Y-13167977D01*
X20626723Y-13179703D01*
X20626723Y-12857302D01*
X20610998Y-12819246D01*
X20581907Y-12790104D01*
X20543879Y-12774313D01*
X20502702Y-12774277D01*
X20464646Y-12790002D01*
X20435504Y-12819093D01*
X20419713Y-12857121D01*
X20419677Y-12898298D01*
X20435402Y-12936354D01*
X20464493Y-12965496D01*
X20502521Y-12981287D01*
X20543698Y-12981323D01*
X20581754Y-12965598D01*
X20610896Y-12936507D01*
X20626687Y-12898479D01*
X20626723Y-12857302D01*
X20626723Y-13179703D01*
X20617046Y-13183702D01*
X20599395Y-13201322D01*
X20581907Y-13183804D01*
X20543879Y-13168013D01*
X20502702Y-13167977D01*
X20464646Y-13183702D01*
X20446995Y-13201322D01*
X20429507Y-13183804D01*
X20391479Y-13168013D01*
X20350302Y-13167977D01*
X20312246Y-13183702D01*
X20296523Y-13199397D01*
X20296523Y-12374702D01*
X20280798Y-12336646D01*
X20251707Y-12307504D01*
X20213679Y-12291713D01*
X20172502Y-12291677D01*
X20134446Y-12307402D01*
X20105304Y-12336493D01*
X20089513Y-12374521D01*
X20089477Y-12415698D01*
X20105202Y-12453754D01*
X20134293Y-12482896D01*
X20172321Y-12498687D01*
X20213498Y-12498723D01*
X20251554Y-12482998D01*
X20280696Y-12453907D01*
X20296487Y-12415879D01*
X20296523Y-12374702D01*
X20296523Y-13199397D01*
X20283104Y-13212793D01*
X20267313Y-13250821D01*
X20267277Y-13291998D01*
X20283002Y-13330054D01*
X20312093Y-13359196D01*
X20350121Y-13374987D01*
X20391298Y-13375023D01*
X20429354Y-13359298D01*
X20447005Y-13341678D01*
X20464493Y-13359196D01*
X20502521Y-13374987D01*
X20543698Y-13375023D01*
X20581754Y-13359298D01*
X20599405Y-13341678D01*
X20616893Y-13359196D01*
X20654921Y-13374987D01*
X20696098Y-13375023D01*
X20734154Y-13359298D01*
X20763296Y-13330207D01*
X20779087Y-13292179D01*
X20779123Y-13251002D01*
X20779123Y-13470174D01*
X20728910Y-13449324D01*
X20673334Y-13449276D01*
X20621970Y-13470499D01*
X20582637Y-13509763D01*
X20574005Y-13530551D01*
X20565501Y-13509970D01*
X20526237Y-13470637D01*
X20474910Y-13449324D01*
X20419334Y-13449276D01*
X20367970Y-13470499D01*
X20332589Y-13505818D01*
X20329246Y-13488588D01*
X20315267Y-13467307D01*
X20294164Y-13453062D01*
X20269200Y-13448056D01*
X20116800Y-13448056D01*
X20108203Y-13449724D01*
X20110498Y-13446324D01*
X20115504Y-13421360D01*
X20115504Y-13197840D01*
X20110806Y-13173628D01*
X20096827Y-13152347D01*
X20075724Y-13138102D01*
X20055223Y-13133991D01*
X20055223Y-12006402D01*
X20039498Y-11968346D01*
X20019061Y-11947872D01*
X20019061Y-11020021D01*
X19939000Y-10939961D01*
X19921040Y-10957921D01*
X19921040Y-10922000D01*
X19840979Y-10841939D01*
X19816760Y-10848886D01*
X19811749Y-10862932D01*
X19803501Y-10842970D01*
X19764237Y-10803637D01*
X19712910Y-10782324D01*
X19657334Y-10782276D01*
X19605970Y-10803499D01*
X19566637Y-10842763D01*
X19558005Y-10863551D01*
X19549501Y-10842970D01*
X19510237Y-10803637D01*
X19458910Y-10782324D01*
X19403334Y-10782276D01*
X19351970Y-10803499D01*
X19316589Y-10838818D01*
X19313246Y-10821588D01*
X19299267Y-10800307D01*
X19278164Y-10786062D01*
X19253200Y-10781056D01*
X19100800Y-10781056D01*
X19076588Y-10785754D01*
X19055307Y-10799733D01*
X19041062Y-10820836D01*
X19036056Y-10845800D01*
X19036056Y-10998200D01*
X19040754Y-11022412D01*
X19054733Y-11043693D01*
X19075836Y-11057938D01*
X19100800Y-11062944D01*
X19253200Y-11062944D01*
X19277412Y-11058246D01*
X19298693Y-11044267D01*
X19312938Y-11023164D01*
X19316560Y-11005099D01*
X19351763Y-11040363D01*
X19403090Y-11061676D01*
X19458666Y-11061724D01*
X19510030Y-11040501D01*
X19549363Y-11001237D01*
X19557995Y-10980449D01*
X19566499Y-11001030D01*
X19605763Y-11040363D01*
X19657090Y-11061676D01*
X19712666Y-11061724D01*
X19764030Y-11040501D01*
X19803363Y-11001237D01*
X19811339Y-10982027D01*
X19816760Y-10995114D01*
X19840979Y-11002061D01*
X19921040Y-10922000D01*
X19921040Y-10957921D01*
X19858939Y-11020021D01*
X19865886Y-11044240D01*
X19918230Y-11062914D01*
X19973737Y-11060136D01*
X20012114Y-11044240D01*
X20019061Y-11020021D01*
X20019061Y-11947872D01*
X20010407Y-11939204D01*
X19972379Y-11923413D01*
X19931202Y-11923377D01*
X19893146Y-11939102D01*
X19864004Y-11968193D01*
X19848213Y-12006221D01*
X19848177Y-12047398D01*
X19863902Y-12085454D01*
X19892993Y-12114596D01*
X19931021Y-12130387D01*
X19972198Y-12130423D01*
X20010254Y-12114698D01*
X20039396Y-12085607D01*
X20055187Y-12047579D01*
X20055223Y-12006402D01*
X20055223Y-13133991D01*
X20050760Y-13133096D01*
X19827240Y-13133096D01*
X19803028Y-13137794D01*
X19781747Y-13151773D01*
X19773893Y-13163408D01*
X19769766Y-13157126D01*
X19780298Y-13141524D01*
X19785304Y-13116560D01*
X19785304Y-12893040D01*
X19780606Y-12868828D01*
X19766627Y-12847547D01*
X19745524Y-12833302D01*
X19720560Y-12828296D01*
X19497040Y-12828296D01*
X19472828Y-12832994D01*
X19451547Y-12846973D01*
X19437302Y-12868076D01*
X19432296Y-12893040D01*
X19432296Y-13116560D01*
X19436994Y-13140772D01*
X19447834Y-13157274D01*
X19443693Y-13163408D01*
X19436427Y-13152347D01*
X19415324Y-13138102D01*
X19390360Y-13133096D01*
X19166840Y-13133096D01*
X19142628Y-13137794D01*
X19121347Y-13151773D01*
X19107102Y-13172876D01*
X19102096Y-13197840D01*
X19102096Y-13421360D01*
X19106794Y-13445572D01*
X19108425Y-13448056D01*
X19100800Y-13448056D01*
X19076588Y-13452754D01*
X19063944Y-13461059D01*
X19063944Y-11938000D01*
X19063944Y-11785600D01*
X19059246Y-11761388D01*
X19045267Y-11740107D01*
X19024164Y-11725862D01*
X18999200Y-11720856D01*
X18846800Y-11720856D01*
X18822588Y-11725554D01*
X18801307Y-11739533D01*
X18787062Y-11760636D01*
X18782056Y-11785600D01*
X18782056Y-11938000D01*
X18786754Y-11962212D01*
X18800733Y-11983493D01*
X18821836Y-11997738D01*
X18839901Y-12001360D01*
X18804637Y-12036563D01*
X18783324Y-12087890D01*
X18783276Y-12143466D01*
X18804499Y-12194830D01*
X18843763Y-12234163D01*
X18864551Y-12242795D01*
X18843970Y-12251299D01*
X18804637Y-12290563D01*
X18783324Y-12341890D01*
X18783276Y-12397466D01*
X18804499Y-12448830D01*
X18843763Y-12488163D01*
X18862973Y-12496139D01*
X18849886Y-12501560D01*
X18842939Y-12525779D01*
X18923000Y-12605839D01*
X19003061Y-12525779D01*
X18996114Y-12501560D01*
X18982068Y-12496549D01*
X19002030Y-12488301D01*
X19041363Y-12449037D01*
X19062676Y-12397710D01*
X19062724Y-12342134D01*
X19041501Y-12290770D01*
X19002237Y-12251437D01*
X18981449Y-12242805D01*
X19002030Y-12234301D01*
X19041363Y-12195037D01*
X19062676Y-12143710D01*
X19062724Y-12088134D01*
X19041501Y-12036770D01*
X19006182Y-12001389D01*
X19023412Y-11998046D01*
X19044693Y-11984067D01*
X19058938Y-11962964D01*
X19063944Y-11938000D01*
X19063944Y-13461059D01*
X19063914Y-13461079D01*
X19063914Y-12644570D01*
X19061136Y-12589063D01*
X19045240Y-12550686D01*
X19021021Y-12543739D01*
X18940961Y-12623800D01*
X19021021Y-12703861D01*
X19045240Y-12696914D01*
X19063914Y-12644570D01*
X19063914Y-13461079D01*
X19055307Y-13466733D01*
X19041062Y-13487836D01*
X19036056Y-13512800D01*
X19036056Y-13665200D01*
X19040754Y-13689412D01*
X19054733Y-13710693D01*
X19075836Y-13724938D01*
X19100800Y-13729944D01*
X19253200Y-13729944D01*
X19277412Y-13725246D01*
X19298693Y-13711267D01*
X19312938Y-13690164D01*
X19316560Y-13672099D01*
X19351763Y-13707363D01*
X19403090Y-13728676D01*
X19458666Y-13728724D01*
X19510030Y-13707501D01*
X19549363Y-13668237D01*
X19557995Y-13647449D01*
X19566499Y-13668030D01*
X19605763Y-13707363D01*
X19657090Y-13728676D01*
X19712666Y-13728724D01*
X19764030Y-13707501D01*
X19803363Y-13668237D01*
X19811339Y-13649027D01*
X19816760Y-13662114D01*
X19840979Y-13669061D01*
X19921040Y-13589000D01*
X19840979Y-13508939D01*
X19816760Y-13515886D01*
X19811749Y-13529932D01*
X19803501Y-13509970D01*
X19764237Y-13470637D01*
X19762356Y-13469856D01*
X19766053Y-13467427D01*
X19773907Y-13455792D01*
X19781173Y-13466853D01*
X19802276Y-13481098D01*
X19827240Y-13486104D01*
X19860337Y-13486104D01*
X19858939Y-13490979D01*
X19939000Y-13571039D01*
X20019061Y-13490979D01*
X20017663Y-13486104D01*
X20050760Y-13486104D01*
X20059357Y-13484436D01*
X20057062Y-13487836D01*
X20052056Y-13512800D01*
X20052056Y-13513251D01*
X20037021Y-13508939D01*
X19956961Y-13589000D01*
X20037021Y-13669061D01*
X20052056Y-13664748D01*
X20052056Y-13665200D01*
X20056754Y-13689412D01*
X20070733Y-13710693D01*
X20091836Y-13724938D01*
X20116800Y-13729944D01*
X20269200Y-13729944D01*
X20293412Y-13725246D01*
X20314693Y-13711267D01*
X20328938Y-13690164D01*
X20332560Y-13672099D01*
X20367763Y-13707363D01*
X20419090Y-13728676D01*
X20474666Y-13728724D01*
X20526030Y-13707501D01*
X20565363Y-13668237D01*
X20573995Y-13647449D01*
X20582499Y-13668030D01*
X20621763Y-13707363D01*
X20673090Y-13728676D01*
X20728666Y-13728724D01*
X20780030Y-13707501D01*
X20819363Y-13668237D01*
X20827995Y-13647449D01*
X20836499Y-13668030D01*
X20875763Y-13707363D01*
X20927090Y-13728676D01*
X20982666Y-13728724D01*
X21034030Y-13707501D01*
X21069411Y-13672182D01*
X21072754Y-13689412D01*
X21086733Y-13710693D01*
X21107836Y-13724938D01*
X21132800Y-13729944D01*
X21285200Y-13729944D01*
X21309412Y-13725246D01*
X21330693Y-13711267D01*
X21344938Y-13690164D01*
X21348560Y-13672099D01*
X21383763Y-13707363D01*
X21435090Y-13728676D01*
X21490666Y-13728724D01*
X21542030Y-13707501D01*
X21581363Y-13668237D01*
X21589995Y-13647449D01*
X21598499Y-13668030D01*
X21637763Y-13707363D01*
X21689090Y-13728676D01*
X21744666Y-13728724D01*
X21796030Y-13707501D01*
X21835363Y-13668237D01*
X21843995Y-13647449D01*
X21852499Y-13668030D01*
X21891763Y-13707363D01*
X21943090Y-13728676D01*
X21998666Y-13728724D01*
X22050030Y-13707501D01*
X22089363Y-13668237D01*
X22110676Y-13616910D01*
X22110700Y-13589065D01*
X22110700Y-13774547D01*
X20019061Y-13774547D01*
X20019061Y-13687021D01*
X19939000Y-13606960D01*
X19858939Y-13687021D01*
X19865886Y-13711240D01*
X19918230Y-13729914D01*
X19973737Y-13727136D01*
X20012114Y-13711240D01*
X20019061Y-13687021D01*
X20019061Y-13774547D01*
X19003061Y-13774547D01*
X19003061Y-12721821D01*
X18923000Y-12641760D01*
X18905040Y-12659721D01*
X18905040Y-12623800D01*
X18824979Y-12543739D01*
X18800760Y-12550686D01*
X18782086Y-12603030D01*
X18784864Y-12658537D01*
X18800760Y-12696914D01*
X18824979Y-12703861D01*
X18905040Y-12623800D01*
X18905040Y-12659721D01*
X18842939Y-12721821D01*
X18849886Y-12746040D01*
X18902230Y-12764714D01*
X18957737Y-12761936D01*
X18996114Y-12746040D01*
X19003061Y-12721821D01*
X19003061Y-13774547D01*
X18737453Y-13774547D01*
X18737453Y-10711053D01*
X19380200Y-10711053D01*
X22110700Y-10711053D01*
X22110700Y-10894275D01*
X22089501Y-10842970D01*
X22050237Y-10803637D01*
X21998910Y-10782324D01*
X21943334Y-10782276D01*
X21891970Y-10803499D01*
X21852637Y-10842763D01*
X21844005Y-10863551D01*
X21835501Y-10842970D01*
X21796237Y-10803637D01*
X21744910Y-10782324D01*
X21689334Y-10782276D01*
X21637970Y-10803499D01*
X21598637Y-10842763D01*
X21590005Y-10863551D01*
X21581501Y-10842970D01*
X21542237Y-10803637D01*
X21490910Y-10782324D01*
X21435334Y-10782276D01*
X21383970Y-10803499D01*
X21348589Y-10838818D01*
X21345246Y-10821588D01*
X21331267Y-10800307D01*
X21310164Y-10786062D01*
X21285200Y-10781056D01*
X21132800Y-10781056D01*
X21108588Y-10785754D01*
X21087307Y-10799733D01*
X21073062Y-10820836D01*
X21069440Y-10838901D01*
X21034237Y-10803637D01*
X20982910Y-10782324D01*
X20927334Y-10782276D01*
X20875970Y-10803499D01*
X20836637Y-10842763D01*
X20828005Y-10863551D01*
X20819501Y-10842970D01*
X20780237Y-10803637D01*
X20728910Y-10782324D01*
X20673334Y-10782276D01*
X20621970Y-10803499D01*
X20582637Y-10842763D01*
X20574005Y-10863551D01*
X20565501Y-10842970D01*
X20526237Y-10803637D01*
X20474910Y-10782324D01*
X20419334Y-10782276D01*
X20367970Y-10803499D01*
X20332589Y-10838818D01*
X20329246Y-10821588D01*
X20315267Y-10800307D01*
X20294164Y-10786062D01*
X20269200Y-10781056D01*
X20116800Y-10781056D01*
X20092588Y-10785754D01*
X20071307Y-10799733D01*
X20057062Y-10820836D01*
X20052056Y-10845800D01*
X20052056Y-10846252D01*
X20037021Y-10841939D01*
X20019061Y-10859900D01*
X20019061Y-10823979D01*
X20012114Y-10799760D01*
X19959770Y-10781086D01*
X19904263Y-10783864D01*
X19865886Y-10799760D01*
X19858939Y-10823979D01*
X19939000Y-10904040D01*
X20019061Y-10823979D01*
X20019061Y-10859900D01*
X19956961Y-10922000D01*
X20037021Y-11002061D01*
X20052056Y-10997748D01*
X20052056Y-10998200D01*
X20056754Y-11022412D01*
X20070733Y-11043693D01*
X20091836Y-11057938D01*
X20116800Y-11062944D01*
X20269200Y-11062944D01*
X20293412Y-11058246D01*
X20314693Y-11044267D01*
X20328938Y-11023164D01*
X20332560Y-11005099D01*
X20367763Y-11040363D01*
X20419090Y-11061676D01*
X20474666Y-11061724D01*
X20526030Y-11040501D01*
X20565363Y-11001237D01*
X20573995Y-10980449D01*
X20582499Y-11001030D01*
X20621763Y-11040363D01*
X20673090Y-11061676D01*
X20728666Y-11061724D01*
X20780030Y-11040501D01*
X20819363Y-11001237D01*
X20827995Y-10980449D01*
X20836499Y-11001030D01*
X20875763Y-11040363D01*
X20927090Y-11061676D01*
X20982666Y-11061724D01*
X21034030Y-11040501D01*
X21069411Y-11005182D01*
X21072754Y-11022412D01*
X21086733Y-11043693D01*
X21107836Y-11057938D01*
X21132800Y-11062944D01*
X21285200Y-11062944D01*
X21309412Y-11058246D01*
X21330693Y-11044267D01*
X21344938Y-11023164D01*
X21348560Y-11005099D01*
X21383763Y-11040363D01*
X21435090Y-11061676D01*
X21490666Y-11061724D01*
X21542030Y-11040501D01*
X21581363Y-11001237D01*
X21589995Y-10980449D01*
X21598499Y-11001030D01*
X21637763Y-11040363D01*
X21689090Y-11061676D01*
X21744666Y-11061724D01*
X21796030Y-11040501D01*
X21835363Y-11001237D01*
X21843995Y-10980449D01*
X21852499Y-11001030D01*
X21891763Y-11040363D01*
X21943090Y-11061676D01*
X21998666Y-11061724D01*
X22050030Y-11040501D01*
X22089363Y-11001237D01*
X22110676Y-10949910D01*
X22110700Y-10922065D01*
X22110700Y-11104528D01*
X22758400Y-11853828D01*
X22758400Y-12631890D01*
X22758400Y-12631890D01*
G37*
X22758400Y-12631890D02*
X22582523Y-12842253D01*
X22582523Y-12387402D01*
X22566798Y-12349346D01*
X22537707Y-12320204D01*
X22527015Y-12315764D01*
X22541296Y-12301507D01*
X22557087Y-12263479D01*
X22557123Y-12222302D01*
X22541398Y-12184246D01*
X22512307Y-12155104D01*
X22474279Y-12139313D01*
X22433102Y-12139277D01*
X22395046Y-12155002D01*
X22365904Y-12184093D01*
X22350113Y-12222121D01*
X22350077Y-12263298D01*
X22365802Y-12301354D01*
X22394893Y-12330496D01*
X22405585Y-12334936D01*
X22391304Y-12349193D01*
X22375513Y-12387221D01*
X22375477Y-12428398D01*
X22391202Y-12466454D01*
X22420293Y-12495596D01*
X22458321Y-12511387D01*
X22499498Y-12511423D01*
X22537554Y-12495698D01*
X22566696Y-12466607D01*
X22582487Y-12428579D01*
X22582523Y-12387402D01*
X22582523Y-12842253D01*
X22110700Y-13406590D01*
X22110700Y-13561275D01*
X22089501Y-13509970D01*
X22050237Y-13470637D01*
X21998910Y-13449324D01*
X21943334Y-13449276D01*
X21891970Y-13470499D01*
X21852637Y-13509763D01*
X21844005Y-13530551D01*
X21835501Y-13509970D01*
X21796237Y-13470637D01*
X21744910Y-13449324D01*
X21718923Y-13449302D01*
X21718923Y-11904802D01*
X21703198Y-11866746D01*
X21674107Y-11837604D01*
X21671248Y-11836416D01*
X21673954Y-11835298D01*
X21703096Y-11806207D01*
X21718887Y-11768179D01*
X21718923Y-11727002D01*
X21703198Y-11688946D01*
X21674107Y-11659804D01*
X21636079Y-11644013D01*
X21594902Y-11643977D01*
X21556846Y-11659702D01*
X21527704Y-11688793D01*
X21511913Y-11726821D01*
X21511877Y-11767998D01*
X21527602Y-11806054D01*
X21556693Y-11835196D01*
X21559552Y-11836383D01*
X21556846Y-11837502D01*
X21527704Y-11866593D01*
X21511913Y-11904621D01*
X21511877Y-11945798D01*
X21527602Y-11983854D01*
X21556693Y-12012996D01*
X21594721Y-12028787D01*
X21635898Y-12028823D01*
X21673954Y-12013098D01*
X21703096Y-11984007D01*
X21718887Y-11945979D01*
X21718923Y-11904802D01*
X21718923Y-13449302D01*
X21689334Y-13449276D01*
X21637970Y-13470499D01*
X21598637Y-13509763D01*
X21590005Y-13530551D01*
X21581501Y-13509970D01*
X21542237Y-13470637D01*
X21490910Y-13449324D01*
X21477623Y-13449313D01*
X21477623Y-12438202D01*
X21461898Y-12400146D01*
X21432807Y-12371004D01*
X21394779Y-12355213D01*
X21353602Y-12355177D01*
X21315546Y-12370902D01*
X21286404Y-12399993D01*
X21270613Y-12438021D01*
X21270596Y-12457983D01*
X21267779Y-12456813D01*
X21226602Y-12456777D01*
X21188546Y-12472502D01*
X21159404Y-12501593D01*
X21143613Y-12539621D01*
X21143577Y-12580798D01*
X21159302Y-12618854D01*
X21188393Y-12647996D01*
X21226421Y-12663787D01*
X21267598Y-12663823D01*
X21305654Y-12648098D01*
X21334796Y-12619007D01*
X21350587Y-12580979D01*
X21350604Y-12561017D01*
X21353421Y-12562187D01*
X21394598Y-12562223D01*
X21432654Y-12546498D01*
X21461796Y-12517407D01*
X21477587Y-12479379D01*
X21477623Y-12438202D01*
X21477623Y-13449313D01*
X21435334Y-13449276D01*
X21383970Y-13470499D01*
X21348589Y-13505818D01*
X21345246Y-13488588D01*
X21331267Y-13467307D01*
X21310164Y-13453062D01*
X21285200Y-13448056D01*
X21132800Y-13448056D01*
X21108588Y-13452754D01*
X21087307Y-13466733D01*
X21073062Y-13487836D01*
X21069440Y-13505901D01*
X21034237Y-13470637D01*
X20982910Y-13449324D01*
X20927334Y-13449276D01*
X20875970Y-13470499D01*
X20836637Y-13509763D01*
X20828005Y-13530551D01*
X20819501Y-13509970D01*
X20780237Y-13470637D01*
X20779123Y-13470174D01*
X20779123Y-13251002D01*
X20763398Y-13212946D01*
X20734307Y-13183804D01*
X20696279Y-13168013D01*
X20655102Y-13167977D01*
X20626723Y-13179703D01*
X20626723Y-12857302D01*
X20610998Y-12819246D01*
X20581907Y-12790104D01*
X20543879Y-12774313D01*
X20502702Y-12774277D01*
X20464646Y-12790002D01*
X20435504Y-12819093D01*
X20419713Y-12857121D01*
X20419677Y-12898298D01*
X20435402Y-12936354D01*
X20464493Y-12965496D01*
X20502521Y-12981287D01*
X20543698Y-12981323D01*
X20581754Y-12965598D01*
X20610896Y-12936507D01*
X20626687Y-12898479D01*
X20626723Y-12857302D01*
X20626723Y-13179703D01*
X20617046Y-13183702D01*
X20599395Y-13201322D01*
X20581907Y-13183804D01*
X20543879Y-13168013D01*
X20502702Y-13167977D01*
X20464646Y-13183702D01*
X20446995Y-13201322D01*
X20429507Y-13183804D01*
X20391479Y-13168013D01*
X20350302Y-13167977D01*
X20312246Y-13183702D01*
X20296523Y-13199397D01*
X20296523Y-12374702D01*
X20280798Y-12336646D01*
X20251707Y-12307504D01*
X20213679Y-12291713D01*
X20172502Y-12291677D01*
X20134446Y-12307402D01*
X20105304Y-12336493D01*
X20089513Y-12374521D01*
X20089477Y-12415698D01*
X20105202Y-12453754D01*
X20134293Y-12482896D01*
X20172321Y-12498687D01*
X20213498Y-12498723D01*
X20251554Y-12482998D01*
X20280696Y-12453907D01*
X20296487Y-12415879D01*
X20296523Y-12374702D01*
X20296523Y-13199397D01*
X20283104Y-13212793D01*
X20267313Y-13250821D01*
X20267277Y-13291998D01*
X20283002Y-13330054D01*
X20312093Y-13359196D01*
X20350121Y-13374987D01*
X20391298Y-13375023D01*
X20429354Y-13359298D01*
X20447005Y-13341678D01*
X20464493Y-13359196D01*
X20502521Y-13374987D01*
X20543698Y-13375023D01*
X20581754Y-13359298D01*
X20599405Y-13341678D01*
X20616893Y-13359196D01*
X20654921Y-13374987D01*
X20696098Y-13375023D01*
X20734154Y-13359298D01*
X20763296Y-13330207D01*
X20779087Y-13292179D01*
X20779123Y-13251002D01*
X20779123Y-13470174D01*
X20728910Y-13449324D01*
X20673334Y-13449276D01*
X20621970Y-13470499D01*
X20582637Y-13509763D01*
X20574005Y-13530551D01*
X20565501Y-13509970D01*
X20526237Y-13470637D01*
X20474910Y-13449324D01*
X20419334Y-13449276D01*
X20367970Y-13470499D01*
X20332589Y-13505818D01*
X20329246Y-13488588D01*
X20315267Y-13467307D01*
X20294164Y-13453062D01*
X20269200Y-13448056D01*
X20116800Y-13448056D01*
X20108203Y-13449724D01*
X20110498Y-13446324D01*
X20115504Y-13421360D01*
X20115504Y-13197840D01*
X20110806Y-13173628D01*
X20096827Y-13152347D01*
X20075724Y-13138102D01*
X20055223Y-13133991D01*
X20055223Y-12006402D01*
X20039498Y-11968346D01*
X20019061Y-11947872D01*
X20019061Y-11020021D01*
X19939000Y-10939961D01*
X19921040Y-10957921D01*
X19921040Y-10922000D01*
X19840979Y-10841939D01*
X19816760Y-10848886D01*
X19811749Y-10862932D01*
X19803501Y-10842970D01*
X19764237Y-10803637D01*
X19712910Y-10782324D01*
X19657334Y-10782276D01*
X19605970Y-10803499D01*
X19566637Y-10842763D01*
X19558005Y-10863551D01*
X19549501Y-10842970D01*
X19510237Y-10803637D01*
X19458910Y-10782324D01*
X19403334Y-10782276D01*
X19351970Y-10803499D01*
X19316589Y-10838818D01*
X19313246Y-10821588D01*
X19299267Y-10800307D01*
X19278164Y-10786062D01*
X19253200Y-10781056D01*
X19100800Y-10781056D01*
X19076588Y-10785754D01*
X19055307Y-10799733D01*
X19041062Y-10820836D01*
X19036056Y-10845800D01*
X19036056Y-10998200D01*
X19040754Y-11022412D01*
X19054733Y-11043693D01*
X19075836Y-11057938D01*
X19100800Y-11062944D01*
X19253200Y-11062944D01*
X19277412Y-11058246D01*
X19298693Y-11044267D01*
X19312938Y-11023164D01*
X19316560Y-11005099D01*
X19351763Y-11040363D01*
X19403090Y-11061676D01*
X19458666Y-11061724D01*
X19510030Y-11040501D01*
X19549363Y-11001237D01*
X19557995Y-10980449D01*
X19566499Y-11001030D01*
X19605763Y-11040363D01*
X19657090Y-11061676D01*
X19712666Y-11061724D01*
X19764030Y-11040501D01*
X19803363Y-11001237D01*
X19811339Y-10982027D01*
X19816760Y-10995114D01*
X19840979Y-11002061D01*
X19921040Y-10922000D01*
X19921040Y-10957921D01*
X19858939Y-11020021D01*
X19865886Y-11044240D01*
X19918230Y-11062914D01*
X19973737Y-11060136D01*
X20012114Y-11044240D01*
X20019061Y-11020021D01*
X20019061Y-11947872D01*
X20010407Y-11939204D01*
X19972379Y-11923413D01*
X19931202Y-11923377D01*
X19893146Y-11939102D01*
X19864004Y-11968193D01*
X19848213Y-12006221D01*
X19848177Y-12047398D01*
X19863902Y-12085454D01*
X19892993Y-12114596D01*
X19931021Y-12130387D01*
X19972198Y-12130423D01*
X20010254Y-12114698D01*
X20039396Y-12085607D01*
X20055187Y-12047579D01*
X20055223Y-12006402D01*
X20055223Y-13133991D01*
X20050760Y-13133096D01*
X19827240Y-13133096D01*
X19803028Y-13137794D01*
X19781747Y-13151773D01*
X19773893Y-13163408D01*
X19769766Y-13157126D01*
X19780298Y-13141524D01*
X19785304Y-13116560D01*
X19785304Y-12893040D01*
X19780606Y-12868828D01*
X19766627Y-12847547D01*
X19745524Y-12833302D01*
X19720560Y-12828296D01*
X19497040Y-12828296D01*
X19472828Y-12832994D01*
X19451547Y-12846973D01*
X19437302Y-12868076D01*
X19432296Y-12893040D01*
X19432296Y-13116560D01*
X19436994Y-13140772D01*
X19447834Y-13157274D01*
X19443693Y-13163408D01*
X19436427Y-13152347D01*
X19415324Y-13138102D01*
X19390360Y-13133096D01*
X19166840Y-13133096D01*
X19142628Y-13137794D01*
X19121347Y-13151773D01*
X19107102Y-13172876D01*
X19102096Y-13197840D01*
X19102096Y-13421360D01*
X19106794Y-13445572D01*
X19108425Y-13448056D01*
X19100800Y-13448056D01*
X19076588Y-13452754D01*
X19063944Y-13461059D01*
X19063944Y-11938000D01*
X19063944Y-11785600D01*
X19059246Y-11761388D01*
X19045267Y-11740107D01*
X19024164Y-11725862D01*
X18999200Y-11720856D01*
X18846800Y-11720856D01*
X18822588Y-11725554D01*
X18801307Y-11739533D01*
X18787062Y-11760636D01*
X18782056Y-11785600D01*
X18782056Y-11938000D01*
X18786754Y-11962212D01*
X18800733Y-11983493D01*
X18821836Y-11997738D01*
X18839901Y-12001360D01*
X18804637Y-12036563D01*
X18783324Y-12087890D01*
X18783276Y-12143466D01*
X18804499Y-12194830D01*
X18843763Y-12234163D01*
X18864551Y-12242795D01*
X18843970Y-12251299D01*
X18804637Y-12290563D01*
X18783324Y-12341890D01*
X18783276Y-12397466D01*
X18804499Y-12448830D01*
X18843763Y-12488163D01*
X18862973Y-12496139D01*
X18849886Y-12501560D01*
X18842939Y-12525779D01*
X18923000Y-12605839D01*
X19003061Y-12525779D01*
X18996114Y-12501560D01*
X18982068Y-12496549D01*
X19002030Y-12488301D01*
X19041363Y-12449037D01*
X19062676Y-12397710D01*
X19062724Y-12342134D01*
X19041501Y-12290770D01*
X19002237Y-12251437D01*
X18981449Y-12242805D01*
X19002030Y-12234301D01*
X19041363Y-12195037D01*
X19062676Y-12143710D01*
X19062724Y-12088134D01*
X19041501Y-12036770D01*
X19006182Y-12001389D01*
X19023412Y-11998046D01*
X19044693Y-11984067D01*
X19058938Y-11962964D01*
X19063944Y-11938000D01*
X19063944Y-13461059D01*
X19063914Y-13461079D01*
X19063914Y-12644570D01*
X19061136Y-12589063D01*
X19045240Y-12550686D01*
X19021021Y-12543739D01*
X18940961Y-12623800D01*
X19021021Y-12703861D01*
X19045240Y-12696914D01*
X19063914Y-12644570D01*
X19063914Y-13461079D01*
X19055307Y-13466733D01*
X19041062Y-13487836D01*
X19036056Y-13512800D01*
X19036056Y-13665200D01*
X19040754Y-13689412D01*
X19054733Y-13710693D01*
X19075836Y-13724938D01*
X19100800Y-13729944D01*
X19253200Y-13729944D01*
X19277412Y-13725246D01*
X19298693Y-13711267D01*
X19312938Y-13690164D01*
X19316560Y-13672099D01*
X19351763Y-13707363D01*
X19403090Y-13728676D01*
X19458666Y-13728724D01*
X19510030Y-13707501D01*
X19549363Y-13668237D01*
X19557995Y-13647449D01*
X19566499Y-13668030D01*
X19605763Y-13707363D01*
X19657090Y-13728676D01*
X19712666Y-13728724D01*
X19764030Y-13707501D01*
X19803363Y-13668237D01*
X19811339Y-13649027D01*
X19816760Y-13662114D01*
X19840979Y-13669061D01*
X19921040Y-13589000D01*
X19840979Y-13508939D01*
X19816760Y-13515886D01*
X19811749Y-13529932D01*
X19803501Y-13509970D01*
X19764237Y-13470637D01*
X19762356Y-13469856D01*
X19766053Y-13467427D01*
X19773907Y-13455792D01*
X19781173Y-13466853D01*
X19802276Y-13481098D01*
X19827240Y-13486104D01*
X19860337Y-13486104D01*
X19858939Y-13490979D01*
X19939000Y-13571039D01*
X20019061Y-13490979D01*
X20017663Y-13486104D01*
X20050760Y-13486104D01*
X20059357Y-13484436D01*
X20057062Y-13487836D01*
X20052056Y-13512800D01*
X20052056Y-13513251D01*
X20037021Y-13508939D01*
X19956961Y-13589000D01*
X20037021Y-13669061D01*
X20052056Y-13664748D01*
X20052056Y-13665200D01*
X20056754Y-13689412D01*
X20070733Y-13710693D01*
X20091836Y-13724938D01*
X20116800Y-13729944D01*
X20269200Y-13729944D01*
X20293412Y-13725246D01*
X20314693Y-13711267D01*
X20328938Y-13690164D01*
X20332560Y-13672099D01*
X20367763Y-13707363D01*
X20419090Y-13728676D01*
X20474666Y-13728724D01*
X20526030Y-13707501D01*
X20565363Y-13668237D01*
X20573995Y-13647449D01*
X20582499Y-13668030D01*
X20621763Y-13707363D01*
X20673090Y-13728676D01*
X20728666Y-13728724D01*
X20780030Y-13707501D01*
X20819363Y-13668237D01*
X20827995Y-13647449D01*
X20836499Y-13668030D01*
X20875763Y-13707363D01*
X20927090Y-13728676D01*
X20982666Y-13728724D01*
X21034030Y-13707501D01*
X21069411Y-13672182D01*
X21072754Y-13689412D01*
X21086733Y-13710693D01*
X21107836Y-13724938D01*
X21132800Y-13729944D01*
X21285200Y-13729944D01*
X21309412Y-13725246D01*
X21330693Y-13711267D01*
X21344938Y-13690164D01*
X21348560Y-13672099D01*
X21383763Y-13707363D01*
X21435090Y-13728676D01*
X21490666Y-13728724D01*
X21542030Y-13707501D01*
X21581363Y-13668237D01*
X21589995Y-13647449D01*
X21598499Y-13668030D01*
X21637763Y-13707363D01*
X21689090Y-13728676D01*
X21744666Y-13728724D01*
X21796030Y-13707501D01*
X21835363Y-13668237D01*
X21843995Y-13647449D01*
X21852499Y-13668030D01*
X21891763Y-13707363D01*
X21943090Y-13728676D01*
X21998666Y-13728724D01*
X22050030Y-13707501D01*
X22089363Y-13668237D01*
X22110676Y-13616910D01*
X22110700Y-13589065D01*
X22110700Y-13774547D01*
X20019061Y-13774547D01*
X20019061Y-13687021D01*
X19939000Y-13606960D01*
X19858939Y-13687021D01*
X19865886Y-13711240D01*
X19918230Y-13729914D01*
X19973737Y-13727136D01*
X20012114Y-13711240D01*
X20019061Y-13687021D01*
X20019061Y-13774547D01*
X19003061Y-13774547D01*
X19003061Y-12721821D01*
X18923000Y-12641760D01*
X18905040Y-12659721D01*
X18905040Y-12623800D01*
X18824979Y-12543739D01*
X18800760Y-12550686D01*
X18782086Y-12603030D01*
X18784864Y-12658537D01*
X18800760Y-12696914D01*
X18824979Y-12703861D01*
X18905040Y-12623800D01*
X18905040Y-12659721D01*
X18842939Y-12721821D01*
X18849886Y-12746040D01*
X18902230Y-12764714D01*
X18957737Y-12761936D01*
X18996114Y-12746040D01*
X19003061Y-12721821D01*
X19003061Y-13774547D01*
X18737453Y-13774547D01*
X18737453Y-10711053D01*
X19380200Y-10711053D01*
X22110700Y-10711053D01*
X22110700Y-10894275D01*
X22089501Y-10842970D01*
X22050237Y-10803637D01*
X21998910Y-10782324D01*
X21943334Y-10782276D01*
X21891970Y-10803499D01*
X21852637Y-10842763D01*
X21844005Y-10863551D01*
X21835501Y-10842970D01*
X21796237Y-10803637D01*
X21744910Y-10782324D01*
X21689334Y-10782276D01*
X21637970Y-10803499D01*
X21598637Y-10842763D01*
X21590005Y-10863551D01*
X21581501Y-10842970D01*
X21542237Y-10803637D01*
X21490910Y-10782324D01*
X21435334Y-10782276D01*
X21383970Y-10803499D01*
X21348589Y-10838818D01*
X21345246Y-10821588D01*
X21331267Y-10800307D01*
X21310164Y-10786062D01*
X21285200Y-10781056D01*
X21132800Y-10781056D01*
X21108588Y-10785754D01*
X21087307Y-10799733D01*
X21073062Y-10820836D01*
X21069440Y-10838901D01*
X21034237Y-10803637D01*
X20982910Y-10782324D01*
X20927334Y-10782276D01*
X20875970Y-10803499D01*
X20836637Y-10842763D01*
X20828005Y-10863551D01*
X20819501Y-10842970D01*
X20780237Y-10803637D01*
X20728910Y-10782324D01*
X20673334Y-10782276D01*
X20621970Y-10803499D01*
X20582637Y-10842763D01*
X20574005Y-10863551D01*
X20565501Y-10842970D01*
X20526237Y-10803637D01*
X20474910Y-10782324D01*
X20419334Y-10782276D01*
X20367970Y-10803499D01*
X20332589Y-10838818D01*
X20329246Y-10821588D01*
X20315267Y-10800307D01*
X20294164Y-10786062D01*
X20269200Y-10781056D01*
X20116800Y-10781056D01*
X20092588Y-10785754D01*
X20071307Y-10799733D01*
X20057062Y-10820836D01*
X20052056Y-10845800D01*
X20052056Y-10846252D01*
X20037021Y-10841939D01*
X20019061Y-10859900D01*
X20019061Y-10823979D01*
X20012114Y-10799760D01*
X19959770Y-10781086D01*
X19904263Y-10783864D01*
X19865886Y-10799760D01*
X19858939Y-10823979D01*
X19939000Y-10904040D01*
X20019061Y-10823979D01*
X20019061Y-10859900D01*
X19956961Y-10922000D01*
X20037021Y-11002061D01*
X20052056Y-10997748D01*
X20052056Y-10998200D01*
X20056754Y-11022412D01*
X20070733Y-11043693D01*
X20091836Y-11057938D01*
X20116800Y-11062944D01*
X20269200Y-11062944D01*
X20293412Y-11058246D01*
X20314693Y-11044267D01*
X20328938Y-11023164D01*
X20332560Y-11005099D01*
X20367763Y-11040363D01*
X20419090Y-11061676D01*
X20474666Y-11061724D01*
X20526030Y-11040501D01*
X20565363Y-11001237D01*
X20573995Y-10980449D01*
X20582499Y-11001030D01*
X20621763Y-11040363D01*
X20673090Y-11061676D01*
X20728666Y-11061724D01*
X20780030Y-11040501D01*
X20819363Y-11001237D01*
X20827995Y-10980449D01*
X20836499Y-11001030D01*
X20875763Y-11040363D01*
X20927090Y-11061676D01*
X20982666Y-11061724D01*
X21034030Y-11040501D01*
X21069411Y-11005182D01*
X21072754Y-11022412D01*
X21086733Y-11043693D01*
X21107836Y-11057938D01*
X21132800Y-11062944D01*
X21285200Y-11062944D01*
X21309412Y-11058246D01*
X21330693Y-11044267D01*
X21344938Y-11023164D01*
X21348560Y-11005099D01*
X21383763Y-11040363D01*
X21435090Y-11061676D01*
X21490666Y-11061724D01*
X21542030Y-11040501D01*
X21581363Y-11001237D01*
X21589995Y-10980449D01*
X21598499Y-11001030D01*
X21637763Y-11040363D01*
X21689090Y-11061676D01*
X21744666Y-11061724D01*
X21796030Y-11040501D01*
X21835363Y-11001237D01*
X21843995Y-10980449D01*
X21852499Y-11001030D01*
X21891763Y-11040363D01*
X21943090Y-11061676D01*
X21998666Y-11061724D01*
X22050030Y-11040501D01*
X22089363Y-11001237D01*
X22110676Y-10949910D01*
X22110700Y-10922065D01*
X22110700Y-11104528D01*
X22758400Y-11853828D01*
X22758400Y-12631890D01*
M02*
