G04 #@! TF.FileFunction,Soldermask,Bot*
%FSLAX45Y45*%
G04 Gerber Fmt 4.5, Leading zero omitted, Abs format (unit mm)*
G04 Created by KiCad (PCBNEW (after 2015-may-25 BZR unknown)-product) date 15/07/2015 13:23:27*
%MOMM*%
G01*
G04 APERTURE LIST*
%ADD10C,0.150000*%
%ADD11R,2.032000X2.032000*%
%ADD12C,2.032000*%
%ADD13C,2.506980*%
%ADD14R,2.743200X2.743200*%
G04 APERTURE END LIST*
D10*
D11*
X22987000Y-5257800D03*
D12*
X22987000Y-5511800D03*
X22987000Y-5765800D03*
X22987000Y-6019800D03*
D11*
X21209000Y-4318000D03*
D12*
X21463000Y-4318000D03*
X21717000Y-4318000D03*
X21971000Y-4318000D03*
D11*
X20193000Y-4318000D03*
D12*
X20447000Y-4318000D03*
X20701000Y-4318000D03*
X20955000Y-4318000D03*
D11*
X19177000Y-4318000D03*
D12*
X19431000Y-4318000D03*
X19685000Y-4318000D03*
X19939000Y-4318000D03*
D11*
X21209000Y-6985000D03*
D12*
X21463000Y-6985000D03*
X21717000Y-6985000D03*
X21971000Y-6985000D03*
D11*
X20193000Y-6985000D03*
D12*
X20447000Y-6985000D03*
X20701000Y-6985000D03*
X20955000Y-6985000D03*
D11*
X19177000Y-6985000D03*
D12*
X19431000Y-6985000D03*
X19685000Y-6985000D03*
X19939000Y-6985000D03*
D11*
X18923000Y-5257800D03*
D12*
X18923000Y-5511800D03*
X18923000Y-5765800D03*
X18923000Y-6019800D03*
D11*
X22987000Y-8559800D03*
D12*
X22987000Y-8813800D03*
X22987000Y-9067800D03*
X22987000Y-9321800D03*
D11*
X21209000Y-7620000D03*
D12*
X21463000Y-7620000D03*
X21717000Y-7620000D03*
X21971000Y-7620000D03*
D11*
X20193000Y-7620000D03*
D12*
X20447000Y-7620000D03*
X20701000Y-7620000D03*
X20955000Y-7620000D03*
D11*
X19177000Y-7620000D03*
D12*
X19431000Y-7620000D03*
X19685000Y-7620000D03*
X19939000Y-7620000D03*
D11*
X21209000Y-10287000D03*
D12*
X21463000Y-10287000D03*
X21717000Y-10287000D03*
X21971000Y-10287000D03*
D11*
X20193000Y-10287000D03*
D12*
X20447000Y-10287000D03*
X20701000Y-10287000D03*
X20955000Y-10287000D03*
D11*
X19177000Y-10287000D03*
D12*
X19431000Y-10287000D03*
X19685000Y-10287000D03*
X19939000Y-10287000D03*
D11*
X18923000Y-8559800D03*
D12*
X18923000Y-8813800D03*
X18923000Y-9067800D03*
X18923000Y-9321800D03*
D13*
X20764500Y-8699500D03*
X21018500Y-8699500D03*
X22034500Y-8699500D03*
X22542500Y-8699500D03*
X20764500Y-9334500D03*
X21018500Y-9334500D03*
X22034500Y-9334500D03*
X22542500Y-9334500D03*
D11*
X21209000Y-10922000D03*
D12*
X21463000Y-10922000D03*
X21717000Y-10922000D03*
X21971000Y-10922000D03*
D11*
X20193000Y-10922000D03*
D12*
X20447000Y-10922000D03*
X20701000Y-10922000D03*
X20955000Y-10922000D03*
D11*
X19177000Y-10922000D03*
D12*
X19431000Y-10922000D03*
X19685000Y-10922000D03*
X19939000Y-10922000D03*
D11*
X21209000Y-13589000D03*
D12*
X21463000Y-13589000D03*
X21717000Y-13589000D03*
X21971000Y-13589000D03*
D11*
X20193000Y-13589000D03*
D12*
X20447000Y-13589000D03*
X20701000Y-13589000D03*
X20955000Y-13589000D03*
D11*
X19177000Y-13589000D03*
D12*
X19431000Y-13589000D03*
X19685000Y-13589000D03*
X19939000Y-13589000D03*
D11*
X18923000Y-11861800D03*
D12*
X18923000Y-12115800D03*
X18923000Y-12369800D03*
X18923000Y-12623800D03*
D14*
X19939000Y-13309600D03*
X19608800Y-13309600D03*
X19278600Y-13309600D03*
X19608800Y-13004800D03*
M02*
