G04 #@! TF.FileFunction,Other,Comment*
%FSLAX45Y45*%
G04 Gerber Fmt 4.5, Leading zero omitted, Abs format (unit mm)*
G04 Created by KiCad (PCBNEW (after 2015-may-25 BZR unknown)-product) date 15/07/2015 13:23:27*
%MOMM*%
G01*
G04 APERTURE LIST*
%ADD10C,0.150000*%
%ADD11C,0.304800*%
%ADD12C,0.099060*%
%ADD13C,0.381000*%
G04 APERTURE END LIST*
D10*
D11*
X25959284Y-9557657D02*
X25959284Y-9528629D01*
X25949608Y-9514114D01*
X25939931Y-9506857D01*
X25910903Y-9492343D01*
X25872198Y-9485086D01*
X25794789Y-9485086D01*
X25775436Y-9492343D01*
X25765760Y-9499600D01*
X25756084Y-9514114D01*
X25756084Y-9543143D01*
X25765760Y-9557657D01*
X25775436Y-9564914D01*
X25794789Y-9572172D01*
X25843169Y-9572172D01*
X25862522Y-9564914D01*
X25872198Y-9557657D01*
X25881874Y-9543143D01*
X25881874Y-9514114D01*
X25872198Y-9499600D01*
X25862522Y-9492343D01*
X25843169Y-9485086D01*
X25843169Y-9398000D02*
X25833493Y-9412514D01*
X25823817Y-9419772D01*
X25804465Y-9427029D01*
X25794789Y-9427029D01*
X25775436Y-9419772D01*
X25765760Y-9412514D01*
X25756084Y-9398000D01*
X25756084Y-9368972D01*
X25765760Y-9354457D01*
X25775436Y-9347200D01*
X25794789Y-9339943D01*
X25804465Y-9339943D01*
X25823817Y-9347200D01*
X25833493Y-9354457D01*
X25843169Y-9368972D01*
X25843169Y-9398000D01*
X25852846Y-9412514D01*
X25862522Y-9419772D01*
X25881874Y-9427029D01*
X25920579Y-9427029D01*
X25939931Y-9419772D01*
X25949608Y-9412514D01*
X25959284Y-9398000D01*
X25959284Y-9368972D01*
X25949608Y-9354457D01*
X25939931Y-9347200D01*
X25920579Y-9339943D01*
X25881874Y-9339943D01*
X25862522Y-9347200D01*
X25852846Y-9354457D01*
X25843169Y-9368972D01*
X25949608Y-9267371D02*
X25959284Y-9267371D01*
X25978636Y-9274629D01*
X25988312Y-9281886D01*
X25756084Y-9173029D02*
X25756084Y-9158514D01*
X25765760Y-9144000D01*
X25775436Y-9136743D01*
X25794789Y-9129486D01*
X25833493Y-9122229D01*
X25881874Y-9122229D01*
X25920579Y-9129486D01*
X25939931Y-9136743D01*
X25949608Y-9144000D01*
X25959284Y-9158514D01*
X25959284Y-9173029D01*
X25949608Y-9187543D01*
X25939931Y-9194800D01*
X25920579Y-9202057D01*
X25881874Y-9209314D01*
X25833493Y-9209314D01*
X25794789Y-9202057D01*
X25775436Y-9194800D01*
X25765760Y-9187543D01*
X25756084Y-9173029D01*
X25823817Y-8991600D02*
X25959284Y-8991600D01*
X25746408Y-9027886D02*
X25891550Y-9064171D01*
X25891550Y-8969829D01*
X25823817Y-8846457D02*
X25959284Y-8846457D01*
X25746408Y-8882743D02*
X25891550Y-8919029D01*
X25891550Y-8824686D01*
X25959284Y-8650514D02*
X25823817Y-8650514D01*
X25843169Y-8650514D02*
X25833493Y-8643257D01*
X25823817Y-8628743D01*
X25823817Y-8606971D01*
X25833493Y-8592457D01*
X25852846Y-8585200D01*
X25959284Y-8585200D01*
X25852846Y-8585200D02*
X25833493Y-8577943D01*
X25823817Y-8563429D01*
X25823817Y-8541657D01*
X25833493Y-8527143D01*
X25852846Y-8519886D01*
X25959284Y-8519886D01*
X25959284Y-8447314D02*
X25823817Y-8447314D01*
X25843169Y-8447314D02*
X25833493Y-8440057D01*
X25823817Y-8425543D01*
X25823817Y-8403771D01*
X25833493Y-8389257D01*
X25852846Y-8382000D01*
X25959284Y-8382000D01*
X25852846Y-8382000D02*
X25833493Y-8374743D01*
X25823817Y-8360228D01*
X25823817Y-8338457D01*
X25833493Y-8323943D01*
X25852846Y-8316686D01*
X25959284Y-8316686D01*
X25704800Y-13843000D02*
X25704800Y-4038600D01*
X23241000Y-13843000D02*
X26029920Y-13843000D01*
X23241000Y-4038600D02*
X26029920Y-4038600D01*
X25704800Y-4038600D02*
X25763442Y-4151250D01*
X25704800Y-4038600D02*
X25646158Y-4151250D01*
X25704800Y-13843000D02*
X25763442Y-13730350D01*
X25704800Y-13843000D02*
X25646158Y-13730350D01*
X24920303Y-6277429D02*
X24920303Y-6183086D01*
X24978360Y-6233886D01*
X24978360Y-6212114D01*
X24985617Y-6197600D01*
X24992874Y-6190343D01*
X25007388Y-6183086D01*
X25043674Y-6183086D01*
X25058188Y-6190343D01*
X25065446Y-6197600D01*
X25072703Y-6212114D01*
X25072703Y-6255657D01*
X25065446Y-6270171D01*
X25058188Y-6277429D01*
X24934817Y-6125029D02*
X24927560Y-6117771D01*
X24920303Y-6103257D01*
X24920303Y-6066971D01*
X24927560Y-6052457D01*
X24934817Y-6045200D01*
X24949331Y-6037943D01*
X24963846Y-6037943D01*
X24985617Y-6045200D01*
X25072703Y-6132286D01*
X25072703Y-6037943D01*
X25065446Y-5965371D02*
X25072703Y-5965371D01*
X25087217Y-5972629D01*
X25094474Y-5979886D01*
X24920303Y-5871029D02*
X24920303Y-5856514D01*
X24927560Y-5842000D01*
X24934817Y-5834743D01*
X24949331Y-5827486D01*
X24978360Y-5820229D01*
X25014646Y-5820229D01*
X25043674Y-5827486D01*
X25058188Y-5834743D01*
X25065446Y-5842000D01*
X25072703Y-5856514D01*
X25072703Y-5871029D01*
X25065446Y-5885543D01*
X25058188Y-5892800D01*
X25043674Y-5900057D01*
X25014646Y-5907314D01*
X24978360Y-5907314D01*
X24949331Y-5900057D01*
X24934817Y-5892800D01*
X24927560Y-5885543D01*
X24920303Y-5871029D01*
X24920303Y-5725886D02*
X24920303Y-5711371D01*
X24927560Y-5696857D01*
X24934817Y-5689600D01*
X24949331Y-5682343D01*
X24978360Y-5675086D01*
X25014646Y-5675086D01*
X25043674Y-5682343D01*
X25058188Y-5689600D01*
X25065446Y-5696857D01*
X25072703Y-5711371D01*
X25072703Y-5725886D01*
X25065446Y-5740400D01*
X25058188Y-5747657D01*
X25043674Y-5754914D01*
X25014646Y-5762171D01*
X24978360Y-5762171D01*
X24949331Y-5754914D01*
X24934817Y-5747657D01*
X24927560Y-5740400D01*
X24920303Y-5725886D01*
X24971103Y-5544457D02*
X25072703Y-5544457D01*
X24913046Y-5580743D02*
X25021903Y-5617028D01*
X25021903Y-5522686D01*
X25072703Y-5348514D02*
X24971103Y-5348514D01*
X24985617Y-5348514D02*
X24978360Y-5341257D01*
X24971103Y-5326743D01*
X24971103Y-5304971D01*
X24978360Y-5290457D01*
X24992874Y-5283200D01*
X25072703Y-5283200D01*
X24992874Y-5283200D02*
X24978360Y-5275943D01*
X24971103Y-5261429D01*
X24971103Y-5239657D01*
X24978360Y-5225143D01*
X24992874Y-5217886D01*
X25072703Y-5217886D01*
X25072703Y-5145314D02*
X24971103Y-5145314D01*
X24985617Y-5145314D02*
X24978360Y-5138057D01*
X24971103Y-5123543D01*
X24971103Y-5101771D01*
X24978360Y-5087257D01*
X24992874Y-5080000D01*
X25072703Y-5080000D01*
X24992874Y-5080000D02*
X24978360Y-5072743D01*
X24971103Y-5058229D01*
X24971103Y-5036457D01*
X24978360Y-5021943D01*
X24992874Y-5014686D01*
X25072703Y-5014686D01*
X24866600Y-7239000D02*
X24866600Y-4038600D01*
X23241000Y-7239000D02*
X25140920Y-7239000D01*
X23241000Y-4038600D02*
X25140920Y-4038600D01*
X24866600Y-4038600D02*
X24925242Y-4151250D01*
X24866600Y-4038600D02*
X24807958Y-4151250D01*
X24866600Y-7239000D02*
X24925242Y-7126350D01*
X24866600Y-7239000D02*
X24807958Y-7126350D01*
X20396200Y-2624183D02*
X20396200Y-2725783D01*
X20359914Y-2566126D02*
X20323629Y-2674983D01*
X20417971Y-2674983D01*
X20548600Y-2573383D02*
X20476029Y-2573383D01*
X20468771Y-2645954D01*
X20476029Y-2638697D01*
X20490543Y-2631440D01*
X20526829Y-2631440D01*
X20541343Y-2638697D01*
X20548600Y-2645954D01*
X20555857Y-2660469D01*
X20555857Y-2696754D01*
X20548600Y-2711269D01*
X20541343Y-2718526D01*
X20526829Y-2725783D01*
X20490543Y-2725783D01*
X20476029Y-2718526D01*
X20468771Y-2711269D01*
X20628429Y-2718526D02*
X20628429Y-2725783D01*
X20621171Y-2740297D01*
X20613914Y-2747554D01*
X20679229Y-2573383D02*
X20780829Y-2573383D01*
X20715514Y-2725783D01*
X20831629Y-2587897D02*
X20838886Y-2580640D01*
X20853400Y-2573383D01*
X20889686Y-2573383D01*
X20904200Y-2580640D01*
X20911457Y-2587897D01*
X20918714Y-2602411D01*
X20918714Y-2616926D01*
X20911457Y-2638697D01*
X20824371Y-2725783D01*
X20918714Y-2725783D01*
X21013057Y-2573383D02*
X21027572Y-2573383D01*
X21042086Y-2580640D01*
X21049343Y-2587897D01*
X21056600Y-2602411D01*
X21063857Y-2631440D01*
X21063857Y-2667726D01*
X21056600Y-2696754D01*
X21049343Y-2711269D01*
X21042086Y-2718526D01*
X21027572Y-2725783D01*
X21013057Y-2725783D01*
X20998543Y-2718526D01*
X20991286Y-2711269D01*
X20984029Y-2696754D01*
X20976772Y-2667726D01*
X20976772Y-2631440D01*
X20984029Y-2602411D01*
X20991286Y-2587897D01*
X20998543Y-2580640D01*
X21013057Y-2573383D01*
X21245286Y-2725783D02*
X21245286Y-2624183D01*
X21245286Y-2638697D02*
X21252543Y-2631440D01*
X21267057Y-2624183D01*
X21288829Y-2624183D01*
X21303343Y-2631440D01*
X21310600Y-2645954D01*
X21310600Y-2725783D01*
X21310600Y-2645954D02*
X21317857Y-2631440D01*
X21332372Y-2624183D01*
X21354143Y-2624183D01*
X21368657Y-2631440D01*
X21375914Y-2645954D01*
X21375914Y-2725783D01*
X21448486Y-2725783D02*
X21448486Y-2624183D01*
X21448486Y-2638697D02*
X21455743Y-2631440D01*
X21470257Y-2624183D01*
X21492029Y-2624183D01*
X21506543Y-2631440D01*
X21513800Y-2645954D01*
X21513800Y-2725783D01*
X21513800Y-2645954D02*
X21521057Y-2631440D01*
X21535572Y-2624183D01*
X21557343Y-2624183D01*
X21571857Y-2631440D01*
X21579114Y-2645954D01*
X21579114Y-2725783D01*
X18669000Y-2794000D02*
X23241000Y-2794000D01*
X18669000Y-4038600D02*
X18669000Y-2519680D01*
X23241000Y-4038600D02*
X23241000Y-2519680D01*
X23241000Y-2794000D02*
X23128350Y-2852642D01*
X23241000Y-2794000D02*
X23128350Y-2735358D01*
X18669000Y-2794000D02*
X18781650Y-2852642D01*
X18669000Y-2794000D02*
X18781650Y-2735358D01*
X23790003Y-7509329D02*
X23891603Y-7509329D01*
X23731946Y-7545614D02*
X23840803Y-7581900D01*
X23840803Y-7487557D01*
X23884346Y-7422243D02*
X23891603Y-7422243D01*
X23906117Y-7429500D01*
X23913374Y-7436757D01*
X23739203Y-7371443D02*
X23739203Y-7277100D01*
X23797260Y-7327900D01*
X23797260Y-7306129D01*
X23804517Y-7291614D01*
X23811774Y-7284357D01*
X23826288Y-7277100D01*
X23862574Y-7277100D01*
X23877088Y-7284357D01*
X23884346Y-7291614D01*
X23891603Y-7306129D01*
X23891603Y-7349671D01*
X23884346Y-7364186D01*
X23877088Y-7371443D01*
X23891603Y-7131957D02*
X23891603Y-7219043D01*
X23891603Y-7175500D02*
X23739203Y-7175500D01*
X23760974Y-7190014D01*
X23775488Y-7204528D01*
X23782746Y-7219043D01*
X23804517Y-7044871D02*
X23797260Y-7059386D01*
X23790003Y-7066643D01*
X23775488Y-7073900D01*
X23768231Y-7073900D01*
X23753717Y-7066643D01*
X23746460Y-7059386D01*
X23739203Y-7044871D01*
X23739203Y-7015843D01*
X23746460Y-7001328D01*
X23753717Y-6994071D01*
X23768231Y-6986814D01*
X23775488Y-6986814D01*
X23790003Y-6994071D01*
X23797260Y-7001328D01*
X23804517Y-7015843D01*
X23804517Y-7044871D01*
X23811774Y-7059386D01*
X23819031Y-7066643D01*
X23833546Y-7073900D01*
X23862574Y-7073900D01*
X23877088Y-7066643D01*
X23884346Y-7059386D01*
X23891603Y-7044871D01*
X23891603Y-7015843D01*
X23884346Y-7001328D01*
X23877088Y-6994071D01*
X23862574Y-6986814D01*
X23833546Y-6986814D01*
X23819031Y-6994071D01*
X23811774Y-7001328D01*
X23804517Y-7015843D01*
X23891603Y-6805386D02*
X23790003Y-6805386D01*
X23804517Y-6805386D02*
X23797260Y-6798128D01*
X23790003Y-6783614D01*
X23790003Y-6761843D01*
X23797260Y-6747328D01*
X23811774Y-6740071D01*
X23891603Y-6740071D01*
X23811774Y-6740071D02*
X23797260Y-6732814D01*
X23790003Y-6718300D01*
X23790003Y-6696528D01*
X23797260Y-6682014D01*
X23811774Y-6674757D01*
X23891603Y-6674757D01*
X23891603Y-6602186D02*
X23790003Y-6602186D01*
X23804517Y-6602186D02*
X23797260Y-6594928D01*
X23790003Y-6580414D01*
X23790003Y-6558643D01*
X23797260Y-6544128D01*
X23811774Y-6536871D01*
X23891603Y-6536871D01*
X23811774Y-6536871D02*
X23797260Y-6529614D01*
X23790003Y-6515100D01*
X23790003Y-6493328D01*
X23797260Y-6478814D01*
X23811774Y-6471557D01*
X23891603Y-6471557D01*
X23685500Y-7239000D02*
X23685500Y-6807200D01*
X23241000Y-7239000D02*
X23959820Y-7239000D01*
X23241000Y-6807200D02*
X23959820Y-6807200D01*
X23685500Y-6807200D02*
X23744142Y-6919850D01*
X23685500Y-6807200D02*
X23626858Y-6919850D01*
X23685500Y-7239000D02*
X23744142Y-7126350D01*
X23685500Y-7239000D02*
X23626858Y-7126350D01*
X23944217Y-3768271D02*
X23842617Y-3768271D01*
X24002274Y-3731986D02*
X23893417Y-3695700D01*
X23893417Y-3790043D01*
X23849874Y-3855357D02*
X23842617Y-3855357D01*
X23828103Y-3848100D01*
X23820846Y-3840843D01*
X23995017Y-3906157D02*
X23995017Y-4000500D01*
X23936960Y-3949700D01*
X23936960Y-3971471D01*
X23929703Y-3985986D01*
X23922446Y-3993243D01*
X23907931Y-4000500D01*
X23871646Y-4000500D01*
X23857131Y-3993243D01*
X23849874Y-3985986D01*
X23842617Y-3971471D01*
X23842617Y-3927929D01*
X23849874Y-3913414D01*
X23857131Y-3906157D01*
X23842617Y-4145643D02*
X23842617Y-4058557D01*
X23842617Y-4102100D02*
X23995017Y-4102100D01*
X23973246Y-4087586D01*
X23958731Y-4073071D01*
X23951474Y-4058557D01*
X23929703Y-4232729D02*
X23936960Y-4218214D01*
X23944217Y-4210957D01*
X23958731Y-4203700D01*
X23965988Y-4203700D01*
X23980503Y-4210957D01*
X23987760Y-4218214D01*
X23995017Y-4232729D01*
X23995017Y-4261757D01*
X23987760Y-4276272D01*
X23980503Y-4283529D01*
X23965988Y-4290786D01*
X23958731Y-4290786D01*
X23944217Y-4283529D01*
X23936960Y-4276272D01*
X23929703Y-4261757D01*
X23929703Y-4232729D01*
X23922446Y-4218214D01*
X23915188Y-4210957D01*
X23900674Y-4203700D01*
X23871646Y-4203700D01*
X23857131Y-4210957D01*
X23849874Y-4218214D01*
X23842617Y-4232729D01*
X23842617Y-4261757D01*
X23849874Y-4276272D01*
X23857131Y-4283529D01*
X23871646Y-4290786D01*
X23900674Y-4290786D01*
X23915188Y-4283529D01*
X23922446Y-4276272D01*
X23929703Y-4261757D01*
X23842617Y-4472214D02*
X23944217Y-4472214D01*
X23929703Y-4472214D02*
X23936960Y-4479472D01*
X23944217Y-4493986D01*
X23944217Y-4515757D01*
X23936960Y-4530272D01*
X23922446Y-4537529D01*
X23842617Y-4537529D01*
X23922446Y-4537529D02*
X23936960Y-4544786D01*
X23944217Y-4559300D01*
X23944217Y-4581072D01*
X23936960Y-4595586D01*
X23922446Y-4602843D01*
X23842617Y-4602843D01*
X23842617Y-4675414D02*
X23944217Y-4675414D01*
X23929703Y-4675414D02*
X23936960Y-4682672D01*
X23944217Y-4697186D01*
X23944217Y-4718957D01*
X23936960Y-4733472D01*
X23922446Y-4740729D01*
X23842617Y-4740729D01*
X23922446Y-4740729D02*
X23936960Y-4747986D01*
X23944217Y-4762500D01*
X23944217Y-4784272D01*
X23936960Y-4798786D01*
X23922446Y-4806043D01*
X23842617Y-4806043D01*
X23774400Y-4038600D02*
X23774400Y-4470400D01*
X23241000Y-4038600D02*
X24048720Y-4038600D01*
X23241000Y-4470400D02*
X24048720Y-4470400D01*
X23774400Y-4470400D02*
X23715758Y-4357750D01*
X23774400Y-4470400D02*
X23833042Y-4357750D01*
X23774400Y-4038600D02*
X23715758Y-4151250D01*
X23774400Y-4038600D02*
X23833042Y-4151250D01*
X22538871Y-3309983D02*
X22538871Y-3411583D01*
X22502586Y-3251926D02*
X22466300Y-3360783D01*
X22560643Y-3360783D01*
X22625957Y-3404326D02*
X22625957Y-3411583D01*
X22618700Y-3426097D01*
X22611443Y-3433354D01*
X22676757Y-3259183D02*
X22771100Y-3259183D01*
X22720300Y-3317240D01*
X22742071Y-3317240D01*
X22756586Y-3324497D01*
X22763843Y-3331754D01*
X22771100Y-3346269D01*
X22771100Y-3382554D01*
X22763843Y-3397069D01*
X22756586Y-3404326D01*
X22742071Y-3411583D01*
X22698529Y-3411583D01*
X22684014Y-3404326D01*
X22676757Y-3397069D01*
X22916243Y-3411583D02*
X22829157Y-3411583D01*
X22872700Y-3411583D02*
X22872700Y-3259183D01*
X22858186Y-3280954D01*
X22843671Y-3295469D01*
X22829157Y-3302726D01*
X23003329Y-3324497D02*
X22988814Y-3317240D01*
X22981557Y-3309983D01*
X22974300Y-3295469D01*
X22974300Y-3288211D01*
X22981557Y-3273697D01*
X22988814Y-3266440D01*
X23003329Y-3259183D01*
X23032357Y-3259183D01*
X23046871Y-3266440D01*
X23054129Y-3273697D01*
X23061386Y-3288211D01*
X23061386Y-3295469D01*
X23054129Y-3309983D01*
X23046871Y-3317240D01*
X23032357Y-3324497D01*
X23003329Y-3324497D01*
X22988814Y-3331754D01*
X22981557Y-3339011D01*
X22974300Y-3353526D01*
X22974300Y-3382554D01*
X22981557Y-3397069D01*
X22988814Y-3404326D01*
X23003329Y-3411583D01*
X23032357Y-3411583D01*
X23046871Y-3404326D01*
X23054129Y-3397069D01*
X23061386Y-3382554D01*
X23061386Y-3353526D01*
X23054129Y-3339011D01*
X23046871Y-3331754D01*
X23032357Y-3324497D01*
X23242814Y-3411583D02*
X23242814Y-3309983D01*
X23242814Y-3324497D02*
X23250072Y-3317240D01*
X23264586Y-3309983D01*
X23286357Y-3309983D01*
X23300872Y-3317240D01*
X23308129Y-3331754D01*
X23308129Y-3411583D01*
X23308129Y-3331754D02*
X23315386Y-3317240D01*
X23329900Y-3309983D01*
X23351672Y-3309983D01*
X23366186Y-3317240D01*
X23373443Y-3331754D01*
X23373443Y-3411583D01*
X23446014Y-3411583D02*
X23446014Y-3309983D01*
X23446014Y-3324497D02*
X23453272Y-3317240D01*
X23467786Y-3309983D01*
X23489557Y-3309983D01*
X23504072Y-3317240D01*
X23511329Y-3331754D01*
X23511329Y-3411583D01*
X23511329Y-3331754D02*
X23518586Y-3317240D01*
X23533100Y-3309983D01*
X23554872Y-3309983D01*
X23569386Y-3317240D01*
X23576643Y-3331754D01*
X23576643Y-3411583D01*
X23241000Y-3479800D02*
X22809200Y-3479800D01*
X23241000Y-4038600D02*
X23241000Y-3205480D01*
X22809200Y-4038600D02*
X22809200Y-3205480D01*
X22809200Y-3479800D02*
X22921850Y-3421158D01*
X22809200Y-3479800D02*
X22921850Y-3538442D01*
X23241000Y-3479800D02*
X23128350Y-3421158D01*
X23241000Y-3479800D02*
X23128350Y-3538442D01*
D12*
X17214336Y-4112079D02*
X17214336Y-4026299D01*
X17214336Y-4069189D02*
X17414234Y-4069189D01*
X17385677Y-4054892D01*
X17366639Y-4040596D01*
X17357120Y-4026299D01*
X17395196Y-4169265D02*
X17404715Y-4176413D01*
X17414234Y-4190710D01*
X17414234Y-4226451D01*
X17404715Y-4240748D01*
X17395196Y-4247896D01*
X17376158Y-4255044D01*
X17357120Y-4255044D01*
X17328563Y-4247896D01*
X17214336Y-4162117D01*
X17214336Y-4255044D01*
X17223855Y-4326527D02*
X17214336Y-4326527D01*
X17195298Y-4319379D01*
X17185779Y-4312231D01*
X17214336Y-4469493D02*
X17214336Y-4383713D01*
X17214336Y-4426603D02*
X17414234Y-4426603D01*
X17385677Y-4412307D01*
X17366639Y-4398010D01*
X17357120Y-4383713D01*
X17214336Y-4540976D02*
X17214336Y-4569569D01*
X17223855Y-4583865D01*
X17233374Y-4591014D01*
X17261931Y-4605310D01*
X17300007Y-4612459D01*
X17376158Y-4612459D01*
X17395196Y-4605310D01*
X17404715Y-4598162D01*
X17414234Y-4583865D01*
X17414234Y-4555272D01*
X17404715Y-4540976D01*
X17395196Y-4533827D01*
X17376158Y-4526679D01*
X17328563Y-4526679D01*
X17309526Y-4533827D01*
X17300007Y-4540976D01*
X17290488Y-4555272D01*
X17290488Y-4583865D01*
X17300007Y-4598162D01*
X17309526Y-4605310D01*
X17328563Y-4612459D01*
X17395196Y-4669645D02*
X17404715Y-4676793D01*
X17414234Y-4691090D01*
X17414234Y-4726831D01*
X17404715Y-4741128D01*
X17395196Y-4748276D01*
X17376158Y-4755424D01*
X17357120Y-4755424D01*
X17328563Y-4748276D01*
X17214336Y-4662497D01*
X17214336Y-4755424D01*
X17214336Y-4934131D02*
X17347601Y-4934131D01*
X17328563Y-4934131D02*
X17338082Y-4941280D01*
X17347601Y-4955576D01*
X17347601Y-4977021D01*
X17338082Y-4991318D01*
X17319044Y-4998466D01*
X17214336Y-4998466D01*
X17319044Y-4998466D02*
X17338082Y-5005614D01*
X17347601Y-5019911D01*
X17347601Y-5041356D01*
X17338082Y-5055652D01*
X17319044Y-5062801D01*
X17214336Y-5062801D01*
X17214336Y-5134283D02*
X17347601Y-5134283D01*
X17328563Y-5134283D02*
X17338082Y-5141432D01*
X17347601Y-5155728D01*
X17347601Y-5177173D01*
X17338082Y-5191470D01*
X17319044Y-5198618D01*
X17214336Y-5198618D01*
X17319044Y-5198618D02*
X17338082Y-5205766D01*
X17347601Y-5220063D01*
X17347601Y-5241508D01*
X17338082Y-5255804D01*
X17319044Y-5262953D01*
X17214336Y-5262953D01*
X17424654Y-4038600D02*
X17424654Y-5257800D01*
X18669000Y-4038600D02*
X17185132Y-4038600D01*
X18669000Y-5257800D02*
X17185132Y-5257800D01*
X17424654Y-5257800D02*
X17366234Y-5145278D01*
X17424654Y-5257800D02*
X17483074Y-5145278D01*
X17424654Y-4038600D02*
X17366234Y-4151122D01*
X17424654Y-4038600D02*
X17483074Y-4151122D01*
X17521942Y-7165521D02*
X17521942Y-7251301D01*
X17521942Y-7208411D02*
X17322044Y-7208411D01*
X17350601Y-7222708D01*
X17369639Y-7237004D01*
X17379158Y-7251301D01*
X17341082Y-7108335D02*
X17331563Y-7101187D01*
X17322044Y-7086890D01*
X17322044Y-7051149D01*
X17331563Y-7036852D01*
X17341082Y-7029704D01*
X17360120Y-7022556D01*
X17379158Y-7022556D01*
X17407715Y-7029704D01*
X17521942Y-7115483D01*
X17521942Y-7022556D01*
X17512423Y-6951073D02*
X17521942Y-6951073D01*
X17540980Y-6958221D01*
X17550499Y-6965369D01*
X17521942Y-6808107D02*
X17521942Y-6893887D01*
X17521942Y-6850997D02*
X17322044Y-6850997D01*
X17350601Y-6865293D01*
X17369639Y-6879590D01*
X17379158Y-6893887D01*
X17521942Y-6736624D02*
X17521942Y-6708031D01*
X17512423Y-6693735D01*
X17502904Y-6686586D01*
X17474347Y-6672290D01*
X17436272Y-6665141D01*
X17360120Y-6665141D01*
X17341082Y-6672290D01*
X17331563Y-6679438D01*
X17322044Y-6693735D01*
X17322044Y-6722328D01*
X17331563Y-6736624D01*
X17341082Y-6743773D01*
X17360120Y-6750921D01*
X17407715Y-6750921D01*
X17426753Y-6743773D01*
X17436272Y-6736624D01*
X17445790Y-6722328D01*
X17445790Y-6693735D01*
X17436272Y-6679438D01*
X17426753Y-6672290D01*
X17407715Y-6665141D01*
X17341082Y-6607955D02*
X17331563Y-6600807D01*
X17322044Y-6586510D01*
X17322044Y-6550769D01*
X17331563Y-6536472D01*
X17341082Y-6529324D01*
X17360120Y-6522176D01*
X17379158Y-6522176D01*
X17407715Y-6529324D01*
X17521942Y-6615103D01*
X17521942Y-6522176D01*
X17521942Y-6343469D02*
X17388677Y-6343469D01*
X17407715Y-6343469D02*
X17398196Y-6336320D01*
X17388677Y-6322024D01*
X17388677Y-6300579D01*
X17398196Y-6286282D01*
X17417234Y-6279134D01*
X17521942Y-6279134D01*
X17417234Y-6279134D02*
X17398196Y-6271986D01*
X17388677Y-6257689D01*
X17388677Y-6236244D01*
X17398196Y-6221948D01*
X17417234Y-6214799D01*
X17521942Y-6214799D01*
X17521942Y-6143317D02*
X17388677Y-6143317D01*
X17407715Y-6143317D02*
X17398196Y-6136168D01*
X17388677Y-6121872D01*
X17388677Y-6100427D01*
X17398196Y-6086130D01*
X17417234Y-6078982D01*
X17521942Y-6078982D01*
X17417234Y-6078982D02*
X17398196Y-6071834D01*
X17388677Y-6057537D01*
X17388677Y-6036092D01*
X17398196Y-6021796D01*
X17417234Y-6014647D01*
X17521942Y-6014647D01*
X17551400Y-7239000D02*
X17551400Y-6019800D01*
X18669000Y-7239000D02*
X17311878Y-7239000D01*
X18669000Y-6019800D02*
X17311878Y-6019800D01*
X17551400Y-6019800D02*
X17609820Y-6132322D01*
X17551400Y-6019800D02*
X17492980Y-6132322D01*
X17551400Y-7239000D02*
X17609820Y-7126478D01*
X17551400Y-7239000D02*
X17492980Y-7126478D01*
X24184350Y-6093279D02*
X24184350Y-6007499D01*
X24184350Y-6050389D02*
X24384248Y-6050389D01*
X24355691Y-6036092D01*
X24336653Y-6021796D01*
X24327134Y-6007499D01*
X24365210Y-6150465D02*
X24374729Y-6157613D01*
X24384248Y-6171910D01*
X24384248Y-6207651D01*
X24374729Y-6221948D01*
X24365210Y-6229096D01*
X24346172Y-6236244D01*
X24327134Y-6236244D01*
X24298577Y-6229096D01*
X24184350Y-6143317D01*
X24184350Y-6236244D01*
X24193869Y-6307727D02*
X24184350Y-6307727D01*
X24165312Y-6300579D01*
X24155793Y-6293430D01*
X24184350Y-6450693D02*
X24184350Y-6364913D01*
X24184350Y-6407803D02*
X24384248Y-6407803D01*
X24355691Y-6393507D01*
X24336653Y-6379210D01*
X24327134Y-6364913D01*
X24184350Y-6522176D02*
X24184350Y-6550769D01*
X24193869Y-6565065D01*
X24203388Y-6572214D01*
X24231945Y-6586510D01*
X24270020Y-6593659D01*
X24346172Y-6593659D01*
X24365210Y-6586510D01*
X24374729Y-6579362D01*
X24384248Y-6565065D01*
X24384248Y-6536472D01*
X24374729Y-6522176D01*
X24365210Y-6515027D01*
X24346172Y-6507879D01*
X24298577Y-6507879D01*
X24279539Y-6515027D01*
X24270020Y-6522176D01*
X24260502Y-6536472D01*
X24260502Y-6565065D01*
X24270020Y-6579362D01*
X24279539Y-6586510D01*
X24298577Y-6593659D01*
X24365210Y-6650845D02*
X24374729Y-6657993D01*
X24384248Y-6672290D01*
X24384248Y-6708031D01*
X24374729Y-6722328D01*
X24365210Y-6729476D01*
X24346172Y-6736624D01*
X24327134Y-6736624D01*
X24298577Y-6729476D01*
X24184350Y-6643697D01*
X24184350Y-6736624D01*
X24184350Y-6915331D02*
X24317615Y-6915331D01*
X24298577Y-6915331D02*
X24308096Y-6922480D01*
X24317615Y-6936776D01*
X24317615Y-6958221D01*
X24308096Y-6972518D01*
X24289058Y-6979666D01*
X24184350Y-6979666D01*
X24289058Y-6979666D02*
X24308096Y-6986814D01*
X24317615Y-7001111D01*
X24317615Y-7022556D01*
X24308096Y-7036852D01*
X24289058Y-7044001D01*
X24184350Y-7044001D01*
X24184350Y-7115483D02*
X24317615Y-7115483D01*
X24298577Y-7115483D02*
X24308096Y-7122632D01*
X24317615Y-7136928D01*
X24317615Y-7158373D01*
X24308096Y-7172670D01*
X24289058Y-7179818D01*
X24184350Y-7179818D01*
X24289058Y-7179818D02*
X24308096Y-7186966D01*
X24317615Y-7201263D01*
X24317615Y-7222708D01*
X24308096Y-7237004D01*
X24289058Y-7244153D01*
X24184350Y-7244153D01*
X24155146Y-6019800D02*
X24155146Y-7239000D01*
X23241000Y-6019800D02*
X24394668Y-6019800D01*
X23241000Y-7239000D02*
X24394668Y-7239000D01*
X24155146Y-7239000D02*
X24096726Y-7126478D01*
X24155146Y-7239000D02*
X24213566Y-7126478D01*
X24155146Y-6019800D02*
X24096726Y-6132322D01*
X24155146Y-6019800D02*
X24213566Y-6132322D01*
X24184350Y-4112079D02*
X24184350Y-4026299D01*
X24184350Y-4069189D02*
X24384248Y-4069189D01*
X24355691Y-4054892D01*
X24336653Y-4040596D01*
X24327134Y-4026299D01*
X24365210Y-4169265D02*
X24374729Y-4176413D01*
X24384248Y-4190710D01*
X24384248Y-4226451D01*
X24374729Y-4240748D01*
X24365210Y-4247896D01*
X24346172Y-4255044D01*
X24327134Y-4255044D01*
X24298577Y-4247896D01*
X24184350Y-4162117D01*
X24184350Y-4255044D01*
X24193869Y-4326527D02*
X24184350Y-4326527D01*
X24165312Y-4319379D01*
X24155793Y-4312231D01*
X24184350Y-4469493D02*
X24184350Y-4383713D01*
X24184350Y-4426603D02*
X24384248Y-4426603D01*
X24355691Y-4412307D01*
X24336653Y-4398010D01*
X24327134Y-4383713D01*
X24184350Y-4540976D02*
X24184350Y-4569569D01*
X24193869Y-4583865D01*
X24203388Y-4591014D01*
X24231945Y-4605310D01*
X24270020Y-4612459D01*
X24346172Y-4612459D01*
X24365210Y-4605310D01*
X24374729Y-4598162D01*
X24384248Y-4583865D01*
X24384248Y-4555272D01*
X24374729Y-4540976D01*
X24365210Y-4533827D01*
X24346172Y-4526679D01*
X24298577Y-4526679D01*
X24279539Y-4533827D01*
X24270020Y-4540976D01*
X24260502Y-4555272D01*
X24260502Y-4583865D01*
X24270020Y-4598162D01*
X24279539Y-4605310D01*
X24298577Y-4612459D01*
X24365210Y-4669645D02*
X24374729Y-4676793D01*
X24384248Y-4691090D01*
X24384248Y-4726831D01*
X24374729Y-4741128D01*
X24365210Y-4748276D01*
X24346172Y-4755424D01*
X24327134Y-4755424D01*
X24298577Y-4748276D01*
X24184350Y-4662497D01*
X24184350Y-4755424D01*
X24184350Y-4934131D02*
X24317615Y-4934131D01*
X24298577Y-4934131D02*
X24308096Y-4941280D01*
X24317615Y-4955576D01*
X24317615Y-4977021D01*
X24308096Y-4991318D01*
X24289058Y-4998466D01*
X24184350Y-4998466D01*
X24289058Y-4998466D02*
X24308096Y-5005614D01*
X24317615Y-5019911D01*
X24317615Y-5041356D01*
X24308096Y-5055652D01*
X24289058Y-5062801D01*
X24184350Y-5062801D01*
X24184350Y-5134283D02*
X24317615Y-5134283D01*
X24298577Y-5134283D02*
X24308096Y-5141432D01*
X24317615Y-5155728D01*
X24317615Y-5177173D01*
X24308096Y-5191470D01*
X24289058Y-5198618D01*
X24184350Y-5198618D01*
X24289058Y-5198618D02*
X24308096Y-5205766D01*
X24317615Y-5220063D01*
X24317615Y-5241508D01*
X24308096Y-5255804D01*
X24289058Y-5262953D01*
X24184350Y-5262953D01*
X24155146Y-4038600D02*
X24155146Y-5257800D01*
X23241000Y-4038600D02*
X24394668Y-4038600D01*
X23241000Y-5257800D02*
X24394668Y-5257800D01*
X24155146Y-5257800D02*
X24096726Y-5145278D01*
X24155146Y-5257800D02*
X24213566Y-5145278D01*
X24155146Y-4038600D02*
X24096726Y-4151122D01*
X24155146Y-4038600D02*
X24213566Y-4151122D01*
X18451213Y-3098298D02*
X18379730Y-3098298D01*
X18372582Y-3193488D01*
X18379730Y-3183969D01*
X18394027Y-3174450D01*
X18429768Y-3174450D01*
X18444065Y-3183969D01*
X18451213Y-3193488D01*
X18458362Y-3212525D01*
X18458362Y-3260120D01*
X18451213Y-3279158D01*
X18444065Y-3288677D01*
X18429768Y-3298196D01*
X18394027Y-3298196D01*
X18379730Y-3288677D01*
X18372582Y-3279158D01*
X18529844Y-3288677D02*
X18529844Y-3298196D01*
X18522696Y-3317234D01*
X18515548Y-3326753D01*
X18622772Y-3098298D02*
X18637069Y-3098298D01*
X18651365Y-3107817D01*
X18658514Y-3117336D01*
X18665662Y-3136374D01*
X18672810Y-3174450D01*
X18672810Y-3222044D01*
X18665662Y-3260120D01*
X18658514Y-3279158D01*
X18651365Y-3288677D01*
X18637069Y-3298196D01*
X18622772Y-3298196D01*
X18608476Y-3288677D01*
X18601327Y-3279158D01*
X18594179Y-3260120D01*
X18587031Y-3222044D01*
X18587031Y-3174450D01*
X18594179Y-3136374D01*
X18601327Y-3117336D01*
X18608476Y-3107817D01*
X18622772Y-3098298D01*
X18758590Y-3183969D02*
X18744293Y-3174450D01*
X18737145Y-3164931D01*
X18729996Y-3145893D01*
X18729996Y-3136374D01*
X18737145Y-3117336D01*
X18744293Y-3107817D01*
X18758590Y-3098298D01*
X18787183Y-3098298D01*
X18801479Y-3107817D01*
X18808628Y-3117336D01*
X18815776Y-3136374D01*
X18815776Y-3145893D01*
X18808628Y-3164931D01*
X18801479Y-3174450D01*
X18787183Y-3183969D01*
X18758590Y-3183969D01*
X18744293Y-3193488D01*
X18737145Y-3203006D01*
X18729996Y-3222044D01*
X18729996Y-3260120D01*
X18737145Y-3279158D01*
X18744293Y-3288677D01*
X18758590Y-3298196D01*
X18787183Y-3298196D01*
X18801479Y-3288677D01*
X18808628Y-3279158D01*
X18815776Y-3260120D01*
X18815776Y-3222044D01*
X18808628Y-3203006D01*
X18801479Y-3193488D01*
X18787183Y-3183969D01*
X18908704Y-3098298D02*
X18923000Y-3098298D01*
X18937297Y-3107817D01*
X18944445Y-3117336D01*
X18951593Y-3136374D01*
X18958742Y-3174450D01*
X18958742Y-3222044D01*
X18951593Y-3260120D01*
X18944445Y-3279158D01*
X18937297Y-3288677D01*
X18923000Y-3298196D01*
X18908704Y-3298196D01*
X18894407Y-3288677D01*
X18887259Y-3279158D01*
X18880110Y-3260120D01*
X18872962Y-3222044D01*
X18872962Y-3174450D01*
X18880110Y-3136374D01*
X18887259Y-3117336D01*
X18894407Y-3107817D01*
X18908704Y-3098298D01*
X19137449Y-3298196D02*
X19137449Y-3164931D01*
X19137449Y-3183969D02*
X19144597Y-3174450D01*
X19158894Y-3164931D01*
X19180338Y-3164931D01*
X19194635Y-3174450D01*
X19201783Y-3193488D01*
X19201783Y-3298196D01*
X19201783Y-3193488D02*
X19208932Y-3174450D01*
X19223228Y-3164931D01*
X19244673Y-3164931D01*
X19258970Y-3174450D01*
X19266118Y-3193488D01*
X19266118Y-3298196D01*
X19337601Y-3298196D02*
X19337601Y-3164931D01*
X19337601Y-3183969D02*
X19344749Y-3174450D01*
X19359046Y-3164931D01*
X19380490Y-3164931D01*
X19394787Y-3174450D01*
X19401935Y-3193488D01*
X19401935Y-3298196D01*
X19401935Y-3193488D02*
X19409084Y-3174450D01*
X19423380Y-3164931D01*
X19444825Y-3164931D01*
X19459122Y-3174450D01*
X19466270Y-3193488D01*
X19466270Y-3298196D01*
X19177000Y-3327654D02*
X18669000Y-3327654D01*
X19177000Y-4318000D02*
X19177000Y-3088132D01*
X18669000Y-4318000D02*
X18669000Y-3088132D01*
X18669000Y-3327654D02*
X18781522Y-3269234D01*
X18669000Y-3327654D02*
X18781522Y-3386074D01*
X19177000Y-3327654D02*
X19064478Y-3269234D01*
X19177000Y-3327654D02*
X19064478Y-3386074D01*
X22563582Y-3650736D02*
X22570730Y-3641217D01*
X22585027Y-3631698D01*
X22620768Y-3631698D01*
X22635065Y-3641217D01*
X22642213Y-3650736D01*
X22649361Y-3669774D01*
X22649361Y-3688812D01*
X22642213Y-3717369D01*
X22556434Y-3831596D01*
X22649361Y-3831596D01*
X22720844Y-3822077D02*
X22720844Y-3831596D01*
X22713696Y-3850634D01*
X22706548Y-3860153D01*
X22856662Y-3631698D02*
X22785179Y-3631698D01*
X22778031Y-3726888D01*
X22785179Y-3717369D01*
X22799475Y-3707850D01*
X22835217Y-3707850D01*
X22849513Y-3717369D01*
X22856662Y-3726888D01*
X22863810Y-3745925D01*
X22863810Y-3793520D01*
X22856662Y-3812558D01*
X22849513Y-3822077D01*
X22835217Y-3831596D01*
X22799475Y-3831596D01*
X22785179Y-3822077D01*
X22778031Y-3812558D01*
X22992479Y-3698331D02*
X22992479Y-3831596D01*
X22956738Y-3622179D02*
X22920996Y-3764963D01*
X23013924Y-3764963D01*
X23099703Y-3631698D02*
X23114000Y-3631698D01*
X23128297Y-3641217D01*
X23135445Y-3650736D01*
X23142593Y-3669774D01*
X23149741Y-3707850D01*
X23149741Y-3755444D01*
X23142593Y-3793520D01*
X23135445Y-3812558D01*
X23128297Y-3822077D01*
X23114000Y-3831596D01*
X23099703Y-3831596D01*
X23085407Y-3822077D01*
X23078259Y-3812558D01*
X23071110Y-3793520D01*
X23063962Y-3755444D01*
X23063962Y-3707850D01*
X23071110Y-3669774D01*
X23078259Y-3650736D01*
X23085407Y-3641217D01*
X23099703Y-3631698D01*
X23328449Y-3831596D02*
X23328449Y-3698331D01*
X23328449Y-3717369D02*
X23335597Y-3707850D01*
X23349893Y-3698331D01*
X23371338Y-3698331D01*
X23385635Y-3707850D01*
X23392783Y-3726888D01*
X23392783Y-3831596D01*
X23392783Y-3726888D02*
X23399931Y-3707850D01*
X23414228Y-3698331D01*
X23435673Y-3698331D01*
X23449969Y-3707850D01*
X23457118Y-3726888D01*
X23457118Y-3831596D01*
X23528601Y-3831596D02*
X23528601Y-3698331D01*
X23528601Y-3717369D02*
X23535749Y-3707850D01*
X23550045Y-3698331D01*
X23571490Y-3698331D01*
X23585787Y-3707850D01*
X23592935Y-3726888D01*
X23592935Y-3831596D01*
X23592935Y-3726888D02*
X23600083Y-3707850D01*
X23614380Y-3698331D01*
X23635825Y-3698331D01*
X23650121Y-3707850D01*
X23657270Y-3726888D01*
X23657270Y-3831596D01*
X22987000Y-3861054D02*
X23241000Y-3861054D01*
X22987000Y-5334000D02*
X22987000Y-3621532D01*
X23241000Y-5334000D02*
X23241000Y-3621532D01*
X23241000Y-3861054D02*
X23128478Y-3919474D01*
X23241000Y-3861054D02*
X23128478Y-3802634D01*
X22987000Y-3861054D02*
X23099522Y-3919474D01*
X22987000Y-3861054D02*
X23099522Y-3802634D01*
X17696682Y-4741418D02*
X17687163Y-4734270D01*
X17677644Y-4719973D01*
X17677644Y-4684232D01*
X17687163Y-4669935D01*
X17696682Y-4662787D01*
X17715720Y-4655639D01*
X17734758Y-4655639D01*
X17763315Y-4662787D01*
X17877542Y-4748566D01*
X17877542Y-4655639D01*
X17868023Y-4584156D02*
X17877542Y-4584156D01*
X17896580Y-4591304D01*
X17906099Y-4598452D01*
X17677644Y-4448338D02*
X17677644Y-4519821D01*
X17772834Y-4526969D01*
X17763315Y-4519821D01*
X17753796Y-4505525D01*
X17753796Y-4469783D01*
X17763315Y-4455487D01*
X17772834Y-4448338D01*
X17791872Y-4441190D01*
X17839466Y-4441190D01*
X17858504Y-4448338D01*
X17868023Y-4455487D01*
X17877542Y-4469783D01*
X17877542Y-4505525D01*
X17868023Y-4519821D01*
X17858504Y-4526969D01*
X17744277Y-4312521D02*
X17877542Y-4312521D01*
X17668125Y-4348262D02*
X17810909Y-4384004D01*
X17810909Y-4291076D01*
X17677644Y-4205297D02*
X17677644Y-4191000D01*
X17687163Y-4176703D01*
X17696682Y-4169555D01*
X17715720Y-4162407D01*
X17753796Y-4155258D01*
X17801390Y-4155258D01*
X17839466Y-4162407D01*
X17858504Y-4169555D01*
X17868023Y-4176703D01*
X17877542Y-4191000D01*
X17877542Y-4205297D01*
X17868023Y-4219593D01*
X17858504Y-4226741D01*
X17839466Y-4233890D01*
X17801390Y-4241038D01*
X17753796Y-4241038D01*
X17715720Y-4233890D01*
X17696682Y-4226741D01*
X17687163Y-4219593D01*
X17677644Y-4205297D01*
X17877542Y-3976551D02*
X17744277Y-3976551D01*
X17763315Y-3976551D02*
X17753796Y-3969403D01*
X17744277Y-3955106D01*
X17744277Y-3933662D01*
X17753796Y-3919365D01*
X17772834Y-3912217D01*
X17877542Y-3912217D01*
X17772834Y-3912217D02*
X17753796Y-3905068D01*
X17744277Y-3890772D01*
X17744277Y-3869327D01*
X17753796Y-3855030D01*
X17772834Y-3847882D01*
X17877542Y-3847882D01*
X17877542Y-3776399D02*
X17744277Y-3776399D01*
X17763315Y-3776399D02*
X17753796Y-3769251D01*
X17744277Y-3754954D01*
X17744277Y-3733510D01*
X17753796Y-3719213D01*
X17772834Y-3712065D01*
X17877542Y-3712065D01*
X17772834Y-3712065D02*
X17753796Y-3704916D01*
X17744277Y-3690620D01*
X17744277Y-3669175D01*
X17753796Y-3654878D01*
X17772834Y-3647730D01*
X17877542Y-3647730D01*
X17907000Y-4318000D02*
X17907000Y-4064000D01*
X19177000Y-4318000D02*
X17667478Y-4318000D01*
X19177000Y-4064000D02*
X17667478Y-4064000D01*
X17907000Y-4064000D02*
X17965420Y-4176522D01*
X17907000Y-4064000D02*
X17848580Y-4176522D01*
X17907000Y-4318000D02*
X17965420Y-4205478D01*
X17907000Y-4318000D02*
X17848580Y-4205478D01*
X18245582Y-3549136D02*
X18252730Y-3539617D01*
X18267027Y-3530098D01*
X18302768Y-3530098D01*
X18317065Y-3539617D01*
X18324213Y-3549136D01*
X18331362Y-3568174D01*
X18331362Y-3587212D01*
X18324213Y-3615769D01*
X18238434Y-3729996D01*
X18331362Y-3729996D01*
X18402844Y-3720477D02*
X18402844Y-3729996D01*
X18395696Y-3749034D01*
X18388548Y-3758553D01*
X18538662Y-3530098D02*
X18467179Y-3530098D01*
X18460031Y-3625288D01*
X18467179Y-3615769D01*
X18481476Y-3606250D01*
X18517217Y-3606250D01*
X18531514Y-3615769D01*
X18538662Y-3625288D01*
X18545810Y-3644325D01*
X18545810Y-3691920D01*
X18538662Y-3710958D01*
X18531514Y-3720477D01*
X18517217Y-3729996D01*
X18481476Y-3729996D01*
X18467179Y-3720477D01*
X18460031Y-3710958D01*
X18674479Y-3596731D02*
X18674479Y-3729996D01*
X18638738Y-3520579D02*
X18602996Y-3663363D01*
X18695924Y-3663363D01*
X18781704Y-3530098D02*
X18796000Y-3530098D01*
X18810297Y-3539617D01*
X18817445Y-3549136D01*
X18824593Y-3568174D01*
X18831742Y-3606250D01*
X18831742Y-3653844D01*
X18824593Y-3691920D01*
X18817445Y-3710958D01*
X18810297Y-3720477D01*
X18796000Y-3729996D01*
X18781704Y-3729996D01*
X18767407Y-3720477D01*
X18760259Y-3710958D01*
X18753110Y-3691920D01*
X18745962Y-3653844D01*
X18745962Y-3606250D01*
X18753110Y-3568174D01*
X18760259Y-3549136D01*
X18767407Y-3539617D01*
X18781704Y-3530098D01*
X19010449Y-3729996D02*
X19010449Y-3596731D01*
X19010449Y-3615769D02*
X19017597Y-3606250D01*
X19031894Y-3596731D01*
X19053338Y-3596731D01*
X19067635Y-3606250D01*
X19074783Y-3625288D01*
X19074783Y-3729996D01*
X19074783Y-3625288D02*
X19081932Y-3606250D01*
X19096228Y-3596731D01*
X19117673Y-3596731D01*
X19131970Y-3606250D01*
X19139118Y-3625288D01*
X19139118Y-3729996D01*
X19210601Y-3729996D02*
X19210601Y-3596731D01*
X19210601Y-3615769D02*
X19217749Y-3606250D01*
X19232046Y-3596731D01*
X19253490Y-3596731D01*
X19267787Y-3606250D01*
X19274935Y-3625288D01*
X19274935Y-3729996D01*
X19274935Y-3625288D02*
X19282084Y-3606250D01*
X19296380Y-3596731D01*
X19317825Y-3596731D01*
X19332122Y-3606250D01*
X19339270Y-3625288D01*
X19339270Y-3729996D01*
X18923000Y-3759454D02*
X18669000Y-3759454D01*
X18923000Y-5334000D02*
X18923000Y-3519932D01*
X18669000Y-5334000D02*
X18669000Y-3519932D01*
X18669000Y-3759454D02*
X18781522Y-3701034D01*
X18669000Y-3759454D02*
X18781522Y-3817874D01*
X18923000Y-3759454D02*
X18810478Y-3701034D01*
X18923000Y-3759454D02*
X18810478Y-3817874D01*
X18334996Y-6561582D02*
X18344515Y-6568730D01*
X18354034Y-6583027D01*
X18354034Y-6618768D01*
X18344515Y-6633065D01*
X18334996Y-6640213D01*
X18315958Y-6647361D01*
X18296920Y-6647361D01*
X18268363Y-6640213D01*
X18154136Y-6554434D01*
X18154136Y-6647361D01*
X18163655Y-6718844D02*
X18154136Y-6718844D01*
X18135098Y-6711696D01*
X18125579Y-6704548D01*
X18354034Y-6854662D02*
X18354034Y-6783179D01*
X18258844Y-6776031D01*
X18268363Y-6783179D01*
X18277882Y-6797475D01*
X18277882Y-6833217D01*
X18268363Y-6847513D01*
X18258844Y-6854662D01*
X18239807Y-6861810D01*
X18192212Y-6861810D01*
X18173174Y-6854662D01*
X18163655Y-6847513D01*
X18154136Y-6833217D01*
X18154136Y-6797475D01*
X18163655Y-6783179D01*
X18173174Y-6776031D01*
X18287401Y-6990479D02*
X18154136Y-6990479D01*
X18363553Y-6954738D02*
X18220769Y-6918996D01*
X18220769Y-7011924D01*
X18354034Y-7097703D02*
X18354034Y-7112000D01*
X18344515Y-7126297D01*
X18334996Y-7133445D01*
X18315958Y-7140593D01*
X18277882Y-7147741D01*
X18230288Y-7147741D01*
X18192212Y-7140593D01*
X18173174Y-7133445D01*
X18163655Y-7126297D01*
X18154136Y-7112000D01*
X18154136Y-7097703D01*
X18163655Y-7083407D01*
X18173174Y-7076259D01*
X18192212Y-7069110D01*
X18230288Y-7061962D01*
X18277882Y-7061962D01*
X18315958Y-7069110D01*
X18334996Y-7076259D01*
X18344515Y-7083407D01*
X18354034Y-7097703D01*
X18154136Y-7326449D02*
X18287401Y-7326449D01*
X18268363Y-7326449D02*
X18277882Y-7333597D01*
X18287401Y-7347893D01*
X18287401Y-7369338D01*
X18277882Y-7383635D01*
X18258844Y-7390783D01*
X18154136Y-7390783D01*
X18258844Y-7390783D02*
X18277882Y-7397931D01*
X18287401Y-7412228D01*
X18287401Y-7433673D01*
X18277882Y-7447969D01*
X18258844Y-7455118D01*
X18154136Y-7455118D01*
X18154136Y-7526601D02*
X18287401Y-7526601D01*
X18268363Y-7526601D02*
X18277882Y-7533749D01*
X18287401Y-7548045D01*
X18287401Y-7569490D01*
X18277882Y-7583787D01*
X18258844Y-7590935D01*
X18154136Y-7590935D01*
X18258844Y-7590935D02*
X18277882Y-7598083D01*
X18287401Y-7612380D01*
X18287401Y-7633825D01*
X18277882Y-7648121D01*
X18258844Y-7655270D01*
X18154136Y-7655270D01*
X18364454Y-6985000D02*
X18364454Y-7239000D01*
X19177000Y-6985000D02*
X18124932Y-6985000D01*
X19177000Y-7239000D02*
X18124932Y-7239000D01*
X18364454Y-7239000D02*
X18306034Y-7126478D01*
X18364454Y-7239000D02*
X18422874Y-7126478D01*
X18364454Y-6985000D02*
X18306034Y-7097522D01*
X18364454Y-6985000D02*
X18422874Y-7097522D01*
D11*
X25140436Y-8302171D02*
X25140436Y-8396514D01*
X25063027Y-8345714D01*
X25063027Y-8367486D01*
X25053350Y-8382000D01*
X25043674Y-8389257D01*
X25024322Y-8396514D01*
X24975941Y-8396514D01*
X24956589Y-8389257D01*
X24946912Y-8382000D01*
X24937236Y-8367486D01*
X24937236Y-8323943D01*
X24946912Y-8309428D01*
X24956589Y-8302171D01*
X25121084Y-8454571D02*
X25130760Y-8461829D01*
X25140436Y-8476343D01*
X25140436Y-8512629D01*
X25130760Y-8527143D01*
X25121084Y-8534400D01*
X25101731Y-8541657D01*
X25082379Y-8541657D01*
X25053350Y-8534400D01*
X24937236Y-8447314D01*
X24937236Y-8541657D01*
X24946912Y-8614229D02*
X24937236Y-8614229D01*
X24917884Y-8606971D01*
X24908208Y-8599714D01*
X25140436Y-8708571D02*
X25140436Y-8723086D01*
X25130760Y-8737600D01*
X25121084Y-8744857D01*
X25101731Y-8752114D01*
X25063027Y-8759371D01*
X25014646Y-8759371D01*
X24975941Y-8752114D01*
X24956589Y-8744857D01*
X24946912Y-8737600D01*
X24937236Y-8723086D01*
X24937236Y-8708571D01*
X24946912Y-8694057D01*
X24956589Y-8686800D01*
X24975941Y-8679543D01*
X25014646Y-8672286D01*
X25063027Y-8672286D01*
X25101731Y-8679543D01*
X25121084Y-8686800D01*
X25130760Y-8694057D01*
X25140436Y-8708571D01*
X25140436Y-8853714D02*
X25140436Y-8868229D01*
X25130760Y-8882743D01*
X25121084Y-8890000D01*
X25101731Y-8897257D01*
X25063027Y-8904514D01*
X25014646Y-8904514D01*
X24975941Y-8897257D01*
X24956589Y-8890000D01*
X24946912Y-8882743D01*
X24937236Y-8868229D01*
X24937236Y-8853714D01*
X24946912Y-8839200D01*
X24956589Y-8831943D01*
X24975941Y-8824686D01*
X25014646Y-8817429D01*
X25063027Y-8817429D01*
X25101731Y-8824686D01*
X25121084Y-8831943D01*
X25130760Y-8839200D01*
X25140436Y-8853714D01*
X25072703Y-9035143D02*
X24937236Y-9035143D01*
X25150112Y-8998857D02*
X25004969Y-8962572D01*
X25004969Y-9056914D01*
X24937236Y-9231086D02*
X25072703Y-9231086D01*
X25053350Y-9231086D02*
X25063027Y-9238343D01*
X25072703Y-9252857D01*
X25072703Y-9274629D01*
X25063027Y-9289143D01*
X25043674Y-9296400D01*
X24937236Y-9296400D01*
X25043674Y-9296400D02*
X25063027Y-9303657D01*
X25072703Y-9318172D01*
X25072703Y-9339943D01*
X25063027Y-9354457D01*
X25043674Y-9361714D01*
X24937236Y-9361714D01*
X24937236Y-9434286D02*
X25072703Y-9434286D01*
X25053350Y-9434286D02*
X25063027Y-9441543D01*
X25072703Y-9456057D01*
X25072703Y-9477829D01*
X25063027Y-9492343D01*
X25043674Y-9499600D01*
X24937236Y-9499600D01*
X25043674Y-9499600D02*
X25063027Y-9506857D01*
X25072703Y-9521372D01*
X25072703Y-9543143D01*
X25063027Y-9557657D01*
X25043674Y-9564914D01*
X24937236Y-9564914D01*
X24866600Y-7340600D02*
X24866600Y-10541000D01*
X23241000Y-7340600D02*
X25191720Y-7340600D01*
X23241000Y-10541000D02*
X25191720Y-10541000D01*
X24866600Y-10541000D02*
X24807958Y-10428350D01*
X24866600Y-10541000D02*
X24925242Y-10428350D01*
X24866600Y-7340600D02*
X24807958Y-7453250D01*
X24866600Y-7340600D02*
X24925242Y-7453250D01*
X22538871Y-10863217D02*
X22538871Y-10998684D01*
X22502586Y-10785808D02*
X22466300Y-10930951D01*
X22560643Y-10930951D01*
X22625957Y-10989008D02*
X22625957Y-10998684D01*
X22618700Y-11018036D01*
X22611443Y-11027712D01*
X22676757Y-10795484D02*
X22771100Y-10795484D01*
X22720300Y-10872893D01*
X22742071Y-10872893D01*
X22756586Y-10882570D01*
X22763843Y-10892246D01*
X22771100Y-10911598D01*
X22771100Y-10959979D01*
X22763843Y-10979331D01*
X22756586Y-10989008D01*
X22742071Y-10998684D01*
X22698529Y-10998684D01*
X22684014Y-10989008D01*
X22676757Y-10979331D01*
X22916243Y-10998684D02*
X22829157Y-10998684D01*
X22872700Y-10998684D02*
X22872700Y-10795484D01*
X22858186Y-10824512D01*
X22843671Y-10843865D01*
X22829157Y-10853541D01*
X23003329Y-10882570D02*
X22988814Y-10872893D01*
X22981557Y-10863217D01*
X22974300Y-10843865D01*
X22974300Y-10834189D01*
X22981557Y-10814836D01*
X22988814Y-10805160D01*
X23003329Y-10795484D01*
X23032357Y-10795484D01*
X23046871Y-10805160D01*
X23054129Y-10814836D01*
X23061386Y-10834189D01*
X23061386Y-10843865D01*
X23054129Y-10863217D01*
X23046871Y-10872893D01*
X23032357Y-10882570D01*
X23003329Y-10882570D01*
X22988814Y-10892246D01*
X22981557Y-10901922D01*
X22974300Y-10921274D01*
X22974300Y-10959979D01*
X22981557Y-10979331D01*
X22988814Y-10989008D01*
X23003329Y-10998684D01*
X23032357Y-10998684D01*
X23046871Y-10989008D01*
X23054129Y-10979331D01*
X23061386Y-10959979D01*
X23061386Y-10921274D01*
X23054129Y-10901922D01*
X23046871Y-10892246D01*
X23032357Y-10882570D01*
X23242814Y-10998684D02*
X23242814Y-10863217D01*
X23242814Y-10882570D02*
X23250072Y-10872893D01*
X23264586Y-10863217D01*
X23286357Y-10863217D01*
X23300872Y-10872893D01*
X23308129Y-10892246D01*
X23308129Y-10998684D01*
X23308129Y-10892246D02*
X23315386Y-10872893D01*
X23329900Y-10863217D01*
X23351672Y-10863217D01*
X23366186Y-10872893D01*
X23373443Y-10892246D01*
X23373443Y-10998684D01*
X23446014Y-10998684D02*
X23446014Y-10863217D01*
X23446014Y-10882570D02*
X23453272Y-10872893D01*
X23467786Y-10863217D01*
X23489557Y-10863217D01*
X23504072Y-10872893D01*
X23511329Y-10892246D01*
X23511329Y-10998684D01*
X23511329Y-10892246D02*
X23518586Y-10872893D01*
X23533100Y-10863217D01*
X23554872Y-10863217D01*
X23569386Y-10872893D01*
X23576643Y-10892246D01*
X23576643Y-10998684D01*
X23241000Y-10744200D02*
X22809200Y-10744200D01*
X23241000Y-10541000D02*
X23241000Y-11069320D01*
X22809200Y-10541000D02*
X22809200Y-11069320D01*
X22809200Y-10744200D02*
X22921850Y-10685558D01*
X22809200Y-10744200D02*
X22921850Y-10802842D01*
X23241000Y-10744200D02*
X23128350Y-10685558D01*
X23241000Y-10744200D02*
X23128350Y-10802842D01*
X23779117Y-10811329D02*
X23914584Y-10811329D01*
X23701707Y-10847614D02*
X23846850Y-10883900D01*
X23846850Y-10789557D01*
X23904907Y-10724243D02*
X23914584Y-10724243D01*
X23933936Y-10731500D01*
X23943612Y-10738757D01*
X23711384Y-10673443D02*
X23711384Y-10579100D01*
X23788793Y-10629900D01*
X23788793Y-10608129D01*
X23798469Y-10593614D01*
X23808146Y-10586357D01*
X23827498Y-10579100D01*
X23875879Y-10579100D01*
X23895231Y-10586357D01*
X23904907Y-10593614D01*
X23914584Y-10608129D01*
X23914584Y-10651671D01*
X23904907Y-10666186D01*
X23895231Y-10673443D01*
X23914584Y-10433957D02*
X23914584Y-10521043D01*
X23914584Y-10477500D02*
X23711384Y-10477500D01*
X23740412Y-10492014D01*
X23759765Y-10506529D01*
X23769441Y-10521043D01*
X23798469Y-10346871D02*
X23788793Y-10361386D01*
X23779117Y-10368643D01*
X23759765Y-10375900D01*
X23750088Y-10375900D01*
X23730736Y-10368643D01*
X23721060Y-10361386D01*
X23711384Y-10346871D01*
X23711384Y-10317843D01*
X23721060Y-10303329D01*
X23730736Y-10296071D01*
X23750088Y-10288814D01*
X23759765Y-10288814D01*
X23779117Y-10296071D01*
X23788793Y-10303329D01*
X23798469Y-10317843D01*
X23798469Y-10346871D01*
X23808146Y-10361386D01*
X23817822Y-10368643D01*
X23837174Y-10375900D01*
X23875879Y-10375900D01*
X23895231Y-10368643D01*
X23904907Y-10361386D01*
X23914584Y-10346871D01*
X23914584Y-10317843D01*
X23904907Y-10303329D01*
X23895231Y-10296071D01*
X23875879Y-10288814D01*
X23837174Y-10288814D01*
X23817822Y-10296071D01*
X23808146Y-10303329D01*
X23798469Y-10317843D01*
X23914584Y-10107386D02*
X23779117Y-10107386D01*
X23798469Y-10107386D02*
X23788793Y-10100128D01*
X23779117Y-10085614D01*
X23779117Y-10063843D01*
X23788793Y-10049328D01*
X23808146Y-10042071D01*
X23914584Y-10042071D01*
X23808146Y-10042071D02*
X23788793Y-10034814D01*
X23779117Y-10020300D01*
X23779117Y-9998528D01*
X23788793Y-9984014D01*
X23808146Y-9976757D01*
X23914584Y-9976757D01*
X23914584Y-9904186D02*
X23779117Y-9904186D01*
X23798469Y-9904186D02*
X23788793Y-9896928D01*
X23779117Y-9882414D01*
X23779117Y-9860643D01*
X23788793Y-9846128D01*
X23808146Y-9838871D01*
X23914584Y-9838871D01*
X23808146Y-9838871D02*
X23788793Y-9831614D01*
X23779117Y-9817100D01*
X23779117Y-9795328D01*
X23788793Y-9780814D01*
X23808146Y-9773557D01*
X23914584Y-9773557D01*
X23660100Y-10541000D02*
X23660100Y-10109200D01*
X23241000Y-10541000D02*
X23985220Y-10541000D01*
X23241000Y-10109200D02*
X23985220Y-10109200D01*
X23660100Y-10109200D02*
X23718742Y-10221850D01*
X23660100Y-10109200D02*
X23601458Y-10221850D01*
X23660100Y-10541000D02*
X23718742Y-10428350D01*
X23660100Y-10541000D02*
X23601458Y-10428350D01*
X23955103Y-7070271D02*
X23819636Y-7070271D01*
X24032512Y-7033986D02*
X23887369Y-6997700D01*
X23887369Y-7092043D01*
X23829312Y-7157357D02*
X23819636Y-7157357D01*
X23800284Y-7150100D01*
X23790608Y-7142843D01*
X24022836Y-7208157D02*
X24022836Y-7302500D01*
X23945427Y-7251700D01*
X23945427Y-7273471D01*
X23935750Y-7287986D01*
X23926074Y-7295243D01*
X23906722Y-7302500D01*
X23858341Y-7302500D01*
X23838989Y-7295243D01*
X23829312Y-7287986D01*
X23819636Y-7273471D01*
X23819636Y-7229929D01*
X23829312Y-7215414D01*
X23838989Y-7208157D01*
X23819636Y-7447643D02*
X23819636Y-7360557D01*
X23819636Y-7404100D02*
X24022836Y-7404100D01*
X23993808Y-7389586D01*
X23974455Y-7375071D01*
X23964779Y-7360557D01*
X23935750Y-7534729D02*
X23945427Y-7520214D01*
X23955103Y-7512957D01*
X23974455Y-7505700D01*
X23984131Y-7505700D01*
X24003484Y-7512957D01*
X24013160Y-7520214D01*
X24022836Y-7534729D01*
X24022836Y-7563757D01*
X24013160Y-7578271D01*
X24003484Y-7585529D01*
X23984131Y-7592786D01*
X23974455Y-7592786D01*
X23955103Y-7585529D01*
X23945427Y-7578271D01*
X23935750Y-7563757D01*
X23935750Y-7534729D01*
X23926074Y-7520214D01*
X23916398Y-7512957D01*
X23897046Y-7505700D01*
X23858341Y-7505700D01*
X23838989Y-7512957D01*
X23829312Y-7520214D01*
X23819636Y-7534729D01*
X23819636Y-7563757D01*
X23829312Y-7578271D01*
X23838989Y-7585529D01*
X23858341Y-7592786D01*
X23897046Y-7592786D01*
X23916398Y-7585529D01*
X23926074Y-7578271D01*
X23935750Y-7563757D01*
X23819636Y-7774214D02*
X23955103Y-7774214D01*
X23935750Y-7774214D02*
X23945427Y-7781472D01*
X23955103Y-7795986D01*
X23955103Y-7817757D01*
X23945427Y-7832272D01*
X23926074Y-7839529D01*
X23819636Y-7839529D01*
X23926074Y-7839529D02*
X23945427Y-7846786D01*
X23955103Y-7861300D01*
X23955103Y-7883072D01*
X23945427Y-7897586D01*
X23926074Y-7904843D01*
X23819636Y-7904843D01*
X23819636Y-7977414D02*
X23955103Y-7977414D01*
X23935750Y-7977414D02*
X23945427Y-7984672D01*
X23955103Y-7999186D01*
X23955103Y-8020957D01*
X23945427Y-8035472D01*
X23926074Y-8042729D01*
X23819636Y-8042729D01*
X23926074Y-8042729D02*
X23945427Y-8049986D01*
X23955103Y-8064500D01*
X23955103Y-8086272D01*
X23945427Y-8100786D01*
X23926074Y-8108043D01*
X23819636Y-8108043D01*
X23749000Y-7340600D02*
X23749000Y-7772400D01*
X23241000Y-7340600D02*
X24074120Y-7340600D01*
X23241000Y-7772400D02*
X24074120Y-7772400D01*
X23749000Y-7772400D02*
X23690358Y-7659750D01*
X23749000Y-7772400D02*
X23807642Y-7659750D01*
X23749000Y-7340600D02*
X23690358Y-7453250D01*
X23749000Y-7340600D02*
X23807642Y-7453250D01*
D12*
X17214336Y-7414079D02*
X17214336Y-7328299D01*
X17214336Y-7371189D02*
X17414234Y-7371189D01*
X17385677Y-7356892D01*
X17366639Y-7342596D01*
X17357120Y-7328299D01*
X17395196Y-7471265D02*
X17404715Y-7478413D01*
X17414234Y-7492710D01*
X17414234Y-7528451D01*
X17404715Y-7542748D01*
X17395196Y-7549896D01*
X17376158Y-7557044D01*
X17357120Y-7557044D01*
X17328563Y-7549896D01*
X17214336Y-7464117D01*
X17214336Y-7557044D01*
X17223855Y-7628527D02*
X17214336Y-7628527D01*
X17195298Y-7621379D01*
X17185779Y-7614230D01*
X17214336Y-7771493D02*
X17214336Y-7685713D01*
X17214336Y-7728603D02*
X17414234Y-7728603D01*
X17385677Y-7714307D01*
X17366639Y-7700010D01*
X17357120Y-7685713D01*
X17214336Y-7842976D02*
X17214336Y-7871569D01*
X17223855Y-7885865D01*
X17233374Y-7893014D01*
X17261931Y-7907310D01*
X17300007Y-7914459D01*
X17376158Y-7914459D01*
X17395196Y-7907310D01*
X17404715Y-7900162D01*
X17414234Y-7885865D01*
X17414234Y-7857272D01*
X17404715Y-7842976D01*
X17395196Y-7835827D01*
X17376158Y-7828679D01*
X17328563Y-7828679D01*
X17309526Y-7835827D01*
X17300007Y-7842976D01*
X17290488Y-7857272D01*
X17290488Y-7885865D01*
X17300007Y-7900162D01*
X17309526Y-7907310D01*
X17328563Y-7914459D01*
X17395196Y-7971645D02*
X17404715Y-7978793D01*
X17414234Y-7993090D01*
X17414234Y-8028831D01*
X17404715Y-8043128D01*
X17395196Y-8050276D01*
X17376158Y-8057424D01*
X17357120Y-8057424D01*
X17328563Y-8050276D01*
X17214336Y-7964497D01*
X17214336Y-8057424D01*
X17214336Y-8236131D02*
X17347601Y-8236131D01*
X17328563Y-8236131D02*
X17338082Y-8243280D01*
X17347601Y-8257576D01*
X17347601Y-8279021D01*
X17338082Y-8293318D01*
X17319044Y-8300466D01*
X17214336Y-8300466D01*
X17319044Y-8300466D02*
X17338082Y-8307614D01*
X17347601Y-8321911D01*
X17347601Y-8343356D01*
X17338082Y-8357652D01*
X17319044Y-8364801D01*
X17214336Y-8364801D01*
X17214336Y-8436283D02*
X17347601Y-8436283D01*
X17328563Y-8436283D02*
X17338082Y-8443432D01*
X17347601Y-8457728D01*
X17347601Y-8479173D01*
X17338082Y-8493470D01*
X17319044Y-8500618D01*
X17214336Y-8500618D01*
X17319044Y-8500618D02*
X17338082Y-8507766D01*
X17347601Y-8522063D01*
X17347601Y-8543508D01*
X17338082Y-8557804D01*
X17319044Y-8564953D01*
X17214336Y-8564953D01*
X17424654Y-7340600D02*
X17424654Y-8559800D01*
X18669000Y-7340600D02*
X17185132Y-7340600D01*
X18669000Y-8559800D02*
X17185132Y-8559800D01*
X17424654Y-8559800D02*
X17366234Y-8447278D01*
X17424654Y-8559800D02*
X17483074Y-8447278D01*
X17424654Y-7340600D02*
X17366234Y-7453122D01*
X17424654Y-7340600D02*
X17483074Y-7453122D01*
X17521942Y-10467521D02*
X17521942Y-10553301D01*
X17521942Y-10510411D02*
X17322044Y-10510411D01*
X17350601Y-10524708D01*
X17369639Y-10539004D01*
X17379158Y-10553301D01*
X17341082Y-10410335D02*
X17331563Y-10403187D01*
X17322044Y-10388890D01*
X17322044Y-10353149D01*
X17331563Y-10338852D01*
X17341082Y-10331704D01*
X17360120Y-10324556D01*
X17379158Y-10324556D01*
X17407715Y-10331704D01*
X17521942Y-10417483D01*
X17521942Y-10324556D01*
X17512423Y-10253073D02*
X17521942Y-10253073D01*
X17540980Y-10260221D01*
X17550499Y-10267370D01*
X17521942Y-10110107D02*
X17521942Y-10195887D01*
X17521942Y-10152997D02*
X17322044Y-10152997D01*
X17350601Y-10167293D01*
X17369639Y-10181590D01*
X17379158Y-10195887D01*
X17521942Y-10038624D02*
X17521942Y-10010031D01*
X17512423Y-9995735D01*
X17502904Y-9988586D01*
X17474347Y-9974290D01*
X17436272Y-9967141D01*
X17360120Y-9967141D01*
X17341082Y-9974290D01*
X17331563Y-9981438D01*
X17322044Y-9995735D01*
X17322044Y-10024328D01*
X17331563Y-10038624D01*
X17341082Y-10045773D01*
X17360120Y-10052921D01*
X17407715Y-10052921D01*
X17426753Y-10045773D01*
X17436272Y-10038624D01*
X17445790Y-10024328D01*
X17445790Y-9995735D01*
X17436272Y-9981438D01*
X17426753Y-9974290D01*
X17407715Y-9967141D01*
X17341082Y-9909955D02*
X17331563Y-9902807D01*
X17322044Y-9888510D01*
X17322044Y-9852769D01*
X17331563Y-9838472D01*
X17341082Y-9831324D01*
X17360120Y-9824176D01*
X17379158Y-9824176D01*
X17407715Y-9831324D01*
X17521942Y-9917103D01*
X17521942Y-9824176D01*
X17521942Y-9645469D02*
X17388677Y-9645469D01*
X17407715Y-9645469D02*
X17398196Y-9638320D01*
X17388677Y-9624024D01*
X17388677Y-9602579D01*
X17398196Y-9588282D01*
X17417234Y-9581134D01*
X17521942Y-9581134D01*
X17417234Y-9581134D02*
X17398196Y-9573986D01*
X17388677Y-9559689D01*
X17388677Y-9538244D01*
X17398196Y-9523948D01*
X17417234Y-9516799D01*
X17521942Y-9516799D01*
X17521942Y-9445317D02*
X17388677Y-9445317D01*
X17407715Y-9445317D02*
X17398196Y-9438168D01*
X17388677Y-9423872D01*
X17388677Y-9402427D01*
X17398196Y-9388130D01*
X17417234Y-9380982D01*
X17521942Y-9380982D01*
X17417234Y-9380982D02*
X17398196Y-9373834D01*
X17388677Y-9359537D01*
X17388677Y-9338092D01*
X17398196Y-9323796D01*
X17417234Y-9316647D01*
X17521942Y-9316647D01*
X17551400Y-10541000D02*
X17551400Y-9321800D01*
X18669000Y-10541000D02*
X17311878Y-10541000D01*
X18669000Y-9321800D02*
X17311878Y-9321800D01*
X17551400Y-9321800D02*
X17609820Y-9434322D01*
X17551400Y-9321800D02*
X17492980Y-9434322D01*
X17551400Y-10541000D02*
X17609820Y-10428478D01*
X17551400Y-10541000D02*
X17492980Y-10428478D01*
X24184350Y-9395279D02*
X24184350Y-9309499D01*
X24184350Y-9352389D02*
X24384248Y-9352389D01*
X24355691Y-9338092D01*
X24336653Y-9323796D01*
X24327134Y-9309499D01*
X24365210Y-9452465D02*
X24374729Y-9459613D01*
X24384248Y-9473910D01*
X24384248Y-9509651D01*
X24374729Y-9523948D01*
X24365210Y-9531096D01*
X24346172Y-9538244D01*
X24327134Y-9538244D01*
X24298577Y-9531096D01*
X24184350Y-9445317D01*
X24184350Y-9538244D01*
X24193869Y-9609727D02*
X24184350Y-9609727D01*
X24165312Y-9602579D01*
X24155793Y-9595431D01*
X24184350Y-9752693D02*
X24184350Y-9666913D01*
X24184350Y-9709803D02*
X24384248Y-9709803D01*
X24355691Y-9695507D01*
X24336653Y-9681210D01*
X24327134Y-9666913D01*
X24184350Y-9824176D02*
X24184350Y-9852769D01*
X24193869Y-9867065D01*
X24203388Y-9874214D01*
X24231945Y-9888510D01*
X24270020Y-9895659D01*
X24346172Y-9895659D01*
X24365210Y-9888510D01*
X24374729Y-9881362D01*
X24384248Y-9867065D01*
X24384248Y-9838472D01*
X24374729Y-9824176D01*
X24365210Y-9817027D01*
X24346172Y-9809879D01*
X24298577Y-9809879D01*
X24279539Y-9817027D01*
X24270020Y-9824176D01*
X24260502Y-9838472D01*
X24260502Y-9867065D01*
X24270020Y-9881362D01*
X24279539Y-9888510D01*
X24298577Y-9895659D01*
X24365210Y-9952845D02*
X24374729Y-9959993D01*
X24384248Y-9974290D01*
X24384248Y-10010031D01*
X24374729Y-10024328D01*
X24365210Y-10031476D01*
X24346172Y-10038624D01*
X24327134Y-10038624D01*
X24298577Y-10031476D01*
X24184350Y-9945697D01*
X24184350Y-10038624D01*
X24184350Y-10217331D02*
X24317615Y-10217331D01*
X24298577Y-10217331D02*
X24308096Y-10224480D01*
X24317615Y-10238776D01*
X24317615Y-10260221D01*
X24308096Y-10274518D01*
X24289058Y-10281666D01*
X24184350Y-10281666D01*
X24289058Y-10281666D02*
X24308096Y-10288814D01*
X24317615Y-10303111D01*
X24317615Y-10324556D01*
X24308096Y-10338852D01*
X24289058Y-10346001D01*
X24184350Y-10346001D01*
X24184350Y-10417483D02*
X24317615Y-10417483D01*
X24298577Y-10417483D02*
X24308096Y-10424632D01*
X24317615Y-10438928D01*
X24317615Y-10460373D01*
X24308096Y-10474670D01*
X24289058Y-10481818D01*
X24184350Y-10481818D01*
X24289058Y-10481818D02*
X24308096Y-10488966D01*
X24317615Y-10503263D01*
X24317615Y-10524708D01*
X24308096Y-10539004D01*
X24289058Y-10546153D01*
X24184350Y-10546153D01*
X24155146Y-9321800D02*
X24155146Y-10541000D01*
X23241000Y-9321800D02*
X24394668Y-9321800D01*
X23241000Y-10541000D02*
X24394668Y-10541000D01*
X24155146Y-10541000D02*
X24096726Y-10428478D01*
X24155146Y-10541000D02*
X24213566Y-10428478D01*
X24155146Y-9321800D02*
X24096726Y-9434322D01*
X24155146Y-9321800D02*
X24213566Y-9434322D01*
X24184350Y-7414079D02*
X24184350Y-7328299D01*
X24184350Y-7371189D02*
X24384248Y-7371189D01*
X24355691Y-7356892D01*
X24336653Y-7342596D01*
X24327134Y-7328299D01*
X24365210Y-7471265D02*
X24374729Y-7478413D01*
X24384248Y-7492710D01*
X24384248Y-7528451D01*
X24374729Y-7542748D01*
X24365210Y-7549896D01*
X24346172Y-7557044D01*
X24327134Y-7557044D01*
X24298577Y-7549896D01*
X24184350Y-7464117D01*
X24184350Y-7557044D01*
X24193869Y-7628527D02*
X24184350Y-7628527D01*
X24165312Y-7621379D01*
X24155793Y-7614230D01*
X24184350Y-7771493D02*
X24184350Y-7685713D01*
X24184350Y-7728603D02*
X24384248Y-7728603D01*
X24355691Y-7714307D01*
X24336653Y-7700010D01*
X24327134Y-7685713D01*
X24184350Y-7842976D02*
X24184350Y-7871569D01*
X24193869Y-7885865D01*
X24203388Y-7893014D01*
X24231945Y-7907310D01*
X24270020Y-7914459D01*
X24346172Y-7914459D01*
X24365210Y-7907310D01*
X24374729Y-7900162D01*
X24384248Y-7885865D01*
X24384248Y-7857272D01*
X24374729Y-7842976D01*
X24365210Y-7835827D01*
X24346172Y-7828679D01*
X24298577Y-7828679D01*
X24279539Y-7835827D01*
X24270020Y-7842976D01*
X24260502Y-7857272D01*
X24260502Y-7885865D01*
X24270020Y-7900162D01*
X24279539Y-7907310D01*
X24298577Y-7914459D01*
X24365210Y-7971645D02*
X24374729Y-7978793D01*
X24384248Y-7993090D01*
X24384248Y-8028831D01*
X24374729Y-8043128D01*
X24365210Y-8050276D01*
X24346172Y-8057424D01*
X24327134Y-8057424D01*
X24298577Y-8050276D01*
X24184350Y-7964497D01*
X24184350Y-8057424D01*
X24184350Y-8236131D02*
X24317615Y-8236131D01*
X24298577Y-8236131D02*
X24308096Y-8243280D01*
X24317615Y-8257576D01*
X24317615Y-8279021D01*
X24308096Y-8293318D01*
X24289058Y-8300466D01*
X24184350Y-8300466D01*
X24289058Y-8300466D02*
X24308096Y-8307614D01*
X24317615Y-8321911D01*
X24317615Y-8343356D01*
X24308096Y-8357652D01*
X24289058Y-8364801D01*
X24184350Y-8364801D01*
X24184350Y-8436283D02*
X24317615Y-8436283D01*
X24298577Y-8436283D02*
X24308096Y-8443432D01*
X24317615Y-8457728D01*
X24317615Y-8479173D01*
X24308096Y-8493470D01*
X24289058Y-8500618D01*
X24184350Y-8500618D01*
X24289058Y-8500618D02*
X24308096Y-8507766D01*
X24317615Y-8522063D01*
X24317615Y-8543508D01*
X24308096Y-8557804D01*
X24289058Y-8564953D01*
X24184350Y-8564953D01*
X24155146Y-7340600D02*
X24155146Y-8559800D01*
X23241000Y-7340600D02*
X24394668Y-7340600D01*
X23241000Y-8559800D02*
X24394668Y-8559800D01*
X24155146Y-8559800D02*
X24096726Y-8447278D01*
X24155146Y-8559800D02*
X24213566Y-8447278D01*
X24155146Y-7340600D02*
X24096726Y-7453122D01*
X24155146Y-7340600D02*
X24213566Y-7453122D01*
X18451213Y-11109712D02*
X18379730Y-11109712D01*
X18372582Y-11204902D01*
X18379730Y-11195383D01*
X18394027Y-11185864D01*
X18429768Y-11185864D01*
X18444065Y-11195383D01*
X18451213Y-11204902D01*
X18458362Y-11223939D01*
X18458362Y-11271534D01*
X18451213Y-11290572D01*
X18444065Y-11300091D01*
X18429768Y-11309610D01*
X18394027Y-11309610D01*
X18379730Y-11300091D01*
X18372582Y-11290572D01*
X18529844Y-11300091D02*
X18529844Y-11309610D01*
X18522696Y-11328648D01*
X18515548Y-11338167D01*
X18622772Y-11109712D02*
X18637069Y-11109712D01*
X18651365Y-11119231D01*
X18658514Y-11128750D01*
X18665662Y-11147788D01*
X18672810Y-11185864D01*
X18672810Y-11233458D01*
X18665662Y-11271534D01*
X18658514Y-11290572D01*
X18651365Y-11300091D01*
X18637069Y-11309610D01*
X18622772Y-11309610D01*
X18608476Y-11300091D01*
X18601327Y-11290572D01*
X18594179Y-11271534D01*
X18587031Y-11233458D01*
X18587031Y-11185864D01*
X18594179Y-11147788D01*
X18601327Y-11128750D01*
X18608476Y-11119231D01*
X18622772Y-11109712D01*
X18758590Y-11195383D02*
X18744293Y-11185864D01*
X18737145Y-11176345D01*
X18729996Y-11157307D01*
X18729996Y-11147788D01*
X18737145Y-11128750D01*
X18744293Y-11119231D01*
X18758590Y-11109712D01*
X18787183Y-11109712D01*
X18801479Y-11119231D01*
X18808628Y-11128750D01*
X18815776Y-11147788D01*
X18815776Y-11157307D01*
X18808628Y-11176345D01*
X18801479Y-11185864D01*
X18787183Y-11195383D01*
X18758590Y-11195383D01*
X18744293Y-11204902D01*
X18737145Y-11214420D01*
X18729996Y-11233458D01*
X18729996Y-11271534D01*
X18737145Y-11290572D01*
X18744293Y-11300091D01*
X18758590Y-11309610D01*
X18787183Y-11309610D01*
X18801479Y-11300091D01*
X18808628Y-11290572D01*
X18815776Y-11271534D01*
X18815776Y-11233458D01*
X18808628Y-11214420D01*
X18801479Y-11204902D01*
X18787183Y-11195383D01*
X18908704Y-11109712D02*
X18923000Y-11109712D01*
X18937297Y-11119231D01*
X18944445Y-11128750D01*
X18951593Y-11147788D01*
X18958742Y-11185864D01*
X18958742Y-11233458D01*
X18951593Y-11271534D01*
X18944445Y-11290572D01*
X18937297Y-11300091D01*
X18923000Y-11309610D01*
X18908704Y-11309610D01*
X18894407Y-11300091D01*
X18887259Y-11290572D01*
X18880110Y-11271534D01*
X18872962Y-11233458D01*
X18872962Y-11185864D01*
X18880110Y-11147788D01*
X18887259Y-11128750D01*
X18894407Y-11119231D01*
X18908704Y-11109712D01*
X19137449Y-11309610D02*
X19137449Y-11176345D01*
X19137449Y-11195383D02*
X19144597Y-11185864D01*
X19158894Y-11176345D01*
X19180338Y-11176345D01*
X19194635Y-11185864D01*
X19201783Y-11204902D01*
X19201783Y-11309610D01*
X19201783Y-11204902D02*
X19208932Y-11185864D01*
X19223228Y-11176345D01*
X19244673Y-11176345D01*
X19258970Y-11185864D01*
X19266118Y-11204902D01*
X19266118Y-11309610D01*
X19337601Y-11309610D02*
X19337601Y-11176345D01*
X19337601Y-11195383D02*
X19344749Y-11185864D01*
X19359046Y-11176345D01*
X19380490Y-11176345D01*
X19394787Y-11185864D01*
X19401935Y-11204902D01*
X19401935Y-11309610D01*
X19401935Y-11204902D02*
X19409084Y-11185864D01*
X19423380Y-11176345D01*
X19444825Y-11176345D01*
X19459122Y-11185864D01*
X19466270Y-11204902D01*
X19466270Y-11309610D01*
X19177000Y-11099546D02*
X18669000Y-11099546D01*
X19177000Y-10287000D02*
X19177000Y-11339068D01*
X18669000Y-10287000D02*
X18669000Y-11339068D01*
X18669000Y-11099546D02*
X18781522Y-11041126D01*
X18669000Y-11099546D02*
X18781522Y-11157966D01*
X19177000Y-11099546D02*
X19064478Y-11041126D01*
X19177000Y-11099546D02*
X19064478Y-11157966D01*
X17696682Y-8043418D02*
X17687163Y-8036270D01*
X17677644Y-8021973D01*
X17677644Y-7986232D01*
X17687163Y-7971935D01*
X17696682Y-7964787D01*
X17715720Y-7957638D01*
X17734758Y-7957638D01*
X17763315Y-7964787D01*
X17877542Y-8050566D01*
X17877542Y-7957638D01*
X17868023Y-7886156D02*
X17877542Y-7886156D01*
X17896580Y-7893304D01*
X17906099Y-7900452D01*
X17677644Y-7750338D02*
X17677644Y-7821821D01*
X17772834Y-7828969D01*
X17763315Y-7821821D01*
X17753796Y-7807524D01*
X17753796Y-7771783D01*
X17763315Y-7757486D01*
X17772834Y-7750338D01*
X17791872Y-7743190D01*
X17839466Y-7743190D01*
X17858504Y-7750338D01*
X17868023Y-7757486D01*
X17877542Y-7771783D01*
X17877542Y-7807524D01*
X17868023Y-7821821D01*
X17858504Y-7828969D01*
X17744277Y-7614521D02*
X17877542Y-7614521D01*
X17668125Y-7650262D02*
X17810909Y-7686004D01*
X17810909Y-7593076D01*
X17677644Y-7507296D02*
X17677644Y-7493000D01*
X17687163Y-7478703D01*
X17696682Y-7471555D01*
X17715720Y-7464407D01*
X17753796Y-7457258D01*
X17801390Y-7457258D01*
X17839466Y-7464407D01*
X17858504Y-7471555D01*
X17868023Y-7478703D01*
X17877542Y-7493000D01*
X17877542Y-7507296D01*
X17868023Y-7521593D01*
X17858504Y-7528741D01*
X17839466Y-7535890D01*
X17801390Y-7543038D01*
X17753796Y-7543038D01*
X17715720Y-7535890D01*
X17696682Y-7528741D01*
X17687163Y-7521593D01*
X17677644Y-7507296D01*
X17877542Y-7278551D02*
X17744277Y-7278551D01*
X17763315Y-7278551D02*
X17753796Y-7271403D01*
X17744277Y-7257106D01*
X17744277Y-7235662D01*
X17753796Y-7221365D01*
X17772834Y-7214217D01*
X17877542Y-7214217D01*
X17772834Y-7214217D02*
X17753796Y-7207068D01*
X17744277Y-7192772D01*
X17744277Y-7171327D01*
X17753796Y-7157030D01*
X17772834Y-7149882D01*
X17877542Y-7149882D01*
X17877542Y-7078399D02*
X17744277Y-7078399D01*
X17763315Y-7078399D02*
X17753796Y-7071251D01*
X17744277Y-7056954D01*
X17744277Y-7035510D01*
X17753796Y-7021213D01*
X17772834Y-7014065D01*
X17877542Y-7014065D01*
X17772834Y-7014065D02*
X17753796Y-7006916D01*
X17744277Y-6992620D01*
X17744277Y-6971175D01*
X17753796Y-6956878D01*
X17772834Y-6949730D01*
X17877542Y-6949730D01*
X17907000Y-7620000D02*
X17907000Y-7366000D01*
X19177000Y-7620000D02*
X17667478Y-7620000D01*
X19177000Y-7366000D02*
X17667478Y-7366000D01*
X17907000Y-7366000D02*
X17965420Y-7478522D01*
X17907000Y-7366000D02*
X17848580Y-7478522D01*
X17907000Y-7620000D02*
X17965420Y-7507478D01*
X17907000Y-7620000D02*
X17848580Y-7507478D01*
X18334996Y-9863582D02*
X18344515Y-9870730D01*
X18354034Y-9885027D01*
X18354034Y-9920768D01*
X18344515Y-9935065D01*
X18334996Y-9942213D01*
X18315958Y-9949362D01*
X18296920Y-9949362D01*
X18268363Y-9942213D01*
X18154136Y-9856434D01*
X18154136Y-9949362D01*
X18163655Y-10020844D02*
X18154136Y-10020844D01*
X18135098Y-10013696D01*
X18125579Y-10006548D01*
X18354034Y-10156662D02*
X18354034Y-10085179D01*
X18258844Y-10078031D01*
X18268363Y-10085179D01*
X18277882Y-10099476D01*
X18277882Y-10135217D01*
X18268363Y-10149514D01*
X18258844Y-10156662D01*
X18239807Y-10163810D01*
X18192212Y-10163810D01*
X18173174Y-10156662D01*
X18163655Y-10149514D01*
X18154136Y-10135217D01*
X18154136Y-10099476D01*
X18163655Y-10085179D01*
X18173174Y-10078031D01*
X18287401Y-10292479D02*
X18154136Y-10292479D01*
X18363553Y-10256738D02*
X18220769Y-10220996D01*
X18220769Y-10313924D01*
X18354034Y-10399704D02*
X18354034Y-10414000D01*
X18344515Y-10428297D01*
X18334996Y-10435445D01*
X18315958Y-10442593D01*
X18277882Y-10449742D01*
X18230288Y-10449742D01*
X18192212Y-10442593D01*
X18173174Y-10435445D01*
X18163655Y-10428297D01*
X18154136Y-10414000D01*
X18154136Y-10399704D01*
X18163655Y-10385407D01*
X18173174Y-10378259D01*
X18192212Y-10371110D01*
X18230288Y-10363962D01*
X18277882Y-10363962D01*
X18315958Y-10371110D01*
X18334996Y-10378259D01*
X18344515Y-10385407D01*
X18354034Y-10399704D01*
X18154136Y-10628449D02*
X18287401Y-10628449D01*
X18268363Y-10628449D02*
X18277882Y-10635597D01*
X18287401Y-10649894D01*
X18287401Y-10671338D01*
X18277882Y-10685635D01*
X18258844Y-10692783D01*
X18154136Y-10692783D01*
X18258844Y-10692783D02*
X18277882Y-10699932D01*
X18287401Y-10714228D01*
X18287401Y-10735673D01*
X18277882Y-10749970D01*
X18258844Y-10757118D01*
X18154136Y-10757118D01*
X18154136Y-10828601D02*
X18287401Y-10828601D01*
X18268363Y-10828601D02*
X18277882Y-10835749D01*
X18287401Y-10850046D01*
X18287401Y-10871490D01*
X18277882Y-10885787D01*
X18258844Y-10892935D01*
X18154136Y-10892935D01*
X18258844Y-10892935D02*
X18277882Y-10900084D01*
X18287401Y-10914380D01*
X18287401Y-10935825D01*
X18277882Y-10950122D01*
X18258844Y-10957270D01*
X18154136Y-10957270D01*
X18364454Y-10287000D02*
X18364454Y-10541000D01*
X19177000Y-10287000D02*
X18124932Y-10287000D01*
X19177000Y-10541000D02*
X18124932Y-10541000D01*
X18364454Y-10541000D02*
X18306034Y-10428478D01*
X18364454Y-10541000D02*
X18422874Y-10428478D01*
X18364454Y-10287000D02*
X18306034Y-10399522D01*
X18364454Y-10287000D02*
X18422874Y-10399522D01*
D11*
X22538871Y-14165217D02*
X22538871Y-14300684D01*
X22502586Y-14087808D02*
X22466300Y-14232950D01*
X22560643Y-14232950D01*
X22625957Y-14291008D02*
X22625957Y-14300684D01*
X22618700Y-14320036D01*
X22611443Y-14329712D01*
X22676757Y-14097484D02*
X22771100Y-14097484D01*
X22720300Y-14174893D01*
X22742071Y-14174893D01*
X22756586Y-14184569D01*
X22763843Y-14194246D01*
X22771100Y-14213598D01*
X22771100Y-14261979D01*
X22763843Y-14281331D01*
X22756586Y-14291008D01*
X22742071Y-14300684D01*
X22698529Y-14300684D01*
X22684014Y-14291008D01*
X22676757Y-14281331D01*
X22916243Y-14300684D02*
X22829157Y-14300684D01*
X22872700Y-14300684D02*
X22872700Y-14097484D01*
X22858186Y-14126512D01*
X22843671Y-14145865D01*
X22829157Y-14155541D01*
X23003329Y-14184569D02*
X22988814Y-14174893D01*
X22981557Y-14165217D01*
X22974300Y-14145865D01*
X22974300Y-14136189D01*
X22981557Y-14116836D01*
X22988814Y-14107160D01*
X23003329Y-14097484D01*
X23032357Y-14097484D01*
X23046871Y-14107160D01*
X23054129Y-14116836D01*
X23061386Y-14136189D01*
X23061386Y-14145865D01*
X23054129Y-14165217D01*
X23046871Y-14174893D01*
X23032357Y-14184569D01*
X23003329Y-14184569D01*
X22988814Y-14194246D01*
X22981557Y-14203922D01*
X22974300Y-14223274D01*
X22974300Y-14261979D01*
X22981557Y-14281331D01*
X22988814Y-14291008D01*
X23003329Y-14300684D01*
X23032357Y-14300684D01*
X23046871Y-14291008D01*
X23054129Y-14281331D01*
X23061386Y-14261979D01*
X23061386Y-14223274D01*
X23054129Y-14203922D01*
X23046871Y-14194246D01*
X23032357Y-14184569D01*
X23242814Y-14300684D02*
X23242814Y-14165217D01*
X23242814Y-14184569D02*
X23250072Y-14174893D01*
X23264586Y-14165217D01*
X23286357Y-14165217D01*
X23300872Y-14174893D01*
X23308129Y-14194246D01*
X23308129Y-14300684D01*
X23308129Y-14194246D02*
X23315386Y-14174893D01*
X23329900Y-14165217D01*
X23351672Y-14165217D01*
X23366186Y-14174893D01*
X23373443Y-14194246D01*
X23373443Y-14300684D01*
X23446014Y-14300684D02*
X23446014Y-14165217D01*
X23446014Y-14184569D02*
X23453272Y-14174893D01*
X23467786Y-14165217D01*
X23489557Y-14165217D01*
X23504072Y-14174893D01*
X23511329Y-14194246D01*
X23511329Y-14300684D01*
X23511329Y-14194246D02*
X23518586Y-14174893D01*
X23533100Y-14165217D01*
X23554872Y-14165217D01*
X23569386Y-14174893D01*
X23576643Y-14194246D01*
X23576643Y-14300684D01*
X23241000Y-14046200D02*
X22809200Y-14046200D01*
X23241000Y-13843000D02*
X23241000Y-14371320D01*
X22809200Y-13843000D02*
X22809200Y-14371320D01*
X22809200Y-14046200D02*
X22921850Y-13987558D01*
X22809200Y-14046200D02*
X22921850Y-14104842D01*
X23241000Y-14046200D02*
X23128350Y-13987558D01*
X23241000Y-14046200D02*
X23128350Y-14104842D01*
X23779117Y-14113329D02*
X23914584Y-14113329D01*
X23701707Y-14149614D02*
X23846850Y-14185900D01*
X23846850Y-14091557D01*
X23904907Y-14026243D02*
X23914584Y-14026243D01*
X23933936Y-14033500D01*
X23943612Y-14040757D01*
X23711384Y-13975443D02*
X23711384Y-13881100D01*
X23788793Y-13931900D01*
X23788793Y-13910129D01*
X23798469Y-13895614D01*
X23808146Y-13888357D01*
X23827498Y-13881100D01*
X23875879Y-13881100D01*
X23895231Y-13888357D01*
X23904907Y-13895614D01*
X23914584Y-13910129D01*
X23914584Y-13953671D01*
X23904907Y-13968186D01*
X23895231Y-13975443D01*
X23914584Y-13735957D02*
X23914584Y-13823043D01*
X23914584Y-13779500D02*
X23711384Y-13779500D01*
X23740412Y-13794014D01*
X23759765Y-13808528D01*
X23769441Y-13823043D01*
X23798469Y-13648871D02*
X23788793Y-13663386D01*
X23779117Y-13670643D01*
X23759765Y-13677900D01*
X23750088Y-13677900D01*
X23730736Y-13670643D01*
X23721060Y-13663386D01*
X23711384Y-13648871D01*
X23711384Y-13619843D01*
X23721060Y-13605328D01*
X23730736Y-13598071D01*
X23750088Y-13590814D01*
X23759765Y-13590814D01*
X23779117Y-13598071D01*
X23788793Y-13605328D01*
X23798469Y-13619843D01*
X23798469Y-13648871D01*
X23808146Y-13663386D01*
X23817822Y-13670643D01*
X23837174Y-13677900D01*
X23875879Y-13677900D01*
X23895231Y-13670643D01*
X23904907Y-13663386D01*
X23914584Y-13648871D01*
X23914584Y-13619843D01*
X23904907Y-13605328D01*
X23895231Y-13598071D01*
X23875879Y-13590814D01*
X23837174Y-13590814D01*
X23817822Y-13598071D01*
X23808146Y-13605328D01*
X23798469Y-13619843D01*
X23914584Y-13409386D02*
X23779117Y-13409386D01*
X23798469Y-13409386D02*
X23788793Y-13402128D01*
X23779117Y-13387614D01*
X23779117Y-13365843D01*
X23788793Y-13351328D01*
X23808146Y-13344071D01*
X23914584Y-13344071D01*
X23808146Y-13344071D02*
X23788793Y-13336814D01*
X23779117Y-13322300D01*
X23779117Y-13300528D01*
X23788793Y-13286014D01*
X23808146Y-13278757D01*
X23914584Y-13278757D01*
X23914584Y-13206186D02*
X23779117Y-13206186D01*
X23798469Y-13206186D02*
X23788793Y-13198928D01*
X23779117Y-13184414D01*
X23779117Y-13162643D01*
X23788793Y-13148128D01*
X23808146Y-13140871D01*
X23914584Y-13140871D01*
X23808146Y-13140871D02*
X23788793Y-13133614D01*
X23779117Y-13119100D01*
X23779117Y-13097328D01*
X23788793Y-13082814D01*
X23808146Y-13075557D01*
X23914584Y-13075557D01*
X23660100Y-13843000D02*
X23660100Y-13411200D01*
X23241000Y-13843000D02*
X23985220Y-13843000D01*
X23241000Y-13411200D02*
X23985220Y-13411200D01*
X23660100Y-13411200D02*
X23718742Y-13523850D01*
X23660100Y-13411200D02*
X23601458Y-13523850D01*
X23660100Y-13843000D02*
X23718742Y-13730350D01*
X23660100Y-13843000D02*
X23601458Y-13730350D01*
X23955103Y-10372271D02*
X23819636Y-10372271D01*
X24032512Y-10335986D02*
X23887369Y-10299700D01*
X23887369Y-10394043D01*
X23829312Y-10459357D02*
X23819636Y-10459357D01*
X23800284Y-10452100D01*
X23790608Y-10444843D01*
X24022836Y-10510157D02*
X24022836Y-10604500D01*
X23945427Y-10553700D01*
X23945427Y-10575471D01*
X23935750Y-10589986D01*
X23926074Y-10597243D01*
X23906722Y-10604500D01*
X23858341Y-10604500D01*
X23838989Y-10597243D01*
X23829312Y-10589986D01*
X23819636Y-10575471D01*
X23819636Y-10531929D01*
X23829312Y-10517414D01*
X23838989Y-10510157D01*
X23819636Y-10749643D02*
X23819636Y-10662557D01*
X23819636Y-10706100D02*
X24022836Y-10706100D01*
X23993808Y-10691586D01*
X23974455Y-10677072D01*
X23964779Y-10662557D01*
X23935750Y-10836729D02*
X23945427Y-10822214D01*
X23955103Y-10814957D01*
X23974455Y-10807700D01*
X23984131Y-10807700D01*
X24003484Y-10814957D01*
X24013160Y-10822214D01*
X24022836Y-10836729D01*
X24022836Y-10865757D01*
X24013160Y-10880272D01*
X24003484Y-10887529D01*
X23984131Y-10894786D01*
X23974455Y-10894786D01*
X23955103Y-10887529D01*
X23945427Y-10880272D01*
X23935750Y-10865757D01*
X23935750Y-10836729D01*
X23926074Y-10822214D01*
X23916398Y-10814957D01*
X23897046Y-10807700D01*
X23858341Y-10807700D01*
X23838989Y-10814957D01*
X23829312Y-10822214D01*
X23819636Y-10836729D01*
X23819636Y-10865757D01*
X23829312Y-10880272D01*
X23838989Y-10887529D01*
X23858341Y-10894786D01*
X23897046Y-10894786D01*
X23916398Y-10887529D01*
X23926074Y-10880272D01*
X23935750Y-10865757D01*
X23819636Y-11076214D02*
X23955103Y-11076214D01*
X23935750Y-11076214D02*
X23945427Y-11083472D01*
X23955103Y-11097986D01*
X23955103Y-11119757D01*
X23945427Y-11134272D01*
X23926074Y-11141529D01*
X23819636Y-11141529D01*
X23926074Y-11141529D02*
X23945427Y-11148786D01*
X23955103Y-11163300D01*
X23955103Y-11185072D01*
X23945427Y-11199586D01*
X23926074Y-11206843D01*
X23819636Y-11206843D01*
X23819636Y-11279414D02*
X23955103Y-11279414D01*
X23935750Y-11279414D02*
X23945427Y-11286672D01*
X23955103Y-11301186D01*
X23955103Y-11322957D01*
X23945427Y-11337472D01*
X23926074Y-11344729D01*
X23819636Y-11344729D01*
X23926074Y-11344729D02*
X23945427Y-11351986D01*
X23955103Y-11366500D01*
X23955103Y-11388272D01*
X23945427Y-11402786D01*
X23926074Y-11410043D01*
X23819636Y-11410043D01*
X23749000Y-10642600D02*
X23749000Y-11074400D01*
X23241000Y-10642600D02*
X24074120Y-10642600D01*
X23241000Y-11074400D02*
X24074120Y-11074400D01*
X23749000Y-11074400D02*
X23690358Y-10961750D01*
X23749000Y-11074400D02*
X23807642Y-10961750D01*
X23749000Y-10642600D02*
X23690358Y-10755250D01*
X23749000Y-10642600D02*
X23807642Y-10755250D01*
D12*
X17214336Y-10716079D02*
X17214336Y-10630299D01*
X17214336Y-10673189D02*
X17414234Y-10673189D01*
X17385677Y-10658892D01*
X17366639Y-10644596D01*
X17357120Y-10630299D01*
X17395196Y-10773265D02*
X17404715Y-10780413D01*
X17414234Y-10794710D01*
X17414234Y-10830451D01*
X17404715Y-10844748D01*
X17395196Y-10851896D01*
X17376158Y-10859044D01*
X17357120Y-10859044D01*
X17328563Y-10851896D01*
X17214336Y-10766117D01*
X17214336Y-10859044D01*
X17223855Y-10930527D02*
X17214336Y-10930527D01*
X17195298Y-10923379D01*
X17185779Y-10916231D01*
X17214336Y-11073493D02*
X17214336Y-10987713D01*
X17214336Y-11030603D02*
X17414234Y-11030603D01*
X17385677Y-11016307D01*
X17366639Y-11002010D01*
X17357120Y-10987713D01*
X17214336Y-11144976D02*
X17214336Y-11173569D01*
X17223855Y-11187865D01*
X17233374Y-11195014D01*
X17261931Y-11209310D01*
X17300007Y-11216459D01*
X17376158Y-11216459D01*
X17395196Y-11209310D01*
X17404715Y-11202162D01*
X17414234Y-11187865D01*
X17414234Y-11159272D01*
X17404715Y-11144976D01*
X17395196Y-11137827D01*
X17376158Y-11130679D01*
X17328563Y-11130679D01*
X17309526Y-11137827D01*
X17300007Y-11144976D01*
X17290488Y-11159272D01*
X17290488Y-11187865D01*
X17300007Y-11202162D01*
X17309526Y-11209310D01*
X17328563Y-11216459D01*
X17395196Y-11273645D02*
X17404715Y-11280793D01*
X17414234Y-11295090D01*
X17414234Y-11330831D01*
X17404715Y-11345128D01*
X17395196Y-11352276D01*
X17376158Y-11359424D01*
X17357120Y-11359424D01*
X17328563Y-11352276D01*
X17214336Y-11266497D01*
X17214336Y-11359424D01*
X17214336Y-11538131D02*
X17347601Y-11538131D01*
X17328563Y-11538131D02*
X17338082Y-11545280D01*
X17347601Y-11559576D01*
X17347601Y-11581021D01*
X17338082Y-11595318D01*
X17319044Y-11602466D01*
X17214336Y-11602466D01*
X17319044Y-11602466D02*
X17338082Y-11609614D01*
X17347601Y-11623911D01*
X17347601Y-11645356D01*
X17338082Y-11659652D01*
X17319044Y-11666801D01*
X17214336Y-11666801D01*
X17214336Y-11738283D02*
X17347601Y-11738283D01*
X17328563Y-11738283D02*
X17338082Y-11745432D01*
X17347601Y-11759728D01*
X17347601Y-11781173D01*
X17338082Y-11795470D01*
X17319044Y-11802618D01*
X17214336Y-11802618D01*
X17319044Y-11802618D02*
X17338082Y-11809766D01*
X17347601Y-11824063D01*
X17347601Y-11845508D01*
X17338082Y-11859804D01*
X17319044Y-11866953D01*
X17214336Y-11866953D01*
X17424654Y-10642600D02*
X17424654Y-11861800D01*
X18669000Y-10642600D02*
X17185132Y-10642600D01*
X18669000Y-11861800D02*
X17185132Y-11861800D01*
X17424654Y-11861800D02*
X17366234Y-11749278D01*
X17424654Y-11861800D02*
X17483074Y-11749278D01*
X17424654Y-10642600D02*
X17366234Y-10755122D01*
X17424654Y-10642600D02*
X17483074Y-10755122D01*
X17521942Y-13769521D02*
X17521942Y-13855301D01*
X17521942Y-13812411D02*
X17322044Y-13812411D01*
X17350601Y-13826708D01*
X17369639Y-13841004D01*
X17379158Y-13855301D01*
X17341082Y-13712335D02*
X17331563Y-13705187D01*
X17322044Y-13690890D01*
X17322044Y-13655149D01*
X17331563Y-13640852D01*
X17341082Y-13633704D01*
X17360120Y-13626556D01*
X17379158Y-13626556D01*
X17407715Y-13633704D01*
X17521942Y-13719483D01*
X17521942Y-13626556D01*
X17512423Y-13555073D02*
X17521942Y-13555073D01*
X17540980Y-13562221D01*
X17550499Y-13569369D01*
X17521942Y-13412107D02*
X17521942Y-13497887D01*
X17521942Y-13454997D02*
X17322044Y-13454997D01*
X17350601Y-13469293D01*
X17369639Y-13483590D01*
X17379158Y-13497887D01*
X17521942Y-13340624D02*
X17521942Y-13312031D01*
X17512423Y-13297735D01*
X17502904Y-13290586D01*
X17474347Y-13276290D01*
X17436272Y-13269141D01*
X17360120Y-13269141D01*
X17341082Y-13276290D01*
X17331563Y-13283438D01*
X17322044Y-13297735D01*
X17322044Y-13326328D01*
X17331563Y-13340624D01*
X17341082Y-13347773D01*
X17360120Y-13354921D01*
X17407715Y-13354921D01*
X17426753Y-13347773D01*
X17436272Y-13340624D01*
X17445790Y-13326328D01*
X17445790Y-13297735D01*
X17436272Y-13283438D01*
X17426753Y-13276290D01*
X17407715Y-13269141D01*
X17341082Y-13211955D02*
X17331563Y-13204807D01*
X17322044Y-13190510D01*
X17322044Y-13154769D01*
X17331563Y-13140472D01*
X17341082Y-13133324D01*
X17360120Y-13126176D01*
X17379158Y-13126176D01*
X17407715Y-13133324D01*
X17521942Y-13219103D01*
X17521942Y-13126176D01*
X17521942Y-12947469D02*
X17388677Y-12947469D01*
X17407715Y-12947469D02*
X17398196Y-12940320D01*
X17388677Y-12926024D01*
X17388677Y-12904579D01*
X17398196Y-12890282D01*
X17417234Y-12883134D01*
X17521942Y-12883134D01*
X17417234Y-12883134D02*
X17398196Y-12875986D01*
X17388677Y-12861689D01*
X17388677Y-12840244D01*
X17398196Y-12825948D01*
X17417234Y-12818799D01*
X17521942Y-12818799D01*
X17521942Y-12747317D02*
X17388677Y-12747317D01*
X17407715Y-12747317D02*
X17398196Y-12740168D01*
X17388677Y-12725872D01*
X17388677Y-12704427D01*
X17398196Y-12690130D01*
X17417234Y-12682982D01*
X17521942Y-12682982D01*
X17417234Y-12682982D02*
X17398196Y-12675834D01*
X17388677Y-12661537D01*
X17388677Y-12640092D01*
X17398196Y-12625796D01*
X17417234Y-12618647D01*
X17521942Y-12618647D01*
X17551400Y-13843000D02*
X17551400Y-12623800D01*
X18669000Y-13843000D02*
X17311878Y-13843000D01*
X18669000Y-12623800D02*
X17311878Y-12623800D01*
X17551400Y-12623800D02*
X17609820Y-12736322D01*
X17551400Y-12623800D02*
X17492980Y-12736322D01*
X17551400Y-13843000D02*
X17609820Y-13730478D01*
X17551400Y-13843000D02*
X17492980Y-13730478D01*
X24184350Y-12697279D02*
X24184350Y-12611499D01*
X24184350Y-12654389D02*
X24384248Y-12654389D01*
X24355691Y-12640092D01*
X24336653Y-12625796D01*
X24327134Y-12611499D01*
X24365210Y-12754465D02*
X24374729Y-12761613D01*
X24384248Y-12775910D01*
X24384248Y-12811651D01*
X24374729Y-12825948D01*
X24365210Y-12833096D01*
X24346172Y-12840244D01*
X24327134Y-12840244D01*
X24298577Y-12833096D01*
X24184350Y-12747317D01*
X24184350Y-12840244D01*
X24193869Y-12911727D02*
X24184350Y-12911727D01*
X24165312Y-12904579D01*
X24155793Y-12897430D01*
X24184350Y-13054693D02*
X24184350Y-12968913D01*
X24184350Y-13011803D02*
X24384248Y-13011803D01*
X24355691Y-12997507D01*
X24336653Y-12983210D01*
X24327134Y-12968913D01*
X24184350Y-13126176D02*
X24184350Y-13154769D01*
X24193869Y-13169065D01*
X24203388Y-13176214D01*
X24231945Y-13190510D01*
X24270020Y-13197659D01*
X24346172Y-13197659D01*
X24365210Y-13190510D01*
X24374729Y-13183362D01*
X24384248Y-13169065D01*
X24384248Y-13140472D01*
X24374729Y-13126176D01*
X24365210Y-13119027D01*
X24346172Y-13111879D01*
X24298577Y-13111879D01*
X24279539Y-13119027D01*
X24270020Y-13126176D01*
X24260502Y-13140472D01*
X24260502Y-13169065D01*
X24270020Y-13183362D01*
X24279539Y-13190510D01*
X24298577Y-13197659D01*
X24365210Y-13254845D02*
X24374729Y-13261993D01*
X24384248Y-13276290D01*
X24384248Y-13312031D01*
X24374729Y-13326328D01*
X24365210Y-13333476D01*
X24346172Y-13340624D01*
X24327134Y-13340624D01*
X24298577Y-13333476D01*
X24184350Y-13247697D01*
X24184350Y-13340624D01*
X24184350Y-13519331D02*
X24317615Y-13519331D01*
X24298577Y-13519331D02*
X24308096Y-13526480D01*
X24317615Y-13540776D01*
X24317615Y-13562221D01*
X24308096Y-13576518D01*
X24289058Y-13583666D01*
X24184350Y-13583666D01*
X24289058Y-13583666D02*
X24308096Y-13590814D01*
X24317615Y-13605111D01*
X24317615Y-13626556D01*
X24308096Y-13640852D01*
X24289058Y-13648001D01*
X24184350Y-13648001D01*
X24184350Y-13719483D02*
X24317615Y-13719483D01*
X24298577Y-13719483D02*
X24308096Y-13726632D01*
X24317615Y-13740928D01*
X24317615Y-13762373D01*
X24308096Y-13776670D01*
X24289058Y-13783818D01*
X24184350Y-13783818D01*
X24289058Y-13783818D02*
X24308096Y-13790966D01*
X24317615Y-13805263D01*
X24317615Y-13826708D01*
X24308096Y-13841004D01*
X24289058Y-13848153D01*
X24184350Y-13848153D01*
X24155146Y-12623800D02*
X24155146Y-13843000D01*
X23241000Y-12623800D02*
X24394668Y-12623800D01*
X23241000Y-13843000D02*
X24394668Y-13843000D01*
X24155146Y-13843000D02*
X24096726Y-13730478D01*
X24155146Y-13843000D02*
X24213566Y-13730478D01*
X24155146Y-12623800D02*
X24096726Y-12736322D01*
X24155146Y-12623800D02*
X24213566Y-12736322D01*
X24184350Y-10716079D02*
X24184350Y-10630299D01*
X24184350Y-10673189D02*
X24384248Y-10673189D01*
X24355691Y-10658892D01*
X24336653Y-10644596D01*
X24327134Y-10630299D01*
X24365210Y-10773265D02*
X24374729Y-10780413D01*
X24384248Y-10794710D01*
X24384248Y-10830451D01*
X24374729Y-10844748D01*
X24365210Y-10851896D01*
X24346172Y-10859044D01*
X24327134Y-10859044D01*
X24298577Y-10851896D01*
X24184350Y-10766117D01*
X24184350Y-10859044D01*
X24193869Y-10930527D02*
X24184350Y-10930527D01*
X24165312Y-10923379D01*
X24155793Y-10916231D01*
X24184350Y-11073493D02*
X24184350Y-10987713D01*
X24184350Y-11030603D02*
X24384248Y-11030603D01*
X24355691Y-11016307D01*
X24336653Y-11002010D01*
X24327134Y-10987713D01*
X24184350Y-11144976D02*
X24184350Y-11173569D01*
X24193869Y-11187865D01*
X24203388Y-11195014D01*
X24231945Y-11209310D01*
X24270020Y-11216459D01*
X24346172Y-11216459D01*
X24365210Y-11209310D01*
X24374729Y-11202162D01*
X24384248Y-11187865D01*
X24384248Y-11159272D01*
X24374729Y-11144976D01*
X24365210Y-11137827D01*
X24346172Y-11130679D01*
X24298577Y-11130679D01*
X24279539Y-11137827D01*
X24270020Y-11144976D01*
X24260502Y-11159272D01*
X24260502Y-11187865D01*
X24270020Y-11202162D01*
X24279539Y-11209310D01*
X24298577Y-11216459D01*
X24365210Y-11273645D02*
X24374729Y-11280793D01*
X24384248Y-11295090D01*
X24384248Y-11330831D01*
X24374729Y-11345128D01*
X24365210Y-11352276D01*
X24346172Y-11359424D01*
X24327134Y-11359424D01*
X24298577Y-11352276D01*
X24184350Y-11266497D01*
X24184350Y-11359424D01*
X24184350Y-11538131D02*
X24317615Y-11538131D01*
X24298577Y-11538131D02*
X24308096Y-11545280D01*
X24317615Y-11559576D01*
X24317615Y-11581021D01*
X24308096Y-11595318D01*
X24289058Y-11602466D01*
X24184350Y-11602466D01*
X24289058Y-11602466D02*
X24308096Y-11609614D01*
X24317615Y-11623911D01*
X24317615Y-11645356D01*
X24308096Y-11659652D01*
X24289058Y-11666801D01*
X24184350Y-11666801D01*
X24184350Y-11738283D02*
X24317615Y-11738283D01*
X24298577Y-11738283D02*
X24308096Y-11745432D01*
X24317615Y-11759728D01*
X24317615Y-11781173D01*
X24308096Y-11795470D01*
X24289058Y-11802618D01*
X24184350Y-11802618D01*
X24289058Y-11802618D02*
X24308096Y-11809766D01*
X24317615Y-11824063D01*
X24317615Y-11845508D01*
X24308096Y-11859804D01*
X24289058Y-11866953D01*
X24184350Y-11866953D01*
X24155146Y-10642600D02*
X24155146Y-11861800D01*
X23241000Y-10642600D02*
X24394668Y-10642600D01*
X23241000Y-11861800D02*
X24394668Y-11861800D01*
X24155146Y-11861800D02*
X24096726Y-11749278D01*
X24155146Y-11861800D02*
X24213566Y-11749278D01*
X24155146Y-10642600D02*
X24096726Y-10755122D01*
X24155146Y-10642600D02*
X24213566Y-10755122D01*
X18451213Y-14411712D02*
X18379730Y-14411712D01*
X18372582Y-14506902D01*
X18379730Y-14497383D01*
X18394027Y-14487864D01*
X18429768Y-14487864D01*
X18444065Y-14497383D01*
X18451213Y-14506902D01*
X18458362Y-14525939D01*
X18458362Y-14573534D01*
X18451213Y-14592572D01*
X18444065Y-14602091D01*
X18429768Y-14611610D01*
X18394027Y-14611610D01*
X18379730Y-14602091D01*
X18372582Y-14592572D01*
X18529844Y-14602091D02*
X18529844Y-14611610D01*
X18522696Y-14630648D01*
X18515548Y-14640167D01*
X18622772Y-14411712D02*
X18637069Y-14411712D01*
X18651365Y-14421231D01*
X18658514Y-14430750D01*
X18665662Y-14449788D01*
X18672810Y-14487864D01*
X18672810Y-14535458D01*
X18665662Y-14573534D01*
X18658514Y-14592572D01*
X18651365Y-14602091D01*
X18637069Y-14611610D01*
X18622772Y-14611610D01*
X18608476Y-14602091D01*
X18601327Y-14592572D01*
X18594179Y-14573534D01*
X18587031Y-14535458D01*
X18587031Y-14487864D01*
X18594179Y-14449788D01*
X18601327Y-14430750D01*
X18608476Y-14421231D01*
X18622772Y-14411712D01*
X18758590Y-14497383D02*
X18744293Y-14487864D01*
X18737145Y-14478345D01*
X18729996Y-14459307D01*
X18729996Y-14449788D01*
X18737145Y-14430750D01*
X18744293Y-14421231D01*
X18758590Y-14411712D01*
X18787183Y-14411712D01*
X18801479Y-14421231D01*
X18808628Y-14430750D01*
X18815776Y-14449788D01*
X18815776Y-14459307D01*
X18808628Y-14478345D01*
X18801479Y-14487864D01*
X18787183Y-14497383D01*
X18758590Y-14497383D01*
X18744293Y-14506902D01*
X18737145Y-14516420D01*
X18729996Y-14535458D01*
X18729996Y-14573534D01*
X18737145Y-14592572D01*
X18744293Y-14602091D01*
X18758590Y-14611610D01*
X18787183Y-14611610D01*
X18801479Y-14602091D01*
X18808628Y-14592572D01*
X18815776Y-14573534D01*
X18815776Y-14535458D01*
X18808628Y-14516420D01*
X18801479Y-14506902D01*
X18787183Y-14497383D01*
X18908704Y-14411712D02*
X18923000Y-14411712D01*
X18937297Y-14421231D01*
X18944445Y-14430750D01*
X18951593Y-14449788D01*
X18958742Y-14487864D01*
X18958742Y-14535458D01*
X18951593Y-14573534D01*
X18944445Y-14592572D01*
X18937297Y-14602091D01*
X18923000Y-14611610D01*
X18908704Y-14611610D01*
X18894407Y-14602091D01*
X18887259Y-14592572D01*
X18880110Y-14573534D01*
X18872962Y-14535458D01*
X18872962Y-14487864D01*
X18880110Y-14449788D01*
X18887259Y-14430750D01*
X18894407Y-14421231D01*
X18908704Y-14411712D01*
X19137449Y-14611610D02*
X19137449Y-14478345D01*
X19137449Y-14497383D02*
X19144597Y-14487864D01*
X19158894Y-14478345D01*
X19180338Y-14478345D01*
X19194635Y-14487864D01*
X19201783Y-14506902D01*
X19201783Y-14611610D01*
X19201783Y-14506902D02*
X19208932Y-14487864D01*
X19223228Y-14478345D01*
X19244673Y-14478345D01*
X19258970Y-14487864D01*
X19266118Y-14506902D01*
X19266118Y-14611610D01*
X19337601Y-14611610D02*
X19337601Y-14478345D01*
X19337601Y-14497383D02*
X19344749Y-14487864D01*
X19359046Y-14478345D01*
X19380490Y-14478345D01*
X19394787Y-14487864D01*
X19401935Y-14506902D01*
X19401935Y-14611610D01*
X19401935Y-14506902D02*
X19409084Y-14487864D01*
X19423380Y-14478345D01*
X19444825Y-14478345D01*
X19459122Y-14487864D01*
X19466270Y-14506902D01*
X19466270Y-14611610D01*
X19177000Y-14401546D02*
X18669000Y-14401546D01*
X19177000Y-13589000D02*
X19177000Y-14641068D01*
X18669000Y-13589000D02*
X18669000Y-14641068D01*
X18669000Y-14401546D02*
X18781522Y-14343126D01*
X18669000Y-14401546D02*
X18781522Y-14459966D01*
X19177000Y-14401546D02*
X19064478Y-14343126D01*
X19177000Y-14401546D02*
X19064478Y-14459966D01*
X17696682Y-11345418D02*
X17687163Y-11338270D01*
X17677644Y-11323973D01*
X17677644Y-11288232D01*
X17687163Y-11273935D01*
X17696682Y-11266787D01*
X17715720Y-11259638D01*
X17734758Y-11259638D01*
X17763315Y-11266787D01*
X17877542Y-11352566D01*
X17877542Y-11259638D01*
X17868023Y-11188156D02*
X17877542Y-11188156D01*
X17896580Y-11195304D01*
X17906099Y-11202452D01*
X17677644Y-11052338D02*
X17677644Y-11123821D01*
X17772834Y-11130969D01*
X17763315Y-11123821D01*
X17753796Y-11109525D01*
X17753796Y-11073783D01*
X17763315Y-11059487D01*
X17772834Y-11052338D01*
X17791872Y-11045190D01*
X17839466Y-11045190D01*
X17858504Y-11052338D01*
X17868023Y-11059487D01*
X17877542Y-11073783D01*
X17877542Y-11109525D01*
X17868023Y-11123821D01*
X17858504Y-11130969D01*
X17744277Y-10916521D02*
X17877542Y-10916521D01*
X17668125Y-10952262D02*
X17810909Y-10988004D01*
X17810909Y-10895076D01*
X17677644Y-10809297D02*
X17677644Y-10795000D01*
X17687163Y-10780703D01*
X17696682Y-10773555D01*
X17715720Y-10766407D01*
X17753796Y-10759259D01*
X17801390Y-10759259D01*
X17839466Y-10766407D01*
X17858504Y-10773555D01*
X17868023Y-10780703D01*
X17877542Y-10795000D01*
X17877542Y-10809297D01*
X17868023Y-10823593D01*
X17858504Y-10830741D01*
X17839466Y-10837890D01*
X17801390Y-10845038D01*
X17753796Y-10845038D01*
X17715720Y-10837890D01*
X17696682Y-10830741D01*
X17687163Y-10823593D01*
X17677644Y-10809297D01*
X17877542Y-10580551D02*
X17744277Y-10580551D01*
X17763315Y-10580551D02*
X17753796Y-10573403D01*
X17744277Y-10559107D01*
X17744277Y-10537662D01*
X17753796Y-10523365D01*
X17772834Y-10516217D01*
X17877542Y-10516217D01*
X17772834Y-10516217D02*
X17753796Y-10509069D01*
X17744277Y-10494772D01*
X17744277Y-10473327D01*
X17753796Y-10459031D01*
X17772834Y-10451882D01*
X17877542Y-10451882D01*
X17877542Y-10380399D02*
X17744277Y-10380399D01*
X17763315Y-10380399D02*
X17753796Y-10373251D01*
X17744277Y-10358955D01*
X17744277Y-10337510D01*
X17753796Y-10323213D01*
X17772834Y-10316065D01*
X17877542Y-10316065D01*
X17772834Y-10316065D02*
X17753796Y-10308917D01*
X17744277Y-10294620D01*
X17744277Y-10273175D01*
X17753796Y-10258879D01*
X17772834Y-10251730D01*
X17877542Y-10251730D01*
X17907000Y-10922000D02*
X17907000Y-10668000D01*
X19177000Y-10922000D02*
X17667478Y-10922000D01*
X19177000Y-10668000D02*
X17667478Y-10668000D01*
X17907000Y-10668000D02*
X17965420Y-10780522D01*
X17907000Y-10668000D02*
X17848580Y-10780522D01*
X17907000Y-10922000D02*
X17965420Y-10809478D01*
X17907000Y-10922000D02*
X17848580Y-10809478D01*
X18334996Y-13165582D02*
X18344515Y-13172730D01*
X18354034Y-13187027D01*
X18354034Y-13222768D01*
X18344515Y-13237065D01*
X18334996Y-13244213D01*
X18315958Y-13251361D01*
X18296920Y-13251361D01*
X18268363Y-13244213D01*
X18154136Y-13158434D01*
X18154136Y-13251361D01*
X18163655Y-13322844D02*
X18154136Y-13322844D01*
X18135098Y-13315696D01*
X18125579Y-13308548D01*
X18354034Y-13458662D02*
X18354034Y-13387179D01*
X18258844Y-13380031D01*
X18268363Y-13387179D01*
X18277882Y-13401475D01*
X18277882Y-13437217D01*
X18268363Y-13451513D01*
X18258844Y-13458662D01*
X18239807Y-13465810D01*
X18192212Y-13465810D01*
X18173174Y-13458662D01*
X18163655Y-13451513D01*
X18154136Y-13437217D01*
X18154136Y-13401475D01*
X18163655Y-13387179D01*
X18173174Y-13380031D01*
X18287401Y-13594479D02*
X18154136Y-13594479D01*
X18363553Y-13558738D02*
X18220769Y-13522996D01*
X18220769Y-13615924D01*
X18354034Y-13701703D02*
X18354034Y-13716000D01*
X18344515Y-13730297D01*
X18334996Y-13737445D01*
X18315958Y-13744593D01*
X18277882Y-13751741D01*
X18230288Y-13751741D01*
X18192212Y-13744593D01*
X18173174Y-13737445D01*
X18163655Y-13730297D01*
X18154136Y-13716000D01*
X18154136Y-13701703D01*
X18163655Y-13687407D01*
X18173174Y-13680259D01*
X18192212Y-13673110D01*
X18230288Y-13665962D01*
X18277882Y-13665962D01*
X18315958Y-13673110D01*
X18334996Y-13680259D01*
X18344515Y-13687407D01*
X18354034Y-13701703D01*
X18154136Y-13930449D02*
X18287401Y-13930449D01*
X18268363Y-13930449D02*
X18277882Y-13937597D01*
X18287401Y-13951893D01*
X18287401Y-13973338D01*
X18277882Y-13987635D01*
X18258844Y-13994783D01*
X18154136Y-13994783D01*
X18258844Y-13994783D02*
X18277882Y-14001931D01*
X18287401Y-14016228D01*
X18287401Y-14037673D01*
X18277882Y-14051969D01*
X18258844Y-14059118D01*
X18154136Y-14059118D01*
X18154136Y-14130601D02*
X18287401Y-14130601D01*
X18268363Y-14130601D02*
X18277882Y-14137749D01*
X18287401Y-14152045D01*
X18287401Y-14173490D01*
X18277882Y-14187787D01*
X18258844Y-14194935D01*
X18154136Y-14194935D01*
X18258844Y-14194935D02*
X18277882Y-14202083D01*
X18287401Y-14216380D01*
X18287401Y-14237825D01*
X18277882Y-14252121D01*
X18258844Y-14259270D01*
X18154136Y-14259270D01*
X18364454Y-13589000D02*
X18364454Y-13843000D01*
X19177000Y-13589000D02*
X18124932Y-13589000D01*
X19177000Y-13843000D02*
X18124932Y-13843000D01*
X18364454Y-13843000D02*
X18306034Y-13730478D01*
X18364454Y-13843000D02*
X18422874Y-13730478D01*
X18364454Y-13589000D02*
X18306034Y-13701522D01*
X18364454Y-13589000D02*
X18422874Y-13701522D01*
D13*
X23159200Y-4470400D02*
G75*
G03X23159200Y-4470400I-350000J0D01*
G01*
X23159200Y-6807200D02*
G75*
G03X23159200Y-6807200I-350000J0D01*
G01*
X23159200Y-7772400D02*
G75*
G03X23159200Y-7772400I-350000J0D01*
G01*
X23159200Y-10109200D02*
G75*
G03X23159200Y-10109200I-350000J0D01*
G01*
X23159200Y-11074400D02*
G75*
G03X23159200Y-11074400I-350000J0D01*
G01*
X23159200Y-13411200D02*
G75*
G03X23159200Y-13411200I-350000J0D01*
G01*
M02*
