G04 #@! TF.FileFunction,Copper,L4,Bot,Signal*
%FSLAX45Y45*%
G04 Gerber Fmt 4.5, Leading zero omitted, Abs format (unit mm)*
G04 Created by KiCad (PCBNEW (after 2015-may-25 BZR unknown)-product) date 15/07/2015 13:23:27*
%MOMM*%
G01*
G04 APERTURE LIST*
%ADD10C,0.150000*%
%ADD11R,1.524000X1.524000*%
%ADD12C,1.524000*%
%ADD13C,1.998980*%
%ADD14R,2.235200X2.235200*%
%ADD15C,0.800100*%
%ADD16C,0.254000*%
%ADD17C,0.508000*%
G04 APERTURE END LIST*
D10*
D11*
X22987000Y-5257800D03*
D12*
X22987000Y-5511800D03*
X22987000Y-5765800D03*
X22987000Y-6019800D03*
D11*
X21209000Y-4318000D03*
D12*
X21463000Y-4318000D03*
X21717000Y-4318000D03*
X21971000Y-4318000D03*
D11*
X20193000Y-4318000D03*
D12*
X20447000Y-4318000D03*
X20701000Y-4318000D03*
X20955000Y-4318000D03*
D11*
X19177000Y-4318000D03*
D12*
X19431000Y-4318000D03*
X19685000Y-4318000D03*
X19939000Y-4318000D03*
D11*
X21209000Y-6985000D03*
D12*
X21463000Y-6985000D03*
X21717000Y-6985000D03*
X21971000Y-6985000D03*
D11*
X20193000Y-6985000D03*
D12*
X20447000Y-6985000D03*
X20701000Y-6985000D03*
X20955000Y-6985000D03*
D11*
X19177000Y-6985000D03*
D12*
X19431000Y-6985000D03*
X19685000Y-6985000D03*
X19939000Y-6985000D03*
D11*
X18923000Y-5257800D03*
D12*
X18923000Y-5511800D03*
X18923000Y-5765800D03*
X18923000Y-6019800D03*
D11*
X22987000Y-8559800D03*
D12*
X22987000Y-8813800D03*
X22987000Y-9067800D03*
X22987000Y-9321800D03*
D11*
X21209000Y-7620000D03*
D12*
X21463000Y-7620000D03*
X21717000Y-7620000D03*
X21971000Y-7620000D03*
D11*
X20193000Y-7620000D03*
D12*
X20447000Y-7620000D03*
X20701000Y-7620000D03*
X20955000Y-7620000D03*
D11*
X19177000Y-7620000D03*
D12*
X19431000Y-7620000D03*
X19685000Y-7620000D03*
X19939000Y-7620000D03*
D11*
X21209000Y-10287000D03*
D12*
X21463000Y-10287000D03*
X21717000Y-10287000D03*
X21971000Y-10287000D03*
D11*
X20193000Y-10287000D03*
D12*
X20447000Y-10287000D03*
X20701000Y-10287000D03*
X20955000Y-10287000D03*
D11*
X19177000Y-10287000D03*
D12*
X19431000Y-10287000D03*
X19685000Y-10287000D03*
X19939000Y-10287000D03*
D11*
X18923000Y-8559800D03*
D12*
X18923000Y-8813800D03*
X18923000Y-9067800D03*
X18923000Y-9321800D03*
D13*
X20764500Y-8699500D03*
X21018500Y-8699500D03*
X22034500Y-8699500D03*
X22542500Y-8699500D03*
X20764500Y-9334500D03*
X21018500Y-9334500D03*
X22034500Y-9334500D03*
X22542500Y-9334500D03*
D11*
X21209000Y-10922000D03*
D12*
X21463000Y-10922000D03*
X21717000Y-10922000D03*
X21971000Y-10922000D03*
D11*
X20193000Y-10922000D03*
D12*
X20447000Y-10922000D03*
X20701000Y-10922000D03*
X20955000Y-10922000D03*
D11*
X19177000Y-10922000D03*
D12*
X19431000Y-10922000D03*
X19685000Y-10922000D03*
X19939000Y-10922000D03*
D11*
X21209000Y-13589000D03*
D12*
X21463000Y-13589000D03*
X21717000Y-13589000D03*
X21971000Y-13589000D03*
D11*
X20193000Y-13589000D03*
D12*
X20447000Y-13589000D03*
X20701000Y-13589000D03*
X20955000Y-13589000D03*
D11*
X19177000Y-13589000D03*
D12*
X19431000Y-13589000D03*
X19685000Y-13589000D03*
X19939000Y-13589000D03*
D11*
X18923000Y-11861800D03*
D12*
X18923000Y-12115800D03*
X18923000Y-12369800D03*
X18923000Y-12623800D03*
D14*
X19939000Y-13309600D03*
X19608800Y-13309600D03*
X19278600Y-13309600D03*
X19608800Y-13004800D03*
D15*
X21590000Y-9118600D03*
X19761200Y-9093200D03*
X19685000Y-5791200D03*
X20789900Y-5994400D03*
X19380200Y-8890000D03*
X19380200Y-5588000D03*
X19380200Y-8737600D03*
X19380200Y-5435600D03*
X21386800Y-5092700D03*
X20967700Y-4978400D03*
X20510500Y-6248400D03*
X21247100Y-6019800D03*
X20396200Y-8305800D03*
X20256500Y-5003800D03*
X20497800Y-8788400D03*
X20256500Y-5486400D03*
X19964400Y-8915400D03*
X21361400Y-8890000D03*
X19926300Y-5727700D03*
X20383500Y-5727700D03*
X19862800Y-9017000D03*
X21463000Y-9017000D03*
X20650200Y-5842000D03*
X19812000Y-5829300D03*
X20231100Y-12026900D03*
X20294600Y-11963400D03*
X19950950Y-12229350D03*
X22275800Y-12852400D03*
X21094700Y-12395200D03*
X21094700Y-12255500D03*
X19735800Y-11632000D03*
X20295350Y-12294350D03*
X20302050Y-12489350D03*
X22644100Y-12026900D03*
X22644100Y-11912600D03*
X22237700Y-11988800D03*
X22377400Y-11798300D03*
X19342100Y-7874000D03*
X19494500Y-7874000D03*
X20256500Y-9728200D03*
X19291300Y-4572000D03*
X20866100Y-5295900D03*
X20307300Y-6426200D03*
X20840700Y-6324600D03*
X19507200Y-4572000D03*
X19544100Y-4712900D03*
X20523200Y-12877800D03*
X19240500Y-8343900D03*
X20497800Y-9652000D03*
X20497800Y-8382000D03*
X20853400Y-5067300D03*
X20853400Y-6642100D03*
X19354800Y-5003800D03*
X22479000Y-12407900D03*
X21247100Y-12560300D03*
X22453600Y-12242800D03*
X21374100Y-12458700D03*
X20193000Y-12395200D03*
X19951700Y-12026900D03*
X20523200Y-13271500D03*
X20675600Y-13271500D03*
X20370800Y-13271500D03*
X21615400Y-11747500D03*
X21615400Y-11925300D03*
D16*
X21590000Y-9194800D02*
X21590000Y-9880600D01*
X21590000Y-9118600D02*
X21590000Y-9194800D01*
X21590000Y-9118600D02*
X21590000Y-8128000D01*
X21615400Y-7797800D02*
X21590000Y-7823200D01*
X21590000Y-7823200D02*
X21590000Y-8128000D01*
X21971000Y-10261600D02*
X21971000Y-10287000D01*
X21971000Y-7747000D02*
X21971000Y-7620000D01*
X21590000Y-9880600D02*
X21691600Y-9982200D01*
X21691600Y-9982200D02*
X21971000Y-10261600D01*
X21920200Y-7797800D02*
X21615400Y-7797800D01*
X21971000Y-7747000D02*
X21920200Y-7797800D01*
X21971000Y-6959600D02*
X21971000Y-6985000D01*
X21971000Y-6985000D02*
X21971000Y-6959600D01*
X21920200Y-4495800D02*
X21628100Y-4495800D01*
X21971000Y-4445000D02*
X21920200Y-4495800D01*
X21971000Y-4445000D02*
X21971000Y-4318000D01*
X20789900Y-5994400D02*
X20789900Y-5702300D01*
X20789900Y-5702300D02*
X21069300Y-5422900D01*
X20789900Y-5994400D02*
X20904200Y-6108700D01*
X20904200Y-6108700D02*
X20993100Y-6108700D01*
X21082000Y-6223000D02*
X21082000Y-6210300D01*
X21082000Y-6350000D02*
X21082000Y-6223000D01*
X21139150Y-6407150D02*
X21082000Y-6350000D01*
X21139150Y-6438900D02*
X21139150Y-6635750D01*
X21577300Y-6819900D02*
X21831300Y-6819900D01*
X21475700Y-6718300D02*
X21577300Y-6819900D01*
X21221700Y-6718300D02*
X21475700Y-6718300D01*
X21139150Y-6635750D02*
X21221700Y-6718300D01*
X21971000Y-6959600D02*
X21831300Y-6819900D01*
X21139150Y-6438900D02*
X21139150Y-6407150D01*
X21056600Y-6172200D02*
X21069300Y-6184900D01*
X20993100Y-6108700D02*
X21056600Y-6172200D01*
X21069300Y-6184900D02*
X21082000Y-6197600D01*
X21069300Y-6184900D02*
X21056600Y-6172200D01*
X21082000Y-6197600D02*
X21069300Y-6184900D01*
X21082000Y-6223000D02*
X21082000Y-6197600D01*
X21513800Y-4495800D02*
X21297900Y-4711700D01*
X21297900Y-4711700D02*
X21297900Y-4864100D01*
X21170900Y-5080000D02*
X21139150Y-5111750D01*
X21628100Y-4495800D02*
X21513800Y-4495800D01*
X21069300Y-5410200D02*
X21069300Y-5422900D01*
X21069300Y-5422900D02*
X21069300Y-5410200D01*
X21069300Y-5181600D02*
X21069300Y-5422900D01*
X21139150Y-5111750D02*
X21069300Y-5181600D01*
X21170900Y-5067300D02*
X21170900Y-5080000D01*
X21170900Y-5080000D02*
X21170900Y-5067300D01*
X21170900Y-4991100D02*
X21170900Y-5080000D01*
X21297900Y-4864100D02*
X21170900Y-4991100D01*
X19634200Y-8204200D02*
X19634200Y-7823200D01*
X19634200Y-8458200D02*
X19634200Y-8204200D01*
X19431000Y-10287000D02*
X19431000Y-8940800D01*
X19431000Y-8940800D02*
X19380200Y-8890000D01*
X19126200Y-8788400D02*
X19100800Y-8813800D01*
X19507200Y-8585200D02*
X19634200Y-8458200D01*
X19329400Y-8585200D02*
X19507200Y-8585200D01*
X19329400Y-8585200D02*
X19126200Y-8788400D01*
X19634200Y-7823200D02*
X19431000Y-7620000D01*
X19100800Y-8813800D02*
X18923000Y-8813800D01*
X19634200Y-5156200D02*
X19634200Y-4902200D01*
X19100800Y-5511800D02*
X18923000Y-5511800D01*
X19329400Y-5283200D02*
X19507200Y-5283200D01*
X19329400Y-5283200D02*
X19126200Y-5486400D01*
X19532600Y-4419600D02*
X19431000Y-4318000D01*
X19126200Y-5486400D02*
X19100800Y-5511800D01*
X19507200Y-5283200D02*
X19634200Y-5156200D01*
X19431000Y-6756400D02*
X19189700Y-6515100D01*
X19189700Y-6515100D02*
X19189700Y-5943600D01*
X19189700Y-5943600D02*
X19380200Y-5753100D01*
X19380200Y-5753100D02*
X19380200Y-5588000D01*
X19431000Y-6985000D02*
X19431000Y-6756400D01*
X19634200Y-4521200D02*
X19532600Y-4419600D01*
X19634200Y-4902200D02*
X19634200Y-4521200D01*
X19761200Y-8585200D02*
X19608800Y-8737600D01*
X19608800Y-8737600D02*
X19558000Y-8737600D01*
X19532600Y-8890000D02*
X19532600Y-8737600D01*
X19532600Y-8737600D02*
X19558000Y-8737600D01*
X19685000Y-10033000D02*
X19532600Y-9880600D01*
X19532600Y-9880600D02*
X19532600Y-8890000D01*
X19761200Y-8153400D02*
X19761200Y-7696200D01*
X19761200Y-8153400D02*
X19761200Y-8585200D01*
X19761200Y-7696200D02*
X19685000Y-7620000D01*
X19558000Y-8737600D02*
X19380200Y-8737600D01*
X19380200Y-8737600D02*
X19380200Y-8737600D01*
X19380200Y-8737600D02*
X19227800Y-8890000D01*
X19227800Y-8890000D02*
X19227800Y-9017000D01*
X19227800Y-9017000D02*
X19177000Y-9067800D01*
X19177000Y-9067800D02*
X18923000Y-9067800D01*
X19380200Y-8737600D02*
X19380200Y-8737600D01*
X19685000Y-10287000D02*
X19685000Y-10033000D01*
X19227800Y-5715000D02*
X19177000Y-5765800D01*
X19177000Y-5765800D02*
X18923000Y-5765800D01*
X19227800Y-5588000D02*
X19227800Y-5715000D01*
X19380200Y-5435600D02*
X19380200Y-5435600D01*
X19380200Y-5435600D02*
X19227800Y-5588000D01*
X19380200Y-5435600D02*
X19380200Y-5435600D01*
X19481800Y-5435600D02*
X19380200Y-5435600D01*
X19558000Y-5435600D02*
X19481800Y-5435600D01*
X19761200Y-4851400D02*
X19761200Y-5283200D01*
X19608800Y-5435600D02*
X19558000Y-5435600D01*
X19761200Y-5283200D02*
X19608800Y-5435600D01*
X19761200Y-4851400D02*
X19761200Y-4851400D01*
X19532600Y-5435600D02*
X19558000Y-5435600D01*
X19367500Y-6451600D02*
X19367500Y-5930900D01*
X19685000Y-6769100D02*
X19367500Y-6451600D01*
X19685000Y-6985000D02*
X19685000Y-6769100D01*
X19481800Y-5816600D02*
X19367500Y-5930900D01*
X19481800Y-5435600D02*
X19481800Y-5816600D01*
X19761200Y-4394200D02*
X19685000Y-4318000D01*
X19761200Y-4851400D02*
X19761200Y-4394200D01*
X20726400Y-4991100D02*
X20510500Y-5207000D01*
X20510500Y-6248400D02*
X20510500Y-5207000D01*
X20739100Y-4978400D02*
X20726400Y-4991100D01*
X20967700Y-4978400D02*
X20739100Y-4978400D01*
X19913600Y-8001000D02*
X19913600Y-8636000D01*
X19913600Y-8636000D02*
X19659600Y-8890000D01*
X19659600Y-8890000D02*
X19659600Y-9753600D01*
X20193000Y-7721600D02*
X19913600Y-8001000D01*
X19659600Y-9753600D02*
X20193000Y-10287000D01*
X20193000Y-7620000D02*
X20193000Y-7721600D01*
X20193000Y-4419600D02*
X19913600Y-4699000D01*
X19659600Y-6451600D02*
X20193000Y-6985000D01*
X19913600Y-4699000D02*
X19913600Y-5334000D01*
X20193000Y-4318000D02*
X20193000Y-4419600D01*
X19913600Y-5334000D02*
X19659600Y-5588000D01*
X19570700Y-5676900D02*
X19570700Y-6362700D01*
X19570700Y-6362700D02*
X19659600Y-6451600D01*
X19659600Y-5588000D02*
X19570700Y-5676900D01*
X20243800Y-9017000D02*
X20243800Y-7899400D01*
X20116800Y-9880600D02*
X20116800Y-9144000D01*
X20447000Y-10210800D02*
X20116800Y-9880600D01*
X20116800Y-9144000D02*
X20243800Y-9017000D01*
X20243800Y-7899400D02*
X20447000Y-7696200D01*
X20447000Y-7696200D02*
X20447000Y-7620000D01*
X20447000Y-10287000D02*
X20447000Y-10210800D01*
X20447000Y-4394200D02*
X20447000Y-4318000D01*
X20447000Y-6985000D02*
X20447000Y-6908800D01*
X20243800Y-4597400D02*
X20447000Y-4394200D01*
X20116800Y-4724400D02*
X20243800Y-4597400D01*
X20066000Y-5626100D02*
X20002500Y-5562600D01*
X20002500Y-5562600D02*
X20002500Y-4838700D01*
X20002500Y-4838700D02*
X20116800Y-4724400D01*
X19888200Y-6489700D02*
X20142200Y-6743700D01*
X19888200Y-6108700D02*
X19888200Y-6489700D01*
X20053300Y-5943600D02*
X19888200Y-6108700D01*
X20066000Y-5930900D02*
X20053300Y-5943600D01*
X20066000Y-5626100D02*
X20066000Y-5930900D01*
X20447000Y-6870700D02*
X20383500Y-6807200D01*
X20383500Y-6807200D02*
X20205700Y-6807200D01*
X20205700Y-6807200D02*
X20142200Y-6743700D01*
X20447000Y-6985000D02*
X20447000Y-6870700D01*
X20396200Y-9702800D02*
X20396200Y-8305800D01*
X20396200Y-8051800D02*
X20701000Y-7747000D01*
X20701000Y-7747000D02*
X20701000Y-7620000D01*
X20701000Y-10007600D02*
X20396200Y-9702800D01*
X20396200Y-8305800D02*
X20396200Y-8051800D01*
X20701000Y-10287000D02*
X20701000Y-10007600D01*
X20193000Y-5003800D02*
X20256500Y-5003800D01*
X20116800Y-5080000D02*
X20193000Y-5003800D01*
X20116800Y-5499100D02*
X20116800Y-5080000D01*
X20167600Y-5549900D02*
X20116800Y-5499100D01*
X20396200Y-4749800D02*
X20701000Y-4445000D01*
X20701000Y-4318000D02*
X20701000Y-4445000D01*
X20256500Y-4889500D02*
X20256500Y-5003800D01*
X20396200Y-4749800D02*
X20256500Y-4889500D01*
X20218400Y-6654800D02*
X20015200Y-6451600D01*
X20015200Y-6451600D02*
X20015200Y-6134100D01*
X20015200Y-6134100D02*
X20167600Y-5981700D01*
X20167600Y-5981700D02*
X20167600Y-5549900D01*
X20701000Y-6946900D02*
X20701000Y-6985000D01*
X20294600Y-6731000D02*
X20485100Y-6731000D01*
X20485100Y-6731000D02*
X20701000Y-6946900D01*
X20218400Y-6654800D02*
X20294600Y-6731000D01*
X20497800Y-8585200D02*
X20955000Y-8128000D01*
X20955000Y-9855200D02*
X20955000Y-10287000D01*
X20497800Y-9398000D02*
X20955000Y-9855200D01*
X20955000Y-8128000D02*
X20955000Y-7620000D01*
X20497800Y-8788400D02*
X20497800Y-9398000D01*
X20497800Y-8788400D02*
X20497800Y-8585200D01*
X20497800Y-8788400D02*
X20497800Y-8788400D01*
X20955000Y-6985000D02*
X20955000Y-6972300D01*
X20510500Y-4940300D02*
X20497800Y-4953000D01*
X20955000Y-4495800D02*
X20510500Y-4940300D01*
X20955000Y-4318000D02*
X20955000Y-4495800D01*
X20358100Y-5448300D02*
X20320000Y-5486400D01*
X20320000Y-5486400D02*
X20256500Y-5486400D01*
X20358100Y-5397500D02*
X20358100Y-5092700D01*
X20510500Y-4940300D02*
X20358100Y-5092700D01*
X20358100Y-5397500D02*
X20358100Y-5448300D01*
X20256500Y-5486400D02*
X20256500Y-6019800D01*
X20142200Y-6134100D02*
X20256500Y-6019800D01*
X20142200Y-6438900D02*
X20364450Y-6661150D01*
X20364450Y-6661150D02*
X20358100Y-6654800D01*
X20142200Y-6134100D02*
X20142200Y-6438900D01*
X20643850Y-6661150D02*
X20955000Y-6972300D01*
X20364450Y-6661150D02*
X20643850Y-6661150D01*
X21361400Y-9956800D02*
X21361400Y-8890000D01*
X21209000Y-7620000D02*
X21209000Y-7747000D01*
X21361400Y-7899400D02*
X21361400Y-8890000D01*
X21209000Y-10287000D02*
X21209000Y-10109200D01*
X21209000Y-10109200D02*
X21361400Y-9956800D01*
X21209000Y-7747000D02*
X21361400Y-7899400D01*
X21209000Y-4318000D02*
X21209000Y-4483100D01*
X21209000Y-6985000D02*
X21209000Y-6883400D01*
X20383500Y-5727700D02*
X20447000Y-5664200D01*
X20447000Y-5664200D02*
X20447000Y-5118100D01*
X20447000Y-5118100D02*
X20967700Y-4597400D01*
X20967700Y-4597400D02*
X21094700Y-4597400D01*
X21094700Y-4597400D02*
X21209000Y-4483100D01*
X20383500Y-6324600D02*
X20523200Y-6464300D01*
X20383500Y-5727700D02*
X20383500Y-6324600D01*
X20916900Y-6540500D02*
X20974050Y-6597650D01*
X20878800Y-6502400D02*
X20681950Y-6502400D01*
X20916900Y-6540500D02*
X20878800Y-6502400D01*
X20561300Y-6502400D02*
X20523200Y-6464300D01*
X20681950Y-6502400D02*
X20561300Y-6502400D01*
X20974050Y-6737350D02*
X21069300Y-6832600D01*
X21069300Y-6832600D02*
X21158200Y-6832600D01*
X21158200Y-6832600D02*
X21209000Y-6883400D01*
X20974050Y-6597650D02*
X20974050Y-6737350D01*
X21463000Y-10109200D02*
X21463000Y-9017000D01*
X21463000Y-8788400D02*
X21463000Y-9017000D01*
X21463000Y-8305800D02*
X21463000Y-8788400D01*
X21463000Y-7620000D02*
X21463000Y-8305800D01*
X21463000Y-10134600D02*
X21463000Y-10109200D01*
X21463000Y-10287000D02*
X21463000Y-10134600D01*
X21463000Y-4394200D02*
X21329650Y-4527550D01*
X21463000Y-4318000D02*
X21463000Y-4394200D01*
X20974050Y-6242050D02*
X20929600Y-6197600D01*
X20650200Y-5842000D02*
X20650200Y-6070600D01*
X20777200Y-6197600D02*
X20929600Y-6197600D01*
X20650200Y-6070600D02*
X20777200Y-6197600D01*
X20929600Y-5461000D02*
X20980400Y-5410200D01*
X20828000Y-5461000D02*
X20929600Y-5461000D01*
X20650200Y-5638800D02*
X20828000Y-5461000D01*
X20650200Y-5842000D02*
X20650200Y-5638800D01*
X21069300Y-6692900D02*
X21069300Y-6540500D01*
X21151850Y-6775450D02*
X21069300Y-6692900D01*
X21463000Y-6896100D02*
X21463000Y-6985000D01*
X21342350Y-6775450D02*
X21463000Y-6896100D01*
X21342350Y-6775450D02*
X21151850Y-6775450D01*
X20974050Y-6445250D02*
X21069300Y-6540500D01*
X20974050Y-6242050D02*
X20974050Y-6445250D01*
X21196300Y-4660900D02*
X21196300Y-4851400D01*
X21056600Y-5054600D02*
X21031200Y-5080000D01*
X21329650Y-4527550D02*
X21196300Y-4660900D01*
X20993100Y-5118100D02*
X20993100Y-5397500D01*
X20993100Y-5397500D02*
X20980400Y-5410200D01*
X21031200Y-5080000D02*
X20993100Y-5118100D01*
X21094700Y-4953000D02*
X21094700Y-5016500D01*
X21094700Y-5016500D02*
X21056600Y-5054600D01*
X21196300Y-4851400D02*
X21094700Y-4953000D01*
X19950950Y-12229350D02*
X19951700Y-12230100D01*
D17*
X19735800Y-11632000D02*
X19735800Y-11633200D01*
D16*
X20295350Y-12294350D02*
X20294600Y-12293600D01*
X20302050Y-12489350D02*
X20307300Y-12484100D01*
X19544100Y-4712900D02*
X19545300Y-4711700D01*
X22479000Y-12407900D02*
X22326600Y-12560300D01*
X22326600Y-12560300D02*
X21247100Y-12560300D01*
X22453600Y-12242800D02*
X22237700Y-12458700D01*
X22237700Y-12458700D02*
X21374100Y-12458700D01*
X21971000Y-13563600D02*
X21971000Y-13589000D01*
X19278600Y-13309600D02*
X19278600Y-12979400D01*
X19748500Y-12395200D02*
X20193000Y-12395200D01*
X19405600Y-12738100D02*
X19748500Y-12395200D01*
X19405600Y-12852400D02*
X19405600Y-12738100D01*
X19278600Y-12979400D02*
X19405600Y-12852400D01*
G36*
X22110700Y-13774547D02*
X18737453Y-13774547D01*
X18737453Y-10711053D01*
X19380200Y-10711053D01*
X22110700Y-10711053D01*
X22110700Y-10894275D01*
X22089501Y-10842970D01*
X22050237Y-10803637D01*
X21998910Y-10782324D01*
X21943334Y-10782276D01*
X21891970Y-10803499D01*
X21852637Y-10842763D01*
X21844005Y-10863551D01*
X21835501Y-10842970D01*
X21796237Y-10803637D01*
X21744910Y-10782324D01*
X21689334Y-10782276D01*
X21637970Y-10803499D01*
X21598637Y-10842763D01*
X21590005Y-10863551D01*
X21581501Y-10842970D01*
X21542237Y-10803637D01*
X21490910Y-10782324D01*
X21435334Y-10782276D01*
X21383970Y-10803499D01*
X21348589Y-10838818D01*
X21345246Y-10821588D01*
X21331267Y-10800307D01*
X21310164Y-10786062D01*
X21285200Y-10781056D01*
X21132800Y-10781056D01*
X21108588Y-10785754D01*
X21087307Y-10799733D01*
X21073062Y-10820836D01*
X21069440Y-10838901D01*
X21034237Y-10803637D01*
X20982910Y-10782324D01*
X20927334Y-10782276D01*
X20875970Y-10803499D01*
X20836637Y-10842763D01*
X20828005Y-10863551D01*
X20819501Y-10842970D01*
X20780237Y-10803637D01*
X20728910Y-10782324D01*
X20673334Y-10782276D01*
X20621970Y-10803499D01*
X20582637Y-10842763D01*
X20574005Y-10863551D01*
X20565501Y-10842970D01*
X20526237Y-10803637D01*
X20474910Y-10782324D01*
X20419334Y-10782276D01*
X20367970Y-10803499D01*
X20332589Y-10838818D01*
X20329246Y-10821588D01*
X20315267Y-10800307D01*
X20294164Y-10786062D01*
X20269200Y-10781056D01*
X20116800Y-10781056D01*
X20092588Y-10785754D01*
X20071307Y-10799733D01*
X20057062Y-10820836D01*
X20053440Y-10838901D01*
X20018237Y-10803637D01*
X19966910Y-10782324D01*
X19911334Y-10782276D01*
X19859970Y-10803499D01*
X19820637Y-10842763D01*
X19812005Y-10863551D01*
X19803501Y-10842970D01*
X19764237Y-10803637D01*
X19712910Y-10782324D01*
X19657334Y-10782276D01*
X19605970Y-10803499D01*
X19566637Y-10842763D01*
X19558005Y-10863551D01*
X19549501Y-10842970D01*
X19510237Y-10803637D01*
X19458910Y-10782324D01*
X19403334Y-10782276D01*
X19351970Y-10803499D01*
X19316589Y-10838818D01*
X19313246Y-10821588D01*
X19299267Y-10800307D01*
X19278164Y-10786062D01*
X19253200Y-10781056D01*
X19100800Y-10781056D01*
X19076588Y-10785754D01*
X19055307Y-10799733D01*
X19041062Y-10820836D01*
X19036056Y-10845800D01*
X19036056Y-10998200D01*
X19040754Y-11022412D01*
X19054733Y-11043693D01*
X19075836Y-11057938D01*
X19100800Y-11062944D01*
X19253200Y-11062944D01*
X19277412Y-11058246D01*
X19298693Y-11044267D01*
X19312938Y-11023164D01*
X19316560Y-11005099D01*
X19351763Y-11040363D01*
X19403090Y-11061676D01*
X19458666Y-11061724D01*
X19510030Y-11040501D01*
X19549363Y-11001237D01*
X19557995Y-10980449D01*
X19566499Y-11001030D01*
X19605763Y-11040363D01*
X19657090Y-11061676D01*
X19712666Y-11061724D01*
X19764030Y-11040501D01*
X19803363Y-11001237D01*
X19811995Y-10980449D01*
X19820499Y-11001030D01*
X19859763Y-11040363D01*
X19911090Y-11061676D01*
X19966666Y-11061724D01*
X20018030Y-11040501D01*
X20053411Y-11005182D01*
X20056754Y-11022412D01*
X20070733Y-11043693D01*
X20091836Y-11057938D01*
X20116800Y-11062944D01*
X20269200Y-11062944D01*
X20293412Y-11058246D01*
X20314693Y-11044267D01*
X20328938Y-11023164D01*
X20332560Y-11005099D01*
X20367763Y-11040363D01*
X20419090Y-11061676D01*
X20474666Y-11061724D01*
X20526030Y-11040501D01*
X20565363Y-11001237D01*
X20573995Y-10980449D01*
X20582499Y-11001030D01*
X20621763Y-11040363D01*
X20673090Y-11061676D01*
X20728666Y-11061724D01*
X20780030Y-11040501D01*
X20819363Y-11001237D01*
X20827995Y-10980449D01*
X20836499Y-11001030D01*
X20875763Y-11040363D01*
X20927090Y-11061676D01*
X20982666Y-11061724D01*
X21034030Y-11040501D01*
X21069411Y-11005182D01*
X21072754Y-11022412D01*
X21086733Y-11043693D01*
X21107836Y-11057938D01*
X21132800Y-11062944D01*
X21285200Y-11062944D01*
X21309412Y-11058246D01*
X21330693Y-11044267D01*
X21344938Y-11023164D01*
X21348560Y-11005099D01*
X21383763Y-11040363D01*
X21435090Y-11061676D01*
X21490666Y-11061724D01*
X21542030Y-11040501D01*
X21581363Y-11001237D01*
X21589995Y-10980449D01*
X21598499Y-11001030D01*
X21637763Y-11040363D01*
X21689090Y-11061676D01*
X21744666Y-11061724D01*
X21796030Y-11040501D01*
X21835363Y-11001237D01*
X21843995Y-10980449D01*
X21852499Y-11001030D01*
X21891763Y-11040363D01*
X21943090Y-11061676D01*
X21998666Y-11061724D01*
X22050030Y-11040501D01*
X22089363Y-11001237D01*
X22110676Y-10949910D01*
X22110700Y-10922065D01*
X22110700Y-12382500D01*
X21444283Y-12382500D01*
X21432807Y-12371004D01*
X21394779Y-12355213D01*
X21353602Y-12355177D01*
X21315546Y-12370902D01*
X21286404Y-12399993D01*
X21270613Y-12438021D01*
X21270596Y-12457983D01*
X21267779Y-12456813D01*
X21226602Y-12456777D01*
X21198223Y-12468503D01*
X21198223Y-12374702D01*
X21182498Y-12336646D01*
X21171228Y-12325356D01*
X21182396Y-12314207D01*
X21198187Y-12276179D01*
X21198223Y-12235002D01*
X21182498Y-12196946D01*
X21153407Y-12167804D01*
X21115379Y-12152013D01*
X21074202Y-12151977D01*
X21036146Y-12167702D01*
X21007004Y-12196793D01*
X20991213Y-12234821D01*
X20991177Y-12275998D01*
X21006902Y-12314054D01*
X21018172Y-12325344D01*
X21007004Y-12336493D01*
X20991213Y-12374521D01*
X20991177Y-12415698D01*
X21006902Y-12453754D01*
X21035993Y-12482896D01*
X21074021Y-12498687D01*
X21115198Y-12498723D01*
X21153254Y-12482998D01*
X21182396Y-12453907D01*
X21198187Y-12415879D01*
X21198223Y-12374702D01*
X21198223Y-12468503D01*
X21188546Y-12472502D01*
X21159404Y-12501593D01*
X21143613Y-12539621D01*
X21143577Y-12580798D01*
X21159302Y-12618854D01*
X21188393Y-12647996D01*
X21226421Y-12663787D01*
X21267598Y-12663823D01*
X21305654Y-12648098D01*
X21317273Y-12636500D01*
X22110700Y-12636500D01*
X22110700Y-13561275D01*
X22089501Y-13509970D01*
X22050237Y-13470637D01*
X21998910Y-13449324D01*
X21943334Y-13449276D01*
X21891970Y-13470499D01*
X21852637Y-13509763D01*
X21844005Y-13530551D01*
X21835501Y-13509970D01*
X21796237Y-13470637D01*
X21744910Y-13449324D01*
X21689334Y-13449276D01*
X21637970Y-13470499D01*
X21598637Y-13509763D01*
X21590005Y-13530551D01*
X21581501Y-13509970D01*
X21542237Y-13470637D01*
X21490910Y-13449324D01*
X21435334Y-13449276D01*
X21383970Y-13470499D01*
X21348589Y-13505818D01*
X21345246Y-13488588D01*
X21331267Y-13467307D01*
X21310164Y-13453062D01*
X21285200Y-13448056D01*
X21132800Y-13448056D01*
X21108588Y-13452754D01*
X21087307Y-13466733D01*
X21073062Y-13487836D01*
X21069440Y-13505901D01*
X21034237Y-13470637D01*
X20982910Y-13449324D01*
X20927334Y-13449276D01*
X20875970Y-13470499D01*
X20836637Y-13509763D01*
X20828005Y-13530551D01*
X20819501Y-13509970D01*
X20780237Y-13470637D01*
X20728910Y-13449324D01*
X20673334Y-13449276D01*
X20626723Y-13468535D01*
X20626723Y-12857302D01*
X20610998Y-12819246D01*
X20581907Y-12790104D01*
X20543879Y-12774313D01*
X20502702Y-12774277D01*
X20464646Y-12790002D01*
X20435504Y-12819093D01*
X20419713Y-12857121D01*
X20419677Y-12898298D01*
X20435402Y-12936354D01*
X20464493Y-12965496D01*
X20502521Y-12981287D01*
X20543698Y-12981323D01*
X20581754Y-12965598D01*
X20610896Y-12936507D01*
X20626687Y-12898479D01*
X20626723Y-12857302D01*
X20626723Y-13468535D01*
X20621970Y-13470499D01*
X20582637Y-13509763D01*
X20574005Y-13530551D01*
X20565501Y-13509970D01*
X20526237Y-13470637D01*
X20474910Y-13449324D01*
X20419334Y-13449276D01*
X20367970Y-13470499D01*
X20332589Y-13505818D01*
X20329246Y-13488588D01*
X20315267Y-13467307D01*
X20294164Y-13453062D01*
X20269200Y-13448056D01*
X20116800Y-13448056D01*
X20108203Y-13449724D01*
X20110498Y-13446324D01*
X20115504Y-13421360D01*
X20115504Y-13197840D01*
X20110806Y-13173628D01*
X20096827Y-13152347D01*
X20075724Y-13138102D01*
X20050760Y-13133096D01*
X19827240Y-13133096D01*
X19803028Y-13137794D01*
X19781747Y-13151773D01*
X19773893Y-13163408D01*
X19769766Y-13157126D01*
X19780298Y-13141524D01*
X19785304Y-13116560D01*
X19785304Y-12893040D01*
X19780606Y-12868828D01*
X19766627Y-12847547D01*
X19745524Y-12833302D01*
X19720560Y-12828296D01*
X19497040Y-12828296D01*
X19481800Y-12831253D01*
X19481800Y-12769663D01*
X19780063Y-12471400D01*
X20122817Y-12471400D01*
X20134293Y-12482896D01*
X20172321Y-12498687D01*
X20198537Y-12498710D01*
X20198527Y-12509848D01*
X20214252Y-12547904D01*
X20243343Y-12577046D01*
X20281371Y-12592837D01*
X20322548Y-12592873D01*
X20360604Y-12577148D01*
X20389746Y-12548057D01*
X20405537Y-12510029D01*
X20405573Y-12468852D01*
X20389848Y-12430796D01*
X20360757Y-12401654D01*
X20333794Y-12390458D01*
X20353904Y-12382148D01*
X20383046Y-12353057D01*
X20398837Y-12315029D01*
X20398873Y-12273852D01*
X20398123Y-12272037D01*
X20398123Y-11942902D01*
X20382398Y-11904846D01*
X20353307Y-11875704D01*
X20315279Y-11859913D01*
X20274102Y-11859877D01*
X20236046Y-11875602D01*
X20206904Y-11904693D01*
X20196773Y-11929091D01*
X20172546Y-11939102D01*
X20143404Y-11968193D01*
X20127613Y-12006221D01*
X20127577Y-12047398D01*
X20143302Y-12085454D01*
X20172393Y-12114596D01*
X20210421Y-12130387D01*
X20251598Y-12130423D01*
X20289654Y-12114698D01*
X20318796Y-12085607D01*
X20328927Y-12061209D01*
X20353154Y-12051198D01*
X20382296Y-12022107D01*
X20398087Y-11984079D01*
X20398123Y-11942902D01*
X20398123Y-12272037D01*
X20383148Y-12235796D01*
X20354057Y-12206654D01*
X20316029Y-12190863D01*
X20274852Y-12190827D01*
X20236796Y-12206552D01*
X20207654Y-12235643D01*
X20191863Y-12273671D01*
X20191847Y-12291694D01*
X20172502Y-12291677D01*
X20134446Y-12307402D01*
X20122827Y-12319000D01*
X20005023Y-12319000D01*
X20009504Y-12317148D01*
X20038646Y-12288057D01*
X20054437Y-12250029D01*
X20054473Y-12208852D01*
X20038748Y-12170796D01*
X20009657Y-12141654D01*
X19971629Y-12125863D01*
X19930452Y-12125827D01*
X19892396Y-12141552D01*
X19863254Y-12170643D01*
X19847463Y-12208671D01*
X19847427Y-12249848D01*
X19863152Y-12287904D01*
X19892243Y-12317046D01*
X19896948Y-12319000D01*
X19839323Y-12319000D01*
X19839323Y-11611502D01*
X19823598Y-11573446D01*
X19794507Y-11544304D01*
X19756479Y-11528513D01*
X19715302Y-11528477D01*
X19677246Y-11544202D01*
X19648104Y-11573293D01*
X19632313Y-11611321D01*
X19632277Y-11652498D01*
X19648002Y-11690554D01*
X19677093Y-11719696D01*
X19715121Y-11735487D01*
X19756298Y-11735523D01*
X19794354Y-11719798D01*
X19823496Y-11690707D01*
X19839287Y-11652679D01*
X19839323Y-11611502D01*
X19839323Y-12319000D01*
X19748500Y-12319000D01*
X19719340Y-12324800D01*
X19694618Y-12341318D01*
X19351719Y-12684218D01*
X19335200Y-12708939D01*
X19329400Y-12738100D01*
X19329400Y-12820837D01*
X19224719Y-12925518D01*
X19208200Y-12950239D01*
X19202400Y-12979400D01*
X19202400Y-13133096D01*
X19166840Y-13133096D01*
X19142628Y-13137794D01*
X19121347Y-13151773D01*
X19107102Y-13172876D01*
X19102096Y-13197840D01*
X19102096Y-13421360D01*
X19106794Y-13445572D01*
X19108425Y-13448056D01*
X19100800Y-13448056D01*
X19076588Y-13452754D01*
X19063944Y-13461059D01*
X19063944Y-11938000D01*
X19063944Y-11785600D01*
X19059246Y-11761388D01*
X19045267Y-11740107D01*
X19024164Y-11725862D01*
X18999200Y-11720856D01*
X18846800Y-11720856D01*
X18822588Y-11725554D01*
X18801307Y-11739533D01*
X18787062Y-11760636D01*
X18782056Y-11785600D01*
X18782056Y-11938000D01*
X18786754Y-11962212D01*
X18800733Y-11983493D01*
X18821836Y-11997738D01*
X18839901Y-12001360D01*
X18804637Y-12036563D01*
X18783324Y-12087890D01*
X18783276Y-12143466D01*
X18804499Y-12194830D01*
X18843763Y-12234163D01*
X18864551Y-12242795D01*
X18843970Y-12251299D01*
X18804637Y-12290563D01*
X18783324Y-12341890D01*
X18783276Y-12397466D01*
X18804499Y-12448830D01*
X18843763Y-12488163D01*
X18864551Y-12496795D01*
X18843970Y-12505299D01*
X18804637Y-12544563D01*
X18783324Y-12595890D01*
X18783276Y-12651466D01*
X18804499Y-12702830D01*
X18843763Y-12742163D01*
X18895090Y-12763476D01*
X18950666Y-12763524D01*
X19002030Y-12742301D01*
X19041363Y-12703037D01*
X19062676Y-12651710D01*
X19062724Y-12596134D01*
X19041501Y-12544770D01*
X19002237Y-12505437D01*
X18981449Y-12496805D01*
X19002030Y-12488301D01*
X19041363Y-12449037D01*
X19062676Y-12397710D01*
X19062724Y-12342134D01*
X19041501Y-12290770D01*
X19002237Y-12251437D01*
X18981449Y-12242805D01*
X19002030Y-12234301D01*
X19041363Y-12195037D01*
X19062676Y-12143710D01*
X19062724Y-12088134D01*
X19041501Y-12036770D01*
X19006182Y-12001389D01*
X19023412Y-11998046D01*
X19044693Y-11984067D01*
X19058938Y-11962964D01*
X19063944Y-11938000D01*
X19063944Y-13461059D01*
X19055307Y-13466733D01*
X19041062Y-13487836D01*
X19036056Y-13512800D01*
X19036056Y-13665200D01*
X19040754Y-13689412D01*
X19054733Y-13710693D01*
X19075836Y-13724938D01*
X19100800Y-13729944D01*
X19253200Y-13729944D01*
X19277412Y-13725246D01*
X19298693Y-13711267D01*
X19312938Y-13690164D01*
X19316560Y-13672099D01*
X19351763Y-13707363D01*
X19403090Y-13728676D01*
X19458666Y-13728724D01*
X19510030Y-13707501D01*
X19549363Y-13668237D01*
X19557995Y-13647449D01*
X19566499Y-13668030D01*
X19605763Y-13707363D01*
X19657090Y-13728676D01*
X19712666Y-13728724D01*
X19764030Y-13707501D01*
X19803363Y-13668237D01*
X19811995Y-13647449D01*
X19820499Y-13668030D01*
X19859763Y-13707363D01*
X19911090Y-13728676D01*
X19966666Y-13728724D01*
X20018030Y-13707501D01*
X20053411Y-13672182D01*
X20056754Y-13689412D01*
X20070733Y-13710693D01*
X20091836Y-13724938D01*
X20116800Y-13729944D01*
X20269200Y-13729944D01*
X20293412Y-13725246D01*
X20314693Y-13711267D01*
X20328938Y-13690164D01*
X20332560Y-13672099D01*
X20367763Y-13707363D01*
X20419090Y-13728676D01*
X20474666Y-13728724D01*
X20526030Y-13707501D01*
X20565363Y-13668237D01*
X20573995Y-13647449D01*
X20582499Y-13668030D01*
X20621763Y-13707363D01*
X20673090Y-13728676D01*
X20728666Y-13728724D01*
X20780030Y-13707501D01*
X20819363Y-13668237D01*
X20827995Y-13647449D01*
X20836499Y-13668030D01*
X20875763Y-13707363D01*
X20927090Y-13728676D01*
X20982666Y-13728724D01*
X21034030Y-13707501D01*
X21069411Y-13672182D01*
X21072754Y-13689412D01*
X21086733Y-13710693D01*
X21107836Y-13724938D01*
X21132800Y-13729944D01*
X21285200Y-13729944D01*
X21309412Y-13725246D01*
X21330693Y-13711267D01*
X21344938Y-13690164D01*
X21348560Y-13672099D01*
X21383763Y-13707363D01*
X21435090Y-13728676D01*
X21490666Y-13728724D01*
X21542030Y-13707501D01*
X21581363Y-13668237D01*
X21589995Y-13647449D01*
X21598499Y-13668030D01*
X21637763Y-13707363D01*
X21689090Y-13728676D01*
X21744666Y-13728724D01*
X21796030Y-13707501D01*
X21835363Y-13668237D01*
X21843995Y-13647449D01*
X21852499Y-13668030D01*
X21891763Y-13707363D01*
X21943090Y-13728676D01*
X21998666Y-13728724D01*
X22050030Y-13707501D01*
X22089363Y-13668237D01*
X22110676Y-13616910D01*
X22110700Y-13589065D01*
X22110700Y-13774547D01*
X22110700Y-13774547D01*
G37*
X22110700Y-13774547D02*
X18737453Y-13774547D01*
X18737453Y-10711053D01*
X19380200Y-10711053D01*
X22110700Y-10711053D01*
X22110700Y-10894275D01*
X22089501Y-10842970D01*
X22050237Y-10803637D01*
X21998910Y-10782324D01*
X21943334Y-10782276D01*
X21891970Y-10803499D01*
X21852637Y-10842763D01*
X21844005Y-10863551D01*
X21835501Y-10842970D01*
X21796237Y-10803637D01*
X21744910Y-10782324D01*
X21689334Y-10782276D01*
X21637970Y-10803499D01*
X21598637Y-10842763D01*
X21590005Y-10863551D01*
X21581501Y-10842970D01*
X21542237Y-10803637D01*
X21490910Y-10782324D01*
X21435334Y-10782276D01*
X21383970Y-10803499D01*
X21348589Y-10838818D01*
X21345246Y-10821588D01*
X21331267Y-10800307D01*
X21310164Y-10786062D01*
X21285200Y-10781056D01*
X21132800Y-10781056D01*
X21108588Y-10785754D01*
X21087307Y-10799733D01*
X21073062Y-10820836D01*
X21069440Y-10838901D01*
X21034237Y-10803637D01*
X20982910Y-10782324D01*
X20927334Y-10782276D01*
X20875970Y-10803499D01*
X20836637Y-10842763D01*
X20828005Y-10863551D01*
X20819501Y-10842970D01*
X20780237Y-10803637D01*
X20728910Y-10782324D01*
X20673334Y-10782276D01*
X20621970Y-10803499D01*
X20582637Y-10842763D01*
X20574005Y-10863551D01*
X20565501Y-10842970D01*
X20526237Y-10803637D01*
X20474910Y-10782324D01*
X20419334Y-10782276D01*
X20367970Y-10803499D01*
X20332589Y-10838818D01*
X20329246Y-10821588D01*
X20315267Y-10800307D01*
X20294164Y-10786062D01*
X20269200Y-10781056D01*
X20116800Y-10781056D01*
X20092588Y-10785754D01*
X20071307Y-10799733D01*
X20057062Y-10820836D01*
X20053440Y-10838901D01*
X20018237Y-10803637D01*
X19966910Y-10782324D01*
X19911334Y-10782276D01*
X19859970Y-10803499D01*
X19820637Y-10842763D01*
X19812005Y-10863551D01*
X19803501Y-10842970D01*
X19764237Y-10803637D01*
X19712910Y-10782324D01*
X19657334Y-10782276D01*
X19605970Y-10803499D01*
X19566637Y-10842763D01*
X19558005Y-10863551D01*
X19549501Y-10842970D01*
X19510237Y-10803637D01*
X19458910Y-10782324D01*
X19403334Y-10782276D01*
X19351970Y-10803499D01*
X19316589Y-10838818D01*
X19313246Y-10821588D01*
X19299267Y-10800307D01*
X19278164Y-10786062D01*
X19253200Y-10781056D01*
X19100800Y-10781056D01*
X19076588Y-10785754D01*
X19055307Y-10799733D01*
X19041062Y-10820836D01*
X19036056Y-10845800D01*
X19036056Y-10998200D01*
X19040754Y-11022412D01*
X19054733Y-11043693D01*
X19075836Y-11057938D01*
X19100800Y-11062944D01*
X19253200Y-11062944D01*
X19277412Y-11058246D01*
X19298693Y-11044267D01*
X19312938Y-11023164D01*
X19316560Y-11005099D01*
X19351763Y-11040363D01*
X19403090Y-11061676D01*
X19458666Y-11061724D01*
X19510030Y-11040501D01*
X19549363Y-11001237D01*
X19557995Y-10980449D01*
X19566499Y-11001030D01*
X19605763Y-11040363D01*
X19657090Y-11061676D01*
X19712666Y-11061724D01*
X19764030Y-11040501D01*
X19803363Y-11001237D01*
X19811995Y-10980449D01*
X19820499Y-11001030D01*
X19859763Y-11040363D01*
X19911090Y-11061676D01*
X19966666Y-11061724D01*
X20018030Y-11040501D01*
X20053411Y-11005182D01*
X20056754Y-11022412D01*
X20070733Y-11043693D01*
X20091836Y-11057938D01*
X20116800Y-11062944D01*
X20269200Y-11062944D01*
X20293412Y-11058246D01*
X20314693Y-11044267D01*
X20328938Y-11023164D01*
X20332560Y-11005099D01*
X20367763Y-11040363D01*
X20419090Y-11061676D01*
X20474666Y-11061724D01*
X20526030Y-11040501D01*
X20565363Y-11001237D01*
X20573995Y-10980449D01*
X20582499Y-11001030D01*
X20621763Y-11040363D01*
X20673090Y-11061676D01*
X20728666Y-11061724D01*
X20780030Y-11040501D01*
X20819363Y-11001237D01*
X20827995Y-10980449D01*
X20836499Y-11001030D01*
X20875763Y-11040363D01*
X20927090Y-11061676D01*
X20982666Y-11061724D01*
X21034030Y-11040501D01*
X21069411Y-11005182D01*
X21072754Y-11022412D01*
X21086733Y-11043693D01*
X21107836Y-11057938D01*
X21132800Y-11062944D01*
X21285200Y-11062944D01*
X21309412Y-11058246D01*
X21330693Y-11044267D01*
X21344938Y-11023164D01*
X21348560Y-11005099D01*
X21383763Y-11040363D01*
X21435090Y-11061676D01*
X21490666Y-11061724D01*
X21542030Y-11040501D01*
X21581363Y-11001237D01*
X21589995Y-10980449D01*
X21598499Y-11001030D01*
X21637763Y-11040363D01*
X21689090Y-11061676D01*
X21744666Y-11061724D01*
X21796030Y-11040501D01*
X21835363Y-11001237D01*
X21843995Y-10980449D01*
X21852499Y-11001030D01*
X21891763Y-11040363D01*
X21943090Y-11061676D01*
X21998666Y-11061724D01*
X22050030Y-11040501D01*
X22089363Y-11001237D01*
X22110676Y-10949910D01*
X22110700Y-10922065D01*
X22110700Y-12382500D01*
X21444283Y-12382500D01*
X21432807Y-12371004D01*
X21394779Y-12355213D01*
X21353602Y-12355177D01*
X21315546Y-12370902D01*
X21286404Y-12399993D01*
X21270613Y-12438021D01*
X21270596Y-12457983D01*
X21267779Y-12456813D01*
X21226602Y-12456777D01*
X21198223Y-12468503D01*
X21198223Y-12374702D01*
X21182498Y-12336646D01*
X21171228Y-12325356D01*
X21182396Y-12314207D01*
X21198187Y-12276179D01*
X21198223Y-12235002D01*
X21182498Y-12196946D01*
X21153407Y-12167804D01*
X21115379Y-12152013D01*
X21074202Y-12151977D01*
X21036146Y-12167702D01*
X21007004Y-12196793D01*
X20991213Y-12234821D01*
X20991177Y-12275998D01*
X21006902Y-12314054D01*
X21018172Y-12325344D01*
X21007004Y-12336493D01*
X20991213Y-12374521D01*
X20991177Y-12415698D01*
X21006902Y-12453754D01*
X21035993Y-12482896D01*
X21074021Y-12498687D01*
X21115198Y-12498723D01*
X21153254Y-12482998D01*
X21182396Y-12453907D01*
X21198187Y-12415879D01*
X21198223Y-12374702D01*
X21198223Y-12468503D01*
X21188546Y-12472502D01*
X21159404Y-12501593D01*
X21143613Y-12539621D01*
X21143577Y-12580798D01*
X21159302Y-12618854D01*
X21188393Y-12647996D01*
X21226421Y-12663787D01*
X21267598Y-12663823D01*
X21305654Y-12648098D01*
X21317273Y-12636500D01*
X22110700Y-12636500D01*
X22110700Y-13561275D01*
X22089501Y-13509970D01*
X22050237Y-13470637D01*
X21998910Y-13449324D01*
X21943334Y-13449276D01*
X21891970Y-13470499D01*
X21852637Y-13509763D01*
X21844005Y-13530551D01*
X21835501Y-13509970D01*
X21796237Y-13470637D01*
X21744910Y-13449324D01*
X21689334Y-13449276D01*
X21637970Y-13470499D01*
X21598637Y-13509763D01*
X21590005Y-13530551D01*
X21581501Y-13509970D01*
X21542237Y-13470637D01*
X21490910Y-13449324D01*
X21435334Y-13449276D01*
X21383970Y-13470499D01*
X21348589Y-13505818D01*
X21345246Y-13488588D01*
X21331267Y-13467307D01*
X21310164Y-13453062D01*
X21285200Y-13448056D01*
X21132800Y-13448056D01*
X21108588Y-13452754D01*
X21087307Y-13466733D01*
X21073062Y-13487836D01*
X21069440Y-13505901D01*
X21034237Y-13470637D01*
X20982910Y-13449324D01*
X20927334Y-13449276D01*
X20875970Y-13470499D01*
X20836637Y-13509763D01*
X20828005Y-13530551D01*
X20819501Y-13509970D01*
X20780237Y-13470637D01*
X20728910Y-13449324D01*
X20673334Y-13449276D01*
X20626723Y-13468535D01*
X20626723Y-12857302D01*
X20610998Y-12819246D01*
X20581907Y-12790104D01*
X20543879Y-12774313D01*
X20502702Y-12774277D01*
X20464646Y-12790002D01*
X20435504Y-12819093D01*
X20419713Y-12857121D01*
X20419677Y-12898298D01*
X20435402Y-12936354D01*
X20464493Y-12965496D01*
X20502521Y-12981287D01*
X20543698Y-12981323D01*
X20581754Y-12965598D01*
X20610896Y-12936507D01*
X20626687Y-12898479D01*
X20626723Y-12857302D01*
X20626723Y-13468535D01*
X20621970Y-13470499D01*
X20582637Y-13509763D01*
X20574005Y-13530551D01*
X20565501Y-13509970D01*
X20526237Y-13470637D01*
X20474910Y-13449324D01*
X20419334Y-13449276D01*
X20367970Y-13470499D01*
X20332589Y-13505818D01*
X20329246Y-13488588D01*
X20315267Y-13467307D01*
X20294164Y-13453062D01*
X20269200Y-13448056D01*
X20116800Y-13448056D01*
X20108203Y-13449724D01*
X20110498Y-13446324D01*
X20115504Y-13421360D01*
X20115504Y-13197840D01*
X20110806Y-13173628D01*
X20096827Y-13152347D01*
X20075724Y-13138102D01*
X20050760Y-13133096D01*
X19827240Y-13133096D01*
X19803028Y-13137794D01*
X19781747Y-13151773D01*
X19773893Y-13163408D01*
X19769766Y-13157126D01*
X19780298Y-13141524D01*
X19785304Y-13116560D01*
X19785304Y-12893040D01*
X19780606Y-12868828D01*
X19766627Y-12847547D01*
X19745524Y-12833302D01*
X19720560Y-12828296D01*
X19497040Y-12828296D01*
X19481800Y-12831253D01*
X19481800Y-12769663D01*
X19780063Y-12471400D01*
X20122817Y-12471400D01*
X20134293Y-12482896D01*
X20172321Y-12498687D01*
X20198537Y-12498710D01*
X20198527Y-12509848D01*
X20214252Y-12547904D01*
X20243343Y-12577046D01*
X20281371Y-12592837D01*
X20322548Y-12592873D01*
X20360604Y-12577148D01*
X20389746Y-12548057D01*
X20405537Y-12510029D01*
X20405573Y-12468852D01*
X20389848Y-12430796D01*
X20360757Y-12401654D01*
X20333794Y-12390458D01*
X20353904Y-12382148D01*
X20383046Y-12353057D01*
X20398837Y-12315029D01*
X20398873Y-12273852D01*
X20398123Y-12272037D01*
X20398123Y-11942902D01*
X20382398Y-11904846D01*
X20353307Y-11875704D01*
X20315279Y-11859913D01*
X20274102Y-11859877D01*
X20236046Y-11875602D01*
X20206904Y-11904693D01*
X20196773Y-11929091D01*
X20172546Y-11939102D01*
X20143404Y-11968193D01*
X20127613Y-12006221D01*
X20127577Y-12047398D01*
X20143302Y-12085454D01*
X20172393Y-12114596D01*
X20210421Y-12130387D01*
X20251598Y-12130423D01*
X20289654Y-12114698D01*
X20318796Y-12085607D01*
X20328927Y-12061209D01*
X20353154Y-12051198D01*
X20382296Y-12022107D01*
X20398087Y-11984079D01*
X20398123Y-11942902D01*
X20398123Y-12272037D01*
X20383148Y-12235796D01*
X20354057Y-12206654D01*
X20316029Y-12190863D01*
X20274852Y-12190827D01*
X20236796Y-12206552D01*
X20207654Y-12235643D01*
X20191863Y-12273671D01*
X20191847Y-12291694D01*
X20172502Y-12291677D01*
X20134446Y-12307402D01*
X20122827Y-12319000D01*
X20005023Y-12319000D01*
X20009504Y-12317148D01*
X20038646Y-12288057D01*
X20054437Y-12250029D01*
X20054473Y-12208852D01*
X20038748Y-12170796D01*
X20009657Y-12141654D01*
X19971629Y-12125863D01*
X19930452Y-12125827D01*
X19892396Y-12141552D01*
X19863254Y-12170643D01*
X19847463Y-12208671D01*
X19847427Y-12249848D01*
X19863152Y-12287904D01*
X19892243Y-12317046D01*
X19896948Y-12319000D01*
X19839323Y-12319000D01*
X19839323Y-11611502D01*
X19823598Y-11573446D01*
X19794507Y-11544304D01*
X19756479Y-11528513D01*
X19715302Y-11528477D01*
X19677246Y-11544202D01*
X19648104Y-11573293D01*
X19632313Y-11611321D01*
X19632277Y-11652498D01*
X19648002Y-11690554D01*
X19677093Y-11719696D01*
X19715121Y-11735487D01*
X19756298Y-11735523D01*
X19794354Y-11719798D01*
X19823496Y-11690707D01*
X19839287Y-11652679D01*
X19839323Y-11611502D01*
X19839323Y-12319000D01*
X19748500Y-12319000D01*
X19719340Y-12324800D01*
X19694618Y-12341318D01*
X19351719Y-12684218D01*
X19335200Y-12708939D01*
X19329400Y-12738100D01*
X19329400Y-12820837D01*
X19224719Y-12925518D01*
X19208200Y-12950239D01*
X19202400Y-12979400D01*
X19202400Y-13133096D01*
X19166840Y-13133096D01*
X19142628Y-13137794D01*
X19121347Y-13151773D01*
X19107102Y-13172876D01*
X19102096Y-13197840D01*
X19102096Y-13421360D01*
X19106794Y-13445572D01*
X19108425Y-13448056D01*
X19100800Y-13448056D01*
X19076588Y-13452754D01*
X19063944Y-13461059D01*
X19063944Y-11938000D01*
X19063944Y-11785600D01*
X19059246Y-11761388D01*
X19045267Y-11740107D01*
X19024164Y-11725862D01*
X18999200Y-11720856D01*
X18846800Y-11720856D01*
X18822588Y-11725554D01*
X18801307Y-11739533D01*
X18787062Y-11760636D01*
X18782056Y-11785600D01*
X18782056Y-11938000D01*
X18786754Y-11962212D01*
X18800733Y-11983493D01*
X18821836Y-11997738D01*
X18839901Y-12001360D01*
X18804637Y-12036563D01*
X18783324Y-12087890D01*
X18783276Y-12143466D01*
X18804499Y-12194830D01*
X18843763Y-12234163D01*
X18864551Y-12242795D01*
X18843970Y-12251299D01*
X18804637Y-12290563D01*
X18783324Y-12341890D01*
X18783276Y-12397466D01*
X18804499Y-12448830D01*
X18843763Y-12488163D01*
X18864551Y-12496795D01*
X18843970Y-12505299D01*
X18804637Y-12544563D01*
X18783324Y-12595890D01*
X18783276Y-12651466D01*
X18804499Y-12702830D01*
X18843763Y-12742163D01*
X18895090Y-12763476D01*
X18950666Y-12763524D01*
X19002030Y-12742301D01*
X19041363Y-12703037D01*
X19062676Y-12651710D01*
X19062724Y-12596134D01*
X19041501Y-12544770D01*
X19002237Y-12505437D01*
X18981449Y-12496805D01*
X19002030Y-12488301D01*
X19041363Y-12449037D01*
X19062676Y-12397710D01*
X19062724Y-12342134D01*
X19041501Y-12290770D01*
X19002237Y-12251437D01*
X18981449Y-12242805D01*
X19002030Y-12234301D01*
X19041363Y-12195037D01*
X19062676Y-12143710D01*
X19062724Y-12088134D01*
X19041501Y-12036770D01*
X19006182Y-12001389D01*
X19023412Y-11998046D01*
X19044693Y-11984067D01*
X19058938Y-11962964D01*
X19063944Y-11938000D01*
X19063944Y-13461059D01*
X19055307Y-13466733D01*
X19041062Y-13487836D01*
X19036056Y-13512800D01*
X19036056Y-13665200D01*
X19040754Y-13689412D01*
X19054733Y-13710693D01*
X19075836Y-13724938D01*
X19100800Y-13729944D01*
X19253200Y-13729944D01*
X19277412Y-13725246D01*
X19298693Y-13711267D01*
X19312938Y-13690164D01*
X19316560Y-13672099D01*
X19351763Y-13707363D01*
X19403090Y-13728676D01*
X19458666Y-13728724D01*
X19510030Y-13707501D01*
X19549363Y-13668237D01*
X19557995Y-13647449D01*
X19566499Y-13668030D01*
X19605763Y-13707363D01*
X19657090Y-13728676D01*
X19712666Y-13728724D01*
X19764030Y-13707501D01*
X19803363Y-13668237D01*
X19811995Y-13647449D01*
X19820499Y-13668030D01*
X19859763Y-13707363D01*
X19911090Y-13728676D01*
X19966666Y-13728724D01*
X20018030Y-13707501D01*
X20053411Y-13672182D01*
X20056754Y-13689412D01*
X20070733Y-13710693D01*
X20091836Y-13724938D01*
X20116800Y-13729944D01*
X20269200Y-13729944D01*
X20293412Y-13725246D01*
X20314693Y-13711267D01*
X20328938Y-13690164D01*
X20332560Y-13672099D01*
X20367763Y-13707363D01*
X20419090Y-13728676D01*
X20474666Y-13728724D01*
X20526030Y-13707501D01*
X20565363Y-13668237D01*
X20573995Y-13647449D01*
X20582499Y-13668030D01*
X20621763Y-13707363D01*
X20673090Y-13728676D01*
X20728666Y-13728724D01*
X20780030Y-13707501D01*
X20819363Y-13668237D01*
X20827995Y-13647449D01*
X20836499Y-13668030D01*
X20875763Y-13707363D01*
X20927090Y-13728676D01*
X20982666Y-13728724D01*
X21034030Y-13707501D01*
X21069411Y-13672182D01*
X21072754Y-13689412D01*
X21086733Y-13710693D01*
X21107836Y-13724938D01*
X21132800Y-13729944D01*
X21285200Y-13729944D01*
X21309412Y-13725246D01*
X21330693Y-13711267D01*
X21344938Y-13690164D01*
X21348560Y-13672099D01*
X21383763Y-13707363D01*
X21435090Y-13728676D01*
X21490666Y-13728724D01*
X21542030Y-13707501D01*
X21581363Y-13668237D01*
X21589995Y-13647449D01*
X21598499Y-13668030D01*
X21637763Y-13707363D01*
X21689090Y-13728676D01*
X21744666Y-13728724D01*
X21796030Y-13707501D01*
X21835363Y-13668237D01*
X21843995Y-13647449D01*
X21852499Y-13668030D01*
X21891763Y-13707363D01*
X21943090Y-13728676D01*
X21998666Y-13728724D01*
X22050030Y-13707501D01*
X22089363Y-13668237D01*
X22110676Y-13616910D01*
X22110700Y-13589065D01*
X22110700Y-13774547D01*
M02*
