G04 #@! TF.FileFunction,Legend,Top*
%FSLAX45Y45*%
G04 Gerber Fmt 4.5, Leading zero omitted, Abs format (unit mm)*
G04 Created by KiCad (PCBNEW (after 2015-may-25 BZR unknown)-product) date 15/07/2015 13:23:27*
%MOMM*%
G01*
G04 APERTURE LIST*
%ADD10C,0.150000*%
%ADD11C,1.000000*%
%ADD12C,0.099060*%
%ADD13C,0.127000*%
%ADD14C,0.254000*%
%ADD15C,0.203200*%
%ADD16C,0.066040*%
%ADD17C,0.050800*%
%ADD18C,0.381000*%
%ADD19C,0.200660*%
%ADD20C,0.114300*%
%ADD21C,0.088900*%
%ADD22C,0.152400*%
%ADD23C,0.304800*%
%ADD24R,1.143000X2.413000*%
%ADD25R,1.143000X1.651000*%
%ADD26R,1.651000X1.143000*%
%ADD27R,2.032000X2.032000*%
%ADD28C,2.032000*%
%ADD29R,2.707640X2.308860*%
%ADD30R,2.540000X4.572000*%
%ADD31R,1.506220X1.005840*%
%ADD32C,3.000000*%
%ADD33R,1.258000X1.308000*%
%ADD34R,2.308860X2.707640*%
%ADD35C,2.506980*%
%ADD36R,1.258000X1.708000*%
%ADD37R,2.258000X0.958000*%
%ADD38R,1.308000X1.258000*%
%ADD39R,3.507740X2.009140*%
%ADD40R,1.305560X1.305560*%
%ADD41R,1.758000X1.508000*%
%ADD42R,2.743200X2.743200*%
%ADD43R,1.008000X1.408000*%
%ADD44R,1.408000X1.008000*%
%ADD45R,2.405380X1.681480*%
%ADD46R,2.405380X2.882900*%
%ADD47R,2.608580X1.981200*%
%ADD48R,1.887220X0.957580*%
G04 APERTURE END LIST*
D10*
D11*
X21082000Y-6400800D02*
G75*
G03X21082000Y-6400800I-12700J0D01*
G01*
X21247100Y-5715000D02*
G75*
G03X21247100Y-5715000I-12700J0D01*
G01*
X19215100Y-6235700D02*
G75*
G03X19215100Y-6235700I-12700J0D01*
G01*
X18940961Y-6819900D02*
G75*
G03X18940961Y-6819900I-17961J0D01*
G01*
X20015200Y-6756400D02*
G75*
G03X20015200Y-6756400I-12700J0D01*
G01*
X21018500Y-6769100D02*
G75*
G03X21018500Y-6769100I-12700J0D01*
G01*
X21120100Y-4508500D02*
G75*
G03X21120100Y-4508500I-12700J0D01*
G01*
X20078700Y-4521200D02*
G75*
G03X20078700Y-4521200I-12700J0D01*
G01*
X18928261Y-4394200D02*
G75*
G03X18928261Y-4394200I-17961J0D01*
G01*
X19177000Y-5219700D02*
G75*
G03X19177000Y-5219700I-12700J0D01*
G01*
D12*
X23241000Y-7239000D02*
X18669000Y-7239000D01*
X19380200Y-4038600D02*
X23241000Y-4038600D01*
X18669000Y-4038600D02*
X19380200Y-4038600D01*
X18669000Y-4038600D02*
X18669000Y-7239000D01*
X23241000Y-7239000D02*
X23241000Y-4038600D01*
D11*
X23144660Y-8318500D02*
G75*
G03X23144660Y-8318500I-17961J0D01*
G01*
X21107400Y-7810500D02*
G75*
G03X21107400Y-7810500I-12700J0D01*
G01*
X20078700Y-7823200D02*
G75*
G03X20078700Y-7823200I-12700J0D01*
G01*
X18948400Y-7708900D02*
G75*
G03X18948400Y-7708900I-12700J0D01*
G01*
X19164300Y-8483600D02*
G75*
G03X19164300Y-8483600I-12700J0D01*
G01*
X19240500Y-9537700D02*
G75*
G03X19240500Y-9537700I-12700J0D01*
G01*
X21209000Y-10033000D02*
G75*
G03X21209000Y-10033000I-12700J0D01*
G01*
X20167600Y-10045700D02*
G75*
G03X20167600Y-10045700I-12700J0D01*
G01*
X19037300Y-10020300D02*
G75*
G03X19037300Y-10020300I-12700J0D01*
G01*
D12*
X23241000Y-10541000D02*
X18669000Y-10541000D01*
X19380200Y-7340600D02*
X23241000Y-7340600D01*
X18669000Y-7340600D02*
X19380200Y-7340600D01*
X18669000Y-7340600D02*
X18669000Y-10541000D01*
X23241000Y-10541000D02*
X23241000Y-7340600D01*
D11*
X21107400Y-11112500D02*
G75*
G03X21107400Y-11112500I-12700J0D01*
G01*
X20078700Y-11125200D02*
G75*
G03X20078700Y-11125200I-12700J0D01*
G01*
X18948400Y-11010900D02*
G75*
G03X18948400Y-11010900I-12700J0D01*
G01*
X19164300Y-11785600D02*
G75*
G03X19164300Y-11785600I-12700J0D01*
G01*
X19240500Y-12839700D02*
G75*
G03X19240500Y-12839700I-12700J0D01*
G01*
X21209000Y-13335000D02*
G75*
G03X21209000Y-13335000I-12700J0D01*
G01*
X20167600Y-13347700D02*
G75*
G03X20167600Y-13347700I-12700J0D01*
G01*
X19037300Y-13322300D02*
G75*
G03X19037300Y-13322300I-12700J0D01*
G01*
D12*
X23241000Y-13843000D02*
X18669000Y-13843000D01*
X19380200Y-10642600D02*
X23241000Y-10642600D01*
X18669000Y-10642600D02*
X19380200Y-10642600D01*
X18669000Y-10642600D02*
X18669000Y-13843000D01*
X23241000Y-13843000D02*
X23241000Y-10642600D01*
D13*
X20320000Y-6134100D02*
X19304000Y-6134100D01*
X19304000Y-6134100D02*
X19304000Y-5295900D01*
X19304000Y-5295900D02*
X20320000Y-5295900D01*
X20320000Y-5295900D02*
X20320000Y-6134100D01*
X19304000Y-5651500D02*
X19380200Y-5651500D01*
X19380200Y-5651500D02*
X19380200Y-5778500D01*
X19380200Y-5778500D02*
X19304000Y-5778500D01*
X20523200Y-6375400D02*
X20751800Y-6375400D01*
X20751800Y-6375400D02*
X20751800Y-6502400D01*
X20751800Y-6502400D02*
X20523200Y-6502400D01*
X20523200Y-6502400D02*
X20523200Y-6375400D01*
X20751800Y-6705600D02*
X20523200Y-6705600D01*
X20523200Y-6705600D02*
X20523200Y-6578600D01*
X20523200Y-6578600D02*
X20751800Y-6578600D01*
X20751800Y-6578600D02*
X20751800Y-6705600D01*
X20523200Y-5219700D02*
X20751800Y-5219700D01*
X20751800Y-5219700D02*
X20751800Y-5346700D01*
X20751800Y-5346700D02*
X20523200Y-5346700D01*
X20523200Y-5346700D02*
X20523200Y-5219700D01*
X20751800Y-5130800D02*
X20523200Y-5130800D01*
X20523200Y-5130800D02*
X20523200Y-5003800D01*
X20523200Y-5003800D02*
X20751800Y-5003800D01*
X20751800Y-5003800D02*
X20751800Y-5130800D01*
X19367500Y-6718300D02*
X19367500Y-6489700D01*
X19367500Y-6489700D02*
X19494500Y-6489700D01*
X19494500Y-6489700D02*
X19494500Y-6718300D01*
X19494500Y-6718300D02*
X19367500Y-6718300D01*
X19570700Y-6718300D02*
X19570700Y-6489700D01*
X19570700Y-6489700D02*
X19697700Y-6489700D01*
X19697700Y-6489700D02*
X19697700Y-6718300D01*
X19697700Y-6718300D02*
X19570700Y-6718300D01*
X19773900Y-6718300D02*
X19773900Y-6489700D01*
X19773900Y-6489700D02*
X19900900Y-6489700D01*
X19900900Y-6489700D02*
X19900900Y-6718300D01*
X19900900Y-6718300D02*
X19773900Y-6718300D01*
X20002500Y-4584700D02*
X20002500Y-4813300D01*
X20002500Y-4813300D02*
X19875500Y-4813300D01*
X19875500Y-4813300D02*
X19875500Y-4584700D01*
X19875500Y-4584700D02*
X20002500Y-4584700D01*
X20256500Y-4584700D02*
X20256500Y-4813300D01*
X20256500Y-4813300D02*
X20129500Y-4813300D01*
X20129500Y-4813300D02*
X20129500Y-4584700D01*
X20129500Y-4584700D02*
X20256500Y-4584700D01*
X20510500Y-4584700D02*
X20510500Y-4813300D01*
X20510500Y-4813300D02*
X20383500Y-4813300D01*
X20383500Y-4813300D02*
X20383500Y-4584700D01*
X20383500Y-4584700D02*
X20510500Y-4584700D01*
X20764500Y-4584700D02*
X20764500Y-4813300D01*
X20764500Y-4813300D02*
X20637500Y-4813300D01*
X20637500Y-4813300D02*
X20637500Y-4584700D01*
X20637500Y-4584700D02*
X20764500Y-4584700D01*
X21018500Y-4584700D02*
X21018500Y-4813300D01*
X21018500Y-4813300D02*
X20891500Y-4813300D01*
X20891500Y-4813300D02*
X20891500Y-4584700D01*
X20891500Y-4584700D02*
X21018500Y-4584700D01*
X21272500Y-4584700D02*
X21272500Y-4813300D01*
X21272500Y-4813300D02*
X21145500Y-4813300D01*
X21145500Y-4813300D02*
X21145500Y-4584700D01*
X21145500Y-4584700D02*
X21272500Y-4584700D01*
D14*
X22860000Y-6146800D02*
X22860000Y-5130800D01*
X23114000Y-6146800D02*
X23114000Y-5130800D01*
X23114000Y-5130800D02*
X22860000Y-5130800D01*
X22860000Y-6146800D02*
X23114000Y-6146800D01*
X22098000Y-4445000D02*
X21082000Y-4445000D01*
X22098000Y-4191000D02*
X21082000Y-4191000D01*
X21082000Y-4191000D02*
X21082000Y-4445000D01*
X22098000Y-4445000D02*
X22098000Y-4191000D01*
X21082000Y-4445000D02*
X20066000Y-4445000D01*
X21082000Y-4191000D02*
X20066000Y-4191000D01*
X20066000Y-4191000D02*
X20066000Y-4445000D01*
X21082000Y-4445000D02*
X21082000Y-4191000D01*
X20066000Y-4445000D02*
X19050000Y-4445000D01*
X20066000Y-4191000D02*
X19050000Y-4191000D01*
X19050000Y-4191000D02*
X19050000Y-4445000D01*
X20066000Y-4445000D02*
X20066000Y-4191000D01*
X22098000Y-7112000D02*
X21082000Y-7112000D01*
X22098000Y-6858000D02*
X21082000Y-6858000D01*
X21082000Y-6858000D02*
X21082000Y-7112000D01*
X22098000Y-7112000D02*
X22098000Y-6858000D01*
X21082000Y-7112000D02*
X20066000Y-7112000D01*
X21082000Y-6858000D02*
X20066000Y-6858000D01*
X20066000Y-6858000D02*
X20066000Y-7112000D01*
X21082000Y-7112000D02*
X21082000Y-6858000D01*
X20066000Y-7112000D02*
X19050000Y-7112000D01*
X20066000Y-6858000D02*
X19050000Y-6858000D01*
X19050000Y-6858000D02*
X19050000Y-7112000D01*
X20066000Y-7112000D02*
X20066000Y-6858000D01*
X18796000Y-6146800D02*
X18796000Y-5130800D01*
X19050000Y-6146800D02*
X19050000Y-5130800D01*
X19050000Y-5130800D02*
X18796000Y-5130800D01*
X18796000Y-6146800D02*
X19050000Y-6146800D01*
D13*
X22580600Y-6197600D02*
X22580600Y-6217920D01*
X22390100Y-6350000D02*
X22390100Y-5892800D01*
X22390100Y-5892800D02*
X22453600Y-5892800D01*
X22771100Y-6055360D02*
X22390100Y-6055360D01*
X22771100Y-6022340D02*
X22390100Y-6022340D01*
X22707600Y-6350000D02*
X22771100Y-6350000D01*
X22771100Y-6350000D02*
X22771100Y-5892800D01*
X22771100Y-5892800D02*
X22707600Y-5892800D01*
X22453600Y-6350000D02*
X22390100Y-6350000D01*
X22580600Y-6134100D02*
X22533102Y-6197600D01*
X22533102Y-6197600D02*
X22580600Y-6197600D01*
X22580600Y-6197600D02*
X22628098Y-6197600D01*
X22628098Y-6197600D02*
X22580600Y-6134100D01*
X22580600Y-6134100D02*
X22548850Y-6134100D01*
X22548850Y-6134100D02*
X22533102Y-6149848D01*
X22580600Y-6134100D02*
X22612350Y-6134100D01*
X22612350Y-6134100D02*
X22628098Y-6118352D01*
X22580600Y-6134100D02*
X22580600Y-6023102D01*
X22580600Y-5245100D02*
X22580600Y-5265420D01*
X22390100Y-5397500D02*
X22390100Y-4940300D01*
X22390100Y-4940300D02*
X22453600Y-4940300D01*
X22771100Y-5102860D02*
X22390100Y-5102860D01*
X22771100Y-5069840D02*
X22390100Y-5069840D01*
X22707600Y-5397500D02*
X22771100Y-5397500D01*
X22771100Y-5397500D02*
X22771100Y-4940300D01*
X22771100Y-4940300D02*
X22707600Y-4940300D01*
X22453600Y-5397500D02*
X22390100Y-5397500D01*
X22580600Y-5181600D02*
X22533102Y-5245100D01*
X22533102Y-5245100D02*
X22580600Y-5245100D01*
X22580600Y-5245100D02*
X22628098Y-5245100D01*
X22628098Y-5245100D02*
X22580600Y-5181600D01*
X22580600Y-5181600D02*
X22548850Y-5181600D01*
X22548850Y-5181600D02*
X22533102Y-5197348D01*
X22580600Y-5181600D02*
X22612350Y-5181600D01*
X22612350Y-5181600D02*
X22628098Y-5165852D01*
X22580600Y-5181600D02*
X22580600Y-5070602D01*
D15*
X22301200Y-6604000D02*
X22072600Y-6604000D01*
X22072600Y-6172200D02*
X22301200Y-6172200D01*
X21742400Y-6604000D02*
X21513800Y-6604000D01*
X21513800Y-6172200D02*
X21742400Y-6172200D01*
X21513800Y-6604000D02*
X21513800Y-6172200D01*
X22301200Y-6172200D02*
X22301200Y-6604000D01*
X22301200Y-6134100D02*
X22072600Y-6134100D01*
X22072600Y-5702300D02*
X22301200Y-5702300D01*
X21742400Y-6134100D02*
X21513800Y-6134100D01*
X21513800Y-5702300D02*
X21742400Y-5702300D01*
X21513800Y-6134100D02*
X21513800Y-5702300D01*
X22301200Y-5702300D02*
X22301200Y-6134100D01*
X22301200Y-5130800D02*
X22072600Y-5130800D01*
X22072600Y-4699000D02*
X22301200Y-4699000D01*
X21742400Y-5130800D02*
X21513800Y-5130800D01*
X21513800Y-4699000D02*
X21742400Y-4699000D01*
X21513800Y-5130800D02*
X21513800Y-4699000D01*
X22301200Y-4699000D02*
X22301200Y-5130800D01*
X22301200Y-5600700D02*
X22072600Y-5600700D01*
X22072600Y-5168900D02*
X22301200Y-5168900D01*
X21742400Y-5600700D02*
X21513800Y-5600700D01*
X21513800Y-5168900D02*
X21742400Y-5168900D01*
X21513800Y-5600700D02*
X21513800Y-5168900D01*
X22301200Y-5168900D02*
X22301200Y-5600700D01*
D13*
X21437600Y-6489700D02*
X21209000Y-6489700D01*
X21209000Y-6489700D02*
X21209000Y-6362700D01*
X21209000Y-6362700D02*
X21437600Y-6362700D01*
X21437600Y-6362700D02*
X21437600Y-6489700D01*
X21170900Y-5232400D02*
X21399500Y-5232400D01*
X21399500Y-5232400D02*
X21399500Y-5359400D01*
X21399500Y-5359400D02*
X21170900Y-5359400D01*
X21170900Y-5359400D02*
X21170900Y-5232400D01*
D16*
X21263864Y-5594350D02*
X21131784Y-5594350D01*
X21131784Y-5594350D02*
X21131784Y-5632450D01*
X21263864Y-5632450D02*
X21131784Y-5632450D01*
X21263864Y-5594350D02*
X21263864Y-5632450D01*
X21263864Y-5467350D02*
X21131784Y-5467350D01*
X21131784Y-5467350D02*
X21131784Y-5505450D01*
X21263864Y-5505450D02*
X21131784Y-5505450D01*
X21263864Y-5467350D02*
X21263864Y-5505450D01*
X20702016Y-5467350D02*
X20569936Y-5467350D01*
X20569936Y-5467350D02*
X20569936Y-5505450D01*
X20702016Y-5505450D02*
X20569936Y-5505450D01*
X20702016Y-5467350D02*
X20702016Y-5505450D01*
X20702016Y-5594350D02*
X20569936Y-5594350D01*
X20569936Y-5594350D02*
X20569936Y-5632450D01*
X20702016Y-5632450D02*
X20569936Y-5632450D01*
X20702016Y-5594350D02*
X20702016Y-5632450D01*
D15*
X21125180Y-5433060D02*
X20708620Y-5433060D01*
X20708620Y-5433060D02*
X20708620Y-5666740D01*
X20708620Y-5666740D02*
X21125180Y-5666740D01*
X21125180Y-5666740D02*
X21125180Y-5433060D01*
D17*
X21068519Y-5585206D02*
G75*
G03X21068519Y-5585206I-23349J0D01*
G01*
D16*
X21263864Y-6229350D02*
X21131784Y-6229350D01*
X21131784Y-6229350D02*
X21131784Y-6267450D01*
X21263864Y-6267450D02*
X21131784Y-6267450D01*
X21263864Y-6229350D02*
X21263864Y-6267450D01*
X21263864Y-6102350D02*
X21131784Y-6102350D01*
X21131784Y-6102350D02*
X21131784Y-6140450D01*
X21263864Y-6140450D02*
X21131784Y-6140450D01*
X21263864Y-6102350D02*
X21263864Y-6140450D01*
X20702016Y-6102350D02*
X20569936Y-6102350D01*
X20569936Y-6102350D02*
X20569936Y-6140450D01*
X20702016Y-6140450D02*
X20569936Y-6140450D01*
X20702016Y-6102350D02*
X20702016Y-6140450D01*
X20702016Y-6229350D02*
X20569936Y-6229350D01*
X20569936Y-6229350D02*
X20569936Y-6267450D01*
X20702016Y-6267450D02*
X20569936Y-6267450D01*
X20702016Y-6229350D02*
X20702016Y-6267450D01*
D15*
X21125180Y-6068060D02*
X20708620Y-6068060D01*
X20708620Y-6068060D02*
X20708620Y-6301740D01*
X20708620Y-6301740D02*
X21125180Y-6301740D01*
X21125180Y-6301740D02*
X21125180Y-6068060D01*
D17*
X21068519Y-6220206D02*
G75*
G03X21068519Y-6220206I-23349J0D01*
G01*
D10*
X19371000Y-4822900D02*
X19371000Y-4752900D01*
X19491000Y-4752900D02*
X19491000Y-4822900D01*
X19231300Y-4822900D02*
X19231300Y-4752900D01*
X19351300Y-4752900D02*
X19351300Y-4822900D01*
D13*
X20320000Y-9436100D02*
X19304000Y-9436100D01*
X19304000Y-9436100D02*
X19304000Y-8597900D01*
X19304000Y-8597900D02*
X20320000Y-8597900D01*
X20320000Y-8597900D02*
X20320000Y-9436100D01*
X19304000Y-8953500D02*
X19380200Y-8953500D01*
X19380200Y-8953500D02*
X19380200Y-9080500D01*
X19380200Y-9080500D02*
X19304000Y-9080500D01*
X20967700Y-9588500D02*
X21196300Y-9588500D01*
X21196300Y-9588500D02*
X21196300Y-9715500D01*
X21196300Y-9715500D02*
X20967700Y-9715500D01*
X20967700Y-9715500D02*
X20967700Y-9588500D01*
X20586700Y-9588500D02*
X20815300Y-9588500D01*
X20815300Y-9588500D02*
X20815300Y-9715500D01*
X20815300Y-9715500D02*
X20586700Y-9715500D01*
X20586700Y-9715500D02*
X20586700Y-9588500D01*
X20967700Y-8318500D02*
X21196300Y-8318500D01*
X21196300Y-8318500D02*
X21196300Y-8445500D01*
X21196300Y-8445500D02*
X20967700Y-8445500D01*
X20967700Y-8445500D02*
X20967700Y-8318500D01*
X20586700Y-8318500D02*
X20815300Y-8318500D01*
X20815300Y-8318500D02*
X20815300Y-8445500D01*
X20815300Y-8445500D02*
X20586700Y-8445500D01*
X20586700Y-8445500D02*
X20586700Y-8318500D01*
X19367500Y-10020300D02*
X19367500Y-9791700D01*
X19367500Y-9791700D02*
X19494500Y-9791700D01*
X19494500Y-9791700D02*
X19494500Y-10020300D01*
X19494500Y-10020300D02*
X19367500Y-10020300D01*
X19570700Y-10020300D02*
X19570700Y-9791700D01*
X19570700Y-9791700D02*
X19697700Y-9791700D01*
X19697700Y-9791700D02*
X19697700Y-10020300D01*
X19697700Y-10020300D02*
X19570700Y-10020300D01*
X19773900Y-10020300D02*
X19773900Y-9791700D01*
X19773900Y-9791700D02*
X19900900Y-9791700D01*
X19900900Y-9791700D02*
X19900900Y-10020300D01*
X19900900Y-10020300D02*
X19773900Y-10020300D01*
X20002500Y-7886700D02*
X20002500Y-8115300D01*
X20002500Y-8115300D02*
X19875500Y-8115300D01*
X19875500Y-8115300D02*
X19875500Y-7886700D01*
X19875500Y-7886700D02*
X20002500Y-7886700D01*
X20256500Y-7886700D02*
X20256500Y-8115300D01*
X20256500Y-8115300D02*
X20129500Y-8115300D01*
X20129500Y-8115300D02*
X20129500Y-7886700D01*
X20129500Y-7886700D02*
X20256500Y-7886700D01*
X20510500Y-7886700D02*
X20510500Y-8115300D01*
X20510500Y-8115300D02*
X20383500Y-8115300D01*
X20383500Y-8115300D02*
X20383500Y-7886700D01*
X20383500Y-7886700D02*
X20510500Y-7886700D01*
X20764500Y-7886700D02*
X20764500Y-8115300D01*
X20764500Y-8115300D02*
X20637500Y-8115300D01*
X20637500Y-8115300D02*
X20637500Y-7886700D01*
X20637500Y-7886700D02*
X20764500Y-7886700D01*
X21018500Y-7886700D02*
X21018500Y-8115300D01*
X21018500Y-8115300D02*
X20891500Y-8115300D01*
X20891500Y-8115300D02*
X20891500Y-7886700D01*
X20891500Y-7886700D02*
X21018500Y-7886700D01*
X21272500Y-7886700D02*
X21272500Y-8115300D01*
X21272500Y-8115300D02*
X21145500Y-8115300D01*
X21145500Y-8115300D02*
X21145500Y-7886700D01*
X21145500Y-7886700D02*
X21272500Y-7886700D01*
D14*
X22860000Y-9448800D02*
X22860000Y-8432800D01*
X23114000Y-9448800D02*
X23114000Y-8432800D01*
X23114000Y-8432800D02*
X22860000Y-8432800D01*
X22860000Y-9448800D02*
X23114000Y-9448800D01*
X22098000Y-7747000D02*
X21082000Y-7747000D01*
X22098000Y-7493000D02*
X21082000Y-7493000D01*
X21082000Y-7493000D02*
X21082000Y-7747000D01*
X22098000Y-7747000D02*
X22098000Y-7493000D01*
X21082000Y-7747000D02*
X20066000Y-7747000D01*
X21082000Y-7493000D02*
X20066000Y-7493000D01*
X20066000Y-7493000D02*
X20066000Y-7747000D01*
X21082000Y-7747000D02*
X21082000Y-7493000D01*
X20066000Y-7747000D02*
X19050000Y-7747000D01*
X20066000Y-7493000D02*
X19050000Y-7493000D01*
X19050000Y-7493000D02*
X19050000Y-7747000D01*
X20066000Y-7747000D02*
X20066000Y-7493000D01*
X22098000Y-10414000D02*
X21082000Y-10414000D01*
X22098000Y-10160000D02*
X21082000Y-10160000D01*
X21082000Y-10160000D02*
X21082000Y-10414000D01*
X22098000Y-10414000D02*
X22098000Y-10160000D01*
X21082000Y-10414000D02*
X20066000Y-10414000D01*
X21082000Y-10160000D02*
X20066000Y-10160000D01*
X20066000Y-10160000D02*
X20066000Y-10414000D01*
X21082000Y-10414000D02*
X21082000Y-10160000D01*
X20066000Y-10414000D02*
X19050000Y-10414000D01*
X20066000Y-10160000D02*
X19050000Y-10160000D01*
X19050000Y-10160000D02*
X19050000Y-10414000D01*
X20066000Y-10414000D02*
X20066000Y-10160000D01*
X18796000Y-9448800D02*
X18796000Y-8432800D01*
X19050000Y-9448800D02*
X19050000Y-8432800D01*
X19050000Y-8432800D02*
X18796000Y-8432800D01*
X18796000Y-9448800D02*
X19050000Y-9448800D01*
D13*
X22072600Y-9779000D02*
X22052280Y-9779000D01*
X21920200Y-9588500D02*
X22377400Y-9588500D01*
X22377400Y-9588500D02*
X22377400Y-9652000D01*
X22214840Y-9969500D02*
X22214840Y-9588500D01*
X22247860Y-9969500D02*
X22247860Y-9588500D01*
X21920200Y-9906000D02*
X21920200Y-9969500D01*
X21920200Y-9969500D02*
X22377400Y-9969500D01*
X22377400Y-9969500D02*
X22377400Y-9906000D01*
X21920200Y-9652000D02*
X21920200Y-9588500D01*
X22136100Y-9779000D02*
X22072600Y-9731502D01*
X22072600Y-9731502D02*
X22072600Y-9779000D01*
X22072600Y-9779000D02*
X22072600Y-9826498D01*
X22072600Y-9826498D02*
X22136100Y-9779000D01*
X22136100Y-9779000D02*
X22136100Y-9747250D01*
X22136100Y-9747250D02*
X22120352Y-9731502D01*
X22136100Y-9779000D02*
X22136100Y-9810750D01*
X22136100Y-9810750D02*
X22151848Y-9826498D01*
X22136100Y-9779000D02*
X22247098Y-9779000D01*
X22072600Y-8255000D02*
X22052280Y-8255000D01*
X21920200Y-8064500D02*
X22377400Y-8064500D01*
X22377400Y-8064500D02*
X22377400Y-8128000D01*
X22214840Y-8445500D02*
X22214840Y-8064500D01*
X22247860Y-8445500D02*
X22247860Y-8064500D01*
X21920200Y-8382000D02*
X21920200Y-8445500D01*
X21920200Y-8445500D02*
X22377400Y-8445500D01*
X22377400Y-8445500D02*
X22377400Y-8382000D01*
X21920200Y-8128000D02*
X21920200Y-8064500D01*
X22136100Y-8255000D02*
X22072600Y-8207502D01*
X22072600Y-8207502D02*
X22072600Y-8255000D01*
X22072600Y-8255000D02*
X22072600Y-8302498D01*
X22072600Y-8302498D02*
X22136100Y-8255000D01*
X22136100Y-8255000D02*
X22136100Y-8223250D01*
X22136100Y-8223250D02*
X22120352Y-8207502D01*
X22136100Y-8255000D02*
X22136100Y-8286750D01*
X22136100Y-8286750D02*
X22151848Y-8302498D01*
X22136100Y-8255000D02*
X22247098Y-8255000D01*
D18*
X20790803Y-9080500D02*
G75*
G03X20790803Y-9080500I-89803J0D01*
G01*
X20574000Y-8509000D02*
X22733000Y-8509000D01*
X22733000Y-8509000D02*
X22733000Y-8890000D01*
X22733000Y-8890000D02*
X20574000Y-8890000D01*
X20574000Y-8890000D02*
X20574000Y-8509000D01*
X20790803Y-9715500D02*
G75*
G03X20790803Y-9715500I-89803J0D01*
G01*
X20574000Y-9144000D02*
X22733000Y-9144000D01*
X22733000Y-9144000D02*
X22733000Y-9525000D01*
X22733000Y-9525000D02*
X20574000Y-9525000D01*
X20574000Y-9525000D02*
X20574000Y-9144000D01*
D10*
X19434500Y-8150300D02*
X19434500Y-8080300D01*
X19554500Y-8080300D02*
X19554500Y-8150300D01*
X19282100Y-8150300D02*
X19282100Y-8080300D01*
X19402100Y-8080300D02*
X19402100Y-8150300D01*
X19835650Y-11729350D02*
X19835650Y-11794350D01*
X20410650Y-11729350D02*
X20410650Y-11794350D01*
X20410650Y-12794350D02*
X20410650Y-12729350D01*
X19835650Y-12794350D02*
X19835650Y-12729350D01*
X19835650Y-11729350D02*
X20410650Y-11729350D01*
X19835650Y-12794350D02*
X20410650Y-12794350D01*
X19835650Y-11794350D02*
X19675650Y-11794350D01*
D14*
X22098000Y-11049000D02*
X21082000Y-11049000D01*
X22098000Y-10795000D02*
X21082000Y-10795000D01*
X21082000Y-10795000D02*
X21082000Y-11049000D01*
X22098000Y-11049000D02*
X22098000Y-10795000D01*
X21082000Y-11049000D02*
X20066000Y-11049000D01*
X21082000Y-10795000D02*
X20066000Y-10795000D01*
X20066000Y-10795000D02*
X20066000Y-11049000D01*
X21082000Y-11049000D02*
X21082000Y-10795000D01*
X20066000Y-11049000D02*
X19050000Y-11049000D01*
X20066000Y-10795000D02*
X19050000Y-10795000D01*
X19050000Y-10795000D02*
X19050000Y-11049000D01*
X20066000Y-11049000D02*
X20066000Y-10795000D01*
X22098000Y-13716000D02*
X21082000Y-13716000D01*
X22098000Y-13462000D02*
X21082000Y-13462000D01*
X21082000Y-13462000D02*
X21082000Y-13716000D01*
X22098000Y-13716000D02*
X22098000Y-13462000D01*
X21082000Y-13716000D02*
X20066000Y-13716000D01*
X21082000Y-13462000D02*
X20066000Y-13462000D01*
X20066000Y-13462000D02*
X20066000Y-13716000D01*
X21082000Y-13716000D02*
X21082000Y-13462000D01*
X20066000Y-13716000D02*
X19050000Y-13716000D01*
X20066000Y-13462000D02*
X19050000Y-13462000D01*
X19050000Y-13462000D02*
X19050000Y-13716000D01*
X20066000Y-13716000D02*
X20066000Y-13462000D01*
X18796000Y-12750800D02*
X18796000Y-11734800D01*
X19050000Y-12750800D02*
X19050000Y-11734800D01*
X19050000Y-11734800D02*
X18796000Y-11734800D01*
X18796000Y-12750800D02*
X19050000Y-12750800D01*
D10*
X19503700Y-11522000D02*
X19503700Y-11592000D01*
X19383700Y-11592000D02*
X19383700Y-11522000D01*
X19630700Y-11522000D02*
X19630700Y-11592000D01*
X19510700Y-11592000D02*
X19510700Y-11522000D01*
X20856500Y-12335200D02*
X20926500Y-12335200D01*
X20926500Y-12455200D02*
X20856500Y-12455200D01*
X20856500Y-12195500D02*
X20926500Y-12195500D01*
X20926500Y-12315500D02*
X20856500Y-12315500D01*
X21558504Y-12972288D02*
X22078696Y-12972288D01*
X22078696Y-12732512D02*
X21558504Y-12732512D01*
X21358606Y-12622530D02*
X21358606Y-12732512D01*
X21298662Y-12672568D02*
X21418550Y-12672568D01*
X21419058Y-12732512D02*
X21419058Y-12972288D01*
X22177700Y-12277800D02*
X22177700Y-12207800D01*
X22297700Y-12207800D02*
X22297700Y-12277800D01*
X21139658Y-11970258D02*
X21139658Y-11880342D01*
X21139658Y-11880342D02*
X21179536Y-11880342D01*
X21179536Y-11970258D02*
X21179536Y-11880342D01*
X21139658Y-11970258D02*
X21179536Y-11970258D01*
X21009864Y-11970258D02*
X21009864Y-11880342D01*
X21009864Y-11880342D02*
X21049742Y-11880342D01*
X21049742Y-11970258D02*
X21049742Y-11880342D01*
X21009864Y-11970258D02*
X21049742Y-11970258D01*
X21094700Y-11970258D02*
X21094700Y-11955272D01*
X21094700Y-11955272D02*
X21124672Y-11955272D01*
X21124672Y-11970258D02*
X21124672Y-11955272D01*
X21094700Y-11970258D02*
X21124672Y-11970258D01*
X21094700Y-11895328D02*
X21094700Y-11880342D01*
X21094700Y-11880342D02*
X21124672Y-11880342D01*
X21124672Y-11895328D02*
X21124672Y-11880342D01*
X21094700Y-11895328D02*
X21124672Y-11895328D01*
X21094700Y-11940286D02*
X21094700Y-11910314D01*
X21094700Y-11910314D02*
X21124672Y-11910314D01*
X21124672Y-11940286D02*
X21124672Y-11910314D01*
X21094700Y-11940286D02*
X21124672Y-11940286D01*
X21139658Y-11965178D02*
X21049742Y-11965178D01*
X21139658Y-11885422D02*
X21049742Y-11885422D01*
X21139658Y-11792458D02*
X21139658Y-11702542D01*
X21139658Y-11702542D02*
X21179536Y-11702542D01*
X21179536Y-11792458D02*
X21179536Y-11702542D01*
X21139658Y-11792458D02*
X21179536Y-11792458D01*
X21009864Y-11792458D02*
X21009864Y-11702542D01*
X21009864Y-11702542D02*
X21049742Y-11702542D01*
X21049742Y-11792458D02*
X21049742Y-11702542D01*
X21009864Y-11792458D02*
X21049742Y-11792458D01*
X21094700Y-11792458D02*
X21094700Y-11777472D01*
X21094700Y-11777472D02*
X21124672Y-11777472D01*
X21124672Y-11792458D02*
X21124672Y-11777472D01*
X21094700Y-11792458D02*
X21124672Y-11792458D01*
X21094700Y-11717528D02*
X21094700Y-11702542D01*
X21094700Y-11702542D02*
X21124672Y-11702542D01*
X21124672Y-11717528D02*
X21124672Y-11702542D01*
X21094700Y-11717528D02*
X21124672Y-11717528D01*
X21094700Y-11762486D02*
X21094700Y-11732514D01*
X21094700Y-11732514D02*
X21124672Y-11732514D01*
X21124672Y-11762486D02*
X21124672Y-11732514D01*
X21094700Y-11762486D02*
X21124672Y-11762486D01*
X21139658Y-11787378D02*
X21049742Y-11787378D01*
X21139658Y-11707622D02*
X21049742Y-11707622D01*
X22170300Y-12292800D02*
X22170300Y-12192800D01*
X22000300Y-12192800D02*
X22000300Y-12292800D01*
X20094000Y-13154600D02*
X20094000Y-13309600D01*
X19784000Y-13309600D02*
X19784000Y-13154600D01*
X19784000Y-13154600D02*
X20094000Y-13154600D01*
X19812000Y-13436600D02*
X20066000Y-13436600D01*
X19763800Y-13154600D02*
X19763800Y-13309600D01*
X19453800Y-13309600D02*
X19453800Y-13154600D01*
X19453800Y-13154600D02*
X19763800Y-13154600D01*
X19481800Y-13436600D02*
X19735800Y-13436600D01*
X19433600Y-13154600D02*
X19433600Y-13309600D01*
X19123600Y-13309600D02*
X19123600Y-13154600D01*
X19123600Y-13154600D02*
X19433600Y-13154600D01*
X19151600Y-13436600D02*
X19405600Y-13436600D01*
X21462200Y-11992800D02*
X21362200Y-11992800D01*
X21362200Y-11857800D02*
X21462200Y-11857800D01*
X21462200Y-11815000D02*
X21362200Y-11815000D01*
X21362200Y-11680000D02*
X21462200Y-11680000D01*
X19203200Y-12099100D02*
X19303200Y-12099100D01*
X19303200Y-12234100D02*
X19203200Y-12234100D01*
X19203200Y-11959400D02*
X19303200Y-11959400D01*
X19303200Y-12094400D02*
X19203200Y-12094400D01*
X19203200Y-12378500D02*
X19303200Y-12378500D01*
X19303200Y-12513500D02*
X19203200Y-12513500D01*
X19203200Y-12238800D02*
X19303200Y-12238800D01*
X19303200Y-12373800D02*
X19203200Y-12373800D01*
X20841500Y-12645200D02*
X20941500Y-12645200D01*
X20941500Y-12780200D02*
X20841500Y-12780200D01*
X20841500Y-12492800D02*
X20941500Y-12492800D01*
X20941500Y-12627800D02*
X20841500Y-12627800D01*
X22309900Y-12038800D02*
X22309900Y-11938800D01*
X22444900Y-11938800D02*
X22444900Y-12038800D01*
X20455700Y-13131000D02*
X20455700Y-13031000D01*
X20590700Y-13031000D02*
X20590700Y-13131000D01*
X20608100Y-13131000D02*
X20608100Y-13031000D01*
X20743100Y-13031000D02*
X20743100Y-13131000D01*
X20303300Y-13131000D02*
X20303300Y-13031000D01*
X20438300Y-13031000D02*
X20438300Y-13131000D01*
D19*
X23275798Y-12662916D02*
X23275798Y-11822684D01*
X23285958Y-12662916D02*
X23285958Y-11822684D01*
X23285958Y-11822684D02*
X23265892Y-11822684D01*
X23265892Y-11822684D02*
X23265892Y-12662916D01*
X23265892Y-12662916D02*
X23285958Y-12662916D01*
X23285958Y-12632690D02*
X22785832Y-12632690D01*
X22785832Y-12632690D02*
X22785832Y-11852910D01*
X22785832Y-11852910D02*
X23285958Y-11852910D01*
D10*
X19763800Y-12849800D02*
X19763800Y-13004800D01*
X19453800Y-13004800D02*
X19453800Y-12849800D01*
X19453800Y-12849800D02*
X19763800Y-12849800D01*
X19481800Y-13131800D02*
X19735800Y-13131800D01*
D15*
X19534414Y-4928507D02*
X19534414Y-5021036D01*
X19539857Y-5031921D01*
X19545300Y-5037364D01*
X19556186Y-5042807D01*
X19577957Y-5042807D01*
X19588843Y-5037364D01*
X19594286Y-5031921D01*
X19599729Y-5021036D01*
X19599729Y-4928507D01*
X19714029Y-5042807D02*
X19648714Y-5042807D01*
X19681372Y-5042807D02*
X19681372Y-4928507D01*
X19670486Y-4944836D01*
X19659600Y-4955721D01*
X19648714Y-4961164D01*
D20*
X20824009Y-6461881D02*
X20808769Y-6437690D01*
X20797883Y-6461881D02*
X20797883Y-6411081D01*
X20815300Y-6411081D01*
X20819654Y-6413500D01*
X20821831Y-6415919D01*
X20824009Y-6420757D01*
X20824009Y-6428014D01*
X20821831Y-6432852D01*
X20819654Y-6435271D01*
X20815300Y-6437690D01*
X20797883Y-6437690D01*
X20867551Y-6461881D02*
X20841426Y-6461881D01*
X20854489Y-6461881D02*
X20854489Y-6411081D01*
X20850134Y-6418338D01*
X20845780Y-6423176D01*
X20841426Y-6425595D01*
X20882791Y-6411081D02*
X20911094Y-6411081D01*
X20895854Y-6430433D01*
X20902386Y-6430433D01*
X20906740Y-6432852D01*
X20908917Y-6435271D01*
X20911094Y-6440109D01*
X20911094Y-6452205D01*
X20908917Y-6457043D01*
X20906740Y-6459462D01*
X20902386Y-6461881D01*
X20889323Y-6461881D01*
X20884969Y-6459462D01*
X20882791Y-6457043D01*
X20392209Y-6665081D02*
X20376969Y-6640890D01*
X20366083Y-6665081D02*
X20366083Y-6614281D01*
X20383500Y-6614281D01*
X20387854Y-6616700D01*
X20390031Y-6619119D01*
X20392209Y-6623957D01*
X20392209Y-6631214D01*
X20390031Y-6636052D01*
X20387854Y-6638471D01*
X20383500Y-6640890D01*
X20366083Y-6640890D01*
X20435751Y-6665081D02*
X20409626Y-6665081D01*
X20422689Y-6665081D02*
X20422689Y-6614281D01*
X20418334Y-6621538D01*
X20413980Y-6626376D01*
X20409626Y-6628795D01*
X20453169Y-6619119D02*
X20455346Y-6616700D01*
X20459700Y-6614281D01*
X20470586Y-6614281D01*
X20474940Y-6616700D01*
X20477117Y-6619119D01*
X20479294Y-6623957D01*
X20479294Y-6628795D01*
X20477117Y-6636052D01*
X20450991Y-6665081D01*
X20479294Y-6665081D01*
X20404909Y-5306181D02*
X20389669Y-5281991D01*
X20378783Y-5306181D02*
X20378783Y-5255381D01*
X20396200Y-5255381D01*
X20400554Y-5257800D01*
X20402731Y-5260219D01*
X20404909Y-5265057D01*
X20404909Y-5272314D01*
X20402731Y-5277152D01*
X20400554Y-5279571D01*
X20396200Y-5281991D01*
X20378783Y-5281991D01*
X20448451Y-5306181D02*
X20422326Y-5306181D01*
X20435389Y-5306181D02*
X20435389Y-5255381D01*
X20431034Y-5262638D01*
X20426680Y-5267476D01*
X20422326Y-5269895D01*
X20491994Y-5306181D02*
X20465869Y-5306181D01*
X20478931Y-5306181D02*
X20478931Y-5255381D01*
X20474577Y-5262638D01*
X20470223Y-5267476D01*
X20465869Y-5269895D01*
X20404909Y-5090281D02*
X20389669Y-5066091D01*
X20378783Y-5090281D02*
X20378783Y-5039481D01*
X20396200Y-5039481D01*
X20400554Y-5041900D01*
X20402731Y-5044319D01*
X20404909Y-5049157D01*
X20404909Y-5056414D01*
X20402731Y-5061252D01*
X20400554Y-5063671D01*
X20396200Y-5066091D01*
X20378783Y-5066091D01*
X20448451Y-5090281D02*
X20422326Y-5090281D01*
X20435389Y-5090281D02*
X20435389Y-5039481D01*
X20431034Y-5046738D01*
X20426680Y-5051576D01*
X20422326Y-5053995D01*
X20476754Y-5039481D02*
X20481109Y-5039481D01*
X20485463Y-5041900D01*
X20487640Y-5044319D01*
X20489817Y-5049157D01*
X20491994Y-5058833D01*
X20491994Y-5070929D01*
X20489817Y-5080605D01*
X20487640Y-5085443D01*
X20485463Y-5087862D01*
X20481109Y-5090281D01*
X20476754Y-5090281D01*
X20472400Y-5087862D01*
X20470223Y-5085443D01*
X20468046Y-5080605D01*
X20465869Y-5070929D01*
X20465869Y-5058833D01*
X20468046Y-5049157D01*
X20470223Y-5044319D01*
X20472400Y-5041900D01*
X20476754Y-5039481D01*
X19423380Y-6804781D02*
X19408140Y-6780590D01*
X19397254Y-6804781D02*
X19397254Y-6753981D01*
X19414672Y-6753981D01*
X19419026Y-6756400D01*
X19421203Y-6758819D01*
X19423380Y-6763657D01*
X19423380Y-6770914D01*
X19421203Y-6775752D01*
X19419026Y-6778171D01*
X19414672Y-6780590D01*
X19397254Y-6780590D01*
X19445152Y-6804781D02*
X19453860Y-6804781D01*
X19458214Y-6802362D01*
X19460392Y-6799943D01*
X19464746Y-6792686D01*
X19466923Y-6783009D01*
X19466923Y-6763657D01*
X19464746Y-6758819D01*
X19462569Y-6756400D01*
X19458214Y-6753981D01*
X19449506Y-6753981D01*
X19445152Y-6756400D01*
X19442974Y-6758819D01*
X19440797Y-6763657D01*
X19440797Y-6775752D01*
X19442974Y-6780590D01*
X19445152Y-6783009D01*
X19449506Y-6785429D01*
X19458214Y-6785429D01*
X19462569Y-6783009D01*
X19464746Y-6780590D01*
X19466923Y-6775752D01*
X19626580Y-6804781D02*
X19611340Y-6780590D01*
X19600454Y-6804781D02*
X19600454Y-6753981D01*
X19617872Y-6753981D01*
X19622226Y-6756400D01*
X19624403Y-6758819D01*
X19626580Y-6763657D01*
X19626580Y-6770914D01*
X19624403Y-6775752D01*
X19622226Y-6778171D01*
X19617872Y-6780590D01*
X19600454Y-6780590D01*
X19652706Y-6775752D02*
X19648352Y-6773333D01*
X19646174Y-6770914D01*
X19643997Y-6766076D01*
X19643997Y-6763657D01*
X19646174Y-6758819D01*
X19648352Y-6756400D01*
X19652706Y-6753981D01*
X19661414Y-6753981D01*
X19665769Y-6756400D01*
X19667946Y-6758819D01*
X19670123Y-6763657D01*
X19670123Y-6766076D01*
X19667946Y-6770914D01*
X19665769Y-6773333D01*
X19661414Y-6775752D01*
X19652706Y-6775752D01*
X19648352Y-6778171D01*
X19646174Y-6780590D01*
X19643997Y-6785429D01*
X19643997Y-6795105D01*
X19646174Y-6799943D01*
X19648352Y-6802362D01*
X19652706Y-6804781D01*
X19661414Y-6804781D01*
X19665769Y-6802362D01*
X19667946Y-6799943D01*
X19670123Y-6795105D01*
X19670123Y-6785429D01*
X19667946Y-6780590D01*
X19665769Y-6778171D01*
X19661414Y-6775752D01*
X19829780Y-6804781D02*
X19814540Y-6780590D01*
X19803654Y-6804781D02*
X19803654Y-6753981D01*
X19821072Y-6753981D01*
X19825426Y-6756400D01*
X19827603Y-6758819D01*
X19829780Y-6763657D01*
X19829780Y-6770914D01*
X19827603Y-6775752D01*
X19825426Y-6778171D01*
X19821072Y-6780590D01*
X19803654Y-6780590D01*
X19845020Y-6753981D02*
X19875500Y-6753981D01*
X19855906Y-6804781D01*
X19931380Y-4899781D02*
X19916140Y-4875591D01*
X19905254Y-4899781D02*
X19905254Y-4848981D01*
X19922672Y-4848981D01*
X19927026Y-4851400D01*
X19929203Y-4853819D01*
X19931380Y-4858657D01*
X19931380Y-4865914D01*
X19929203Y-4870752D01*
X19927026Y-4873171D01*
X19922672Y-4875591D01*
X19905254Y-4875591D01*
X19974923Y-4899781D02*
X19948797Y-4899781D01*
X19961860Y-4899781D02*
X19961860Y-4848981D01*
X19957506Y-4856238D01*
X19953152Y-4861076D01*
X19948797Y-4863495D01*
X20185380Y-4899781D02*
X20170140Y-4875591D01*
X20159254Y-4899781D02*
X20159254Y-4848981D01*
X20176672Y-4848981D01*
X20181026Y-4851400D01*
X20183203Y-4853819D01*
X20185380Y-4858657D01*
X20185380Y-4865914D01*
X20183203Y-4870752D01*
X20181026Y-4873171D01*
X20176672Y-4875591D01*
X20159254Y-4875591D01*
X20202797Y-4853819D02*
X20204974Y-4851400D01*
X20209329Y-4848981D01*
X20220214Y-4848981D01*
X20224569Y-4851400D01*
X20226746Y-4853819D01*
X20228923Y-4858657D01*
X20228923Y-4863495D01*
X20226746Y-4870752D01*
X20200620Y-4899781D01*
X20228923Y-4899781D01*
X20452080Y-4899781D02*
X20436840Y-4875591D01*
X20425954Y-4899781D02*
X20425954Y-4848981D01*
X20443372Y-4848981D01*
X20447726Y-4851400D01*
X20449903Y-4853819D01*
X20452080Y-4858657D01*
X20452080Y-4865914D01*
X20449903Y-4870752D01*
X20447726Y-4873171D01*
X20443372Y-4875591D01*
X20425954Y-4875591D01*
X20467320Y-4848981D02*
X20495623Y-4848981D01*
X20480383Y-4868333D01*
X20486914Y-4868333D01*
X20491269Y-4870752D01*
X20493446Y-4873171D01*
X20495623Y-4878010D01*
X20495623Y-4890105D01*
X20493446Y-4894943D01*
X20491269Y-4897362D01*
X20486914Y-4899781D01*
X20473852Y-4899781D01*
X20469497Y-4897362D01*
X20467320Y-4894943D01*
X20693380Y-4899781D02*
X20678140Y-4875591D01*
X20667254Y-4899781D02*
X20667254Y-4848981D01*
X20684672Y-4848981D01*
X20689026Y-4851400D01*
X20691203Y-4853819D01*
X20693380Y-4858657D01*
X20693380Y-4865914D01*
X20691203Y-4870752D01*
X20689026Y-4873171D01*
X20684672Y-4875591D01*
X20667254Y-4875591D01*
X20732569Y-4865914D02*
X20732569Y-4899781D01*
X20721683Y-4846562D02*
X20710797Y-4882848D01*
X20739100Y-4882848D01*
X20947380Y-4899781D02*
X20932140Y-4875591D01*
X20921254Y-4899781D02*
X20921254Y-4848981D01*
X20938672Y-4848981D01*
X20943026Y-4851400D01*
X20945203Y-4853819D01*
X20947380Y-4858657D01*
X20947380Y-4865914D01*
X20945203Y-4870752D01*
X20943026Y-4873171D01*
X20938672Y-4875591D01*
X20921254Y-4875591D01*
X20988746Y-4848981D02*
X20966974Y-4848981D01*
X20964797Y-4873171D01*
X20966974Y-4870752D01*
X20971329Y-4868333D01*
X20982214Y-4868333D01*
X20986569Y-4870752D01*
X20988746Y-4873171D01*
X20990923Y-4878010D01*
X20990923Y-4890105D01*
X20988746Y-4894943D01*
X20986569Y-4897362D01*
X20982214Y-4899781D01*
X20971329Y-4899781D01*
X20966974Y-4897362D01*
X20964797Y-4894943D01*
X21353780Y-4721981D02*
X21338540Y-4697791D01*
X21327654Y-4721981D02*
X21327654Y-4671181D01*
X21345072Y-4671181D01*
X21349426Y-4673600D01*
X21351603Y-4676019D01*
X21353780Y-4680857D01*
X21353780Y-4688114D01*
X21351603Y-4692952D01*
X21349426Y-4695371D01*
X21345072Y-4697791D01*
X21327654Y-4697791D01*
X21392969Y-4671181D02*
X21384260Y-4671181D01*
X21379906Y-4673600D01*
X21377729Y-4676019D01*
X21373374Y-4683276D01*
X21371197Y-4692952D01*
X21371197Y-4712305D01*
X21373374Y-4717143D01*
X21375552Y-4719562D01*
X21379906Y-4721981D01*
X21388614Y-4721981D01*
X21392969Y-4719562D01*
X21395146Y-4717143D01*
X21397323Y-4712305D01*
X21397323Y-4700210D01*
X21395146Y-4695371D01*
X21392969Y-4692952D01*
X21388614Y-4690533D01*
X21379906Y-4690533D01*
X21375552Y-4692952D01*
X21373374Y-4695371D01*
X21371197Y-4700210D01*
D15*
X22912010Y-6281662D02*
X22912010Y-6180062D01*
X22950714Y-6180062D01*
X22960390Y-6184900D01*
X22965229Y-6189738D01*
X22970067Y-6199414D01*
X22970067Y-6213929D01*
X22965229Y-6223605D01*
X22960390Y-6228443D01*
X22950714Y-6233281D01*
X22912010Y-6233281D01*
X23028124Y-6223605D02*
X23018448Y-6218767D01*
X23013610Y-6213929D01*
X23008771Y-6204252D01*
X23008771Y-6199414D01*
X23013610Y-6189738D01*
X23018448Y-6184900D01*
X23028124Y-6180062D01*
X23047476Y-6180062D01*
X23057152Y-6184900D01*
X23061990Y-6189738D01*
X23066829Y-6199414D01*
X23066829Y-6204252D01*
X23061990Y-6213929D01*
X23057152Y-6218767D01*
X23047476Y-6223605D01*
X23028124Y-6223605D01*
X23018448Y-6228443D01*
X23013610Y-6233281D01*
X23008771Y-6242957D01*
X23008771Y-6262309D01*
X23013610Y-6271986D01*
X23018448Y-6276824D01*
X23028124Y-6281662D01*
X23047476Y-6281662D01*
X23057152Y-6276824D01*
X23061990Y-6271986D01*
X23066829Y-6262309D01*
X23066829Y-6242957D01*
X23061990Y-6233281D01*
X23057152Y-6228443D01*
X23047476Y-6223605D01*
X22365910Y-4363962D02*
X22365910Y-4262362D01*
X22404614Y-4262362D01*
X22414290Y-4267200D01*
X22419129Y-4272038D01*
X22423967Y-4281714D01*
X22423967Y-4296229D01*
X22419129Y-4305905D01*
X22414290Y-4310743D01*
X22404614Y-4315581D01*
X22365910Y-4315581D01*
X22457833Y-4262362D02*
X22525567Y-4262362D01*
X22482024Y-4363962D01*
X22150010Y-4363962D02*
X22150010Y-4262362D01*
X22188714Y-4262362D01*
X22198391Y-4267200D01*
X22203229Y-4272038D01*
X22208067Y-4281714D01*
X22208067Y-4296229D01*
X22203229Y-4305905D01*
X22198391Y-4310743D01*
X22188714Y-4315581D01*
X22150010Y-4315581D01*
X22295152Y-4262362D02*
X22275800Y-4262362D01*
X22266124Y-4267200D01*
X22261286Y-4272038D01*
X22251610Y-4286552D01*
X22246772Y-4305905D01*
X22246772Y-4344610D01*
X22251610Y-4354286D01*
X22256448Y-4359124D01*
X22266124Y-4363962D01*
X22285476Y-4363962D01*
X22295152Y-4359124D01*
X22299991Y-4354286D01*
X22304829Y-4344610D01*
X22304829Y-4320419D01*
X22299991Y-4310743D01*
X22295152Y-4305905D01*
X22285476Y-4301067D01*
X22266124Y-4301067D01*
X22256448Y-4305905D01*
X22251610Y-4310743D01*
X22246772Y-4320419D01*
X18835310Y-4275062D02*
X18835310Y-4173462D01*
X18874014Y-4173462D01*
X18883691Y-4178300D01*
X18888529Y-4183138D01*
X18893367Y-4192814D01*
X18893367Y-4207329D01*
X18888529Y-4217005D01*
X18883691Y-4221843D01*
X18874014Y-4226681D01*
X18835310Y-4226681D01*
X18985291Y-4173462D02*
X18936910Y-4173462D01*
X18932072Y-4221843D01*
X18936910Y-4217005D01*
X18946586Y-4212167D01*
X18970776Y-4212167D01*
X18980452Y-4217005D01*
X18985291Y-4221843D01*
X18990129Y-4231519D01*
X18990129Y-4255710D01*
X18985291Y-4265386D01*
X18980452Y-4270224D01*
X18970776Y-4275062D01*
X18946586Y-4275062D01*
X18936910Y-4270224D01*
X18932072Y-4265386D01*
X21134010Y-6776962D02*
X21134010Y-6675362D01*
X21172714Y-6675362D01*
X21182391Y-6680200D01*
X21187229Y-6685038D01*
X21192067Y-6694714D01*
X21192067Y-6709229D01*
X21187229Y-6718905D01*
X21182391Y-6723743D01*
X21172714Y-6728581D01*
X21134010Y-6728581D01*
X21279152Y-6709229D02*
X21279152Y-6776962D01*
X21254962Y-6670524D02*
X21230772Y-6743095D01*
X21293667Y-6743095D01*
X20118010Y-6776962D02*
X20118010Y-6675362D01*
X20156714Y-6675362D01*
X20166391Y-6680200D01*
X20171229Y-6685038D01*
X20176067Y-6694714D01*
X20176067Y-6709229D01*
X20171229Y-6718905D01*
X20166391Y-6723743D01*
X20156714Y-6728581D01*
X20118010Y-6728581D01*
X20209933Y-6675362D02*
X20272829Y-6675362D01*
X20238962Y-6714067D01*
X20253476Y-6714067D01*
X20263152Y-6718905D01*
X20267991Y-6723743D01*
X20272829Y-6733419D01*
X20272829Y-6757609D01*
X20267991Y-6767286D01*
X20263152Y-6772124D01*
X20253476Y-6776962D01*
X20224448Y-6776962D01*
X20214772Y-6772124D01*
X20209933Y-6767286D01*
X19076610Y-6776962D02*
X19076610Y-6675362D01*
X19115314Y-6675362D01*
X19124991Y-6680200D01*
X19129829Y-6685038D01*
X19134667Y-6694714D01*
X19134667Y-6709229D01*
X19129829Y-6718905D01*
X19124991Y-6723743D01*
X19115314Y-6728581D01*
X19076610Y-6728581D01*
X19173372Y-6685038D02*
X19178210Y-6680200D01*
X19187886Y-6675362D01*
X19212076Y-6675362D01*
X19221752Y-6680200D01*
X19226591Y-6685038D01*
X19231429Y-6694714D01*
X19231429Y-6704390D01*
X19226591Y-6718905D01*
X19168533Y-6776962D01*
X19231429Y-6776962D01*
X18873410Y-6345162D02*
X18873410Y-6243562D01*
X18912114Y-6243562D01*
X18921791Y-6248400D01*
X18926629Y-6253238D01*
X18931467Y-6262914D01*
X18931467Y-6277429D01*
X18926629Y-6287105D01*
X18921791Y-6291943D01*
X18912114Y-6296781D01*
X18873410Y-6296781D01*
X19028229Y-6345162D02*
X18970172Y-6345162D01*
X18999200Y-6345162D02*
X18999200Y-6243562D01*
X18989524Y-6258076D01*
X18979848Y-6267752D01*
X18970172Y-6272590D01*
D21*
X22486862Y-5772452D02*
X22486862Y-5645452D01*
X22517100Y-5645452D01*
X22535243Y-5651500D01*
X22547338Y-5663595D01*
X22553386Y-5675690D01*
X22559433Y-5699881D01*
X22559433Y-5718024D01*
X22553386Y-5742214D01*
X22547338Y-5754309D01*
X22535243Y-5766405D01*
X22517100Y-5772452D01*
X22486862Y-5772452D01*
X22607814Y-5657548D02*
X22613862Y-5651500D01*
X22625957Y-5645452D01*
X22656195Y-5645452D01*
X22668290Y-5651500D01*
X22674338Y-5657548D01*
X22680386Y-5669643D01*
X22680386Y-5681738D01*
X22674338Y-5699881D01*
X22601767Y-5772452D01*
X22680386Y-5772452D01*
X22803152Y-6673548D02*
X22803152Y-6588881D01*
X22930152Y-6673548D01*
X22930152Y-6588881D01*
X22863629Y-6540500D02*
X22863629Y-6498167D01*
X22930152Y-6480024D02*
X22930152Y-6540500D01*
X22803152Y-6540500D01*
X22803152Y-6480024D01*
X22930152Y-6425595D02*
X22803152Y-6425595D01*
X22930152Y-6353024D01*
X22803152Y-6353024D01*
X22863629Y-6292548D02*
X22863629Y-6250214D01*
X22930152Y-6232071D02*
X22930152Y-6292548D01*
X22803152Y-6292548D01*
X22803152Y-6232071D01*
X22930152Y-6105071D02*
X22869676Y-6147405D01*
X22930152Y-6177643D02*
X22803152Y-6177643D01*
X22803152Y-6129262D01*
X22809200Y-6117167D01*
X22815248Y-6111119D01*
X22827343Y-6105071D01*
X22845486Y-6105071D01*
X22857581Y-6111119D01*
X22863629Y-6117167D01*
X22869676Y-6129262D01*
X22869676Y-6177643D01*
X22924105Y-6056690D02*
X22930152Y-6038548D01*
X22930152Y-6008309D01*
X22924105Y-5996214D01*
X22918057Y-5990167D01*
X22905962Y-5984119D01*
X22893867Y-5984119D01*
X22881771Y-5990167D01*
X22875724Y-5996214D01*
X22869676Y-6008309D01*
X22863629Y-6032500D01*
X22857581Y-6044595D01*
X22851533Y-6050643D01*
X22839438Y-6056690D01*
X22827343Y-6056690D01*
X22815248Y-6050643D01*
X22809200Y-6044595D01*
X22803152Y-6032500D01*
X22803152Y-6002262D01*
X22809200Y-5984119D01*
X22930152Y-5929690D02*
X22803152Y-5929690D01*
X22893867Y-5887357D01*
X22803152Y-5845024D01*
X22930152Y-5845024D01*
X22893867Y-5790595D02*
X22893867Y-5730119D01*
X22930152Y-5802690D02*
X22803152Y-5760357D01*
X22930152Y-5718024D01*
X22930152Y-5615214D02*
X22930152Y-5675690D01*
X22803152Y-5675690D01*
X22930152Y-5512405D02*
X22930152Y-5572881D01*
X22803152Y-5572881D01*
X22486862Y-4807252D02*
X22486862Y-4680252D01*
X22517100Y-4680252D01*
X22535243Y-4686300D01*
X22547338Y-4698395D01*
X22553386Y-4710491D01*
X22559433Y-4734681D01*
X22559433Y-4752824D01*
X22553386Y-4777014D01*
X22547338Y-4789110D01*
X22535243Y-4801205D01*
X22517100Y-4807252D01*
X22486862Y-4807252D01*
X22680386Y-4807252D02*
X22607814Y-4807252D01*
X22644100Y-4807252D02*
X22644100Y-4680252D01*
X22632005Y-4698395D01*
X22619909Y-4710491D01*
X22607814Y-4716538D01*
X22803152Y-5721048D02*
X22803152Y-5636381D01*
X22930152Y-5721048D01*
X22930152Y-5636381D01*
X22863629Y-5588000D02*
X22863629Y-5545667D01*
X22930152Y-5527524D02*
X22930152Y-5588000D01*
X22803152Y-5588000D01*
X22803152Y-5527524D01*
X22930152Y-5473095D02*
X22803152Y-5473095D01*
X22930152Y-5400524D01*
X22803152Y-5400524D01*
X22863629Y-5340048D02*
X22863629Y-5297714D01*
X22930152Y-5279571D02*
X22930152Y-5340048D01*
X22803152Y-5340048D01*
X22803152Y-5279571D01*
X22930152Y-5152571D02*
X22869676Y-5194905D01*
X22930152Y-5225143D02*
X22803152Y-5225143D01*
X22803152Y-5176762D01*
X22809200Y-5164667D01*
X22815248Y-5158619D01*
X22827343Y-5152571D01*
X22845486Y-5152571D01*
X22857581Y-5158619D01*
X22863629Y-5164667D01*
X22869676Y-5176762D01*
X22869676Y-5225143D01*
X22924105Y-5104190D02*
X22930152Y-5086048D01*
X22930152Y-5055810D01*
X22924105Y-5043714D01*
X22918057Y-5037667D01*
X22905962Y-5031619D01*
X22893867Y-5031619D01*
X22881771Y-5037667D01*
X22875724Y-5043714D01*
X22869676Y-5055810D01*
X22863629Y-5080000D01*
X22857581Y-5092095D01*
X22851533Y-5098143D01*
X22839438Y-5104190D01*
X22827343Y-5104190D01*
X22815248Y-5098143D01*
X22809200Y-5092095D01*
X22803152Y-5080000D01*
X22803152Y-5049762D01*
X22809200Y-5031619D01*
X22930152Y-4977190D02*
X22803152Y-4977190D01*
X22893867Y-4934857D01*
X22803152Y-4892524D01*
X22930152Y-4892524D01*
X22893867Y-4838095D02*
X22893867Y-4777619D01*
X22930152Y-4850190D02*
X22803152Y-4807857D01*
X22930152Y-4765524D01*
X22930152Y-4662714D02*
X22930152Y-4723190D01*
X22803152Y-4723190D01*
X22930152Y-4559905D02*
X22930152Y-4620381D01*
X22803152Y-4620381D01*
D22*
X21583650Y-6771217D02*
X21554017Y-6728883D01*
X21532850Y-6771217D02*
X21532850Y-6682317D01*
X21566717Y-6682317D01*
X21575183Y-6686550D01*
X21579417Y-6690783D01*
X21583650Y-6699250D01*
X21583650Y-6711950D01*
X21579417Y-6720417D01*
X21575183Y-6724650D01*
X21566717Y-6728883D01*
X21532850Y-6728883D01*
X21668317Y-6771217D02*
X21617517Y-6771217D01*
X21642917Y-6771217D02*
X21642917Y-6682317D01*
X21634450Y-6695017D01*
X21625983Y-6703483D01*
X21617517Y-6707717D01*
X21697950Y-6682317D02*
X21757217Y-6682317D01*
X21719117Y-6771217D01*
X21956183Y-6540500D02*
X21951950Y-6536267D01*
X21947717Y-6527800D01*
X21947717Y-6506633D01*
X21951950Y-6498167D01*
X21956183Y-6493933D01*
X21964650Y-6489700D01*
X21973117Y-6489700D01*
X21985817Y-6493933D01*
X22036617Y-6544733D01*
X22036617Y-6489700D01*
X21977350Y-6413500D02*
X22036617Y-6413500D01*
X21943483Y-6434667D02*
X22006983Y-6455833D01*
X22006983Y-6400800D01*
X21947717Y-6350000D02*
X21947717Y-6341533D01*
X21951950Y-6333067D01*
X21956183Y-6328833D01*
X21964650Y-6324600D01*
X21981583Y-6320367D01*
X22002750Y-6320367D01*
X22019683Y-6324600D01*
X22028150Y-6328833D01*
X22032383Y-6333067D01*
X22036617Y-6341533D01*
X22036617Y-6350000D01*
X22032383Y-6358467D01*
X22028150Y-6362700D01*
X22019683Y-6366933D01*
X22002750Y-6371167D01*
X21981583Y-6371167D01*
X21964650Y-6366933D01*
X21956183Y-6362700D01*
X21951950Y-6358467D01*
X21947717Y-6350000D01*
X21947717Y-6265333D02*
X21947717Y-6256867D01*
X21951950Y-6248400D01*
X21956183Y-6244167D01*
X21964650Y-6239933D01*
X21981583Y-6235700D01*
X22002750Y-6235700D01*
X22019683Y-6239933D01*
X22028150Y-6244167D01*
X22032383Y-6248400D01*
X22036617Y-6256867D01*
X22036617Y-6265333D01*
X22032383Y-6273800D01*
X22028150Y-6278033D01*
X22019683Y-6282267D01*
X22002750Y-6286500D01*
X21981583Y-6286500D01*
X21964650Y-6282267D01*
X21956183Y-6278033D01*
X21951950Y-6273800D01*
X21947717Y-6265333D01*
X21291550Y-5894917D02*
X21261917Y-5852583D01*
X21240750Y-5894917D02*
X21240750Y-5806017D01*
X21274617Y-5806017D01*
X21283083Y-5810250D01*
X21287317Y-5814483D01*
X21291550Y-5822950D01*
X21291550Y-5835650D01*
X21287317Y-5844117D01*
X21283083Y-5848350D01*
X21274617Y-5852583D01*
X21240750Y-5852583D01*
X21376217Y-5894917D02*
X21325417Y-5894917D01*
X21350817Y-5894917D02*
X21350817Y-5806017D01*
X21342350Y-5818717D01*
X21333883Y-5827183D01*
X21325417Y-5831417D01*
X21418550Y-5894917D02*
X21435483Y-5894917D01*
X21443950Y-5890683D01*
X21448183Y-5886450D01*
X21456650Y-5873750D01*
X21460883Y-5856817D01*
X21460883Y-5822950D01*
X21456650Y-5814483D01*
X21452417Y-5810250D01*
X21443950Y-5806017D01*
X21427017Y-5806017D01*
X21418550Y-5810250D01*
X21414317Y-5814483D01*
X21410083Y-5822950D01*
X21410083Y-5844117D01*
X21414317Y-5852583D01*
X21418550Y-5856817D01*
X21427017Y-5861050D01*
X21443950Y-5861050D01*
X21452417Y-5856817D01*
X21456650Y-5852583D01*
X21460883Y-5844117D01*
X21956183Y-6070600D02*
X21951950Y-6066367D01*
X21947717Y-6057900D01*
X21947717Y-6036733D01*
X21951950Y-6028267D01*
X21956183Y-6024033D01*
X21964650Y-6019800D01*
X21973117Y-6019800D01*
X21985817Y-6024033D01*
X22036617Y-6074833D01*
X22036617Y-6019800D01*
X21977350Y-5943600D02*
X22036617Y-5943600D01*
X21943483Y-5964767D02*
X22006983Y-5985933D01*
X22006983Y-5930900D01*
X21947717Y-5880100D02*
X21947717Y-5871633D01*
X21951950Y-5863167D01*
X21956183Y-5858933D01*
X21964650Y-5854700D01*
X21981583Y-5850467D01*
X22002750Y-5850467D01*
X22019683Y-5854700D01*
X22028150Y-5858933D01*
X22032383Y-5863167D01*
X22036617Y-5871633D01*
X22036617Y-5880100D01*
X22032383Y-5888567D01*
X22028150Y-5892800D01*
X22019683Y-5897033D01*
X22002750Y-5901267D01*
X21981583Y-5901267D01*
X21964650Y-5897033D01*
X21956183Y-5892800D01*
X21951950Y-5888567D01*
X21947717Y-5880100D01*
X21947717Y-5795433D02*
X21947717Y-5786967D01*
X21951950Y-5778500D01*
X21956183Y-5774267D01*
X21964650Y-5770033D01*
X21981583Y-5765800D01*
X22002750Y-5765800D01*
X22019683Y-5770033D01*
X22028150Y-5774267D01*
X22032383Y-5778500D01*
X22036617Y-5786967D01*
X22036617Y-5795433D01*
X22032383Y-5803900D01*
X22028150Y-5808133D01*
X22019683Y-5812367D01*
X22002750Y-5816600D01*
X21981583Y-5816600D01*
X21964650Y-5812367D01*
X21956183Y-5808133D01*
X21951950Y-5803900D01*
X21947717Y-5795433D01*
X21151850Y-4993217D02*
X21122217Y-4950883D01*
X21101050Y-4993217D02*
X21101050Y-4904317D01*
X21134917Y-4904317D01*
X21143383Y-4908550D01*
X21147617Y-4912783D01*
X21151850Y-4921250D01*
X21151850Y-4933950D01*
X21147617Y-4942417D01*
X21143383Y-4946650D01*
X21134917Y-4950883D01*
X21101050Y-4950883D01*
X21236517Y-4993217D02*
X21185717Y-4993217D01*
X21211117Y-4993217D02*
X21211117Y-4904317D01*
X21202650Y-4917017D01*
X21194183Y-4925483D01*
X21185717Y-4929717D01*
X21287317Y-4942417D02*
X21278850Y-4938183D01*
X21274617Y-4933950D01*
X21270383Y-4925483D01*
X21270383Y-4921250D01*
X21274617Y-4912783D01*
X21278850Y-4908550D01*
X21287317Y-4904317D01*
X21304250Y-4904317D01*
X21312717Y-4908550D01*
X21316950Y-4912783D01*
X21321183Y-4921250D01*
X21321183Y-4925483D01*
X21316950Y-4933950D01*
X21312717Y-4938183D01*
X21304250Y-4942417D01*
X21287317Y-4942417D01*
X21278850Y-4946650D01*
X21274617Y-4950883D01*
X21270383Y-4959350D01*
X21270383Y-4976283D01*
X21274617Y-4984750D01*
X21278850Y-4988983D01*
X21287317Y-4993217D01*
X21304250Y-4993217D01*
X21312717Y-4988983D01*
X21316950Y-4984750D01*
X21321183Y-4976283D01*
X21321183Y-4959350D01*
X21316950Y-4950883D01*
X21312717Y-4946650D01*
X21304250Y-4942417D01*
X21956183Y-5067300D02*
X21951950Y-5063067D01*
X21947717Y-5054600D01*
X21947717Y-5033433D01*
X21951950Y-5024967D01*
X21956183Y-5020733D01*
X21964650Y-5016500D01*
X21973117Y-5016500D01*
X21985817Y-5020733D01*
X22036617Y-5071533D01*
X22036617Y-5016500D01*
X21977350Y-4940300D02*
X22036617Y-4940300D01*
X21943483Y-4961467D02*
X22006983Y-4982633D01*
X22006983Y-4927600D01*
X21947717Y-4876800D02*
X21947717Y-4868333D01*
X21951950Y-4859867D01*
X21956183Y-4855633D01*
X21964650Y-4851400D01*
X21981583Y-4847167D01*
X22002750Y-4847167D01*
X22019683Y-4851400D01*
X22028150Y-4855633D01*
X22032383Y-4859867D01*
X22036617Y-4868333D01*
X22036617Y-4876800D01*
X22032383Y-4885267D01*
X22028150Y-4889500D01*
X22019683Y-4893733D01*
X22002750Y-4897967D01*
X21981583Y-4897967D01*
X21964650Y-4893733D01*
X21956183Y-4889500D01*
X21951950Y-4885267D01*
X21947717Y-4876800D01*
X21947717Y-4792133D02*
X21947717Y-4783667D01*
X21951950Y-4775200D01*
X21956183Y-4770967D01*
X21964650Y-4766733D01*
X21981583Y-4762500D01*
X22002750Y-4762500D01*
X22019683Y-4766733D01*
X22028150Y-4770967D01*
X22032383Y-4775200D01*
X22036617Y-4783667D01*
X22036617Y-4792133D01*
X22032383Y-4800600D01*
X22028150Y-4804833D01*
X22019683Y-4809067D01*
X22002750Y-4813300D01*
X21981583Y-4813300D01*
X21964650Y-4809067D01*
X21956183Y-4804833D01*
X21951950Y-4800600D01*
X21947717Y-4792133D01*
X21151850Y-5120217D02*
X21122217Y-5077883D01*
X21101050Y-5120217D02*
X21101050Y-5031317D01*
X21134917Y-5031317D01*
X21143383Y-5035550D01*
X21147617Y-5039783D01*
X21151850Y-5048250D01*
X21151850Y-5060950D01*
X21147617Y-5069417D01*
X21143383Y-5073650D01*
X21134917Y-5077883D01*
X21101050Y-5077883D01*
X21236517Y-5120217D02*
X21185717Y-5120217D01*
X21211117Y-5120217D02*
X21211117Y-5031317D01*
X21202650Y-5044017D01*
X21194183Y-5052483D01*
X21185717Y-5056717D01*
X21312717Y-5031317D02*
X21295783Y-5031317D01*
X21287317Y-5035550D01*
X21283083Y-5039783D01*
X21274617Y-5052483D01*
X21270383Y-5069417D01*
X21270383Y-5103283D01*
X21274617Y-5111750D01*
X21278850Y-5115983D01*
X21287317Y-5120217D01*
X21304250Y-5120217D01*
X21312717Y-5115983D01*
X21316950Y-5111750D01*
X21321183Y-5103283D01*
X21321183Y-5082117D01*
X21316950Y-5073650D01*
X21312717Y-5069417D01*
X21304250Y-5065183D01*
X21287317Y-5065183D01*
X21278850Y-5069417D01*
X21274617Y-5073650D01*
X21270383Y-5082117D01*
X21956183Y-5537200D02*
X21951950Y-5532967D01*
X21947717Y-5524500D01*
X21947717Y-5503333D01*
X21951950Y-5494867D01*
X21956183Y-5490633D01*
X21964650Y-5486400D01*
X21973117Y-5486400D01*
X21985817Y-5490633D01*
X22036617Y-5541433D01*
X22036617Y-5486400D01*
X21977350Y-5410200D02*
X22036617Y-5410200D01*
X21943483Y-5431367D02*
X22006983Y-5452533D01*
X22006983Y-5397500D01*
X21947717Y-5346700D02*
X21947717Y-5338233D01*
X21951950Y-5329767D01*
X21956183Y-5325533D01*
X21964650Y-5321300D01*
X21981583Y-5317067D01*
X22002750Y-5317067D01*
X22019683Y-5321300D01*
X22028150Y-5325533D01*
X22032383Y-5329767D01*
X22036617Y-5338233D01*
X22036617Y-5346700D01*
X22032383Y-5355167D01*
X22028150Y-5359400D01*
X22019683Y-5363633D01*
X22002750Y-5367867D01*
X21981583Y-5367867D01*
X21964650Y-5363633D01*
X21956183Y-5359400D01*
X21951950Y-5355167D01*
X21947717Y-5346700D01*
X21947717Y-5262033D02*
X21947717Y-5253567D01*
X21951950Y-5245100D01*
X21956183Y-5240867D01*
X21964650Y-5236633D01*
X21981583Y-5232400D01*
X22002750Y-5232400D01*
X22019683Y-5236633D01*
X22028150Y-5240867D01*
X22032383Y-5245100D01*
X22036617Y-5253567D01*
X22036617Y-5262033D01*
X22032383Y-5270500D01*
X22028150Y-5274733D01*
X22019683Y-5278967D01*
X22002750Y-5283200D01*
X21981583Y-5283200D01*
X21964650Y-5278967D01*
X21956183Y-5274733D01*
X21951950Y-5270500D01*
X21947717Y-5262033D01*
D20*
X21078009Y-6588881D02*
X21062769Y-6564690D01*
X21051883Y-6588881D02*
X21051883Y-6538081D01*
X21069300Y-6538081D01*
X21073654Y-6540500D01*
X21075831Y-6542919D01*
X21078009Y-6547757D01*
X21078009Y-6555014D01*
X21075831Y-6559852D01*
X21073654Y-6562271D01*
X21069300Y-6564690D01*
X21051883Y-6564690D01*
X21121551Y-6588881D02*
X21095426Y-6588881D01*
X21108489Y-6588881D02*
X21108489Y-6538081D01*
X21104134Y-6545338D01*
X21099780Y-6550176D01*
X21095426Y-6552595D01*
X21162917Y-6538081D02*
X21141146Y-6538081D01*
X21138969Y-6562271D01*
X21141146Y-6559852D01*
X21145500Y-6557433D01*
X21156386Y-6557433D01*
X21160740Y-6559852D01*
X21162917Y-6562271D01*
X21165094Y-6567109D01*
X21165094Y-6579205D01*
X21162917Y-6584043D01*
X21160740Y-6586462D01*
X21156386Y-6588881D01*
X21145500Y-6588881D01*
X21141146Y-6586462D01*
X21138969Y-6584043D01*
X21052609Y-5318881D02*
X21037369Y-5294691D01*
X21026483Y-5318881D02*
X21026483Y-5268081D01*
X21043900Y-5268081D01*
X21048254Y-5270500D01*
X21050431Y-5272919D01*
X21052609Y-5277757D01*
X21052609Y-5285014D01*
X21050431Y-5289852D01*
X21048254Y-5292271D01*
X21043900Y-5294691D01*
X21026483Y-5294691D01*
X21096151Y-5318881D02*
X21070026Y-5318881D01*
X21083089Y-5318881D02*
X21083089Y-5268081D01*
X21078734Y-5275338D01*
X21074380Y-5280176D01*
X21070026Y-5282595D01*
X21135340Y-5285014D02*
X21135340Y-5318881D01*
X21124454Y-5265662D02*
X21113569Y-5301948D01*
X21141871Y-5301948D01*
D21*
X20856424Y-5823252D02*
X20856424Y-5696252D01*
X20989471Y-5811157D02*
X20983424Y-5817205D01*
X20965281Y-5823252D01*
X20953186Y-5823252D01*
X20935043Y-5817205D01*
X20922948Y-5805109D01*
X20916900Y-5793014D01*
X20910852Y-5768824D01*
X20910852Y-5750681D01*
X20916900Y-5726490D01*
X20922948Y-5714395D01*
X20935043Y-5702300D01*
X20953186Y-5696252D01*
X20965281Y-5696252D01*
X20983424Y-5702300D01*
X20989471Y-5708348D01*
X21110424Y-5823252D02*
X21037852Y-5823252D01*
X21074138Y-5823252D02*
X21074138Y-5696252D01*
X21062043Y-5714395D01*
X21049948Y-5726490D01*
X21037852Y-5732538D01*
X20393781Y-5226352D02*
X20466352Y-5226352D01*
X20430067Y-5353352D02*
X20430067Y-5226352D01*
X20569162Y-5353352D02*
X20508686Y-5353352D01*
X20508686Y-5226352D01*
X20611495Y-5353352D02*
X20611495Y-5226352D01*
X20659876Y-5226352D01*
X20671971Y-5232400D01*
X20678019Y-5238448D01*
X20684067Y-5250543D01*
X20684067Y-5268686D01*
X20678019Y-5280781D01*
X20671971Y-5286829D01*
X20659876Y-5292876D01*
X20611495Y-5292876D01*
X20732448Y-5238448D02*
X20738495Y-5232400D01*
X20750590Y-5226352D01*
X20780829Y-5226352D01*
X20792924Y-5232400D01*
X20798971Y-5238448D01*
X20805019Y-5250543D01*
X20805019Y-5262638D01*
X20798971Y-5280781D01*
X20726400Y-5353352D01*
X20805019Y-5353352D01*
X20865495Y-5353352D02*
X20889686Y-5353352D01*
X20901781Y-5347305D01*
X20907829Y-5341257D01*
X20919924Y-5323114D01*
X20925971Y-5298924D01*
X20925971Y-5250543D01*
X20919924Y-5238448D01*
X20913876Y-5232400D01*
X20901781Y-5226352D01*
X20877591Y-5226352D01*
X20865495Y-5232400D01*
X20859448Y-5238448D01*
X20853400Y-5250543D01*
X20853400Y-5280781D01*
X20859448Y-5292876D01*
X20865495Y-5298924D01*
X20877591Y-5304971D01*
X20901781Y-5304971D01*
X20913876Y-5298924D01*
X20919924Y-5292876D01*
X20925971Y-5280781D01*
X21046924Y-5353352D02*
X20974352Y-5353352D01*
X21010638Y-5353352D02*
X21010638Y-5226352D01*
X20998543Y-5244495D01*
X20986448Y-5256591D01*
X20974352Y-5262638D01*
X20856424Y-6026452D02*
X20856424Y-5899452D01*
X20989471Y-6014357D02*
X20983424Y-6020405D01*
X20965281Y-6026452D01*
X20953186Y-6026452D01*
X20935043Y-6020405D01*
X20922948Y-6008309D01*
X20916900Y-5996214D01*
X20910852Y-5972024D01*
X20910852Y-5953881D01*
X20916900Y-5929690D01*
X20922948Y-5917595D01*
X20935043Y-5905500D01*
X20953186Y-5899452D01*
X20965281Y-5899452D01*
X20983424Y-5905500D01*
X20989471Y-5911548D01*
X21037852Y-5911548D02*
X21043900Y-5905500D01*
X21055995Y-5899452D01*
X21086233Y-5899452D01*
X21098329Y-5905500D01*
X21104376Y-5911548D01*
X21110424Y-5923643D01*
X21110424Y-5935738D01*
X21104376Y-5953881D01*
X21031805Y-6026452D01*
X21110424Y-6026452D01*
X20393781Y-5861352D02*
X20466352Y-5861352D01*
X20430067Y-5988352D02*
X20430067Y-5861352D01*
X20569162Y-5988352D02*
X20508686Y-5988352D01*
X20508686Y-5861352D01*
X20611495Y-5988352D02*
X20611495Y-5861352D01*
X20659876Y-5861352D01*
X20671971Y-5867400D01*
X20678019Y-5873448D01*
X20684067Y-5885543D01*
X20684067Y-5903686D01*
X20678019Y-5915781D01*
X20671971Y-5921829D01*
X20659876Y-5927876D01*
X20611495Y-5927876D01*
X20732448Y-5873448D02*
X20738495Y-5867400D01*
X20750590Y-5861352D01*
X20780829Y-5861352D01*
X20792924Y-5867400D01*
X20798971Y-5873448D01*
X20805019Y-5885543D01*
X20805019Y-5897638D01*
X20798971Y-5915781D01*
X20726400Y-5988352D01*
X20805019Y-5988352D01*
X20865495Y-5988352D02*
X20889686Y-5988352D01*
X20901781Y-5982305D01*
X20907829Y-5976257D01*
X20919924Y-5958114D01*
X20925971Y-5933924D01*
X20925971Y-5885543D01*
X20919924Y-5873448D01*
X20913876Y-5867400D01*
X20901781Y-5861352D01*
X20877591Y-5861352D01*
X20865495Y-5867400D01*
X20859448Y-5873448D01*
X20853400Y-5885543D01*
X20853400Y-5915781D01*
X20859448Y-5927876D01*
X20865495Y-5933924D01*
X20877591Y-5939971D01*
X20901781Y-5939971D01*
X20913876Y-5933924D01*
X20919924Y-5927876D01*
X20925971Y-5915781D01*
X21046924Y-5988352D02*
X20974352Y-5988352D01*
X21010638Y-5988352D02*
X21010638Y-5861352D01*
X20998543Y-5879495D01*
X20986448Y-5891590D01*
X20974352Y-5897638D01*
D10*
X22815567Y-4883938D02*
X22815567Y-4783938D01*
X22848900Y-4855367D01*
X22882233Y-4783938D01*
X22882233Y-4883938D01*
X22929852Y-4883938D02*
X22929852Y-4783938D01*
X22929852Y-4831557D02*
X22986995Y-4831557D01*
X22986995Y-4883938D02*
X22986995Y-4783938D01*
X23086995Y-4883938D02*
X23029852Y-4883938D01*
X23058424Y-4883938D02*
X23058424Y-4783938D01*
X23048900Y-4798224D01*
X23039376Y-4807748D01*
X23029852Y-4812510D01*
X22853667Y-6446038D02*
X22853667Y-6346038D01*
X22887000Y-6417467D01*
X22920333Y-6346038D01*
X22920333Y-6446038D01*
X22967952Y-6446038D02*
X22967952Y-6346038D01*
X22967952Y-6393657D02*
X23025095Y-6393657D01*
X23025095Y-6446038D02*
X23025095Y-6346038D01*
X23067952Y-6355562D02*
X23072714Y-6350800D01*
X23082238Y-6346038D01*
X23106048Y-6346038D01*
X23115571Y-6350800D01*
X23120333Y-6355562D01*
X23125095Y-6365086D01*
X23125095Y-6374609D01*
X23120333Y-6388895D01*
X23063190Y-6446038D01*
X23125095Y-6446038D01*
X18904757Y-4971257D02*
X18871424Y-4971257D01*
X18871424Y-5023638D02*
X18871424Y-4923638D01*
X18919043Y-4923638D01*
X18957138Y-5023638D02*
X18957138Y-4923638D01*
X19004757Y-5023638D02*
X19004757Y-4923638D01*
X19028567Y-4923638D01*
X19042852Y-4928400D01*
X19052376Y-4937924D01*
X19057138Y-4947448D01*
X19061900Y-4966495D01*
X19061900Y-4980781D01*
X19057138Y-4999829D01*
X19052376Y-5009352D01*
X19042852Y-5018876D01*
X19028567Y-5023638D01*
X19004757Y-5023638D01*
X19157138Y-5023638D02*
X19099995Y-5023638D01*
X19128567Y-5023638D02*
X19128567Y-4923638D01*
X19119043Y-4937924D01*
X19109519Y-4947448D01*
X19099995Y-4952210D01*
X19782633Y-4925214D02*
X19777872Y-4929976D01*
X19763586Y-4934738D01*
X19754062Y-4934738D01*
X19739776Y-4929976D01*
X19730252Y-4920452D01*
X19725491Y-4910929D01*
X19720729Y-4891881D01*
X19720729Y-4877595D01*
X19725491Y-4858548D01*
X19730252Y-4849024D01*
X19739776Y-4839500D01*
X19754062Y-4834738D01*
X19763586Y-4834738D01*
X19777872Y-4839500D01*
X19782633Y-4844262D01*
X19877872Y-4934738D02*
X19820729Y-4934738D01*
X19849300Y-4934738D02*
X19849300Y-4834738D01*
X19839776Y-4849024D01*
X19830252Y-4858548D01*
X19820729Y-4863310D01*
X19655633Y-4798214D02*
X19650872Y-4802976D01*
X19636586Y-4807738D01*
X19627062Y-4807738D01*
X19612776Y-4802976D01*
X19603252Y-4793452D01*
X19598491Y-4783929D01*
X19593729Y-4764881D01*
X19593729Y-4750595D01*
X19598491Y-4731548D01*
X19603252Y-4722024D01*
X19612776Y-4712500D01*
X19627062Y-4707738D01*
X19636586Y-4707738D01*
X19650872Y-4712500D01*
X19655633Y-4717262D01*
X19693729Y-4717262D02*
X19698491Y-4712500D01*
X19708014Y-4707738D01*
X19731824Y-4707738D01*
X19741348Y-4712500D01*
X19746110Y-4717262D01*
X19750872Y-4726786D01*
X19750872Y-4736310D01*
X19746110Y-4750595D01*
X19688967Y-4807738D01*
X19750872Y-4807738D01*
D15*
X19661414Y-8217807D02*
X19661414Y-8310336D01*
X19666857Y-8321221D01*
X19672300Y-8326664D01*
X19683186Y-8332107D01*
X19704957Y-8332107D01*
X19715843Y-8326664D01*
X19721286Y-8321221D01*
X19726729Y-8310336D01*
X19726729Y-8217807D01*
X19841029Y-8332107D02*
X19775714Y-8332107D01*
X19808372Y-8332107D02*
X19808372Y-8217807D01*
X19797486Y-8234136D01*
X19786600Y-8245021D01*
X19775714Y-8250464D01*
D20*
X21039909Y-9801981D02*
X21024669Y-9777791D01*
X21013783Y-9801981D02*
X21013783Y-9751181D01*
X21031200Y-9751181D01*
X21035554Y-9753600D01*
X21037731Y-9756019D01*
X21039909Y-9760857D01*
X21039909Y-9768114D01*
X21037731Y-9772952D01*
X21035554Y-9775371D01*
X21031200Y-9777791D01*
X21013783Y-9777791D01*
X21083451Y-9801981D02*
X21057326Y-9801981D01*
X21070389Y-9801981D02*
X21070389Y-9751181D01*
X21066034Y-9758438D01*
X21061680Y-9763276D01*
X21057326Y-9765695D01*
X21098691Y-9751181D02*
X21126994Y-9751181D01*
X21111754Y-9770533D01*
X21118286Y-9770533D01*
X21122640Y-9772952D01*
X21124817Y-9775371D01*
X21126994Y-9780210D01*
X21126994Y-9792305D01*
X21124817Y-9797143D01*
X21122640Y-9799562D01*
X21118286Y-9801981D01*
X21105223Y-9801981D01*
X21100869Y-9799562D01*
X21098691Y-9797143D01*
X20493809Y-9801981D02*
X20478569Y-9777791D01*
X20467683Y-9801981D02*
X20467683Y-9751181D01*
X20485100Y-9751181D01*
X20489454Y-9753600D01*
X20491631Y-9756019D01*
X20493809Y-9760857D01*
X20493809Y-9768114D01*
X20491631Y-9772952D01*
X20489454Y-9775371D01*
X20485100Y-9777791D01*
X20467683Y-9777791D01*
X20537351Y-9801981D02*
X20511226Y-9801981D01*
X20524289Y-9801981D02*
X20524289Y-9751181D01*
X20519934Y-9758438D01*
X20515580Y-9763276D01*
X20511226Y-9765695D01*
X20554769Y-9756019D02*
X20556946Y-9753600D01*
X20561300Y-9751181D01*
X20572186Y-9751181D01*
X20576540Y-9753600D01*
X20578717Y-9756019D01*
X20580894Y-9760857D01*
X20580894Y-9765695D01*
X20578717Y-9772952D01*
X20552591Y-9801981D01*
X20580894Y-9801981D01*
X21052609Y-8277981D02*
X21037369Y-8253790D01*
X21026483Y-8277981D02*
X21026483Y-8227181D01*
X21043900Y-8227181D01*
X21048254Y-8229600D01*
X21050431Y-8232019D01*
X21052609Y-8236857D01*
X21052609Y-8244114D01*
X21050431Y-8248952D01*
X21048254Y-8251371D01*
X21043900Y-8253790D01*
X21026483Y-8253790D01*
X21096151Y-8277981D02*
X21070026Y-8277981D01*
X21083089Y-8277981D02*
X21083089Y-8227181D01*
X21078734Y-8234438D01*
X21074380Y-8239276D01*
X21070026Y-8241695D01*
X21139694Y-8277981D02*
X21113569Y-8277981D01*
X21126631Y-8277981D02*
X21126631Y-8227181D01*
X21122277Y-8234438D01*
X21117923Y-8239276D01*
X21113569Y-8241695D01*
X20671609Y-8277981D02*
X20656369Y-8253790D01*
X20645483Y-8277981D02*
X20645483Y-8227181D01*
X20662900Y-8227181D01*
X20667254Y-8229600D01*
X20669431Y-8232019D01*
X20671609Y-8236857D01*
X20671609Y-8244114D01*
X20669431Y-8248952D01*
X20667254Y-8251371D01*
X20662900Y-8253790D01*
X20645483Y-8253790D01*
X20715151Y-8277981D02*
X20689026Y-8277981D01*
X20702089Y-8277981D02*
X20702089Y-8227181D01*
X20697734Y-8234438D01*
X20693380Y-8239276D01*
X20689026Y-8241695D01*
X20743454Y-8227181D02*
X20747809Y-8227181D01*
X20752163Y-8229600D01*
X20754340Y-8232019D01*
X20756517Y-8236857D01*
X20758694Y-8246533D01*
X20758694Y-8258629D01*
X20756517Y-8268305D01*
X20754340Y-8273143D01*
X20752163Y-8275562D01*
X20747809Y-8277981D01*
X20743454Y-8277981D01*
X20739100Y-8275562D01*
X20736923Y-8273143D01*
X20734746Y-8268305D01*
X20732569Y-8258629D01*
X20732569Y-8246533D01*
X20734746Y-8236857D01*
X20736923Y-8232019D01*
X20739100Y-8229600D01*
X20743454Y-8227181D01*
X19423380Y-10106781D02*
X19408140Y-10082591D01*
X19397254Y-10106781D02*
X19397254Y-10055981D01*
X19414672Y-10055981D01*
X19419026Y-10058400D01*
X19421203Y-10060819D01*
X19423380Y-10065657D01*
X19423380Y-10072914D01*
X19421203Y-10077752D01*
X19419026Y-10080171D01*
X19414672Y-10082591D01*
X19397254Y-10082591D01*
X19445152Y-10106781D02*
X19453860Y-10106781D01*
X19458214Y-10104362D01*
X19460392Y-10101943D01*
X19464746Y-10094686D01*
X19466923Y-10085010D01*
X19466923Y-10065657D01*
X19464746Y-10060819D01*
X19462569Y-10058400D01*
X19458214Y-10055981D01*
X19449506Y-10055981D01*
X19445152Y-10058400D01*
X19442974Y-10060819D01*
X19440797Y-10065657D01*
X19440797Y-10077752D01*
X19442974Y-10082591D01*
X19445152Y-10085010D01*
X19449506Y-10087429D01*
X19458214Y-10087429D01*
X19462569Y-10085010D01*
X19464746Y-10082591D01*
X19466923Y-10077752D01*
X19626580Y-10106781D02*
X19611340Y-10082591D01*
X19600454Y-10106781D02*
X19600454Y-10055981D01*
X19617872Y-10055981D01*
X19622226Y-10058400D01*
X19624403Y-10060819D01*
X19626580Y-10065657D01*
X19626580Y-10072914D01*
X19624403Y-10077752D01*
X19622226Y-10080171D01*
X19617872Y-10082591D01*
X19600454Y-10082591D01*
X19652706Y-10077752D02*
X19648352Y-10075333D01*
X19646174Y-10072914D01*
X19643997Y-10068076D01*
X19643997Y-10065657D01*
X19646174Y-10060819D01*
X19648352Y-10058400D01*
X19652706Y-10055981D01*
X19661414Y-10055981D01*
X19665769Y-10058400D01*
X19667946Y-10060819D01*
X19670123Y-10065657D01*
X19670123Y-10068076D01*
X19667946Y-10072914D01*
X19665769Y-10075333D01*
X19661414Y-10077752D01*
X19652706Y-10077752D01*
X19648352Y-10080171D01*
X19646174Y-10082591D01*
X19643997Y-10087429D01*
X19643997Y-10097105D01*
X19646174Y-10101943D01*
X19648352Y-10104362D01*
X19652706Y-10106781D01*
X19661414Y-10106781D01*
X19665769Y-10104362D01*
X19667946Y-10101943D01*
X19670123Y-10097105D01*
X19670123Y-10087429D01*
X19667946Y-10082591D01*
X19665769Y-10080171D01*
X19661414Y-10077752D01*
X19829780Y-10106781D02*
X19814540Y-10082591D01*
X19803654Y-10106781D02*
X19803654Y-10055981D01*
X19821072Y-10055981D01*
X19825426Y-10058400D01*
X19827603Y-10060819D01*
X19829780Y-10065657D01*
X19829780Y-10072914D01*
X19827603Y-10077752D01*
X19825426Y-10080171D01*
X19821072Y-10082591D01*
X19803654Y-10082591D01*
X19845020Y-10055981D02*
X19875500Y-10055981D01*
X19855906Y-10106781D01*
X19931380Y-8201781D02*
X19916140Y-8177590D01*
X19905254Y-8201781D02*
X19905254Y-8150981D01*
X19922672Y-8150981D01*
X19927026Y-8153400D01*
X19929203Y-8155819D01*
X19931380Y-8160657D01*
X19931380Y-8167914D01*
X19929203Y-8172752D01*
X19927026Y-8175171D01*
X19922672Y-8177590D01*
X19905254Y-8177590D01*
X19974923Y-8201781D02*
X19948797Y-8201781D01*
X19961860Y-8201781D02*
X19961860Y-8150981D01*
X19957506Y-8158238D01*
X19953152Y-8163076D01*
X19948797Y-8165495D01*
X20185380Y-8201781D02*
X20170140Y-8177590D01*
X20159254Y-8201781D02*
X20159254Y-8150981D01*
X20176672Y-8150981D01*
X20181026Y-8153400D01*
X20183203Y-8155819D01*
X20185380Y-8160657D01*
X20185380Y-8167914D01*
X20183203Y-8172752D01*
X20181026Y-8175171D01*
X20176672Y-8177590D01*
X20159254Y-8177590D01*
X20202797Y-8155819D02*
X20204974Y-8153400D01*
X20209329Y-8150981D01*
X20220214Y-8150981D01*
X20224569Y-8153400D01*
X20226746Y-8155819D01*
X20228923Y-8160657D01*
X20228923Y-8165495D01*
X20226746Y-8172752D01*
X20200620Y-8201781D01*
X20228923Y-8201781D01*
X20439380Y-8201781D02*
X20424140Y-8177590D01*
X20413254Y-8201781D02*
X20413254Y-8150981D01*
X20430672Y-8150981D01*
X20435026Y-8153400D01*
X20437203Y-8155819D01*
X20439380Y-8160657D01*
X20439380Y-8167914D01*
X20437203Y-8172752D01*
X20435026Y-8175171D01*
X20430672Y-8177590D01*
X20413254Y-8177590D01*
X20454620Y-8150981D02*
X20482923Y-8150981D01*
X20467683Y-8170333D01*
X20474214Y-8170333D01*
X20478569Y-8172752D01*
X20480746Y-8175171D01*
X20482923Y-8180009D01*
X20482923Y-8192105D01*
X20480746Y-8196943D01*
X20478569Y-8199362D01*
X20474214Y-8201781D01*
X20461152Y-8201781D01*
X20456797Y-8199362D01*
X20454620Y-8196943D01*
X20693380Y-8201781D02*
X20678140Y-8177590D01*
X20667254Y-8201781D02*
X20667254Y-8150981D01*
X20684672Y-8150981D01*
X20689026Y-8153400D01*
X20691203Y-8155819D01*
X20693380Y-8160657D01*
X20693380Y-8167914D01*
X20691203Y-8172752D01*
X20689026Y-8175171D01*
X20684672Y-8177590D01*
X20667254Y-8177590D01*
X20732569Y-8167914D02*
X20732569Y-8201781D01*
X20721683Y-8148562D02*
X20710797Y-8184848D01*
X20739100Y-8184848D01*
X20947380Y-8201781D02*
X20932140Y-8177590D01*
X20921254Y-8201781D02*
X20921254Y-8150981D01*
X20938672Y-8150981D01*
X20943026Y-8153400D01*
X20945203Y-8155819D01*
X20947380Y-8160657D01*
X20947380Y-8167914D01*
X20945203Y-8172752D01*
X20943026Y-8175171D01*
X20938672Y-8177590D01*
X20921254Y-8177590D01*
X20988746Y-8150981D02*
X20966974Y-8150981D01*
X20964797Y-8175171D01*
X20966974Y-8172752D01*
X20971329Y-8170333D01*
X20982214Y-8170333D01*
X20986569Y-8172752D01*
X20988746Y-8175171D01*
X20990923Y-8180009D01*
X20990923Y-8192105D01*
X20988746Y-8196943D01*
X20986569Y-8199362D01*
X20982214Y-8201781D01*
X20971329Y-8201781D01*
X20966974Y-8199362D01*
X20964797Y-8196943D01*
X21201380Y-8201781D02*
X21186140Y-8177590D01*
X21175254Y-8201781D02*
X21175254Y-8150981D01*
X21192672Y-8150981D01*
X21197026Y-8153400D01*
X21199203Y-8155819D01*
X21201380Y-8160657D01*
X21201380Y-8167914D01*
X21199203Y-8172752D01*
X21197026Y-8175171D01*
X21192672Y-8177590D01*
X21175254Y-8177590D01*
X21240569Y-8150981D02*
X21231860Y-8150981D01*
X21227506Y-8153400D01*
X21225329Y-8155819D01*
X21220974Y-8163076D01*
X21218797Y-8172752D01*
X21218797Y-8192105D01*
X21220974Y-8196943D01*
X21223152Y-8199362D01*
X21227506Y-8201781D01*
X21236214Y-8201781D01*
X21240569Y-8199362D01*
X21242746Y-8196943D01*
X21244923Y-8192105D01*
X21244923Y-8180009D01*
X21242746Y-8175171D01*
X21240569Y-8172752D01*
X21236214Y-8170333D01*
X21227506Y-8170333D01*
X21223152Y-8172752D01*
X21220974Y-8175171D01*
X21218797Y-8180009D01*
D15*
X22924710Y-9609062D02*
X22924710Y-9507462D01*
X22963414Y-9507462D01*
X22973090Y-9512300D01*
X22977929Y-9517138D01*
X22982767Y-9526814D01*
X22982767Y-9541329D01*
X22977929Y-9551005D01*
X22973090Y-9555843D01*
X22963414Y-9560681D01*
X22924710Y-9560681D01*
X23040824Y-9551005D02*
X23031148Y-9546167D01*
X23026310Y-9541329D01*
X23021471Y-9531652D01*
X23021471Y-9526814D01*
X23026310Y-9517138D01*
X23031148Y-9512300D01*
X23040824Y-9507462D01*
X23060176Y-9507462D01*
X23069852Y-9512300D01*
X23074690Y-9517138D01*
X23079529Y-9526814D01*
X23079529Y-9531652D01*
X23074690Y-9541329D01*
X23069852Y-9546167D01*
X23060176Y-9551005D01*
X23040824Y-9551005D01*
X23031148Y-9555843D01*
X23026310Y-9560681D01*
X23021471Y-9570357D01*
X23021471Y-9589710D01*
X23026310Y-9599386D01*
X23031148Y-9604224D01*
X23040824Y-9609062D01*
X23060176Y-9609062D01*
X23069852Y-9604224D01*
X23074690Y-9599386D01*
X23079529Y-9589710D01*
X23079529Y-9570357D01*
X23074690Y-9560681D01*
X23069852Y-9555843D01*
X23060176Y-9551005D01*
X22416710Y-7538962D02*
X22416710Y-7437362D01*
X22455414Y-7437362D01*
X22465090Y-7442200D01*
X22469929Y-7447038D01*
X22474767Y-7456714D01*
X22474767Y-7471229D01*
X22469929Y-7480905D01*
X22465090Y-7485743D01*
X22455414Y-7490581D01*
X22416710Y-7490581D01*
X22508633Y-7437362D02*
X22576367Y-7437362D01*
X22532824Y-7538962D01*
X22188110Y-7538962D02*
X22188110Y-7437362D01*
X22226814Y-7437362D01*
X22236491Y-7442200D01*
X22241329Y-7447038D01*
X22246167Y-7456714D01*
X22246167Y-7471229D01*
X22241329Y-7480905D01*
X22236491Y-7485743D01*
X22226814Y-7490581D01*
X22188110Y-7490581D01*
X22333252Y-7437362D02*
X22313900Y-7437362D01*
X22304224Y-7442200D01*
X22299386Y-7447038D01*
X22289710Y-7461552D01*
X22284872Y-7480905D01*
X22284872Y-7519609D01*
X22289710Y-7529286D01*
X22294548Y-7534124D01*
X22304224Y-7538962D01*
X22323576Y-7538962D01*
X22333252Y-7534124D01*
X22338091Y-7529286D01*
X22342929Y-7519609D01*
X22342929Y-7495419D01*
X22338091Y-7485743D01*
X22333252Y-7480905D01*
X22323576Y-7476067D01*
X22304224Y-7476067D01*
X22294548Y-7480905D01*
X22289710Y-7485743D01*
X22284872Y-7495419D01*
X18822610Y-7602462D02*
X18822610Y-7500862D01*
X18861314Y-7500862D01*
X18870991Y-7505700D01*
X18875829Y-7510538D01*
X18880667Y-7520214D01*
X18880667Y-7534729D01*
X18875829Y-7544405D01*
X18870991Y-7549243D01*
X18861314Y-7554081D01*
X18822610Y-7554081D01*
X18972591Y-7500862D02*
X18924210Y-7500862D01*
X18919372Y-7549243D01*
X18924210Y-7544405D01*
X18933886Y-7539567D01*
X18958076Y-7539567D01*
X18967752Y-7544405D01*
X18972591Y-7549243D01*
X18977429Y-7558919D01*
X18977429Y-7583109D01*
X18972591Y-7592786D01*
X18967752Y-7597624D01*
X18958076Y-7602462D01*
X18933886Y-7602462D01*
X18924210Y-7597624D01*
X18919372Y-7592786D01*
X22150010Y-10345662D02*
X22150010Y-10244062D01*
X22188714Y-10244062D01*
X22198391Y-10248900D01*
X22203229Y-10253738D01*
X22208067Y-10263414D01*
X22208067Y-10277929D01*
X22203229Y-10287605D01*
X22198391Y-10292443D01*
X22188714Y-10297281D01*
X22150010Y-10297281D01*
X22295152Y-10277929D02*
X22295152Y-10345662D01*
X22270962Y-10239224D02*
X22246772Y-10311795D01*
X22309667Y-10311795D01*
X20537110Y-10104362D02*
X20537110Y-10002762D01*
X20575814Y-10002762D01*
X20585491Y-10007600D01*
X20590329Y-10012438D01*
X20595167Y-10022114D01*
X20595167Y-10036629D01*
X20590329Y-10046305D01*
X20585491Y-10051143D01*
X20575814Y-10055981D01*
X20537110Y-10055981D01*
X20629033Y-10002762D02*
X20691929Y-10002762D01*
X20658062Y-10041467D01*
X20672576Y-10041467D01*
X20682252Y-10046305D01*
X20687091Y-10051143D01*
X20691929Y-10060819D01*
X20691929Y-10085010D01*
X20687091Y-10094686D01*
X20682252Y-10099524D01*
X20672576Y-10104362D01*
X20643548Y-10104362D01*
X20633872Y-10099524D01*
X20629033Y-10094686D01*
X18835310Y-10345662D02*
X18835310Y-10244062D01*
X18874014Y-10244062D01*
X18883691Y-10248900D01*
X18888529Y-10253738D01*
X18893367Y-10263414D01*
X18893367Y-10277929D01*
X18888529Y-10287605D01*
X18883691Y-10292443D01*
X18874014Y-10297281D01*
X18835310Y-10297281D01*
X18932072Y-10253738D02*
X18936910Y-10248900D01*
X18946586Y-10244062D01*
X18970776Y-10244062D01*
X18980452Y-10248900D01*
X18985291Y-10253738D01*
X18990129Y-10263414D01*
X18990129Y-10273091D01*
X18985291Y-10287605D01*
X18927233Y-10345662D01*
X18990129Y-10345662D01*
X18860710Y-9609062D02*
X18860710Y-9507462D01*
X18899414Y-9507462D01*
X18909091Y-9512300D01*
X18913929Y-9517138D01*
X18918767Y-9526814D01*
X18918767Y-9541329D01*
X18913929Y-9551005D01*
X18909091Y-9555843D01*
X18899414Y-9560681D01*
X18860710Y-9560681D01*
X19015529Y-9609062D02*
X18957472Y-9609062D01*
X18986500Y-9609062D02*
X18986500Y-9507462D01*
X18976824Y-9521976D01*
X18967148Y-9531652D01*
X18957472Y-9536491D01*
D21*
X21559762Y-9950752D02*
X21559762Y-9823752D01*
X21590000Y-9823752D01*
X21608143Y-9829800D01*
X21620238Y-9841895D01*
X21626286Y-9853991D01*
X21632333Y-9878181D01*
X21632333Y-9896324D01*
X21626286Y-9920514D01*
X21620238Y-9932610D01*
X21608143Y-9944705D01*
X21590000Y-9950752D01*
X21559762Y-9950752D01*
X21680714Y-9835848D02*
X21686762Y-9829800D01*
X21698857Y-9823752D01*
X21729095Y-9823752D01*
X21741191Y-9829800D01*
X21747238Y-9835848D01*
X21753286Y-9847943D01*
X21753286Y-9860038D01*
X21747238Y-9878181D01*
X21674667Y-9950752D01*
X21753286Y-9950752D01*
X21596652Y-10001552D02*
X21681319Y-10001552D01*
X21596652Y-10128552D01*
X21681319Y-10128552D01*
X21729700Y-10062029D02*
X21772033Y-10062029D01*
X21790176Y-10128552D02*
X21729700Y-10128552D01*
X21729700Y-10001552D01*
X21790176Y-10001552D01*
X21844605Y-10128552D02*
X21844605Y-10001552D01*
X21917176Y-10128552D01*
X21917176Y-10001552D01*
X21977652Y-10062029D02*
X22019986Y-10062029D01*
X22038129Y-10128552D02*
X21977652Y-10128552D01*
X21977652Y-10001552D01*
X22038129Y-10001552D01*
X22165129Y-10128552D02*
X22122795Y-10068076D01*
X22092557Y-10128552D02*
X22092557Y-10001552D01*
X22140938Y-10001552D01*
X22153033Y-10007600D01*
X22159081Y-10013648D01*
X22165129Y-10025743D01*
X22165129Y-10043886D01*
X22159081Y-10055981D01*
X22153033Y-10062029D01*
X22140938Y-10068076D01*
X22092557Y-10068076D01*
X22213510Y-10122505D02*
X22231652Y-10128552D01*
X22261891Y-10128552D01*
X22273986Y-10122505D01*
X22280033Y-10116457D01*
X22286081Y-10104362D01*
X22286081Y-10092267D01*
X22280033Y-10080171D01*
X22273986Y-10074124D01*
X22261891Y-10068076D01*
X22237700Y-10062029D01*
X22225605Y-10055981D01*
X22219557Y-10049933D01*
X22213510Y-10037838D01*
X22213510Y-10025743D01*
X22219557Y-10013648D01*
X22225605Y-10007600D01*
X22237700Y-10001552D01*
X22267938Y-10001552D01*
X22286081Y-10007600D01*
X22340510Y-10128552D02*
X22340510Y-10001552D01*
X22382843Y-10092267D01*
X22425176Y-10001552D01*
X22425176Y-10128552D01*
X22479605Y-10092267D02*
X22540081Y-10092267D01*
X22467510Y-10128552D02*
X22509843Y-10001552D01*
X22552176Y-10128552D01*
X22654986Y-10128552D02*
X22594510Y-10128552D01*
X22594510Y-10001552D01*
X22757795Y-10128552D02*
X22697319Y-10128552D01*
X22697319Y-10001552D01*
X22080462Y-8007652D02*
X22080462Y-7880652D01*
X22110700Y-7880652D01*
X22128843Y-7886700D01*
X22140938Y-7898795D01*
X22146986Y-7910890D01*
X22153033Y-7935081D01*
X22153033Y-7953224D01*
X22146986Y-7977414D01*
X22140938Y-7989509D01*
X22128843Y-8001605D01*
X22110700Y-8007652D01*
X22080462Y-8007652D01*
X22273986Y-8007652D02*
X22201414Y-8007652D01*
X22237700Y-8007652D02*
X22237700Y-7880652D01*
X22225605Y-7898795D01*
X22213510Y-7910890D01*
X22201414Y-7916938D01*
X21596652Y-8477552D02*
X21681319Y-8477552D01*
X21596652Y-8604552D01*
X21681319Y-8604552D01*
X21729700Y-8538029D02*
X21772033Y-8538029D01*
X21790176Y-8604552D02*
X21729700Y-8604552D01*
X21729700Y-8477552D01*
X21790176Y-8477552D01*
X21844605Y-8604552D02*
X21844605Y-8477552D01*
X21917176Y-8604552D01*
X21917176Y-8477552D01*
X21977652Y-8538029D02*
X22019986Y-8538029D01*
X22038129Y-8604552D02*
X21977652Y-8604552D01*
X21977652Y-8477552D01*
X22038129Y-8477552D01*
X22165129Y-8604552D02*
X22122795Y-8544076D01*
X22092557Y-8604552D02*
X22092557Y-8477552D01*
X22140938Y-8477552D01*
X22153033Y-8483600D01*
X22159081Y-8489648D01*
X22165129Y-8501743D01*
X22165129Y-8519886D01*
X22159081Y-8531981D01*
X22153033Y-8538029D01*
X22140938Y-8544076D01*
X22092557Y-8544076D01*
X22213510Y-8598505D02*
X22231652Y-8604552D01*
X22261891Y-8604552D01*
X22273986Y-8598505D01*
X22280033Y-8592457D01*
X22286081Y-8580362D01*
X22286081Y-8568267D01*
X22280033Y-8556171D01*
X22273986Y-8550124D01*
X22261891Y-8544076D01*
X22237700Y-8538029D01*
X22225605Y-8531981D01*
X22219557Y-8525933D01*
X22213510Y-8513838D01*
X22213510Y-8501743D01*
X22219557Y-8489648D01*
X22225605Y-8483600D01*
X22237700Y-8477552D01*
X22267938Y-8477552D01*
X22286081Y-8483600D01*
X22340510Y-8604552D02*
X22340510Y-8477552D01*
X22382843Y-8568267D01*
X22425176Y-8477552D01*
X22425176Y-8604552D01*
X22479605Y-8568267D02*
X22540081Y-8568267D01*
X22467510Y-8604552D02*
X22509843Y-8477552D01*
X22552176Y-8604552D01*
X22654986Y-8604552D02*
X22594510Y-8604552D01*
X22594510Y-8477552D01*
X22757795Y-8604552D02*
X22697319Y-8604552D01*
X22697319Y-8477552D01*
D23*
X21397686Y-8311243D02*
X21397686Y-8434614D01*
X21404943Y-8449129D01*
X21412200Y-8456386D01*
X21426714Y-8463643D01*
X21455743Y-8463643D01*
X21470257Y-8456386D01*
X21477514Y-8449129D01*
X21484771Y-8434614D01*
X21484771Y-8311243D01*
X21542829Y-8311243D02*
X21637171Y-8311243D01*
X21586371Y-8369300D01*
X21608143Y-8369300D01*
X21622657Y-8376557D01*
X21629914Y-8383814D01*
X21637171Y-8398329D01*
X21637171Y-8434614D01*
X21629914Y-8449129D01*
X21622657Y-8456386D01*
X21608143Y-8463643D01*
X21564600Y-8463643D01*
X21550086Y-8456386D01*
X21542829Y-8449129D01*
X21018500Y-9055100D02*
X21091071Y-9055100D01*
X21003986Y-9098643D02*
X21054786Y-8946243D01*
X21105586Y-9098643D01*
X21257986Y-9113157D02*
X21243471Y-9105900D01*
X21228957Y-9091386D01*
X21207186Y-9069614D01*
X21192671Y-9062357D01*
X21178157Y-9062357D01*
X21185414Y-9098643D02*
X21170900Y-9091386D01*
X21156386Y-9076871D01*
X21149129Y-9047843D01*
X21149129Y-8997043D01*
X21156386Y-8968014D01*
X21170900Y-8953500D01*
X21185414Y-8946243D01*
X21214443Y-8946243D01*
X21228957Y-8953500D01*
X21243471Y-8968014D01*
X21250729Y-8997043D01*
X21250729Y-9047843D01*
X21243471Y-9076871D01*
X21228957Y-9091386D01*
X21214443Y-9098643D01*
X21185414Y-9098643D01*
X21301529Y-8946243D02*
X21403129Y-8946243D01*
X21301529Y-9098643D01*
X21403129Y-9098643D01*
X21453929Y-8960757D02*
X21461186Y-8953500D01*
X21475700Y-8946243D01*
X21511986Y-8946243D01*
X21526500Y-8953500D01*
X21533757Y-8960757D01*
X21541014Y-8975271D01*
X21541014Y-8989786D01*
X21533757Y-9011557D01*
X21446671Y-9098643D01*
X21541014Y-9098643D01*
X21635357Y-8946243D02*
X21649872Y-8946243D01*
X21664386Y-8953500D01*
X21671643Y-8960757D01*
X21678900Y-8975271D01*
X21686157Y-9004300D01*
X21686157Y-9040586D01*
X21678900Y-9069614D01*
X21671643Y-9084129D01*
X21664386Y-9091386D01*
X21649872Y-9098643D01*
X21635357Y-9098643D01*
X21620843Y-9091386D01*
X21613586Y-9084129D01*
X21606329Y-9069614D01*
X21599072Y-9040586D01*
X21599072Y-9004300D01*
X21606329Y-8975271D01*
X21613586Y-8960757D01*
X21620843Y-8953500D01*
X21635357Y-8946243D01*
X21816786Y-8997043D02*
X21816786Y-9098643D01*
X21780500Y-8938986D02*
X21744214Y-9047843D01*
X21838557Y-9047843D01*
X21397686Y-9606643D02*
X21397686Y-9730014D01*
X21404943Y-9744529D01*
X21412200Y-9751786D01*
X21426714Y-9759043D01*
X21455743Y-9759043D01*
X21470257Y-9751786D01*
X21477514Y-9744529D01*
X21484771Y-9730014D01*
X21484771Y-9606643D01*
X21550086Y-9621157D02*
X21557343Y-9613900D01*
X21571857Y-9606643D01*
X21608143Y-9606643D01*
X21622657Y-9613900D01*
X21629914Y-9621157D01*
X21637171Y-9635671D01*
X21637171Y-9650186D01*
X21629914Y-9671957D01*
X21542829Y-9759043D01*
X21637171Y-9759043D01*
X21907500Y-9042400D02*
X21980071Y-9042400D01*
X21892986Y-9085943D02*
X21943786Y-8933543D01*
X21994586Y-9085943D01*
X22146986Y-9100457D02*
X22132471Y-9093200D01*
X22117957Y-9078686D01*
X22096186Y-9056914D01*
X22081671Y-9049657D01*
X22067157Y-9049657D01*
X22074414Y-9085943D02*
X22059900Y-9078686D01*
X22045386Y-9064171D01*
X22038129Y-9035143D01*
X22038129Y-8984343D01*
X22045386Y-8955314D01*
X22059900Y-8940800D01*
X22074414Y-8933543D01*
X22103443Y-8933543D01*
X22117957Y-8940800D01*
X22132471Y-8955314D01*
X22139729Y-8984343D01*
X22139729Y-9035143D01*
X22132471Y-9064171D01*
X22117957Y-9078686D01*
X22103443Y-9085943D01*
X22074414Y-9085943D01*
X22190529Y-8933543D02*
X22292129Y-8933543D01*
X22190529Y-9085943D01*
X22292129Y-9085943D01*
X22342929Y-8948057D02*
X22350186Y-8940800D01*
X22364700Y-8933543D01*
X22400986Y-8933543D01*
X22415500Y-8940800D01*
X22422757Y-8948057D01*
X22430014Y-8962571D01*
X22430014Y-8977086D01*
X22422757Y-8998857D01*
X22335671Y-9085943D01*
X22430014Y-9085943D01*
X22524357Y-8933543D02*
X22538871Y-8933543D01*
X22553386Y-8940800D01*
X22560643Y-8948057D01*
X22567900Y-8962571D01*
X22575157Y-8991600D01*
X22575157Y-9027886D01*
X22567900Y-9056914D01*
X22560643Y-9071429D01*
X22553386Y-9078686D01*
X22538871Y-9085943D01*
X22524357Y-9085943D01*
X22509843Y-9078686D01*
X22502586Y-9071429D01*
X22495329Y-9056914D01*
X22488071Y-9027886D01*
X22488071Y-8991600D01*
X22495329Y-8962571D01*
X22502586Y-8948057D01*
X22509843Y-8940800D01*
X22524357Y-8933543D01*
X22705786Y-8984343D02*
X22705786Y-9085943D01*
X22669500Y-8926286D02*
X22633214Y-9035143D01*
X22727557Y-9035143D01*
D10*
X18879357Y-8260557D02*
X18846024Y-8260557D01*
X18846024Y-8312938D02*
X18846024Y-8212938D01*
X18893643Y-8212938D01*
X18931738Y-8312938D02*
X18931738Y-8212938D01*
X18979357Y-8312938D02*
X18979357Y-8212938D01*
X19003167Y-8212938D01*
X19017452Y-8217700D01*
X19026976Y-8227224D01*
X19031738Y-8236748D01*
X19036500Y-8255795D01*
X19036500Y-8270081D01*
X19031738Y-8289129D01*
X19026976Y-8298652D01*
X19017452Y-8308176D01*
X19003167Y-8312938D01*
X18979357Y-8312938D01*
X19131738Y-8312938D02*
X19074595Y-8312938D01*
X19103167Y-8312938D02*
X19103167Y-8212938D01*
X19093643Y-8227224D01*
X19084119Y-8236748D01*
X19074595Y-8241509D01*
X22675867Y-8274838D02*
X22675867Y-8174838D01*
X22709200Y-8246267D01*
X22742533Y-8174838D01*
X22742533Y-8274838D01*
X22790152Y-8274838D02*
X22790152Y-8174838D01*
X22790152Y-8222457D02*
X22847295Y-8222457D01*
X22847295Y-8274838D02*
X22847295Y-8174838D01*
X22947295Y-8274838D02*
X22890152Y-8274838D01*
X22918724Y-8274838D02*
X22918724Y-8174838D01*
X22909200Y-8189124D01*
X22899676Y-8198648D01*
X22890152Y-8203409D01*
X22675867Y-9704350D02*
X22675867Y-9604350D01*
X22709200Y-9675779D01*
X22742533Y-9604350D01*
X22742533Y-9704350D01*
X22790152Y-9704350D02*
X22790152Y-9604350D01*
X22790152Y-9651969D02*
X22847295Y-9651969D01*
X22847295Y-9704350D02*
X22847295Y-9604350D01*
X22890152Y-9613874D02*
X22894914Y-9609112D01*
X22904438Y-9604350D01*
X22928248Y-9604350D01*
X22937771Y-9609112D01*
X22942533Y-9613874D01*
X22947295Y-9623398D01*
X22947295Y-9632922D01*
X22942533Y-9647207D01*
X22885390Y-9704350D01*
X22947295Y-9704350D01*
X19693733Y-8138314D02*
X19688972Y-8143076D01*
X19674686Y-8147838D01*
X19665162Y-8147838D01*
X19650876Y-8143076D01*
X19641352Y-8133552D01*
X19636591Y-8124029D01*
X19631829Y-8104981D01*
X19631829Y-8090695D01*
X19636591Y-8071648D01*
X19641352Y-8062124D01*
X19650876Y-8052600D01*
X19665162Y-8047838D01*
X19674686Y-8047838D01*
X19688972Y-8052600D01*
X19693733Y-8057362D01*
X19788972Y-8147838D02*
X19731829Y-8147838D01*
X19760400Y-8147838D02*
X19760400Y-8047838D01*
X19750876Y-8062124D01*
X19741352Y-8071648D01*
X19731829Y-8076409D01*
X19642933Y-7998614D02*
X19638172Y-8003376D01*
X19623886Y-8008138D01*
X19614362Y-8008138D01*
X19600076Y-8003376D01*
X19590552Y-7993852D01*
X19585791Y-7984329D01*
X19581029Y-7965281D01*
X19581029Y-7950995D01*
X19585791Y-7931948D01*
X19590552Y-7922424D01*
X19600076Y-7912900D01*
X19614362Y-7908138D01*
X19623886Y-7908138D01*
X19638172Y-7912900D01*
X19642933Y-7917662D01*
X19681029Y-7917662D02*
X19685791Y-7912900D01*
X19695314Y-7908138D01*
X19719124Y-7908138D01*
X19728648Y-7912900D01*
X19733410Y-7917662D01*
X19738172Y-7927186D01*
X19738172Y-7936709D01*
X19733410Y-7950995D01*
X19676267Y-8008138D01*
X19738172Y-8008138D01*
X20046960Y-11582088D02*
X20046960Y-11663040D01*
X20051721Y-11672564D01*
X20056483Y-11677326D01*
X20066007Y-11682088D01*
X20085055Y-11682088D01*
X20094579Y-11677326D01*
X20099341Y-11672564D01*
X20104102Y-11663040D01*
X20104102Y-11582088D01*
X20204102Y-11682088D02*
X20146960Y-11682088D01*
X20175531Y-11682088D02*
X20175531Y-11582088D01*
X20166007Y-11596374D01*
X20156483Y-11605898D01*
X20146960Y-11610659D01*
D15*
X22416710Y-10840962D02*
X22416710Y-10739362D01*
X22455414Y-10739362D01*
X22465090Y-10744200D01*
X22469929Y-10749038D01*
X22474767Y-10758714D01*
X22474767Y-10773229D01*
X22469929Y-10782905D01*
X22465090Y-10787743D01*
X22455414Y-10792581D01*
X22416710Y-10792581D01*
X22508633Y-10739362D02*
X22576367Y-10739362D01*
X22532824Y-10840962D01*
X22188110Y-10840962D02*
X22188110Y-10739362D01*
X22226814Y-10739362D01*
X22236491Y-10744200D01*
X22241329Y-10749038D01*
X22246167Y-10758714D01*
X22246167Y-10773229D01*
X22241329Y-10782905D01*
X22236491Y-10787743D01*
X22226814Y-10792581D01*
X22188110Y-10792581D01*
X22333252Y-10739362D02*
X22313900Y-10739362D01*
X22304224Y-10744200D01*
X22299386Y-10749038D01*
X22289710Y-10763552D01*
X22284872Y-10782905D01*
X22284872Y-10821610D01*
X22289710Y-10831286D01*
X22294548Y-10836124D01*
X22304224Y-10840962D01*
X22323576Y-10840962D01*
X22333252Y-10836124D01*
X22338091Y-10831286D01*
X22342929Y-10821610D01*
X22342929Y-10797419D01*
X22338091Y-10787743D01*
X22333252Y-10782905D01*
X22323576Y-10778067D01*
X22304224Y-10778067D01*
X22294548Y-10782905D01*
X22289710Y-10787743D01*
X22284872Y-10797419D01*
X18822610Y-10904462D02*
X18822610Y-10802862D01*
X18861314Y-10802862D01*
X18870991Y-10807700D01*
X18875829Y-10812538D01*
X18880667Y-10822214D01*
X18880667Y-10836729D01*
X18875829Y-10846405D01*
X18870991Y-10851243D01*
X18861314Y-10856081D01*
X18822610Y-10856081D01*
X18972591Y-10802862D02*
X18924210Y-10802862D01*
X18919372Y-10851243D01*
X18924210Y-10846405D01*
X18933886Y-10841567D01*
X18958076Y-10841567D01*
X18967752Y-10846405D01*
X18972591Y-10851243D01*
X18977429Y-10860919D01*
X18977429Y-10885110D01*
X18972591Y-10894786D01*
X18967752Y-10899624D01*
X18958076Y-10904462D01*
X18933886Y-10904462D01*
X18924210Y-10899624D01*
X18919372Y-10894786D01*
X22150010Y-13647662D02*
X22150010Y-13546062D01*
X22188714Y-13546062D01*
X22198391Y-13550900D01*
X22203229Y-13555738D01*
X22208067Y-13565414D01*
X22208067Y-13579929D01*
X22203229Y-13589605D01*
X22198391Y-13594443D01*
X22188714Y-13599281D01*
X22150010Y-13599281D01*
X22295152Y-13579929D02*
X22295152Y-13647662D01*
X22270962Y-13541224D02*
X22246772Y-13613795D01*
X22309667Y-13613795D01*
X20537110Y-13406362D02*
X20537110Y-13304762D01*
X20575814Y-13304762D01*
X20585491Y-13309600D01*
X20590329Y-13314438D01*
X20595167Y-13324114D01*
X20595167Y-13338629D01*
X20590329Y-13348305D01*
X20585491Y-13353143D01*
X20575814Y-13357981D01*
X20537110Y-13357981D01*
X20629033Y-13304762D02*
X20691929Y-13304762D01*
X20658062Y-13343467D01*
X20672576Y-13343467D01*
X20682252Y-13348305D01*
X20687091Y-13353143D01*
X20691929Y-13362819D01*
X20691929Y-13387009D01*
X20687091Y-13396686D01*
X20682252Y-13401524D01*
X20672576Y-13406362D01*
X20643548Y-13406362D01*
X20633872Y-13401524D01*
X20629033Y-13396686D01*
X18835310Y-13647662D02*
X18835310Y-13546062D01*
X18874014Y-13546062D01*
X18883691Y-13550900D01*
X18888529Y-13555738D01*
X18893367Y-13565414D01*
X18893367Y-13579929D01*
X18888529Y-13589605D01*
X18883691Y-13594443D01*
X18874014Y-13599281D01*
X18835310Y-13599281D01*
X18932072Y-13555738D02*
X18936910Y-13550900D01*
X18946586Y-13546062D01*
X18970776Y-13546062D01*
X18980452Y-13550900D01*
X18985291Y-13555738D01*
X18990129Y-13565414D01*
X18990129Y-13575090D01*
X18985291Y-13589605D01*
X18927233Y-13647662D01*
X18990129Y-13647662D01*
X18860710Y-12911062D02*
X18860710Y-12809462D01*
X18899414Y-12809462D01*
X18909091Y-12814300D01*
X18913929Y-12819138D01*
X18918767Y-12828814D01*
X18918767Y-12843329D01*
X18913929Y-12853005D01*
X18909091Y-12857843D01*
X18899414Y-12862681D01*
X18860710Y-12862681D01*
X19015529Y-12911062D02*
X18957472Y-12911062D01*
X18986500Y-12911062D02*
X18986500Y-12809462D01*
X18976824Y-12823976D01*
X18967148Y-12833652D01*
X18957472Y-12838490D01*
D10*
X18879357Y-11562557D02*
X18846024Y-11562557D01*
X18846024Y-11614938D02*
X18846024Y-11514938D01*
X18893643Y-11514938D01*
X18931738Y-11614938D02*
X18931738Y-11514938D01*
X18979357Y-11614938D02*
X18979357Y-11514938D01*
X19003167Y-11514938D01*
X19017452Y-11519700D01*
X19026976Y-11529224D01*
X19031738Y-11538748D01*
X19036500Y-11557795D01*
X19036500Y-11572081D01*
X19031738Y-11591129D01*
X19026976Y-11600652D01*
X19017452Y-11610176D01*
X19003167Y-11614938D01*
X18979357Y-11614938D01*
X19131738Y-11614938D02*
X19074595Y-11614938D01*
X19103167Y-11614938D02*
X19103167Y-11514938D01*
X19093643Y-11529224D01*
X19084119Y-11538748D01*
X19074595Y-11543509D01*
X22675867Y-11576838D02*
X22675867Y-11476838D01*
X22709200Y-11548267D01*
X22742533Y-11476838D01*
X22742533Y-11576838D01*
X22790152Y-11576838D02*
X22790152Y-11476838D01*
X22790152Y-11524457D02*
X22847295Y-11524457D01*
X22847295Y-11576838D02*
X22847295Y-11476838D01*
X22947295Y-11576838D02*
X22890152Y-11576838D01*
X22918724Y-11576838D02*
X22918724Y-11476838D01*
X22909200Y-11491124D01*
X22899676Y-11500648D01*
X22890152Y-11505409D01*
X22675867Y-13006350D02*
X22675867Y-12906350D01*
X22709200Y-12977779D01*
X22742533Y-12906350D01*
X22742533Y-13006350D01*
X22790152Y-13006350D02*
X22790152Y-12906350D01*
X22790152Y-12953969D02*
X22847295Y-12953969D01*
X22847295Y-13006350D02*
X22847295Y-12906350D01*
X22890152Y-12915874D02*
X22894914Y-12911112D01*
X22904438Y-12906350D01*
X22928248Y-12906350D01*
X22937771Y-12911112D01*
X22942533Y-12915874D01*
X22947295Y-12925398D01*
X22947295Y-12934921D01*
X22942533Y-12949207D01*
X22885390Y-13006350D01*
X22947295Y-13006350D01*
X19669414Y-11573667D02*
X19674176Y-11578428D01*
X19678938Y-11592714D01*
X19678938Y-11602238D01*
X19674176Y-11616524D01*
X19664652Y-11626048D01*
X19655129Y-11630809D01*
X19636081Y-11635571D01*
X19621795Y-11635571D01*
X19602748Y-11630809D01*
X19593224Y-11626048D01*
X19583700Y-11616524D01*
X19578938Y-11602238D01*
X19578938Y-11592714D01*
X19583700Y-11578428D01*
X19588462Y-11573667D01*
X19678938Y-11478428D02*
X19678938Y-11535571D01*
X19678938Y-11507000D02*
X19578938Y-11507000D01*
X19593224Y-11516524D01*
X19602748Y-11526048D01*
X19607510Y-11535571D01*
X19796414Y-11573667D02*
X19801176Y-11578428D01*
X19805938Y-11592714D01*
X19805938Y-11602238D01*
X19801176Y-11616524D01*
X19791652Y-11626048D01*
X19782129Y-11630809D01*
X19763081Y-11635571D01*
X19748795Y-11635571D01*
X19729748Y-11630809D01*
X19720224Y-11626048D01*
X19710700Y-11616524D01*
X19705938Y-11602238D01*
X19705938Y-11592714D01*
X19710700Y-11578428D01*
X19715462Y-11573667D01*
X19715462Y-11535571D02*
X19710700Y-11530809D01*
X19705938Y-11521286D01*
X19705938Y-11497476D01*
X19710700Y-11487952D01*
X19715462Y-11483190D01*
X19724986Y-11478428D01*
X19734510Y-11478428D01*
X19748795Y-11483190D01*
X19805938Y-11540333D01*
X19805938Y-11478428D01*
X20874833Y-12240914D02*
X20870072Y-12245676D01*
X20855786Y-12250438D01*
X20846262Y-12250438D01*
X20831976Y-12245676D01*
X20822452Y-12236152D01*
X20817691Y-12226629D01*
X20812929Y-12207581D01*
X20812929Y-12193295D01*
X20817691Y-12174248D01*
X20822452Y-12164724D01*
X20831976Y-12155200D01*
X20846262Y-12150438D01*
X20855786Y-12150438D01*
X20870072Y-12155200D01*
X20874833Y-12159962D01*
X20908167Y-12150438D02*
X20970072Y-12150438D01*
X20936738Y-12188533D01*
X20951024Y-12188533D01*
X20960548Y-12193295D01*
X20965310Y-12198057D01*
X20970072Y-12207581D01*
X20970072Y-12231390D01*
X20965310Y-12240914D01*
X20960548Y-12245676D01*
X20951024Y-12250438D01*
X20922452Y-12250438D01*
X20912929Y-12245676D01*
X20908167Y-12240914D01*
X20874833Y-12101214D02*
X20870072Y-12105976D01*
X20855786Y-12110738D01*
X20846262Y-12110738D01*
X20831976Y-12105976D01*
X20822452Y-12096452D01*
X20817691Y-12086929D01*
X20812929Y-12067881D01*
X20812929Y-12053595D01*
X20817691Y-12034548D01*
X20822452Y-12025024D01*
X20831976Y-12015500D01*
X20846262Y-12010738D01*
X20855786Y-12010738D01*
X20870072Y-12015500D01*
X20874833Y-12020262D01*
X20960548Y-12044071D02*
X20960548Y-12110738D01*
X20936738Y-12005976D02*
X20912929Y-12077405D01*
X20974833Y-12077405D01*
X21781867Y-12578234D02*
X21777106Y-12582996D01*
X21762820Y-12587758D01*
X21753296Y-12587758D01*
X21739010Y-12582996D01*
X21729486Y-12573472D01*
X21724725Y-12563949D01*
X21719963Y-12544901D01*
X21719963Y-12530615D01*
X21724725Y-12511568D01*
X21729486Y-12502044D01*
X21739010Y-12492520D01*
X21753296Y-12487758D01*
X21762820Y-12487758D01*
X21777106Y-12492520D01*
X21781867Y-12497282D01*
X21872344Y-12487758D02*
X21824725Y-12487758D01*
X21819963Y-12535377D01*
X21824725Y-12530615D01*
X21834248Y-12525853D01*
X21858058Y-12525853D01*
X21867582Y-12530615D01*
X21872344Y-12535377D01*
X21877106Y-12544901D01*
X21877106Y-12568710D01*
X21872344Y-12578234D01*
X21867582Y-12582996D01*
X21858058Y-12587758D01*
X21834248Y-12587758D01*
X21824725Y-12582996D01*
X21819963Y-12578234D01*
X21320511Y-12679457D02*
X21396701Y-12679457D01*
X21358606Y-12717552D02*
X21358606Y-12641362D01*
X22083414Y-12259467D02*
X22088176Y-12264228D01*
X22092938Y-12278514D01*
X22092938Y-12288038D01*
X22088176Y-12302324D01*
X22078652Y-12311848D01*
X22069129Y-12316609D01*
X22050081Y-12321371D01*
X22035795Y-12321371D01*
X22016748Y-12316609D01*
X22007224Y-12311848D01*
X21997700Y-12302324D01*
X21992938Y-12288038D01*
X21992938Y-12278514D01*
X21997700Y-12264228D01*
X22002462Y-12259467D01*
X21992938Y-12173752D02*
X21992938Y-12192800D01*
X21997700Y-12202324D01*
X22002462Y-12207086D01*
X22016748Y-12216609D01*
X22035795Y-12221371D01*
X22073891Y-12221371D01*
X22083414Y-12216609D01*
X22088176Y-12211848D01*
X22092938Y-12202324D01*
X22092938Y-12183276D01*
X22088176Y-12173752D01*
X22083414Y-12168990D01*
X22073891Y-12164228D01*
X22050081Y-12164228D01*
X22040557Y-12168990D01*
X22035795Y-12173752D01*
X22031033Y-12183276D01*
X22031033Y-12202324D01*
X22035795Y-12211848D01*
X22040557Y-12216609D01*
X22050081Y-12221371D01*
X21020891Y-12085538D02*
X21020891Y-11985538D01*
X21044700Y-11985538D01*
X21058986Y-11990300D01*
X21068510Y-11999824D01*
X21073272Y-12009348D01*
X21078033Y-12028395D01*
X21078033Y-12042681D01*
X21073272Y-12061729D01*
X21068510Y-12071252D01*
X21058986Y-12080776D01*
X21044700Y-12085538D01*
X21020891Y-12085538D01*
X21173272Y-12085538D02*
X21116129Y-12085538D01*
X21144700Y-12085538D02*
X21144700Y-11985538D01*
X21135176Y-11999824D01*
X21125652Y-12009348D01*
X21116129Y-12014109D01*
X21020891Y-11907738D02*
X21020891Y-11807738D01*
X21044700Y-11807738D01*
X21058986Y-11812500D01*
X21068510Y-11822024D01*
X21073272Y-11831548D01*
X21078033Y-11850595D01*
X21078033Y-11864881D01*
X21073272Y-11883929D01*
X21068510Y-11893452D01*
X21058986Y-11902976D01*
X21044700Y-11907738D01*
X21020891Y-11907738D01*
X21116129Y-11817262D02*
X21120891Y-11812500D01*
X21130414Y-11807738D01*
X21154224Y-11807738D01*
X21163748Y-11812500D01*
X21168510Y-11817262D01*
X21173272Y-11826786D01*
X21173272Y-11836309D01*
X21168510Y-11850595D01*
X21111367Y-11907738D01*
X21173272Y-11907738D01*
X22288157Y-12326133D02*
X22288157Y-12359467D01*
X22340538Y-12359467D02*
X22240538Y-12359467D01*
X22240538Y-12311848D01*
X22288157Y-12240419D02*
X22292919Y-12226133D01*
X22297681Y-12221371D01*
X22307205Y-12216609D01*
X22321491Y-12216609D01*
X22331014Y-12221371D01*
X22335776Y-12226133D01*
X22340538Y-12235657D01*
X22340538Y-12273752D01*
X22240538Y-12273752D01*
X22240538Y-12240419D01*
X22245300Y-12230895D01*
X22250062Y-12226133D01*
X22259586Y-12221371D01*
X22269110Y-12221371D01*
X22278633Y-12226133D01*
X22283395Y-12230895D01*
X22288157Y-12240419D01*
X22288157Y-12273752D01*
X22340538Y-12121371D02*
X22340538Y-12178514D01*
X22340538Y-12149943D02*
X22240538Y-12149943D01*
X22254824Y-12159467D01*
X22264348Y-12168990D01*
X22269110Y-12178514D01*
X19865191Y-12844838D02*
X19865191Y-12744838D01*
X19903286Y-12744838D01*
X19912810Y-12749600D01*
X19917572Y-12754362D01*
X19922333Y-12763886D01*
X19922333Y-12778171D01*
X19917572Y-12787695D01*
X19912810Y-12792457D01*
X19903286Y-12797219D01*
X19865191Y-12797219D01*
X19969952Y-12844838D02*
X19989000Y-12844838D01*
X19998524Y-12840076D01*
X20003286Y-12835314D01*
X20012810Y-12821029D01*
X20017572Y-12801981D01*
X20017572Y-12763886D01*
X20012810Y-12754362D01*
X20008048Y-12749600D01*
X19998524Y-12744838D01*
X19979476Y-12744838D01*
X19969952Y-12749600D01*
X19965191Y-12754362D01*
X19960429Y-12763886D01*
X19960429Y-12787695D01*
X19965191Y-12797219D01*
X19969952Y-12801981D01*
X19979476Y-12806743D01*
X19998524Y-12806743D01*
X20008048Y-12801981D01*
X20012810Y-12797219D01*
X20017572Y-12787695D01*
X19487371Y-12844838D02*
X19487371Y-12744838D01*
X19525467Y-12744838D01*
X19534991Y-12749600D01*
X19539752Y-12754362D01*
X19544514Y-12763886D01*
X19544514Y-12778171D01*
X19539752Y-12787695D01*
X19534991Y-12792457D01*
X19525467Y-12797219D01*
X19487371Y-12797219D01*
X19639752Y-12844838D02*
X19582610Y-12844838D01*
X19611181Y-12844838D02*
X19611181Y-12744838D01*
X19601657Y-12759124D01*
X19592133Y-12768648D01*
X19582610Y-12773409D01*
X19701657Y-12744838D02*
X19711181Y-12744838D01*
X19720705Y-12749600D01*
X19725467Y-12754362D01*
X19730229Y-12763886D01*
X19734991Y-12782933D01*
X19734991Y-12806743D01*
X19730229Y-12825790D01*
X19725467Y-12835314D01*
X19720705Y-12840076D01*
X19711181Y-12844838D01*
X19701657Y-12844838D01*
X19692133Y-12840076D01*
X19687371Y-12835314D01*
X19682610Y-12825790D01*
X19677848Y-12806743D01*
X19677848Y-12782933D01*
X19682610Y-12763886D01*
X19687371Y-12754362D01*
X19692133Y-12749600D01*
X19701657Y-12744838D01*
X19157171Y-12844838D02*
X19157171Y-12744838D01*
X19195267Y-12744838D01*
X19204791Y-12749600D01*
X19209552Y-12754362D01*
X19214314Y-12763886D01*
X19214314Y-12778171D01*
X19209552Y-12787695D01*
X19204791Y-12792457D01*
X19195267Y-12797219D01*
X19157171Y-12797219D01*
X19309552Y-12844838D02*
X19252410Y-12844838D01*
X19280981Y-12844838D02*
X19280981Y-12744838D01*
X19271457Y-12759124D01*
X19261933Y-12768648D01*
X19252410Y-12773409D01*
X19404791Y-12844838D02*
X19347648Y-12844838D01*
X19376219Y-12844838D02*
X19376219Y-12744838D01*
X19366695Y-12759124D01*
X19357171Y-12768648D01*
X19347648Y-12773409D01*
X21395533Y-11780538D02*
X21362200Y-11732919D01*
X21338391Y-11780538D02*
X21338391Y-11680538D01*
X21376486Y-11680538D01*
X21386010Y-11685300D01*
X21390772Y-11690062D01*
X21395533Y-11699586D01*
X21395533Y-11713871D01*
X21390772Y-11723395D01*
X21386010Y-11728157D01*
X21376486Y-11732919D01*
X21338391Y-11732919D01*
X21490772Y-11780538D02*
X21433629Y-11780538D01*
X21462200Y-11780538D02*
X21462200Y-11680538D01*
X21452676Y-11694824D01*
X21443152Y-11704348D01*
X21433629Y-11709109D01*
X21395533Y-11602738D02*
X21362200Y-11555119D01*
X21338391Y-11602738D02*
X21338391Y-11502738D01*
X21376486Y-11502738D01*
X21386010Y-11507500D01*
X21390772Y-11512262D01*
X21395533Y-11521786D01*
X21395533Y-11536071D01*
X21390772Y-11545595D01*
X21386010Y-11550357D01*
X21376486Y-11555119D01*
X21338391Y-11555119D01*
X21433629Y-11512262D02*
X21438391Y-11507500D01*
X21447914Y-11502738D01*
X21471724Y-11502738D01*
X21481248Y-11507500D01*
X21486010Y-11512262D01*
X21490772Y-11521786D01*
X21490772Y-11531309D01*
X21486010Y-11545595D01*
X21428867Y-11602738D01*
X21490772Y-11602738D01*
X19236533Y-12401838D02*
X19203200Y-12354219D01*
X19179391Y-12401838D02*
X19179391Y-12301838D01*
X19217486Y-12301838D01*
X19227010Y-12306600D01*
X19231772Y-12311362D01*
X19236533Y-12320886D01*
X19236533Y-12335171D01*
X19231772Y-12344695D01*
X19227010Y-12349457D01*
X19217486Y-12354219D01*
X19179391Y-12354219D01*
X19269867Y-12301838D02*
X19331772Y-12301838D01*
X19298438Y-12339933D01*
X19312724Y-12339933D01*
X19322248Y-12344695D01*
X19327010Y-12349457D01*
X19331772Y-12358981D01*
X19331772Y-12382790D01*
X19327010Y-12392314D01*
X19322248Y-12397076D01*
X19312724Y-12401838D01*
X19284152Y-12401838D01*
X19274629Y-12397076D01*
X19269867Y-12392314D01*
X19236533Y-12262138D02*
X19203200Y-12214519D01*
X19179391Y-12262138D02*
X19179391Y-12162138D01*
X19217486Y-12162138D01*
X19227010Y-12166900D01*
X19231772Y-12171662D01*
X19236533Y-12181186D01*
X19236533Y-12195471D01*
X19231772Y-12204995D01*
X19227010Y-12209757D01*
X19217486Y-12214519D01*
X19179391Y-12214519D01*
X19322248Y-12195471D02*
X19322248Y-12262138D01*
X19298438Y-12157376D02*
X19274629Y-12228805D01*
X19336533Y-12228805D01*
X19236533Y-12681238D02*
X19203200Y-12633619D01*
X19179391Y-12681238D02*
X19179391Y-12581238D01*
X19217486Y-12581238D01*
X19227010Y-12586000D01*
X19231772Y-12590762D01*
X19236533Y-12600286D01*
X19236533Y-12614571D01*
X19231772Y-12624095D01*
X19227010Y-12628857D01*
X19217486Y-12633619D01*
X19179391Y-12633619D01*
X19327010Y-12581238D02*
X19279391Y-12581238D01*
X19274629Y-12628857D01*
X19279391Y-12624095D01*
X19288914Y-12619333D01*
X19312724Y-12619333D01*
X19322248Y-12624095D01*
X19327010Y-12628857D01*
X19331772Y-12638381D01*
X19331772Y-12662190D01*
X19327010Y-12671714D01*
X19322248Y-12676476D01*
X19312724Y-12681238D01*
X19288914Y-12681238D01*
X19279391Y-12676476D01*
X19274629Y-12671714D01*
X19236533Y-12541538D02*
X19203200Y-12493919D01*
X19179391Y-12541538D02*
X19179391Y-12441538D01*
X19217486Y-12441538D01*
X19227010Y-12446300D01*
X19231772Y-12451062D01*
X19236533Y-12460586D01*
X19236533Y-12474871D01*
X19231772Y-12484395D01*
X19227010Y-12489157D01*
X19217486Y-12493919D01*
X19179391Y-12493919D01*
X19322248Y-12441538D02*
X19303200Y-12441538D01*
X19293676Y-12446300D01*
X19288914Y-12451062D01*
X19279391Y-12465348D01*
X19274629Y-12484395D01*
X19274629Y-12522490D01*
X19279391Y-12532014D01*
X19284152Y-12536776D01*
X19293676Y-12541538D01*
X19312724Y-12541538D01*
X19322248Y-12536776D01*
X19327010Y-12532014D01*
X19331772Y-12522490D01*
X19331772Y-12498681D01*
X19327010Y-12489157D01*
X19322248Y-12484395D01*
X19312724Y-12479633D01*
X19293676Y-12479633D01*
X19284152Y-12484395D01*
X19279391Y-12489157D01*
X19274629Y-12498681D01*
X20874833Y-12947938D02*
X20841500Y-12900319D01*
X20817691Y-12947938D02*
X20817691Y-12847938D01*
X20855786Y-12847938D01*
X20865310Y-12852700D01*
X20870072Y-12857462D01*
X20874833Y-12866986D01*
X20874833Y-12881271D01*
X20870072Y-12890795D01*
X20865310Y-12895557D01*
X20855786Y-12900319D01*
X20817691Y-12900319D01*
X20908167Y-12847938D02*
X20974833Y-12847938D01*
X20931976Y-12947938D01*
X20874833Y-12795538D02*
X20841500Y-12747919D01*
X20817691Y-12795538D02*
X20817691Y-12695538D01*
X20855786Y-12695538D01*
X20865310Y-12700300D01*
X20870072Y-12705062D01*
X20874833Y-12714586D01*
X20874833Y-12728871D01*
X20870072Y-12738395D01*
X20865310Y-12743157D01*
X20855786Y-12747919D01*
X20817691Y-12747919D01*
X20931976Y-12738395D02*
X20922452Y-12733633D01*
X20917691Y-12728871D01*
X20912929Y-12719348D01*
X20912929Y-12714586D01*
X20917691Y-12705062D01*
X20922452Y-12700300D01*
X20931976Y-12695538D01*
X20951024Y-12695538D01*
X20960548Y-12700300D01*
X20965310Y-12705062D01*
X20970072Y-12714586D01*
X20970072Y-12719348D01*
X20965310Y-12728871D01*
X20960548Y-12733633D01*
X20951024Y-12738395D01*
X20931976Y-12738395D01*
X20922452Y-12743157D01*
X20917691Y-12747919D01*
X20912929Y-12757443D01*
X20912929Y-12776490D01*
X20917691Y-12786014D01*
X20922452Y-12790776D01*
X20931976Y-12795538D01*
X20951024Y-12795538D01*
X20960548Y-12790776D01*
X20965310Y-12786014D01*
X20970072Y-12776490D01*
X20970072Y-12757443D01*
X20965310Y-12747919D01*
X20960548Y-12743157D01*
X20951024Y-12738395D01*
X22612638Y-12005467D02*
X22565019Y-12038800D01*
X22612638Y-12062609D02*
X22512638Y-12062609D01*
X22512638Y-12024514D01*
X22517400Y-12014990D01*
X22522162Y-12010228D01*
X22531686Y-12005467D01*
X22545971Y-12005467D01*
X22555495Y-12010228D01*
X22560257Y-12014990D01*
X22565019Y-12024514D01*
X22565019Y-12062609D01*
X22612638Y-11957848D02*
X22612638Y-11938800D01*
X22607876Y-11929276D01*
X22603114Y-11924514D01*
X22588829Y-11914990D01*
X22569781Y-11910228D01*
X22531686Y-11910228D01*
X22522162Y-11914990D01*
X22517400Y-11919752D01*
X22512638Y-11929276D01*
X22512638Y-11948324D01*
X22517400Y-11957848D01*
X22522162Y-11962609D01*
X22531686Y-11967371D01*
X22555495Y-11967371D01*
X22565019Y-11962609D01*
X22569781Y-11957848D01*
X22574543Y-11948324D01*
X22574543Y-11929276D01*
X22569781Y-11919752D01*
X22565019Y-11914990D01*
X22555495Y-11910228D01*
X20758438Y-13145286D02*
X20710819Y-13178619D01*
X20758438Y-13202429D02*
X20658438Y-13202429D01*
X20658438Y-13164333D01*
X20663200Y-13154809D01*
X20667962Y-13150048D01*
X20677486Y-13145286D01*
X20691771Y-13145286D01*
X20701295Y-13150048D01*
X20706057Y-13154809D01*
X20710819Y-13164333D01*
X20710819Y-13202429D01*
X20758438Y-13050048D02*
X20758438Y-13107190D01*
X20758438Y-13078619D02*
X20658438Y-13078619D01*
X20672724Y-13088143D01*
X20682248Y-13097667D01*
X20687010Y-13107190D01*
X20658438Y-12988143D02*
X20658438Y-12978619D01*
X20663200Y-12969095D01*
X20667962Y-12964333D01*
X20677486Y-12959571D01*
X20696533Y-12954809D01*
X20720343Y-12954809D01*
X20739391Y-12959571D01*
X20748914Y-12964333D01*
X20753676Y-12969095D01*
X20758438Y-12978619D01*
X20758438Y-12988143D01*
X20753676Y-12997667D01*
X20748914Y-13002429D01*
X20739391Y-13007190D01*
X20720343Y-13011952D01*
X20696533Y-13011952D01*
X20677486Y-13007190D01*
X20667962Y-13002429D01*
X20663200Y-12997667D01*
X20658438Y-12988143D01*
X20910838Y-13145286D02*
X20863219Y-13178619D01*
X20910838Y-13202429D02*
X20810838Y-13202429D01*
X20810838Y-13164333D01*
X20815600Y-13154809D01*
X20820362Y-13150048D01*
X20829886Y-13145286D01*
X20844171Y-13145286D01*
X20853695Y-13150048D01*
X20858457Y-13154809D01*
X20863219Y-13164333D01*
X20863219Y-13202429D01*
X20910838Y-13050048D02*
X20910838Y-13107190D01*
X20910838Y-13078619D02*
X20810838Y-13078619D01*
X20825124Y-13088143D01*
X20834648Y-13097667D01*
X20839410Y-13107190D01*
X20910838Y-12954809D02*
X20910838Y-13011952D01*
X20910838Y-12983381D02*
X20810838Y-12983381D01*
X20825124Y-12992905D01*
X20834648Y-13002429D01*
X20839410Y-13011952D01*
X20606038Y-13145286D02*
X20558419Y-13178619D01*
X20606038Y-13202429D02*
X20506038Y-13202429D01*
X20506038Y-13164333D01*
X20510800Y-13154809D01*
X20515562Y-13150048D01*
X20525086Y-13145286D01*
X20539371Y-13145286D01*
X20548895Y-13150048D01*
X20553657Y-13154809D01*
X20558419Y-13164333D01*
X20558419Y-13202429D01*
X20606038Y-13050048D02*
X20606038Y-13107190D01*
X20606038Y-13078619D02*
X20506038Y-13078619D01*
X20520324Y-13088143D01*
X20529848Y-13097667D01*
X20534610Y-13107190D01*
X20515562Y-13011952D02*
X20510800Y-13007190D01*
X20506038Y-12997667D01*
X20506038Y-12973857D01*
X20510800Y-12964333D01*
X20515562Y-12959571D01*
X20525086Y-12954809D01*
X20534610Y-12954809D01*
X20548895Y-12959571D01*
X20606038Y-13016714D01*
X20606038Y-12954809D01*
D12*
X23353867Y-12303560D02*
X23356249Y-12305943D01*
X23358632Y-12313091D01*
X23358632Y-12317857D01*
X23356249Y-12325005D01*
X23351484Y-12329771D01*
X23346718Y-12332154D01*
X23337187Y-12334536D01*
X23330039Y-12334536D01*
X23320508Y-12332154D01*
X23315742Y-12329771D01*
X23310977Y-12325005D01*
X23308594Y-12317857D01*
X23308594Y-12313091D01*
X23310977Y-12305943D01*
X23313360Y-12303560D01*
X23308594Y-12272584D02*
X23308594Y-12263053D01*
X23310977Y-12258288D01*
X23315742Y-12253522D01*
X23325274Y-12251140D01*
X23341953Y-12251140D01*
X23351484Y-12253522D01*
X23356249Y-12258288D01*
X23358632Y-12263053D01*
X23358632Y-12272584D01*
X23356249Y-12277350D01*
X23351484Y-12282116D01*
X23341953Y-12284498D01*
X23325274Y-12284498D01*
X23315742Y-12282116D01*
X23310977Y-12277350D01*
X23308594Y-12272584D01*
X23358632Y-12229695D02*
X23308594Y-12229695D01*
X23358632Y-12201102D01*
X23308594Y-12201102D01*
X23358632Y-12151064D02*
X23358632Y-12179657D01*
X23358632Y-12165360D02*
X23308594Y-12165360D01*
X23315742Y-12170126D01*
X23320508Y-12174891D01*
X23322891Y-12179657D01*
X22648448Y-12509669D02*
X22688955Y-12509669D01*
X22693721Y-12507286D01*
X22696103Y-12504904D01*
X22698486Y-12500138D01*
X22698486Y-12490607D01*
X22696103Y-12485842D01*
X22693721Y-12483459D01*
X22688955Y-12481076D01*
X22648448Y-12481076D01*
X22696103Y-12459631D02*
X22698486Y-12452483D01*
X22698486Y-12440569D01*
X22696103Y-12435804D01*
X22693721Y-12433421D01*
X22688955Y-12431038D01*
X22684190Y-12431038D01*
X22679424Y-12433421D01*
X22677041Y-12435804D01*
X22674659Y-12440569D01*
X22672276Y-12450100D01*
X22669893Y-12454866D01*
X22667510Y-12457248D01*
X22662745Y-12459631D01*
X22657979Y-12459631D01*
X22653214Y-12457248D01*
X22650831Y-12454866D01*
X22648448Y-12450100D01*
X22648448Y-12438186D01*
X22650831Y-12431038D01*
X22672276Y-12392914D02*
X22674659Y-12385766D01*
X22677041Y-12383383D01*
X22681807Y-12381000D01*
X22688955Y-12381000D01*
X22693721Y-12383383D01*
X22696103Y-12385766D01*
X22698486Y-12390531D01*
X22698486Y-12409593D01*
X22648448Y-12409593D01*
X22648448Y-12392914D01*
X22650831Y-12388148D01*
X22653214Y-12385766D01*
X22657979Y-12383383D01*
X22662745Y-12383383D01*
X22667510Y-12385766D01*
X22669893Y-12388148D01*
X22672276Y-12392914D01*
X22672276Y-12409593D01*
X22679424Y-12359555D02*
X22679424Y-12321431D01*
X22698486Y-12297603D02*
X22648448Y-12297603D01*
X22684190Y-12280924D01*
X22648448Y-12264245D01*
X22698486Y-12264245D01*
X22698486Y-12240417D02*
X22648448Y-12240417D01*
X22693721Y-12187996D02*
X22696103Y-12190379D01*
X22698486Y-12197527D01*
X22698486Y-12202293D01*
X22696103Y-12209441D01*
X22691338Y-12214207D01*
X22686572Y-12216590D01*
X22677041Y-12218972D01*
X22669893Y-12218972D01*
X22660362Y-12216590D01*
X22655596Y-12214207D01*
X22650831Y-12209441D01*
X22648448Y-12202293D01*
X22648448Y-12197527D01*
X22650831Y-12190379D01*
X22653214Y-12187996D01*
X22698486Y-12137958D02*
X22674659Y-12154638D01*
X22698486Y-12166552D02*
X22648448Y-12166552D01*
X22648448Y-12147489D01*
X22650831Y-12142724D01*
X22653214Y-12140341D01*
X22657979Y-12137958D01*
X22665128Y-12137958D01*
X22669893Y-12140341D01*
X22672276Y-12142724D01*
X22674659Y-12147489D01*
X22674659Y-12166552D01*
X22648448Y-12106982D02*
X22648448Y-12097451D01*
X22650831Y-12092686D01*
X22655596Y-12087920D01*
X22665128Y-12085538D01*
X22681807Y-12085538D01*
X22691338Y-12087920D01*
X22696103Y-12092686D01*
X22698486Y-12097451D01*
X22698486Y-12106982D01*
X22696103Y-12111748D01*
X22691338Y-12116514D01*
X22681807Y-12118896D01*
X22665128Y-12118896D01*
X22655596Y-12116514D01*
X22650831Y-12111748D01*
X22648448Y-12106982D01*
X22679424Y-12064093D02*
X22679424Y-12025969D01*
X22672276Y-11985462D02*
X22674659Y-11978313D01*
X22677041Y-11975931D01*
X22681807Y-11973548D01*
X22688955Y-11973548D01*
X22693721Y-11975931D01*
X22696103Y-11978313D01*
X22698486Y-11983079D01*
X22698486Y-12002141D01*
X22648448Y-12002141D01*
X22648448Y-11985462D01*
X22650831Y-11980696D01*
X22653214Y-11978313D01*
X22657979Y-11975931D01*
X22662745Y-11975931D01*
X22667510Y-11978313D01*
X22669893Y-11980696D01*
X22672276Y-11985462D01*
X22672276Y-12002141D01*
D10*
X19487371Y-12540038D02*
X19487371Y-12440038D01*
X19525467Y-12440038D01*
X19534991Y-12444800D01*
X19539752Y-12449562D01*
X19544514Y-12459086D01*
X19544514Y-12473371D01*
X19539752Y-12482895D01*
X19534991Y-12487657D01*
X19525467Y-12492419D01*
X19487371Y-12492419D01*
X19639752Y-12540038D02*
X19582610Y-12540038D01*
X19611181Y-12540038D02*
X19611181Y-12440038D01*
X19601657Y-12454324D01*
X19592133Y-12463848D01*
X19582610Y-12468609D01*
X19677848Y-12449562D02*
X19682610Y-12444800D01*
X19692133Y-12440038D01*
X19715943Y-12440038D01*
X19725467Y-12444800D01*
X19730229Y-12449562D01*
X19734991Y-12459086D01*
X19734991Y-12468609D01*
X19730229Y-12482895D01*
X19673086Y-12540038D01*
X19734991Y-12540038D01*
%LPC*%
D24*
X19367500Y-6223000D03*
X19494500Y-6223000D03*
X19621500Y-6223000D03*
X19748500Y-6223000D03*
X19875500Y-6223000D03*
X20002500Y-6223000D03*
X20129500Y-6223000D03*
X20256500Y-6223000D03*
X20256500Y-5207000D03*
X20129500Y-5207000D03*
X20002500Y-5207000D03*
X19875500Y-5207000D03*
X19748500Y-5207000D03*
X19621500Y-5207000D03*
X19494500Y-5207000D03*
X19367500Y-5207000D03*
D25*
X20561300Y-6438900D03*
X20713700Y-6438900D03*
X20713700Y-6642100D03*
X20561300Y-6642100D03*
X20561300Y-5283200D03*
X20713700Y-5283200D03*
X20713700Y-5067300D03*
X20561300Y-5067300D03*
D26*
X19431000Y-6680200D03*
X19431000Y-6527800D03*
X19634200Y-6680200D03*
X19634200Y-6527800D03*
X19837400Y-6680200D03*
X19837400Y-6527800D03*
X19939000Y-4622800D03*
X19939000Y-4775200D03*
X20193000Y-4622800D03*
X20193000Y-4775200D03*
X20447000Y-4622800D03*
X20447000Y-4775200D03*
X20701000Y-4622800D03*
X20701000Y-4775200D03*
X20955000Y-4622800D03*
X20955000Y-4775200D03*
X21209000Y-4622800D03*
X21209000Y-4775200D03*
D27*
X22987000Y-5257800D03*
D28*
X22987000Y-5511800D03*
X22987000Y-5765800D03*
X22987000Y-6019800D03*
D27*
X21209000Y-4318000D03*
D28*
X21463000Y-4318000D03*
X21717000Y-4318000D03*
X21971000Y-4318000D03*
D27*
X20193000Y-4318000D03*
D28*
X20447000Y-4318000D03*
X20701000Y-4318000D03*
X20955000Y-4318000D03*
D27*
X19177000Y-4318000D03*
D28*
X19431000Y-4318000D03*
X19685000Y-4318000D03*
X19939000Y-4318000D03*
D27*
X21209000Y-6985000D03*
D28*
X21463000Y-6985000D03*
X21717000Y-6985000D03*
X21971000Y-6985000D03*
D27*
X20193000Y-6985000D03*
D28*
X20447000Y-6985000D03*
X20701000Y-6985000D03*
X20955000Y-6985000D03*
D27*
X19177000Y-6985000D03*
D28*
X19431000Y-6985000D03*
X19685000Y-6985000D03*
X19939000Y-6985000D03*
D27*
X18923000Y-5257800D03*
D28*
X18923000Y-5511800D03*
X18923000Y-5765800D03*
X18923000Y-6019800D03*
D29*
X22580600Y-6322060D03*
X22580600Y-5920740D03*
X22580600Y-5369560D03*
X22580600Y-4968240D03*
D30*
X21628100Y-6388100D03*
X22186900Y-6388100D03*
X21628100Y-5918200D03*
X22186900Y-5918200D03*
X21628100Y-4914900D03*
X22186900Y-4914900D03*
X21628100Y-5384800D03*
X22186900Y-5384800D03*
D25*
X21399500Y-6426200D03*
X21247100Y-6426200D03*
X21209000Y-5295900D03*
X21361400Y-5295900D03*
D31*
X21240750Y-5613400D03*
X21240750Y-5486400D03*
X20593050Y-5486400D03*
X20593050Y-5613400D03*
X21240750Y-6248400D03*
X21240750Y-6121400D03*
X20593050Y-6121400D03*
X20593050Y-6248400D03*
D32*
X18986500Y-4699000D03*
D33*
X19431000Y-4862900D03*
X19431000Y-4712900D03*
X19291300Y-4862900D03*
X19291300Y-4712900D03*
D24*
X19367500Y-9525000D03*
X19494500Y-9525000D03*
X19621500Y-9525000D03*
X19748500Y-9525000D03*
X19875500Y-9525000D03*
X20002500Y-9525000D03*
X20129500Y-9525000D03*
X20256500Y-9525000D03*
X20256500Y-8509000D03*
X20129500Y-8509000D03*
X20002500Y-8509000D03*
X19875500Y-8509000D03*
X19748500Y-8509000D03*
X19621500Y-8509000D03*
X19494500Y-8509000D03*
X19367500Y-8509000D03*
D25*
X21005800Y-9652000D03*
X21158200Y-9652000D03*
X20624800Y-9652000D03*
X20777200Y-9652000D03*
X21005800Y-8382000D03*
X21158200Y-8382000D03*
X20624800Y-8382000D03*
X20777200Y-8382000D03*
D26*
X19431000Y-9982200D03*
X19431000Y-9829800D03*
X19634200Y-9982200D03*
X19634200Y-9829800D03*
X19837400Y-9982200D03*
X19837400Y-9829800D03*
X19939000Y-7924800D03*
X19939000Y-8077200D03*
X20193000Y-7924800D03*
X20193000Y-8077200D03*
X20447000Y-7924800D03*
X20447000Y-8077200D03*
X20701000Y-7924800D03*
X20701000Y-8077200D03*
X20955000Y-7924800D03*
X20955000Y-8077200D03*
X21209000Y-7924800D03*
X21209000Y-8077200D03*
D27*
X22987000Y-8559800D03*
D28*
X22987000Y-8813800D03*
X22987000Y-9067800D03*
X22987000Y-9321800D03*
D27*
X21209000Y-7620000D03*
D28*
X21463000Y-7620000D03*
X21717000Y-7620000D03*
X21971000Y-7620000D03*
D27*
X20193000Y-7620000D03*
D28*
X20447000Y-7620000D03*
X20701000Y-7620000D03*
X20955000Y-7620000D03*
D27*
X19177000Y-7620000D03*
D28*
X19431000Y-7620000D03*
X19685000Y-7620000D03*
X19939000Y-7620000D03*
D27*
X21209000Y-10287000D03*
D28*
X21463000Y-10287000D03*
X21717000Y-10287000D03*
X21971000Y-10287000D03*
D27*
X20193000Y-10287000D03*
D28*
X20447000Y-10287000D03*
X20701000Y-10287000D03*
X20955000Y-10287000D03*
D27*
X19177000Y-10287000D03*
D28*
X19431000Y-10287000D03*
X19685000Y-10287000D03*
X19939000Y-10287000D03*
D27*
X18923000Y-8559800D03*
D28*
X18923000Y-8813800D03*
X18923000Y-9067800D03*
X18923000Y-9321800D03*
D34*
X21948140Y-9779000D03*
X22349460Y-9779000D03*
X21948140Y-8255000D03*
X22349460Y-8255000D03*
D35*
X20764500Y-8699500D03*
X21018500Y-8699500D03*
X22034500Y-8699500D03*
X22542500Y-8699500D03*
X20764500Y-9334500D03*
X21018500Y-9334500D03*
X22034500Y-9334500D03*
X22542500Y-9334500D03*
D32*
X18973800Y-8001000D03*
D36*
X19494500Y-8210300D03*
X19494500Y-8020300D03*
X19342100Y-8210300D03*
X19342100Y-8020300D03*
D37*
X19763150Y-11839350D03*
X19763150Y-11904350D03*
X19763150Y-11969350D03*
X19763150Y-12034350D03*
X19763150Y-12099350D03*
X19763150Y-12164350D03*
X19763150Y-12229350D03*
X19763150Y-12294350D03*
X19763150Y-12359350D03*
X19763150Y-12424350D03*
X19763150Y-12489350D03*
X19763150Y-12554350D03*
X19763150Y-12619350D03*
X19763150Y-12684350D03*
X20483150Y-12684350D03*
X20483150Y-12619350D03*
X20483150Y-12554350D03*
X20483150Y-12489350D03*
X20483150Y-12424350D03*
X20483150Y-12359350D03*
X20483150Y-12294350D03*
X20483150Y-12229350D03*
X20483150Y-12164350D03*
X20483150Y-12099350D03*
X20483150Y-12034350D03*
X20483150Y-11969350D03*
X20483150Y-11904350D03*
X20483150Y-11839350D03*
D27*
X21209000Y-10922000D03*
D28*
X21463000Y-10922000D03*
X21717000Y-10922000D03*
X21971000Y-10922000D03*
D27*
X20193000Y-10922000D03*
D28*
X20447000Y-10922000D03*
X20701000Y-10922000D03*
X20955000Y-10922000D03*
D27*
X19177000Y-10922000D03*
D28*
X19431000Y-10922000D03*
X19685000Y-10922000D03*
X19939000Y-10922000D03*
D27*
X21209000Y-13589000D03*
D28*
X21463000Y-13589000D03*
X21717000Y-13589000D03*
X21971000Y-13589000D03*
D27*
X20193000Y-13589000D03*
D28*
X20447000Y-13589000D03*
X20701000Y-13589000D03*
X20955000Y-13589000D03*
D27*
X19177000Y-13589000D03*
D28*
X19431000Y-13589000D03*
X19685000Y-13589000D03*
X19939000Y-13589000D03*
D27*
X18923000Y-11861800D03*
D28*
X18923000Y-12115800D03*
X18923000Y-12369800D03*
X18923000Y-12623800D03*
D32*
X18973800Y-11303000D03*
D33*
X19443700Y-11482000D03*
X19443700Y-11632000D03*
X19570700Y-11482000D03*
X19570700Y-11632000D03*
D38*
X20816500Y-12395200D03*
X20966500Y-12395200D03*
X20816500Y-12255500D03*
X20966500Y-12255500D03*
D39*
X22018498Y-12852400D03*
X21618702Y-12852400D03*
D36*
X22237700Y-12337800D03*
X22237700Y-12147800D03*
D40*
X21019770Y-11925300D03*
X21169630Y-11925300D03*
X21019770Y-11747500D03*
X21169630Y-11747500D03*
D41*
X22085300Y-12142800D03*
X22085300Y-12342800D03*
D42*
X19939000Y-13309600D03*
X19608800Y-13309600D03*
X19278600Y-13309600D03*
D43*
X21337200Y-11925300D03*
X21487200Y-11925300D03*
X21337200Y-11747500D03*
X21487200Y-11747500D03*
X19328200Y-12166600D03*
X19178200Y-12166600D03*
X19328200Y-12026900D03*
X19178200Y-12026900D03*
X19328200Y-12446000D03*
X19178200Y-12446000D03*
X19328200Y-12306300D03*
X19178200Y-12306300D03*
X20966500Y-12712700D03*
X20816500Y-12712700D03*
X20966500Y-12560300D03*
X20816500Y-12560300D03*
D44*
X22377400Y-11913800D03*
X22377400Y-12063800D03*
X20523200Y-13006000D03*
X20523200Y-13156000D03*
X20675600Y-13006000D03*
X20675600Y-13156000D03*
X20370800Y-13006000D03*
X20370800Y-13156000D03*
D45*
X23075900Y-12326620D03*
X23075900Y-12158980D03*
D46*
X23075900Y-11951462D03*
X23075900Y-12534138D03*
D47*
X22846030Y-11996674D03*
X22846030Y-12488926D03*
D48*
X22809962Y-12372848D03*
X22809962Y-12307824D03*
X22809962Y-12242800D03*
X22809962Y-12177776D03*
X22809962Y-12112752D03*
D42*
X19608800Y-13004800D03*
M02*
