G04 #@! TF.FileFunction,Paste,Top*
%FSLAX45Y45*%
G04 Gerber Fmt 4.5, Leading zero omitted, Abs format (unit mm)*
G04 Created by KiCad (PCBNEW (after 2015-may-25 BZR unknown)-product) date 15/07/2015 13:23:27*
%MOMM*%
G01*
G04 APERTURE LIST*
%ADD10C,0.150000*%
%ADD11R,0.635000X1.905000*%
%ADD12R,0.635000X1.143000*%
%ADD13R,1.143000X0.635000*%
%ADD14R,2.199640X1.800860*%
%ADD15R,2.032000X4.064000*%
%ADD16R,0.998220X0.497840*%
%ADD17R,0.750000X0.800000*%
%ADD18R,1.800860X2.199640*%
%ADD19R,0.750000X1.200000*%
%ADD20R,1.750000X0.450000*%
%ADD21R,0.800000X0.750000*%
%ADD22R,2.999740X1.501140*%
%ADD23R,0.797560X0.797560*%
%ADD24R,1.250000X1.000000*%
%ADD25R,0.500000X0.900000*%
%ADD26R,0.900000X0.500000*%
%ADD27R,1.897380X1.173480*%
%ADD28R,1.897380X2.374900*%
%ADD29R,2.100580X1.473200*%
%ADD30R,1.379220X0.449580*%
G04 APERTURE END LIST*
D10*
D11*
X19367500Y-6223000D03*
X19494500Y-6223000D03*
X19621500Y-6223000D03*
X19748500Y-6223000D03*
X19875500Y-6223000D03*
X20002500Y-6223000D03*
X20129500Y-6223000D03*
X20256500Y-6223000D03*
X20256500Y-5207000D03*
X20129500Y-5207000D03*
X20002500Y-5207000D03*
X19875500Y-5207000D03*
X19748500Y-5207000D03*
X19621500Y-5207000D03*
X19494500Y-5207000D03*
X19367500Y-5207000D03*
D12*
X20561300Y-6438900D03*
X20713700Y-6438900D03*
X20713700Y-6642100D03*
X20561300Y-6642100D03*
X20561300Y-5283200D03*
X20713700Y-5283200D03*
X20713700Y-5067300D03*
X20561300Y-5067300D03*
D13*
X19431000Y-6680200D03*
X19431000Y-6527800D03*
X19634200Y-6680200D03*
X19634200Y-6527800D03*
X19837400Y-6680200D03*
X19837400Y-6527800D03*
X19939000Y-4622800D03*
X19939000Y-4775200D03*
X20193000Y-4622800D03*
X20193000Y-4775200D03*
X20447000Y-4622800D03*
X20447000Y-4775200D03*
X20701000Y-4622800D03*
X20701000Y-4775200D03*
X20955000Y-4622800D03*
X20955000Y-4775200D03*
X21209000Y-4622800D03*
X21209000Y-4775200D03*
D14*
X22580600Y-6322060D03*
X22580600Y-5920740D03*
X22580600Y-5369560D03*
X22580600Y-4968240D03*
D15*
X21628100Y-6388100D03*
X22186900Y-6388100D03*
X21628100Y-5918200D03*
X22186900Y-5918200D03*
X21628100Y-4914900D03*
X22186900Y-4914900D03*
X21628100Y-5384800D03*
X22186900Y-5384800D03*
D12*
X21399500Y-6426200D03*
X21247100Y-6426200D03*
X21209000Y-5295900D03*
X21361400Y-5295900D03*
D16*
X21240750Y-5613400D03*
X21240750Y-5486400D03*
X20593050Y-5486400D03*
X20593050Y-5613400D03*
X21240750Y-6248400D03*
X21240750Y-6121400D03*
X20593050Y-6121400D03*
X20593050Y-6248400D03*
D17*
X19431000Y-4862900D03*
X19431000Y-4712900D03*
X19291300Y-4862900D03*
X19291300Y-4712900D03*
D11*
X19367500Y-9525000D03*
X19494500Y-9525000D03*
X19621500Y-9525000D03*
X19748500Y-9525000D03*
X19875500Y-9525000D03*
X20002500Y-9525000D03*
X20129500Y-9525000D03*
X20256500Y-9525000D03*
X20256500Y-8509000D03*
X20129500Y-8509000D03*
X20002500Y-8509000D03*
X19875500Y-8509000D03*
X19748500Y-8509000D03*
X19621500Y-8509000D03*
X19494500Y-8509000D03*
X19367500Y-8509000D03*
D12*
X21005800Y-9652000D03*
X21158200Y-9652000D03*
X20624800Y-9652000D03*
X20777200Y-9652000D03*
X21005800Y-8382000D03*
X21158200Y-8382000D03*
X20624800Y-8382000D03*
X20777200Y-8382000D03*
D13*
X19431000Y-9982200D03*
X19431000Y-9829800D03*
X19634200Y-9982200D03*
X19634200Y-9829800D03*
X19837400Y-9982200D03*
X19837400Y-9829800D03*
X19939000Y-7924800D03*
X19939000Y-8077200D03*
X20193000Y-7924800D03*
X20193000Y-8077200D03*
X20447000Y-7924800D03*
X20447000Y-8077200D03*
X20701000Y-7924800D03*
X20701000Y-8077200D03*
X20955000Y-7924800D03*
X20955000Y-8077200D03*
X21209000Y-7924800D03*
X21209000Y-8077200D03*
D18*
X21948140Y-9779000D03*
X22349460Y-9779000D03*
X21948140Y-8255000D03*
X22349460Y-8255000D03*
D19*
X19494500Y-8210300D03*
X19494500Y-8020300D03*
X19342100Y-8210300D03*
X19342100Y-8020300D03*
D20*
X19763150Y-11839350D03*
X19763150Y-11904350D03*
X19763150Y-11969350D03*
X19763150Y-12034350D03*
X19763150Y-12099350D03*
X19763150Y-12164350D03*
X19763150Y-12229350D03*
X19763150Y-12294350D03*
X19763150Y-12359350D03*
X19763150Y-12424350D03*
X19763150Y-12489350D03*
X19763150Y-12554350D03*
X19763150Y-12619350D03*
X19763150Y-12684350D03*
X20483150Y-12684350D03*
X20483150Y-12619350D03*
X20483150Y-12554350D03*
X20483150Y-12489350D03*
X20483150Y-12424350D03*
X20483150Y-12359350D03*
X20483150Y-12294350D03*
X20483150Y-12229350D03*
X20483150Y-12164350D03*
X20483150Y-12099350D03*
X20483150Y-12034350D03*
X20483150Y-11969350D03*
X20483150Y-11904350D03*
X20483150Y-11839350D03*
D17*
X19443700Y-11482000D03*
X19443700Y-11632000D03*
X19570700Y-11482000D03*
X19570700Y-11632000D03*
D21*
X20816500Y-12395200D03*
X20966500Y-12395200D03*
X20816500Y-12255500D03*
X20966500Y-12255500D03*
D22*
X22018498Y-12852400D03*
X21618702Y-12852400D03*
D19*
X22237700Y-12337800D03*
X22237700Y-12147800D03*
D23*
X21019770Y-11925300D03*
X21169630Y-11925300D03*
X21019770Y-11747500D03*
X21169630Y-11747500D03*
D24*
X22085300Y-12142800D03*
X22085300Y-12342800D03*
D25*
X21337200Y-11925300D03*
X21487200Y-11925300D03*
X21337200Y-11747500D03*
X21487200Y-11747500D03*
X19328200Y-12166600D03*
X19178200Y-12166600D03*
X19328200Y-12026900D03*
X19178200Y-12026900D03*
X19328200Y-12446000D03*
X19178200Y-12446000D03*
X19328200Y-12306300D03*
X19178200Y-12306300D03*
X20966500Y-12712700D03*
X20816500Y-12712700D03*
X20966500Y-12560300D03*
X20816500Y-12560300D03*
D26*
X22377400Y-11913800D03*
X22377400Y-12063800D03*
X20523200Y-13006000D03*
X20523200Y-13156000D03*
X20675600Y-13006000D03*
X20675600Y-13156000D03*
X20370800Y-13006000D03*
X20370800Y-13156000D03*
D27*
X23075900Y-12326620D03*
X23075900Y-12158980D03*
D28*
X23075900Y-11951462D03*
X23075900Y-12534138D03*
D29*
X22846030Y-11996674D03*
X22846030Y-12488926D03*
D30*
X22809962Y-12372848D03*
X22809962Y-12307824D03*
X22809962Y-12242800D03*
X22809962Y-12177776D03*
X22809962Y-12112752D03*
M02*
