G04 #@! TF.FileFunction,Soldermask,Top*
%FSLAX46Y46*%
G04 Gerber Fmt 4.6, Leading zero omitted, Abs format (unit mm)*
G04 Created by KiCad (PCBNEW (2015-01-16 BZR 5376)-product) date 25/06/2015 00:16:14*
%MOMM*%
G01*
G04 APERTURE LIST*
%ADD10C,0.150000*%
%ADD11R,2.258000X0.958000*%
%ADD12R,2.032000X2.032000*%
%ADD13C,2.032000*%
%ADD14C,3.000000*%
%ADD15R,1.258000X1.308000*%
%ADD16R,1.308000X1.258000*%
%ADD17R,3.507740X2.009140*%
%ADD18R,1.258000X1.708000*%
%ADD19R,1.305560X1.305560*%
%ADD20R,1.758000X1.508000*%
%ADD21R,2.743200X2.743200*%
%ADD22R,1.008000X1.408000*%
%ADD23R,1.408000X1.008000*%
%ADD24R,2.405380X1.681480*%
%ADD25R,2.405380X2.882900*%
%ADD26R,2.608580X1.981200*%
%ADD27R,1.887220X0.957580*%
G04 APERTURE END LIST*
D10*
D11*
X94761500Y-54893500D03*
X94761500Y-55543500D03*
X94761500Y-56193500D03*
X94761500Y-56843500D03*
X94761500Y-57493500D03*
X94761500Y-58143500D03*
X94761500Y-58793500D03*
X94761500Y-59443500D03*
X94761500Y-60093500D03*
X94761500Y-60743500D03*
X94761500Y-61393500D03*
X94761500Y-62043500D03*
X94761500Y-62693500D03*
X94761500Y-63343500D03*
X101961500Y-63343500D03*
X101961500Y-62693500D03*
X101961500Y-62043500D03*
X101961500Y-61393500D03*
X101961500Y-60743500D03*
X101961500Y-60093500D03*
X101961500Y-59443500D03*
X101961500Y-58793500D03*
X101961500Y-58143500D03*
X101961500Y-57493500D03*
X101961500Y-56843500D03*
X101961500Y-56193500D03*
X101961500Y-55543500D03*
X101961500Y-54893500D03*
D12*
X109220000Y-45720000D03*
D13*
X111760000Y-45720000D03*
X114300000Y-45720000D03*
X116840000Y-45720000D03*
D12*
X99060000Y-45720000D03*
D13*
X101600000Y-45720000D03*
X104140000Y-45720000D03*
X106680000Y-45720000D03*
D12*
X88900000Y-45720000D03*
D13*
X91440000Y-45720000D03*
X93980000Y-45720000D03*
X96520000Y-45720000D03*
D12*
X109220000Y-72390000D03*
D13*
X111760000Y-72390000D03*
X114300000Y-72390000D03*
X116840000Y-72390000D03*
D12*
X99060000Y-72390000D03*
D13*
X101600000Y-72390000D03*
X104140000Y-72390000D03*
X106680000Y-72390000D03*
D12*
X88900000Y-72390000D03*
D13*
X91440000Y-72390000D03*
X93980000Y-72390000D03*
X96520000Y-72390000D03*
D12*
X86360000Y-55118000D03*
D13*
X86360000Y-57658000D03*
X86360000Y-60198000D03*
X86360000Y-62738000D03*
D14*
X86868000Y-49530000D03*
D15*
X91567000Y-51320000D03*
X91567000Y-52820000D03*
X92837000Y-51320000D03*
X92837000Y-52820000D03*
D16*
X105295000Y-60452000D03*
X106795000Y-60452000D03*
X105295000Y-59055000D03*
X106795000Y-59055000D03*
D17*
X117314980Y-65024000D03*
X113317020Y-65024000D03*
D18*
X119507000Y-59878000D03*
X119507000Y-57978000D03*
D19*
X107327700Y-55753000D03*
X108826300Y-55753000D03*
X107327700Y-53975000D03*
X108826300Y-53975000D03*
D20*
X117983000Y-57928000D03*
X117983000Y-59928000D03*
D21*
X96520000Y-69596000D03*
X93218000Y-69596000D03*
X89916000Y-69596000D03*
D22*
X110502000Y-55753000D03*
X112002000Y-55753000D03*
X110502000Y-53975000D03*
X112002000Y-53975000D03*
X90412000Y-58166000D03*
X88912000Y-58166000D03*
X90412000Y-56769000D03*
X88912000Y-56769000D03*
X90412000Y-60960000D03*
X88912000Y-60960000D03*
X90412000Y-59563000D03*
X88912000Y-59563000D03*
X106795000Y-63627000D03*
X105295000Y-63627000D03*
X106795000Y-62103000D03*
X105295000Y-62103000D03*
D23*
X120904000Y-55638000D03*
X120904000Y-57138000D03*
X102362000Y-66560000D03*
X102362000Y-68060000D03*
X103886000Y-66560000D03*
X103886000Y-68060000D03*
X100838000Y-66560000D03*
X100838000Y-68060000D03*
D24*
X127889000Y-59766200D03*
X127889000Y-58089800D03*
D25*
X127889000Y-56014620D03*
X127889000Y-61841380D03*
D26*
X125590300Y-56466740D03*
X125590300Y-61389260D03*
D27*
X125229620Y-60228480D03*
X125229620Y-59578240D03*
X125229620Y-58928000D03*
X125229620Y-58277760D03*
X125229620Y-57627520D03*
D21*
X93218000Y-66548000D03*
M02*
