G04 #@! TF.FileFunction,Copper,L4,Bot,Signal*
%FSLAX46Y46*%
G04 Gerber Fmt 4.6, Leading zero omitted, Abs format (unit mm)*
G04 Created by KiCad (PCBNEW (2015-01-16 BZR 5376)-product) date 25/06/2015 00:16:14*
%MOMM*%
G01*
G04 APERTURE LIST*
%ADD10C,0.150000*%
%ADD11R,1.524000X1.524000*%
%ADD12C,1.524000*%
%ADD13R,2.235200X2.235200*%
%ADD14C,0.800100*%
%ADD15C,0.254000*%
%ADD16C,0.508000*%
G04 APERTURE END LIST*
D10*
D11*
X109220000Y-45720000D03*
D12*
X111760000Y-45720000D03*
X114300000Y-45720000D03*
X116840000Y-45720000D03*
D11*
X99060000Y-45720000D03*
D12*
X101600000Y-45720000D03*
X104140000Y-45720000D03*
X106680000Y-45720000D03*
D11*
X88900000Y-45720000D03*
D12*
X91440000Y-45720000D03*
X93980000Y-45720000D03*
X96520000Y-45720000D03*
D11*
X109220000Y-72390000D03*
D12*
X111760000Y-72390000D03*
X114300000Y-72390000D03*
X116840000Y-72390000D03*
D11*
X99060000Y-72390000D03*
D12*
X101600000Y-72390000D03*
X104140000Y-72390000D03*
X106680000Y-72390000D03*
D11*
X88900000Y-72390000D03*
D12*
X91440000Y-72390000D03*
X93980000Y-72390000D03*
X96520000Y-72390000D03*
D11*
X86360000Y-55118000D03*
D12*
X86360000Y-57658000D03*
X86360000Y-60198000D03*
X86360000Y-62738000D03*
D13*
X96520000Y-69596000D03*
X93218000Y-69596000D03*
X89916000Y-69596000D03*
X93218000Y-66548000D03*
D14*
X120904000Y-54483000D03*
X119507000Y-56388000D03*
X123571000Y-55626000D03*
X123571000Y-56769000D03*
X100150500Y-61393500D03*
X100083500Y-59443500D03*
X94488000Y-52820000D03*
X108077000Y-59055000D03*
X108077000Y-60452000D03*
X119888000Y-65024000D03*
X96639500Y-58793500D03*
X100076000Y-56134000D03*
X99441000Y-56769000D03*
X102362000Y-65278000D03*
X109601000Y-62103000D03*
X121920000Y-60579000D03*
X110871000Y-61087000D03*
X121666000Y-58928000D03*
X99060000Y-60452000D03*
X113284000Y-55753000D03*
X113284000Y-53975000D03*
X100838000Y-69215000D03*
X103886000Y-69215000D03*
X102362000Y-69215000D03*
X96647000Y-56769000D03*
D15*
X100150500Y-61393500D02*
X100203000Y-61341000D01*
X100083500Y-59443500D02*
X100076000Y-59436000D01*
D16*
X94488000Y-52820000D02*
X94488000Y-52832000D01*
D15*
X96639500Y-58793500D02*
X96647000Y-58801000D01*
X120396000Y-62103000D02*
X109601000Y-62103000D01*
X121920000Y-60579000D02*
X120396000Y-62103000D01*
X119507000Y-61087000D02*
X110871000Y-61087000D01*
X121666000Y-58928000D02*
X119507000Y-61087000D01*
X116840000Y-72136000D02*
X116840000Y-72390000D01*
X89916000Y-66294000D02*
X91186000Y-65024000D01*
X91186000Y-65024000D02*
X91186000Y-63881000D01*
X91186000Y-63881000D02*
X94615000Y-60452000D01*
X94615000Y-60452000D02*
X99060000Y-60452000D01*
X89916000Y-69596000D02*
X89916000Y-66294000D01*
G36*
X118237000Y-74245470D02*
X84504530Y-74245470D01*
X84504530Y-43610530D01*
X90932000Y-43610530D01*
X118237000Y-43610530D01*
X118237000Y-45442753D01*
X118025010Y-44929697D01*
X117632370Y-44536371D01*
X117119100Y-44323243D01*
X116563339Y-44322758D01*
X116049697Y-44534990D01*
X115656371Y-44927630D01*
X115570050Y-45135512D01*
X115485010Y-44929697D01*
X115092370Y-44536371D01*
X114579100Y-44323243D01*
X114023339Y-44322758D01*
X113509697Y-44534990D01*
X113116371Y-44927630D01*
X113030050Y-45135512D01*
X112945010Y-44929697D01*
X112552370Y-44536371D01*
X112039100Y-44323243D01*
X111483339Y-44322758D01*
X110969697Y-44534990D01*
X110615892Y-44888177D01*
X110582463Y-44715877D01*
X110442673Y-44503073D01*
X110231640Y-44360623D01*
X109982000Y-44310560D01*
X108458000Y-44310560D01*
X108215877Y-44357537D01*
X108003073Y-44497327D01*
X107860623Y-44708360D01*
X107824395Y-44889011D01*
X107472370Y-44536371D01*
X106959100Y-44323243D01*
X106403339Y-44322758D01*
X105889697Y-44534990D01*
X105496371Y-44927630D01*
X105410050Y-45135512D01*
X105325010Y-44929697D01*
X104932370Y-44536371D01*
X104419100Y-44323243D01*
X103863339Y-44322758D01*
X103349697Y-44534990D01*
X102956371Y-44927630D01*
X102870050Y-45135512D01*
X102785010Y-44929697D01*
X102392370Y-44536371D01*
X101879100Y-44323243D01*
X101323339Y-44322758D01*
X100809697Y-44534990D01*
X100455892Y-44888177D01*
X100422463Y-44715877D01*
X100282673Y-44503073D01*
X100071640Y-44360623D01*
X99822000Y-44310560D01*
X98298000Y-44310560D01*
X98055877Y-44357537D01*
X97843073Y-44497327D01*
X97700623Y-44708360D01*
X97664395Y-44889011D01*
X97312370Y-44536371D01*
X96799100Y-44323243D01*
X96243339Y-44322758D01*
X95729697Y-44534990D01*
X95336371Y-44927630D01*
X95250050Y-45135512D01*
X95165010Y-44929697D01*
X94772370Y-44536371D01*
X94259100Y-44323243D01*
X93703339Y-44322758D01*
X93189697Y-44534990D01*
X92796371Y-44927630D01*
X92710050Y-45135512D01*
X92625010Y-44929697D01*
X92232370Y-44536371D01*
X91719100Y-44323243D01*
X91163339Y-44322758D01*
X90649697Y-44534990D01*
X90295892Y-44888177D01*
X90262463Y-44715877D01*
X90122673Y-44503073D01*
X89911640Y-44360623D01*
X89662000Y-44310560D01*
X88138000Y-44310560D01*
X87895877Y-44357537D01*
X87683073Y-44497327D01*
X87540623Y-44708360D01*
X87490560Y-44958000D01*
X87490560Y-46482000D01*
X87537537Y-46724123D01*
X87677327Y-46936927D01*
X87888360Y-47079377D01*
X88138000Y-47129440D01*
X89662000Y-47129440D01*
X89904123Y-47082463D01*
X90116927Y-46942673D01*
X90259377Y-46731640D01*
X90295604Y-46550988D01*
X90647630Y-46903629D01*
X91160900Y-47116757D01*
X91716661Y-47117242D01*
X92230303Y-46905010D01*
X92623629Y-46512370D01*
X92709949Y-46304487D01*
X92794990Y-46510303D01*
X93187630Y-46903629D01*
X93700900Y-47116757D01*
X94256661Y-47117242D01*
X94770303Y-46905010D01*
X95163629Y-46512370D01*
X95249949Y-46304487D01*
X95334990Y-46510303D01*
X95727630Y-46903629D01*
X96240900Y-47116757D01*
X96796661Y-47117242D01*
X97310303Y-46905010D01*
X97664107Y-46551822D01*
X97697537Y-46724123D01*
X97837327Y-46936927D01*
X98048360Y-47079377D01*
X98298000Y-47129440D01*
X99822000Y-47129440D01*
X100064123Y-47082463D01*
X100276927Y-46942673D01*
X100419377Y-46731640D01*
X100455604Y-46550988D01*
X100807630Y-46903629D01*
X101320900Y-47116757D01*
X101876661Y-47117242D01*
X102390303Y-46905010D01*
X102783629Y-46512370D01*
X102869949Y-46304487D01*
X102954990Y-46510303D01*
X103347630Y-46903629D01*
X103860900Y-47116757D01*
X104416661Y-47117242D01*
X104930303Y-46905010D01*
X105323629Y-46512370D01*
X105409949Y-46304487D01*
X105494990Y-46510303D01*
X105887630Y-46903629D01*
X106400900Y-47116757D01*
X106956661Y-47117242D01*
X107470303Y-46905010D01*
X107824107Y-46551822D01*
X107857537Y-46724123D01*
X107997327Y-46936927D01*
X108208360Y-47079377D01*
X108458000Y-47129440D01*
X109982000Y-47129440D01*
X110224123Y-47082463D01*
X110436927Y-46942673D01*
X110579377Y-46731640D01*
X110615604Y-46550988D01*
X110967630Y-46903629D01*
X111480900Y-47116757D01*
X112036661Y-47117242D01*
X112550303Y-46905010D01*
X112943629Y-46512370D01*
X113029949Y-46304487D01*
X113114990Y-46510303D01*
X113507630Y-46903629D01*
X114020900Y-47116757D01*
X114576661Y-47117242D01*
X115090303Y-46905010D01*
X115483629Y-46512370D01*
X115569949Y-46304487D01*
X115654990Y-46510303D01*
X116047630Y-46903629D01*
X116560900Y-47116757D01*
X117116661Y-47117242D01*
X117630303Y-46905010D01*
X118023629Y-46512370D01*
X118236757Y-45999100D01*
X118237000Y-45720646D01*
X118237000Y-60325000D01*
X111572834Y-60325000D01*
X111458074Y-60210039D01*
X111077787Y-60052130D01*
X110666019Y-60051771D01*
X110285457Y-60209016D01*
X109994039Y-60499926D01*
X109836130Y-60880213D01*
X109835955Y-61079826D01*
X109807787Y-61068130D01*
X109396019Y-61067771D01*
X109112229Y-61185030D01*
X109112229Y-60247019D01*
X108954984Y-59866457D01*
X108842282Y-59753558D01*
X108953961Y-59642074D01*
X109111870Y-59261787D01*
X109112229Y-58850019D01*
X108954984Y-58469457D01*
X108664074Y-58178039D01*
X108283787Y-58020130D01*
X107872019Y-58019771D01*
X107491457Y-58177016D01*
X107200039Y-58467926D01*
X107042130Y-58848213D01*
X107041771Y-59259981D01*
X107199016Y-59640543D01*
X107311717Y-59753441D01*
X107200039Y-59864926D01*
X107042130Y-60245213D01*
X107041771Y-60656981D01*
X107199016Y-61037543D01*
X107489926Y-61328961D01*
X107870213Y-61486870D01*
X108281981Y-61487229D01*
X108662543Y-61329984D01*
X108953961Y-61039074D01*
X109111870Y-60658787D01*
X109112229Y-60247019D01*
X109112229Y-61185030D01*
X109015457Y-61225016D01*
X108724039Y-61515926D01*
X108566130Y-61896213D01*
X108565771Y-62307981D01*
X108723016Y-62688543D01*
X109013926Y-62979961D01*
X109394213Y-63137870D01*
X109805981Y-63138229D01*
X110186543Y-62980984D01*
X110302729Y-62865000D01*
X118237000Y-62865000D01*
X118237000Y-72112753D01*
X118025010Y-71599697D01*
X117632370Y-71206371D01*
X117119100Y-70993243D01*
X116563339Y-70992758D01*
X116049697Y-71204990D01*
X115656371Y-71597630D01*
X115570050Y-71805512D01*
X115485010Y-71599697D01*
X115092370Y-71206371D01*
X114579100Y-70993243D01*
X114023339Y-70992758D01*
X113509697Y-71204990D01*
X113116371Y-71597630D01*
X113030050Y-71805512D01*
X112945010Y-71599697D01*
X112552370Y-71206371D01*
X112039100Y-70993243D01*
X111483339Y-70992758D01*
X110969697Y-71204990D01*
X110615892Y-71558177D01*
X110582463Y-71385877D01*
X110442673Y-71173073D01*
X110231640Y-71030623D01*
X109982000Y-70980560D01*
X108458000Y-70980560D01*
X108215877Y-71027537D01*
X108003073Y-71167327D01*
X107860623Y-71378360D01*
X107824395Y-71559011D01*
X107472370Y-71206371D01*
X106959100Y-70993243D01*
X106403339Y-70992758D01*
X105889697Y-71204990D01*
X105496371Y-71597630D01*
X105410050Y-71805512D01*
X105325010Y-71599697D01*
X104932370Y-71206371D01*
X104419100Y-70993243D01*
X103863339Y-70992758D01*
X103397229Y-71185350D01*
X103397229Y-65073019D01*
X103239984Y-64692457D01*
X102949074Y-64401039D01*
X102568787Y-64243130D01*
X102157019Y-64242771D01*
X101776457Y-64400016D01*
X101485039Y-64690926D01*
X101327130Y-65071213D01*
X101326771Y-65482981D01*
X101484016Y-65863543D01*
X101774926Y-66154961D01*
X102155213Y-66312870D01*
X102566981Y-66313229D01*
X102947543Y-66155984D01*
X103238961Y-65865074D01*
X103396870Y-65484787D01*
X103397229Y-65073019D01*
X103397229Y-71185350D01*
X103349697Y-71204990D01*
X102956371Y-71597630D01*
X102870050Y-71805512D01*
X102785010Y-71599697D01*
X102392370Y-71206371D01*
X101879100Y-70993243D01*
X101323339Y-70992758D01*
X100809697Y-71204990D01*
X100455892Y-71558177D01*
X100422463Y-71385877D01*
X100282673Y-71173073D01*
X100071640Y-71030623D01*
X99822000Y-70980560D01*
X98298000Y-70980560D01*
X98212026Y-70997240D01*
X98234977Y-70963240D01*
X98285040Y-70713600D01*
X98285040Y-68478400D01*
X98238063Y-68236277D01*
X98098273Y-68023473D01*
X97887240Y-67881023D01*
X97637600Y-67830960D01*
X95402400Y-67830960D01*
X95160277Y-67877937D01*
X94947473Y-68017727D01*
X94868931Y-68134082D01*
X94827662Y-68071258D01*
X94932977Y-67915240D01*
X94983040Y-67665600D01*
X94983040Y-65430400D01*
X94936063Y-65188277D01*
X94796273Y-64975473D01*
X94585240Y-64833023D01*
X94335600Y-64782960D01*
X92100400Y-64782960D01*
X91948000Y-64812528D01*
X91948000Y-64196630D01*
X94930630Y-61214000D01*
X98358165Y-61214000D01*
X98472926Y-61328961D01*
X98853213Y-61486870D01*
X99115368Y-61487098D01*
X99115271Y-61598481D01*
X99272516Y-61979043D01*
X99563426Y-62270461D01*
X99943713Y-62428370D01*
X100355481Y-62428729D01*
X100736043Y-62271484D01*
X101027461Y-61980574D01*
X101185370Y-61600287D01*
X101185729Y-61188519D01*
X101028484Y-60807957D01*
X100737574Y-60516539D01*
X100467941Y-60404577D01*
X100669043Y-60321484D01*
X100960461Y-60030574D01*
X101118370Y-59650287D01*
X101118729Y-59238519D01*
X101111229Y-59220367D01*
X101111229Y-55929019D01*
X100953984Y-55548457D01*
X100663074Y-55257039D01*
X100282787Y-55099130D01*
X99871019Y-55098771D01*
X99490457Y-55256016D01*
X99199039Y-55546926D01*
X99097727Y-55790912D01*
X98855457Y-55891016D01*
X98564039Y-56181926D01*
X98406130Y-56562213D01*
X98405771Y-56973981D01*
X98563016Y-57354543D01*
X98853926Y-57645961D01*
X99234213Y-57803870D01*
X99645981Y-57804229D01*
X100026543Y-57646984D01*
X100317961Y-57356074D01*
X100419272Y-57112087D01*
X100661543Y-57011984D01*
X100952961Y-56721074D01*
X101110870Y-56340787D01*
X101111229Y-55929019D01*
X101111229Y-59220367D01*
X100961484Y-58857957D01*
X100670574Y-58566539D01*
X100290287Y-58408630D01*
X99878519Y-58408271D01*
X99497957Y-58565516D01*
X99206539Y-58856426D01*
X99048630Y-59236713D01*
X99048472Y-59416939D01*
X98855019Y-59416771D01*
X98474457Y-59574016D01*
X98358270Y-59690000D01*
X97180230Y-59690000D01*
X97225043Y-59671484D01*
X97516461Y-59380574D01*
X97674370Y-59000287D01*
X97674729Y-58588519D01*
X97517484Y-58207957D01*
X97226574Y-57916539D01*
X96846287Y-57758630D01*
X96434519Y-57758271D01*
X96053957Y-57915516D01*
X95762539Y-58206426D01*
X95604630Y-58586713D01*
X95604271Y-58998481D01*
X95761516Y-59379043D01*
X96052426Y-59670461D01*
X96099481Y-59690000D01*
X95523229Y-59690000D01*
X95523229Y-52615019D01*
X95365984Y-52234457D01*
X95075074Y-51943039D01*
X94694787Y-51785130D01*
X94283019Y-51784771D01*
X93902457Y-51942016D01*
X93611039Y-52232926D01*
X93453130Y-52613213D01*
X93452771Y-53024981D01*
X93610016Y-53405543D01*
X93900926Y-53696961D01*
X94281213Y-53854870D01*
X94692981Y-53855229D01*
X95073543Y-53697984D01*
X95364961Y-53407074D01*
X95522870Y-53026787D01*
X95523229Y-52615019D01*
X95523229Y-59690000D01*
X94615000Y-59690000D01*
X94323395Y-59748004D01*
X94076184Y-59913185D01*
X90647185Y-63342185D01*
X90482004Y-63589395D01*
X90424000Y-63881000D01*
X90424000Y-64708369D01*
X89377185Y-65755185D01*
X89212004Y-66002395D01*
X89154000Y-66294000D01*
X89154000Y-67830960D01*
X88798400Y-67830960D01*
X88556277Y-67877937D01*
X88343473Y-68017727D01*
X88201023Y-68228760D01*
X88150960Y-68478400D01*
X88150960Y-70713600D01*
X88197937Y-70955723D01*
X88214252Y-70980560D01*
X88138000Y-70980560D01*
X87895877Y-71027537D01*
X87769440Y-71110592D01*
X87769440Y-55880000D01*
X87769440Y-54356000D01*
X87722463Y-54113877D01*
X87582673Y-53901073D01*
X87371640Y-53758623D01*
X87122000Y-53708560D01*
X85598000Y-53708560D01*
X85355877Y-53755537D01*
X85143073Y-53895327D01*
X85000623Y-54106360D01*
X84950560Y-54356000D01*
X84950560Y-55880000D01*
X84997537Y-56122123D01*
X85137327Y-56334927D01*
X85348360Y-56477377D01*
X85529011Y-56513604D01*
X85176371Y-56865630D01*
X84963243Y-57378900D01*
X84962758Y-57934661D01*
X85174990Y-58448303D01*
X85567630Y-58841629D01*
X85775512Y-58927949D01*
X85569697Y-59012990D01*
X85176371Y-59405630D01*
X84963243Y-59918900D01*
X84962758Y-60474661D01*
X85174990Y-60988303D01*
X85567630Y-61381629D01*
X85775512Y-61467949D01*
X85569697Y-61552990D01*
X85176371Y-61945630D01*
X84963243Y-62458900D01*
X84962758Y-63014661D01*
X85174990Y-63528303D01*
X85567630Y-63921629D01*
X86080900Y-64134757D01*
X86636661Y-64135242D01*
X87150303Y-63923010D01*
X87543629Y-63530370D01*
X87756757Y-63017100D01*
X87757242Y-62461339D01*
X87545010Y-61947697D01*
X87152370Y-61554371D01*
X86944487Y-61468050D01*
X87150303Y-61383010D01*
X87543629Y-60990370D01*
X87756757Y-60477100D01*
X87757242Y-59921339D01*
X87545010Y-59407697D01*
X87152370Y-59014371D01*
X86944487Y-58928050D01*
X87150303Y-58843010D01*
X87543629Y-58450370D01*
X87756757Y-57937100D01*
X87757242Y-57381339D01*
X87545010Y-56867697D01*
X87191822Y-56513892D01*
X87364123Y-56480463D01*
X87576927Y-56340673D01*
X87719377Y-56129640D01*
X87769440Y-55880000D01*
X87769440Y-71110592D01*
X87683073Y-71167327D01*
X87540623Y-71378360D01*
X87490560Y-71628000D01*
X87490560Y-73152000D01*
X87537537Y-73394123D01*
X87677327Y-73606927D01*
X87888360Y-73749377D01*
X88138000Y-73799440D01*
X89662000Y-73799440D01*
X89904123Y-73752463D01*
X90116927Y-73612673D01*
X90259377Y-73401640D01*
X90295604Y-73220988D01*
X90647630Y-73573629D01*
X91160900Y-73786757D01*
X91716661Y-73787242D01*
X92230303Y-73575010D01*
X92623629Y-73182370D01*
X92709949Y-72974487D01*
X92794990Y-73180303D01*
X93187630Y-73573629D01*
X93700900Y-73786757D01*
X94256661Y-73787242D01*
X94770303Y-73575010D01*
X95163629Y-73182370D01*
X95249949Y-72974487D01*
X95334990Y-73180303D01*
X95727630Y-73573629D01*
X96240900Y-73786757D01*
X96796661Y-73787242D01*
X97310303Y-73575010D01*
X97664107Y-73221822D01*
X97697537Y-73394123D01*
X97837327Y-73606927D01*
X98048360Y-73749377D01*
X98298000Y-73799440D01*
X99822000Y-73799440D01*
X100064123Y-73752463D01*
X100276927Y-73612673D01*
X100419377Y-73401640D01*
X100455604Y-73220988D01*
X100807630Y-73573629D01*
X101320900Y-73786757D01*
X101876661Y-73787242D01*
X102390303Y-73575010D01*
X102783629Y-73182370D01*
X102869949Y-72974487D01*
X102954990Y-73180303D01*
X103347630Y-73573629D01*
X103860900Y-73786757D01*
X104416661Y-73787242D01*
X104930303Y-73575010D01*
X105323629Y-73182370D01*
X105409949Y-72974487D01*
X105494990Y-73180303D01*
X105887630Y-73573629D01*
X106400900Y-73786757D01*
X106956661Y-73787242D01*
X107470303Y-73575010D01*
X107824107Y-73221822D01*
X107857537Y-73394123D01*
X107997327Y-73606927D01*
X108208360Y-73749377D01*
X108458000Y-73799440D01*
X109982000Y-73799440D01*
X110224123Y-73752463D01*
X110436927Y-73612673D01*
X110579377Y-73401640D01*
X110615604Y-73220988D01*
X110967630Y-73573629D01*
X111480900Y-73786757D01*
X112036661Y-73787242D01*
X112550303Y-73575010D01*
X112943629Y-73182370D01*
X113029949Y-72974487D01*
X113114990Y-73180303D01*
X113507630Y-73573629D01*
X114020900Y-73786757D01*
X114576661Y-73787242D01*
X115090303Y-73575010D01*
X115483629Y-73182370D01*
X115569949Y-72974487D01*
X115654990Y-73180303D01*
X116047630Y-73573629D01*
X116560900Y-73786757D01*
X117116661Y-73787242D01*
X117630303Y-73575010D01*
X118023629Y-73182370D01*
X118236757Y-72669100D01*
X118237000Y-72390646D01*
X118237000Y-74245470D01*
X118237000Y-74245470D01*
G37*
X118237000Y-74245470D02*
X84504530Y-74245470D01*
X84504530Y-43610530D01*
X90932000Y-43610530D01*
X118237000Y-43610530D01*
X118237000Y-45442753D01*
X118025010Y-44929697D01*
X117632370Y-44536371D01*
X117119100Y-44323243D01*
X116563339Y-44322758D01*
X116049697Y-44534990D01*
X115656371Y-44927630D01*
X115570050Y-45135512D01*
X115485010Y-44929697D01*
X115092370Y-44536371D01*
X114579100Y-44323243D01*
X114023339Y-44322758D01*
X113509697Y-44534990D01*
X113116371Y-44927630D01*
X113030050Y-45135512D01*
X112945010Y-44929697D01*
X112552370Y-44536371D01*
X112039100Y-44323243D01*
X111483339Y-44322758D01*
X110969697Y-44534990D01*
X110615892Y-44888177D01*
X110582463Y-44715877D01*
X110442673Y-44503073D01*
X110231640Y-44360623D01*
X109982000Y-44310560D01*
X108458000Y-44310560D01*
X108215877Y-44357537D01*
X108003073Y-44497327D01*
X107860623Y-44708360D01*
X107824395Y-44889011D01*
X107472370Y-44536371D01*
X106959100Y-44323243D01*
X106403339Y-44322758D01*
X105889697Y-44534990D01*
X105496371Y-44927630D01*
X105410050Y-45135512D01*
X105325010Y-44929697D01*
X104932370Y-44536371D01*
X104419100Y-44323243D01*
X103863339Y-44322758D01*
X103349697Y-44534990D01*
X102956371Y-44927630D01*
X102870050Y-45135512D01*
X102785010Y-44929697D01*
X102392370Y-44536371D01*
X101879100Y-44323243D01*
X101323339Y-44322758D01*
X100809697Y-44534990D01*
X100455892Y-44888177D01*
X100422463Y-44715877D01*
X100282673Y-44503073D01*
X100071640Y-44360623D01*
X99822000Y-44310560D01*
X98298000Y-44310560D01*
X98055877Y-44357537D01*
X97843073Y-44497327D01*
X97700623Y-44708360D01*
X97664395Y-44889011D01*
X97312370Y-44536371D01*
X96799100Y-44323243D01*
X96243339Y-44322758D01*
X95729697Y-44534990D01*
X95336371Y-44927630D01*
X95250050Y-45135512D01*
X95165010Y-44929697D01*
X94772370Y-44536371D01*
X94259100Y-44323243D01*
X93703339Y-44322758D01*
X93189697Y-44534990D01*
X92796371Y-44927630D01*
X92710050Y-45135512D01*
X92625010Y-44929697D01*
X92232370Y-44536371D01*
X91719100Y-44323243D01*
X91163339Y-44322758D01*
X90649697Y-44534990D01*
X90295892Y-44888177D01*
X90262463Y-44715877D01*
X90122673Y-44503073D01*
X89911640Y-44360623D01*
X89662000Y-44310560D01*
X88138000Y-44310560D01*
X87895877Y-44357537D01*
X87683073Y-44497327D01*
X87540623Y-44708360D01*
X87490560Y-44958000D01*
X87490560Y-46482000D01*
X87537537Y-46724123D01*
X87677327Y-46936927D01*
X87888360Y-47079377D01*
X88138000Y-47129440D01*
X89662000Y-47129440D01*
X89904123Y-47082463D01*
X90116927Y-46942673D01*
X90259377Y-46731640D01*
X90295604Y-46550988D01*
X90647630Y-46903629D01*
X91160900Y-47116757D01*
X91716661Y-47117242D01*
X92230303Y-46905010D01*
X92623629Y-46512370D01*
X92709949Y-46304487D01*
X92794990Y-46510303D01*
X93187630Y-46903629D01*
X93700900Y-47116757D01*
X94256661Y-47117242D01*
X94770303Y-46905010D01*
X95163629Y-46512370D01*
X95249949Y-46304487D01*
X95334990Y-46510303D01*
X95727630Y-46903629D01*
X96240900Y-47116757D01*
X96796661Y-47117242D01*
X97310303Y-46905010D01*
X97664107Y-46551822D01*
X97697537Y-46724123D01*
X97837327Y-46936927D01*
X98048360Y-47079377D01*
X98298000Y-47129440D01*
X99822000Y-47129440D01*
X100064123Y-47082463D01*
X100276927Y-46942673D01*
X100419377Y-46731640D01*
X100455604Y-46550988D01*
X100807630Y-46903629D01*
X101320900Y-47116757D01*
X101876661Y-47117242D01*
X102390303Y-46905010D01*
X102783629Y-46512370D01*
X102869949Y-46304487D01*
X102954990Y-46510303D01*
X103347630Y-46903629D01*
X103860900Y-47116757D01*
X104416661Y-47117242D01*
X104930303Y-46905010D01*
X105323629Y-46512370D01*
X105409949Y-46304487D01*
X105494990Y-46510303D01*
X105887630Y-46903629D01*
X106400900Y-47116757D01*
X106956661Y-47117242D01*
X107470303Y-46905010D01*
X107824107Y-46551822D01*
X107857537Y-46724123D01*
X107997327Y-46936927D01*
X108208360Y-47079377D01*
X108458000Y-47129440D01*
X109982000Y-47129440D01*
X110224123Y-47082463D01*
X110436927Y-46942673D01*
X110579377Y-46731640D01*
X110615604Y-46550988D01*
X110967630Y-46903629D01*
X111480900Y-47116757D01*
X112036661Y-47117242D01*
X112550303Y-46905010D01*
X112943629Y-46512370D01*
X113029949Y-46304487D01*
X113114990Y-46510303D01*
X113507630Y-46903629D01*
X114020900Y-47116757D01*
X114576661Y-47117242D01*
X115090303Y-46905010D01*
X115483629Y-46512370D01*
X115569949Y-46304487D01*
X115654990Y-46510303D01*
X116047630Y-46903629D01*
X116560900Y-47116757D01*
X117116661Y-47117242D01*
X117630303Y-46905010D01*
X118023629Y-46512370D01*
X118236757Y-45999100D01*
X118237000Y-45720646D01*
X118237000Y-60325000D01*
X111572834Y-60325000D01*
X111458074Y-60210039D01*
X111077787Y-60052130D01*
X110666019Y-60051771D01*
X110285457Y-60209016D01*
X109994039Y-60499926D01*
X109836130Y-60880213D01*
X109835955Y-61079826D01*
X109807787Y-61068130D01*
X109396019Y-61067771D01*
X109112229Y-61185030D01*
X109112229Y-60247019D01*
X108954984Y-59866457D01*
X108842282Y-59753558D01*
X108953961Y-59642074D01*
X109111870Y-59261787D01*
X109112229Y-58850019D01*
X108954984Y-58469457D01*
X108664074Y-58178039D01*
X108283787Y-58020130D01*
X107872019Y-58019771D01*
X107491457Y-58177016D01*
X107200039Y-58467926D01*
X107042130Y-58848213D01*
X107041771Y-59259981D01*
X107199016Y-59640543D01*
X107311717Y-59753441D01*
X107200039Y-59864926D01*
X107042130Y-60245213D01*
X107041771Y-60656981D01*
X107199016Y-61037543D01*
X107489926Y-61328961D01*
X107870213Y-61486870D01*
X108281981Y-61487229D01*
X108662543Y-61329984D01*
X108953961Y-61039074D01*
X109111870Y-60658787D01*
X109112229Y-60247019D01*
X109112229Y-61185030D01*
X109015457Y-61225016D01*
X108724039Y-61515926D01*
X108566130Y-61896213D01*
X108565771Y-62307981D01*
X108723016Y-62688543D01*
X109013926Y-62979961D01*
X109394213Y-63137870D01*
X109805981Y-63138229D01*
X110186543Y-62980984D01*
X110302729Y-62865000D01*
X118237000Y-62865000D01*
X118237000Y-72112753D01*
X118025010Y-71599697D01*
X117632370Y-71206371D01*
X117119100Y-70993243D01*
X116563339Y-70992758D01*
X116049697Y-71204990D01*
X115656371Y-71597630D01*
X115570050Y-71805512D01*
X115485010Y-71599697D01*
X115092370Y-71206371D01*
X114579100Y-70993243D01*
X114023339Y-70992758D01*
X113509697Y-71204990D01*
X113116371Y-71597630D01*
X113030050Y-71805512D01*
X112945010Y-71599697D01*
X112552370Y-71206371D01*
X112039100Y-70993243D01*
X111483339Y-70992758D01*
X110969697Y-71204990D01*
X110615892Y-71558177D01*
X110582463Y-71385877D01*
X110442673Y-71173073D01*
X110231640Y-71030623D01*
X109982000Y-70980560D01*
X108458000Y-70980560D01*
X108215877Y-71027537D01*
X108003073Y-71167327D01*
X107860623Y-71378360D01*
X107824395Y-71559011D01*
X107472370Y-71206371D01*
X106959100Y-70993243D01*
X106403339Y-70992758D01*
X105889697Y-71204990D01*
X105496371Y-71597630D01*
X105410050Y-71805512D01*
X105325010Y-71599697D01*
X104932370Y-71206371D01*
X104419100Y-70993243D01*
X103863339Y-70992758D01*
X103397229Y-71185350D01*
X103397229Y-65073019D01*
X103239984Y-64692457D01*
X102949074Y-64401039D01*
X102568787Y-64243130D01*
X102157019Y-64242771D01*
X101776457Y-64400016D01*
X101485039Y-64690926D01*
X101327130Y-65071213D01*
X101326771Y-65482981D01*
X101484016Y-65863543D01*
X101774926Y-66154961D01*
X102155213Y-66312870D01*
X102566981Y-66313229D01*
X102947543Y-66155984D01*
X103238961Y-65865074D01*
X103396870Y-65484787D01*
X103397229Y-65073019D01*
X103397229Y-71185350D01*
X103349697Y-71204990D01*
X102956371Y-71597630D01*
X102870050Y-71805512D01*
X102785010Y-71599697D01*
X102392370Y-71206371D01*
X101879100Y-70993243D01*
X101323339Y-70992758D01*
X100809697Y-71204990D01*
X100455892Y-71558177D01*
X100422463Y-71385877D01*
X100282673Y-71173073D01*
X100071640Y-71030623D01*
X99822000Y-70980560D01*
X98298000Y-70980560D01*
X98212026Y-70997240D01*
X98234977Y-70963240D01*
X98285040Y-70713600D01*
X98285040Y-68478400D01*
X98238063Y-68236277D01*
X98098273Y-68023473D01*
X97887240Y-67881023D01*
X97637600Y-67830960D01*
X95402400Y-67830960D01*
X95160277Y-67877937D01*
X94947473Y-68017727D01*
X94868931Y-68134082D01*
X94827662Y-68071258D01*
X94932977Y-67915240D01*
X94983040Y-67665600D01*
X94983040Y-65430400D01*
X94936063Y-65188277D01*
X94796273Y-64975473D01*
X94585240Y-64833023D01*
X94335600Y-64782960D01*
X92100400Y-64782960D01*
X91948000Y-64812528D01*
X91948000Y-64196630D01*
X94930630Y-61214000D01*
X98358165Y-61214000D01*
X98472926Y-61328961D01*
X98853213Y-61486870D01*
X99115368Y-61487098D01*
X99115271Y-61598481D01*
X99272516Y-61979043D01*
X99563426Y-62270461D01*
X99943713Y-62428370D01*
X100355481Y-62428729D01*
X100736043Y-62271484D01*
X101027461Y-61980574D01*
X101185370Y-61600287D01*
X101185729Y-61188519D01*
X101028484Y-60807957D01*
X100737574Y-60516539D01*
X100467941Y-60404577D01*
X100669043Y-60321484D01*
X100960461Y-60030574D01*
X101118370Y-59650287D01*
X101118729Y-59238519D01*
X101111229Y-59220367D01*
X101111229Y-55929019D01*
X100953984Y-55548457D01*
X100663074Y-55257039D01*
X100282787Y-55099130D01*
X99871019Y-55098771D01*
X99490457Y-55256016D01*
X99199039Y-55546926D01*
X99097727Y-55790912D01*
X98855457Y-55891016D01*
X98564039Y-56181926D01*
X98406130Y-56562213D01*
X98405771Y-56973981D01*
X98563016Y-57354543D01*
X98853926Y-57645961D01*
X99234213Y-57803870D01*
X99645981Y-57804229D01*
X100026543Y-57646984D01*
X100317961Y-57356074D01*
X100419272Y-57112087D01*
X100661543Y-57011984D01*
X100952961Y-56721074D01*
X101110870Y-56340787D01*
X101111229Y-55929019D01*
X101111229Y-59220367D01*
X100961484Y-58857957D01*
X100670574Y-58566539D01*
X100290287Y-58408630D01*
X99878519Y-58408271D01*
X99497957Y-58565516D01*
X99206539Y-58856426D01*
X99048630Y-59236713D01*
X99048472Y-59416939D01*
X98855019Y-59416771D01*
X98474457Y-59574016D01*
X98358270Y-59690000D01*
X97180230Y-59690000D01*
X97225043Y-59671484D01*
X97516461Y-59380574D01*
X97674370Y-59000287D01*
X97674729Y-58588519D01*
X97517484Y-58207957D01*
X97226574Y-57916539D01*
X96846287Y-57758630D01*
X96434519Y-57758271D01*
X96053957Y-57915516D01*
X95762539Y-58206426D01*
X95604630Y-58586713D01*
X95604271Y-58998481D01*
X95761516Y-59379043D01*
X96052426Y-59670461D01*
X96099481Y-59690000D01*
X95523229Y-59690000D01*
X95523229Y-52615019D01*
X95365984Y-52234457D01*
X95075074Y-51943039D01*
X94694787Y-51785130D01*
X94283019Y-51784771D01*
X93902457Y-51942016D01*
X93611039Y-52232926D01*
X93453130Y-52613213D01*
X93452771Y-53024981D01*
X93610016Y-53405543D01*
X93900926Y-53696961D01*
X94281213Y-53854870D01*
X94692981Y-53855229D01*
X95073543Y-53697984D01*
X95364961Y-53407074D01*
X95522870Y-53026787D01*
X95523229Y-52615019D01*
X95523229Y-59690000D01*
X94615000Y-59690000D01*
X94323395Y-59748004D01*
X94076184Y-59913185D01*
X90647185Y-63342185D01*
X90482004Y-63589395D01*
X90424000Y-63881000D01*
X90424000Y-64708369D01*
X89377185Y-65755185D01*
X89212004Y-66002395D01*
X89154000Y-66294000D01*
X89154000Y-67830960D01*
X88798400Y-67830960D01*
X88556277Y-67877937D01*
X88343473Y-68017727D01*
X88201023Y-68228760D01*
X88150960Y-68478400D01*
X88150960Y-70713600D01*
X88197937Y-70955723D01*
X88214252Y-70980560D01*
X88138000Y-70980560D01*
X87895877Y-71027537D01*
X87769440Y-71110592D01*
X87769440Y-55880000D01*
X87769440Y-54356000D01*
X87722463Y-54113877D01*
X87582673Y-53901073D01*
X87371640Y-53758623D01*
X87122000Y-53708560D01*
X85598000Y-53708560D01*
X85355877Y-53755537D01*
X85143073Y-53895327D01*
X85000623Y-54106360D01*
X84950560Y-54356000D01*
X84950560Y-55880000D01*
X84997537Y-56122123D01*
X85137327Y-56334927D01*
X85348360Y-56477377D01*
X85529011Y-56513604D01*
X85176371Y-56865630D01*
X84963243Y-57378900D01*
X84962758Y-57934661D01*
X85174990Y-58448303D01*
X85567630Y-58841629D01*
X85775512Y-58927949D01*
X85569697Y-59012990D01*
X85176371Y-59405630D01*
X84963243Y-59918900D01*
X84962758Y-60474661D01*
X85174990Y-60988303D01*
X85567630Y-61381629D01*
X85775512Y-61467949D01*
X85569697Y-61552990D01*
X85176371Y-61945630D01*
X84963243Y-62458900D01*
X84962758Y-63014661D01*
X85174990Y-63528303D01*
X85567630Y-63921629D01*
X86080900Y-64134757D01*
X86636661Y-64135242D01*
X87150303Y-63923010D01*
X87543629Y-63530370D01*
X87756757Y-63017100D01*
X87757242Y-62461339D01*
X87545010Y-61947697D01*
X87152370Y-61554371D01*
X86944487Y-61468050D01*
X87150303Y-61383010D01*
X87543629Y-60990370D01*
X87756757Y-60477100D01*
X87757242Y-59921339D01*
X87545010Y-59407697D01*
X87152370Y-59014371D01*
X86944487Y-58928050D01*
X87150303Y-58843010D01*
X87543629Y-58450370D01*
X87756757Y-57937100D01*
X87757242Y-57381339D01*
X87545010Y-56867697D01*
X87191822Y-56513892D01*
X87364123Y-56480463D01*
X87576927Y-56340673D01*
X87719377Y-56129640D01*
X87769440Y-55880000D01*
X87769440Y-71110592D01*
X87683073Y-71167327D01*
X87540623Y-71378360D01*
X87490560Y-71628000D01*
X87490560Y-73152000D01*
X87537537Y-73394123D01*
X87677327Y-73606927D01*
X87888360Y-73749377D01*
X88138000Y-73799440D01*
X89662000Y-73799440D01*
X89904123Y-73752463D01*
X90116927Y-73612673D01*
X90259377Y-73401640D01*
X90295604Y-73220988D01*
X90647630Y-73573629D01*
X91160900Y-73786757D01*
X91716661Y-73787242D01*
X92230303Y-73575010D01*
X92623629Y-73182370D01*
X92709949Y-72974487D01*
X92794990Y-73180303D01*
X93187630Y-73573629D01*
X93700900Y-73786757D01*
X94256661Y-73787242D01*
X94770303Y-73575010D01*
X95163629Y-73182370D01*
X95249949Y-72974487D01*
X95334990Y-73180303D01*
X95727630Y-73573629D01*
X96240900Y-73786757D01*
X96796661Y-73787242D01*
X97310303Y-73575010D01*
X97664107Y-73221822D01*
X97697537Y-73394123D01*
X97837327Y-73606927D01*
X98048360Y-73749377D01*
X98298000Y-73799440D01*
X99822000Y-73799440D01*
X100064123Y-73752463D01*
X100276927Y-73612673D01*
X100419377Y-73401640D01*
X100455604Y-73220988D01*
X100807630Y-73573629D01*
X101320900Y-73786757D01*
X101876661Y-73787242D01*
X102390303Y-73575010D01*
X102783629Y-73182370D01*
X102869949Y-72974487D01*
X102954990Y-73180303D01*
X103347630Y-73573629D01*
X103860900Y-73786757D01*
X104416661Y-73787242D01*
X104930303Y-73575010D01*
X105323629Y-73182370D01*
X105409949Y-72974487D01*
X105494990Y-73180303D01*
X105887630Y-73573629D01*
X106400900Y-73786757D01*
X106956661Y-73787242D01*
X107470303Y-73575010D01*
X107824107Y-73221822D01*
X107857537Y-73394123D01*
X107997327Y-73606927D01*
X108208360Y-73749377D01*
X108458000Y-73799440D01*
X109982000Y-73799440D01*
X110224123Y-73752463D01*
X110436927Y-73612673D01*
X110579377Y-73401640D01*
X110615604Y-73220988D01*
X110967630Y-73573629D01*
X111480900Y-73786757D01*
X112036661Y-73787242D01*
X112550303Y-73575010D01*
X112943629Y-73182370D01*
X113029949Y-72974487D01*
X113114990Y-73180303D01*
X113507630Y-73573629D01*
X114020900Y-73786757D01*
X114576661Y-73787242D01*
X115090303Y-73575010D01*
X115483629Y-73182370D01*
X115569949Y-72974487D01*
X115654990Y-73180303D01*
X116047630Y-73573629D01*
X116560900Y-73786757D01*
X117116661Y-73787242D01*
X117630303Y-73575010D01*
X118023629Y-73182370D01*
X118236757Y-72669100D01*
X118237000Y-72390646D01*
X118237000Y-74245470D01*
M02*
