G04 #@! TF.FileFunction,Paste,Top*
%FSLAX46Y46*%
G04 Gerber Fmt 4.6, Leading zero omitted, Abs format (unit mm)*
G04 Created by KiCad (PCBNEW (2015-01-16 BZR 5376)-product) date 25/06/2015 00:16:14*
%MOMM*%
G01*
G04 APERTURE LIST*
%ADD10C,0.150000*%
%ADD11R,1.750000X0.450000*%
%ADD12R,0.750000X0.800000*%
%ADD13R,0.800000X0.750000*%
%ADD14R,2.999740X1.501140*%
%ADD15R,0.750000X1.200000*%
%ADD16R,0.797560X0.797560*%
%ADD17R,1.250000X1.000000*%
%ADD18R,0.500000X0.900000*%
%ADD19R,0.900000X0.500000*%
%ADD20R,1.897380X1.173480*%
%ADD21R,1.897380X2.374900*%
%ADD22R,2.100580X1.473200*%
%ADD23R,1.379220X0.449580*%
G04 APERTURE END LIST*
D10*
D11*
X94761500Y-54893500D03*
X94761500Y-55543500D03*
X94761500Y-56193500D03*
X94761500Y-56843500D03*
X94761500Y-57493500D03*
X94761500Y-58143500D03*
X94761500Y-58793500D03*
X94761500Y-59443500D03*
X94761500Y-60093500D03*
X94761500Y-60743500D03*
X94761500Y-61393500D03*
X94761500Y-62043500D03*
X94761500Y-62693500D03*
X94761500Y-63343500D03*
X101961500Y-63343500D03*
X101961500Y-62693500D03*
X101961500Y-62043500D03*
X101961500Y-61393500D03*
X101961500Y-60743500D03*
X101961500Y-60093500D03*
X101961500Y-59443500D03*
X101961500Y-58793500D03*
X101961500Y-58143500D03*
X101961500Y-57493500D03*
X101961500Y-56843500D03*
X101961500Y-56193500D03*
X101961500Y-55543500D03*
X101961500Y-54893500D03*
D12*
X91567000Y-51320000D03*
X91567000Y-52820000D03*
X92837000Y-51320000D03*
X92837000Y-52820000D03*
D13*
X105295000Y-60452000D03*
X106795000Y-60452000D03*
X105295000Y-59055000D03*
X106795000Y-59055000D03*
D14*
X117314980Y-65024000D03*
X113317020Y-65024000D03*
D15*
X119507000Y-59878000D03*
X119507000Y-57978000D03*
D16*
X107327700Y-55753000D03*
X108826300Y-55753000D03*
X107327700Y-53975000D03*
X108826300Y-53975000D03*
D17*
X117983000Y-57928000D03*
X117983000Y-59928000D03*
D18*
X110502000Y-55753000D03*
X112002000Y-55753000D03*
X110502000Y-53975000D03*
X112002000Y-53975000D03*
X90412000Y-58166000D03*
X88912000Y-58166000D03*
X90412000Y-56769000D03*
X88912000Y-56769000D03*
X90412000Y-60960000D03*
X88912000Y-60960000D03*
X90412000Y-59563000D03*
X88912000Y-59563000D03*
X106795000Y-63627000D03*
X105295000Y-63627000D03*
X106795000Y-62103000D03*
X105295000Y-62103000D03*
D19*
X120904000Y-55638000D03*
X120904000Y-57138000D03*
X102362000Y-66560000D03*
X102362000Y-68060000D03*
X103886000Y-66560000D03*
X103886000Y-68060000D03*
X100838000Y-66560000D03*
X100838000Y-68060000D03*
D20*
X127889000Y-59766200D03*
X127889000Y-58089800D03*
D21*
X127889000Y-56014620D03*
X127889000Y-61841380D03*
D22*
X125590300Y-56466740D03*
X125590300Y-61389260D03*
D23*
X125229620Y-60228480D03*
X125229620Y-59578240D03*
X125229620Y-58928000D03*
X125229620Y-58277760D03*
X125229620Y-57627520D03*
M02*
