M48
;DRILL file {kicad (2015-01-16 BZR 5376)-product} date 25/06/2015 00:16:17
;FORMAT={-:-/ absolute / metric / decimal}
FMAT,2
METRIC,TZ
T1C0.500
T2C1.016
T3C3.500
%
G90
G05
M71
T1
X94.488Y-52.82
X96.639Y-58.793
X96.647Y-56.769
X99.06Y-60.452
X99.441Y-56.769
X100.076Y-56.134
X100.084Y-59.444
X100.15Y-61.393
X100.838Y-69.215
X102.362Y-65.278
X102.362Y-69.215
X103.886Y-69.215
X108.077Y-59.055
X108.077Y-60.452
X109.601Y-62.103
X110.871Y-61.087
X113.284Y-53.975
X113.284Y-55.753
X119.507Y-56.388
X119.888Y-65.024
X120.904Y-54.483
X121.666Y-58.928
X121.92Y-60.579
X123.571Y-55.626
X123.571Y-56.769
T2
X86.36Y-55.118
X86.36Y-57.658
X86.36Y-60.198
X86.36Y-62.738
X88.9Y-45.72
X88.9Y-72.39
X89.916Y-69.596
X91.44Y-45.72
X91.44Y-72.39
X93.218Y-66.548
X93.218Y-69.596
X93.98Y-45.72
X93.98Y-72.39
X96.52Y-45.72
X96.52Y-69.596
X96.52Y-72.39
X99.06Y-45.72
X99.06Y-72.39
X101.6Y-45.72
X101.6Y-72.39
X104.14Y-45.72
X104.14Y-72.39
X106.68Y-45.72
X106.68Y-72.39
X109.22Y-45.72
X109.22Y-72.39
X111.76Y-45.72
X111.76Y-72.39
X114.3Y-45.72
X114.3Y-72.39
X116.84Y-45.72
X116.84Y-72.39
T3
X125.222Y-47.244
X125.222Y-70.612
T0
M30
