G04 #@! TF.FileFunction,Legend,Top*
%FSLAX46Y46*%
G04 Gerber Fmt 4.6, Leading zero omitted, Abs format (unit mm)*
G04 Created by KiCad (PCBNEW (2015-01-16 BZR 5376)-product) date 25/06/2015 00:16:14*
%MOMM*%
G01*
G04 APERTURE LIST*
%ADD10C,0.150000*%
%ADD11C,1.000000*%
%ADD12C,0.254000*%
%ADD13C,0.200660*%
%ADD14C,0.203200*%
%ADD15C,0.099060*%
%ADD16R,2.258000X0.958000*%
%ADD17R,2.032000X2.032000*%
%ADD18C,2.032000*%
%ADD19C,3.000000*%
%ADD20R,1.258000X1.308000*%
%ADD21R,1.308000X1.258000*%
%ADD22R,3.507740X2.009140*%
%ADD23R,1.258000X1.708000*%
%ADD24R,1.305560X1.305560*%
%ADD25R,1.758000X1.508000*%
%ADD26R,2.743200X2.743200*%
%ADD27R,1.008000X1.408000*%
%ADD28R,1.408000X1.008000*%
%ADD29R,2.405380X1.681480*%
%ADD30R,2.405380X2.882900*%
%ADD31R,2.608580X1.981200*%
%ADD32R,1.887220X0.957580*%
G04 APERTURE END LIST*
D10*
D11*
X108204000Y-47625000D02*
G75*
G03X108204000Y-47625000I-127000J0D01*
G01*
X97917000Y-47752000D02*
G75*
G03X97917000Y-47752000I-127000J0D01*
G01*
X86614000Y-46609000D02*
G75*
G03X86614000Y-46609000I-127000J0D01*
G01*
X88773000Y-54356000D02*
G75*
G03X88773000Y-54356000I-127000J0D01*
G01*
X89535000Y-64897000D02*
G75*
G03X89535000Y-64897000I-127000J0D01*
G01*
X109220000Y-69850000D02*
G75*
G03X109220000Y-69850000I-127000J0D01*
G01*
X98806000Y-69977000D02*
G75*
G03X98806000Y-69977000I-127000J0D01*
G01*
X87503000Y-69723000D02*
G75*
G03X87503000Y-69723000I-127000J0D01*
G01*
D10*
X95486500Y-53793500D02*
X95486500Y-54443500D01*
X101236500Y-53793500D02*
X101236500Y-54443500D01*
X101236500Y-64443500D02*
X101236500Y-63793500D01*
X95486500Y-64443500D02*
X95486500Y-63793500D01*
X95486500Y-53793500D02*
X101236500Y-53793500D01*
X95486500Y-64443500D02*
X101236500Y-64443500D01*
X95486500Y-54443500D02*
X93886500Y-54443500D01*
D12*
X118110000Y-46990000D02*
X107950000Y-46990000D01*
X118110000Y-44450000D02*
X107950000Y-44450000D01*
X107950000Y-44450000D02*
X107950000Y-46990000D01*
X118110000Y-46990000D02*
X118110000Y-44450000D01*
X107950000Y-46990000D02*
X97790000Y-46990000D01*
X107950000Y-44450000D02*
X97790000Y-44450000D01*
X97790000Y-44450000D02*
X97790000Y-46990000D01*
X107950000Y-46990000D02*
X107950000Y-44450000D01*
X97790000Y-46990000D02*
X87630000Y-46990000D01*
X97790000Y-44450000D02*
X87630000Y-44450000D01*
X87630000Y-44450000D02*
X87630000Y-46990000D01*
X97790000Y-46990000D02*
X97790000Y-44450000D01*
X118110000Y-73660000D02*
X107950000Y-73660000D01*
X118110000Y-71120000D02*
X107950000Y-71120000D01*
X107950000Y-71120000D02*
X107950000Y-73660000D01*
X118110000Y-73660000D02*
X118110000Y-71120000D01*
X107950000Y-73660000D02*
X97790000Y-73660000D01*
X107950000Y-71120000D02*
X97790000Y-71120000D01*
X97790000Y-71120000D02*
X97790000Y-73660000D01*
X107950000Y-73660000D02*
X107950000Y-71120000D01*
X97790000Y-73660000D02*
X87630000Y-73660000D01*
X97790000Y-71120000D02*
X87630000Y-71120000D01*
X87630000Y-71120000D02*
X87630000Y-73660000D01*
X97790000Y-73660000D02*
X97790000Y-71120000D01*
X85090000Y-64008000D02*
X85090000Y-53848000D01*
X87630000Y-64008000D02*
X87630000Y-53848000D01*
X87630000Y-53848000D02*
X85090000Y-53848000D01*
X85090000Y-64008000D02*
X87630000Y-64008000D01*
D10*
X92167000Y-51720000D02*
X92167000Y-52420000D01*
X90967000Y-52420000D02*
X90967000Y-51720000D01*
X93437000Y-51720000D02*
X93437000Y-52420000D01*
X92237000Y-52420000D02*
X92237000Y-51720000D01*
X105695000Y-59852000D02*
X106395000Y-59852000D01*
X106395000Y-61052000D02*
X105695000Y-61052000D01*
X105695000Y-58455000D02*
X106395000Y-58455000D01*
X106395000Y-59655000D02*
X105695000Y-59655000D01*
X112715040Y-66222880D02*
X117916960Y-66222880D01*
X117916960Y-63825120D02*
X112715040Y-63825120D01*
X110716060Y-62725300D02*
X110716060Y-63825120D01*
X110116620Y-63225680D02*
X111315500Y-63225680D01*
X111320580Y-63825120D02*
X111320580Y-66222880D01*
X118907000Y-59278000D02*
X118907000Y-58578000D01*
X120107000Y-58578000D02*
X120107000Y-59278000D01*
X108526580Y-56202580D02*
X108526580Y-55303420D01*
X108526580Y-55303420D02*
X108925360Y-55303420D01*
X108925360Y-56202580D02*
X108925360Y-55303420D01*
X108526580Y-56202580D02*
X108925360Y-56202580D01*
X107228640Y-56202580D02*
X107228640Y-55303420D01*
X107228640Y-55303420D02*
X107627420Y-55303420D01*
X107627420Y-56202580D02*
X107627420Y-55303420D01*
X107228640Y-56202580D02*
X107627420Y-56202580D01*
X108077000Y-56202580D02*
X108077000Y-56052720D01*
X108077000Y-56052720D02*
X108376720Y-56052720D01*
X108376720Y-56202580D02*
X108376720Y-56052720D01*
X108077000Y-56202580D02*
X108376720Y-56202580D01*
X108077000Y-55453280D02*
X108077000Y-55303420D01*
X108077000Y-55303420D02*
X108376720Y-55303420D01*
X108376720Y-55453280D02*
X108376720Y-55303420D01*
X108077000Y-55453280D02*
X108376720Y-55453280D01*
X108077000Y-55902860D02*
X108077000Y-55603140D01*
X108077000Y-55603140D02*
X108376720Y-55603140D01*
X108376720Y-55902860D02*
X108376720Y-55603140D01*
X108077000Y-55902860D02*
X108376720Y-55902860D01*
X108526580Y-56151780D02*
X107627420Y-56151780D01*
X108526580Y-55354220D02*
X107627420Y-55354220D01*
X108526580Y-54424580D02*
X108526580Y-53525420D01*
X108526580Y-53525420D02*
X108925360Y-53525420D01*
X108925360Y-54424580D02*
X108925360Y-53525420D01*
X108526580Y-54424580D02*
X108925360Y-54424580D01*
X107228640Y-54424580D02*
X107228640Y-53525420D01*
X107228640Y-53525420D02*
X107627420Y-53525420D01*
X107627420Y-54424580D02*
X107627420Y-53525420D01*
X107228640Y-54424580D02*
X107627420Y-54424580D01*
X108077000Y-54424580D02*
X108077000Y-54274720D01*
X108077000Y-54274720D02*
X108376720Y-54274720D01*
X108376720Y-54424580D02*
X108376720Y-54274720D01*
X108077000Y-54424580D02*
X108376720Y-54424580D01*
X108077000Y-53675280D02*
X108077000Y-53525420D01*
X108077000Y-53525420D02*
X108376720Y-53525420D01*
X108376720Y-53675280D02*
X108376720Y-53525420D01*
X108077000Y-53675280D02*
X108376720Y-53675280D01*
X108077000Y-54124860D02*
X108077000Y-53825140D01*
X108077000Y-53825140D02*
X108376720Y-53825140D01*
X108376720Y-54124860D02*
X108376720Y-53825140D01*
X108077000Y-54124860D02*
X108376720Y-54124860D01*
X108526580Y-54373780D02*
X107627420Y-54373780D01*
X108526580Y-53576220D02*
X107627420Y-53576220D01*
X118833000Y-59428000D02*
X118833000Y-58428000D01*
X117133000Y-58428000D02*
X117133000Y-59428000D01*
X98070000Y-68046000D02*
X98070000Y-69596000D01*
X94970000Y-69596000D02*
X94970000Y-68046000D01*
X94970000Y-68046000D02*
X98070000Y-68046000D01*
X95250000Y-70866000D02*
X97790000Y-70866000D01*
X94768000Y-68046000D02*
X94768000Y-69596000D01*
X91668000Y-69596000D02*
X91668000Y-68046000D01*
X91668000Y-68046000D02*
X94768000Y-68046000D01*
X91948000Y-70866000D02*
X94488000Y-70866000D01*
X91466000Y-68046000D02*
X91466000Y-69596000D01*
X88366000Y-69596000D02*
X88366000Y-68046000D01*
X88366000Y-68046000D02*
X91466000Y-68046000D01*
X88646000Y-70866000D02*
X91186000Y-70866000D01*
X111752000Y-56428000D02*
X110752000Y-56428000D01*
X110752000Y-55078000D02*
X111752000Y-55078000D01*
X111752000Y-54650000D02*
X110752000Y-54650000D01*
X110752000Y-53300000D02*
X111752000Y-53300000D01*
X89162000Y-57491000D02*
X90162000Y-57491000D01*
X90162000Y-58841000D02*
X89162000Y-58841000D01*
X89162000Y-56094000D02*
X90162000Y-56094000D01*
X90162000Y-57444000D02*
X89162000Y-57444000D01*
X89162000Y-60285000D02*
X90162000Y-60285000D01*
X90162000Y-61635000D02*
X89162000Y-61635000D01*
X89162000Y-58888000D02*
X90162000Y-58888000D01*
X90162000Y-60238000D02*
X89162000Y-60238000D01*
X105545000Y-62952000D02*
X106545000Y-62952000D01*
X106545000Y-64302000D02*
X105545000Y-64302000D01*
X105545000Y-61428000D02*
X106545000Y-61428000D01*
X106545000Y-62778000D02*
X105545000Y-62778000D01*
X120229000Y-56888000D02*
X120229000Y-55888000D01*
X121579000Y-55888000D02*
X121579000Y-56888000D01*
X101687000Y-67810000D02*
X101687000Y-66810000D01*
X103037000Y-66810000D02*
X103037000Y-67810000D01*
X103211000Y-67810000D02*
X103211000Y-66810000D01*
X104561000Y-66810000D02*
X104561000Y-67810000D01*
X100163000Y-67810000D02*
X100163000Y-66810000D01*
X101513000Y-66810000D02*
X101513000Y-67810000D01*
D13*
X129887980Y-63129160D02*
X129887980Y-54726840D01*
X129989580Y-63129160D02*
X129989580Y-54726840D01*
X129989580Y-54726840D02*
X129788920Y-54726840D01*
X129788920Y-54726840D02*
X129788920Y-63129160D01*
X129788920Y-63129160D02*
X129989580Y-63129160D01*
X129989580Y-62826900D02*
X124988320Y-62826900D01*
X124988320Y-62826900D02*
X124988320Y-55029100D01*
X124988320Y-55029100D02*
X129989580Y-55029100D01*
D10*
X94768000Y-64998000D02*
X94768000Y-66548000D01*
X91668000Y-66548000D02*
X91668000Y-64998000D01*
X91668000Y-64998000D02*
X94768000Y-64998000D01*
X91948000Y-67818000D02*
X94488000Y-67818000D01*
X97599595Y-52320881D02*
X97599595Y-53130405D01*
X97647214Y-53225643D01*
X97694833Y-53273262D01*
X97790071Y-53320881D01*
X97980548Y-53320881D01*
X98075786Y-53273262D01*
X98123405Y-53225643D01*
X98171024Y-53130405D01*
X98171024Y-52320881D01*
X99171024Y-53320881D02*
X98599595Y-53320881D01*
X98885309Y-53320881D02*
X98885309Y-52320881D01*
X98790071Y-52463738D01*
X98694833Y-52558976D01*
X98599595Y-52606595D01*
D14*
X121297096Y-44909619D02*
X121297096Y-43893619D01*
X121684143Y-43893619D01*
X121780905Y-43942000D01*
X121829286Y-43990381D01*
X121877667Y-44087143D01*
X121877667Y-44232286D01*
X121829286Y-44329048D01*
X121780905Y-44377429D01*
X121684143Y-44425810D01*
X121297096Y-44425810D01*
X122216334Y-43893619D02*
X122893667Y-43893619D01*
X122458239Y-44909619D01*
X119011096Y-44909619D02*
X119011096Y-43893619D01*
X119398143Y-43893619D01*
X119494905Y-43942000D01*
X119543286Y-43990381D01*
X119591667Y-44087143D01*
X119591667Y-44232286D01*
X119543286Y-44329048D01*
X119494905Y-44377429D01*
X119398143Y-44425810D01*
X119011096Y-44425810D01*
X120462524Y-43893619D02*
X120269001Y-43893619D01*
X120172239Y-43942000D01*
X120123858Y-43990381D01*
X120027096Y-44135524D01*
X119978715Y-44329048D01*
X119978715Y-44716095D01*
X120027096Y-44812857D01*
X120075477Y-44861238D01*
X120172239Y-44909619D01*
X120365762Y-44909619D01*
X120462524Y-44861238D01*
X120510905Y-44812857D01*
X120559286Y-44716095D01*
X120559286Y-44474190D01*
X120510905Y-44377429D01*
X120462524Y-44329048D01*
X120365762Y-44280667D01*
X120172239Y-44280667D01*
X120075477Y-44329048D01*
X120027096Y-44377429D01*
X119978715Y-44474190D01*
X85356096Y-45544619D02*
X85356096Y-44528619D01*
X85743143Y-44528619D01*
X85839905Y-44577000D01*
X85888286Y-44625381D01*
X85936667Y-44722143D01*
X85936667Y-44867286D01*
X85888286Y-44964048D01*
X85839905Y-45012429D01*
X85743143Y-45060810D01*
X85356096Y-45060810D01*
X86855905Y-44528619D02*
X86372096Y-44528619D01*
X86323715Y-45012429D01*
X86372096Y-44964048D01*
X86468858Y-44915667D01*
X86710762Y-44915667D01*
X86807524Y-44964048D01*
X86855905Y-45012429D01*
X86904286Y-45109190D01*
X86904286Y-45351095D01*
X86855905Y-45447857D01*
X86807524Y-45496238D01*
X86710762Y-45544619D01*
X86468858Y-45544619D01*
X86372096Y-45496238D01*
X86323715Y-45447857D01*
X118630096Y-72976619D02*
X118630096Y-71960619D01*
X119017143Y-71960619D01*
X119113905Y-72009000D01*
X119162286Y-72057381D01*
X119210667Y-72154143D01*
X119210667Y-72299286D01*
X119162286Y-72396048D01*
X119113905Y-72444429D01*
X119017143Y-72492810D01*
X118630096Y-72492810D01*
X120081524Y-72299286D02*
X120081524Y-72976619D01*
X119839620Y-71912238D02*
X119597715Y-72637952D01*
X120226667Y-72637952D01*
X102501096Y-70563619D02*
X102501096Y-69547619D01*
X102888143Y-69547619D01*
X102984905Y-69596000D01*
X103033286Y-69644381D01*
X103081667Y-69741143D01*
X103081667Y-69886286D01*
X103033286Y-69983048D01*
X102984905Y-70031429D01*
X102888143Y-70079810D01*
X102501096Y-70079810D01*
X103420334Y-69547619D02*
X104049286Y-69547619D01*
X103710620Y-69934667D01*
X103855762Y-69934667D01*
X103952524Y-69983048D01*
X104000905Y-70031429D01*
X104049286Y-70128190D01*
X104049286Y-70370095D01*
X104000905Y-70466857D01*
X103952524Y-70515238D01*
X103855762Y-70563619D01*
X103565477Y-70563619D01*
X103468715Y-70515238D01*
X103420334Y-70466857D01*
X85483096Y-72976619D02*
X85483096Y-71960619D01*
X85870143Y-71960619D01*
X85966905Y-72009000D01*
X86015286Y-72057381D01*
X86063667Y-72154143D01*
X86063667Y-72299286D01*
X86015286Y-72396048D01*
X85966905Y-72444429D01*
X85870143Y-72492810D01*
X85483096Y-72492810D01*
X86450715Y-72057381D02*
X86499096Y-72009000D01*
X86595858Y-71960619D01*
X86837762Y-71960619D01*
X86934524Y-72009000D01*
X86982905Y-72057381D01*
X87031286Y-72154143D01*
X87031286Y-72250905D01*
X86982905Y-72396048D01*
X86402334Y-72976619D01*
X87031286Y-72976619D01*
X85737096Y-65610619D02*
X85737096Y-64594619D01*
X86124143Y-64594619D01*
X86220905Y-64643000D01*
X86269286Y-64691381D01*
X86317667Y-64788143D01*
X86317667Y-64933286D01*
X86269286Y-65030048D01*
X86220905Y-65078429D01*
X86124143Y-65126810D01*
X85737096Y-65126810D01*
X87285286Y-65610619D02*
X86704715Y-65610619D01*
X86995001Y-65610619D02*
X86995001Y-64594619D01*
X86898239Y-64739762D01*
X86801477Y-64836524D01*
X86704715Y-64884905D01*
D10*
X85923572Y-52125571D02*
X85590238Y-52125571D01*
X85590238Y-52649381D02*
X85590238Y-51649381D01*
X86066429Y-51649381D01*
X86447381Y-52649381D02*
X86447381Y-51649381D01*
X86923571Y-52649381D02*
X86923571Y-51649381D01*
X87161666Y-51649381D01*
X87304524Y-51697000D01*
X87399762Y-51792238D01*
X87447381Y-51887476D01*
X87495000Y-52077952D01*
X87495000Y-52220810D01*
X87447381Y-52411286D01*
X87399762Y-52506524D01*
X87304524Y-52601762D01*
X87161666Y-52649381D01*
X86923571Y-52649381D01*
X88447381Y-52649381D02*
X87875952Y-52649381D01*
X88161666Y-52649381D02*
X88161666Y-51649381D01*
X88066428Y-51792238D01*
X87971190Y-51887476D01*
X87875952Y-51935095D01*
X123888667Y-52268381D02*
X123888667Y-51268381D01*
X124222001Y-51982667D01*
X124555334Y-51268381D01*
X124555334Y-52268381D01*
X125031524Y-52268381D02*
X125031524Y-51268381D01*
X125031524Y-51744571D02*
X125602953Y-51744571D01*
X125602953Y-52268381D02*
X125602953Y-51268381D01*
X126602953Y-52268381D02*
X126031524Y-52268381D01*
X126317238Y-52268381D02*
X126317238Y-51268381D01*
X126222000Y-51411238D01*
X126126762Y-51506476D01*
X126031524Y-51554095D01*
X123888667Y-66563501D02*
X123888667Y-65563501D01*
X124222001Y-66277787D01*
X124555334Y-65563501D01*
X124555334Y-66563501D01*
X125031524Y-66563501D02*
X125031524Y-65563501D01*
X125031524Y-66039691D02*
X125602953Y-66039691D01*
X125602953Y-66563501D02*
X125602953Y-65563501D01*
X126031524Y-65658739D02*
X126079143Y-65611120D01*
X126174381Y-65563501D01*
X126412477Y-65563501D01*
X126507715Y-65611120D01*
X126555334Y-65658739D01*
X126602953Y-65753977D01*
X126602953Y-65849215D01*
X126555334Y-65992072D01*
X125983905Y-66563501D01*
X126602953Y-66563501D01*
X93824143Y-52236666D02*
X93871762Y-52284285D01*
X93919381Y-52427142D01*
X93919381Y-52522380D01*
X93871762Y-52665238D01*
X93776524Y-52760476D01*
X93681286Y-52808095D01*
X93490810Y-52855714D01*
X93347952Y-52855714D01*
X93157476Y-52808095D01*
X93062238Y-52760476D01*
X92967000Y-52665238D01*
X92919381Y-52522380D01*
X92919381Y-52427142D01*
X92967000Y-52284285D01*
X93014619Y-52236666D01*
X93919381Y-51284285D02*
X93919381Y-51855714D01*
X93919381Y-51570000D02*
X92919381Y-51570000D01*
X93062238Y-51665238D01*
X93157476Y-51760476D01*
X93205095Y-51855714D01*
X95094143Y-52236666D02*
X95141762Y-52284285D01*
X95189381Y-52427142D01*
X95189381Y-52522380D01*
X95141762Y-52665238D01*
X95046524Y-52760476D01*
X94951286Y-52808095D01*
X94760810Y-52855714D01*
X94617952Y-52855714D01*
X94427476Y-52808095D01*
X94332238Y-52760476D01*
X94237000Y-52665238D01*
X94189381Y-52522380D01*
X94189381Y-52427142D01*
X94237000Y-52284285D01*
X94284619Y-52236666D01*
X94284619Y-51855714D02*
X94237000Y-51808095D01*
X94189381Y-51712857D01*
X94189381Y-51474761D01*
X94237000Y-51379523D01*
X94284619Y-51331904D01*
X94379857Y-51284285D01*
X94475095Y-51284285D01*
X94617952Y-51331904D01*
X95189381Y-51903333D01*
X95189381Y-51284285D01*
X105878334Y-58909143D02*
X105830715Y-58956762D01*
X105687858Y-59004381D01*
X105592620Y-59004381D01*
X105449762Y-58956762D01*
X105354524Y-58861524D01*
X105306905Y-58766286D01*
X105259286Y-58575810D01*
X105259286Y-58432952D01*
X105306905Y-58242476D01*
X105354524Y-58147238D01*
X105449762Y-58052000D01*
X105592620Y-58004381D01*
X105687858Y-58004381D01*
X105830715Y-58052000D01*
X105878334Y-58099619D01*
X106211667Y-58004381D02*
X106830715Y-58004381D01*
X106497381Y-58385333D01*
X106640239Y-58385333D01*
X106735477Y-58432952D01*
X106783096Y-58480571D01*
X106830715Y-58575810D01*
X106830715Y-58813905D01*
X106783096Y-58909143D01*
X106735477Y-58956762D01*
X106640239Y-59004381D01*
X106354524Y-59004381D01*
X106259286Y-58956762D01*
X106211667Y-58909143D01*
X105878334Y-57512143D02*
X105830715Y-57559762D01*
X105687858Y-57607381D01*
X105592620Y-57607381D01*
X105449762Y-57559762D01*
X105354524Y-57464524D01*
X105306905Y-57369286D01*
X105259286Y-57178810D01*
X105259286Y-57035952D01*
X105306905Y-56845476D01*
X105354524Y-56750238D01*
X105449762Y-56655000D01*
X105592620Y-56607381D01*
X105687858Y-56607381D01*
X105830715Y-56655000D01*
X105878334Y-56702619D01*
X106735477Y-56940714D02*
X106735477Y-57607381D01*
X106497381Y-56559762D02*
X106259286Y-57274048D01*
X106878334Y-57274048D01*
X114948674Y-62282343D02*
X114901055Y-62329962D01*
X114758198Y-62377581D01*
X114662960Y-62377581D01*
X114520102Y-62329962D01*
X114424864Y-62234724D01*
X114377245Y-62139486D01*
X114329626Y-61949010D01*
X114329626Y-61806152D01*
X114377245Y-61615676D01*
X114424864Y-61520438D01*
X114520102Y-61425200D01*
X114662960Y-61377581D01*
X114758198Y-61377581D01*
X114901055Y-61425200D01*
X114948674Y-61472819D01*
X115853436Y-61377581D02*
X115377245Y-61377581D01*
X115329626Y-61853771D01*
X115377245Y-61806152D01*
X115472483Y-61758533D01*
X115710579Y-61758533D01*
X115805817Y-61806152D01*
X115853436Y-61853771D01*
X115901055Y-61949010D01*
X115901055Y-62187105D01*
X115853436Y-62282343D01*
X115805817Y-62329962D01*
X115710579Y-62377581D01*
X115472483Y-62377581D01*
X115377245Y-62329962D01*
X115329626Y-62282343D01*
X110335108Y-63294569D02*
X111097013Y-63294569D01*
X110716061Y-63675521D02*
X110716061Y-62913616D01*
X117964143Y-59094666D02*
X118011762Y-59142285D01*
X118059381Y-59285142D01*
X118059381Y-59380380D01*
X118011762Y-59523238D01*
X117916524Y-59618476D01*
X117821286Y-59666095D01*
X117630810Y-59713714D01*
X117487952Y-59713714D01*
X117297476Y-59666095D01*
X117202238Y-59618476D01*
X117107000Y-59523238D01*
X117059381Y-59380380D01*
X117059381Y-59285142D01*
X117107000Y-59142285D01*
X117154619Y-59094666D01*
X117059381Y-58237523D02*
X117059381Y-58428000D01*
X117107000Y-58523238D01*
X117154619Y-58570857D01*
X117297476Y-58666095D01*
X117487952Y-58713714D01*
X117868905Y-58713714D01*
X117964143Y-58666095D01*
X118011762Y-58618476D01*
X118059381Y-58523238D01*
X118059381Y-58332761D01*
X118011762Y-58237523D01*
X117964143Y-58189904D01*
X117868905Y-58142285D01*
X117630810Y-58142285D01*
X117535571Y-58189904D01*
X117487952Y-58237523D01*
X117440333Y-58332761D01*
X117440333Y-58523238D01*
X117487952Y-58618476D01*
X117535571Y-58666095D01*
X117630810Y-58713714D01*
X107338905Y-57355381D02*
X107338905Y-56355381D01*
X107577000Y-56355381D01*
X107719858Y-56403000D01*
X107815096Y-56498238D01*
X107862715Y-56593476D01*
X107910334Y-56783952D01*
X107910334Y-56926810D01*
X107862715Y-57117286D01*
X107815096Y-57212524D01*
X107719858Y-57307762D01*
X107577000Y-57355381D01*
X107338905Y-57355381D01*
X108862715Y-57355381D02*
X108291286Y-57355381D01*
X108577000Y-57355381D02*
X108577000Y-56355381D01*
X108481762Y-56498238D01*
X108386524Y-56593476D01*
X108291286Y-56641095D01*
X107338905Y-55577381D02*
X107338905Y-54577381D01*
X107577000Y-54577381D01*
X107719858Y-54625000D01*
X107815096Y-54720238D01*
X107862715Y-54815476D01*
X107910334Y-55005952D01*
X107910334Y-55148810D01*
X107862715Y-55339286D01*
X107815096Y-55434524D01*
X107719858Y-55529762D01*
X107577000Y-55577381D01*
X107338905Y-55577381D01*
X108291286Y-54672619D02*
X108338905Y-54625000D01*
X108434143Y-54577381D01*
X108672239Y-54577381D01*
X108767477Y-54625000D01*
X108815096Y-54672619D01*
X108862715Y-54767857D01*
X108862715Y-54863095D01*
X108815096Y-55005952D01*
X108243667Y-55577381D01*
X108862715Y-55577381D01*
X120011571Y-59761333D02*
X120011571Y-60094667D01*
X120535381Y-60094667D02*
X119535381Y-60094667D01*
X119535381Y-59618476D01*
X120011571Y-58904190D02*
X120059190Y-58761333D01*
X120106810Y-58713714D01*
X120202048Y-58666095D01*
X120344905Y-58666095D01*
X120440143Y-58713714D01*
X120487762Y-58761333D01*
X120535381Y-58856571D01*
X120535381Y-59237524D01*
X119535381Y-59237524D01*
X119535381Y-58904190D01*
X119583000Y-58808952D01*
X119630619Y-58761333D01*
X119725857Y-58713714D01*
X119821095Y-58713714D01*
X119916333Y-58761333D01*
X119963952Y-58808952D01*
X120011571Y-58904190D01*
X120011571Y-59237524D01*
X120535381Y-57713714D02*
X120535381Y-58285143D01*
X120535381Y-57999429D02*
X119535381Y-57999429D01*
X119678238Y-58094667D01*
X119773476Y-58189905D01*
X119821095Y-58285143D01*
X95781905Y-64948381D02*
X95781905Y-63948381D01*
X96162858Y-63948381D01*
X96258096Y-63996000D01*
X96305715Y-64043619D01*
X96353334Y-64138857D01*
X96353334Y-64281714D01*
X96305715Y-64376952D01*
X96258096Y-64424571D01*
X96162858Y-64472190D01*
X95781905Y-64472190D01*
X96829524Y-64948381D02*
X97020000Y-64948381D01*
X97115239Y-64900762D01*
X97162858Y-64853143D01*
X97258096Y-64710286D01*
X97305715Y-64519810D01*
X97305715Y-64138857D01*
X97258096Y-64043619D01*
X97210477Y-63996000D01*
X97115239Y-63948381D01*
X96924762Y-63948381D01*
X96829524Y-63996000D01*
X96781905Y-64043619D01*
X96734286Y-64138857D01*
X96734286Y-64376952D01*
X96781905Y-64472190D01*
X96829524Y-64519810D01*
X96924762Y-64567429D01*
X97115239Y-64567429D01*
X97210477Y-64519810D01*
X97258096Y-64472190D01*
X97305715Y-64376952D01*
X92003714Y-64948381D02*
X92003714Y-63948381D01*
X92384667Y-63948381D01*
X92479905Y-63996000D01*
X92527524Y-64043619D01*
X92575143Y-64138857D01*
X92575143Y-64281714D01*
X92527524Y-64376952D01*
X92479905Y-64424571D01*
X92384667Y-64472190D01*
X92003714Y-64472190D01*
X93527524Y-64948381D02*
X92956095Y-64948381D01*
X93241809Y-64948381D02*
X93241809Y-63948381D01*
X93146571Y-64091238D01*
X93051333Y-64186476D01*
X92956095Y-64234095D01*
X94146571Y-63948381D02*
X94241810Y-63948381D01*
X94337048Y-63996000D01*
X94384667Y-64043619D01*
X94432286Y-64138857D01*
X94479905Y-64329333D01*
X94479905Y-64567429D01*
X94432286Y-64757905D01*
X94384667Y-64853143D01*
X94337048Y-64900762D01*
X94241810Y-64948381D01*
X94146571Y-64948381D01*
X94051333Y-64900762D01*
X94003714Y-64853143D01*
X93956095Y-64757905D01*
X93908476Y-64567429D01*
X93908476Y-64329333D01*
X93956095Y-64138857D01*
X94003714Y-64043619D01*
X94051333Y-63996000D01*
X94146571Y-63948381D01*
X88701714Y-64948381D02*
X88701714Y-63948381D01*
X89082667Y-63948381D01*
X89177905Y-63996000D01*
X89225524Y-64043619D01*
X89273143Y-64138857D01*
X89273143Y-64281714D01*
X89225524Y-64376952D01*
X89177905Y-64424571D01*
X89082667Y-64472190D01*
X88701714Y-64472190D01*
X90225524Y-64948381D02*
X89654095Y-64948381D01*
X89939809Y-64948381D02*
X89939809Y-63948381D01*
X89844571Y-64091238D01*
X89749333Y-64186476D01*
X89654095Y-64234095D01*
X91177905Y-64948381D02*
X90606476Y-64948381D01*
X90892190Y-64948381D02*
X90892190Y-63948381D01*
X90796952Y-64091238D01*
X90701714Y-64186476D01*
X90606476Y-64234095D01*
X111085334Y-54305381D02*
X110752000Y-53829190D01*
X110513905Y-54305381D02*
X110513905Y-53305381D01*
X110894858Y-53305381D01*
X110990096Y-53353000D01*
X111037715Y-53400619D01*
X111085334Y-53495857D01*
X111085334Y-53638714D01*
X111037715Y-53733952D01*
X110990096Y-53781571D01*
X110894858Y-53829190D01*
X110513905Y-53829190D01*
X112037715Y-54305381D02*
X111466286Y-54305381D01*
X111752000Y-54305381D02*
X111752000Y-53305381D01*
X111656762Y-53448238D01*
X111561524Y-53543476D01*
X111466286Y-53591095D01*
X111085334Y-52527381D02*
X110752000Y-52051190D01*
X110513905Y-52527381D02*
X110513905Y-51527381D01*
X110894858Y-51527381D01*
X110990096Y-51575000D01*
X111037715Y-51622619D01*
X111085334Y-51717857D01*
X111085334Y-51860714D01*
X111037715Y-51955952D01*
X110990096Y-52003571D01*
X110894858Y-52051190D01*
X110513905Y-52051190D01*
X111466286Y-51622619D02*
X111513905Y-51575000D01*
X111609143Y-51527381D01*
X111847239Y-51527381D01*
X111942477Y-51575000D01*
X111990096Y-51622619D01*
X112037715Y-51717857D01*
X112037715Y-51813095D01*
X111990096Y-51955952D01*
X111418667Y-52527381D01*
X112037715Y-52527381D01*
X89495334Y-60518381D02*
X89162000Y-60042190D01*
X88923905Y-60518381D02*
X88923905Y-59518381D01*
X89304858Y-59518381D01*
X89400096Y-59566000D01*
X89447715Y-59613619D01*
X89495334Y-59708857D01*
X89495334Y-59851714D01*
X89447715Y-59946952D01*
X89400096Y-59994571D01*
X89304858Y-60042190D01*
X88923905Y-60042190D01*
X89828667Y-59518381D02*
X90447715Y-59518381D01*
X90114381Y-59899333D01*
X90257239Y-59899333D01*
X90352477Y-59946952D01*
X90400096Y-59994571D01*
X90447715Y-60089810D01*
X90447715Y-60327905D01*
X90400096Y-60423143D01*
X90352477Y-60470762D01*
X90257239Y-60518381D01*
X89971524Y-60518381D01*
X89876286Y-60470762D01*
X89828667Y-60423143D01*
X89495334Y-59121381D02*
X89162000Y-58645190D01*
X88923905Y-59121381D02*
X88923905Y-58121381D01*
X89304858Y-58121381D01*
X89400096Y-58169000D01*
X89447715Y-58216619D01*
X89495334Y-58311857D01*
X89495334Y-58454714D01*
X89447715Y-58549952D01*
X89400096Y-58597571D01*
X89304858Y-58645190D01*
X88923905Y-58645190D01*
X90352477Y-58454714D02*
X90352477Y-59121381D01*
X90114381Y-58073762D02*
X89876286Y-58788048D01*
X90495334Y-58788048D01*
X89495334Y-63312381D02*
X89162000Y-62836190D01*
X88923905Y-63312381D02*
X88923905Y-62312381D01*
X89304858Y-62312381D01*
X89400096Y-62360000D01*
X89447715Y-62407619D01*
X89495334Y-62502857D01*
X89495334Y-62645714D01*
X89447715Y-62740952D01*
X89400096Y-62788571D01*
X89304858Y-62836190D01*
X88923905Y-62836190D01*
X90400096Y-62312381D02*
X89923905Y-62312381D01*
X89876286Y-62788571D01*
X89923905Y-62740952D01*
X90019143Y-62693333D01*
X90257239Y-62693333D01*
X90352477Y-62740952D01*
X90400096Y-62788571D01*
X90447715Y-62883810D01*
X90447715Y-63121905D01*
X90400096Y-63217143D01*
X90352477Y-63264762D01*
X90257239Y-63312381D01*
X90019143Y-63312381D01*
X89923905Y-63264762D01*
X89876286Y-63217143D01*
X89495334Y-61915381D02*
X89162000Y-61439190D01*
X88923905Y-61915381D02*
X88923905Y-60915381D01*
X89304858Y-60915381D01*
X89400096Y-60963000D01*
X89447715Y-61010619D01*
X89495334Y-61105857D01*
X89495334Y-61248714D01*
X89447715Y-61343952D01*
X89400096Y-61391571D01*
X89304858Y-61439190D01*
X88923905Y-61439190D01*
X90352477Y-60915381D02*
X90162000Y-60915381D01*
X90066762Y-60963000D01*
X90019143Y-61010619D01*
X89923905Y-61153476D01*
X89876286Y-61343952D01*
X89876286Y-61724905D01*
X89923905Y-61820143D01*
X89971524Y-61867762D01*
X90066762Y-61915381D01*
X90257239Y-61915381D01*
X90352477Y-61867762D01*
X90400096Y-61820143D01*
X90447715Y-61724905D01*
X90447715Y-61486810D01*
X90400096Y-61391571D01*
X90352477Y-61343952D01*
X90257239Y-61296333D01*
X90066762Y-61296333D01*
X89971524Y-61343952D01*
X89923905Y-61391571D01*
X89876286Y-61486810D01*
X105878334Y-65979381D02*
X105545000Y-65503190D01*
X105306905Y-65979381D02*
X105306905Y-64979381D01*
X105687858Y-64979381D01*
X105783096Y-65027000D01*
X105830715Y-65074619D01*
X105878334Y-65169857D01*
X105878334Y-65312714D01*
X105830715Y-65407952D01*
X105783096Y-65455571D01*
X105687858Y-65503190D01*
X105306905Y-65503190D01*
X106211667Y-64979381D02*
X106878334Y-64979381D01*
X106449762Y-65979381D01*
X105878334Y-64455381D02*
X105545000Y-63979190D01*
X105306905Y-64455381D02*
X105306905Y-63455381D01*
X105687858Y-63455381D01*
X105783096Y-63503000D01*
X105830715Y-63550619D01*
X105878334Y-63645857D01*
X105878334Y-63788714D01*
X105830715Y-63883952D01*
X105783096Y-63931571D01*
X105687858Y-63979190D01*
X105306905Y-63979190D01*
X106449762Y-63883952D02*
X106354524Y-63836333D01*
X106306905Y-63788714D01*
X106259286Y-63693476D01*
X106259286Y-63645857D01*
X106306905Y-63550619D01*
X106354524Y-63503000D01*
X106449762Y-63455381D01*
X106640239Y-63455381D01*
X106735477Y-63503000D01*
X106783096Y-63550619D01*
X106830715Y-63645857D01*
X106830715Y-63693476D01*
X106783096Y-63788714D01*
X106735477Y-63836333D01*
X106640239Y-63883952D01*
X106449762Y-63883952D01*
X106354524Y-63931571D01*
X106306905Y-63979190D01*
X106259286Y-64074429D01*
X106259286Y-64264905D01*
X106306905Y-64360143D01*
X106354524Y-64407762D01*
X106449762Y-64455381D01*
X106640239Y-64455381D01*
X106735477Y-64407762D01*
X106783096Y-64360143D01*
X106830715Y-64264905D01*
X106830715Y-64074429D01*
X106783096Y-63979190D01*
X106735477Y-63931571D01*
X106640239Y-63883952D01*
X123256381Y-56554666D02*
X122780190Y-56888000D01*
X123256381Y-57126095D02*
X122256381Y-57126095D01*
X122256381Y-56745142D01*
X122304000Y-56649904D01*
X122351619Y-56602285D01*
X122446857Y-56554666D01*
X122589714Y-56554666D01*
X122684952Y-56602285D01*
X122732571Y-56649904D01*
X122780190Y-56745142D01*
X122780190Y-57126095D01*
X123256381Y-56078476D02*
X123256381Y-55888000D01*
X123208762Y-55792761D01*
X123161143Y-55745142D01*
X123018286Y-55649904D01*
X122827810Y-55602285D01*
X122446857Y-55602285D01*
X122351619Y-55649904D01*
X122304000Y-55697523D01*
X122256381Y-55792761D01*
X122256381Y-55983238D01*
X122304000Y-56078476D01*
X122351619Y-56126095D01*
X122446857Y-56173714D01*
X122684952Y-56173714D01*
X122780190Y-56126095D01*
X122827810Y-56078476D01*
X122875429Y-55983238D01*
X122875429Y-55792761D01*
X122827810Y-55697523D01*
X122780190Y-55649904D01*
X122684952Y-55602285D01*
X104714381Y-67952857D02*
X104238190Y-68286191D01*
X104714381Y-68524286D02*
X103714381Y-68524286D01*
X103714381Y-68143333D01*
X103762000Y-68048095D01*
X103809619Y-68000476D01*
X103904857Y-67952857D01*
X104047714Y-67952857D01*
X104142952Y-68000476D01*
X104190571Y-68048095D01*
X104238190Y-68143333D01*
X104238190Y-68524286D01*
X104714381Y-67000476D02*
X104714381Y-67571905D01*
X104714381Y-67286191D02*
X103714381Y-67286191D01*
X103857238Y-67381429D01*
X103952476Y-67476667D01*
X104000095Y-67571905D01*
X103714381Y-66381429D02*
X103714381Y-66286190D01*
X103762000Y-66190952D01*
X103809619Y-66143333D01*
X103904857Y-66095714D01*
X104095333Y-66048095D01*
X104333429Y-66048095D01*
X104523905Y-66095714D01*
X104619143Y-66143333D01*
X104666762Y-66190952D01*
X104714381Y-66286190D01*
X104714381Y-66381429D01*
X104666762Y-66476667D01*
X104619143Y-66524286D01*
X104523905Y-66571905D01*
X104333429Y-66619524D01*
X104095333Y-66619524D01*
X103904857Y-66571905D01*
X103809619Y-66524286D01*
X103762000Y-66476667D01*
X103714381Y-66381429D01*
X106238381Y-67952857D02*
X105762190Y-68286191D01*
X106238381Y-68524286D02*
X105238381Y-68524286D01*
X105238381Y-68143333D01*
X105286000Y-68048095D01*
X105333619Y-68000476D01*
X105428857Y-67952857D01*
X105571714Y-67952857D01*
X105666952Y-68000476D01*
X105714571Y-68048095D01*
X105762190Y-68143333D01*
X105762190Y-68524286D01*
X106238381Y-67000476D02*
X106238381Y-67571905D01*
X106238381Y-67286191D02*
X105238381Y-67286191D01*
X105381238Y-67381429D01*
X105476476Y-67476667D01*
X105524095Y-67571905D01*
X106238381Y-66048095D02*
X106238381Y-66619524D01*
X106238381Y-66333810D02*
X105238381Y-66333810D01*
X105381238Y-66429048D01*
X105476476Y-66524286D01*
X105524095Y-66619524D01*
X103190381Y-67952857D02*
X102714190Y-68286191D01*
X103190381Y-68524286D02*
X102190381Y-68524286D01*
X102190381Y-68143333D01*
X102238000Y-68048095D01*
X102285619Y-68000476D01*
X102380857Y-67952857D01*
X102523714Y-67952857D01*
X102618952Y-68000476D01*
X102666571Y-68048095D01*
X102714190Y-68143333D01*
X102714190Y-68524286D01*
X103190381Y-67000476D02*
X103190381Y-67571905D01*
X103190381Y-67286191D02*
X102190381Y-67286191D01*
X102333238Y-67381429D01*
X102428476Y-67476667D01*
X102476095Y-67571905D01*
X102285619Y-66619524D02*
X102238000Y-66571905D01*
X102190381Y-66476667D01*
X102190381Y-66238571D01*
X102238000Y-66143333D01*
X102285619Y-66095714D01*
X102380857Y-66048095D01*
X102476095Y-66048095D01*
X102618952Y-66095714D01*
X103190381Y-66667143D01*
X103190381Y-66048095D01*
D15*
X130668667Y-59535604D02*
X130692495Y-59559432D01*
X130716322Y-59630915D01*
X130716322Y-59678570D01*
X130692495Y-59750053D01*
X130644840Y-59797708D01*
X130597184Y-59821536D01*
X130501874Y-59845364D01*
X130430391Y-59845364D01*
X130335080Y-59821536D01*
X130287425Y-59797708D01*
X130239770Y-59750053D01*
X130215942Y-59678570D01*
X130215942Y-59630915D01*
X130239770Y-59559432D01*
X130263598Y-59535604D01*
X130215942Y-59225845D02*
X130215942Y-59130535D01*
X130239770Y-59082880D01*
X130287425Y-59035224D01*
X130382736Y-59011397D01*
X130549529Y-59011397D01*
X130644840Y-59035224D01*
X130692495Y-59082880D01*
X130716322Y-59130535D01*
X130716322Y-59225845D01*
X130692495Y-59273501D01*
X130644840Y-59321156D01*
X130549529Y-59344984D01*
X130382736Y-59344984D01*
X130287425Y-59321156D01*
X130239770Y-59273501D01*
X130215942Y-59225845D01*
X130716322Y-58796948D02*
X130215942Y-58796948D01*
X130716322Y-58511016D01*
X130215942Y-58511016D01*
X130716322Y-58010636D02*
X130716322Y-58296568D01*
X130716322Y-58153602D02*
X130215942Y-58153602D01*
X130287425Y-58201257D01*
X130335080Y-58248912D01*
X130358908Y-58296568D01*
X123614482Y-61596693D02*
X124019552Y-61596693D01*
X124067207Y-61572865D01*
X124091035Y-61549038D01*
X124114862Y-61501382D01*
X124114862Y-61406072D01*
X124091035Y-61358417D01*
X124067207Y-61334589D01*
X124019552Y-61310761D01*
X123614482Y-61310761D01*
X124091035Y-61096313D02*
X124114862Y-61024830D01*
X124114862Y-60905692D01*
X124091035Y-60858036D01*
X124067207Y-60834209D01*
X124019552Y-60810381D01*
X123971897Y-60810381D01*
X123924241Y-60834209D01*
X123900414Y-60858036D01*
X123876586Y-60905692D01*
X123852759Y-61001002D01*
X123828931Y-61048657D01*
X123805103Y-61072485D01*
X123757448Y-61096313D01*
X123709793Y-61096313D01*
X123662138Y-61072485D01*
X123638310Y-61048657D01*
X123614482Y-61001002D01*
X123614482Y-60881864D01*
X123638310Y-60810381D01*
X123852759Y-60429140D02*
X123876586Y-60357657D01*
X123900414Y-60333829D01*
X123948069Y-60310001D01*
X124019552Y-60310001D01*
X124067207Y-60333829D01*
X124091035Y-60357657D01*
X124114862Y-60405312D01*
X124114862Y-60595933D01*
X123614482Y-60595933D01*
X123614482Y-60429140D01*
X123638310Y-60381484D01*
X123662138Y-60357657D01*
X123709793Y-60333829D01*
X123757448Y-60333829D01*
X123805103Y-60357657D01*
X123828931Y-60381484D01*
X123852759Y-60429140D01*
X123852759Y-60595933D01*
X123924241Y-60095553D02*
X123924241Y-59714311D01*
X124114862Y-59476035D02*
X123614482Y-59476035D01*
X123971897Y-59309242D01*
X123614482Y-59142448D01*
X124114862Y-59142448D01*
X124114862Y-58904172D02*
X123614482Y-58904172D01*
X124067207Y-58379964D02*
X124091035Y-58403792D01*
X124114862Y-58475275D01*
X124114862Y-58522930D01*
X124091035Y-58594413D01*
X124043380Y-58642068D01*
X123995724Y-58665896D01*
X123900414Y-58689724D01*
X123828931Y-58689724D01*
X123733620Y-58665896D01*
X123685965Y-58642068D01*
X123638310Y-58594413D01*
X123614482Y-58522930D01*
X123614482Y-58475275D01*
X123638310Y-58403792D01*
X123662138Y-58379964D01*
X124114862Y-57879584D02*
X123876586Y-58046378D01*
X124114862Y-58165516D02*
X123614482Y-58165516D01*
X123614482Y-57974895D01*
X123638310Y-57927240D01*
X123662138Y-57903412D01*
X123709793Y-57879584D01*
X123781276Y-57879584D01*
X123828931Y-57903412D01*
X123852759Y-57927240D01*
X123876586Y-57974895D01*
X123876586Y-58165516D01*
X123614482Y-57569825D02*
X123614482Y-57474515D01*
X123638310Y-57426860D01*
X123685965Y-57379204D01*
X123781276Y-57355377D01*
X123948069Y-57355377D01*
X124043380Y-57379204D01*
X124091035Y-57426860D01*
X124114862Y-57474515D01*
X124114862Y-57569825D01*
X124091035Y-57617481D01*
X124043380Y-57665136D01*
X123948069Y-57688964D01*
X123781276Y-57688964D01*
X123685965Y-57665136D01*
X123638310Y-57617481D01*
X123614482Y-57569825D01*
X123924241Y-57140928D02*
X123924241Y-56759686D01*
X123852759Y-56354617D02*
X123876586Y-56283134D01*
X123900414Y-56259306D01*
X123948069Y-56235478D01*
X124019552Y-56235478D01*
X124067207Y-56259306D01*
X124091035Y-56283134D01*
X124114862Y-56330789D01*
X124114862Y-56521410D01*
X123614482Y-56521410D01*
X123614482Y-56354617D01*
X123638310Y-56306961D01*
X123662138Y-56283134D01*
X123709793Y-56259306D01*
X123757448Y-56259306D01*
X123805103Y-56283134D01*
X123828931Y-56306961D01*
X123852759Y-56354617D01*
X123852759Y-56521410D01*
D10*
X92003714Y-61900381D02*
X92003714Y-60900381D01*
X92384667Y-60900381D01*
X92479905Y-60948000D01*
X92527524Y-60995619D01*
X92575143Y-61090857D01*
X92575143Y-61233714D01*
X92527524Y-61328952D01*
X92479905Y-61376571D01*
X92384667Y-61424190D01*
X92003714Y-61424190D01*
X93527524Y-61900381D02*
X92956095Y-61900381D01*
X93241809Y-61900381D02*
X93241809Y-60900381D01*
X93146571Y-61043238D01*
X93051333Y-61138476D01*
X92956095Y-61186095D01*
X93908476Y-60995619D02*
X93956095Y-60948000D01*
X94051333Y-60900381D01*
X94289429Y-60900381D01*
X94384667Y-60948000D01*
X94432286Y-60995619D01*
X94479905Y-61090857D01*
X94479905Y-61186095D01*
X94432286Y-61328952D01*
X93860857Y-61900381D01*
X94479905Y-61900381D01*
%LPC*%
D16*
X94761500Y-54893500D03*
X94761500Y-55543500D03*
X94761500Y-56193500D03*
X94761500Y-56843500D03*
X94761500Y-57493500D03*
X94761500Y-58143500D03*
X94761500Y-58793500D03*
X94761500Y-59443500D03*
X94761500Y-60093500D03*
X94761500Y-60743500D03*
X94761500Y-61393500D03*
X94761500Y-62043500D03*
X94761500Y-62693500D03*
X94761500Y-63343500D03*
X101961500Y-63343500D03*
X101961500Y-62693500D03*
X101961500Y-62043500D03*
X101961500Y-61393500D03*
X101961500Y-60743500D03*
X101961500Y-60093500D03*
X101961500Y-59443500D03*
X101961500Y-58793500D03*
X101961500Y-58143500D03*
X101961500Y-57493500D03*
X101961500Y-56843500D03*
X101961500Y-56193500D03*
X101961500Y-55543500D03*
X101961500Y-54893500D03*
D17*
X109220000Y-45720000D03*
D18*
X111760000Y-45720000D03*
X114300000Y-45720000D03*
X116840000Y-45720000D03*
D17*
X99060000Y-45720000D03*
D18*
X101600000Y-45720000D03*
X104140000Y-45720000D03*
X106680000Y-45720000D03*
D17*
X88900000Y-45720000D03*
D18*
X91440000Y-45720000D03*
X93980000Y-45720000D03*
X96520000Y-45720000D03*
D17*
X109220000Y-72390000D03*
D18*
X111760000Y-72390000D03*
X114300000Y-72390000D03*
X116840000Y-72390000D03*
D17*
X99060000Y-72390000D03*
D18*
X101600000Y-72390000D03*
X104140000Y-72390000D03*
X106680000Y-72390000D03*
D17*
X88900000Y-72390000D03*
D18*
X91440000Y-72390000D03*
X93980000Y-72390000D03*
X96520000Y-72390000D03*
D17*
X86360000Y-55118000D03*
D18*
X86360000Y-57658000D03*
X86360000Y-60198000D03*
X86360000Y-62738000D03*
D19*
X86868000Y-49530000D03*
D20*
X91567000Y-51320000D03*
X91567000Y-52820000D03*
X92837000Y-51320000D03*
X92837000Y-52820000D03*
D21*
X105295000Y-60452000D03*
X106795000Y-60452000D03*
X105295000Y-59055000D03*
X106795000Y-59055000D03*
D22*
X117314980Y-65024000D03*
X113317020Y-65024000D03*
D23*
X119507000Y-59878000D03*
X119507000Y-57978000D03*
D24*
X107327700Y-55753000D03*
X108826300Y-55753000D03*
X107327700Y-53975000D03*
X108826300Y-53975000D03*
D25*
X117983000Y-57928000D03*
X117983000Y-59928000D03*
D26*
X96520000Y-69596000D03*
X93218000Y-69596000D03*
X89916000Y-69596000D03*
D27*
X110502000Y-55753000D03*
X112002000Y-55753000D03*
X110502000Y-53975000D03*
X112002000Y-53975000D03*
X90412000Y-58166000D03*
X88912000Y-58166000D03*
X90412000Y-56769000D03*
X88912000Y-56769000D03*
X90412000Y-60960000D03*
X88912000Y-60960000D03*
X90412000Y-59563000D03*
X88912000Y-59563000D03*
X106795000Y-63627000D03*
X105295000Y-63627000D03*
X106795000Y-62103000D03*
X105295000Y-62103000D03*
D28*
X120904000Y-55638000D03*
X120904000Y-57138000D03*
X102362000Y-66560000D03*
X102362000Y-68060000D03*
X103886000Y-66560000D03*
X103886000Y-68060000D03*
X100838000Y-66560000D03*
X100838000Y-68060000D03*
D29*
X127889000Y-59766200D03*
X127889000Y-58089800D03*
D30*
X127889000Y-56014620D03*
X127889000Y-61841380D03*
D31*
X125590300Y-56466740D03*
X125590300Y-61389260D03*
D32*
X125229620Y-60228480D03*
X125229620Y-59578240D03*
X125229620Y-58928000D03*
X125229620Y-58277760D03*
X125229620Y-57627520D03*
D26*
X93218000Y-66548000D03*
M02*
