%FSLAX45Y45*%
G04 Gerber Fmt 4.5, Leading zero omitted, Abs format (unit mm)*
G04 Created by KiCad (PCBNEW (2015-01-16 BZR 5376)-product) date 25/06/2015 00:13:47*
%MOMM*%
G01*
G04 APERTURE LIST*
%ADD10C,0.127000*%
%ADD11C,0.099060*%
%ADD12C,0.200000*%
%ADD13C,0.300000*%
G04 APERTURE END LIST*
D10*
D11*
X12954000Y-7493000D02*
X8382000Y-7493000D01*
X9093200Y-4292600D02*
X12954000Y-4292600D01*
X8382000Y-4292600D02*
X9093200Y-4292600D01*
X8382000Y-4292600D02*
X8382000Y-7493000D01*
X12954000Y-7493000D02*
X12954000Y-4292600D01*
D12*
X8928481Y-5270881D02*
X8978519Y-5320919D01*
X8978519Y-5270881D02*
X8928481Y-5320919D01*
X9030081Y-4800981D02*
X9080119Y-4851019D01*
X9080119Y-4800981D02*
X9030081Y-4851019D01*
X9068181Y-5664581D02*
X9118219Y-5714619D01*
X9118219Y-5664581D02*
X9068181Y-5714619D01*
X9068181Y-5816981D02*
X9118219Y-5867019D01*
X9118219Y-5816981D02*
X9068181Y-5867019D01*
X9182481Y-4800981D02*
X9232519Y-4851019D01*
X9232519Y-4800981D02*
X9182481Y-4851019D01*
X9449181Y-6020181D02*
X9499219Y-6070219D01*
X9499219Y-6020181D02*
X9449181Y-6070219D01*
X9550781Y-5943981D02*
X9600819Y-5994019D01*
X9600819Y-5943981D02*
X9550781Y-5994019D01*
X9652381Y-5842381D02*
X9702419Y-5892419D01*
X9702419Y-5842381D02*
X9652381Y-5892419D01*
X9944481Y-6655181D02*
X9994519Y-6705219D01*
X9994519Y-6655181D02*
X9944481Y-6705219D01*
X10084181Y-5232781D02*
X10134219Y-5282819D01*
X10134219Y-5232781D02*
X10084181Y-5282819D01*
X10185781Y-5308981D02*
X10235819Y-5359019D01*
X10235819Y-5308981D02*
X10185781Y-5359019D01*
X10185781Y-5715381D02*
X10235819Y-5765419D01*
X10235819Y-5715381D02*
X10185781Y-5765419D01*
X10185781Y-6578981D02*
X10235819Y-6629019D01*
X10235819Y-6578981D02*
X10185781Y-6629019D01*
X11049381Y-5816981D02*
X11099419Y-5867019D01*
X11099419Y-5816981D02*
X11049381Y-5867019D01*
X11150981Y-5943981D02*
X11201019Y-5994019D01*
X11201019Y-5943981D02*
X11150981Y-5994019D01*
X11277981Y-6045581D02*
X11328019Y-6095619D01*
X11328019Y-6045581D02*
X11277981Y-6095619D01*
X10518140Y-5651500D02*
G75*
G03X10518140Y-5651500I-40640J0D01*
G01*
X10518140Y-6286500D02*
G75*
G03X10518140Y-6286500I-40640J0D01*
G01*
X10772140Y-5651500D02*
G75*
G03X10772140Y-5651500I-40640J0D01*
G01*
X10772140Y-6286500D02*
G75*
G03X10772140Y-6286500I-40640J0D01*
G01*
X8636000Y-5461000D02*
X8636000Y-5562600D01*
X8585200Y-5511800D02*
X8686800Y-5511800D01*
X8636000Y-5715000D02*
X8636000Y-5816600D01*
X8585200Y-5765800D02*
X8686800Y-5765800D01*
X8636000Y-5969000D02*
X8636000Y-6070600D01*
X8585200Y-6019800D02*
X8686800Y-6019800D01*
X8636000Y-6223000D02*
X8636000Y-6324600D01*
X8585200Y-6273800D02*
X8686800Y-6273800D01*
X8890000Y-4521200D02*
X8890000Y-4622800D01*
X8839200Y-4572000D02*
X8940800Y-4572000D01*
X8890000Y-7188200D02*
X8890000Y-7289800D01*
X8839200Y-7239000D02*
X8940800Y-7239000D01*
X9144000Y-4521200D02*
X9144000Y-4622800D01*
X9093200Y-4572000D02*
X9194800Y-4572000D01*
X9144000Y-7188200D02*
X9144000Y-7289800D01*
X9093200Y-7239000D02*
X9194800Y-7239000D01*
X9398000Y-4521200D02*
X9398000Y-4622800D01*
X9347200Y-4572000D02*
X9448800Y-4572000D01*
X9398000Y-7188200D02*
X9398000Y-7289800D01*
X9347200Y-7239000D02*
X9448800Y-7239000D01*
X9652000Y-4521200D02*
X9652000Y-4622800D01*
X9601200Y-4572000D02*
X9702800Y-4572000D01*
X9652000Y-7188200D02*
X9652000Y-7289800D01*
X9601200Y-7239000D02*
X9702800Y-7239000D01*
X9906000Y-4521200D02*
X9906000Y-4622800D01*
X9855200Y-4572000D02*
X9956800Y-4572000D01*
X9906000Y-7188200D02*
X9906000Y-7289800D01*
X9855200Y-7239000D02*
X9956800Y-7239000D01*
X10160000Y-4521200D02*
X10160000Y-4622800D01*
X10109200Y-4572000D02*
X10210800Y-4572000D01*
X10160000Y-7188200D02*
X10160000Y-7289800D01*
X10109200Y-7239000D02*
X10210800Y-7239000D01*
X10414000Y-4521200D02*
X10414000Y-4622800D01*
X10363200Y-4572000D02*
X10464800Y-4572000D01*
X10414000Y-7188200D02*
X10414000Y-7289800D01*
X10363200Y-7239000D02*
X10464800Y-7239000D01*
X10668000Y-4521200D02*
X10668000Y-4622800D01*
X10617200Y-4572000D02*
X10718800Y-4572000D01*
X10668000Y-7188200D02*
X10668000Y-7289800D01*
X10617200Y-7239000D02*
X10718800Y-7239000D01*
X10922000Y-4521200D02*
X10922000Y-4622800D01*
X10871200Y-4572000D02*
X10972800Y-4572000D01*
X10922000Y-7188200D02*
X10922000Y-7289800D01*
X10871200Y-7239000D02*
X10972800Y-7239000D01*
X11176000Y-4521200D02*
X11176000Y-4622800D01*
X11125200Y-4572000D02*
X11226800Y-4572000D01*
X11176000Y-7188200D02*
X11176000Y-7289800D01*
X11125200Y-7239000D02*
X11226800Y-7239000D01*
X11430000Y-4521200D02*
X11430000Y-4622800D01*
X11379200Y-4572000D02*
X11480800Y-4572000D01*
X11430000Y-7188200D02*
X11430000Y-7289800D01*
X11379200Y-7239000D02*
X11480800Y-7239000D01*
X11684000Y-4521200D02*
X11684000Y-4622800D01*
X11633200Y-4572000D02*
X11734800Y-4572000D01*
X11684000Y-7188200D02*
X11684000Y-7289800D01*
X11633200Y-7239000D02*
X11734800Y-7239000D01*
X12700000Y-5461000D02*
X12700000Y-5562600D01*
X12649200Y-5511800D02*
X12750800Y-5511800D01*
X12700000Y-5715000D02*
X12700000Y-5816600D01*
X12649200Y-5765800D02*
X12750800Y-5765800D01*
X12700000Y-5969000D02*
X12700000Y-6070600D01*
X12649200Y-6019800D02*
X12750800Y-6019800D01*
X12700000Y-6223000D02*
X12700000Y-6324600D01*
X12649200Y-6273800D02*
X12750800Y-6273800D01*
X11788181Y-5692181D02*
X11788181Y-5610819D01*
X11706819Y-5610819D01*
X11706819Y-5692181D01*
X11788181Y-5692181D01*
X11788181Y-6327181D02*
X11788181Y-6245819D01*
X11706819Y-6245819D01*
X11706819Y-6327181D01*
X11788181Y-6327181D01*
X12296181Y-5692181D02*
X12296181Y-5610819D01*
X12214819Y-5610819D01*
X12214819Y-5692181D01*
X12296181Y-5692181D01*
X12296181Y-6327181D02*
X12296181Y-6245819D01*
X12214819Y-6245819D01*
X12214819Y-6327181D01*
X12296181Y-6327181D01*
X12522200Y-4899400D02*
X12697200Y-4724400D01*
X12522200Y-4549400D01*
X12347200Y-4724400D01*
X12522200Y-4899400D01*
X12522200Y-7236200D02*
X12697200Y-7061200D01*
X12522200Y-6886200D01*
X12347200Y-7061200D01*
X12522200Y-7236200D01*
D13*
X8648476Y-7963667D02*
X8648476Y-7663667D01*
X8719904Y-7663667D01*
X8762761Y-7677953D01*
X8791333Y-7706524D01*
X8805618Y-7735096D01*
X8819904Y-7792239D01*
X8819904Y-7835096D01*
X8805618Y-7892239D01*
X8791333Y-7920810D01*
X8762761Y-7949382D01*
X8719904Y-7963667D01*
X8648476Y-7963667D01*
X8948476Y-7963667D02*
X8948476Y-7763667D01*
X8948476Y-7820810D02*
X8962761Y-7792239D01*
X8977047Y-7777953D01*
X9005618Y-7763667D01*
X9034190Y-7763667D01*
X9134190Y-7963667D02*
X9134190Y-7763667D01*
X9134190Y-7663667D02*
X9119904Y-7677953D01*
X9134190Y-7692239D01*
X9148476Y-7677953D01*
X9134190Y-7663667D01*
X9134190Y-7692239D01*
X9319904Y-7963667D02*
X9291333Y-7949382D01*
X9277047Y-7920810D01*
X9277047Y-7663667D01*
X9477047Y-7963667D02*
X9448476Y-7949382D01*
X9434190Y-7920810D01*
X9434190Y-7663667D01*
X9819904Y-7963667D02*
X9819904Y-7663667D01*
X9919904Y-7877953D01*
X10019904Y-7663667D01*
X10019904Y-7963667D01*
X10291333Y-7963667D02*
X10291333Y-7806524D01*
X10277047Y-7777953D01*
X10248476Y-7763667D01*
X10191333Y-7763667D01*
X10162761Y-7777953D01*
X10291333Y-7949382D02*
X10262761Y-7963667D01*
X10191333Y-7963667D01*
X10162761Y-7949382D01*
X10148476Y-7920810D01*
X10148476Y-7892239D01*
X10162761Y-7863667D01*
X10191333Y-7849382D01*
X10262761Y-7849382D01*
X10291333Y-7835096D01*
X10434190Y-7763667D02*
X10434190Y-8063667D01*
X10434190Y-7777953D02*
X10462761Y-7763667D01*
X10519904Y-7763667D01*
X10548476Y-7777953D01*
X10562761Y-7792239D01*
X10577047Y-7820810D01*
X10577047Y-7906524D01*
X10562761Y-7935096D01*
X10548476Y-7949382D01*
X10519904Y-7963667D01*
X10462761Y-7963667D01*
X10434190Y-7949382D01*
X10705618Y-7935096D02*
X10719904Y-7949382D01*
X10705618Y-7963667D01*
X10691333Y-7949382D01*
X10705618Y-7935096D01*
X10705618Y-7963667D01*
X10705618Y-7777953D02*
X10719904Y-7792239D01*
X10705618Y-7806524D01*
X10691333Y-7792239D01*
X10705618Y-7777953D01*
X10705618Y-7806524D01*
X8327009Y-8432934D02*
X8377047Y-8482972D01*
X8377047Y-8432934D02*
X8327009Y-8482972D01*
X8705618Y-8293667D02*
X8734190Y-8293667D01*
X8762761Y-8307953D01*
X8777047Y-8322239D01*
X8791333Y-8350810D01*
X8805618Y-8407953D01*
X8805618Y-8479382D01*
X8791333Y-8536525D01*
X8777047Y-8565096D01*
X8762761Y-8579382D01*
X8734190Y-8593667D01*
X8705618Y-8593667D01*
X8677047Y-8579382D01*
X8662761Y-8565096D01*
X8648476Y-8536525D01*
X8634190Y-8479382D01*
X8634190Y-8407953D01*
X8648476Y-8350810D01*
X8662761Y-8322239D01*
X8677047Y-8307953D01*
X8705618Y-8293667D01*
X8934190Y-8565096D02*
X8948476Y-8579382D01*
X8934190Y-8593667D01*
X8919904Y-8579382D01*
X8934190Y-8565096D01*
X8934190Y-8593667D01*
X9219904Y-8293667D02*
X9077047Y-8293667D01*
X9062761Y-8436525D01*
X9077047Y-8422239D01*
X9105618Y-8407953D01*
X9177047Y-8407953D01*
X9205618Y-8422239D01*
X9219904Y-8436525D01*
X9234190Y-8465096D01*
X9234190Y-8536525D01*
X9219904Y-8565096D01*
X9205618Y-8579382D01*
X9177047Y-8593667D01*
X9105618Y-8593667D01*
X9077047Y-8579382D01*
X9062761Y-8565096D01*
X9419904Y-8293667D02*
X9448476Y-8293667D01*
X9477047Y-8307953D01*
X9491333Y-8322239D01*
X9505618Y-8350810D01*
X9519904Y-8407953D01*
X9519904Y-8479382D01*
X9505618Y-8536525D01*
X9491333Y-8565096D01*
X9477047Y-8579382D01*
X9448476Y-8593667D01*
X9419904Y-8593667D01*
X9391333Y-8579382D01*
X9377047Y-8565096D01*
X9362761Y-8536525D01*
X9348476Y-8479382D01*
X9348476Y-8407953D01*
X9362761Y-8350810D01*
X9377047Y-8322239D01*
X9391333Y-8307953D01*
X9419904Y-8293667D01*
X9648476Y-8593667D02*
X9648476Y-8393667D01*
X9648476Y-8422239D02*
X9662761Y-8407953D01*
X9691333Y-8393667D01*
X9734190Y-8393667D01*
X9762761Y-8407953D01*
X9777047Y-8436525D01*
X9777047Y-8593667D01*
X9777047Y-8436525D02*
X9791333Y-8407953D01*
X9819904Y-8393667D01*
X9862761Y-8393667D01*
X9891333Y-8407953D01*
X9905618Y-8436525D01*
X9905618Y-8593667D01*
X10048476Y-8593667D02*
X10048476Y-8393667D01*
X10048476Y-8422239D02*
X10062761Y-8407953D01*
X10091333Y-8393667D01*
X10134190Y-8393667D01*
X10162761Y-8407953D01*
X10177047Y-8436525D01*
X10177047Y-8593667D01*
X10177047Y-8436525D02*
X10191333Y-8407953D01*
X10219904Y-8393667D01*
X10262761Y-8393667D01*
X10291333Y-8407953D01*
X10305618Y-8436525D01*
X10305618Y-8593667D01*
X10891333Y-8279382D02*
X10634190Y-8665096D01*
X11277047Y-8293667D02*
X11305618Y-8293667D01*
X11334190Y-8307953D01*
X11348475Y-8322239D01*
X11362761Y-8350810D01*
X11377047Y-8407953D01*
X11377047Y-8479382D01*
X11362761Y-8536525D01*
X11348475Y-8565096D01*
X11334190Y-8579382D01*
X11305618Y-8593667D01*
X11277047Y-8593667D01*
X11248475Y-8579382D01*
X11234190Y-8565096D01*
X11219904Y-8536525D01*
X11205618Y-8479382D01*
X11205618Y-8407953D01*
X11219904Y-8350810D01*
X11234190Y-8322239D01*
X11248475Y-8307953D01*
X11277047Y-8293667D01*
X11505618Y-8565096D02*
X11519904Y-8579382D01*
X11505618Y-8593667D01*
X11491333Y-8579382D01*
X11505618Y-8565096D01*
X11505618Y-8593667D01*
X11705618Y-8293667D02*
X11734190Y-8293667D01*
X11762761Y-8307953D01*
X11777047Y-8322239D01*
X11791332Y-8350810D01*
X11805618Y-8407953D01*
X11805618Y-8479382D01*
X11791332Y-8536525D01*
X11777047Y-8565096D01*
X11762761Y-8579382D01*
X11734190Y-8593667D01*
X11705618Y-8593667D01*
X11677047Y-8579382D01*
X11662761Y-8565096D01*
X11648475Y-8536525D01*
X11634190Y-8479382D01*
X11634190Y-8407953D01*
X11648475Y-8350810D01*
X11662761Y-8322239D01*
X11677047Y-8307953D01*
X11705618Y-8293667D01*
X11919904Y-8322239D02*
X11934190Y-8307953D01*
X11962761Y-8293667D01*
X12034190Y-8293667D01*
X12062761Y-8307953D01*
X12077047Y-8322239D01*
X12091332Y-8350810D01*
X12091332Y-8379382D01*
X12077047Y-8422239D01*
X11905618Y-8593667D01*
X12091332Y-8593667D01*
X12277047Y-8293667D02*
X12305618Y-8293667D01*
X12334190Y-8307953D01*
X12348475Y-8322239D01*
X12362761Y-8350810D01*
X12377047Y-8407953D01*
X12377047Y-8479382D01*
X12362761Y-8536525D01*
X12348475Y-8565096D01*
X12334190Y-8579382D01*
X12305618Y-8593667D01*
X12277047Y-8593667D01*
X12248475Y-8579382D01*
X12234190Y-8565096D01*
X12219904Y-8536525D01*
X12205618Y-8479382D01*
X12205618Y-8407953D01*
X12219904Y-8350810D01*
X12234190Y-8322239D01*
X12248475Y-8307953D01*
X12277047Y-8293667D01*
X12491333Y-8293667D02*
X12491333Y-8350810D01*
X12605618Y-8293667D02*
X12605618Y-8350810D01*
X13048475Y-8707953D02*
X13034190Y-8693667D01*
X13005618Y-8650810D01*
X12991332Y-8622239D01*
X12977047Y-8579382D01*
X12962761Y-8507953D01*
X12962761Y-8450810D01*
X12977047Y-8379382D01*
X12991332Y-8336524D01*
X13005618Y-8307953D01*
X13034190Y-8265096D01*
X13048475Y-8250810D01*
X13319904Y-8593667D02*
X13148475Y-8593667D01*
X13234190Y-8593667D02*
X13234190Y-8293667D01*
X13205618Y-8336524D01*
X13177047Y-8365096D01*
X13148475Y-8379382D01*
X13577047Y-8293667D02*
X13519904Y-8293667D01*
X13491332Y-8307953D01*
X13477047Y-8322239D01*
X13448475Y-8365096D01*
X13434190Y-8422239D01*
X13434190Y-8536525D01*
X13448475Y-8565096D01*
X13462761Y-8579382D01*
X13491332Y-8593667D01*
X13548475Y-8593667D01*
X13577047Y-8579382D01*
X13591332Y-8565096D01*
X13605618Y-8536525D01*
X13605618Y-8465096D01*
X13591332Y-8436525D01*
X13577047Y-8422239D01*
X13548475Y-8407953D01*
X13491332Y-8407953D01*
X13462761Y-8422239D01*
X13448475Y-8436525D01*
X13434190Y-8465096D01*
X13962761Y-8593667D02*
X13962761Y-8293667D01*
X14091332Y-8593667D02*
X14091332Y-8436525D01*
X14077047Y-8407953D01*
X14048475Y-8393667D01*
X14005618Y-8393667D01*
X13977047Y-8407953D01*
X13962761Y-8422239D01*
X14277047Y-8593667D02*
X14248475Y-8579382D01*
X14234190Y-8565096D01*
X14219904Y-8536525D01*
X14219904Y-8450810D01*
X14234190Y-8422239D01*
X14248475Y-8407953D01*
X14277047Y-8393667D01*
X14319904Y-8393667D01*
X14348475Y-8407953D01*
X14362761Y-8422239D01*
X14377047Y-8450810D01*
X14377047Y-8536525D01*
X14362761Y-8565096D01*
X14348475Y-8579382D01*
X14319904Y-8593667D01*
X14277047Y-8593667D01*
X14548475Y-8593667D02*
X14519904Y-8579382D01*
X14505618Y-8550810D01*
X14505618Y-8293667D01*
X14777047Y-8579382D02*
X14748475Y-8593667D01*
X14691333Y-8593667D01*
X14662761Y-8579382D01*
X14648475Y-8550810D01*
X14648475Y-8436525D01*
X14662761Y-8407953D01*
X14691333Y-8393667D01*
X14748475Y-8393667D01*
X14777047Y-8407953D01*
X14791333Y-8436525D01*
X14791333Y-8465096D01*
X14648475Y-8493667D01*
X14905618Y-8579382D02*
X14934190Y-8593667D01*
X14991333Y-8593667D01*
X15019904Y-8579382D01*
X15034190Y-8550810D01*
X15034190Y-8536525D01*
X15019904Y-8507953D01*
X14991333Y-8493667D01*
X14948475Y-8493667D01*
X14919904Y-8479382D01*
X14905618Y-8450810D01*
X14905618Y-8436525D01*
X14919904Y-8407953D01*
X14948475Y-8393667D01*
X14991333Y-8393667D01*
X15019904Y-8407953D01*
X15134190Y-8707953D02*
X15148475Y-8693667D01*
X15177047Y-8650810D01*
X15191333Y-8622239D01*
X15205618Y-8579382D01*
X15219904Y-8507953D01*
X15219904Y-8450810D01*
X15205618Y-8379382D01*
X15191333Y-8336524D01*
X15177047Y-8307953D01*
X15148475Y-8265096D01*
X15134190Y-8250810D01*
X8377047Y-8853953D02*
G75*
G03X8377047Y-8853953I-40640J0D01*
G01*
X8705618Y-8689667D02*
X8734190Y-8689667D01*
X8762761Y-8703953D01*
X8777047Y-8718239D01*
X8791333Y-8746810D01*
X8805618Y-8803953D01*
X8805618Y-8875382D01*
X8791333Y-8932525D01*
X8777047Y-8961096D01*
X8762761Y-8975382D01*
X8734190Y-8989667D01*
X8705618Y-8989667D01*
X8677047Y-8975382D01*
X8662761Y-8961096D01*
X8648476Y-8932525D01*
X8634190Y-8875382D01*
X8634190Y-8803953D01*
X8648476Y-8746810D01*
X8662761Y-8718239D01*
X8677047Y-8703953D01*
X8705618Y-8689667D01*
X8934190Y-8961096D02*
X8948476Y-8975382D01*
X8934190Y-8989667D01*
X8919904Y-8975382D01*
X8934190Y-8961096D01*
X8934190Y-8989667D01*
X9119904Y-8818239D02*
X9091333Y-8803953D01*
X9077047Y-8789667D01*
X9062761Y-8761096D01*
X9062761Y-8746810D01*
X9077047Y-8718239D01*
X9091333Y-8703953D01*
X9119904Y-8689667D01*
X9177047Y-8689667D01*
X9205618Y-8703953D01*
X9219904Y-8718239D01*
X9234190Y-8746810D01*
X9234190Y-8761096D01*
X9219904Y-8789667D01*
X9205618Y-8803953D01*
X9177047Y-8818239D01*
X9119904Y-8818239D01*
X9091333Y-8832525D01*
X9077047Y-8846810D01*
X9062761Y-8875382D01*
X9062761Y-8932525D01*
X9077047Y-8961096D01*
X9091333Y-8975382D01*
X9119904Y-8989667D01*
X9177047Y-8989667D01*
X9205618Y-8975382D01*
X9219904Y-8961096D01*
X9234190Y-8932525D01*
X9234190Y-8875382D01*
X9219904Y-8846810D01*
X9205618Y-8832525D01*
X9177047Y-8818239D01*
X9519904Y-8989667D02*
X9348476Y-8989667D01*
X9434190Y-8989667D02*
X9434190Y-8689667D01*
X9405618Y-8732525D01*
X9377047Y-8761096D01*
X9348476Y-8775382D01*
X9648476Y-8989667D02*
X9648476Y-8789667D01*
X9648476Y-8818239D02*
X9662761Y-8803953D01*
X9691333Y-8789667D01*
X9734190Y-8789667D01*
X9762761Y-8803953D01*
X9777047Y-8832525D01*
X9777047Y-8989667D01*
X9777047Y-8832525D02*
X9791333Y-8803953D01*
X9819904Y-8789667D01*
X9862761Y-8789667D01*
X9891333Y-8803953D01*
X9905618Y-8832525D01*
X9905618Y-8989667D01*
X10048476Y-8989667D02*
X10048476Y-8789667D01*
X10048476Y-8818239D02*
X10062761Y-8803953D01*
X10091333Y-8789667D01*
X10134190Y-8789667D01*
X10162761Y-8803953D01*
X10177047Y-8832525D01*
X10177047Y-8989667D01*
X10177047Y-8832525D02*
X10191333Y-8803953D01*
X10219904Y-8789667D01*
X10262761Y-8789667D01*
X10291333Y-8803953D01*
X10305618Y-8832525D01*
X10305618Y-8989667D01*
X10891333Y-8675382D02*
X10634190Y-9061096D01*
X11277047Y-8689667D02*
X11305618Y-8689667D01*
X11334190Y-8703953D01*
X11348475Y-8718239D01*
X11362761Y-8746810D01*
X11377047Y-8803953D01*
X11377047Y-8875382D01*
X11362761Y-8932525D01*
X11348475Y-8961096D01*
X11334190Y-8975382D01*
X11305618Y-8989667D01*
X11277047Y-8989667D01*
X11248475Y-8975382D01*
X11234190Y-8961096D01*
X11219904Y-8932525D01*
X11205618Y-8875382D01*
X11205618Y-8803953D01*
X11219904Y-8746810D01*
X11234190Y-8718239D01*
X11248475Y-8703953D01*
X11277047Y-8689667D01*
X11505618Y-8961096D02*
X11519904Y-8975382D01*
X11505618Y-8989667D01*
X11491333Y-8975382D01*
X11505618Y-8961096D01*
X11505618Y-8989667D01*
X11705618Y-8689667D02*
X11734190Y-8689667D01*
X11762761Y-8703953D01*
X11777047Y-8718239D01*
X11791332Y-8746810D01*
X11805618Y-8803953D01*
X11805618Y-8875382D01*
X11791332Y-8932525D01*
X11777047Y-8961096D01*
X11762761Y-8975382D01*
X11734190Y-8989667D01*
X11705618Y-8989667D01*
X11677047Y-8975382D01*
X11662761Y-8961096D01*
X11648475Y-8932525D01*
X11634190Y-8875382D01*
X11634190Y-8803953D01*
X11648475Y-8746810D01*
X11662761Y-8718239D01*
X11677047Y-8703953D01*
X11705618Y-8689667D01*
X11905618Y-8689667D02*
X12091332Y-8689667D01*
X11991332Y-8803953D01*
X12034190Y-8803953D01*
X12062761Y-8818239D01*
X12077047Y-8832525D01*
X12091332Y-8861096D01*
X12091332Y-8932525D01*
X12077047Y-8961096D01*
X12062761Y-8975382D01*
X12034190Y-8989667D01*
X11948475Y-8989667D01*
X11919904Y-8975382D01*
X11905618Y-8961096D01*
X12205618Y-8718239D02*
X12219904Y-8703953D01*
X12248475Y-8689667D01*
X12319904Y-8689667D01*
X12348475Y-8703953D01*
X12362761Y-8718239D01*
X12377047Y-8746810D01*
X12377047Y-8775382D01*
X12362761Y-8818239D01*
X12191332Y-8989667D01*
X12377047Y-8989667D01*
X12491333Y-8689667D02*
X12491333Y-8746810D01*
X12605618Y-8689667D02*
X12605618Y-8746810D01*
X13048475Y-9103953D02*
X13034190Y-9089667D01*
X13005618Y-9046810D01*
X12991332Y-9018239D01*
X12977047Y-8975382D01*
X12962761Y-8903953D01*
X12962761Y-8846810D01*
X12977047Y-8775382D01*
X12991332Y-8732525D01*
X13005618Y-8703953D01*
X13034190Y-8661096D01*
X13048475Y-8646810D01*
X13291332Y-8789667D02*
X13291332Y-8989667D01*
X13219904Y-8675382D02*
X13148475Y-8889667D01*
X13334190Y-8889667D01*
X13677047Y-8989667D02*
X13677047Y-8689667D01*
X13805618Y-8989667D02*
X13805618Y-8832525D01*
X13791332Y-8803953D01*
X13762761Y-8789667D01*
X13719904Y-8789667D01*
X13691332Y-8803953D01*
X13677047Y-8818239D01*
X13991332Y-8989667D02*
X13962761Y-8975382D01*
X13948475Y-8961096D01*
X13934190Y-8932525D01*
X13934190Y-8846810D01*
X13948475Y-8818239D01*
X13962761Y-8803953D01*
X13991332Y-8789667D01*
X14034190Y-8789667D01*
X14062761Y-8803953D01*
X14077047Y-8818239D01*
X14091332Y-8846810D01*
X14091332Y-8932525D01*
X14077047Y-8961096D01*
X14062761Y-8975382D01*
X14034190Y-8989667D01*
X13991332Y-8989667D01*
X14262761Y-8989667D02*
X14234190Y-8975382D01*
X14219904Y-8946810D01*
X14219904Y-8689667D01*
X14491333Y-8975382D02*
X14462761Y-8989667D01*
X14405618Y-8989667D01*
X14377047Y-8975382D01*
X14362761Y-8946810D01*
X14362761Y-8832525D01*
X14377047Y-8803953D01*
X14405618Y-8789667D01*
X14462761Y-8789667D01*
X14491333Y-8803953D01*
X14505618Y-8832525D01*
X14505618Y-8861096D01*
X14362761Y-8889667D01*
X14619904Y-8975382D02*
X14648475Y-8989667D01*
X14705618Y-8989667D01*
X14734190Y-8975382D01*
X14748475Y-8946810D01*
X14748475Y-8932525D01*
X14734190Y-8903953D01*
X14705618Y-8889667D01*
X14662761Y-8889667D01*
X14634190Y-8875382D01*
X14619904Y-8846810D01*
X14619904Y-8832525D01*
X14634190Y-8803953D01*
X14662761Y-8789667D01*
X14705618Y-8789667D01*
X14734190Y-8803953D01*
X14848475Y-9103953D02*
X14862761Y-9089667D01*
X14891333Y-9046810D01*
X14905618Y-9018239D01*
X14919904Y-8975382D01*
X14934190Y-8903953D01*
X14934190Y-8846810D01*
X14919904Y-8775382D01*
X14905618Y-8732525D01*
X14891333Y-8703953D01*
X14862761Y-8661096D01*
X14848475Y-8646810D01*
X8326247Y-9199153D02*
X8326247Y-9300753D01*
X8275447Y-9249953D02*
X8377047Y-9249953D01*
X8805618Y-9385667D02*
X8634190Y-9385667D01*
X8719904Y-9385667D02*
X8719904Y-9085667D01*
X8691333Y-9128525D01*
X8662761Y-9157096D01*
X8634190Y-9171382D01*
X8934190Y-9357096D02*
X8948476Y-9371382D01*
X8934190Y-9385667D01*
X8919904Y-9371382D01*
X8934190Y-9357096D01*
X8934190Y-9385667D01*
X9134190Y-9085667D02*
X9162761Y-9085667D01*
X9191333Y-9099953D01*
X9205618Y-9114239D01*
X9219904Y-9142810D01*
X9234190Y-9199953D01*
X9234190Y-9271382D01*
X9219904Y-9328525D01*
X9205618Y-9357096D01*
X9191333Y-9371382D01*
X9162761Y-9385667D01*
X9134190Y-9385667D01*
X9105618Y-9371382D01*
X9091333Y-9357096D01*
X9077047Y-9328525D01*
X9062761Y-9271382D01*
X9062761Y-9199953D01*
X9077047Y-9142810D01*
X9091333Y-9114239D01*
X9105618Y-9099953D01*
X9134190Y-9085667D01*
X9348476Y-9114239D02*
X9362761Y-9099953D01*
X9391333Y-9085667D01*
X9462761Y-9085667D01*
X9491333Y-9099953D01*
X9505618Y-9114239D01*
X9519904Y-9142810D01*
X9519904Y-9171382D01*
X9505618Y-9214239D01*
X9334190Y-9385667D01*
X9519904Y-9385667D01*
X9648476Y-9385667D02*
X9648476Y-9185667D01*
X9648476Y-9214239D02*
X9662761Y-9199953D01*
X9691333Y-9185667D01*
X9734190Y-9185667D01*
X9762761Y-9199953D01*
X9777047Y-9228525D01*
X9777047Y-9385667D01*
X9777047Y-9228525D02*
X9791333Y-9199953D01*
X9819904Y-9185667D01*
X9862761Y-9185667D01*
X9891333Y-9199953D01*
X9905618Y-9228525D01*
X9905618Y-9385667D01*
X10048476Y-9385667D02*
X10048476Y-9185667D01*
X10048476Y-9214239D02*
X10062761Y-9199953D01*
X10091333Y-9185667D01*
X10134190Y-9185667D01*
X10162761Y-9199953D01*
X10177047Y-9228525D01*
X10177047Y-9385667D01*
X10177047Y-9228525D02*
X10191333Y-9199953D01*
X10219904Y-9185667D01*
X10262761Y-9185667D01*
X10291333Y-9199953D01*
X10305618Y-9228525D01*
X10305618Y-9385667D01*
X10891333Y-9071382D02*
X10634190Y-9457096D01*
X11277047Y-9085667D02*
X11305618Y-9085667D01*
X11334190Y-9099953D01*
X11348475Y-9114239D01*
X11362761Y-9142810D01*
X11377047Y-9199953D01*
X11377047Y-9271382D01*
X11362761Y-9328525D01*
X11348475Y-9357096D01*
X11334190Y-9371382D01*
X11305618Y-9385667D01*
X11277047Y-9385667D01*
X11248475Y-9371382D01*
X11234190Y-9357096D01*
X11219904Y-9328525D01*
X11205618Y-9271382D01*
X11205618Y-9199953D01*
X11219904Y-9142810D01*
X11234190Y-9114239D01*
X11248475Y-9099953D01*
X11277047Y-9085667D01*
X11505618Y-9357096D02*
X11519904Y-9371382D01*
X11505618Y-9385667D01*
X11491333Y-9371382D01*
X11505618Y-9357096D01*
X11505618Y-9385667D01*
X11705618Y-9085667D02*
X11734190Y-9085667D01*
X11762761Y-9099953D01*
X11777047Y-9114239D01*
X11791332Y-9142810D01*
X11805618Y-9199953D01*
X11805618Y-9271382D01*
X11791332Y-9328525D01*
X11777047Y-9357096D01*
X11762761Y-9371382D01*
X11734190Y-9385667D01*
X11705618Y-9385667D01*
X11677047Y-9371382D01*
X11662761Y-9357096D01*
X11648475Y-9328525D01*
X11634190Y-9271382D01*
X11634190Y-9199953D01*
X11648475Y-9142810D01*
X11662761Y-9114239D01*
X11677047Y-9099953D01*
X11705618Y-9085667D01*
X12062761Y-9185667D02*
X12062761Y-9385667D01*
X11991332Y-9071382D02*
X11919904Y-9285667D01*
X12105618Y-9285667D01*
X12277047Y-9085667D02*
X12305618Y-9085667D01*
X12334190Y-9099953D01*
X12348475Y-9114239D01*
X12362761Y-9142810D01*
X12377047Y-9199953D01*
X12377047Y-9271382D01*
X12362761Y-9328525D01*
X12348475Y-9357096D01*
X12334190Y-9371382D01*
X12305618Y-9385667D01*
X12277047Y-9385667D01*
X12248475Y-9371382D01*
X12234190Y-9357096D01*
X12219904Y-9328525D01*
X12205618Y-9271382D01*
X12205618Y-9199953D01*
X12219904Y-9142810D01*
X12234190Y-9114239D01*
X12248475Y-9099953D01*
X12277047Y-9085667D01*
X12491333Y-9085667D02*
X12491333Y-9142810D01*
X12605618Y-9085667D02*
X12605618Y-9142810D01*
X13048475Y-9499953D02*
X13034190Y-9485667D01*
X13005618Y-9442810D01*
X12991332Y-9414239D01*
X12977047Y-9371382D01*
X12962761Y-9299953D01*
X12962761Y-9242810D01*
X12977047Y-9171382D01*
X12991332Y-9128525D01*
X13005618Y-9099953D01*
X13034190Y-9057096D01*
X13048475Y-9042810D01*
X13134190Y-9085667D02*
X13319904Y-9085667D01*
X13219904Y-9199953D01*
X13262761Y-9199953D01*
X13291332Y-9214239D01*
X13305618Y-9228525D01*
X13319904Y-9257096D01*
X13319904Y-9328525D01*
X13305618Y-9357096D01*
X13291332Y-9371382D01*
X13262761Y-9385667D01*
X13177047Y-9385667D01*
X13148475Y-9371382D01*
X13134190Y-9357096D01*
X13434190Y-9114239D02*
X13448475Y-9099953D01*
X13477047Y-9085667D01*
X13548475Y-9085667D01*
X13577047Y-9099953D01*
X13591332Y-9114239D01*
X13605618Y-9142810D01*
X13605618Y-9171382D01*
X13591332Y-9214239D01*
X13419904Y-9385667D01*
X13605618Y-9385667D01*
X13962761Y-9385667D02*
X13962761Y-9085667D01*
X14091332Y-9385667D02*
X14091332Y-9228525D01*
X14077047Y-9199953D01*
X14048475Y-9185667D01*
X14005618Y-9185667D01*
X13977047Y-9199953D01*
X13962761Y-9214239D01*
X14277047Y-9385667D02*
X14248475Y-9371382D01*
X14234190Y-9357096D01*
X14219904Y-9328525D01*
X14219904Y-9242810D01*
X14234190Y-9214239D01*
X14248475Y-9199953D01*
X14277047Y-9185667D01*
X14319904Y-9185667D01*
X14348475Y-9199953D01*
X14362761Y-9214239D01*
X14377047Y-9242810D01*
X14377047Y-9328525D01*
X14362761Y-9357096D01*
X14348475Y-9371382D01*
X14319904Y-9385667D01*
X14277047Y-9385667D01*
X14548475Y-9385667D02*
X14519904Y-9371382D01*
X14505618Y-9342810D01*
X14505618Y-9085667D01*
X14777047Y-9371382D02*
X14748475Y-9385667D01*
X14691333Y-9385667D01*
X14662761Y-9371382D01*
X14648475Y-9342810D01*
X14648475Y-9228525D01*
X14662761Y-9199953D01*
X14691333Y-9185667D01*
X14748475Y-9185667D01*
X14777047Y-9199953D01*
X14791333Y-9228525D01*
X14791333Y-9257096D01*
X14648475Y-9285667D01*
X14905618Y-9371382D02*
X14934190Y-9385667D01*
X14991333Y-9385667D01*
X15019904Y-9371382D01*
X15034190Y-9342810D01*
X15034190Y-9328525D01*
X15019904Y-9299953D01*
X14991333Y-9285667D01*
X14948475Y-9285667D01*
X14919904Y-9271382D01*
X14905618Y-9242810D01*
X14905618Y-9228525D01*
X14919904Y-9199953D01*
X14948475Y-9185667D01*
X14991333Y-9185667D01*
X15019904Y-9199953D01*
X15134190Y-9499953D02*
X15148475Y-9485667D01*
X15177047Y-9442810D01*
X15191333Y-9414239D01*
X15205618Y-9371382D01*
X15219904Y-9299953D01*
X15219904Y-9242810D01*
X15205618Y-9171382D01*
X15191333Y-9128525D01*
X15177047Y-9099953D01*
X15148475Y-9057096D01*
X15134190Y-9042810D01*
X8360197Y-9686634D02*
X8360197Y-9605272D01*
X8278835Y-9605272D01*
X8278835Y-9686634D01*
X8360197Y-9686634D01*
X8805618Y-9781667D02*
X8634190Y-9781667D01*
X8719904Y-9781667D02*
X8719904Y-9481667D01*
X8691333Y-9524525D01*
X8662761Y-9553096D01*
X8634190Y-9567382D01*
X8934190Y-9753096D02*
X8948476Y-9767382D01*
X8934190Y-9781667D01*
X8919904Y-9767382D01*
X8934190Y-9753096D01*
X8934190Y-9781667D01*
X9234190Y-9781667D02*
X9062761Y-9781667D01*
X9148475Y-9781667D02*
X9148475Y-9481667D01*
X9119904Y-9524525D01*
X9091333Y-9553096D01*
X9062761Y-9567382D01*
X9505618Y-9481667D02*
X9362761Y-9481667D01*
X9348476Y-9624525D01*
X9362761Y-9610239D01*
X9391333Y-9595953D01*
X9462761Y-9595953D01*
X9491333Y-9610239D01*
X9505618Y-9624525D01*
X9519904Y-9653096D01*
X9519904Y-9724525D01*
X9505618Y-9753096D01*
X9491333Y-9767382D01*
X9462761Y-9781667D01*
X9391333Y-9781667D01*
X9362761Y-9767382D01*
X9348476Y-9753096D01*
X9648476Y-9781667D02*
X9648476Y-9581667D01*
X9648476Y-9610239D02*
X9662761Y-9595953D01*
X9691333Y-9581667D01*
X9734190Y-9581667D01*
X9762761Y-9595953D01*
X9777047Y-9624525D01*
X9777047Y-9781667D01*
X9777047Y-9624525D02*
X9791333Y-9595953D01*
X9819904Y-9581667D01*
X9862761Y-9581667D01*
X9891333Y-9595953D01*
X9905618Y-9624525D01*
X9905618Y-9781667D01*
X10048476Y-9781667D02*
X10048476Y-9581667D01*
X10048476Y-9610239D02*
X10062761Y-9595953D01*
X10091333Y-9581667D01*
X10134190Y-9581667D01*
X10162761Y-9595953D01*
X10177047Y-9624525D01*
X10177047Y-9781667D01*
X10177047Y-9624525D02*
X10191333Y-9595953D01*
X10219904Y-9581667D01*
X10262761Y-9581667D01*
X10291333Y-9595953D01*
X10305618Y-9624525D01*
X10305618Y-9781667D01*
X10891333Y-9467382D02*
X10634190Y-9853096D01*
X11277047Y-9481667D02*
X11305618Y-9481667D01*
X11334190Y-9495953D01*
X11348475Y-9510239D01*
X11362761Y-9538810D01*
X11377047Y-9595953D01*
X11377047Y-9667382D01*
X11362761Y-9724525D01*
X11348475Y-9753096D01*
X11334190Y-9767382D01*
X11305618Y-9781667D01*
X11277047Y-9781667D01*
X11248475Y-9767382D01*
X11234190Y-9753096D01*
X11219904Y-9724525D01*
X11205618Y-9667382D01*
X11205618Y-9595953D01*
X11219904Y-9538810D01*
X11234190Y-9510239D01*
X11248475Y-9495953D01*
X11277047Y-9481667D01*
X11505618Y-9753096D02*
X11519904Y-9767382D01*
X11505618Y-9781667D01*
X11491333Y-9767382D01*
X11505618Y-9753096D01*
X11505618Y-9781667D01*
X11705618Y-9481667D02*
X11734190Y-9481667D01*
X11762761Y-9495953D01*
X11777047Y-9510239D01*
X11791332Y-9538810D01*
X11805618Y-9595953D01*
X11805618Y-9667382D01*
X11791332Y-9724525D01*
X11777047Y-9753096D01*
X11762761Y-9767382D01*
X11734190Y-9781667D01*
X11705618Y-9781667D01*
X11677047Y-9767382D01*
X11662761Y-9753096D01*
X11648475Y-9724525D01*
X11634190Y-9667382D01*
X11634190Y-9595953D01*
X11648475Y-9538810D01*
X11662761Y-9510239D01*
X11677047Y-9495953D01*
X11705618Y-9481667D01*
X12062761Y-9581667D02*
X12062761Y-9781667D01*
X11991332Y-9467382D02*
X11919904Y-9681667D01*
X12105618Y-9681667D01*
X12362761Y-9481667D02*
X12219904Y-9481667D01*
X12205618Y-9624525D01*
X12219904Y-9610239D01*
X12248475Y-9595953D01*
X12319904Y-9595953D01*
X12348475Y-9610239D01*
X12362761Y-9624525D01*
X12377047Y-9653096D01*
X12377047Y-9724525D01*
X12362761Y-9753096D01*
X12348475Y-9767382D01*
X12319904Y-9781667D01*
X12248475Y-9781667D01*
X12219904Y-9767382D01*
X12205618Y-9753096D01*
X12491333Y-9481667D02*
X12491333Y-9538810D01*
X12605618Y-9481667D02*
X12605618Y-9538810D01*
X13048475Y-9895953D02*
X13034190Y-9881667D01*
X13005618Y-9838810D01*
X12991332Y-9810239D01*
X12977047Y-9767382D01*
X12962761Y-9695953D01*
X12962761Y-9638810D01*
X12977047Y-9567382D01*
X12991332Y-9524525D01*
X13005618Y-9495953D01*
X13034190Y-9453096D01*
X13048475Y-9438810D01*
X13291332Y-9581667D02*
X13291332Y-9781667D01*
X13219904Y-9467382D02*
X13148475Y-9681667D01*
X13334190Y-9681667D01*
X13677047Y-9781667D02*
X13677047Y-9481667D01*
X13805618Y-9781667D02*
X13805618Y-9624525D01*
X13791332Y-9595953D01*
X13762761Y-9581667D01*
X13719904Y-9581667D01*
X13691332Y-9595953D01*
X13677047Y-9610239D01*
X13991332Y-9781667D02*
X13962761Y-9767382D01*
X13948475Y-9753096D01*
X13934190Y-9724525D01*
X13934190Y-9638810D01*
X13948475Y-9610239D01*
X13962761Y-9595953D01*
X13991332Y-9581667D01*
X14034190Y-9581667D01*
X14062761Y-9595953D01*
X14077047Y-9610239D01*
X14091332Y-9638810D01*
X14091332Y-9724525D01*
X14077047Y-9753096D01*
X14062761Y-9767382D01*
X14034190Y-9781667D01*
X13991332Y-9781667D01*
X14262761Y-9781667D02*
X14234190Y-9767382D01*
X14219904Y-9738810D01*
X14219904Y-9481667D01*
X14491333Y-9767382D02*
X14462761Y-9781667D01*
X14405618Y-9781667D01*
X14377047Y-9767382D01*
X14362761Y-9738810D01*
X14362761Y-9624525D01*
X14377047Y-9595953D01*
X14405618Y-9581667D01*
X14462761Y-9581667D01*
X14491333Y-9595953D01*
X14505618Y-9624525D01*
X14505618Y-9653096D01*
X14362761Y-9681667D01*
X14619904Y-9767382D02*
X14648475Y-9781667D01*
X14705618Y-9781667D01*
X14734190Y-9767382D01*
X14748475Y-9738810D01*
X14748475Y-9724525D01*
X14734190Y-9695953D01*
X14705618Y-9681667D01*
X14662761Y-9681667D01*
X14634190Y-9667382D01*
X14619904Y-9638810D01*
X14619904Y-9624525D01*
X14634190Y-9595953D01*
X14662761Y-9581667D01*
X14705618Y-9581667D01*
X14734190Y-9595953D01*
X14848475Y-9895953D02*
X14862761Y-9881667D01*
X14891333Y-9838810D01*
X14905618Y-9810239D01*
X14919904Y-9767382D01*
X14934190Y-9695953D01*
X14934190Y-9638810D01*
X14919904Y-9567382D01*
X14905618Y-9524525D01*
X14891333Y-9495953D01*
X14862761Y-9453096D01*
X14848475Y-9438810D01*
X8202047Y-10216953D02*
X8377047Y-10041953D01*
X8202047Y-9866953D01*
X8027047Y-10041953D01*
X8202047Y-10216953D01*
X8619904Y-9877667D02*
X8805618Y-9877667D01*
X8705618Y-9991953D01*
X8748476Y-9991953D01*
X8777047Y-10006239D01*
X8791333Y-10020525D01*
X8805618Y-10049096D01*
X8805618Y-10120525D01*
X8791333Y-10149096D01*
X8777047Y-10163382D01*
X8748476Y-10177667D01*
X8662761Y-10177667D01*
X8634190Y-10163382D01*
X8619904Y-10149096D01*
X8934190Y-10149096D02*
X8948476Y-10163382D01*
X8934190Y-10177667D01*
X8919904Y-10163382D01*
X8934190Y-10149096D01*
X8934190Y-10177667D01*
X9219904Y-9877667D02*
X9077047Y-9877667D01*
X9062761Y-10020525D01*
X9077047Y-10006239D01*
X9105618Y-9991953D01*
X9177047Y-9991953D01*
X9205618Y-10006239D01*
X9219904Y-10020525D01*
X9234190Y-10049096D01*
X9234190Y-10120525D01*
X9219904Y-10149096D01*
X9205618Y-10163382D01*
X9177047Y-10177667D01*
X9105618Y-10177667D01*
X9077047Y-10163382D01*
X9062761Y-10149096D01*
X9419904Y-9877667D02*
X9448476Y-9877667D01*
X9477047Y-9891953D01*
X9491333Y-9906239D01*
X9505618Y-9934810D01*
X9519904Y-9991953D01*
X9519904Y-10063382D01*
X9505618Y-10120525D01*
X9491333Y-10149096D01*
X9477047Y-10163382D01*
X9448476Y-10177667D01*
X9419904Y-10177667D01*
X9391333Y-10163382D01*
X9377047Y-10149096D01*
X9362761Y-10120525D01*
X9348476Y-10063382D01*
X9348476Y-9991953D01*
X9362761Y-9934810D01*
X9377047Y-9906239D01*
X9391333Y-9891953D01*
X9419904Y-9877667D01*
X9648476Y-10177667D02*
X9648476Y-9977667D01*
X9648476Y-10006239D02*
X9662761Y-9991953D01*
X9691333Y-9977667D01*
X9734190Y-9977667D01*
X9762761Y-9991953D01*
X9777047Y-10020525D01*
X9777047Y-10177667D01*
X9777047Y-10020525D02*
X9791333Y-9991953D01*
X9819904Y-9977667D01*
X9862761Y-9977667D01*
X9891333Y-9991953D01*
X9905618Y-10020525D01*
X9905618Y-10177667D01*
X10048476Y-10177667D02*
X10048476Y-9977667D01*
X10048476Y-10006239D02*
X10062761Y-9991953D01*
X10091333Y-9977667D01*
X10134190Y-9977667D01*
X10162761Y-9991953D01*
X10177047Y-10020525D01*
X10177047Y-10177667D01*
X10177047Y-10020525D02*
X10191333Y-9991953D01*
X10219904Y-9977667D01*
X10262761Y-9977667D01*
X10291333Y-9991953D01*
X10305618Y-10020525D01*
X10305618Y-10177667D01*
X10891333Y-9863382D02*
X10634190Y-10249096D01*
X11277047Y-9877667D02*
X11305618Y-9877667D01*
X11334190Y-9891953D01*
X11348475Y-9906239D01*
X11362761Y-9934810D01*
X11377047Y-9991953D01*
X11377047Y-10063382D01*
X11362761Y-10120525D01*
X11348475Y-10149096D01*
X11334190Y-10163382D01*
X11305618Y-10177667D01*
X11277047Y-10177667D01*
X11248475Y-10163382D01*
X11234190Y-10149096D01*
X11219904Y-10120525D01*
X11205618Y-10063382D01*
X11205618Y-9991953D01*
X11219904Y-9934810D01*
X11234190Y-9906239D01*
X11248475Y-9891953D01*
X11277047Y-9877667D01*
X11505618Y-10149096D02*
X11519904Y-10163382D01*
X11505618Y-10177667D01*
X11491333Y-10163382D01*
X11505618Y-10149096D01*
X11505618Y-10177667D01*
X11805618Y-10177667D02*
X11634190Y-10177667D01*
X11719904Y-10177667D02*
X11719904Y-9877667D01*
X11691332Y-9920525D01*
X11662761Y-9949096D01*
X11634190Y-9963382D01*
X11905618Y-9877667D02*
X12091332Y-9877667D01*
X11991332Y-9991953D01*
X12034190Y-9991953D01*
X12062761Y-10006239D01*
X12077047Y-10020525D01*
X12091332Y-10049096D01*
X12091332Y-10120525D01*
X12077047Y-10149096D01*
X12062761Y-10163382D01*
X12034190Y-10177667D01*
X11948475Y-10177667D01*
X11919904Y-10163382D01*
X11905618Y-10149096D01*
X12262761Y-10006239D02*
X12234190Y-9991953D01*
X12219904Y-9977667D01*
X12205618Y-9949096D01*
X12205618Y-9934810D01*
X12219904Y-9906239D01*
X12234190Y-9891953D01*
X12262761Y-9877667D01*
X12319904Y-9877667D01*
X12348475Y-9891953D01*
X12362761Y-9906239D01*
X12377047Y-9934810D01*
X12377047Y-9949096D01*
X12362761Y-9977667D01*
X12348475Y-9991953D01*
X12319904Y-10006239D01*
X12262761Y-10006239D01*
X12234190Y-10020525D01*
X12219904Y-10034810D01*
X12205618Y-10063382D01*
X12205618Y-10120525D01*
X12219904Y-10149096D01*
X12234190Y-10163382D01*
X12262761Y-10177667D01*
X12319904Y-10177667D01*
X12348475Y-10163382D01*
X12362761Y-10149096D01*
X12377047Y-10120525D01*
X12377047Y-10063382D01*
X12362761Y-10034810D01*
X12348475Y-10020525D01*
X12319904Y-10006239D01*
X12491333Y-9877667D02*
X12491333Y-9934810D01*
X12605618Y-9877667D02*
X12605618Y-9934810D01*
X13048475Y-10291953D02*
X13034190Y-10277667D01*
X13005618Y-10234810D01*
X12991332Y-10206239D01*
X12977047Y-10163382D01*
X12962761Y-10091953D01*
X12962761Y-10034810D01*
X12977047Y-9963382D01*
X12991332Y-9920525D01*
X13005618Y-9891953D01*
X13034190Y-9849096D01*
X13048475Y-9834810D01*
X13148475Y-9906239D02*
X13162761Y-9891953D01*
X13191332Y-9877667D01*
X13262761Y-9877667D01*
X13291332Y-9891953D01*
X13305618Y-9906239D01*
X13319904Y-9934810D01*
X13319904Y-9963382D01*
X13305618Y-10006239D01*
X13134190Y-10177667D01*
X13319904Y-10177667D01*
X13677047Y-10177667D02*
X13677047Y-9877667D01*
X13805618Y-10177667D02*
X13805618Y-10020525D01*
X13791332Y-9991953D01*
X13762761Y-9977667D01*
X13719904Y-9977667D01*
X13691332Y-9991953D01*
X13677047Y-10006239D01*
X13991332Y-10177667D02*
X13962761Y-10163382D01*
X13948475Y-10149096D01*
X13934190Y-10120525D01*
X13934190Y-10034810D01*
X13948475Y-10006239D01*
X13962761Y-9991953D01*
X13991332Y-9977667D01*
X14034190Y-9977667D01*
X14062761Y-9991953D01*
X14077047Y-10006239D01*
X14091332Y-10034810D01*
X14091332Y-10120525D01*
X14077047Y-10149096D01*
X14062761Y-10163382D01*
X14034190Y-10177667D01*
X13991332Y-10177667D01*
X14262761Y-10177667D02*
X14234190Y-10163382D01*
X14219904Y-10134810D01*
X14219904Y-9877667D01*
X14491333Y-10163382D02*
X14462761Y-10177667D01*
X14405618Y-10177667D01*
X14377047Y-10163382D01*
X14362761Y-10134810D01*
X14362761Y-10020525D01*
X14377047Y-9991953D01*
X14405618Y-9977667D01*
X14462761Y-9977667D01*
X14491333Y-9991953D01*
X14505618Y-10020525D01*
X14505618Y-10049096D01*
X14362761Y-10077667D01*
X14619904Y-10163382D02*
X14648475Y-10177667D01*
X14705618Y-10177667D01*
X14734190Y-10163382D01*
X14748475Y-10134810D01*
X14748475Y-10120525D01*
X14734190Y-10091953D01*
X14705618Y-10077667D01*
X14662761Y-10077667D01*
X14634190Y-10063382D01*
X14619904Y-10034810D01*
X14619904Y-10020525D01*
X14634190Y-9991953D01*
X14662761Y-9977667D01*
X14705618Y-9977667D01*
X14734190Y-9991953D01*
X14848475Y-10291953D02*
X14862761Y-10277667D01*
X14891333Y-10234810D01*
X14905618Y-10206239D01*
X14919904Y-10163382D01*
X14934190Y-10091953D01*
X14934190Y-10034810D01*
X14919904Y-9963382D01*
X14905618Y-9920525D01*
X14891333Y-9891953D01*
X14862761Y-9849096D01*
X14848475Y-9834810D01*
M02*
