G04 #@! TF.FileFunction,Soldermask,Top*
%FSLAX46Y46*%
G04 Gerber Fmt 4.6, Leading zero omitted, Abs format (unit mm)*
G04 Created by KiCad (PCBNEW (2015-01-16 BZR 5376)-product) date 25/06/2015 00:13:43*
%MOMM*%
G01*
G04 APERTURE LIST*
%ADD10C,0.150000*%
%ADD11R,1.143000X2.413000*%
%ADD12R,1.143000X1.651000*%
%ADD13R,1.651000X1.143000*%
%ADD14R,2.032000X2.032000*%
%ADD15C,2.032000*%
%ADD16R,2.308860X2.707640*%
%ADD17C,2.506980*%
%ADD18C,3.000000*%
%ADD19R,1.258000X1.708000*%
G04 APERTURE END LIST*
D10*
D11*
X90805000Y-64770000D03*
X92075000Y-64770000D03*
X93345000Y-64770000D03*
X94615000Y-64770000D03*
X95885000Y-64770000D03*
X97155000Y-64770000D03*
X98425000Y-64770000D03*
X99695000Y-64770000D03*
X99695000Y-54610000D03*
X98425000Y-54610000D03*
X97155000Y-54610000D03*
X95885000Y-54610000D03*
X94615000Y-54610000D03*
X93345000Y-54610000D03*
X92075000Y-54610000D03*
X90805000Y-54610000D03*
D12*
X107188000Y-66040000D03*
X108712000Y-66040000D03*
X103378000Y-66040000D03*
X104902000Y-66040000D03*
X107188000Y-53340000D03*
X108712000Y-53340000D03*
X103378000Y-53340000D03*
X104902000Y-53340000D03*
D13*
X91440000Y-69342000D03*
X91440000Y-67818000D03*
X93472000Y-69342000D03*
X93472000Y-67818000D03*
X95504000Y-69342000D03*
X95504000Y-67818000D03*
X96520000Y-48768000D03*
X96520000Y-50292000D03*
X99060000Y-48768000D03*
X99060000Y-50292000D03*
X101600000Y-48768000D03*
X101600000Y-50292000D03*
X104140000Y-48768000D03*
X104140000Y-50292000D03*
X106680000Y-48768000D03*
X106680000Y-50292000D03*
X109220000Y-48768000D03*
X109220000Y-50292000D03*
D14*
X127000000Y-55118000D03*
D15*
X127000000Y-57658000D03*
X127000000Y-60198000D03*
X127000000Y-62738000D03*
D14*
X109220000Y-45720000D03*
D15*
X111760000Y-45720000D03*
X114300000Y-45720000D03*
X116840000Y-45720000D03*
D14*
X99060000Y-45720000D03*
D15*
X101600000Y-45720000D03*
X104140000Y-45720000D03*
X106680000Y-45720000D03*
D14*
X88900000Y-45720000D03*
D15*
X91440000Y-45720000D03*
X93980000Y-45720000D03*
X96520000Y-45720000D03*
D14*
X109220000Y-72390000D03*
D15*
X111760000Y-72390000D03*
X114300000Y-72390000D03*
X116840000Y-72390000D03*
D14*
X99060000Y-72390000D03*
D15*
X101600000Y-72390000D03*
X104140000Y-72390000D03*
X106680000Y-72390000D03*
D14*
X88900000Y-72390000D03*
D15*
X91440000Y-72390000D03*
X93980000Y-72390000D03*
X96520000Y-72390000D03*
D14*
X86360000Y-55118000D03*
D15*
X86360000Y-57658000D03*
X86360000Y-60198000D03*
X86360000Y-62738000D03*
D16*
X116611400Y-67310000D03*
X120624600Y-67310000D03*
X116611400Y-52070000D03*
X120624600Y-52070000D03*
D17*
X104775000Y-56515000D03*
X107315000Y-56515000D03*
X117475000Y-56515000D03*
X122555000Y-56515000D03*
X104775000Y-62865000D03*
X107315000Y-62865000D03*
X117475000Y-62865000D03*
X122555000Y-62865000D03*
D18*
X86868000Y-49530000D03*
D19*
X92075000Y-51623000D03*
X92075000Y-49723000D03*
X90551000Y-51623000D03*
X90551000Y-49723000D03*
M02*
