G04 #@! TF.FileFunction,Copper,L4,Bot,Signal*
%FSLAX46Y46*%
G04 Gerber Fmt 4.6, Leading zero omitted, Abs format (unit mm)*
G04 Created by KiCad (PCBNEW (2015-01-16 BZR 5376)-product) date 25/06/2015 00:13:43*
%MOMM*%
G01*
G04 APERTURE LIST*
%ADD10C,0.150000*%
%ADD11R,1.524000X1.524000*%
%ADD12C,1.524000*%
%ADD13C,1.998980*%
%ADD14C,0.800100*%
%ADD15C,0.254000*%
G04 APERTURE END LIST*
D10*
D11*
X127000000Y-55118000D03*
D12*
X127000000Y-57658000D03*
X127000000Y-60198000D03*
X127000000Y-62738000D03*
D11*
X109220000Y-45720000D03*
D12*
X111760000Y-45720000D03*
X114300000Y-45720000D03*
X116840000Y-45720000D03*
D11*
X99060000Y-45720000D03*
D12*
X101600000Y-45720000D03*
X104140000Y-45720000D03*
X106680000Y-45720000D03*
D11*
X88900000Y-45720000D03*
D12*
X91440000Y-45720000D03*
X93980000Y-45720000D03*
X96520000Y-45720000D03*
D11*
X109220000Y-72390000D03*
D12*
X111760000Y-72390000D03*
X114300000Y-72390000D03*
X116840000Y-72390000D03*
D11*
X99060000Y-72390000D03*
D12*
X101600000Y-72390000D03*
X104140000Y-72390000D03*
X106680000Y-72390000D03*
D11*
X88900000Y-72390000D03*
D12*
X91440000Y-72390000D03*
X93980000Y-72390000D03*
X96520000Y-72390000D03*
D11*
X86360000Y-55118000D03*
D12*
X86360000Y-57658000D03*
X86360000Y-60198000D03*
X86360000Y-62738000D03*
D13*
X104775000Y-56515000D03*
X107315000Y-56515000D03*
X117475000Y-56515000D03*
X122555000Y-56515000D03*
X104775000Y-62865000D03*
X107315000Y-62865000D03*
X117475000Y-62865000D03*
X122555000Y-62865000D03*
D14*
X94742000Y-60452000D03*
X113030000Y-60706000D03*
X90932000Y-58420000D03*
X90932000Y-56896000D03*
X101092000Y-52578000D03*
X102108000Y-57404000D03*
X110744000Y-58420000D03*
X96774000Y-58674000D03*
X111760000Y-59690000D03*
X95758000Y-59690000D03*
X99695000Y-66802000D03*
X92075000Y-48260000D03*
X90551000Y-48260000D03*
X102108000Y-53340000D03*
X102108000Y-66040000D03*
X89535000Y-52959000D03*
D15*
X116840000Y-46990000D02*
X116332000Y-47498000D01*
X116332000Y-47498000D02*
X113284000Y-47498000D01*
X114046000Y-69342000D02*
X116840000Y-72136000D01*
X113030000Y-68326000D02*
X114046000Y-69342000D01*
X116840000Y-46990000D02*
X116840000Y-45720000D01*
X116840000Y-72136000D02*
X116840000Y-72390000D01*
X113030000Y-47752000D02*
X113030000Y-50800000D01*
X113284000Y-47498000D02*
X113030000Y-47752000D01*
X113030000Y-60706000D02*
X113030000Y-50800000D01*
X113030000Y-60706000D02*
X113030000Y-61468000D01*
X113030000Y-61468000D02*
X113030000Y-68326000D01*
X88138000Y-57658000D02*
X86360000Y-57658000D01*
X93472000Y-47752000D02*
X91440000Y-45720000D01*
X90424000Y-55372000D02*
X88392000Y-57404000D01*
X90424000Y-55372000D02*
X92202000Y-55372000D01*
X92202000Y-55372000D02*
X93472000Y-54102000D01*
X88392000Y-57404000D02*
X88138000Y-57658000D01*
X91440000Y-58928000D02*
X90932000Y-58420000D01*
X91440000Y-72390000D02*
X91440000Y-58928000D01*
X93472000Y-54102000D02*
X93472000Y-51562000D01*
X93472000Y-51562000D02*
X93472000Y-47752000D01*
X93980000Y-72390000D02*
X93980000Y-69850000D01*
X90932000Y-56896000D02*
X90932000Y-56896000D01*
X88900000Y-60198000D02*
X86360000Y-60198000D01*
X89408000Y-59690000D02*
X88900000Y-60198000D01*
X89408000Y-58420000D02*
X89408000Y-59690000D01*
X90932000Y-56896000D02*
X89408000Y-58420000D01*
X90932000Y-56896000D02*
X90932000Y-56896000D01*
X92710000Y-56896000D02*
X90932000Y-56896000D01*
X94742000Y-46482000D02*
X93980000Y-45720000D01*
X94742000Y-51054000D02*
X94742000Y-55372000D01*
X94742000Y-51054000D02*
X94742000Y-46482000D01*
X92456000Y-68326000D02*
X92456000Y-58420000D01*
X93980000Y-69850000D02*
X92456000Y-68326000D01*
X92456000Y-56896000D02*
X92710000Y-56896000D01*
X92456000Y-58420000D02*
X92456000Y-56896000D01*
X93218000Y-56896000D02*
X92710000Y-56896000D01*
X94742000Y-55372000D02*
X93218000Y-56896000D01*
X99060000Y-45720000D02*
X99060000Y-46736000D01*
X93726000Y-67056000D02*
X99060000Y-72390000D01*
X99060000Y-46736000D02*
X96266000Y-49530000D01*
X93726000Y-58420000D02*
X93726000Y-67056000D01*
X96266000Y-55880000D02*
X93726000Y-58420000D01*
X96266000Y-49530000D02*
X96266000Y-55880000D01*
X101600000Y-72390000D02*
X101600000Y-71628000D01*
X101600000Y-46482000D02*
X101600000Y-45720000D01*
X99568000Y-48514000D02*
X101600000Y-46482000D01*
X98298000Y-60960000D02*
X99568000Y-59690000D01*
X101600000Y-71628000D02*
X98298000Y-68326000D01*
X98298000Y-68326000D02*
X98298000Y-60960000D01*
X99568000Y-59690000D02*
X99568000Y-48514000D01*
X104140000Y-72390000D02*
X104140000Y-69596000D01*
X101092000Y-52578000D02*
X101092000Y-50038000D01*
X104140000Y-69596000D02*
X101092000Y-66548000D01*
X104140000Y-46990000D02*
X104140000Y-45720000D01*
X101092000Y-50038000D02*
X104140000Y-46990000D01*
X101092000Y-66548000D02*
X101092000Y-52578000D01*
X102108000Y-57404000D02*
X102108000Y-57404000D01*
X102108000Y-57404000D02*
X102108000Y-55372000D01*
X102108000Y-57404000D02*
X102108000Y-63500000D01*
X106680000Y-50800000D02*
X106680000Y-45720000D01*
X102108000Y-63500000D02*
X106680000Y-68072000D01*
X106680000Y-68072000D02*
X106680000Y-72390000D01*
X102108000Y-55372000D02*
X106680000Y-50800000D01*
X109220000Y-46990000D02*
X110744000Y-48514000D01*
X109220000Y-70612000D02*
X110744000Y-69088000D01*
X109220000Y-72390000D02*
X109220000Y-70612000D01*
X110744000Y-48514000D02*
X110744000Y-58420000D01*
X109220000Y-45720000D02*
X109220000Y-46990000D01*
X110744000Y-69088000D02*
X110744000Y-58420000D01*
X111760000Y-72390000D02*
X111760000Y-70866000D01*
X111760000Y-70866000D02*
X111760000Y-70612000D01*
X111760000Y-45720000D02*
X111760000Y-52578000D01*
X111760000Y-52578000D02*
X111760000Y-57404000D01*
X111760000Y-57404000D02*
X111760000Y-59690000D01*
X111760000Y-70612000D02*
X111760000Y-59690000D01*
M02*
