G04 #@! TF.FileFunction,Legend,Top*
%FSLAX46Y46*%
G04 Gerber Fmt 4.6, Leading zero omitted, Abs format (unit mm)*
G04 Created by KiCad (PCBNEW (2015-01-16 BZR 5376)-product) date 25/06/2015 00:13:43*
%MOMM*%
G01*
G04 APERTURE LIST*
%ADD10C,0.150000*%
%ADD11C,1.000000*%
%ADD12C,0.127000*%
%ADD13C,0.254000*%
%ADD14C,0.381000*%
%ADD15C,0.203200*%
%ADD16C,0.114300*%
%ADD17C,0.088900*%
%ADD18C,0.304800*%
%ADD19R,1.143000X2.413000*%
%ADD20R,1.143000X1.651000*%
%ADD21R,1.651000X1.143000*%
%ADD22R,2.032000X2.032000*%
%ADD23C,2.032000*%
%ADD24R,2.308860X2.707640*%
%ADD25C,2.506980*%
%ADD26C,3.000000*%
%ADD27R,1.258000X1.708000*%
G04 APERTURE END LIST*
D10*
D11*
X128576605Y-52705000D02*
G75*
G03X128576605Y-52705000I-179605J0D01*
G01*
X108204000Y-47625000D02*
G75*
G03X108204000Y-47625000I-127000J0D01*
G01*
X97917000Y-47752000D02*
G75*
G03X97917000Y-47752000I-127000J0D01*
G01*
X86614000Y-46609000D02*
G75*
G03X86614000Y-46609000I-127000J0D01*
G01*
X88773000Y-54356000D02*
G75*
G03X88773000Y-54356000I-127000J0D01*
G01*
X89535000Y-64897000D02*
G75*
G03X89535000Y-64897000I-127000J0D01*
G01*
X109220000Y-69850000D02*
G75*
G03X109220000Y-69850000I-127000J0D01*
G01*
X98806000Y-69977000D02*
G75*
G03X98806000Y-69977000I-127000J0D01*
G01*
X87503000Y-69723000D02*
G75*
G03X87503000Y-69723000I-127000J0D01*
G01*
D12*
X100330000Y-63881000D02*
X90170000Y-63881000D01*
X90170000Y-63881000D02*
X90170000Y-55499000D01*
X90170000Y-55499000D02*
X100330000Y-55499000D01*
X100330000Y-55499000D02*
X100330000Y-63881000D01*
X90170000Y-59055000D02*
X90932000Y-59055000D01*
X90932000Y-59055000D02*
X90932000Y-60325000D01*
X90932000Y-60325000D02*
X90170000Y-60325000D01*
X106807000Y-65405000D02*
X109093000Y-65405000D01*
X109093000Y-65405000D02*
X109093000Y-66675000D01*
X109093000Y-66675000D02*
X106807000Y-66675000D01*
X106807000Y-66675000D02*
X106807000Y-65405000D01*
X102997000Y-65405000D02*
X105283000Y-65405000D01*
X105283000Y-65405000D02*
X105283000Y-66675000D01*
X105283000Y-66675000D02*
X102997000Y-66675000D01*
X102997000Y-66675000D02*
X102997000Y-65405000D01*
X106807000Y-52705000D02*
X109093000Y-52705000D01*
X109093000Y-52705000D02*
X109093000Y-53975000D01*
X109093000Y-53975000D02*
X106807000Y-53975000D01*
X106807000Y-53975000D02*
X106807000Y-52705000D01*
X102997000Y-52705000D02*
X105283000Y-52705000D01*
X105283000Y-52705000D02*
X105283000Y-53975000D01*
X105283000Y-53975000D02*
X102997000Y-53975000D01*
X102997000Y-53975000D02*
X102997000Y-52705000D01*
X90805000Y-69723000D02*
X90805000Y-67437000D01*
X90805000Y-67437000D02*
X92075000Y-67437000D01*
X92075000Y-67437000D02*
X92075000Y-69723000D01*
X92075000Y-69723000D02*
X90805000Y-69723000D01*
X92837000Y-69723000D02*
X92837000Y-67437000D01*
X92837000Y-67437000D02*
X94107000Y-67437000D01*
X94107000Y-67437000D02*
X94107000Y-69723000D01*
X94107000Y-69723000D02*
X92837000Y-69723000D01*
X94869000Y-69723000D02*
X94869000Y-67437000D01*
X94869000Y-67437000D02*
X96139000Y-67437000D01*
X96139000Y-67437000D02*
X96139000Y-69723000D01*
X96139000Y-69723000D02*
X94869000Y-69723000D01*
X97155000Y-48387000D02*
X97155000Y-50673000D01*
X97155000Y-50673000D02*
X95885000Y-50673000D01*
X95885000Y-50673000D02*
X95885000Y-48387000D01*
X95885000Y-48387000D02*
X97155000Y-48387000D01*
X99695000Y-48387000D02*
X99695000Y-50673000D01*
X99695000Y-50673000D02*
X98425000Y-50673000D01*
X98425000Y-50673000D02*
X98425000Y-48387000D01*
X98425000Y-48387000D02*
X99695000Y-48387000D01*
X102235000Y-48387000D02*
X102235000Y-50673000D01*
X102235000Y-50673000D02*
X100965000Y-50673000D01*
X100965000Y-50673000D02*
X100965000Y-48387000D01*
X100965000Y-48387000D02*
X102235000Y-48387000D01*
X104775000Y-48387000D02*
X104775000Y-50673000D01*
X104775000Y-50673000D02*
X103505000Y-50673000D01*
X103505000Y-50673000D02*
X103505000Y-48387000D01*
X103505000Y-48387000D02*
X104775000Y-48387000D01*
X107315000Y-48387000D02*
X107315000Y-50673000D01*
X107315000Y-50673000D02*
X106045000Y-50673000D01*
X106045000Y-50673000D02*
X106045000Y-48387000D01*
X106045000Y-48387000D02*
X107315000Y-48387000D01*
X109855000Y-48387000D02*
X109855000Y-50673000D01*
X109855000Y-50673000D02*
X108585000Y-50673000D01*
X108585000Y-50673000D02*
X108585000Y-48387000D01*
X108585000Y-48387000D02*
X109855000Y-48387000D01*
D13*
X125730000Y-64008000D02*
X125730000Y-53848000D01*
X128270000Y-64008000D02*
X128270000Y-53848000D01*
X128270000Y-53848000D02*
X125730000Y-53848000D01*
X125730000Y-64008000D02*
X128270000Y-64008000D01*
X118110000Y-46990000D02*
X107950000Y-46990000D01*
X118110000Y-44450000D02*
X107950000Y-44450000D01*
X107950000Y-44450000D02*
X107950000Y-46990000D01*
X118110000Y-46990000D02*
X118110000Y-44450000D01*
X107950000Y-46990000D02*
X97790000Y-46990000D01*
X107950000Y-44450000D02*
X97790000Y-44450000D01*
X97790000Y-44450000D02*
X97790000Y-46990000D01*
X107950000Y-46990000D02*
X107950000Y-44450000D01*
X97790000Y-46990000D02*
X87630000Y-46990000D01*
X97790000Y-44450000D02*
X87630000Y-44450000D01*
X87630000Y-44450000D02*
X87630000Y-46990000D01*
X97790000Y-46990000D02*
X97790000Y-44450000D01*
X118110000Y-73660000D02*
X107950000Y-73660000D01*
X118110000Y-71120000D02*
X107950000Y-71120000D01*
X107950000Y-71120000D02*
X107950000Y-73660000D01*
X118110000Y-73660000D02*
X118110000Y-71120000D01*
X107950000Y-73660000D02*
X97790000Y-73660000D01*
X107950000Y-71120000D02*
X97790000Y-71120000D01*
X97790000Y-71120000D02*
X97790000Y-73660000D01*
X107950000Y-73660000D02*
X107950000Y-71120000D01*
X97790000Y-73660000D02*
X87630000Y-73660000D01*
X97790000Y-71120000D02*
X87630000Y-71120000D01*
X87630000Y-71120000D02*
X87630000Y-73660000D01*
X97790000Y-73660000D02*
X97790000Y-71120000D01*
X85090000Y-64008000D02*
X85090000Y-53848000D01*
X87630000Y-64008000D02*
X87630000Y-53848000D01*
X87630000Y-53848000D02*
X85090000Y-53848000D01*
X85090000Y-64008000D02*
X87630000Y-64008000D01*
D12*
X117856000Y-67310000D02*
X117652800Y-67310000D01*
X116332000Y-65405000D02*
X120904000Y-65405000D01*
X120904000Y-65405000D02*
X120904000Y-66040000D01*
X119278400Y-69215000D02*
X119278400Y-65405000D01*
X119608600Y-69215000D02*
X119608600Y-65405000D01*
X116332000Y-68580000D02*
X116332000Y-69215000D01*
X116332000Y-69215000D02*
X120904000Y-69215000D01*
X120904000Y-69215000D02*
X120904000Y-68580000D01*
X116332000Y-66040000D02*
X116332000Y-65405000D01*
X118491000Y-67310000D02*
X117856000Y-66835020D01*
X117856000Y-66835020D02*
X117856000Y-67310000D01*
X117856000Y-67310000D02*
X117856000Y-67784980D01*
X117856000Y-67784980D02*
X118491000Y-67310000D01*
X118491000Y-67310000D02*
X118491000Y-66992500D01*
X118491000Y-66992500D02*
X118333520Y-66835020D01*
X118491000Y-67310000D02*
X118491000Y-67627500D01*
X118491000Y-67627500D02*
X118648480Y-67784980D01*
X118491000Y-67310000D02*
X119600980Y-67310000D01*
X117856000Y-52070000D02*
X117652800Y-52070000D01*
X116332000Y-50165000D02*
X120904000Y-50165000D01*
X120904000Y-50165000D02*
X120904000Y-50800000D01*
X119278400Y-53975000D02*
X119278400Y-50165000D01*
X119608600Y-53975000D02*
X119608600Y-50165000D01*
X116332000Y-53340000D02*
X116332000Y-53975000D01*
X116332000Y-53975000D02*
X120904000Y-53975000D01*
X120904000Y-53975000D02*
X120904000Y-53340000D01*
X116332000Y-50800000D02*
X116332000Y-50165000D01*
X118491000Y-52070000D02*
X117856000Y-51595020D01*
X117856000Y-51595020D02*
X117856000Y-52070000D01*
X117856000Y-52070000D02*
X117856000Y-52544980D01*
X117856000Y-52544980D02*
X118491000Y-52070000D01*
X118491000Y-52070000D02*
X118491000Y-51752500D01*
X118491000Y-51752500D02*
X118333520Y-51595020D01*
X118491000Y-52070000D02*
X118491000Y-52387500D01*
X118491000Y-52387500D02*
X118648480Y-52544980D01*
X118491000Y-52070000D02*
X119600980Y-52070000D01*
D14*
X105038026Y-60325000D02*
G75*
G03X105038026Y-60325000I-898026J0D01*
G01*
X102870000Y-54610000D02*
X124460000Y-54610000D01*
X124460000Y-54610000D02*
X124460000Y-58420000D01*
X124460000Y-58420000D02*
X102870000Y-58420000D01*
X102870000Y-58420000D02*
X102870000Y-54610000D01*
X105038026Y-66675000D02*
G75*
G03X105038026Y-66675000I-898026J0D01*
G01*
X102870000Y-60960000D02*
X124460000Y-60960000D01*
X124460000Y-60960000D02*
X124460000Y-64770000D01*
X124460000Y-64770000D02*
X102870000Y-64770000D01*
X102870000Y-64770000D02*
X102870000Y-60960000D01*
D10*
X91475000Y-51023000D02*
X91475000Y-50323000D01*
X92675000Y-50323000D02*
X92675000Y-51023000D01*
X89951000Y-51023000D02*
X89951000Y-50323000D01*
X91151000Y-50323000D02*
X91151000Y-51023000D01*
D15*
X93744143Y-51698071D02*
X93744143Y-52623357D01*
X93798571Y-52732214D01*
X93853000Y-52786643D01*
X93961857Y-52841071D01*
X94179571Y-52841071D01*
X94288429Y-52786643D01*
X94342857Y-52732214D01*
X94397286Y-52623357D01*
X94397286Y-51698071D01*
X95540286Y-52841071D02*
X94887143Y-52841071D01*
X95213715Y-52841071D02*
X95213715Y-51698071D01*
X95104858Y-51861357D01*
X94996000Y-51970214D01*
X94887143Y-52024643D01*
D16*
X107529085Y-67539810D02*
X107376685Y-67297905D01*
X107267828Y-67539810D02*
X107267828Y-67031810D01*
X107442000Y-67031810D01*
X107485542Y-67056000D01*
X107507314Y-67080190D01*
X107529085Y-67128571D01*
X107529085Y-67201143D01*
X107507314Y-67249524D01*
X107485542Y-67273714D01*
X107442000Y-67297905D01*
X107267828Y-67297905D01*
X107964514Y-67539810D02*
X107703257Y-67539810D01*
X107833885Y-67539810D02*
X107833885Y-67031810D01*
X107790342Y-67104381D01*
X107746800Y-67152762D01*
X107703257Y-67176952D01*
X108116914Y-67031810D02*
X108399943Y-67031810D01*
X108247543Y-67225333D01*
X108312857Y-67225333D01*
X108356400Y-67249524D01*
X108378171Y-67273714D01*
X108399943Y-67322095D01*
X108399943Y-67443048D01*
X108378171Y-67491429D01*
X108356400Y-67515619D01*
X108312857Y-67539810D01*
X108182229Y-67539810D01*
X108138686Y-67515619D01*
X108116914Y-67491429D01*
X102068085Y-67539810D02*
X101915685Y-67297905D01*
X101806828Y-67539810D02*
X101806828Y-67031810D01*
X101981000Y-67031810D01*
X102024542Y-67056000D01*
X102046314Y-67080190D01*
X102068085Y-67128571D01*
X102068085Y-67201143D01*
X102046314Y-67249524D01*
X102024542Y-67273714D01*
X101981000Y-67297905D01*
X101806828Y-67297905D01*
X102503514Y-67539810D02*
X102242257Y-67539810D01*
X102372885Y-67539810D02*
X102372885Y-67031810D01*
X102329342Y-67104381D01*
X102285800Y-67152762D01*
X102242257Y-67176952D01*
X102677686Y-67080190D02*
X102699457Y-67056000D01*
X102743000Y-67031810D01*
X102851857Y-67031810D01*
X102895400Y-67056000D01*
X102917171Y-67080190D01*
X102938943Y-67128571D01*
X102938943Y-67176952D01*
X102917171Y-67249524D01*
X102655914Y-67539810D01*
X102938943Y-67539810D01*
X107656085Y-52299810D02*
X107503685Y-52057905D01*
X107394828Y-52299810D02*
X107394828Y-51791810D01*
X107569000Y-51791810D01*
X107612542Y-51816000D01*
X107634314Y-51840190D01*
X107656085Y-51888571D01*
X107656085Y-51961143D01*
X107634314Y-52009524D01*
X107612542Y-52033714D01*
X107569000Y-52057905D01*
X107394828Y-52057905D01*
X108091514Y-52299810D02*
X107830257Y-52299810D01*
X107960885Y-52299810D02*
X107960885Y-51791810D01*
X107917342Y-51864381D01*
X107873800Y-51912762D01*
X107830257Y-51936952D01*
X108526943Y-52299810D02*
X108265686Y-52299810D01*
X108396314Y-52299810D02*
X108396314Y-51791810D01*
X108352771Y-51864381D01*
X108309229Y-51912762D01*
X108265686Y-51936952D01*
X103846085Y-52299810D02*
X103693685Y-52057905D01*
X103584828Y-52299810D02*
X103584828Y-51791810D01*
X103759000Y-51791810D01*
X103802542Y-51816000D01*
X103824314Y-51840190D01*
X103846085Y-51888571D01*
X103846085Y-51961143D01*
X103824314Y-52009524D01*
X103802542Y-52033714D01*
X103759000Y-52057905D01*
X103584828Y-52057905D01*
X104281514Y-52299810D02*
X104020257Y-52299810D01*
X104150885Y-52299810D02*
X104150885Y-51791810D01*
X104107342Y-51864381D01*
X104063800Y-51912762D01*
X104020257Y-51936952D01*
X104564543Y-51791810D02*
X104608086Y-51791810D01*
X104651629Y-51816000D01*
X104673400Y-51840190D01*
X104695171Y-51888571D01*
X104716943Y-51985333D01*
X104716943Y-52106286D01*
X104695171Y-52203048D01*
X104673400Y-52251429D01*
X104651629Y-52275619D01*
X104608086Y-52299810D01*
X104564543Y-52299810D01*
X104521000Y-52275619D01*
X104499229Y-52251429D01*
X104477457Y-52203048D01*
X104455686Y-52106286D01*
X104455686Y-51985333D01*
X104477457Y-51888571D01*
X104499229Y-51840190D01*
X104521000Y-51816000D01*
X104564543Y-51791810D01*
X91363800Y-70587810D02*
X91211400Y-70345905D01*
X91102543Y-70587810D02*
X91102543Y-70079810D01*
X91276715Y-70079810D01*
X91320257Y-70104000D01*
X91342029Y-70128190D01*
X91363800Y-70176571D01*
X91363800Y-70249143D01*
X91342029Y-70297524D01*
X91320257Y-70321714D01*
X91276715Y-70345905D01*
X91102543Y-70345905D01*
X91581515Y-70587810D02*
X91668600Y-70587810D01*
X91712143Y-70563619D01*
X91733915Y-70539429D01*
X91777457Y-70466857D01*
X91799229Y-70370095D01*
X91799229Y-70176571D01*
X91777457Y-70128190D01*
X91755686Y-70104000D01*
X91712143Y-70079810D01*
X91625057Y-70079810D01*
X91581515Y-70104000D01*
X91559743Y-70128190D01*
X91537972Y-70176571D01*
X91537972Y-70297524D01*
X91559743Y-70345905D01*
X91581515Y-70370095D01*
X91625057Y-70394286D01*
X91712143Y-70394286D01*
X91755686Y-70370095D01*
X91777457Y-70345905D01*
X91799229Y-70297524D01*
X93395800Y-70587810D02*
X93243400Y-70345905D01*
X93134543Y-70587810D02*
X93134543Y-70079810D01*
X93308715Y-70079810D01*
X93352257Y-70104000D01*
X93374029Y-70128190D01*
X93395800Y-70176571D01*
X93395800Y-70249143D01*
X93374029Y-70297524D01*
X93352257Y-70321714D01*
X93308715Y-70345905D01*
X93134543Y-70345905D01*
X93657057Y-70297524D02*
X93613515Y-70273333D01*
X93591743Y-70249143D01*
X93569972Y-70200762D01*
X93569972Y-70176571D01*
X93591743Y-70128190D01*
X93613515Y-70104000D01*
X93657057Y-70079810D01*
X93744143Y-70079810D01*
X93787686Y-70104000D01*
X93809457Y-70128190D01*
X93831229Y-70176571D01*
X93831229Y-70200762D01*
X93809457Y-70249143D01*
X93787686Y-70273333D01*
X93744143Y-70297524D01*
X93657057Y-70297524D01*
X93613515Y-70321714D01*
X93591743Y-70345905D01*
X93569972Y-70394286D01*
X93569972Y-70491048D01*
X93591743Y-70539429D01*
X93613515Y-70563619D01*
X93657057Y-70587810D01*
X93744143Y-70587810D01*
X93787686Y-70563619D01*
X93809457Y-70539429D01*
X93831229Y-70491048D01*
X93831229Y-70394286D01*
X93809457Y-70345905D01*
X93787686Y-70321714D01*
X93744143Y-70297524D01*
X95427800Y-70587810D02*
X95275400Y-70345905D01*
X95166543Y-70587810D02*
X95166543Y-70079810D01*
X95340715Y-70079810D01*
X95384257Y-70104000D01*
X95406029Y-70128190D01*
X95427800Y-70176571D01*
X95427800Y-70249143D01*
X95406029Y-70297524D01*
X95384257Y-70321714D01*
X95340715Y-70345905D01*
X95166543Y-70345905D01*
X95580200Y-70079810D02*
X95885000Y-70079810D01*
X95689057Y-70587810D01*
X96443800Y-51537810D02*
X96291400Y-51295905D01*
X96182543Y-51537810D02*
X96182543Y-51029810D01*
X96356715Y-51029810D01*
X96400257Y-51054000D01*
X96422029Y-51078190D01*
X96443800Y-51126571D01*
X96443800Y-51199143D01*
X96422029Y-51247524D01*
X96400257Y-51271714D01*
X96356715Y-51295905D01*
X96182543Y-51295905D01*
X96879229Y-51537810D02*
X96617972Y-51537810D01*
X96748600Y-51537810D02*
X96748600Y-51029810D01*
X96705057Y-51102381D01*
X96661515Y-51150762D01*
X96617972Y-51174952D01*
X98983800Y-51537810D02*
X98831400Y-51295905D01*
X98722543Y-51537810D02*
X98722543Y-51029810D01*
X98896715Y-51029810D01*
X98940257Y-51054000D01*
X98962029Y-51078190D01*
X98983800Y-51126571D01*
X98983800Y-51199143D01*
X98962029Y-51247524D01*
X98940257Y-51271714D01*
X98896715Y-51295905D01*
X98722543Y-51295905D01*
X99157972Y-51078190D02*
X99179743Y-51054000D01*
X99223286Y-51029810D01*
X99332143Y-51029810D01*
X99375686Y-51054000D01*
X99397457Y-51078190D01*
X99419229Y-51126571D01*
X99419229Y-51174952D01*
X99397457Y-51247524D01*
X99136200Y-51537810D01*
X99419229Y-51537810D01*
X101523800Y-51537810D02*
X101371400Y-51295905D01*
X101262543Y-51537810D02*
X101262543Y-51029810D01*
X101436715Y-51029810D01*
X101480257Y-51054000D01*
X101502029Y-51078190D01*
X101523800Y-51126571D01*
X101523800Y-51199143D01*
X101502029Y-51247524D01*
X101480257Y-51271714D01*
X101436715Y-51295905D01*
X101262543Y-51295905D01*
X101676200Y-51029810D02*
X101959229Y-51029810D01*
X101806829Y-51223333D01*
X101872143Y-51223333D01*
X101915686Y-51247524D01*
X101937457Y-51271714D01*
X101959229Y-51320095D01*
X101959229Y-51441048D01*
X101937457Y-51489429D01*
X101915686Y-51513619D01*
X101872143Y-51537810D01*
X101741515Y-51537810D01*
X101697972Y-51513619D01*
X101676200Y-51489429D01*
X104063800Y-51537810D02*
X103911400Y-51295905D01*
X103802543Y-51537810D02*
X103802543Y-51029810D01*
X103976715Y-51029810D01*
X104020257Y-51054000D01*
X104042029Y-51078190D01*
X104063800Y-51126571D01*
X104063800Y-51199143D01*
X104042029Y-51247524D01*
X104020257Y-51271714D01*
X103976715Y-51295905D01*
X103802543Y-51295905D01*
X104455686Y-51199143D02*
X104455686Y-51537810D01*
X104346829Y-51005619D02*
X104237972Y-51368476D01*
X104521000Y-51368476D01*
X106603800Y-51537810D02*
X106451400Y-51295905D01*
X106342543Y-51537810D02*
X106342543Y-51029810D01*
X106516715Y-51029810D01*
X106560257Y-51054000D01*
X106582029Y-51078190D01*
X106603800Y-51126571D01*
X106603800Y-51199143D01*
X106582029Y-51247524D01*
X106560257Y-51271714D01*
X106516715Y-51295905D01*
X106342543Y-51295905D01*
X107017457Y-51029810D02*
X106799743Y-51029810D01*
X106777972Y-51271714D01*
X106799743Y-51247524D01*
X106843286Y-51223333D01*
X106952143Y-51223333D01*
X106995686Y-51247524D01*
X107017457Y-51271714D01*
X107039229Y-51320095D01*
X107039229Y-51441048D01*
X107017457Y-51489429D01*
X106995686Y-51513619D01*
X106952143Y-51537810D01*
X106843286Y-51537810D01*
X106799743Y-51513619D01*
X106777972Y-51489429D01*
X109143800Y-51537810D02*
X108991400Y-51295905D01*
X108882543Y-51537810D02*
X108882543Y-51029810D01*
X109056715Y-51029810D01*
X109100257Y-51054000D01*
X109122029Y-51078190D01*
X109143800Y-51126571D01*
X109143800Y-51199143D01*
X109122029Y-51247524D01*
X109100257Y-51271714D01*
X109056715Y-51295905D01*
X108882543Y-51295905D01*
X109535686Y-51029810D02*
X109448600Y-51029810D01*
X109405057Y-51054000D01*
X109383286Y-51078190D01*
X109339743Y-51150762D01*
X109317972Y-51247524D01*
X109317972Y-51441048D01*
X109339743Y-51489429D01*
X109361515Y-51513619D01*
X109405057Y-51537810D01*
X109492143Y-51537810D01*
X109535686Y-51513619D01*
X109557457Y-51489429D01*
X109579229Y-51441048D01*
X109579229Y-51320095D01*
X109557457Y-51271714D01*
X109535686Y-51247524D01*
X109492143Y-51223333D01*
X109405057Y-51223333D01*
X109361515Y-51247524D01*
X109339743Y-51271714D01*
X109317972Y-51320095D01*
D15*
X126377096Y-65610619D02*
X126377096Y-64594619D01*
X126764143Y-64594619D01*
X126860905Y-64643000D01*
X126909286Y-64691381D01*
X126957667Y-64788143D01*
X126957667Y-64933286D01*
X126909286Y-65030048D01*
X126860905Y-65078429D01*
X126764143Y-65126810D01*
X126377096Y-65126810D01*
X127538239Y-65030048D02*
X127441477Y-64981667D01*
X127393096Y-64933286D01*
X127344715Y-64836524D01*
X127344715Y-64788143D01*
X127393096Y-64691381D01*
X127441477Y-64643000D01*
X127538239Y-64594619D01*
X127731762Y-64594619D01*
X127828524Y-64643000D01*
X127876905Y-64691381D01*
X127925286Y-64788143D01*
X127925286Y-64836524D01*
X127876905Y-64933286D01*
X127828524Y-64981667D01*
X127731762Y-65030048D01*
X127538239Y-65030048D01*
X127441477Y-65078429D01*
X127393096Y-65126810D01*
X127344715Y-65223571D01*
X127344715Y-65417095D01*
X127393096Y-65513857D01*
X127441477Y-65562238D01*
X127538239Y-65610619D01*
X127731762Y-65610619D01*
X127828524Y-65562238D01*
X127876905Y-65513857D01*
X127925286Y-65417095D01*
X127925286Y-65223571D01*
X127876905Y-65126810D01*
X127828524Y-65078429D01*
X127731762Y-65030048D01*
X121297096Y-44909619D02*
X121297096Y-43893619D01*
X121684143Y-43893619D01*
X121780905Y-43942000D01*
X121829286Y-43990381D01*
X121877667Y-44087143D01*
X121877667Y-44232286D01*
X121829286Y-44329048D01*
X121780905Y-44377429D01*
X121684143Y-44425810D01*
X121297096Y-44425810D01*
X122216334Y-43893619D02*
X122893667Y-43893619D01*
X122458239Y-44909619D01*
X119011096Y-44909619D02*
X119011096Y-43893619D01*
X119398143Y-43893619D01*
X119494905Y-43942000D01*
X119543286Y-43990381D01*
X119591667Y-44087143D01*
X119591667Y-44232286D01*
X119543286Y-44329048D01*
X119494905Y-44377429D01*
X119398143Y-44425810D01*
X119011096Y-44425810D01*
X120462524Y-43893619D02*
X120269001Y-43893619D01*
X120172239Y-43942000D01*
X120123858Y-43990381D01*
X120027096Y-44135524D01*
X119978715Y-44329048D01*
X119978715Y-44716095D01*
X120027096Y-44812857D01*
X120075477Y-44861238D01*
X120172239Y-44909619D01*
X120365762Y-44909619D01*
X120462524Y-44861238D01*
X120510905Y-44812857D01*
X120559286Y-44716095D01*
X120559286Y-44474190D01*
X120510905Y-44377429D01*
X120462524Y-44329048D01*
X120365762Y-44280667D01*
X120172239Y-44280667D01*
X120075477Y-44329048D01*
X120027096Y-44377429D01*
X119978715Y-44474190D01*
X85356096Y-45544619D02*
X85356096Y-44528619D01*
X85743143Y-44528619D01*
X85839905Y-44577000D01*
X85888286Y-44625381D01*
X85936667Y-44722143D01*
X85936667Y-44867286D01*
X85888286Y-44964048D01*
X85839905Y-45012429D01*
X85743143Y-45060810D01*
X85356096Y-45060810D01*
X86855905Y-44528619D02*
X86372096Y-44528619D01*
X86323715Y-45012429D01*
X86372096Y-44964048D01*
X86468858Y-44915667D01*
X86710762Y-44915667D01*
X86807524Y-44964048D01*
X86855905Y-45012429D01*
X86904286Y-45109190D01*
X86904286Y-45351095D01*
X86855905Y-45447857D01*
X86807524Y-45496238D01*
X86710762Y-45544619D01*
X86468858Y-45544619D01*
X86372096Y-45496238D01*
X86323715Y-45447857D01*
X118630096Y-72976619D02*
X118630096Y-71960619D01*
X119017143Y-71960619D01*
X119113905Y-72009000D01*
X119162286Y-72057381D01*
X119210667Y-72154143D01*
X119210667Y-72299286D01*
X119162286Y-72396048D01*
X119113905Y-72444429D01*
X119017143Y-72492810D01*
X118630096Y-72492810D01*
X120081524Y-72299286D02*
X120081524Y-72976619D01*
X119839620Y-71912238D02*
X119597715Y-72637952D01*
X120226667Y-72637952D01*
X102501096Y-70563619D02*
X102501096Y-69547619D01*
X102888143Y-69547619D01*
X102984905Y-69596000D01*
X103033286Y-69644381D01*
X103081667Y-69741143D01*
X103081667Y-69886286D01*
X103033286Y-69983048D01*
X102984905Y-70031429D01*
X102888143Y-70079810D01*
X102501096Y-70079810D01*
X103420334Y-69547619D02*
X104049286Y-69547619D01*
X103710620Y-69934667D01*
X103855762Y-69934667D01*
X103952524Y-69983048D01*
X104000905Y-70031429D01*
X104049286Y-70128190D01*
X104049286Y-70370095D01*
X104000905Y-70466857D01*
X103952524Y-70515238D01*
X103855762Y-70563619D01*
X103565477Y-70563619D01*
X103468715Y-70515238D01*
X103420334Y-70466857D01*
X85483096Y-72976619D02*
X85483096Y-71960619D01*
X85870143Y-71960619D01*
X85966905Y-72009000D01*
X86015286Y-72057381D01*
X86063667Y-72154143D01*
X86063667Y-72299286D01*
X86015286Y-72396048D01*
X85966905Y-72444429D01*
X85870143Y-72492810D01*
X85483096Y-72492810D01*
X86450715Y-72057381D02*
X86499096Y-72009000D01*
X86595858Y-71960619D01*
X86837762Y-71960619D01*
X86934524Y-72009000D01*
X86982905Y-72057381D01*
X87031286Y-72154143D01*
X87031286Y-72250905D01*
X86982905Y-72396048D01*
X86402334Y-72976619D01*
X87031286Y-72976619D01*
X85737096Y-65610619D02*
X85737096Y-64594619D01*
X86124143Y-64594619D01*
X86220905Y-64643000D01*
X86269286Y-64691381D01*
X86317667Y-64788143D01*
X86317667Y-64933286D01*
X86269286Y-65030048D01*
X86220905Y-65078429D01*
X86124143Y-65126810D01*
X85737096Y-65126810D01*
X87285286Y-65610619D02*
X86704715Y-65610619D01*
X86995001Y-65610619D02*
X86995001Y-64594619D01*
X86898239Y-64739762D01*
X86801477Y-64836524D01*
X86704715Y-64884905D01*
D17*
X112727619Y-69027524D02*
X112727619Y-67757524D01*
X113030000Y-67757524D01*
X113211428Y-67818000D01*
X113332381Y-67938952D01*
X113392857Y-68059905D01*
X113453333Y-68301810D01*
X113453333Y-68483238D01*
X113392857Y-68725143D01*
X113332381Y-68846095D01*
X113211428Y-68967048D01*
X113030000Y-69027524D01*
X112727619Y-69027524D01*
X113937143Y-67878476D02*
X113997619Y-67818000D01*
X114118571Y-67757524D01*
X114420952Y-67757524D01*
X114541905Y-67818000D01*
X114602381Y-67878476D01*
X114662857Y-67999429D01*
X114662857Y-68120381D01*
X114602381Y-68301810D01*
X113876667Y-69027524D01*
X114662857Y-69027524D01*
X113096524Y-69535524D02*
X113943190Y-69535524D01*
X113096524Y-70805524D01*
X113943190Y-70805524D01*
X114427000Y-70140286D02*
X114850333Y-70140286D01*
X115031762Y-70805524D02*
X114427000Y-70805524D01*
X114427000Y-69535524D01*
X115031762Y-69535524D01*
X115576048Y-70805524D02*
X115576048Y-69535524D01*
X116301762Y-70805524D01*
X116301762Y-69535524D01*
X116906524Y-70140286D02*
X117329857Y-70140286D01*
X117511286Y-70805524D02*
X116906524Y-70805524D01*
X116906524Y-69535524D01*
X117511286Y-69535524D01*
X118781286Y-70805524D02*
X118357953Y-70200762D01*
X118055572Y-70805524D02*
X118055572Y-69535524D01*
X118539381Y-69535524D01*
X118660334Y-69596000D01*
X118720810Y-69656476D01*
X118781286Y-69777429D01*
X118781286Y-69958857D01*
X118720810Y-70079810D01*
X118660334Y-70140286D01*
X118539381Y-70200762D01*
X118055572Y-70200762D01*
X119265096Y-70745048D02*
X119446524Y-70805524D01*
X119748905Y-70805524D01*
X119869858Y-70745048D01*
X119930334Y-70684571D01*
X119990810Y-70563619D01*
X119990810Y-70442667D01*
X119930334Y-70321714D01*
X119869858Y-70261238D01*
X119748905Y-70200762D01*
X119507001Y-70140286D01*
X119386048Y-70079810D01*
X119325572Y-70019333D01*
X119265096Y-69898381D01*
X119265096Y-69777429D01*
X119325572Y-69656476D01*
X119386048Y-69596000D01*
X119507001Y-69535524D01*
X119809381Y-69535524D01*
X119990810Y-69596000D01*
X120535096Y-70805524D02*
X120535096Y-69535524D01*
X120958429Y-70442667D01*
X121381763Y-69535524D01*
X121381763Y-70805524D01*
X121926049Y-70442667D02*
X122530811Y-70442667D01*
X121805096Y-70805524D02*
X122228430Y-69535524D01*
X122651763Y-70805524D01*
X123679858Y-70805524D02*
X123075096Y-70805524D01*
X123075096Y-69535524D01*
X124707953Y-70805524D02*
X124103191Y-70805524D01*
X124103191Y-69535524D01*
X117934619Y-49596524D02*
X117934619Y-48326524D01*
X118237000Y-48326524D01*
X118418428Y-48387000D01*
X118539381Y-48507952D01*
X118599857Y-48628905D01*
X118660333Y-48870810D01*
X118660333Y-49052238D01*
X118599857Y-49294143D01*
X118539381Y-49415095D01*
X118418428Y-49536048D01*
X118237000Y-49596524D01*
X117934619Y-49596524D01*
X119869857Y-49596524D02*
X119144143Y-49596524D01*
X119507000Y-49596524D02*
X119507000Y-48326524D01*
X119386048Y-48507952D01*
X119265095Y-48628905D01*
X119144143Y-48689381D01*
X113096524Y-54295524D02*
X113943190Y-54295524D01*
X113096524Y-55565524D01*
X113943190Y-55565524D01*
X114427000Y-54900286D02*
X114850333Y-54900286D01*
X115031762Y-55565524D02*
X114427000Y-55565524D01*
X114427000Y-54295524D01*
X115031762Y-54295524D01*
X115576048Y-55565524D02*
X115576048Y-54295524D01*
X116301762Y-55565524D01*
X116301762Y-54295524D01*
X116906524Y-54900286D02*
X117329857Y-54900286D01*
X117511286Y-55565524D02*
X116906524Y-55565524D01*
X116906524Y-54295524D01*
X117511286Y-54295524D01*
X118781286Y-55565524D02*
X118357953Y-54960762D01*
X118055572Y-55565524D02*
X118055572Y-54295524D01*
X118539381Y-54295524D01*
X118660334Y-54356000D01*
X118720810Y-54416476D01*
X118781286Y-54537429D01*
X118781286Y-54718857D01*
X118720810Y-54839810D01*
X118660334Y-54900286D01*
X118539381Y-54960762D01*
X118055572Y-54960762D01*
X119265096Y-55505048D02*
X119446524Y-55565524D01*
X119748905Y-55565524D01*
X119869858Y-55505048D01*
X119930334Y-55444571D01*
X119990810Y-55323619D01*
X119990810Y-55202667D01*
X119930334Y-55081714D01*
X119869858Y-55021238D01*
X119748905Y-54960762D01*
X119507001Y-54900286D01*
X119386048Y-54839810D01*
X119325572Y-54779333D01*
X119265096Y-54658381D01*
X119265096Y-54537429D01*
X119325572Y-54416476D01*
X119386048Y-54356000D01*
X119507001Y-54295524D01*
X119809381Y-54295524D01*
X119990810Y-54356000D01*
X120535096Y-55565524D02*
X120535096Y-54295524D01*
X120958429Y-55202667D01*
X121381763Y-54295524D01*
X121381763Y-55565524D01*
X121926049Y-55202667D02*
X122530811Y-55202667D01*
X121805096Y-55565524D02*
X122228430Y-54295524D01*
X122651763Y-55565524D01*
X123679858Y-55565524D02*
X123075096Y-55565524D01*
X123075096Y-54295524D01*
X124707953Y-55565524D02*
X124103191Y-55565524D01*
X124103191Y-54295524D01*
D18*
X111106857Y-52632429D02*
X111106857Y-53866143D01*
X111179429Y-54011286D01*
X111252000Y-54083857D01*
X111397143Y-54156429D01*
X111687429Y-54156429D01*
X111832571Y-54083857D01*
X111905143Y-54011286D01*
X111977714Y-53866143D01*
X111977714Y-52632429D01*
X112558285Y-52632429D02*
X113501714Y-52632429D01*
X112993714Y-53213000D01*
X113211428Y-53213000D01*
X113356571Y-53285571D01*
X113429142Y-53358143D01*
X113501714Y-53503286D01*
X113501714Y-53866143D01*
X113429142Y-54011286D01*
X113356571Y-54083857D01*
X113211428Y-54156429D01*
X112776000Y-54156429D01*
X112630857Y-54083857D01*
X112558285Y-54011286D01*
X107315000Y-60071000D02*
X108040714Y-60071000D01*
X107169857Y-60506429D02*
X107677857Y-58982429D01*
X108185857Y-60506429D01*
X109709857Y-60651571D02*
X109564714Y-60579000D01*
X109419571Y-60433857D01*
X109201857Y-60216143D01*
X109056714Y-60143571D01*
X108911571Y-60143571D01*
X108984143Y-60506429D02*
X108839000Y-60433857D01*
X108693857Y-60288714D01*
X108621286Y-59998429D01*
X108621286Y-59490429D01*
X108693857Y-59200143D01*
X108839000Y-59055000D01*
X108984143Y-58982429D01*
X109274429Y-58982429D01*
X109419571Y-59055000D01*
X109564714Y-59200143D01*
X109637286Y-59490429D01*
X109637286Y-59998429D01*
X109564714Y-60288714D01*
X109419571Y-60433857D01*
X109274429Y-60506429D01*
X108984143Y-60506429D01*
X110145285Y-58982429D02*
X111161285Y-58982429D01*
X110145285Y-60506429D01*
X111161285Y-60506429D01*
X111669286Y-59127571D02*
X111741857Y-59055000D01*
X111887000Y-58982429D01*
X112249857Y-58982429D01*
X112395000Y-59055000D01*
X112467571Y-59127571D01*
X112540143Y-59272714D01*
X112540143Y-59417857D01*
X112467571Y-59635571D01*
X111596714Y-60506429D01*
X112540143Y-60506429D01*
X113483572Y-58982429D02*
X113628715Y-58982429D01*
X113773858Y-59055000D01*
X113846429Y-59127571D01*
X113919000Y-59272714D01*
X113991572Y-59563000D01*
X113991572Y-59925857D01*
X113919000Y-60216143D01*
X113846429Y-60361286D01*
X113773858Y-60433857D01*
X113628715Y-60506429D01*
X113483572Y-60506429D01*
X113338429Y-60433857D01*
X113265858Y-60361286D01*
X113193286Y-60216143D01*
X113120715Y-59925857D01*
X113120715Y-59563000D01*
X113193286Y-59272714D01*
X113265858Y-59127571D01*
X113338429Y-59055000D01*
X113483572Y-58982429D01*
X115297858Y-59490429D02*
X115297858Y-60506429D01*
X114935001Y-58909857D02*
X114572144Y-59998429D01*
X115515572Y-59998429D01*
X111106857Y-65586429D02*
X111106857Y-66820143D01*
X111179429Y-66965286D01*
X111252000Y-67037857D01*
X111397143Y-67110429D01*
X111687429Y-67110429D01*
X111832571Y-67037857D01*
X111905143Y-66965286D01*
X111977714Y-66820143D01*
X111977714Y-65586429D01*
X112630857Y-65731571D02*
X112703428Y-65659000D01*
X112848571Y-65586429D01*
X113211428Y-65586429D01*
X113356571Y-65659000D01*
X113429142Y-65731571D01*
X113501714Y-65876714D01*
X113501714Y-66021857D01*
X113429142Y-66239571D01*
X112558285Y-67110429D01*
X113501714Y-67110429D01*
X116205000Y-59944000D02*
X116930714Y-59944000D01*
X116059857Y-60379429D02*
X116567857Y-58855429D01*
X117075857Y-60379429D01*
X118599857Y-60524571D02*
X118454714Y-60452000D01*
X118309571Y-60306857D01*
X118091857Y-60089143D01*
X117946714Y-60016571D01*
X117801571Y-60016571D01*
X117874143Y-60379429D02*
X117729000Y-60306857D01*
X117583857Y-60161714D01*
X117511286Y-59871429D01*
X117511286Y-59363429D01*
X117583857Y-59073143D01*
X117729000Y-58928000D01*
X117874143Y-58855429D01*
X118164429Y-58855429D01*
X118309571Y-58928000D01*
X118454714Y-59073143D01*
X118527286Y-59363429D01*
X118527286Y-59871429D01*
X118454714Y-60161714D01*
X118309571Y-60306857D01*
X118164429Y-60379429D01*
X117874143Y-60379429D01*
X119035285Y-58855429D02*
X120051285Y-58855429D01*
X119035285Y-60379429D01*
X120051285Y-60379429D01*
X120559286Y-59000571D02*
X120631857Y-58928000D01*
X120777000Y-58855429D01*
X121139857Y-58855429D01*
X121285000Y-58928000D01*
X121357571Y-59000571D01*
X121430143Y-59145714D01*
X121430143Y-59290857D01*
X121357571Y-59508571D01*
X120486714Y-60379429D01*
X121430143Y-60379429D01*
X122373572Y-58855429D02*
X122518715Y-58855429D01*
X122663858Y-58928000D01*
X122736429Y-59000571D01*
X122809000Y-59145714D01*
X122881572Y-59436000D01*
X122881572Y-59798857D01*
X122809000Y-60089143D01*
X122736429Y-60234286D01*
X122663858Y-60306857D01*
X122518715Y-60379429D01*
X122373572Y-60379429D01*
X122228429Y-60306857D01*
X122155858Y-60234286D01*
X122083286Y-60089143D01*
X122010715Y-59798857D01*
X122010715Y-59436000D01*
X122083286Y-59145714D01*
X122155858Y-59000571D01*
X122228429Y-58928000D01*
X122373572Y-58855429D01*
X124187858Y-59363429D02*
X124187858Y-60379429D01*
X123825001Y-58782857D02*
X123462144Y-59871429D01*
X124405572Y-59871429D01*
D10*
X85923572Y-52125571D02*
X85590238Y-52125571D01*
X85590238Y-52649381D02*
X85590238Y-51649381D01*
X86066429Y-51649381D01*
X86447381Y-52649381D02*
X86447381Y-51649381D01*
X86923571Y-52649381D02*
X86923571Y-51649381D01*
X87161666Y-51649381D01*
X87304524Y-51697000D01*
X87399762Y-51792238D01*
X87447381Y-51887476D01*
X87495000Y-52077952D01*
X87495000Y-52220810D01*
X87447381Y-52411286D01*
X87399762Y-52506524D01*
X87304524Y-52601762D01*
X87161666Y-52649381D01*
X86923571Y-52649381D01*
X88447381Y-52649381D02*
X87875952Y-52649381D01*
X88161666Y-52649381D02*
X88161666Y-51649381D01*
X88066428Y-51792238D01*
X87971190Y-51887476D01*
X87875952Y-51935095D01*
X123888667Y-52268381D02*
X123888667Y-51268381D01*
X124222001Y-51982667D01*
X124555334Y-51268381D01*
X124555334Y-52268381D01*
X125031524Y-52268381D02*
X125031524Y-51268381D01*
X125031524Y-51744571D02*
X125602953Y-51744571D01*
X125602953Y-52268381D02*
X125602953Y-51268381D01*
X126602953Y-52268381D02*
X126031524Y-52268381D01*
X126317238Y-52268381D02*
X126317238Y-51268381D01*
X126222000Y-51411238D01*
X126126762Y-51506476D01*
X126031524Y-51554095D01*
X123888667Y-66563501D02*
X123888667Y-65563501D01*
X124222001Y-66277787D01*
X124555334Y-65563501D01*
X124555334Y-66563501D01*
X125031524Y-66563501D02*
X125031524Y-65563501D01*
X125031524Y-66039691D02*
X125602953Y-66039691D01*
X125602953Y-66563501D02*
X125602953Y-65563501D01*
X126031524Y-65658739D02*
X126079143Y-65611120D01*
X126174381Y-65563501D01*
X126412477Y-65563501D01*
X126507715Y-65611120D01*
X126555334Y-65658739D01*
X126602953Y-65753977D01*
X126602953Y-65849215D01*
X126555334Y-65992072D01*
X125983905Y-66563501D01*
X126602953Y-66563501D01*
X94067334Y-50903143D02*
X94019715Y-50950762D01*
X93876858Y-50998381D01*
X93781620Y-50998381D01*
X93638762Y-50950762D01*
X93543524Y-50855524D01*
X93495905Y-50760286D01*
X93448286Y-50569810D01*
X93448286Y-50426952D01*
X93495905Y-50236476D01*
X93543524Y-50141238D01*
X93638762Y-50046000D01*
X93781620Y-49998381D01*
X93876858Y-49998381D01*
X94019715Y-50046000D01*
X94067334Y-50093619D01*
X95019715Y-50998381D02*
X94448286Y-50998381D01*
X94734000Y-50998381D02*
X94734000Y-49998381D01*
X94638762Y-50141238D01*
X94543524Y-50236476D01*
X94448286Y-50284095D01*
X93559334Y-49506143D02*
X93511715Y-49553762D01*
X93368858Y-49601381D01*
X93273620Y-49601381D01*
X93130762Y-49553762D01*
X93035524Y-49458524D01*
X92987905Y-49363286D01*
X92940286Y-49172810D01*
X92940286Y-49029952D01*
X92987905Y-48839476D01*
X93035524Y-48744238D01*
X93130762Y-48649000D01*
X93273620Y-48601381D01*
X93368858Y-48601381D01*
X93511715Y-48649000D01*
X93559334Y-48696619D01*
X93940286Y-48696619D02*
X93987905Y-48649000D01*
X94083143Y-48601381D01*
X94321239Y-48601381D01*
X94416477Y-48649000D01*
X94464096Y-48696619D01*
X94511715Y-48791857D01*
X94511715Y-48887095D01*
X94464096Y-49029952D01*
X93892667Y-49601381D01*
X94511715Y-49601381D01*
%LPC*%
D19*
X90805000Y-64770000D03*
X92075000Y-64770000D03*
X93345000Y-64770000D03*
X94615000Y-64770000D03*
X95885000Y-64770000D03*
X97155000Y-64770000D03*
X98425000Y-64770000D03*
X99695000Y-64770000D03*
X99695000Y-54610000D03*
X98425000Y-54610000D03*
X97155000Y-54610000D03*
X95885000Y-54610000D03*
X94615000Y-54610000D03*
X93345000Y-54610000D03*
X92075000Y-54610000D03*
X90805000Y-54610000D03*
D20*
X107188000Y-66040000D03*
X108712000Y-66040000D03*
X103378000Y-66040000D03*
X104902000Y-66040000D03*
X107188000Y-53340000D03*
X108712000Y-53340000D03*
X103378000Y-53340000D03*
X104902000Y-53340000D03*
D21*
X91440000Y-69342000D03*
X91440000Y-67818000D03*
X93472000Y-69342000D03*
X93472000Y-67818000D03*
X95504000Y-69342000D03*
X95504000Y-67818000D03*
X96520000Y-48768000D03*
X96520000Y-50292000D03*
X99060000Y-48768000D03*
X99060000Y-50292000D03*
X101600000Y-48768000D03*
X101600000Y-50292000D03*
X104140000Y-48768000D03*
X104140000Y-50292000D03*
X106680000Y-48768000D03*
X106680000Y-50292000D03*
X109220000Y-48768000D03*
X109220000Y-50292000D03*
D22*
X127000000Y-55118000D03*
D23*
X127000000Y-57658000D03*
X127000000Y-60198000D03*
X127000000Y-62738000D03*
D22*
X109220000Y-45720000D03*
D23*
X111760000Y-45720000D03*
X114300000Y-45720000D03*
X116840000Y-45720000D03*
D22*
X99060000Y-45720000D03*
D23*
X101600000Y-45720000D03*
X104140000Y-45720000D03*
X106680000Y-45720000D03*
D22*
X88900000Y-45720000D03*
D23*
X91440000Y-45720000D03*
X93980000Y-45720000D03*
X96520000Y-45720000D03*
D22*
X109220000Y-72390000D03*
D23*
X111760000Y-72390000D03*
X114300000Y-72390000D03*
X116840000Y-72390000D03*
D22*
X99060000Y-72390000D03*
D23*
X101600000Y-72390000D03*
X104140000Y-72390000D03*
X106680000Y-72390000D03*
D22*
X88900000Y-72390000D03*
D23*
X91440000Y-72390000D03*
X93980000Y-72390000D03*
X96520000Y-72390000D03*
D22*
X86360000Y-55118000D03*
D23*
X86360000Y-57658000D03*
X86360000Y-60198000D03*
X86360000Y-62738000D03*
D24*
X116611400Y-67310000D03*
X120624600Y-67310000D03*
X116611400Y-52070000D03*
X120624600Y-52070000D03*
D25*
X104775000Y-56515000D03*
X107315000Y-56515000D03*
X117475000Y-56515000D03*
X122555000Y-56515000D03*
X104775000Y-62865000D03*
X107315000Y-62865000D03*
X117475000Y-62865000D03*
X122555000Y-62865000D03*
D26*
X86868000Y-49530000D03*
D27*
X92075000Y-51623000D03*
X92075000Y-49723000D03*
X90551000Y-51623000D03*
X90551000Y-49723000D03*
M02*
