M48
;DRILL file {kicad (2015-01-16 BZR 5376)-product} date 25/06/2015 00:13:46
;FORMAT={-:-/ absolute / metric / decimal}
FMAT,2
METRIC,TZ
T1C0.500
T2C0.813
T3C1.016
T4C1.151
T5C3.500
%
G90
G05
M71
T1
X89.535Y-52.959
X90.551Y-48.26
X90.932Y-56.896
X90.932Y-58.42
X92.075Y-48.26
X94.742Y-60.452
X95.758Y-59.69
X96.774Y-58.674
X99.695Y-66.802
X101.092Y-52.578
X102.108Y-53.34
X102.108Y-57.404
X102.108Y-66.04
X110.744Y-58.42
X111.76Y-59.69
X113.03Y-60.706
T2
X104.775Y-56.515
X104.775Y-62.865
X107.315Y-56.515
X107.315Y-62.865
T3
X86.36Y-55.118
X86.36Y-57.658
X86.36Y-60.198
X86.36Y-62.738
X88.9Y-45.72
X88.9Y-72.39
X91.44Y-45.72
X91.44Y-72.39
X93.98Y-45.72
X93.98Y-72.39
X96.52Y-45.72
X96.52Y-72.39
X99.06Y-45.72
X99.06Y-72.39
X101.6Y-45.72
X101.6Y-72.39
X104.14Y-45.72
X104.14Y-72.39
X106.68Y-45.72
X106.68Y-72.39
X109.22Y-45.72
X109.22Y-72.39
X111.76Y-45.72
X111.76Y-72.39
X114.3Y-45.72
X114.3Y-72.39
X116.84Y-45.72
X116.84Y-72.39
X127.Y-55.118
X127.Y-57.658
X127.Y-60.198
X127.Y-62.738
T4
X117.475Y-56.515
X117.475Y-62.865
X122.555Y-56.515
X122.555Y-62.865
T5
X125.222Y-47.244
X125.222Y-70.612
T0
M30
