M48
;DRILL file {kicad (2015-01-16 BZR 5376)-product} date 25/06/2015 00:14:31
;FORMAT={-:-/ absolute / metric / decimal}
FMAT,2
METRIC,TZ
T1C0.500
T2C1.016
T3C3.500
%
G90
G05
M71
T1
X90.043Y-48.26
X90.678Y-52.578
X90.932Y-56.896
X90.932Y-58.42
X92.202Y-48.26
X92.571Y-49.669
X93.98Y-60.452
X95.25Y-60.833
X96.393Y-59.817
X99.695Y-52.578
X99.695Y-57.404
X100.203Y-66.802
X100.965Y-59.817
X102.235Y-65.024
X103.632Y-60.96
X105.029Y-62.484
X105.537Y-65.786
X105.664Y-53.213
X105.664Y-68.961
X105.791Y-55.499
X106.807Y-52.324
X109.601Y-62.738
X110.998Y-53.467
T2
X86.36Y-55.118
X86.36Y-57.658
X86.36Y-60.198
X86.36Y-62.738
X88.9Y-45.72
X88.9Y-72.39
X91.44Y-45.72
X91.44Y-72.39
X93.98Y-45.72
X93.98Y-72.39
X96.52Y-45.72
X96.52Y-72.39
X99.06Y-45.72
X99.06Y-72.39
X101.6Y-45.72
X101.6Y-72.39
X104.14Y-45.72
X104.14Y-72.39
X106.68Y-45.72
X106.68Y-72.39
X109.22Y-45.72
X109.22Y-72.39
X111.76Y-45.72
X111.76Y-72.39
X114.3Y-45.72
X114.3Y-72.39
X116.84Y-45.72
X116.84Y-72.39
X127.Y-55.118
X127.Y-57.658
X127.Y-60.198
X127.Y-62.738
T3
X125.222Y-47.244
X125.222Y-70.612
T0
M30
