G04 #@! TF.FileFunction,Soldermask,Top*
%FSLAX46Y46*%
G04 Gerber Fmt 4.6, Leading zero omitted, Abs format (unit mm)*
G04 Created by KiCad (PCBNEW (2015-01-16 BZR 5376)-product) date 25/06/2015 00:14:29*
%MOMM*%
G01*
G04 APERTURE LIST*
%ADD10C,0.150000*%
%ADD11R,1.143000X2.413000*%
%ADD12R,1.143000X1.651000*%
%ADD13R,1.651000X1.143000*%
%ADD14R,2.032000X2.032000*%
%ADD15C,2.032000*%
%ADD16R,2.707640X2.308860*%
%ADD17R,2.540000X4.572000*%
%ADD18R,1.506220X1.005840*%
%ADD19C,3.000000*%
%ADD20R,1.258000X1.308000*%
G04 APERTURE END LIST*
D10*
D11*
X90805000Y-64770000D03*
X92075000Y-64770000D03*
X93345000Y-64770000D03*
X94615000Y-64770000D03*
X95885000Y-64770000D03*
X97155000Y-64770000D03*
X98425000Y-64770000D03*
X99695000Y-64770000D03*
X99695000Y-54610000D03*
X98425000Y-54610000D03*
X97155000Y-54610000D03*
X95885000Y-54610000D03*
X94615000Y-54610000D03*
X93345000Y-54610000D03*
X92075000Y-54610000D03*
X90805000Y-54610000D03*
D12*
X102743000Y-66929000D03*
X104267000Y-66929000D03*
X104267000Y-68961000D03*
X102743000Y-68961000D03*
X102743000Y-55372000D03*
X104267000Y-55372000D03*
X104267000Y-53213000D03*
X102743000Y-53213000D03*
D13*
X91440000Y-69342000D03*
X91440000Y-67818000D03*
X93472000Y-69342000D03*
X93472000Y-67818000D03*
X95504000Y-69342000D03*
X95504000Y-67818000D03*
X96520000Y-48768000D03*
X96520000Y-50292000D03*
X99060000Y-48768000D03*
X99060000Y-50292000D03*
X101600000Y-48768000D03*
X101600000Y-50292000D03*
X104140000Y-48768000D03*
X104140000Y-50292000D03*
X106680000Y-48768000D03*
X106680000Y-50292000D03*
X109220000Y-48768000D03*
X109220000Y-50292000D03*
D14*
X127000000Y-55118000D03*
D15*
X127000000Y-57658000D03*
X127000000Y-60198000D03*
X127000000Y-62738000D03*
D14*
X109220000Y-45720000D03*
D15*
X111760000Y-45720000D03*
X114300000Y-45720000D03*
X116840000Y-45720000D03*
D14*
X99060000Y-45720000D03*
D15*
X101600000Y-45720000D03*
X104140000Y-45720000D03*
X106680000Y-45720000D03*
D14*
X88900000Y-45720000D03*
D15*
X91440000Y-45720000D03*
X93980000Y-45720000D03*
X96520000Y-45720000D03*
D14*
X109220000Y-72390000D03*
D15*
X111760000Y-72390000D03*
X114300000Y-72390000D03*
X116840000Y-72390000D03*
D14*
X99060000Y-72390000D03*
D15*
X101600000Y-72390000D03*
X104140000Y-72390000D03*
X106680000Y-72390000D03*
D14*
X88900000Y-72390000D03*
D15*
X91440000Y-72390000D03*
X93980000Y-72390000D03*
X96520000Y-72390000D03*
D14*
X86360000Y-55118000D03*
D15*
X86360000Y-57658000D03*
X86360000Y-60198000D03*
X86360000Y-62738000D03*
D16*
X122936000Y-65760600D03*
X122936000Y-61747400D03*
X122936000Y-56235600D03*
X122936000Y-52222400D03*
D17*
X113411000Y-66421000D03*
X118999000Y-66421000D03*
X113411000Y-61722000D03*
X118999000Y-61722000D03*
X113411000Y-51689000D03*
X118999000Y-51689000D03*
X113411000Y-56388000D03*
X118999000Y-56388000D03*
D12*
X111125000Y-66802000D03*
X109601000Y-66802000D03*
X109220000Y-55499000D03*
X110744000Y-55499000D03*
D18*
X109537500Y-58674000D03*
X109537500Y-57404000D03*
X103060500Y-57404000D03*
X103060500Y-58674000D03*
X109537500Y-65024000D03*
X109537500Y-63754000D03*
X103060500Y-63754000D03*
X103060500Y-65024000D03*
D19*
X86995000Y-49530000D03*
D20*
X91440000Y-51169000D03*
X91440000Y-49669000D03*
X90043000Y-51169000D03*
X90043000Y-49669000D03*
M02*
