G04 #@! TF.FileFunction,Copper,L1,Top,Signal*
%FSLAX46Y46*%
G04 Gerber Fmt 4.6, Leading zero omitted, Abs format (unit mm)*
G04 Created by KiCad (PCBNEW (2015-01-16 BZR 5376)-product) date 25/06/2015 00:14:29*
%MOMM*%
G01*
G04 APERTURE LIST*
%ADD10C,0.150000*%
%ADD11C,0.381000*%
%ADD12R,0.635000X1.905000*%
%ADD13R,0.635000X1.143000*%
%ADD14R,1.143000X0.635000*%
%ADD15R,1.524000X1.524000*%
%ADD16C,1.524000*%
%ADD17R,2.199640X1.800860*%
%ADD18R,2.032000X4.064000*%
%ADD19R,0.998220X0.497840*%
%ADD20R,0.750000X0.800000*%
%ADD21C,0.800100*%
%ADD22C,0.254000*%
%ADD23C,0.508000*%
%ADD24C,1.000760*%
G04 APERTURE END LIST*
D10*
D11*
X88524080Y-49530000D02*
G75*
G03X88524080Y-49530000I-1529080J0D01*
G01*
X88785700Y-49530000D02*
G75*
G03X88785700Y-49530000I-1790700J0D01*
G01*
D12*
X90805000Y-64770000D03*
X92075000Y-64770000D03*
X93345000Y-64770000D03*
X94615000Y-64770000D03*
X95885000Y-64770000D03*
X97155000Y-64770000D03*
X98425000Y-64770000D03*
X99695000Y-64770000D03*
X99695000Y-54610000D03*
X98425000Y-54610000D03*
X97155000Y-54610000D03*
X95885000Y-54610000D03*
X94615000Y-54610000D03*
X93345000Y-54610000D03*
X92075000Y-54610000D03*
X90805000Y-54610000D03*
D13*
X102743000Y-66929000D03*
X104267000Y-66929000D03*
X104267000Y-68961000D03*
X102743000Y-68961000D03*
X102743000Y-55372000D03*
X104267000Y-55372000D03*
X104267000Y-53213000D03*
X102743000Y-53213000D03*
D14*
X91440000Y-69342000D03*
X91440000Y-67818000D03*
X93472000Y-69342000D03*
X93472000Y-67818000D03*
X95504000Y-69342000D03*
X95504000Y-67818000D03*
X96520000Y-48768000D03*
X96520000Y-50292000D03*
X99060000Y-48768000D03*
X99060000Y-50292000D03*
X101600000Y-48768000D03*
X101600000Y-50292000D03*
X104140000Y-48768000D03*
X104140000Y-50292000D03*
X106680000Y-48768000D03*
X106680000Y-50292000D03*
X109220000Y-48768000D03*
X109220000Y-50292000D03*
D15*
X127000000Y-55118000D03*
D16*
X127000000Y-57658000D03*
X127000000Y-60198000D03*
X127000000Y-62738000D03*
D15*
X109220000Y-45720000D03*
D16*
X111760000Y-45720000D03*
X114300000Y-45720000D03*
X116840000Y-45720000D03*
D15*
X99060000Y-45720000D03*
D16*
X101600000Y-45720000D03*
X104140000Y-45720000D03*
X106680000Y-45720000D03*
D15*
X88900000Y-45720000D03*
D16*
X91440000Y-45720000D03*
X93980000Y-45720000D03*
X96520000Y-45720000D03*
D15*
X109220000Y-72390000D03*
D16*
X111760000Y-72390000D03*
X114300000Y-72390000D03*
X116840000Y-72390000D03*
D15*
X99060000Y-72390000D03*
D16*
X101600000Y-72390000D03*
X104140000Y-72390000D03*
X106680000Y-72390000D03*
D15*
X88900000Y-72390000D03*
D16*
X91440000Y-72390000D03*
X93980000Y-72390000D03*
X96520000Y-72390000D03*
D15*
X86360000Y-55118000D03*
D16*
X86360000Y-57658000D03*
X86360000Y-60198000D03*
X86360000Y-62738000D03*
D17*
X122936000Y-65760600D03*
X122936000Y-61747400D03*
X122936000Y-56235600D03*
X122936000Y-52222400D03*
D18*
X113411000Y-66421000D03*
X118999000Y-66421000D03*
X113411000Y-61722000D03*
X118999000Y-61722000D03*
X113411000Y-51689000D03*
X118999000Y-51689000D03*
X113411000Y-56388000D03*
X118999000Y-56388000D03*
D13*
X111125000Y-66802000D03*
X109601000Y-66802000D03*
X109220000Y-55499000D03*
X110744000Y-55499000D03*
D19*
X109537500Y-58674000D03*
X109537500Y-57404000D03*
X103060500Y-57404000D03*
X103060500Y-58674000D03*
X109537500Y-65024000D03*
X109537500Y-63754000D03*
X103060500Y-63754000D03*
X103060500Y-65024000D03*
D20*
X91440000Y-51169000D03*
X91440000Y-49669000D03*
X90043000Y-51169000D03*
X90043000Y-49669000D03*
D21*
X105029000Y-62484000D03*
X93980000Y-60452000D03*
X90932000Y-58420000D03*
X90932000Y-56896000D03*
X110998000Y-53467000D03*
X102235000Y-65024000D03*
X106807000Y-52324000D03*
X109601000Y-62738000D03*
X99695000Y-52578000D03*
X99695000Y-57404000D03*
X100965000Y-59817000D03*
X96393000Y-59817000D03*
X95250000Y-60833000D03*
X103632000Y-60960000D03*
X92571000Y-49669000D03*
X92202000Y-48260000D03*
X105537000Y-65786000D03*
X100203000Y-66802000D03*
X105791000Y-55499000D03*
X90043000Y-48260000D03*
X90678000Y-52578000D03*
X105664000Y-68961000D03*
X105664000Y-53213000D03*
D22*
X94615000Y-57277000D02*
X93980000Y-57912000D01*
X93980000Y-58547000D02*
X93980000Y-60452000D01*
X94615000Y-54610000D02*
X94615000Y-57277000D01*
X93980000Y-57912000D02*
X93980000Y-58547000D01*
X93345000Y-56388000D02*
X93345000Y-54610000D01*
X93345000Y-54610000D02*
X93345000Y-56388000D01*
X92202000Y-58420000D02*
X93345000Y-57277000D01*
X90932000Y-58420000D02*
X92202000Y-58420000D01*
X93345000Y-57277000D02*
X93345000Y-54610000D01*
X87122000Y-58420000D02*
X86360000Y-57658000D01*
X90932000Y-58420000D02*
X87122000Y-58420000D01*
X92075000Y-56515000D02*
X92075000Y-54610000D01*
X90932000Y-56896000D02*
X91694000Y-56896000D01*
X91694000Y-56896000D02*
X92075000Y-56515000D01*
X102743000Y-53213000D02*
X102743000Y-51562000D01*
X104902000Y-51562000D02*
X106172000Y-51562000D01*
X102743000Y-51562000D02*
X104902000Y-51562000D01*
X106172000Y-51562000D02*
X106680000Y-51054000D01*
X106680000Y-51054000D02*
X106680000Y-50292000D01*
X101727000Y-56515000D02*
X101092000Y-57150000D01*
X101092000Y-57150000D02*
X101092000Y-58674000D01*
X103060500Y-58674000D02*
X101092000Y-58674000D01*
X101092000Y-58674000D02*
X98806000Y-58674000D01*
X94615000Y-62865000D02*
X94615000Y-64770000D01*
X95631000Y-61849000D02*
X94615000Y-62865000D01*
X98806000Y-58674000D02*
X95631000Y-61849000D01*
X102743000Y-55372000D02*
X102743000Y-55499000D01*
X102743000Y-55499000D02*
X101727000Y-56515000D01*
X102108000Y-58674000D02*
X103060500Y-58674000D01*
X102743000Y-53213000D02*
X102743000Y-55372000D01*
X97028000Y-51562000D02*
X101600000Y-51562000D01*
X101600000Y-50292000D02*
X101600000Y-51562000D01*
X96520000Y-51054000D02*
X97028000Y-51562000D01*
X96520000Y-50292000D02*
X96520000Y-51054000D01*
X101600000Y-51562000D02*
X102743000Y-51562000D01*
D23*
X109220000Y-55499000D02*
X109220000Y-54610000D01*
X110363000Y-53467000D02*
X110998000Y-53467000D01*
X109220000Y-54610000D02*
X110363000Y-53467000D01*
X109220000Y-55499000D02*
X109220000Y-57086500D01*
X109220000Y-57086500D02*
X109537500Y-57404000D01*
D24*
X127000000Y-57658000D02*
X124358400Y-57658000D01*
X124358400Y-57658000D02*
X122936000Y-56235600D01*
X122936000Y-52222400D02*
X119532400Y-52222400D01*
X119532400Y-52222400D02*
X118999000Y-51689000D01*
X127000000Y-55118000D02*
X127000000Y-53086000D01*
X126136400Y-52222400D02*
X122936000Y-52222400D01*
X127000000Y-53086000D02*
X126136400Y-52222400D01*
D22*
X106807000Y-52324000D02*
X108839000Y-50292000D01*
X108839000Y-50292000D02*
X109220000Y-50292000D01*
X100838000Y-62928500D02*
X100838000Y-64262000D01*
X100838000Y-64262000D02*
X101092000Y-64516000D01*
X100774500Y-62928500D02*
X100838000Y-62928500D01*
X96647000Y-62865000D02*
X100076000Y-62865000D01*
X95885000Y-64770000D02*
X95885000Y-63627000D01*
X96647000Y-62865000D02*
X95885000Y-63627000D01*
X102235000Y-65024000D02*
X103060500Y-65024000D01*
X101092000Y-64516000D02*
X102235000Y-65024000D01*
X100711000Y-62865000D02*
X100774500Y-62928500D01*
X100076000Y-62865000D02*
X100711000Y-62865000D01*
X102743000Y-66929000D02*
X102743000Y-66167000D01*
X103060500Y-65849500D02*
X103060500Y-65024000D01*
X102743000Y-66167000D02*
X103060500Y-65849500D01*
X102743000Y-68961000D02*
X102743000Y-66929000D01*
X100076000Y-49530000D02*
X104140000Y-49530000D01*
X108966000Y-50292000D02*
X109220000Y-50292000D01*
X99060000Y-50292000D02*
X99314000Y-50292000D01*
X104140000Y-49530000D02*
X108204000Y-49530000D01*
X108204000Y-49530000D02*
X108966000Y-50292000D01*
X99314000Y-50292000D02*
X100076000Y-49530000D01*
X104140000Y-50292000D02*
X104140000Y-49530000D01*
X109474000Y-50292000D02*
X109220000Y-50292000D01*
D23*
X109537500Y-63754000D02*
X109537500Y-62801500D01*
X109537500Y-62801500D02*
X109601000Y-62738000D01*
X111125000Y-66802000D02*
X111125000Y-64389000D01*
X110490000Y-63754000D02*
X109537500Y-63754000D01*
X111125000Y-64389000D02*
X110490000Y-63754000D01*
D24*
X127000000Y-62738000D02*
X127000000Y-64643000D01*
X125882400Y-65760600D02*
X122936000Y-65760600D01*
X127000000Y-64643000D02*
X125882400Y-65760600D01*
X122936000Y-61747400D02*
X119024400Y-61747400D01*
X119024400Y-61747400D02*
X118999000Y-61722000D01*
X127000000Y-60198000D02*
X124485400Y-60198000D01*
X124485400Y-60198000D02*
X122936000Y-61747400D01*
D22*
X97155000Y-70358000D02*
X97155000Y-70485000D01*
X97155000Y-70485000D02*
X99060000Y-72390000D01*
X96520000Y-48768000D02*
X96774000Y-48768000D01*
X97155000Y-70485000D02*
X99060000Y-72390000D01*
X97155000Y-64770000D02*
X97155000Y-70485000D01*
X99060000Y-46482000D02*
X99060000Y-45720000D01*
X98425000Y-71755000D02*
X99060000Y-72390000D01*
X96774000Y-48768000D02*
X99060000Y-46482000D01*
X98425000Y-67945000D02*
X101600000Y-71120000D01*
X99060000Y-48768000D02*
X99314000Y-48768000D01*
X98425000Y-64770000D02*
X98425000Y-67945000D01*
X101600000Y-71120000D02*
X101600000Y-72390000D01*
X99314000Y-48768000D02*
X101600000Y-46482000D01*
X101600000Y-46482000D02*
X101600000Y-45720000D01*
X99695000Y-54610000D02*
X99695000Y-52578000D01*
X104140000Y-46482000D02*
X104140000Y-45720000D01*
X101854000Y-48768000D02*
X104140000Y-46482000D01*
X101600000Y-48768000D02*
X101854000Y-48768000D01*
X99695000Y-54610000D02*
X99695000Y-52959000D01*
X98806000Y-57404000D02*
X99695000Y-57404000D01*
X98425000Y-57023000D02*
X98806000Y-57404000D01*
X98425000Y-54610000D02*
X98425000Y-57023000D01*
X106680000Y-46482000D02*
X106680000Y-45720000D01*
X104140000Y-48768000D02*
X104394000Y-48768000D01*
X104394000Y-48768000D02*
X106680000Y-46482000D01*
X97155000Y-57404000D02*
X96393000Y-58166000D01*
X96393000Y-58166000D02*
X96393000Y-59817000D01*
X106680000Y-48768000D02*
X106934000Y-48768000D01*
X97155000Y-54610000D02*
X97155000Y-57404000D01*
X106680000Y-48768000D02*
X106680000Y-48260000D01*
X96393000Y-59817000D02*
X96393000Y-59563000D01*
X109220000Y-46482000D02*
X109220000Y-45720000D01*
X106680000Y-48260000D02*
X109220000Y-45720000D01*
X95758000Y-57404000D02*
X95885000Y-57277000D01*
X95885000Y-57277000D02*
X95885000Y-54610000D01*
X95250000Y-58547000D02*
X95250000Y-60833000D01*
X95250000Y-57912000D02*
X95250000Y-58547000D01*
X95758000Y-57404000D02*
X95250000Y-57912000D01*
X109474000Y-48768000D02*
X111760000Y-46482000D01*
X109220000Y-48768000D02*
X109474000Y-48768000D01*
D23*
X91440000Y-49669000D02*
X92825000Y-49669000D01*
D22*
X92825000Y-49669000D02*
X92571000Y-49669000D01*
D23*
X91440000Y-49669000D02*
X91440000Y-49022000D01*
X91440000Y-49022000D02*
X92202000Y-48260000D01*
X90043000Y-49669000D02*
X91440000Y-49669000D01*
D22*
X105537000Y-65786000D02*
X105537000Y-66421000D01*
X105029000Y-66929000D02*
X104267000Y-66929000D01*
X105537000Y-66421000D02*
X105029000Y-66929000D01*
X104521000Y-65405000D02*
X104521000Y-65659000D01*
X104521000Y-65659000D02*
X104267000Y-65913000D01*
X104521000Y-64262000D02*
X104521000Y-64897000D01*
X104013000Y-63754000D02*
X104521000Y-64262000D01*
X100203000Y-66802000D02*
X100203000Y-66675000D01*
D23*
X99695000Y-66167000D02*
X99695000Y-64770000D01*
X100203000Y-66675000D02*
X99695000Y-66167000D01*
D22*
X104267000Y-55372000D02*
X105664000Y-55372000D01*
X105664000Y-55372000D02*
X105791000Y-55499000D01*
X103060500Y-57404000D02*
X103060500Y-56705500D01*
X103060500Y-56705500D02*
X104267000Y-55499000D01*
X104267000Y-55499000D02*
X104267000Y-55372000D01*
X104267000Y-66929000D02*
X104267000Y-65913000D01*
X104521000Y-65405000D02*
X104521000Y-64897000D01*
X104013000Y-63754000D02*
X103060500Y-63754000D01*
X104521000Y-64897000D02*
X104521000Y-64389000D01*
X104521000Y-64389000D02*
X104521000Y-64262000D01*
D23*
X90043000Y-49669000D02*
X90043000Y-48260000D01*
X90678000Y-52578000D02*
X90170000Y-52070000D01*
X90170000Y-52070000D02*
X90170000Y-51296000D01*
D22*
X90170000Y-51296000D02*
X90043000Y-51169000D01*
D23*
X91440000Y-51169000D02*
X91440000Y-51816000D01*
D22*
X90805000Y-52705000D02*
X90678000Y-52578000D01*
D23*
X90805000Y-52705000D02*
X90805000Y-54610000D01*
X91440000Y-51816000D02*
X90678000Y-52578000D01*
D22*
X104267000Y-68961000D02*
X105664000Y-68961000D01*
X104267000Y-53213000D02*
X105664000Y-53213000D01*
X93472000Y-69342000D02*
X91440000Y-69342000D01*
X95504000Y-69342000D02*
X93472000Y-69342000D01*
X91186000Y-69342000D02*
X88900000Y-71628000D01*
X88900000Y-71628000D02*
X88900000Y-72390000D01*
X91440000Y-69342000D02*
X91186000Y-69342000D01*
D23*
X110744000Y-55499000D02*
X110744000Y-55880000D01*
X110744000Y-55880000D02*
X111569500Y-56705500D01*
X109537500Y-58674000D02*
X110363000Y-58674000D01*
X111887000Y-56388000D02*
X113411000Y-56388000D01*
X110998000Y-57277000D02*
X111569500Y-56705500D01*
X111569500Y-56705500D02*
X111887000Y-56388000D01*
X110998000Y-58039000D02*
X110998000Y-57277000D01*
X110363000Y-58674000D02*
X110998000Y-58039000D01*
X109601000Y-66802000D02*
X109601000Y-67818000D01*
X113030000Y-68580000D02*
X113411000Y-68199000D01*
X110363000Y-68580000D02*
X113030000Y-68580000D01*
X109601000Y-67818000D02*
X110363000Y-68580000D01*
X113411000Y-68199000D02*
X113411000Y-66421000D01*
X109601000Y-66802000D02*
X109601000Y-65087500D01*
X109601000Y-65087500D02*
X109537500Y-65024000D01*
D22*
X95504000Y-67818000D02*
X95250000Y-67818000D01*
X95504000Y-67564000D02*
X95758000Y-67310000D01*
X93345000Y-64770000D02*
X93345000Y-65913000D01*
X93345000Y-65913000D02*
X94234000Y-66802000D01*
X94234000Y-66802000D02*
X94996000Y-66802000D01*
X94996000Y-66802000D02*
X95504000Y-67310000D01*
X95504000Y-67310000D02*
X95504000Y-67818000D01*
X95504000Y-67818000D02*
X95504000Y-67564000D01*
X93472000Y-67056000D02*
X92075000Y-65659000D01*
X92075000Y-65659000D02*
X92075000Y-64770000D01*
X93472000Y-67818000D02*
X93472000Y-67056000D01*
X91440000Y-67818000D02*
X91440000Y-66802000D01*
X90805000Y-66167000D02*
X90805000Y-64770000D01*
X91440000Y-66802000D02*
X90805000Y-66167000D01*
D24*
X118999000Y-56388000D02*
X117221000Y-56388000D01*
X115316000Y-51689000D02*
X113411000Y-51689000D01*
X116078000Y-52451000D02*
X115316000Y-51689000D01*
X116078000Y-55245000D02*
X116078000Y-52451000D01*
X117221000Y-56388000D02*
X116078000Y-55245000D01*
X118999000Y-66421000D02*
X116967000Y-66421000D01*
X115316000Y-61722000D02*
X113411000Y-61722000D01*
X116078000Y-62484000D02*
X115316000Y-61722000D01*
X116078000Y-65532000D02*
X116078000Y-62484000D01*
X116967000Y-66421000D02*
X116078000Y-65532000D01*
M02*
