G04 #@! TF.FileFunction,Legend,Top*
%FSLAX46Y46*%
G04 Gerber Fmt 4.6, Leading zero omitted, Abs format (unit mm)*
G04 Created by KiCad (PCBNEW (2015-01-16 BZR 5376)-product) date 25/06/2015 00:14:29*
%MOMM*%
G01*
G04 APERTURE LIST*
%ADD10C,0.150000*%
%ADD11C,1.000000*%
%ADD12C,0.127000*%
%ADD13C,0.254000*%
%ADD14C,0.203200*%
%ADD15C,0.066040*%
%ADD16C,0.050800*%
%ADD17C,0.114300*%
%ADD18C,0.088900*%
%ADD19C,0.152400*%
%ADD20R,1.143000X2.413000*%
%ADD21R,1.143000X1.651000*%
%ADD22R,1.651000X1.143000*%
%ADD23R,2.032000X2.032000*%
%ADD24C,2.032000*%
%ADD25R,2.707640X2.308860*%
%ADD26R,2.540000X4.572000*%
%ADD27R,1.506220X1.005840*%
%ADD28C,3.000000*%
%ADD29R,1.258000X1.308000*%
G04 APERTURE END LIST*
D10*
D11*
X107950000Y-66548000D02*
G75*
G03X107950000Y-66548000I-127000J0D01*
G01*
X109601000Y-59690000D02*
G75*
G03X109601000Y-59690000I-127000J0D01*
G01*
X89281000Y-64897000D02*
G75*
G03X89281000Y-64897000I-127000J0D01*
G01*
X86539605Y-70739000D02*
G75*
G03X86539605Y-70739000I-179605J0D01*
G01*
X97282000Y-70104000D02*
G75*
G03X97282000Y-70104000I-127000J0D01*
G01*
X107315000Y-70231000D02*
G75*
G03X107315000Y-70231000I-127000J0D01*
G01*
X108331000Y-47625000D02*
G75*
G03X108331000Y-47625000I-127000J0D01*
G01*
X97917000Y-47752000D02*
G75*
G03X97917000Y-47752000I-127000J0D01*
G01*
X86412605Y-46482000D02*
G75*
G03X86412605Y-46482000I-179605J0D01*
G01*
X88900000Y-54737000D02*
G75*
G03X88900000Y-54737000I-127000J0D01*
G01*
D12*
X100330000Y-63881000D02*
X90170000Y-63881000D01*
X90170000Y-63881000D02*
X90170000Y-55499000D01*
X90170000Y-55499000D02*
X100330000Y-55499000D01*
X100330000Y-55499000D02*
X100330000Y-63881000D01*
X90170000Y-59055000D02*
X90932000Y-59055000D01*
X90932000Y-59055000D02*
X90932000Y-60325000D01*
X90932000Y-60325000D02*
X90170000Y-60325000D01*
X102362000Y-66294000D02*
X104648000Y-66294000D01*
X104648000Y-66294000D02*
X104648000Y-67564000D01*
X104648000Y-67564000D02*
X102362000Y-67564000D01*
X102362000Y-67564000D02*
X102362000Y-66294000D01*
X104648000Y-69596000D02*
X102362000Y-69596000D01*
X102362000Y-69596000D02*
X102362000Y-68326000D01*
X102362000Y-68326000D02*
X104648000Y-68326000D01*
X104648000Y-68326000D02*
X104648000Y-69596000D01*
X102362000Y-54737000D02*
X104648000Y-54737000D01*
X104648000Y-54737000D02*
X104648000Y-56007000D01*
X104648000Y-56007000D02*
X102362000Y-56007000D01*
X102362000Y-56007000D02*
X102362000Y-54737000D01*
X104648000Y-53848000D02*
X102362000Y-53848000D01*
X102362000Y-53848000D02*
X102362000Y-52578000D01*
X102362000Y-52578000D02*
X104648000Y-52578000D01*
X104648000Y-52578000D02*
X104648000Y-53848000D01*
X90805000Y-69723000D02*
X90805000Y-67437000D01*
X90805000Y-67437000D02*
X92075000Y-67437000D01*
X92075000Y-67437000D02*
X92075000Y-69723000D01*
X92075000Y-69723000D02*
X90805000Y-69723000D01*
X92837000Y-69723000D02*
X92837000Y-67437000D01*
X92837000Y-67437000D02*
X94107000Y-67437000D01*
X94107000Y-67437000D02*
X94107000Y-69723000D01*
X94107000Y-69723000D02*
X92837000Y-69723000D01*
X94869000Y-69723000D02*
X94869000Y-67437000D01*
X94869000Y-67437000D02*
X96139000Y-67437000D01*
X96139000Y-67437000D02*
X96139000Y-69723000D01*
X96139000Y-69723000D02*
X94869000Y-69723000D01*
X97155000Y-48387000D02*
X97155000Y-50673000D01*
X97155000Y-50673000D02*
X95885000Y-50673000D01*
X95885000Y-50673000D02*
X95885000Y-48387000D01*
X95885000Y-48387000D02*
X97155000Y-48387000D01*
X99695000Y-48387000D02*
X99695000Y-50673000D01*
X99695000Y-50673000D02*
X98425000Y-50673000D01*
X98425000Y-50673000D02*
X98425000Y-48387000D01*
X98425000Y-48387000D02*
X99695000Y-48387000D01*
X102235000Y-48387000D02*
X102235000Y-50673000D01*
X102235000Y-50673000D02*
X100965000Y-50673000D01*
X100965000Y-50673000D02*
X100965000Y-48387000D01*
X100965000Y-48387000D02*
X102235000Y-48387000D01*
X104775000Y-48387000D02*
X104775000Y-50673000D01*
X104775000Y-50673000D02*
X103505000Y-50673000D01*
X103505000Y-50673000D02*
X103505000Y-48387000D01*
X103505000Y-48387000D02*
X104775000Y-48387000D01*
X107315000Y-48387000D02*
X107315000Y-50673000D01*
X107315000Y-50673000D02*
X106045000Y-50673000D01*
X106045000Y-50673000D02*
X106045000Y-48387000D01*
X106045000Y-48387000D02*
X107315000Y-48387000D01*
X109855000Y-48387000D02*
X109855000Y-50673000D01*
X109855000Y-50673000D02*
X108585000Y-50673000D01*
X108585000Y-50673000D02*
X108585000Y-48387000D01*
X108585000Y-48387000D02*
X109855000Y-48387000D01*
D13*
X125730000Y-64008000D02*
X125730000Y-53848000D01*
X128270000Y-64008000D02*
X128270000Y-53848000D01*
X128270000Y-53848000D02*
X125730000Y-53848000D01*
X125730000Y-64008000D02*
X128270000Y-64008000D01*
X118110000Y-46990000D02*
X107950000Y-46990000D01*
X118110000Y-44450000D02*
X107950000Y-44450000D01*
X107950000Y-44450000D02*
X107950000Y-46990000D01*
X118110000Y-46990000D02*
X118110000Y-44450000D01*
X107950000Y-46990000D02*
X97790000Y-46990000D01*
X107950000Y-44450000D02*
X97790000Y-44450000D01*
X97790000Y-44450000D02*
X97790000Y-46990000D01*
X107950000Y-46990000D02*
X107950000Y-44450000D01*
X97790000Y-46990000D02*
X87630000Y-46990000D01*
X97790000Y-44450000D02*
X87630000Y-44450000D01*
X87630000Y-44450000D02*
X87630000Y-46990000D01*
X97790000Y-46990000D02*
X97790000Y-44450000D01*
X118110000Y-73660000D02*
X107950000Y-73660000D01*
X118110000Y-71120000D02*
X107950000Y-71120000D01*
X107950000Y-71120000D02*
X107950000Y-73660000D01*
X118110000Y-73660000D02*
X118110000Y-71120000D01*
X107950000Y-73660000D02*
X97790000Y-73660000D01*
X107950000Y-71120000D02*
X97790000Y-71120000D01*
X97790000Y-71120000D02*
X97790000Y-73660000D01*
X107950000Y-73660000D02*
X107950000Y-71120000D01*
X97790000Y-73660000D02*
X87630000Y-73660000D01*
X97790000Y-71120000D02*
X87630000Y-71120000D01*
X87630000Y-71120000D02*
X87630000Y-73660000D01*
X97790000Y-73660000D02*
X97790000Y-71120000D01*
X85090000Y-64008000D02*
X85090000Y-53848000D01*
X87630000Y-64008000D02*
X87630000Y-53848000D01*
X87630000Y-53848000D02*
X85090000Y-53848000D01*
X85090000Y-64008000D02*
X87630000Y-64008000D01*
D12*
X122936000Y-64516000D02*
X122936000Y-64719200D01*
X121031000Y-66040000D02*
X121031000Y-61468000D01*
X121031000Y-61468000D02*
X121666000Y-61468000D01*
X124841000Y-63093600D02*
X121031000Y-63093600D01*
X124841000Y-62763400D02*
X121031000Y-62763400D01*
X124206000Y-66040000D02*
X124841000Y-66040000D01*
X124841000Y-66040000D02*
X124841000Y-61468000D01*
X124841000Y-61468000D02*
X124206000Y-61468000D01*
X121666000Y-66040000D02*
X121031000Y-66040000D01*
X122936000Y-63881000D02*
X122461020Y-64516000D01*
X122461020Y-64516000D02*
X122936000Y-64516000D01*
X122936000Y-64516000D02*
X123410980Y-64516000D01*
X123410980Y-64516000D02*
X122936000Y-63881000D01*
X122936000Y-63881000D02*
X122618500Y-63881000D01*
X122618500Y-63881000D02*
X122461020Y-64038480D01*
X122936000Y-63881000D02*
X123253500Y-63881000D01*
X123253500Y-63881000D02*
X123410980Y-63723520D01*
X122936000Y-63881000D02*
X122936000Y-62771020D01*
X122936000Y-54991000D02*
X122936000Y-55194200D01*
X121031000Y-56515000D02*
X121031000Y-51943000D01*
X121031000Y-51943000D02*
X121666000Y-51943000D01*
X124841000Y-53568600D02*
X121031000Y-53568600D01*
X124841000Y-53238400D02*
X121031000Y-53238400D01*
X124206000Y-56515000D02*
X124841000Y-56515000D01*
X124841000Y-56515000D02*
X124841000Y-51943000D01*
X124841000Y-51943000D02*
X124206000Y-51943000D01*
X121666000Y-56515000D02*
X121031000Y-56515000D01*
X122936000Y-54356000D02*
X122461020Y-54991000D01*
X122461020Y-54991000D02*
X122936000Y-54991000D01*
X122936000Y-54991000D02*
X123410980Y-54991000D01*
X123410980Y-54991000D02*
X122936000Y-54356000D01*
X122936000Y-54356000D02*
X122618500Y-54356000D01*
X122618500Y-54356000D02*
X122461020Y-54513480D01*
X122936000Y-54356000D02*
X123253500Y-54356000D01*
X123253500Y-54356000D02*
X123410980Y-54198520D01*
X122936000Y-54356000D02*
X122936000Y-53246020D01*
D14*
X120142000Y-68580000D02*
X117856000Y-68580000D01*
X117856000Y-64262000D02*
X120142000Y-64262000D01*
X114554000Y-68580000D02*
X112268000Y-68580000D01*
X112268000Y-64262000D02*
X114554000Y-64262000D01*
X112268000Y-68580000D02*
X112268000Y-64262000D01*
X120142000Y-64262000D02*
X120142000Y-68580000D01*
X120142000Y-63881000D02*
X117856000Y-63881000D01*
X117856000Y-59563000D02*
X120142000Y-59563000D01*
X114554000Y-63881000D02*
X112268000Y-63881000D01*
X112268000Y-59563000D02*
X114554000Y-59563000D01*
X112268000Y-63881000D02*
X112268000Y-59563000D01*
X120142000Y-59563000D02*
X120142000Y-63881000D01*
X120142000Y-53848000D02*
X117856000Y-53848000D01*
X117856000Y-49530000D02*
X120142000Y-49530000D01*
X114554000Y-53848000D02*
X112268000Y-53848000D01*
X112268000Y-49530000D02*
X114554000Y-49530000D01*
X112268000Y-53848000D02*
X112268000Y-49530000D01*
X120142000Y-49530000D02*
X120142000Y-53848000D01*
X120142000Y-58547000D02*
X117856000Y-58547000D01*
X117856000Y-54229000D02*
X120142000Y-54229000D01*
X114554000Y-58547000D02*
X112268000Y-58547000D01*
X112268000Y-54229000D02*
X114554000Y-54229000D01*
X112268000Y-58547000D02*
X112268000Y-54229000D01*
X120142000Y-54229000D02*
X120142000Y-58547000D01*
D12*
X111506000Y-67437000D02*
X109220000Y-67437000D01*
X109220000Y-67437000D02*
X109220000Y-66167000D01*
X109220000Y-66167000D02*
X111506000Y-66167000D01*
X111506000Y-66167000D02*
X111506000Y-67437000D01*
X108839000Y-54864000D02*
X111125000Y-54864000D01*
X111125000Y-54864000D02*
X111125000Y-56134000D01*
X111125000Y-56134000D02*
X108839000Y-56134000D01*
X108839000Y-56134000D02*
X108839000Y-54864000D01*
D15*
X109768640Y-58483500D02*
X108447840Y-58483500D01*
X108447840Y-58483500D02*
X108447840Y-58864500D01*
X109768640Y-58864500D02*
X108447840Y-58864500D01*
X109768640Y-58483500D02*
X109768640Y-58864500D01*
X109768640Y-57213500D02*
X108447840Y-57213500D01*
X108447840Y-57213500D02*
X108447840Y-57594500D01*
X109768640Y-57594500D02*
X108447840Y-57594500D01*
X109768640Y-57213500D02*
X109768640Y-57594500D01*
X104150160Y-57213500D02*
X102829360Y-57213500D01*
X102829360Y-57213500D02*
X102829360Y-57594500D01*
X104150160Y-57594500D02*
X102829360Y-57594500D01*
X104150160Y-57213500D02*
X104150160Y-57594500D01*
X104150160Y-58483500D02*
X102829360Y-58483500D01*
X102829360Y-58483500D02*
X102829360Y-58864500D01*
X104150160Y-58864500D02*
X102829360Y-58864500D01*
X104150160Y-58483500D02*
X104150160Y-58864500D01*
D14*
X108381800Y-56870600D02*
X104216200Y-56870600D01*
X104216200Y-56870600D02*
X104216200Y-59207400D01*
X104216200Y-59207400D02*
X108381800Y-59207400D01*
X108381800Y-59207400D02*
X108381800Y-56870600D01*
D16*
X107815187Y-58392060D02*
G75*
G03X107815187Y-58392060I-233487J0D01*
G01*
D15*
X109768640Y-64833500D02*
X108447840Y-64833500D01*
X108447840Y-64833500D02*
X108447840Y-65214500D01*
X109768640Y-65214500D02*
X108447840Y-65214500D01*
X109768640Y-64833500D02*
X109768640Y-65214500D01*
X109768640Y-63563500D02*
X108447840Y-63563500D01*
X108447840Y-63563500D02*
X108447840Y-63944500D01*
X109768640Y-63944500D02*
X108447840Y-63944500D01*
X109768640Y-63563500D02*
X109768640Y-63944500D01*
X104150160Y-63563500D02*
X102829360Y-63563500D01*
X102829360Y-63563500D02*
X102829360Y-63944500D01*
X104150160Y-63944500D02*
X102829360Y-63944500D01*
X104150160Y-63563500D02*
X104150160Y-63944500D01*
X104150160Y-64833500D02*
X102829360Y-64833500D01*
X102829360Y-64833500D02*
X102829360Y-65214500D01*
X104150160Y-65214500D02*
X102829360Y-65214500D01*
X104150160Y-64833500D02*
X104150160Y-65214500D01*
D14*
X108381800Y-63220600D02*
X104216200Y-63220600D01*
X104216200Y-63220600D02*
X104216200Y-65557400D01*
X104216200Y-65557400D02*
X108381800Y-65557400D01*
X108381800Y-65557400D02*
X108381800Y-63220600D01*
D16*
X107815187Y-64742060D02*
G75*
G03X107815187Y-64742060I-233487J0D01*
G01*
D10*
X90840000Y-50769000D02*
X90840000Y-50069000D01*
X92040000Y-50069000D02*
X92040000Y-50769000D01*
X89443000Y-50769000D02*
X89443000Y-50069000D01*
X90643000Y-50069000D02*
X90643000Y-50769000D01*
D14*
X92474143Y-51825071D02*
X92474143Y-52750357D01*
X92528571Y-52859214D01*
X92583000Y-52913643D01*
X92691857Y-52968071D01*
X92909571Y-52968071D01*
X93018429Y-52913643D01*
X93072857Y-52859214D01*
X93127286Y-52750357D01*
X93127286Y-51825071D01*
X94270286Y-52968071D02*
X93617143Y-52968071D01*
X93943715Y-52968071D02*
X93943715Y-51825071D01*
X93834858Y-51988357D01*
X93726000Y-52097214D01*
X93617143Y-52151643D01*
D17*
X105370085Y-67158810D02*
X105217685Y-66916905D01*
X105108828Y-67158810D02*
X105108828Y-66650810D01*
X105283000Y-66650810D01*
X105326542Y-66675000D01*
X105348314Y-66699190D01*
X105370085Y-66747571D01*
X105370085Y-66820143D01*
X105348314Y-66868524D01*
X105326542Y-66892714D01*
X105283000Y-66916905D01*
X105108828Y-66916905D01*
X105805514Y-67158810D02*
X105544257Y-67158810D01*
X105674885Y-67158810D02*
X105674885Y-66650810D01*
X105631342Y-66723381D01*
X105587800Y-66771762D01*
X105544257Y-66795952D01*
X105957914Y-66650810D02*
X106240943Y-66650810D01*
X106088543Y-66844333D01*
X106153857Y-66844333D01*
X106197400Y-66868524D01*
X106219171Y-66892714D01*
X106240943Y-66941095D01*
X106240943Y-67062048D01*
X106219171Y-67110429D01*
X106197400Y-67134619D01*
X106153857Y-67158810D01*
X106023229Y-67158810D01*
X105979686Y-67134619D01*
X105957914Y-67110429D01*
X101052085Y-69190810D02*
X100899685Y-68948905D01*
X100790828Y-69190810D02*
X100790828Y-68682810D01*
X100965000Y-68682810D01*
X101008542Y-68707000D01*
X101030314Y-68731190D01*
X101052085Y-68779571D01*
X101052085Y-68852143D01*
X101030314Y-68900524D01*
X101008542Y-68924714D01*
X100965000Y-68948905D01*
X100790828Y-68948905D01*
X101487514Y-69190810D02*
X101226257Y-69190810D01*
X101356885Y-69190810D02*
X101356885Y-68682810D01*
X101313342Y-68755381D01*
X101269800Y-68803762D01*
X101226257Y-68827952D01*
X101661686Y-68731190D02*
X101683457Y-68707000D01*
X101727000Y-68682810D01*
X101835857Y-68682810D01*
X101879400Y-68707000D01*
X101901171Y-68731190D01*
X101922943Y-68779571D01*
X101922943Y-68827952D01*
X101901171Y-68900524D01*
X101639914Y-69190810D01*
X101922943Y-69190810D01*
X101179085Y-55601810D02*
X101026685Y-55359905D01*
X100917828Y-55601810D02*
X100917828Y-55093810D01*
X101092000Y-55093810D01*
X101135542Y-55118000D01*
X101157314Y-55142190D01*
X101179085Y-55190571D01*
X101179085Y-55263143D01*
X101157314Y-55311524D01*
X101135542Y-55335714D01*
X101092000Y-55359905D01*
X100917828Y-55359905D01*
X101614514Y-55601810D02*
X101353257Y-55601810D01*
X101483885Y-55601810D02*
X101483885Y-55093810D01*
X101440342Y-55166381D01*
X101396800Y-55214762D01*
X101353257Y-55238952D01*
X102049943Y-55601810D02*
X101788686Y-55601810D01*
X101919314Y-55601810D02*
X101919314Y-55093810D01*
X101875771Y-55166381D01*
X101832229Y-55214762D01*
X101788686Y-55238952D01*
X101179085Y-53442810D02*
X101026685Y-53200905D01*
X100917828Y-53442810D02*
X100917828Y-52934810D01*
X101092000Y-52934810D01*
X101135542Y-52959000D01*
X101157314Y-52983190D01*
X101179085Y-53031571D01*
X101179085Y-53104143D01*
X101157314Y-53152524D01*
X101135542Y-53176714D01*
X101092000Y-53200905D01*
X100917828Y-53200905D01*
X101614514Y-53442810D02*
X101353257Y-53442810D01*
X101483885Y-53442810D02*
X101483885Y-52934810D01*
X101440342Y-53007381D01*
X101396800Y-53055762D01*
X101353257Y-53079952D01*
X101897543Y-52934810D02*
X101941086Y-52934810D01*
X101984629Y-52959000D01*
X102006400Y-52983190D01*
X102028171Y-53031571D01*
X102049943Y-53128333D01*
X102049943Y-53249286D01*
X102028171Y-53346048D01*
X102006400Y-53394429D01*
X101984629Y-53418619D01*
X101941086Y-53442810D01*
X101897543Y-53442810D01*
X101854000Y-53418619D01*
X101832229Y-53394429D01*
X101810457Y-53346048D01*
X101788686Y-53249286D01*
X101788686Y-53128333D01*
X101810457Y-53031571D01*
X101832229Y-52983190D01*
X101854000Y-52959000D01*
X101897543Y-52934810D01*
X91363800Y-70587810D02*
X91211400Y-70345905D01*
X91102543Y-70587810D02*
X91102543Y-70079810D01*
X91276715Y-70079810D01*
X91320257Y-70104000D01*
X91342029Y-70128190D01*
X91363800Y-70176571D01*
X91363800Y-70249143D01*
X91342029Y-70297524D01*
X91320257Y-70321714D01*
X91276715Y-70345905D01*
X91102543Y-70345905D01*
X91581515Y-70587810D02*
X91668600Y-70587810D01*
X91712143Y-70563619D01*
X91733915Y-70539429D01*
X91777457Y-70466857D01*
X91799229Y-70370095D01*
X91799229Y-70176571D01*
X91777457Y-70128190D01*
X91755686Y-70104000D01*
X91712143Y-70079810D01*
X91625057Y-70079810D01*
X91581515Y-70104000D01*
X91559743Y-70128190D01*
X91537972Y-70176571D01*
X91537972Y-70297524D01*
X91559743Y-70345905D01*
X91581515Y-70370095D01*
X91625057Y-70394286D01*
X91712143Y-70394286D01*
X91755686Y-70370095D01*
X91777457Y-70345905D01*
X91799229Y-70297524D01*
X93395800Y-70587810D02*
X93243400Y-70345905D01*
X93134543Y-70587810D02*
X93134543Y-70079810D01*
X93308715Y-70079810D01*
X93352257Y-70104000D01*
X93374029Y-70128190D01*
X93395800Y-70176571D01*
X93395800Y-70249143D01*
X93374029Y-70297524D01*
X93352257Y-70321714D01*
X93308715Y-70345905D01*
X93134543Y-70345905D01*
X93657057Y-70297524D02*
X93613515Y-70273333D01*
X93591743Y-70249143D01*
X93569972Y-70200762D01*
X93569972Y-70176571D01*
X93591743Y-70128190D01*
X93613515Y-70104000D01*
X93657057Y-70079810D01*
X93744143Y-70079810D01*
X93787686Y-70104000D01*
X93809457Y-70128190D01*
X93831229Y-70176571D01*
X93831229Y-70200762D01*
X93809457Y-70249143D01*
X93787686Y-70273333D01*
X93744143Y-70297524D01*
X93657057Y-70297524D01*
X93613515Y-70321714D01*
X93591743Y-70345905D01*
X93569972Y-70394286D01*
X93569972Y-70491048D01*
X93591743Y-70539429D01*
X93613515Y-70563619D01*
X93657057Y-70587810D01*
X93744143Y-70587810D01*
X93787686Y-70563619D01*
X93809457Y-70539429D01*
X93831229Y-70491048D01*
X93831229Y-70394286D01*
X93809457Y-70345905D01*
X93787686Y-70321714D01*
X93744143Y-70297524D01*
X95427800Y-70587810D02*
X95275400Y-70345905D01*
X95166543Y-70587810D02*
X95166543Y-70079810D01*
X95340715Y-70079810D01*
X95384257Y-70104000D01*
X95406029Y-70128190D01*
X95427800Y-70176571D01*
X95427800Y-70249143D01*
X95406029Y-70297524D01*
X95384257Y-70321714D01*
X95340715Y-70345905D01*
X95166543Y-70345905D01*
X95580200Y-70079810D02*
X95885000Y-70079810D01*
X95689057Y-70587810D01*
X96443800Y-51537810D02*
X96291400Y-51295905D01*
X96182543Y-51537810D02*
X96182543Y-51029810D01*
X96356715Y-51029810D01*
X96400257Y-51054000D01*
X96422029Y-51078190D01*
X96443800Y-51126571D01*
X96443800Y-51199143D01*
X96422029Y-51247524D01*
X96400257Y-51271714D01*
X96356715Y-51295905D01*
X96182543Y-51295905D01*
X96879229Y-51537810D02*
X96617972Y-51537810D01*
X96748600Y-51537810D02*
X96748600Y-51029810D01*
X96705057Y-51102381D01*
X96661515Y-51150762D01*
X96617972Y-51174952D01*
X98983800Y-51537810D02*
X98831400Y-51295905D01*
X98722543Y-51537810D02*
X98722543Y-51029810D01*
X98896715Y-51029810D01*
X98940257Y-51054000D01*
X98962029Y-51078190D01*
X98983800Y-51126571D01*
X98983800Y-51199143D01*
X98962029Y-51247524D01*
X98940257Y-51271714D01*
X98896715Y-51295905D01*
X98722543Y-51295905D01*
X99157972Y-51078190D02*
X99179743Y-51054000D01*
X99223286Y-51029810D01*
X99332143Y-51029810D01*
X99375686Y-51054000D01*
X99397457Y-51078190D01*
X99419229Y-51126571D01*
X99419229Y-51174952D01*
X99397457Y-51247524D01*
X99136200Y-51537810D01*
X99419229Y-51537810D01*
X101650800Y-51537810D02*
X101498400Y-51295905D01*
X101389543Y-51537810D02*
X101389543Y-51029810D01*
X101563715Y-51029810D01*
X101607257Y-51054000D01*
X101629029Y-51078190D01*
X101650800Y-51126571D01*
X101650800Y-51199143D01*
X101629029Y-51247524D01*
X101607257Y-51271714D01*
X101563715Y-51295905D01*
X101389543Y-51295905D01*
X101803200Y-51029810D02*
X102086229Y-51029810D01*
X101933829Y-51223333D01*
X101999143Y-51223333D01*
X102042686Y-51247524D01*
X102064457Y-51271714D01*
X102086229Y-51320095D01*
X102086229Y-51441048D01*
X102064457Y-51489429D01*
X102042686Y-51513619D01*
X101999143Y-51537810D01*
X101868515Y-51537810D01*
X101824972Y-51513619D01*
X101803200Y-51489429D01*
X104063800Y-51537810D02*
X103911400Y-51295905D01*
X103802543Y-51537810D02*
X103802543Y-51029810D01*
X103976715Y-51029810D01*
X104020257Y-51054000D01*
X104042029Y-51078190D01*
X104063800Y-51126571D01*
X104063800Y-51199143D01*
X104042029Y-51247524D01*
X104020257Y-51271714D01*
X103976715Y-51295905D01*
X103802543Y-51295905D01*
X104455686Y-51199143D02*
X104455686Y-51537810D01*
X104346829Y-51005619D02*
X104237972Y-51368476D01*
X104521000Y-51368476D01*
X106603800Y-51537810D02*
X106451400Y-51295905D01*
X106342543Y-51537810D02*
X106342543Y-51029810D01*
X106516715Y-51029810D01*
X106560257Y-51054000D01*
X106582029Y-51078190D01*
X106603800Y-51126571D01*
X106603800Y-51199143D01*
X106582029Y-51247524D01*
X106560257Y-51271714D01*
X106516715Y-51295905D01*
X106342543Y-51295905D01*
X107017457Y-51029810D02*
X106799743Y-51029810D01*
X106777972Y-51271714D01*
X106799743Y-51247524D01*
X106843286Y-51223333D01*
X106952143Y-51223333D01*
X106995686Y-51247524D01*
X107017457Y-51271714D01*
X107039229Y-51320095D01*
X107039229Y-51441048D01*
X107017457Y-51489429D01*
X106995686Y-51513619D01*
X106952143Y-51537810D01*
X106843286Y-51537810D01*
X106799743Y-51513619D01*
X106777972Y-51489429D01*
X110667800Y-49759810D02*
X110515400Y-49517905D01*
X110406543Y-49759810D02*
X110406543Y-49251810D01*
X110580715Y-49251810D01*
X110624257Y-49276000D01*
X110646029Y-49300190D01*
X110667800Y-49348571D01*
X110667800Y-49421143D01*
X110646029Y-49469524D01*
X110624257Y-49493714D01*
X110580715Y-49517905D01*
X110406543Y-49517905D01*
X111059686Y-49251810D02*
X110972600Y-49251810D01*
X110929057Y-49276000D01*
X110907286Y-49300190D01*
X110863743Y-49372762D01*
X110841972Y-49469524D01*
X110841972Y-49663048D01*
X110863743Y-49711429D01*
X110885515Y-49735619D01*
X110929057Y-49759810D01*
X111016143Y-49759810D01*
X111059686Y-49735619D01*
X111081457Y-49711429D01*
X111103229Y-49663048D01*
X111103229Y-49542095D01*
X111081457Y-49493714D01*
X111059686Y-49469524D01*
X111016143Y-49445333D01*
X110929057Y-49445333D01*
X110885515Y-49469524D01*
X110863743Y-49493714D01*
X110841972Y-49542095D01*
D14*
X126250096Y-65356619D02*
X126250096Y-64340619D01*
X126637143Y-64340619D01*
X126733905Y-64389000D01*
X126782286Y-64437381D01*
X126830667Y-64534143D01*
X126830667Y-64679286D01*
X126782286Y-64776048D01*
X126733905Y-64824429D01*
X126637143Y-64872810D01*
X126250096Y-64872810D01*
X127411239Y-64776048D02*
X127314477Y-64727667D01*
X127266096Y-64679286D01*
X127217715Y-64582524D01*
X127217715Y-64534143D01*
X127266096Y-64437381D01*
X127314477Y-64389000D01*
X127411239Y-64340619D01*
X127604762Y-64340619D01*
X127701524Y-64389000D01*
X127749905Y-64437381D01*
X127798286Y-64534143D01*
X127798286Y-64582524D01*
X127749905Y-64679286D01*
X127701524Y-64727667D01*
X127604762Y-64776048D01*
X127411239Y-64776048D01*
X127314477Y-64824429D01*
X127266096Y-64872810D01*
X127217715Y-64969571D01*
X127217715Y-65163095D01*
X127266096Y-65259857D01*
X127314477Y-65308238D01*
X127411239Y-65356619D01*
X127604762Y-65356619D01*
X127701524Y-65308238D01*
X127749905Y-65259857D01*
X127798286Y-65163095D01*
X127798286Y-64969571D01*
X127749905Y-64872810D01*
X127701524Y-64824429D01*
X127604762Y-64776048D01*
X120789096Y-46179619D02*
X120789096Y-45163619D01*
X121176143Y-45163619D01*
X121272905Y-45212000D01*
X121321286Y-45260381D01*
X121369667Y-45357143D01*
X121369667Y-45502286D01*
X121321286Y-45599048D01*
X121272905Y-45647429D01*
X121176143Y-45695810D01*
X120789096Y-45695810D01*
X121708334Y-45163619D02*
X122385667Y-45163619D01*
X121950239Y-46179619D01*
X118630096Y-46179619D02*
X118630096Y-45163619D01*
X119017143Y-45163619D01*
X119113905Y-45212000D01*
X119162286Y-45260381D01*
X119210667Y-45357143D01*
X119210667Y-45502286D01*
X119162286Y-45599048D01*
X119113905Y-45647429D01*
X119017143Y-45695810D01*
X118630096Y-45695810D01*
X120081524Y-45163619D02*
X119888001Y-45163619D01*
X119791239Y-45212000D01*
X119742858Y-45260381D01*
X119646096Y-45405524D01*
X119597715Y-45599048D01*
X119597715Y-45986095D01*
X119646096Y-46082857D01*
X119694477Y-46131238D01*
X119791239Y-46179619D01*
X119984762Y-46179619D01*
X120081524Y-46131238D01*
X120129905Y-46082857D01*
X120178286Y-45986095D01*
X120178286Y-45744190D01*
X120129905Y-45647429D01*
X120081524Y-45599048D01*
X119984762Y-45550667D01*
X119791239Y-45550667D01*
X119694477Y-45599048D01*
X119646096Y-45647429D01*
X119597715Y-45744190D01*
X85483096Y-45290619D02*
X85483096Y-44274619D01*
X85870143Y-44274619D01*
X85966905Y-44323000D01*
X86015286Y-44371381D01*
X86063667Y-44468143D01*
X86063667Y-44613286D01*
X86015286Y-44710048D01*
X85966905Y-44758429D01*
X85870143Y-44806810D01*
X85483096Y-44806810D01*
X86982905Y-44274619D02*
X86499096Y-44274619D01*
X86450715Y-44758429D01*
X86499096Y-44710048D01*
X86595858Y-44661667D01*
X86837762Y-44661667D01*
X86934524Y-44710048D01*
X86982905Y-44758429D01*
X87031286Y-44855190D01*
X87031286Y-45097095D01*
X86982905Y-45193857D01*
X86934524Y-45242238D01*
X86837762Y-45290619D01*
X86595858Y-45290619D01*
X86499096Y-45242238D01*
X86450715Y-45193857D01*
X108470096Y-70309619D02*
X108470096Y-69293619D01*
X108857143Y-69293619D01*
X108953905Y-69342000D01*
X109002286Y-69390381D01*
X109050667Y-69487143D01*
X109050667Y-69632286D01*
X109002286Y-69729048D01*
X108953905Y-69777429D01*
X108857143Y-69825810D01*
X108470096Y-69825810D01*
X109921524Y-69632286D02*
X109921524Y-70309619D01*
X109679620Y-69245238D02*
X109437715Y-69970952D01*
X110066667Y-69970952D01*
X98310096Y-70309619D02*
X98310096Y-69293619D01*
X98697143Y-69293619D01*
X98793905Y-69342000D01*
X98842286Y-69390381D01*
X98890667Y-69487143D01*
X98890667Y-69632286D01*
X98842286Y-69729048D01*
X98793905Y-69777429D01*
X98697143Y-69825810D01*
X98310096Y-69825810D01*
X99229334Y-69293619D02*
X99858286Y-69293619D01*
X99519620Y-69680667D01*
X99664762Y-69680667D01*
X99761524Y-69729048D01*
X99809905Y-69777429D01*
X99858286Y-69874190D01*
X99858286Y-70116095D01*
X99809905Y-70212857D01*
X99761524Y-70261238D01*
X99664762Y-70309619D01*
X99374477Y-70309619D01*
X99277715Y-70261238D01*
X99229334Y-70212857D01*
X87896096Y-70309619D02*
X87896096Y-69293619D01*
X88283143Y-69293619D01*
X88379905Y-69342000D01*
X88428286Y-69390381D01*
X88476667Y-69487143D01*
X88476667Y-69632286D01*
X88428286Y-69729048D01*
X88379905Y-69777429D01*
X88283143Y-69825810D01*
X87896096Y-69825810D01*
X88863715Y-69390381D02*
X88912096Y-69342000D01*
X89008858Y-69293619D01*
X89250762Y-69293619D01*
X89347524Y-69342000D01*
X89395905Y-69390381D01*
X89444286Y-69487143D01*
X89444286Y-69583905D01*
X89395905Y-69729048D01*
X88815334Y-70309619D01*
X89444286Y-70309619D01*
X85864096Y-65991619D02*
X85864096Y-64975619D01*
X86251143Y-64975619D01*
X86347905Y-65024000D01*
X86396286Y-65072381D01*
X86444667Y-65169143D01*
X86444667Y-65314286D01*
X86396286Y-65411048D01*
X86347905Y-65459429D01*
X86251143Y-65507810D01*
X85864096Y-65507810D01*
X87412286Y-65991619D02*
X86831715Y-65991619D01*
X87122001Y-65991619D02*
X87122001Y-64975619D01*
X87025239Y-65120762D01*
X86928477Y-65217524D01*
X86831715Y-65265905D01*
D18*
X121998619Y-60264524D02*
X121998619Y-58994524D01*
X122301000Y-58994524D01*
X122482428Y-59055000D01*
X122603381Y-59175952D01*
X122663857Y-59296905D01*
X122724333Y-59538810D01*
X122724333Y-59720238D01*
X122663857Y-59962143D01*
X122603381Y-60083095D01*
X122482428Y-60204048D01*
X122301000Y-60264524D01*
X121998619Y-60264524D01*
X123208143Y-59115476D02*
X123268619Y-59055000D01*
X123389571Y-58994524D01*
X123691952Y-58994524D01*
X123812905Y-59055000D01*
X123873381Y-59115476D01*
X123933857Y-59236429D01*
X123933857Y-59357381D01*
X123873381Y-59538810D01*
X123147667Y-60264524D01*
X123933857Y-60264524D01*
X125161524Y-69275476D02*
X125161524Y-68428810D01*
X126431524Y-69275476D01*
X126431524Y-68428810D01*
X125766286Y-67945000D02*
X125766286Y-67521667D01*
X126431524Y-67340238D02*
X126431524Y-67945000D01*
X125161524Y-67945000D01*
X125161524Y-67340238D01*
X126431524Y-66795952D02*
X125161524Y-66795952D01*
X126431524Y-66070238D01*
X125161524Y-66070238D01*
X125766286Y-65465476D02*
X125766286Y-65042143D01*
X126431524Y-64860714D02*
X126431524Y-65465476D01*
X125161524Y-65465476D01*
X125161524Y-64860714D01*
X126431524Y-63590714D02*
X125826762Y-64014047D01*
X126431524Y-64316428D02*
X125161524Y-64316428D01*
X125161524Y-63832619D01*
X125222000Y-63711666D01*
X125282476Y-63651190D01*
X125403429Y-63590714D01*
X125584857Y-63590714D01*
X125705810Y-63651190D01*
X125766286Y-63711666D01*
X125826762Y-63832619D01*
X125826762Y-64316428D01*
X126371048Y-63106904D02*
X126431524Y-62925476D01*
X126431524Y-62623095D01*
X126371048Y-62502142D01*
X126310571Y-62441666D01*
X126189619Y-62381190D01*
X126068667Y-62381190D01*
X125947714Y-62441666D01*
X125887238Y-62502142D01*
X125826762Y-62623095D01*
X125766286Y-62864999D01*
X125705810Y-62985952D01*
X125645333Y-63046428D01*
X125524381Y-63106904D01*
X125403429Y-63106904D01*
X125282476Y-63046428D01*
X125222000Y-62985952D01*
X125161524Y-62864999D01*
X125161524Y-62562619D01*
X125222000Y-62381190D01*
X126431524Y-61836904D02*
X125161524Y-61836904D01*
X126068667Y-61413571D01*
X125161524Y-60990237D01*
X126431524Y-60990237D01*
X126068667Y-60445951D02*
X126068667Y-59841189D01*
X126431524Y-60566904D02*
X125161524Y-60143570D01*
X126431524Y-59720237D01*
X126431524Y-58692142D02*
X126431524Y-59296904D01*
X125161524Y-59296904D01*
X126431524Y-57664047D02*
X126431524Y-58268809D01*
X125161524Y-58268809D01*
X121998619Y-50612524D02*
X121998619Y-49342524D01*
X122301000Y-49342524D01*
X122482428Y-49403000D01*
X122603381Y-49523952D01*
X122663857Y-49644905D01*
X122724333Y-49886810D01*
X122724333Y-50068238D01*
X122663857Y-50310143D01*
X122603381Y-50431095D01*
X122482428Y-50552048D01*
X122301000Y-50612524D01*
X121998619Y-50612524D01*
X123933857Y-50612524D02*
X123208143Y-50612524D01*
X123571000Y-50612524D02*
X123571000Y-49342524D01*
X123450048Y-49523952D01*
X123329095Y-49644905D01*
X123208143Y-49705381D01*
X125161524Y-59750476D02*
X125161524Y-58903810D01*
X126431524Y-59750476D01*
X126431524Y-58903810D01*
X125766286Y-58420000D02*
X125766286Y-57996667D01*
X126431524Y-57815238D02*
X126431524Y-58420000D01*
X125161524Y-58420000D01*
X125161524Y-57815238D01*
X126431524Y-57270952D02*
X125161524Y-57270952D01*
X126431524Y-56545238D01*
X125161524Y-56545238D01*
X125766286Y-55940476D02*
X125766286Y-55517143D01*
X126431524Y-55335714D02*
X126431524Y-55940476D01*
X125161524Y-55940476D01*
X125161524Y-55335714D01*
X126431524Y-54065714D02*
X125826762Y-54489047D01*
X126431524Y-54791428D02*
X125161524Y-54791428D01*
X125161524Y-54307619D01*
X125222000Y-54186666D01*
X125282476Y-54126190D01*
X125403429Y-54065714D01*
X125584857Y-54065714D01*
X125705810Y-54126190D01*
X125766286Y-54186666D01*
X125826762Y-54307619D01*
X125826762Y-54791428D01*
X126371048Y-53581904D02*
X126431524Y-53400476D01*
X126431524Y-53098095D01*
X126371048Y-52977142D01*
X126310571Y-52916666D01*
X126189619Y-52856190D01*
X126068667Y-52856190D01*
X125947714Y-52916666D01*
X125887238Y-52977142D01*
X125826762Y-53098095D01*
X125766286Y-53339999D01*
X125705810Y-53460952D01*
X125645333Y-53521428D01*
X125524381Y-53581904D01*
X125403429Y-53581904D01*
X125282476Y-53521428D01*
X125222000Y-53460952D01*
X125161524Y-53339999D01*
X125161524Y-53037619D01*
X125222000Y-52856190D01*
X126431524Y-52311904D02*
X125161524Y-52311904D01*
X126068667Y-51888571D01*
X125161524Y-51465237D01*
X126431524Y-51465237D01*
X126068667Y-50920951D02*
X126068667Y-50316189D01*
X126431524Y-51041904D02*
X125161524Y-50618570D01*
X126431524Y-50195237D01*
X126431524Y-49167142D02*
X126431524Y-49771904D01*
X125161524Y-49771904D01*
X126431524Y-48139047D02*
X126431524Y-48743809D01*
X125161524Y-48743809D01*
D19*
X112966500Y-70252167D02*
X112670166Y-69828833D01*
X112458500Y-70252167D02*
X112458500Y-69363167D01*
X112797166Y-69363167D01*
X112881833Y-69405500D01*
X112924166Y-69447833D01*
X112966500Y-69532500D01*
X112966500Y-69659500D01*
X112924166Y-69744167D01*
X112881833Y-69786500D01*
X112797166Y-69828833D01*
X112458500Y-69828833D01*
X113813166Y-70252167D02*
X113305166Y-70252167D01*
X113559166Y-70252167D02*
X113559166Y-69363167D01*
X113474500Y-69490167D01*
X113389833Y-69574833D01*
X113305166Y-69617167D01*
X114109500Y-69363167D02*
X114702167Y-69363167D01*
X114321167Y-70252167D01*
X116691833Y-67945001D02*
X116649500Y-67902667D01*
X116607167Y-67818001D01*
X116607167Y-67606334D01*
X116649500Y-67521667D01*
X116691833Y-67479334D01*
X116776500Y-67437001D01*
X116861167Y-67437001D01*
X116988167Y-67479334D01*
X117496167Y-67987334D01*
X117496167Y-67437001D01*
X116903500Y-66675000D02*
X117496167Y-66675000D01*
X116564833Y-66886667D02*
X117199833Y-67098334D01*
X117199833Y-66548000D01*
X116607167Y-66040000D02*
X116607167Y-65955333D01*
X116649500Y-65870667D01*
X116691833Y-65828333D01*
X116776500Y-65786000D01*
X116945833Y-65743667D01*
X117157500Y-65743667D01*
X117326833Y-65786000D01*
X117411500Y-65828333D01*
X117453833Y-65870667D01*
X117496167Y-65955333D01*
X117496167Y-66040000D01*
X117453833Y-66124667D01*
X117411500Y-66167000D01*
X117326833Y-66209333D01*
X117157500Y-66251667D01*
X116945833Y-66251667D01*
X116776500Y-66209333D01*
X116691833Y-66167000D01*
X116649500Y-66124667D01*
X116607167Y-66040000D01*
X116607167Y-65193333D02*
X116607167Y-65108666D01*
X116649500Y-65024000D01*
X116691833Y-64981666D01*
X116776500Y-64939333D01*
X116945833Y-64897000D01*
X117157500Y-64897000D01*
X117326833Y-64939333D01*
X117411500Y-64981666D01*
X117453833Y-65024000D01*
X117496167Y-65108666D01*
X117496167Y-65193333D01*
X117453833Y-65278000D01*
X117411500Y-65320333D01*
X117326833Y-65362666D01*
X117157500Y-65405000D01*
X116945833Y-65405000D01*
X116776500Y-65362666D01*
X116691833Y-65320333D01*
X116649500Y-65278000D01*
X116607167Y-65193333D01*
X110045500Y-61489167D02*
X109749166Y-61065833D01*
X109537500Y-61489167D02*
X109537500Y-60600167D01*
X109876166Y-60600167D01*
X109960833Y-60642500D01*
X110003166Y-60684833D01*
X110045500Y-60769500D01*
X110045500Y-60896500D01*
X110003166Y-60981167D01*
X109960833Y-61023500D01*
X109876166Y-61065833D01*
X109537500Y-61065833D01*
X110892166Y-61489167D02*
X110384166Y-61489167D01*
X110638166Y-61489167D02*
X110638166Y-60600167D01*
X110553500Y-60727167D01*
X110468833Y-60811833D01*
X110384166Y-60854167D01*
X111315500Y-61489167D02*
X111484833Y-61489167D01*
X111569500Y-61446833D01*
X111611833Y-61404500D01*
X111696500Y-61277500D01*
X111738833Y-61108167D01*
X111738833Y-60769500D01*
X111696500Y-60684833D01*
X111654167Y-60642500D01*
X111569500Y-60600167D01*
X111400167Y-60600167D01*
X111315500Y-60642500D01*
X111273167Y-60684833D01*
X111230833Y-60769500D01*
X111230833Y-60981167D01*
X111273167Y-61065833D01*
X111315500Y-61108167D01*
X111400167Y-61150500D01*
X111569500Y-61150500D01*
X111654167Y-61108167D01*
X111696500Y-61065833D01*
X111738833Y-60981167D01*
X116691833Y-63246001D02*
X116649500Y-63203667D01*
X116607167Y-63119001D01*
X116607167Y-62907334D01*
X116649500Y-62822667D01*
X116691833Y-62780334D01*
X116776500Y-62738001D01*
X116861167Y-62738001D01*
X116988167Y-62780334D01*
X117496167Y-63288334D01*
X117496167Y-62738001D01*
X116903500Y-61976000D02*
X117496167Y-61976000D01*
X116564833Y-62187667D02*
X117199833Y-62399334D01*
X117199833Y-61849000D01*
X116607167Y-61341000D02*
X116607167Y-61256333D01*
X116649500Y-61171667D01*
X116691833Y-61129333D01*
X116776500Y-61087000D01*
X116945833Y-61044667D01*
X117157500Y-61044667D01*
X117326833Y-61087000D01*
X117411500Y-61129333D01*
X117453833Y-61171667D01*
X117496167Y-61256333D01*
X117496167Y-61341000D01*
X117453833Y-61425667D01*
X117411500Y-61468000D01*
X117326833Y-61510333D01*
X117157500Y-61552667D01*
X116945833Y-61552667D01*
X116776500Y-61510333D01*
X116691833Y-61468000D01*
X116649500Y-61425667D01*
X116607167Y-61341000D01*
X116607167Y-60494333D02*
X116607167Y-60409666D01*
X116649500Y-60325000D01*
X116691833Y-60282666D01*
X116776500Y-60240333D01*
X116945833Y-60198000D01*
X117157500Y-60198000D01*
X117326833Y-60240333D01*
X117411500Y-60282666D01*
X117453833Y-60325000D01*
X117496167Y-60409666D01*
X117496167Y-60494333D01*
X117453833Y-60579000D01*
X117411500Y-60621333D01*
X117326833Y-60663666D01*
X117157500Y-60706000D01*
X116945833Y-60706000D01*
X116776500Y-60663666D01*
X116691833Y-60621333D01*
X116649500Y-60579000D01*
X116607167Y-60494333D01*
X108648500Y-52472167D02*
X108352166Y-52048833D01*
X108140500Y-52472167D02*
X108140500Y-51583167D01*
X108479166Y-51583167D01*
X108563833Y-51625500D01*
X108606166Y-51667833D01*
X108648500Y-51752500D01*
X108648500Y-51879500D01*
X108606166Y-51964167D01*
X108563833Y-52006500D01*
X108479166Y-52048833D01*
X108140500Y-52048833D01*
X109495166Y-52472167D02*
X108987166Y-52472167D01*
X109241166Y-52472167D02*
X109241166Y-51583167D01*
X109156500Y-51710167D01*
X109071833Y-51794833D01*
X108987166Y-51837167D01*
X110003167Y-51964167D02*
X109918500Y-51921833D01*
X109876167Y-51879500D01*
X109833833Y-51794833D01*
X109833833Y-51752500D01*
X109876167Y-51667833D01*
X109918500Y-51625500D01*
X110003167Y-51583167D01*
X110172500Y-51583167D01*
X110257167Y-51625500D01*
X110299500Y-51667833D01*
X110341833Y-51752500D01*
X110341833Y-51794833D01*
X110299500Y-51879500D01*
X110257167Y-51921833D01*
X110172500Y-51964167D01*
X110003167Y-51964167D01*
X109918500Y-52006500D01*
X109876167Y-52048833D01*
X109833833Y-52133500D01*
X109833833Y-52302833D01*
X109876167Y-52387500D01*
X109918500Y-52429833D01*
X110003167Y-52472167D01*
X110172500Y-52472167D01*
X110257167Y-52429833D01*
X110299500Y-52387500D01*
X110341833Y-52302833D01*
X110341833Y-52133500D01*
X110299500Y-52048833D01*
X110257167Y-52006500D01*
X110172500Y-51964167D01*
X116691833Y-53213001D02*
X116649500Y-53170667D01*
X116607167Y-53086001D01*
X116607167Y-52874334D01*
X116649500Y-52789667D01*
X116691833Y-52747334D01*
X116776500Y-52705001D01*
X116861167Y-52705001D01*
X116988167Y-52747334D01*
X117496167Y-53255334D01*
X117496167Y-52705001D01*
X116903500Y-51943000D02*
X117496167Y-51943000D01*
X116564833Y-52154667D02*
X117199833Y-52366334D01*
X117199833Y-51816000D01*
X116607167Y-51308000D02*
X116607167Y-51223333D01*
X116649500Y-51138667D01*
X116691833Y-51096333D01*
X116776500Y-51054000D01*
X116945833Y-51011667D01*
X117157500Y-51011667D01*
X117326833Y-51054000D01*
X117411500Y-51096333D01*
X117453833Y-51138667D01*
X117496167Y-51223333D01*
X117496167Y-51308000D01*
X117453833Y-51392667D01*
X117411500Y-51435000D01*
X117326833Y-51477333D01*
X117157500Y-51519667D01*
X116945833Y-51519667D01*
X116776500Y-51477333D01*
X116691833Y-51435000D01*
X116649500Y-51392667D01*
X116607167Y-51308000D01*
X116607167Y-50461333D02*
X116607167Y-50376666D01*
X116649500Y-50292000D01*
X116691833Y-50249666D01*
X116776500Y-50207333D01*
X116945833Y-50165000D01*
X117157500Y-50165000D01*
X117326833Y-50207333D01*
X117411500Y-50249666D01*
X117453833Y-50292000D01*
X117496167Y-50376666D01*
X117496167Y-50461333D01*
X117453833Y-50546000D01*
X117411500Y-50588333D01*
X117326833Y-50630666D01*
X117157500Y-50673000D01*
X116945833Y-50673000D01*
X116776500Y-50630666D01*
X116691833Y-50588333D01*
X116649500Y-50546000D01*
X116607167Y-50461333D01*
X108648500Y-53742167D02*
X108352166Y-53318833D01*
X108140500Y-53742167D02*
X108140500Y-52853167D01*
X108479166Y-52853167D01*
X108563833Y-52895500D01*
X108606166Y-52937833D01*
X108648500Y-53022500D01*
X108648500Y-53149500D01*
X108606166Y-53234167D01*
X108563833Y-53276500D01*
X108479166Y-53318833D01*
X108140500Y-53318833D01*
X109495166Y-53742167D02*
X108987166Y-53742167D01*
X109241166Y-53742167D02*
X109241166Y-52853167D01*
X109156500Y-52980167D01*
X109071833Y-53064833D01*
X108987166Y-53107167D01*
X110257167Y-52853167D02*
X110087833Y-52853167D01*
X110003167Y-52895500D01*
X109960833Y-52937833D01*
X109876167Y-53064833D01*
X109833833Y-53234167D01*
X109833833Y-53572833D01*
X109876167Y-53657500D01*
X109918500Y-53699833D01*
X110003167Y-53742167D01*
X110172500Y-53742167D01*
X110257167Y-53699833D01*
X110299500Y-53657500D01*
X110341833Y-53572833D01*
X110341833Y-53361167D01*
X110299500Y-53276500D01*
X110257167Y-53234167D01*
X110172500Y-53191833D01*
X110003167Y-53191833D01*
X109918500Y-53234167D01*
X109876167Y-53276500D01*
X109833833Y-53361167D01*
X116691833Y-57912001D02*
X116649500Y-57869667D01*
X116607167Y-57785001D01*
X116607167Y-57573334D01*
X116649500Y-57488667D01*
X116691833Y-57446334D01*
X116776500Y-57404001D01*
X116861167Y-57404001D01*
X116988167Y-57446334D01*
X117496167Y-57954334D01*
X117496167Y-57404001D01*
X116903500Y-56642000D02*
X117496167Y-56642000D01*
X116564833Y-56853667D02*
X117199833Y-57065334D01*
X117199833Y-56515000D01*
X116607167Y-56007000D02*
X116607167Y-55922333D01*
X116649500Y-55837667D01*
X116691833Y-55795333D01*
X116776500Y-55753000D01*
X116945833Y-55710667D01*
X117157500Y-55710667D01*
X117326833Y-55753000D01*
X117411500Y-55795333D01*
X117453833Y-55837667D01*
X117496167Y-55922333D01*
X117496167Y-56007000D01*
X117453833Y-56091667D01*
X117411500Y-56134000D01*
X117326833Y-56176333D01*
X117157500Y-56218667D01*
X116945833Y-56218667D01*
X116776500Y-56176333D01*
X116691833Y-56134000D01*
X116649500Y-56091667D01*
X116607167Y-56007000D01*
X116607167Y-55160333D02*
X116607167Y-55075666D01*
X116649500Y-54991000D01*
X116691833Y-54948666D01*
X116776500Y-54906333D01*
X116945833Y-54864000D01*
X117157500Y-54864000D01*
X117326833Y-54906333D01*
X117411500Y-54948666D01*
X117453833Y-54991000D01*
X117496167Y-55075666D01*
X117496167Y-55160333D01*
X117453833Y-55245000D01*
X117411500Y-55287333D01*
X117326833Y-55329666D01*
X117157500Y-55372000D01*
X116945833Y-55372000D01*
X116776500Y-55329666D01*
X116691833Y-55287333D01*
X116649500Y-55245000D01*
X116607167Y-55160333D01*
D17*
X107910085Y-68428810D02*
X107757685Y-68186905D01*
X107648828Y-68428810D02*
X107648828Y-67920810D01*
X107823000Y-67920810D01*
X107866542Y-67945000D01*
X107888314Y-67969190D01*
X107910085Y-68017571D01*
X107910085Y-68090143D01*
X107888314Y-68138524D01*
X107866542Y-68162714D01*
X107823000Y-68186905D01*
X107648828Y-68186905D01*
X108345514Y-68428810D02*
X108084257Y-68428810D01*
X108214885Y-68428810D02*
X108214885Y-67920810D01*
X108171342Y-67993381D01*
X108127800Y-68041762D01*
X108084257Y-68065952D01*
X108759171Y-67920810D02*
X108541457Y-67920810D01*
X108519686Y-68162714D01*
X108541457Y-68138524D01*
X108585000Y-68114333D01*
X108693857Y-68114333D01*
X108737400Y-68138524D01*
X108759171Y-68162714D01*
X108780943Y-68211095D01*
X108780943Y-68332048D01*
X108759171Y-68380429D01*
X108737400Y-68404619D01*
X108693857Y-68428810D01*
X108585000Y-68428810D01*
X108541457Y-68404619D01*
X108519686Y-68380429D01*
X107656085Y-55728810D02*
X107503685Y-55486905D01*
X107394828Y-55728810D02*
X107394828Y-55220810D01*
X107569000Y-55220810D01*
X107612542Y-55245000D01*
X107634314Y-55269190D01*
X107656085Y-55317571D01*
X107656085Y-55390143D01*
X107634314Y-55438524D01*
X107612542Y-55462714D01*
X107569000Y-55486905D01*
X107394828Y-55486905D01*
X108091514Y-55728810D02*
X107830257Y-55728810D01*
X107960885Y-55728810D02*
X107960885Y-55220810D01*
X107917342Y-55293381D01*
X107873800Y-55341762D01*
X107830257Y-55365952D01*
X108483400Y-55390143D02*
X108483400Y-55728810D01*
X108374543Y-55196619D02*
X108265686Y-55559476D01*
X108548714Y-55559476D01*
D18*
X105694238Y-60772524D02*
X105694238Y-59502524D01*
X107024714Y-60651571D02*
X106964238Y-60712048D01*
X106782809Y-60772524D01*
X106661857Y-60772524D01*
X106480429Y-60712048D01*
X106359476Y-60591095D01*
X106299000Y-60470143D01*
X106238524Y-60228238D01*
X106238524Y-60046810D01*
X106299000Y-59804905D01*
X106359476Y-59683952D01*
X106480429Y-59563000D01*
X106661857Y-59502524D01*
X106782809Y-59502524D01*
X106964238Y-59563000D01*
X107024714Y-59623476D01*
X108234238Y-60772524D02*
X107508524Y-60772524D01*
X107871381Y-60772524D02*
X107871381Y-59502524D01*
X107750429Y-59683952D01*
X107629476Y-59804905D01*
X107508524Y-59865381D01*
X101067809Y-54803524D02*
X101793524Y-54803524D01*
X101430667Y-56073524D02*
X101430667Y-54803524D01*
X102821619Y-56073524D02*
X102216857Y-56073524D01*
X102216857Y-54803524D01*
X103244952Y-56073524D02*
X103244952Y-54803524D01*
X103728761Y-54803524D01*
X103849714Y-54864000D01*
X103910190Y-54924476D01*
X103970666Y-55045429D01*
X103970666Y-55226857D01*
X103910190Y-55347810D01*
X103849714Y-55408286D01*
X103728761Y-55468762D01*
X103244952Y-55468762D01*
X104454476Y-54924476D02*
X104514952Y-54864000D01*
X104635904Y-54803524D01*
X104938285Y-54803524D01*
X105059238Y-54864000D01*
X105119714Y-54924476D01*
X105180190Y-55045429D01*
X105180190Y-55166381D01*
X105119714Y-55347810D01*
X104394000Y-56073524D01*
X105180190Y-56073524D01*
X105784952Y-56073524D02*
X106026857Y-56073524D01*
X106147809Y-56013048D01*
X106208285Y-55952571D01*
X106329238Y-55771143D01*
X106389714Y-55529238D01*
X106389714Y-55045429D01*
X106329238Y-54924476D01*
X106268762Y-54864000D01*
X106147809Y-54803524D01*
X105905905Y-54803524D01*
X105784952Y-54864000D01*
X105724476Y-54924476D01*
X105664000Y-55045429D01*
X105664000Y-55347810D01*
X105724476Y-55468762D01*
X105784952Y-55529238D01*
X105905905Y-55589714D01*
X106147809Y-55589714D01*
X106268762Y-55529238D01*
X106329238Y-55468762D01*
X106389714Y-55347810D01*
X107599238Y-56073524D02*
X106873524Y-56073524D01*
X107236381Y-56073524D02*
X107236381Y-54803524D01*
X107115429Y-54984952D01*
X106994476Y-55105905D01*
X106873524Y-55166381D01*
X105694238Y-62804524D02*
X105694238Y-61534524D01*
X107024714Y-62683571D02*
X106964238Y-62744048D01*
X106782809Y-62804524D01*
X106661857Y-62804524D01*
X106480429Y-62744048D01*
X106359476Y-62623095D01*
X106299000Y-62502143D01*
X106238524Y-62260238D01*
X106238524Y-62078810D01*
X106299000Y-61836905D01*
X106359476Y-61715952D01*
X106480429Y-61595000D01*
X106661857Y-61534524D01*
X106782809Y-61534524D01*
X106964238Y-61595000D01*
X107024714Y-61655476D01*
X107508524Y-61655476D02*
X107569000Y-61595000D01*
X107689952Y-61534524D01*
X107992333Y-61534524D01*
X108113286Y-61595000D01*
X108173762Y-61655476D01*
X108234238Y-61776429D01*
X108234238Y-61897381D01*
X108173762Y-62078810D01*
X107448048Y-62804524D01*
X108234238Y-62804524D01*
X101067809Y-61153524D02*
X101793524Y-61153524D01*
X101430667Y-62423524D02*
X101430667Y-61153524D01*
X102821619Y-62423524D02*
X102216857Y-62423524D01*
X102216857Y-61153524D01*
X103244952Y-62423524D02*
X103244952Y-61153524D01*
X103728761Y-61153524D01*
X103849714Y-61214000D01*
X103910190Y-61274476D01*
X103970666Y-61395429D01*
X103970666Y-61576857D01*
X103910190Y-61697810D01*
X103849714Y-61758286D01*
X103728761Y-61818762D01*
X103244952Y-61818762D01*
X104454476Y-61274476D02*
X104514952Y-61214000D01*
X104635904Y-61153524D01*
X104938285Y-61153524D01*
X105059238Y-61214000D01*
X105119714Y-61274476D01*
X105180190Y-61395429D01*
X105180190Y-61516381D01*
X105119714Y-61697810D01*
X104394000Y-62423524D01*
X105180190Y-62423524D01*
X105784952Y-62423524D02*
X106026857Y-62423524D01*
X106147809Y-62363048D01*
X106208285Y-62302571D01*
X106329238Y-62121143D01*
X106389714Y-61879238D01*
X106389714Y-61395429D01*
X106329238Y-61274476D01*
X106268762Y-61214000D01*
X106147809Y-61153524D01*
X105905905Y-61153524D01*
X105784952Y-61214000D01*
X105724476Y-61274476D01*
X105664000Y-61395429D01*
X105664000Y-61697810D01*
X105724476Y-61818762D01*
X105784952Y-61879238D01*
X105905905Y-61939714D01*
X106147809Y-61939714D01*
X106268762Y-61879238D01*
X106329238Y-61818762D01*
X106389714Y-61697810D01*
X107599238Y-62423524D02*
X106873524Y-62423524D01*
X107236381Y-62423524D02*
X107236381Y-61153524D01*
X107115429Y-61334952D01*
X106994476Y-61455905D01*
X106873524Y-61516381D01*
D10*
X125285667Y-51379381D02*
X125285667Y-50379381D01*
X125619001Y-51093667D01*
X125952334Y-50379381D01*
X125952334Y-51379381D01*
X126428524Y-51379381D02*
X126428524Y-50379381D01*
X126428524Y-50855571D02*
X126999953Y-50855571D01*
X126999953Y-51379381D02*
X126999953Y-50379381D01*
X127999953Y-51379381D02*
X127428524Y-51379381D01*
X127714238Y-51379381D02*
X127714238Y-50379381D01*
X127619000Y-50522238D01*
X127523762Y-50617476D01*
X127428524Y-50665095D01*
X125666667Y-67000381D02*
X125666667Y-66000381D01*
X126000001Y-66714667D01*
X126333334Y-66000381D01*
X126333334Y-67000381D01*
X126809524Y-67000381D02*
X126809524Y-66000381D01*
X126809524Y-66476571D02*
X127380953Y-66476571D01*
X127380953Y-67000381D02*
X127380953Y-66000381D01*
X127809524Y-66095619D02*
X127857143Y-66048000D01*
X127952381Y-66000381D01*
X128190477Y-66000381D01*
X128285715Y-66048000D01*
X128333334Y-66095619D01*
X128380953Y-66190857D01*
X128380953Y-66286095D01*
X128333334Y-66428952D01*
X127761905Y-67000381D01*
X128380953Y-67000381D01*
X86177572Y-52252571D02*
X85844238Y-52252571D01*
X85844238Y-52776381D02*
X85844238Y-51776381D01*
X86320429Y-51776381D01*
X86701381Y-52776381D02*
X86701381Y-51776381D01*
X87177571Y-52776381D02*
X87177571Y-51776381D01*
X87415666Y-51776381D01*
X87558524Y-51824000D01*
X87653762Y-51919238D01*
X87701381Y-52014476D01*
X87749000Y-52204952D01*
X87749000Y-52347810D01*
X87701381Y-52538286D01*
X87653762Y-52633524D01*
X87558524Y-52728762D01*
X87415666Y-52776381D01*
X87177571Y-52776381D01*
X88701381Y-52776381D02*
X88129952Y-52776381D01*
X88415666Y-52776381D02*
X88415666Y-51776381D01*
X88320428Y-51919238D01*
X88225190Y-52014476D01*
X88129952Y-52062095D01*
X94956334Y-51792143D02*
X94908715Y-51839762D01*
X94765858Y-51887381D01*
X94670620Y-51887381D01*
X94527762Y-51839762D01*
X94432524Y-51744524D01*
X94384905Y-51649286D01*
X94337286Y-51458810D01*
X94337286Y-51315952D01*
X94384905Y-51125476D01*
X94432524Y-51030238D01*
X94527762Y-50935000D01*
X94670620Y-50887381D01*
X94765858Y-50887381D01*
X94908715Y-50935000D01*
X94956334Y-50982619D01*
X95908715Y-51887381D02*
X95337286Y-51887381D01*
X95623000Y-51887381D02*
X95623000Y-50887381D01*
X95527762Y-51030238D01*
X95432524Y-51125476D01*
X95337286Y-51173095D01*
X93686334Y-50522143D02*
X93638715Y-50569762D01*
X93495858Y-50617381D01*
X93400620Y-50617381D01*
X93257762Y-50569762D01*
X93162524Y-50474524D01*
X93114905Y-50379286D01*
X93067286Y-50188810D01*
X93067286Y-50045952D01*
X93114905Y-49855476D01*
X93162524Y-49760238D01*
X93257762Y-49665000D01*
X93400620Y-49617381D01*
X93495858Y-49617381D01*
X93638715Y-49665000D01*
X93686334Y-49712619D01*
X94067286Y-49712619D02*
X94114905Y-49665000D01*
X94210143Y-49617381D01*
X94448239Y-49617381D01*
X94543477Y-49665000D01*
X94591096Y-49712619D01*
X94638715Y-49807857D01*
X94638715Y-49903095D01*
X94591096Y-50045952D01*
X94019667Y-50617381D01*
X94638715Y-50617381D01*
%LPC*%
D20*
X90805000Y-64770000D03*
X92075000Y-64770000D03*
X93345000Y-64770000D03*
X94615000Y-64770000D03*
X95885000Y-64770000D03*
X97155000Y-64770000D03*
X98425000Y-64770000D03*
X99695000Y-64770000D03*
X99695000Y-54610000D03*
X98425000Y-54610000D03*
X97155000Y-54610000D03*
X95885000Y-54610000D03*
X94615000Y-54610000D03*
X93345000Y-54610000D03*
X92075000Y-54610000D03*
X90805000Y-54610000D03*
D21*
X102743000Y-66929000D03*
X104267000Y-66929000D03*
X104267000Y-68961000D03*
X102743000Y-68961000D03*
X102743000Y-55372000D03*
X104267000Y-55372000D03*
X104267000Y-53213000D03*
X102743000Y-53213000D03*
D22*
X91440000Y-69342000D03*
X91440000Y-67818000D03*
X93472000Y-69342000D03*
X93472000Y-67818000D03*
X95504000Y-69342000D03*
X95504000Y-67818000D03*
X96520000Y-48768000D03*
X96520000Y-50292000D03*
X99060000Y-48768000D03*
X99060000Y-50292000D03*
X101600000Y-48768000D03*
X101600000Y-50292000D03*
X104140000Y-48768000D03*
X104140000Y-50292000D03*
X106680000Y-48768000D03*
X106680000Y-50292000D03*
X109220000Y-48768000D03*
X109220000Y-50292000D03*
D23*
X127000000Y-55118000D03*
D24*
X127000000Y-57658000D03*
X127000000Y-60198000D03*
X127000000Y-62738000D03*
D23*
X109220000Y-45720000D03*
D24*
X111760000Y-45720000D03*
X114300000Y-45720000D03*
X116840000Y-45720000D03*
D23*
X99060000Y-45720000D03*
D24*
X101600000Y-45720000D03*
X104140000Y-45720000D03*
X106680000Y-45720000D03*
D23*
X88900000Y-45720000D03*
D24*
X91440000Y-45720000D03*
X93980000Y-45720000D03*
X96520000Y-45720000D03*
D23*
X109220000Y-72390000D03*
D24*
X111760000Y-72390000D03*
X114300000Y-72390000D03*
X116840000Y-72390000D03*
D23*
X99060000Y-72390000D03*
D24*
X101600000Y-72390000D03*
X104140000Y-72390000D03*
X106680000Y-72390000D03*
D23*
X88900000Y-72390000D03*
D24*
X91440000Y-72390000D03*
X93980000Y-72390000D03*
X96520000Y-72390000D03*
D23*
X86360000Y-55118000D03*
D24*
X86360000Y-57658000D03*
X86360000Y-60198000D03*
X86360000Y-62738000D03*
D25*
X122936000Y-65760600D03*
X122936000Y-61747400D03*
X122936000Y-56235600D03*
X122936000Y-52222400D03*
D26*
X113411000Y-66421000D03*
X118999000Y-66421000D03*
X113411000Y-61722000D03*
X118999000Y-61722000D03*
X113411000Y-51689000D03*
X118999000Y-51689000D03*
X113411000Y-56388000D03*
X118999000Y-56388000D03*
D21*
X111125000Y-66802000D03*
X109601000Y-66802000D03*
X109220000Y-55499000D03*
X110744000Y-55499000D03*
D27*
X109537500Y-58674000D03*
X109537500Y-57404000D03*
X103060500Y-57404000D03*
X103060500Y-58674000D03*
X109537500Y-65024000D03*
X109537500Y-63754000D03*
X103060500Y-63754000D03*
X103060500Y-65024000D03*
D28*
X86995000Y-49530000D03*
D29*
X91440000Y-51169000D03*
X91440000Y-49669000D03*
X90043000Y-51169000D03*
X90043000Y-49669000D03*
M02*
