G04 #@! TF.FileFunction,Copper,L4,Bot,Signal*
%FSLAX46Y46*%
G04 Gerber Fmt 4.6, Leading zero omitted, Abs format (unit mm)*
G04 Created by KiCad (PCBNEW (2015-01-16 BZR 5376)-product) date 25/06/2015 00:14:29*
%MOMM*%
G01*
G04 APERTURE LIST*
%ADD10C,0.150000*%
%ADD11R,1.524000X1.524000*%
%ADD12C,1.524000*%
%ADD13C,0.800100*%
%ADD14C,0.254000*%
G04 APERTURE END LIST*
D10*
D11*
X127000000Y-55118000D03*
D12*
X127000000Y-57658000D03*
X127000000Y-60198000D03*
X127000000Y-62738000D03*
D11*
X109220000Y-45720000D03*
D12*
X111760000Y-45720000D03*
X114300000Y-45720000D03*
X116840000Y-45720000D03*
D11*
X99060000Y-45720000D03*
D12*
X101600000Y-45720000D03*
X104140000Y-45720000D03*
X106680000Y-45720000D03*
D11*
X88900000Y-45720000D03*
D12*
X91440000Y-45720000D03*
X93980000Y-45720000D03*
X96520000Y-45720000D03*
D11*
X109220000Y-72390000D03*
D12*
X111760000Y-72390000D03*
X114300000Y-72390000D03*
X116840000Y-72390000D03*
D11*
X99060000Y-72390000D03*
D12*
X101600000Y-72390000D03*
X104140000Y-72390000D03*
X106680000Y-72390000D03*
D11*
X88900000Y-72390000D03*
D12*
X91440000Y-72390000D03*
X93980000Y-72390000D03*
X96520000Y-72390000D03*
D11*
X86360000Y-55118000D03*
D12*
X86360000Y-57658000D03*
X86360000Y-60198000D03*
X86360000Y-62738000D03*
D13*
X105029000Y-62484000D03*
X93980000Y-60452000D03*
X90932000Y-58420000D03*
X90932000Y-56896000D03*
X110998000Y-53467000D03*
X102235000Y-65024000D03*
X106807000Y-52324000D03*
X109601000Y-62738000D03*
X99695000Y-52578000D03*
X99695000Y-57404000D03*
X100965000Y-59817000D03*
X96393000Y-59817000D03*
X95250000Y-60833000D03*
X103632000Y-60960000D03*
X92571000Y-49669000D03*
X92202000Y-48260000D03*
X105537000Y-65786000D03*
X100203000Y-66802000D03*
X105791000Y-55499000D03*
X90043000Y-48260000D03*
X90678000Y-52578000D03*
X105664000Y-68961000D03*
X105664000Y-53213000D03*
D14*
X110109000Y-51181000D02*
X108839000Y-52451000D01*
X108839000Y-52451000D02*
X108839000Y-53340000D01*
X108839000Y-53340000D02*
X108839000Y-53213000D01*
X108839000Y-53213000D02*
X108839000Y-53340000D01*
X108521500Y-53657500D02*
X107823000Y-54356000D01*
X107823000Y-54356000D02*
X107823000Y-56769000D01*
X107823000Y-56769000D02*
X107823000Y-56642000D01*
X107823000Y-56642000D02*
X107823000Y-56769000D01*
X113411000Y-47498000D02*
X112268000Y-47498000D01*
X108839000Y-53340000D02*
X108521500Y-53657500D01*
X110109000Y-49657000D02*
X110109000Y-51181000D01*
X112268000Y-47498000D02*
X110109000Y-49657000D01*
X107950000Y-64770000D02*
X107950000Y-64516000D01*
X107950000Y-64516000D02*
X107823000Y-64389000D01*
X107823000Y-64389000D02*
X107696000Y-64262000D01*
X107823000Y-64389000D02*
X107950000Y-64516000D01*
X107061000Y-63627000D02*
X107696000Y-64262000D01*
X107696000Y-64262000D02*
X107823000Y-64389000D01*
X108521500Y-66929000D02*
X108521500Y-66611500D01*
X116840000Y-72136000D02*
X115443000Y-70739000D01*
X108521500Y-68897500D02*
X109347000Y-69723000D01*
X109347000Y-69723000D02*
X111887000Y-69723000D01*
X111887000Y-69723000D02*
X112903000Y-70739000D01*
X112903000Y-70739000D02*
X115443000Y-70739000D01*
X108521500Y-66929000D02*
X108521500Y-68897500D01*
X108521500Y-66611500D02*
X107950000Y-66040000D01*
X107950000Y-66040000D02*
X107950000Y-64770000D01*
X107950000Y-64770000D02*
X107950000Y-64643000D01*
X106172000Y-63627000D02*
X107061000Y-63627000D01*
X105029000Y-62484000D02*
X106172000Y-63627000D01*
X105029000Y-59563000D02*
X107823000Y-56769000D01*
X105029000Y-62484000D02*
X105029000Y-59563000D01*
X116840000Y-46990000D02*
X116840000Y-45720000D01*
X116840000Y-46990000D02*
X116332000Y-47498000D01*
X116332000Y-47498000D02*
X113411000Y-47498000D01*
X116840000Y-72390000D02*
X116840000Y-72136000D01*
X116840000Y-72136000D02*
X116840000Y-72390000D01*
X93472000Y-51562000D02*
X93472000Y-47752000D01*
X93472000Y-47752000D02*
X92456000Y-46736000D01*
X91440000Y-72390000D02*
X91440000Y-70104000D01*
X90932000Y-60071000D02*
X90932000Y-58420000D01*
X89027000Y-61976000D02*
X90932000Y-60071000D01*
X89027000Y-67691000D02*
X89027000Y-61976000D01*
X91440000Y-70104000D02*
X89027000Y-67691000D01*
X92202000Y-55372000D02*
X93472000Y-54102000D01*
X88392000Y-57404000D02*
X88138000Y-57658000D01*
X92456000Y-46736000D02*
X91440000Y-45720000D01*
X90424000Y-55372000D02*
X88392000Y-57404000D01*
X90424000Y-55372000D02*
X92202000Y-55372000D01*
X88138000Y-57658000D02*
X86360000Y-57658000D01*
X93472000Y-54102000D02*
X93472000Y-51562000D01*
X94742000Y-51054000D02*
X94742000Y-46482000D01*
X94742000Y-46482000D02*
X93980000Y-45720000D01*
X91948000Y-56896000D02*
X91948000Y-60706000D01*
X91948000Y-60706000D02*
X90805000Y-61849000D01*
X93980000Y-72390000D02*
X93980000Y-70231000D01*
X93980000Y-70231000D02*
X90805000Y-67056000D01*
X90805000Y-67056000D02*
X90805000Y-61849000D01*
X92456000Y-56896000D02*
X92710000Y-56896000D01*
X94742000Y-51054000D02*
X94742000Y-51054000D01*
X94742000Y-55372000D02*
X93218000Y-56896000D01*
X93218000Y-56896000D02*
X92710000Y-56896000D01*
X94742000Y-51054000D02*
X94742000Y-55372000D01*
X92710000Y-56896000D02*
X91948000Y-56896000D01*
X91948000Y-56896000D02*
X90932000Y-56896000D01*
X90932000Y-56896000D02*
X90932000Y-56896000D01*
X90932000Y-56896000D02*
X89408000Y-58420000D01*
X90932000Y-56896000D02*
X90932000Y-56896000D01*
X89408000Y-58420000D02*
X89408000Y-59690000D01*
X88900000Y-60198000D02*
X86360000Y-60198000D01*
X89408000Y-59690000D02*
X88900000Y-60198000D01*
X106807000Y-52324000D02*
X104521000Y-52324000D01*
X104521000Y-52324000D02*
X104394000Y-52451000D01*
X102235000Y-65024000D02*
X102235000Y-54610000D01*
X104394000Y-52451000D02*
X102235000Y-54610000D01*
X93726000Y-58420000D02*
X92837000Y-59309000D01*
X92837000Y-66167000D02*
X93726000Y-67056000D01*
X92837000Y-59309000D02*
X92837000Y-66167000D01*
X96266000Y-55880000D02*
X93726000Y-58420000D01*
X99060000Y-45720000D02*
X99060000Y-46736000D01*
X96266000Y-49530000D02*
X96266000Y-55880000D01*
X93726000Y-67056000D02*
X99060000Y-72390000D01*
X99060000Y-46736000D02*
X96266000Y-49530000D01*
X101600000Y-72390000D02*
X101600000Y-71247000D01*
X99187000Y-70612000D02*
X98552000Y-69977000D01*
X100965000Y-70612000D02*
X99187000Y-70612000D01*
X101600000Y-71247000D02*
X100965000Y-70612000D01*
X97790000Y-58801000D02*
X97790000Y-61849000D01*
X97790000Y-61849000D02*
X97663000Y-61976000D01*
X97663000Y-61976000D02*
X96012000Y-63627000D01*
X96012000Y-63627000D02*
X96012000Y-67437000D01*
X96012000Y-67437000D02*
X98552000Y-69977000D01*
X97155000Y-50927000D02*
X98298000Y-49784000D01*
X97155000Y-58166000D02*
X97155000Y-50927000D01*
X97790000Y-58801000D02*
X97155000Y-58166000D01*
X98298000Y-49784000D02*
X99568000Y-48514000D01*
X99568000Y-48514000D02*
X101600000Y-46482000D01*
X101600000Y-72390000D02*
X101600000Y-71628000D01*
X101600000Y-46482000D02*
X101600000Y-45720000D01*
X99314000Y-69088000D02*
X100076000Y-69850000D01*
X101981000Y-69850000D02*
X104140000Y-72009000D01*
X100076000Y-69850000D02*
X101981000Y-69850000D01*
X104140000Y-72009000D02*
X104140000Y-72390000D01*
X98806000Y-62357000D02*
X98806000Y-58039000D01*
X97282000Y-63881000D02*
X98806000Y-62357000D01*
X97282000Y-67056000D02*
X97282000Y-63881000D01*
X99314000Y-69088000D02*
X97282000Y-67056000D01*
X101092000Y-50038000D02*
X99695000Y-51435000D01*
X99695000Y-51435000D02*
X99695000Y-52578000D01*
X104140000Y-45720000D02*
X104140000Y-46990000D01*
X101092000Y-50038000D02*
X104140000Y-46990000D01*
X98806000Y-58039000D02*
X98298000Y-57531000D01*
X98298000Y-57531000D02*
X98298000Y-53340000D01*
X98298000Y-53340000D02*
X99060000Y-52578000D01*
X99060000Y-52578000D02*
X99695000Y-52578000D01*
X100774500Y-69151500D02*
X103568500Y-69151500D01*
X103568500Y-69151500D02*
X106680000Y-72263000D01*
X98552000Y-63881000D02*
X98552000Y-66929000D01*
X100774500Y-69151500D02*
X100711000Y-69088000D01*
X98552000Y-66929000D02*
X100774500Y-69151500D01*
X98552000Y-63881000D02*
X99695000Y-62738000D01*
X99695000Y-57404000D02*
X99695000Y-62738000D01*
X100711000Y-56515000D02*
X100711000Y-57023000D01*
X102235000Y-51943000D02*
X100711000Y-53467000D01*
X100711000Y-56515000D02*
X100711000Y-53467000D01*
X100330000Y-57404000D02*
X99695000Y-57404000D01*
X100711000Y-57023000D02*
X100330000Y-57404000D01*
X106680000Y-45720000D02*
X106680000Y-47498000D01*
X106680000Y-47498000D02*
X102235000Y-51943000D01*
X102235000Y-51943000D02*
X102108000Y-52070000D01*
X106680000Y-72390000D02*
X106680000Y-72263000D01*
X106870500Y-68516500D02*
X106870500Y-69913500D01*
X108712000Y-70866000D02*
X109220000Y-71374000D01*
X107823000Y-70866000D02*
X108712000Y-70866000D01*
X106870500Y-69913500D02*
X107823000Y-70866000D01*
X103949500Y-67564000D02*
X102743000Y-67564000D01*
X102743000Y-67564000D02*
X102362000Y-67183000D01*
X106299000Y-67945000D02*
X105918000Y-67564000D01*
X105918000Y-67564000D02*
X103949500Y-67564000D01*
X106299000Y-67945000D02*
X106870500Y-68516500D01*
X100965000Y-59817000D02*
X100965000Y-65786000D01*
X100965000Y-65786000D02*
X102362000Y-67183000D01*
X108077000Y-48514000D02*
X109220000Y-47371000D01*
X106807000Y-48514000D02*
X108077000Y-48514000D01*
X101600000Y-53721000D02*
X106807000Y-48514000D01*
X101600000Y-59182000D02*
X101600000Y-53721000D01*
X100965000Y-59817000D02*
X101600000Y-59182000D01*
X109220000Y-72390000D02*
X109220000Y-71374000D01*
X109220000Y-45720000D02*
X109220000Y-47371000D01*
X109093000Y-51054000D02*
X108077000Y-52070000D01*
X108077000Y-52705000D02*
X107696000Y-53086000D01*
X108077000Y-52070000D02*
X108077000Y-52705000D01*
X107442000Y-53340000D02*
X107061000Y-53721000D01*
X107061000Y-56515000D02*
X106934000Y-56642000D01*
X107061000Y-53721000D02*
X107061000Y-56515000D01*
X110426500Y-47815500D02*
X109093000Y-49149000D01*
X107696000Y-53086000D02*
X107442000Y-53340000D01*
X109093000Y-49149000D02*
X109093000Y-51054000D01*
X106870500Y-64960500D02*
X106870500Y-66992500D01*
X106870500Y-66992500D02*
X107823000Y-67945000D01*
X110553500Y-70294500D02*
X108648500Y-70294500D01*
X110553500Y-70294500D02*
X111760000Y-71501000D01*
X111760000Y-71501000D02*
X111760000Y-72390000D01*
X108648500Y-70294500D02*
X107823000Y-69469000D01*
X107823000Y-69469000D02*
X107823000Y-67945000D01*
X103632000Y-60960000D02*
X103632000Y-58928000D01*
X103632000Y-58928000D02*
X105410000Y-57150000D01*
X105410000Y-57150000D02*
X106426000Y-57150000D01*
X106426000Y-57150000D02*
X106934000Y-56642000D01*
X103632000Y-63246000D02*
X104902000Y-64516000D01*
X104902000Y-64516000D02*
X106426000Y-64516000D01*
X103632000Y-60960000D02*
X103632000Y-63246000D01*
X106870500Y-64960500D02*
X106426000Y-64516000D01*
X111760000Y-45720000D02*
X111760000Y-46482000D01*
X111760000Y-46482000D02*
X110426500Y-47815500D01*
X92571000Y-49669000D02*
X92583000Y-49657000D01*
M02*
